<?xml version="1.0" encoding="UTF-8" standalone="no"?>
<!DOCTYPE svg PUBLIC "-//W3C//DTD SVG 1.1//EN"
 "http://www.w3.org/Graphics/SVG/1.1/DTD/svg11.dtd">
<!-- Generated by graphviz version 2.38.0 (20140413.2041)
 -->
<!-- Title: kzh::operation Pages: 1 -->
<svg width="399pt" height="84pt"
 viewBox="0.00 0.00 399.00 84.00" xmlns="http://www.w3.org/2000/svg" xmlns:xlink="http://www.w3.org/1999/xlink">
<g id="graph0" class="graph" transform="scale(1 1) rotate(0) translate(4 80)">
<title>kzh::operation</title>
<polygon fill="white" stroke="none" points="-4,4 -4,-80 395,-80 395,4 -4,4"/>
<!-- Node1 -->
<g id="node1" class="node"><title>Node1</title>
<polygon fill="#bfbfbf" stroke="black" points="153.5,-56.5 153.5,-75.5 235.5,-75.5 235.5,-56.5 153.5,-56.5"/>
<text text-anchor="middle" x="194.5" y="-63.5" font-family="Ubuntu Regular" font-size="10.00">kzh::operation</text>
</g>
<!-- Node2 -->
<g id="node2" class="node"><title>Node2</title>
<g id="a_node2"><a xlink:href="classkzh_1_1create__operation.html" target="_top" xlink:title="kzh::create_operation">
<polygon fill="white" stroke="black" points="0,-0.5 0,-19.5 117,-19.5 117,-0.5 0,-0.5"/>
<text text-anchor="middle" x="58.5" y="-7.5" font-family="Ubuntu Regular" font-size="10.00">kzh::create_operation</text>
</a>
</g>
</g>
<!-- Node1&#45;&gt;Node2 -->
<g id="edge1" class="edge"><title>Node1&#45;&gt;Node2</title>
<path fill="none" stroke="midnightblue" d="M163.365,-52.6377C137.843,-42.504 102.391,-28.4274 79.9488,-19.5164"/>
<polygon fill="midnightblue" stroke="midnightblue" points="162.365,-56.0061 172.95,-56.4435 164.948,-49.5002 162.365,-56.0061"/>
</g>
<!-- Node3 -->
<g id="node3" class="node"><title>Node3</title>
<g id="a_node3"><a xlink:href="classkzh_1_1delete__operation.html" target="_top" xlink:title="kzh::delete_operation">
<polygon fill="white" stroke="black" points="135.5,-0.5 135.5,-19.5 253.5,-19.5 253.5,-0.5 135.5,-0.5"/>
<text text-anchor="middle" x="194.5" y="-7.5" font-family="Ubuntu Regular" font-size="10.00">kzh::delete_operation</text>
</a>
</g>
</g>
<!-- Node1&#45;&gt;Node3 -->
<g id="edge2" class="edge"><title>Node1&#45;&gt;Node3</title>
<path fill="none" stroke="midnightblue" d="M194.5,-45.8045C194.5,-36.9102 194.5,-26.7798 194.5,-19.7511"/>
<polygon fill="midnightblue" stroke="midnightblue" points="191,-46.083 194.5,-56.083 198,-46.083 191,-46.083"/>
</g>
<!-- Node4 -->
<g id="node4" class="node"><title>Node4</title>
<g id="a_node4"><a xlink:href="classkzh_1_1update__operation.html" target="_top" xlink:title="kzh::update_operation">
<polygon fill="white" stroke="black" points="272,-0.5 272,-19.5 391,-19.5 391,-0.5 272,-0.5"/>
<text text-anchor="middle" x="331.5" y="-7.5" font-family="Ubuntu Regular" font-size="10.00">kzh::update_operation</text>
</a>
</g>
</g>
<!-- Node1&#45;&gt;Node4 -->
<g id="edge3" class="edge"><title>Node1&#45;&gt;Node4</title>
<path fill="none" stroke="midnightblue" d="M225.523,-52.772C251.257,-42.6287 287.186,-28.4669 309.894,-19.5164"/>
<polygon fill="midnightblue" stroke="midnightblue" points="224.228,-49.5203 216.208,-56.4435 226.795,-56.0326 224.228,-49.5203"/>
</g>
</g>
</svg>
