<?xml version="1.0" encoding="UTF-8" standalone="no"?>
<!DOCTYPE svg PUBLIC "-//W3C//DTD SVG 1.1//EN"
 "http://www.w3.org/Graphics/SVG/1.1/DTD/svg11.dtd">
<!-- Generated by graphviz version 2.38.0 (20140413.2041)
 -->
<!-- Title: kzh::create_operation Pages: 1 -->
<svg width="359pt" height="276pt"
 viewBox="0.00 0.00 358.50 276.00" xmlns="http://www.w3.org/2000/svg" xmlns:xlink="http://www.w3.org/1999/xlink">
<g id="graph0" class="graph" transform="scale(1 1) rotate(0) translate(4 272)">
<title>kzh::create_operation</title>
<polygon fill="white" stroke="none" points="-4,4 -4,-272 354.5,-272 354.5,4 -4,4"/>
<!-- Node1 -->
<g id="node1" class="node"><title>Node1</title>
<polygon fill="#bfbfbf" stroke="black" points="0,-0.5 0,-19.5 117,-19.5 117,-0.5 0,-0.5"/>
<text text-anchor="middle" x="58.5" y="-7.5" font-family="Ubuntu Regular" font-size="10.00">kzh::create_operation</text>
</g>
<!-- Node2 -->
<g id="node2" class="node"><title>Node2</title>
<g id="a_node2"><a xlink:href="classkzh_1_1operation.html" target="_top" xlink:title="kzh::operation">
<polygon fill="white" stroke="black" points="115.5,-57.5 115.5,-76.5 197.5,-76.5 197.5,-57.5 115.5,-57.5"/>
<text text-anchor="middle" x="156.5" y="-64.5" font-family="Ubuntu Regular" font-size="10.00">kzh::operation</text>
</a>
</g>
</g>
<!-- Node2&#45;&gt;Node1 -->
<g id="edge1" class="edge"><title>Node2&#45;&gt;Node1</title>
<path fill="none" stroke="midnightblue" d="M132.257,-52.394C113.932,-42.1098 89.3421,-28.3093 73.705,-19.5334"/>
<polygon fill="midnightblue" stroke="midnightblue" points="130.754,-55.5642 141.188,-57.4062 134.18,-49.4599 130.754,-55.5642"/>
</g>
<!-- Node3 -->
<g id="node3" class="node"><title>Node3</title>
<g id="a_node3"><a xlink:href="structkzh_1_1KARAZEH__EXPORT.html" target="_top" xlink:title="kzh::KARAZEH_EXPORT">
<polygon fill="white" stroke="black" points="97,-124.5 97,-143.5 216,-143.5 216,-124.5 97,-124.5"/>
<text text-anchor="middle" x="156.5" y="-131.5" font-family="Ubuntu Regular" font-size="10.00">kzh::KARAZEH_EXPORT</text>
</a>
</g>
</g>
<!-- Node3&#45;&gt;Node2 -->
<g id="edge2" class="edge"><title>Node3&#45;&gt;Node2</title>
<path fill="none" stroke="#9a32cd" stroke-dasharray="5,2" d="M156.5,-114.037C156.5,-101.67 156.5,-86.1198 156.5,-76.6273"/>
<polygon fill="#9a32cd" stroke="#9a32cd" points="153,-114.234 156.5,-124.234 160,-114.234 153,-114.234"/>
<text text-anchor="middle" x="174.5" y="-98" font-family="Ubuntu Regular" font-size="10.00"> config_</text>
</g>
<!-- Node4 -->
<g id="node4" class="node"><title>Node4</title>
<g id="a_node4"><a xlink:href="classkzh_1_1file__manager.html" target="_top" xlink:title="kzh::file_manager">
<polygon fill="white" stroke="black" points="46.5,-191.5 46.5,-210.5 142.5,-210.5 142.5,-191.5 46.5,-191.5"/>
<text text-anchor="middle" x="94.5" y="-198.5" font-family="Ubuntu Regular" font-size="10.00">kzh::file_manager</text>
</a>
</g>
</g>
<!-- Node4&#45;&gt;Node3 -->
<g id="edge3" class="edge"><title>Node4&#45;&gt;Node3</title>
<path fill="none" stroke="#9a32cd" stroke-dasharray="5,2" d="M101.216,-181.667C104.268,-174.973 108.361,-167.664 113.5,-162 120.371,-154.427 129.844,-148.174 138.15,-143.599"/>
<polygon fill="#9a32cd" stroke="#9a32cd" points="97.8028,-180.77 97.2784,-191.352 104.287,-183.406 97.8028,-180.77"/>
<text text-anchor="middle" x="144.5" y="-165" font-family="Ubuntu Regular" font-size="10.00"> file_manager</text>
</g>
<!-- Node5 -->
<g id="node5" class="node"><title>Node5</title>
<g id="a_node5"><a xlink:href="classkzh_1_1logger.html" target="_top" xlink:title="kzh::logger">
<polygon fill="white" stroke="black" points="60.5,-248.5 60.5,-267.5 128.5,-267.5 128.5,-248.5 60.5,-248.5"/>
<text text-anchor="middle" x="94.5" y="-255.5" font-family="Ubuntu Regular" font-size="10.00">kzh::logger</text>
</a>
</g>
</g>
<!-- Node5&#45;&gt;Node1 -->
<g id="edge9" class="edge"><title>Node5&#45;&gt;Node1</title>
<path fill="none" stroke="darkgreen" d="M55.1191,-244.506C36.5904,-235.927 18.5,-222.342 18.5,-202 18.5,-202 18.5,-202 18.5,-66 18.5,-46.6368 34.916,-29.5107 46.715,-19.702"/>
<polygon fill="darkgreen" stroke="darkgreen" points="53.8878,-247.785 64.4628,-248.434 56.6006,-241.332 53.8878,-247.785"/>
</g>
<!-- Node5&#45;&gt;Node4 -->
<g id="edge4" class="edge"><title>Node5&#45;&gt;Node4</title>
<path fill="none" stroke="midnightblue" d="M94.5,-238.117C94.5,-228.817 94.5,-218.056 94.5,-210.715"/>
<polygon fill="midnightblue" stroke="midnightblue" points="91.0001,-238.406 94.5,-248.406 98.0001,-238.406 91.0001,-238.406"/>
</g>
<!-- Node6 -->
<g id="node6" class="node"><title>Node6</title>
<g id="a_node6"><a xlink:href="classkzh_1_1downloader.html" target="_top" xlink:title="kzh::downloader">
<polygon fill="white" stroke="black" points="161,-191.5 161,-210.5 252,-210.5 252,-191.5 161,-191.5"/>
<text text-anchor="middle" x="206.5" y="-198.5" font-family="Ubuntu Regular" font-size="10.00">kzh::downloader</text>
</a>
</g>
</g>
<!-- Node5&#45;&gt;Node6 -->
<g id="edge6" class="edge"><title>Node5&#45;&gt;Node6</title>
<path fill="none" stroke="darkgreen" d="M121.061,-243.957C142.114,-233.618 170.924,-219.47 189.123,-210.533"/>
<polygon fill="darkgreen" stroke="darkgreen" points="119.433,-240.857 112,-248.406 122.519,-247.14 119.433,-240.857"/>
</g>
<!-- Node6&#45;&gt;Node3 -->
<g id="edge5" class="edge"><title>Node6&#45;&gt;Node3</title>
<path fill="none" stroke="#9a32cd" stroke-dasharray="5,2" d="M193.631,-183.27C183.882,-170.597 170.885,-153.701 163.136,-143.627"/>
<polygon fill="#9a32cd" stroke="#9a32cd" points="190.885,-185.442 199.757,-191.234 196.434,-181.174 190.885,-185.442"/>
<text text-anchor="middle" x="213" y="-165" font-family="Ubuntu Regular" font-size="10.00"> downloader</text>
</g>
<!-- Node7 -->
<g id="node7" class="node"><title>Node7</title>
<g id="a_node7"><a xlink:href="classkzh_1_1hasher.html" target="_top" xlink:title="kzh::hasher">
<polygon fill="white" stroke="black" points="270.5,-191.5 270.5,-210.5 338.5,-210.5 338.5,-191.5 270.5,-191.5"/>
<text text-anchor="middle" x="304.5" y="-198.5" font-family="Ubuntu Regular" font-size="10.00">kzh::hasher</text>
</a>
</g>
</g>
<!-- Node7&#45;&gt;Node3 -->
<g id="edge7" class="edge"><title>Node7&#45;&gt;Node3</title>
<path fill="none" stroke="#9a32cd" stroke-dasharray="5,2" d="M285.153,-185.588C274,-177.79 259.46,-168.459 245.5,-162 228.794,-154.27 209.318,-148.071 192.852,-143.571"/>
<polygon fill="#9a32cd" stroke="#9a32cd" points="283.13,-188.444 293.296,-191.43 287.211,-182.757 283.13,-188.444"/>
<text text-anchor="middle" x="283.5" y="-165" font-family="Ubuntu Regular" font-size="10.00"> hasher</text>
</g>
<!-- Node8 -->
<g id="node8" class="node"><title>Node8</title>
<g id="a_node8"><a xlink:href="structkzh_1_1release__manifest.html" target="_top" xlink:title="kzh::release_manifest">
<polygon fill="white" stroke="black" points="234.5,-124.5 234.5,-143.5 350.5,-143.5 350.5,-124.5 234.5,-124.5"/>
<text text-anchor="middle" x="292.5" y="-131.5" font-family="Ubuntu Regular" font-size="10.00">kzh::release_manifest</text>
</a>
</g>
</g>
<!-- Node8&#45;&gt;Node2 -->
<g id="edge8" class="edge"><title>Node8&#45;&gt;Node2</title>
<path fill="none" stroke="#9a32cd" stroke-dasharray="5,2" d="M265.182,-119.944C238.245,-107.069 197.838,-87.7573 174.634,-76.6672"/>
<polygon fill="#9a32cd" stroke="#9a32cd" points="263.908,-123.214 274.44,-124.369 266.927,-116.898 263.908,-123.214"/>
<text text-anchor="middle" x="243" y="-98" font-family="Ubuntu Regular" font-size="10.00"> rm_</text>
</g>
</g>
</svg>
