<?xml version="1.0" encoding="UTF-8" standalone="no"?>
<!DOCTYPE svg PUBLIC "-//W3C//DTD SVG 1.1//EN"
 "http://www.w3.org/Graphics/SVG/1.1/DTD/svg11.dtd">
<!-- Generated by graphviz version 2.38.0 (20140413.2041)
 -->
<!-- Title: kzh::delete_operation Pages: 1 -->
<svg width="359pt" height="276pt"
 viewBox="0.00 0.00 359.00 276.00" xmlns="http://www.w3.org/2000/svg" xmlns:xlink="http://www.w3.org/1999/xlink">
<g id="graph0" class="graph" transform="scale(1 1) rotate(0) translate(4 272)">
<title>kzh::delete_operation</title>
<polygon fill="white" stroke="none" points="-4,4 -4,-272 355,-272 355,4 -4,4"/>
<!-- Node1 -->
<g id="node1" class="node"><title>Node1</title>
<polygon fill="#bfbfbf" stroke="black" points="0,-0.5 0,-19.5 118,-19.5 118,-0.5 0,-0.5"/>
<text text-anchor="middle" x="59" y="-7.5" font-family="Ubuntu Regular" font-size="10.00">kzh::delete_operation</text>
</g>
<!-- Node2 -->
<g id="node2" class="node"><title>Node2</title>
<g id="a_node2"><a xlink:href="classkzh_1_1operation.html" target="_top" xlink:title="kzh::operation">
<polygon fill="white" stroke="black" points="116,-57.5 116,-76.5 198,-76.5 198,-57.5 116,-57.5"/>
<text text-anchor="middle" x="157" y="-64.5" font-family="Ubuntu Regular" font-size="10.00">kzh::operation</text>
</a>
</g>
</g>
<!-- Node2&#45;&gt;Node1 -->
<g id="edge1" class="edge"><title>Node2&#45;&gt;Node1</title>
<path fill="none" stroke="midnightblue" d="M132.757,-52.394C114.432,-42.1098 89.8421,-28.3093 74.205,-19.5334"/>
<polygon fill="midnightblue" stroke="midnightblue" points="131.254,-55.5642 141.688,-57.4062 134.68,-49.4599 131.254,-55.5642"/>
</g>
<!-- Node3 -->
<g id="node3" class="node"><title>Node3</title>
<g id="a_node3"><a xlink:href="structkzh_1_1KARAZEH__EXPORT.html" target="_top" xlink:title="kzh::KARAZEH_EXPORT">
<polygon fill="white" stroke="black" points="97.5,-124.5 97.5,-143.5 216.5,-143.5 216.5,-124.5 97.5,-124.5"/>
<text text-anchor="middle" x="157" y="-131.5" font-family="Ubuntu Regular" font-size="10.00">kzh::KARAZEH_EXPORT</text>
</a>
</g>
</g>
<!-- Node3&#45;&gt;Node2 -->
<g id="edge2" class="edge"><title>Node3&#45;&gt;Node2</title>
<path fill="none" stroke="#9a32cd" stroke-dasharray="5,2" d="M157,-114.037C157,-101.67 157,-86.1198 157,-76.6273"/>
<polygon fill="#9a32cd" stroke="#9a32cd" points="153.5,-114.234 157,-124.234 160.5,-114.234 153.5,-114.234"/>
<text text-anchor="middle" x="175" y="-98" font-family="Ubuntu Regular" font-size="10.00"> config_</text>
</g>
<!-- Node4 -->
<g id="node4" class="node"><title>Node4</title>
<g id="a_node4"><a xlink:href="classkzh_1_1file__manager.html" target="_top" xlink:title="kzh::file_manager">
<polygon fill="white" stroke="black" points="47,-191.5 47,-210.5 143,-210.5 143,-191.5 47,-191.5"/>
<text text-anchor="middle" x="95" y="-198.5" font-family="Ubuntu Regular" font-size="10.00">kzh::file_manager</text>
</a>
</g>
</g>
<!-- Node4&#45;&gt;Node3 -->
<g id="edge3" class="edge"><title>Node4&#45;&gt;Node3</title>
<path fill="none" stroke="#9a32cd" stroke-dasharray="5,2" d="M101.716,-181.667C104.768,-174.973 108.861,-167.664 114,-162 120.871,-154.427 130.344,-148.174 138.65,-143.599"/>
<polygon fill="#9a32cd" stroke="#9a32cd" points="98.3028,-180.77 97.7784,-191.352 104.787,-183.406 98.3028,-180.77"/>
<text text-anchor="middle" x="145" y="-165" font-family="Ubuntu Regular" font-size="10.00"> file_manager</text>
</g>
<!-- Node5 -->
<g id="node5" class="node"><title>Node5</title>
<g id="a_node5"><a xlink:href="classkzh_1_1logger.html" target="_top" xlink:title="kzh::logger">
<polygon fill="white" stroke="black" points="61,-248.5 61,-267.5 129,-267.5 129,-248.5 61,-248.5"/>
<text text-anchor="middle" x="95" y="-255.5" font-family="Ubuntu Regular" font-size="10.00">kzh::logger</text>
</a>
</g>
</g>
<!-- Node5&#45;&gt;Node1 -->
<g id="edge9" class="edge"><title>Node5&#45;&gt;Node1</title>
<path fill="none" stroke="darkgreen" d="M55.6191,-244.506C37.0904,-235.927 19,-222.342 19,-202 19,-202 19,-202 19,-66 19,-46.6368 35.416,-29.5107 47.215,-19.702"/>
<polygon fill="darkgreen" stroke="darkgreen" points="54.3878,-247.785 64.9628,-248.434 57.1006,-241.332 54.3878,-247.785"/>
</g>
<!-- Node5&#45;&gt;Node4 -->
<g id="edge4" class="edge"><title>Node5&#45;&gt;Node4</title>
<path fill="none" stroke="midnightblue" d="M95,-238.117C95,-228.817 95,-218.056 95,-210.715"/>
<polygon fill="midnightblue" stroke="midnightblue" points="91.5001,-238.406 95,-248.406 98.5001,-238.406 91.5001,-238.406"/>
</g>
<!-- Node6 -->
<g id="node6" class="node"><title>Node6</title>
<g id="a_node6"><a xlink:href="classkzh_1_1downloader.html" target="_top" xlink:title="kzh::downloader">
<polygon fill="white" stroke="black" points="161.5,-191.5 161.5,-210.5 252.5,-210.5 252.5,-191.5 161.5,-191.5"/>
<text text-anchor="middle" x="207" y="-198.5" font-family="Ubuntu Regular" font-size="10.00">kzh::downloader</text>
</a>
</g>
</g>
<!-- Node5&#45;&gt;Node6 -->
<g id="edge6" class="edge"><title>Node5&#45;&gt;Node6</title>
<path fill="none" stroke="darkgreen" d="M121.561,-243.957C142.614,-233.618 171.424,-219.47 189.623,-210.533"/>
<polygon fill="darkgreen" stroke="darkgreen" points="119.933,-240.857 112.5,-248.406 123.019,-247.14 119.933,-240.857"/>
</g>
<!-- Node6&#45;&gt;Node3 -->
<g id="edge5" class="edge"><title>Node6&#45;&gt;Node3</title>
<path fill="none" stroke="#9a32cd" stroke-dasharray="5,2" d="M194.131,-183.27C184.382,-170.597 171.385,-153.701 163.636,-143.627"/>
<polygon fill="#9a32cd" stroke="#9a32cd" points="191.385,-185.442 200.257,-191.234 196.934,-181.174 191.385,-185.442"/>
<text text-anchor="middle" x="213.5" y="-165" font-family="Ubuntu Regular" font-size="10.00"> downloader</text>
</g>
<!-- Node7 -->
<g id="node7" class="node"><title>Node7</title>
<g id="a_node7"><a xlink:href="classkzh_1_1hasher.html" target="_top" xlink:title="kzh::hasher">
<polygon fill="white" stroke="black" points="271,-191.5 271,-210.5 339,-210.5 339,-191.5 271,-191.5"/>
<text text-anchor="middle" x="305" y="-198.5" font-family="Ubuntu Regular" font-size="10.00">kzh::hasher</text>
</a>
</g>
</g>
<!-- Node7&#45;&gt;Node3 -->
<g id="edge7" class="edge"><title>Node7&#45;&gt;Node3</title>
<path fill="none" stroke="#9a32cd" stroke-dasharray="5,2" d="M285.653,-185.588C274.5,-177.79 259.96,-168.459 246,-162 229.294,-154.27 209.818,-148.071 193.352,-143.571"/>
<polygon fill="#9a32cd" stroke="#9a32cd" points="283.63,-188.444 293.796,-191.43 287.711,-182.757 283.63,-188.444"/>
<text text-anchor="middle" x="284" y="-165" font-family="Ubuntu Regular" font-size="10.00"> hasher</text>
</g>
<!-- Node8 -->
<g id="node8" class="node"><title>Node8</title>
<g id="a_node8"><a xlink:href="structkzh_1_1release__manifest.html" target="_top" xlink:title="kzh::release_manifest">
<polygon fill="white" stroke="black" points="235,-124.5 235,-143.5 351,-143.5 351,-124.5 235,-124.5"/>
<text text-anchor="middle" x="293" y="-131.5" font-family="Ubuntu Regular" font-size="10.00">kzh::release_manifest</text>
</a>
</g>
</g>
<!-- Node8&#45;&gt;Node2 -->
<g id="edge8" class="edge"><title>Node8&#45;&gt;Node2</title>
<path fill="none" stroke="#9a32cd" stroke-dasharray="5,2" d="M265.682,-119.944C238.745,-107.069 198.338,-87.7573 175.134,-76.6672"/>
<polygon fill="#9a32cd" stroke="#9a32cd" points="264.408,-123.214 274.94,-124.369 267.427,-116.898 264.408,-123.214"/>
<text text-anchor="middle" x="243.5" y="-98" font-family="Ubuntu Regular" font-size="10.00"> rm_</text>
</g>
</g>
</svg>
