<?xml version="1.0" encoding="UTF-8" standalone="no"?>
<!DOCTYPE svg PUBLIC "-//W3C//DTD SVG 1.1//EN"
 "http://www.w3.org/Graphics/SVG/1.1/DTD/svg11.dtd">
<!-- Generated by graphviz version 2.38.0 (20140413.2041)
 -->
<!-- Title: kzh::update_operation Pages: 1 -->
<svg width="360pt" height="276pt"
 viewBox="0.00 0.00 359.50 276.00" xmlns="http://www.w3.org/2000/svg" xmlns:xlink="http://www.w3.org/1999/xlink">
<g id="graph0" class="graph" transform="scale(1 1) rotate(0) translate(4 272)">
<title>kzh::update_operation</title>
<polygon fill="white" stroke="none" points="-4,4 -4,-272 355.5,-272 355.5,4 -4,4"/>
<!-- Node1 -->
<g id="node1" class="node"><title>Node1</title>
<polygon fill="#bfbfbf" stroke="black" points="0,-0.5 0,-19.5 119,-19.5 119,-0.5 0,-0.5"/>
<text text-anchor="middle" x="59.5" y="-7.5" font-family="Ubuntu Regular" font-size="10.00">kzh::update_operation</text>
</g>
<!-- Node2 -->
<g id="node2" class="node"><title>Node2</title>
<g id="a_node2"><a xlink:href="classkzh_1_1operation.html" target="_top" xlink:title="kzh::operation">
<polygon fill="white" stroke="black" points="116.5,-57.5 116.5,-76.5 198.5,-76.5 198.5,-57.5 116.5,-57.5"/>
<text text-anchor="middle" x="157.5" y="-64.5" font-family="Ubuntu Regular" font-size="10.00">kzh::operation</text>
</a>
</g>
</g>
<!-- Node2&#45;&gt;Node1 -->
<g id="edge1" class="edge"><title>Node2&#45;&gt;Node1</title>
<path fill="none" stroke="midnightblue" d="M133.257,-52.394C114.932,-42.1098 90.3421,-28.3093 74.705,-19.5334"/>
<polygon fill="midnightblue" stroke="midnightblue" points="131.754,-55.5642 142.188,-57.4062 135.18,-49.4599 131.754,-55.5642"/>
</g>
<!-- Node3 -->
<g id="node3" class="node"><title>Node3</title>
<g id="a_node3"><a xlink:href="structkzh_1_1KARAZEH__EXPORT.html" target="_top" xlink:title="kzh::KARAZEH_EXPORT">
<polygon fill="white" stroke="black" points="98,-124.5 98,-143.5 217,-143.5 217,-124.5 98,-124.5"/>
<text text-anchor="middle" x="157.5" y="-131.5" font-family="Ubuntu Regular" font-size="10.00">kzh::KARAZEH_EXPORT</text>
</a>
</g>
</g>
<!-- Node3&#45;&gt;Node2 -->
<g id="edge2" class="edge"><title>Node3&#45;&gt;Node2</title>
<path fill="none" stroke="#9a32cd" stroke-dasharray="5,2" d="M157.5,-114.037C157.5,-101.67 157.5,-86.1198 157.5,-76.6273"/>
<polygon fill="#9a32cd" stroke="#9a32cd" points="154,-114.234 157.5,-124.234 161,-114.234 154,-114.234"/>
<text text-anchor="middle" x="175.5" y="-98" font-family="Ubuntu Regular" font-size="10.00"> config_</text>
</g>
<!-- Node4 -->
<g id="node4" class="node"><title>Node4</title>
<g id="a_node4"><a xlink:href="classkzh_1_1file__manager.html" target="_top" xlink:title="kzh::file_manager">
<polygon fill="white" stroke="black" points="47.5,-191.5 47.5,-210.5 143.5,-210.5 143.5,-191.5 47.5,-191.5"/>
<text text-anchor="middle" x="95.5" y="-198.5" font-family="Ubuntu Regular" font-size="10.00">kzh::file_manager</text>
</a>
</g>
</g>
<!-- Node4&#45;&gt;Node3 -->
<g id="edge3" class="edge"><title>Node4&#45;&gt;Node3</title>
<path fill="none" stroke="#9a32cd" stroke-dasharray="5,2" d="M102.216,-181.667C105.268,-174.973 109.361,-167.664 114.5,-162 121.371,-154.427 130.844,-148.174 139.15,-143.599"/>
<polygon fill="#9a32cd" stroke="#9a32cd" points="98.8028,-180.77 98.2784,-191.352 105.287,-183.406 98.8028,-180.77"/>
<text text-anchor="middle" x="145.5" y="-165" font-family="Ubuntu Regular" font-size="10.00"> file_manager</text>
</g>
<!-- Node5 -->
<g id="node5" class="node"><title>Node5</title>
<g id="a_node5"><a xlink:href="classkzh_1_1logger.html" target="_top" xlink:title="kzh::logger">
<polygon fill="white" stroke="black" points="61.5,-248.5 61.5,-267.5 129.5,-267.5 129.5,-248.5 61.5,-248.5"/>
<text text-anchor="middle" x="95.5" y="-255.5" font-family="Ubuntu Regular" font-size="10.00">kzh::logger</text>
</a>
</g>
</g>
<!-- Node5&#45;&gt;Node1 -->
<g id="edge9" class="edge"><title>Node5&#45;&gt;Node1</title>
<path fill="none" stroke="darkgreen" d="M56.1191,-244.506C37.5904,-235.927 19.5,-222.342 19.5,-202 19.5,-202 19.5,-202 19.5,-66 19.5,-46.6368 35.916,-29.5107 47.715,-19.702"/>
<polygon fill="darkgreen" stroke="darkgreen" points="54.8878,-247.785 65.4628,-248.434 57.6006,-241.332 54.8878,-247.785"/>
</g>
<!-- Node5&#45;&gt;Node4 -->
<g id="edge4" class="edge"><title>Node5&#45;&gt;Node4</title>
<path fill="none" stroke="midnightblue" d="M95.5,-238.117C95.5,-228.817 95.5,-218.056 95.5,-210.715"/>
<polygon fill="midnightblue" stroke="midnightblue" points="92.0001,-238.406 95.5,-248.406 99.0001,-238.406 92.0001,-238.406"/>
</g>
<!-- Node6 -->
<g id="node6" class="node"><title>Node6</title>
<g id="a_node6"><a xlink:href="classkzh_1_1downloader.html" target="_top" xlink:title="kzh::downloader">
<polygon fill="white" stroke="black" points="162,-191.5 162,-210.5 253,-210.5 253,-191.5 162,-191.5"/>
<text text-anchor="middle" x="207.5" y="-198.5" font-family="Ubuntu Regular" font-size="10.00">kzh::downloader</text>
</a>
</g>
</g>
<!-- Node5&#45;&gt;Node6 -->
<g id="edge6" class="edge"><title>Node5&#45;&gt;Node6</title>
<path fill="none" stroke="darkgreen" d="M122.061,-243.957C143.114,-233.618 171.924,-219.47 190.123,-210.533"/>
<polygon fill="darkgreen" stroke="darkgreen" points="120.433,-240.857 113,-248.406 123.519,-247.14 120.433,-240.857"/>
</g>
<!-- Node6&#45;&gt;Node3 -->
<g id="edge5" class="edge"><title>Node6&#45;&gt;Node3</title>
<path fill="none" stroke="#9a32cd" stroke-dasharray="5,2" d="M194.631,-183.27C184.882,-170.597 171.885,-153.701 164.136,-143.627"/>
<polygon fill="#9a32cd" stroke="#9a32cd" points="191.885,-185.442 200.757,-191.234 197.434,-181.174 191.885,-185.442"/>
<text text-anchor="middle" x="214" y="-165" font-family="Ubuntu Regular" font-size="10.00"> downloader</text>
</g>
<!-- Node7 -->
<g id="node7" class="node"><title>Node7</title>
<g id="a_node7"><a xlink:href="classkzh_1_1hasher.html" target="_top" xlink:title="kzh::hasher">
<polygon fill="white" stroke="black" points="271.5,-191.5 271.5,-210.5 339.5,-210.5 339.5,-191.5 271.5,-191.5"/>
<text text-anchor="middle" x="305.5" y="-198.5" font-family="Ubuntu Regular" font-size="10.00">kzh::hasher</text>
</a>
</g>
</g>
<!-- Node7&#45;&gt;Node3 -->
<g id="edge7" class="edge"><title>Node7&#45;&gt;Node3</title>
<path fill="none" stroke="#9a32cd" stroke-dasharray="5,2" d="M286.153,-185.588C275,-177.79 260.46,-168.459 246.5,-162 229.794,-154.27 210.318,-148.071 193.852,-143.571"/>
<polygon fill="#9a32cd" stroke="#9a32cd" points="284.13,-188.444 294.296,-191.43 288.211,-182.757 284.13,-188.444"/>
<text text-anchor="middle" x="284.5" y="-165" font-family="Ubuntu Regular" font-size="10.00"> hasher</text>
</g>
<!-- Node8 -->
<g id="node8" class="node"><title>Node8</title>
<g id="a_node8"><a xlink:href="structkzh_1_1release__manifest.html" target="_top" xlink:title="kzh::release_manifest">
<polygon fill="white" stroke="black" points="235.5,-124.5 235.5,-143.5 351.5,-143.5 351.5,-124.5 235.5,-124.5"/>
<text text-anchor="middle" x="293.5" y="-131.5" font-family="Ubuntu Regular" font-size="10.00">kzh::release_manifest</text>
</a>
</g>
</g>
<!-- Node8&#45;&gt;Node2 -->
<g id="edge8" class="edge"><title>Node8&#45;&gt;Node2</title>
<path fill="none" stroke="#9a32cd" stroke-dasharray="5,2" d="M266.182,-119.944C239.245,-107.069 198.838,-87.7573 175.634,-76.6672"/>
<polygon fill="#9a32cd" stroke="#9a32cd" points="264.908,-123.214 275.44,-124.369 267.927,-116.898 264.908,-123.214"/>
<text text-anchor="middle" x="244" y="-98" font-family="Ubuntu Regular" font-size="10.00"> rm_</text>
</g>
</g>
</svg>
