<?xml version="1.0" encoding="UTF-8" standalone="no"?>
<!DOCTYPE svg PUBLIC "-//W3C//DTD SVG 1.1//EN"
 "http://www.w3.org/Graphics/SVG/1.1/DTD/svg11.dtd">
<!-- Generated by graphviz version 2.38.0 (20140413.2041)
 -->
<!-- Title: kzh::operation Pages: 1 -->
<svg width="362pt" height="219pt"
 viewBox="0.00 0.00 362.00 219.00" xmlns="http://www.w3.org/2000/svg" xmlns:xlink="http://www.w3.org/1999/xlink">
<g id="graph0" class="graph" transform="scale(1 1) rotate(0) translate(4 215)">
<title>kzh::operation</title>
<polygon fill="white" stroke="none" points="-4,4 -4,-215 358,-215 358,4 -4,4"/>
<!-- Node1 -->
<g id="node1" class="node"><title>Node1</title>
<polygon fill="#bfbfbf" stroke="black" points="221,-0.5 221,-19.5 303,-19.5 303,-0.5 221,-0.5"/>
<text text-anchor="middle" x="262" y="-7.5" font-family="Ubuntu Regular" font-size="10.00">kzh::operation</text>
</g>
<!-- Node2 -->
<g id="node2" class="node"><title>Node2</title>
<g id="a_node2"><a xlink:href="structkzh_1_1KARAZEH__EXPORT.html" target="_top" xlink:title="kzh::KARAZEH_EXPORT">
<polygon fill="white" stroke="black" points="100.5,-67.5 100.5,-86.5 219.5,-86.5 219.5,-67.5 100.5,-67.5"/>
<text text-anchor="middle" x="160" y="-74.5" font-family="Ubuntu Regular" font-size="10.00">kzh::KARAZEH_EXPORT</text>
</a>
</g>
</g>
<!-- Node2&#45;&gt;Node1 -->
<g id="edge1" class="edge"><title>Node2&#45;&gt;Node1</title>
<path fill="none" stroke="#9a32cd" stroke-dasharray="5,2" d="M182.332,-61.7687C202.522,-48.9026 231.59,-30.379 248.462,-19.6273"/>
<polygon fill="#9a32cd" stroke="#9a32cd" points="180.308,-58.908 173.756,-67.2338 184.07,-64.8113 180.308,-58.908"/>
<text text-anchor="middle" x="236" y="-41" font-family="Ubuntu Regular" font-size="10.00"> config_</text>
</g>
<!-- Node3 -->
<g id="node3" class="node"><title>Node3</title>
<g id="a_node3"><a xlink:href="classkzh_1_1file__manager.html" target="_top" xlink:title="kzh::file_manager">
<polygon fill="white" stroke="black" points="0,-134.5 0,-153.5 96,-153.5 96,-134.5 0,-134.5"/>
<text text-anchor="middle" x="48" y="-141.5" font-family="Ubuntu Regular" font-size="10.00">kzh::file_manager</text>
</a>
</g>
</g>
<!-- Node3&#45;&gt;Node2 -->
<g id="edge2" class="edge"><title>Node3&#45;&gt;Node2</title>
<path fill="none" stroke="#9a32cd" stroke-dasharray="5,2" d="M64.4406,-127.345C72.8297,-119.915 83.4677,-111.305 94,-105 106.534,-97.497 121.536,-91.1743 134.068,-86.538"/>
<polygon fill="#9a32cd" stroke="#9a32cd" points="61.9049,-124.921 56.8883,-134.253 66.6294,-130.086 61.9049,-124.921"/>
<text text-anchor="middle" x="125" y="-108" font-family="Ubuntu Regular" font-size="10.00"> file_manager</text>
</g>
<!-- Node4 -->
<g id="node4" class="node"><title>Node4</title>
<g id="a_node4"><a xlink:href="classkzh_1_1logger.html" target="_top" xlink:title="kzh::logger">
<polygon fill="white" stroke="black" points="80,-191.5 80,-210.5 148,-210.5 148,-191.5 80,-191.5"/>
<text text-anchor="middle" x="114" y="-198.5" font-family="Ubuntu Regular" font-size="10.00">kzh::logger</text>
</a>
</g>
</g>
<!-- Node4&#45;&gt;Node3 -->
<g id="edge3" class="edge"><title>Node4&#45;&gt;Node3</title>
<path fill="none" stroke="midnightblue" d="M95.9979,-184.998C83.9542,-174.962 68.5253,-162.104 58.4579,-153.715"/>
<polygon fill="midnightblue" stroke="midnightblue" points="93.7646,-187.693 103.688,-191.406 98.2459,-182.316 93.7646,-187.693"/>
</g>
<!-- Node5 -->
<g id="node5" class="node"><title>Node5</title>
<g id="a_node5"><a xlink:href="classkzh_1_1downloader.html" target="_top" xlink:title="kzh::downloader">
<polygon fill="white" stroke="black" points="114.5,-134.5 114.5,-153.5 205.5,-153.5 205.5,-134.5 114.5,-134.5"/>
<text text-anchor="middle" x="160" y="-141.5" font-family="Ubuntu Regular" font-size="10.00">kzh::downloader</text>
</a>
</g>
</g>
<!-- Node4&#45;&gt;Node5 -->
<g id="edge5" class="edge"><title>Node4&#45;&gt;Node5</title>
<path fill="none" stroke="darkgreen" d="M127.773,-183.532C135.966,-173.736 146.032,-161.701 152.711,-153.715"/>
<polygon fill="darkgreen" stroke="darkgreen" points="124.918,-181.49 121.188,-191.406 130.288,-185.981 124.918,-181.49"/>
</g>
<!-- Node5&#45;&gt;Node2 -->
<g id="edge4" class="edge"><title>Node5&#45;&gt;Node2</title>
<path fill="none" stroke="#9a32cd" stroke-dasharray="5,2" d="M160,-124.037C160,-111.67 160,-96.1198 160,-86.6273"/>
<polygon fill="#9a32cd" stroke="#9a32cd" points="156.5,-124.234 160,-134.234 163.5,-124.234 156.5,-124.234"/>
<text text-anchor="middle" x="188.5" y="-108" font-family="Ubuntu Regular" font-size="10.00"> downloader</text>
</g>
<!-- Node6 -->
<g id="node6" class="node"><title>Node6</title>
<g id="a_node6"><a xlink:href="classkzh_1_1hasher.html" target="_top" xlink:title="kzh::hasher">
<polygon fill="white" stroke="black" points="224,-134.5 224,-153.5 292,-153.5 292,-134.5 224,-134.5"/>
<text text-anchor="middle" x="258" y="-141.5" font-family="Ubuntu Regular" font-size="10.00">kzh::hasher</text>
</a>
</g>
</g>
<!-- Node6&#45;&gt;Node2 -->
<g id="edge6" class="edge"><title>Node6&#45;&gt;Node2</title>
<path fill="none" stroke="#9a32cd" stroke-dasharray="5,2" d="M244.356,-126.344C237.834,-119.122 229.585,-110.971 221,-105 209.971,-97.3291 196.412,-91.0662 184.881,-86.5104"/>
<polygon fill="#9a32cd" stroke="#9a32cd" points="241.956,-128.92 251.136,-134.209 247.258,-124.35 241.956,-128.92"/>
<text text-anchor="middle" x="251" y="-108" font-family="Ubuntu Regular" font-size="10.00"> hasher</text>
</g>
<!-- Node7 -->
<g id="node7" class="node"><title>Node7</title>
<g id="a_node7"><a xlink:href="structkzh_1_1release__manifest.html" target="_top" xlink:title="kzh::release_manifest">
<polygon fill="white" stroke="black" points="238,-67.5 238,-86.5 354,-86.5 354,-67.5 238,-67.5"/>
<text text-anchor="middle" x="296" y="-74.5" font-family="Ubuntu Regular" font-size="10.00">kzh::release_manifest</text>
</a>
</g>
</g>
<!-- Node7&#45;&gt;Node1 -->
<g id="edge7" class="edge"><title>Node7&#45;&gt;Node1</title>
<path fill="none" stroke="#9a32cd" stroke-dasharray="5,2" d="M286.67,-58.1635C280.113,-45.6281 271.63,-29.4104 266.513,-19.6273"/>
<polygon fill="#9a32cd" stroke="#9a32cd" points="283.678,-59.9951 291.415,-67.2338 289.881,-56.7506 283.678,-59.9951"/>
<text text-anchor="middle" x="291.5" y="-41" font-family="Ubuntu Regular" font-size="10.00"> rm_</text>
</g>
</g>
</svg>
