<?xml version="1.0" encoding="UTF-8" standalone="no"?>
<!DOCTYPE svg PUBLIC "-//W3C//DTD SVG 1.1//EN"
 "http://www.w3.org/Graphics/SVG/1.1/DTD/svg11.dtd">
<!-- Generated by graphviz version 2.38.0 (20140413.2041)
 -->
<!-- Title: kzh::create_operation Pages: 1 -->
<svg width="176pt" height="84pt"
 viewBox="0.00 0.00 176.00 84.00" xmlns="http://www.w3.org/2000/svg" xmlns:xlink="http://www.w3.org/1999/xlink">
<g id="graph0" class="graph" transform="scale(1 1) rotate(0) translate(4 80)">
<title>kzh::create_operation</title>
<polygon fill="white" stroke="none" points="-4,4 -4,-80 172,-80 172,4 -4,4"/>
<!-- Node1 -->
<g id="node1" class="node"><title>Node1</title>
<polygon fill="#bfbfbf" stroke="black" points="28.5,-0.5 28.5,-19.5 145.5,-19.5 145.5,-0.5 28.5,-0.5"/>
<text text-anchor="middle" x="87" y="-7.5" font-family="Ubuntu Regular" font-size="10.00">kzh::create_operation</text>
</g>
<!-- Node2 -->
<g id="node2" class="node"><title>Node2</title>
<g id="a_node2"><a xlink:href="classkzh_1_1operation.html" target="_top" xlink:title="kzh::operation">
<polygon fill="white" stroke="black" points="0,-56.5 0,-75.5 82,-75.5 82,-56.5 0,-56.5"/>
<text text-anchor="middle" x="41" y="-63.5" font-family="Ubuntu Regular" font-size="10.00">kzh::operation</text>
</a>
</g>
</g>
<!-- Node2&#45;&gt;Node1 -->
<g id="edge1" class="edge"><title>Node2&#45;&gt;Node1</title>
<path fill="none" stroke="midnightblue" d="M55.114,-48.4314C63.176,-38.9673 72.9592,-27.4827 79.5454,-19.7511"/>
<polygon fill="midnightblue" stroke="midnightblue" points="52.4163,-46.2009 48.596,-56.083 57.745,-50.7402 52.4163,-46.2009"/>
</g>
<!-- Node3 -->
<g id="node3" class="node"><title>Node3</title>
<g id="a_node3"><a xlink:href="classkzh_1_1logger.html" target="_top" xlink:title="kzh::logger">
<polygon fill="white" stroke="black" points="100,-56.5 100,-75.5 168,-75.5 168,-56.5 100,-56.5"/>
<text text-anchor="middle" x="134" y="-63.5" font-family="Ubuntu Regular" font-size="10.00">kzh::logger</text>
</a>
</g>
</g>
<!-- Node3&#45;&gt;Node1 -->
<g id="edge2" class="edge"><title>Node3&#45;&gt;Node1</title>
<path fill="none" stroke="darkgreen" d="M119.579,-48.4314C111.342,-38.9673 101.346,-27.4827 94.6167,-19.7511"/>
<polygon fill="darkgreen" stroke="darkgreen" points="117.034,-50.8378 126.239,-56.083 122.314,-46.2421 117.034,-50.8378"/>
</g>
</g>
</svg>
