<?xml version="1.0" encoding="UTF-8" standalone="no"?>
<!DOCTYPE svg PUBLIC "-//W3C//DTD SVG 1.1//EN"
 "http://www.w3.org/Graphics/SVG/1.1/DTD/svg11.dtd">
<!-- Generated by graphviz version 2.38.0 (20140413.2041)
 -->
<!-- Title: kzh::delta_encoder Pages: 1 -->
<svg width="168pt" height="152pt"
 viewBox="0.00 0.00 168.00 152.00" xmlns="http://www.w3.org/2000/svg" xmlns:xlink="http://www.w3.org/1999/xlink">
<g id="graph0" class="graph" transform="scale(1 1) rotate(0) translate(4 148)">
<title>kzh::delta_encoder</title>
<polygon fill="white" stroke="none" points="-4,4 -4,-148 164,-148 164,4 -4,4"/>
<!-- Node1 -->
<g id="node1" class="node"><title>Node1</title>
<polygon fill="#bfbfbf" stroke="black" points="0,-0.5 0,-19.5 104,-19.5 104,-0.5 0,-0.5"/>
<text text-anchor="middle" x="52" y="-7.5" font-family="Ubuntu Regular" font-size="10.00">kzh::delta_encoder</text>
</g>
<!-- Node2 -->
<g id="node2" class="node"><title>Node2</title>
<g id="a_node2"><a xlink:href="classkzh_1_1logger.html" target="_top" xlink:title="kzh::logger">
<polygon fill="white" stroke="black" points="27,-124.5 27,-143.5 95,-143.5 95,-124.5 27,-124.5"/>
<text text-anchor="middle" x="61" y="-131.5" font-family="Ubuntu Regular" font-size="10.00">kzh::logger</text>
</a>
</g>
</g>
<!-- Node2&#45;&gt;Node1 -->
<g id="edge1" class="edge"><title>Node2&#45;&gt;Node1</title>
<path fill="none" stroke="midnightblue" d="M58.1443,-114.102C56.9918,-105.805 55.7577,-95.9378 55,-87 52.9475,-62.7902 52.2957,-34.1202 52.0914,-19.9085"/>
<polygon fill="midnightblue" stroke="midnightblue" points="54.711,-114.814 59.613,-124.207 61.6382,-113.807 54.711,-114.814"/>
</g>
<!-- Node3 -->
<g id="node3" class="node"><title>Node3</title>
<g id="a_node3"><a xlink:href="classkzh_1_1file__manager.html" target="_top" xlink:title="kzh::file_manager">
<polygon fill="white" stroke="black" points="64,-67.5 64,-86.5 160,-86.5 160,-67.5 64,-67.5"/>
<text text-anchor="middle" x="112" y="-74.5" font-family="Ubuntu Regular" font-size="10.00">kzh::file_manager</text>
</a>
</g>
</g>
<!-- Node2&#45;&gt;Node3 -->
<g id="edge3" class="edge"><title>Node2&#45;&gt;Node3</title>
<path fill="none" stroke="midnightblue" d="M75.9957,-116.828C85.1282,-106.979 96.4388,-94.7817 103.919,-86.7149"/>
<polygon fill="midnightblue" stroke="midnightblue" points="73.2017,-114.694 68.9688,-124.406 78.3346,-119.453 73.2017,-114.694"/>
</g>
<!-- Node3&#45;&gt;Node1 -->
<g id="edge2" class="edge"><title>Node3&#45;&gt;Node1</title>
<path fill="none" stroke="#9a32cd" stroke-dasharray="5,2" d="M96.8937,-59.6348C85.1595,-46.9228 69.3518,-29.7978 59.9637,-19.6273"/>
<polygon fill="#9a32cd" stroke="#9a32cd" points="94.5535,-62.2597 103.908,-67.2338 99.6971,-57.5118 94.5535,-62.2597"/>
<text text-anchor="middle" x="118.5" y="-41" font-family="Ubuntu Regular" font-size="10.00"> file_manager_</text>
</g>
</g>
</svg>
