<?xml version="1.0" encoding="UTF-8" standalone="no"?>
<!DOCTYPE svg PUBLIC "-//W3C//DTD SVG 1.1//EN"
 "http://www.w3.org/Graphics/SVG/1.1/DTD/svg11.dtd">
<!-- Generated by graphviz version 2.38.0 (20140413.2041)
 -->
<!-- Title: kzh::logger Pages: 1 -->
<svg width="231pt" height="294pt"
 viewBox="0.00 0.00 231.00 294.00" xmlns="http://www.w3.org/2000/svg" xmlns:xlink="http://www.w3.org/1999/xlink">
<g id="graph0" class="graph" transform="scale(1 1) rotate(0) translate(4 290)">
<title>kzh::logger</title>
<polygon fill="white" stroke="none" points="-4,4 -4,-290 227,-290 227,4 -4,4"/>
<!-- Node1 -->
<g id="node1" class="node"><title>Node1</title>
<polygon fill="#bfbfbf" stroke="black" points="0,-133.5 0,-152.5 68,-152.5 68,-133.5 0,-133.5"/>
<text text-anchor="middle" x="34" y="-140.5" font-family="Ubuntu Regular" font-size="10.00">kzh::logger</text>
</g>
<!-- Node2 -->
<g id="node2" class="node"><title>Node2</title>
<g id="a_node2"><a xlink:href="classkzh_1_1create__operation.html" target="_top" xlink:title="kzh::create_operation">
<polygon fill="white" stroke="black" points="105,-266.5 105,-285.5 222,-285.5 222,-266.5 105,-266.5"/>
<text text-anchor="middle" x="163.5" y="-273.5" font-family="Ubuntu Regular" font-size="10.00">kzh::create_operation</text>
</a>
</g>
</g>
<!-- Node1&#45;&gt;Node2 -->
<g id="edge1" class="edge"><title>Node1&#45;&gt;Node2</title>
<path fill="none" stroke="darkgreen" d="M41.6763,-162.084C51.4737,-187.372 72.1149,-231.724 104,-257 108.854,-260.847 114.511,-263.927 120.358,-266.389"/>
<polygon fill="darkgreen" stroke="darkgreen" points="44.8923,-160.69 38.1402,-152.525 38.3271,-163.118 44.8923,-160.69"/>
</g>
<!-- Node3 -->
<g id="node3" class="node"><title>Node3</title>
<g id="a_node3"><a xlink:href="classkzh_1_1delete__operation.html" target="_top" xlink:title="kzh::delete_operation">
<polygon fill="white" stroke="black" points="104.5,-228.5 104.5,-247.5 222.5,-247.5 222.5,-228.5 104.5,-228.5"/>
<text text-anchor="middle" x="163.5" y="-235.5" font-family="Ubuntu Regular" font-size="10.00">kzh::delete_operation</text>
</a>
</g>
</g>
<!-- Node1&#45;&gt;Node3 -->
<g id="edge2" class="edge"><title>Node1&#45;&gt;Node3</title>
<path fill="none" stroke="darkgreen" d="M47.2486,-161.237C59.669,-178.417 80.3855,-203.736 104,-219 109.919,-222.826 116.674,-225.942 123.441,-228.46"/>
<polygon fill="darkgreen" stroke="darkgreen" points="49.8372,-158.831 41.2362,-152.644 44.1019,-162.844 49.8372,-158.831"/>
</g>
<!-- Node4 -->
<g id="node4" class="node"><title>Node4</title>
<g id="a_node4"><a xlink:href="classkzh_1_1delta__encoder.html" target="_top" xlink:title="librsync implementation of delta encoding, used in rdiff. ">
<polygon fill="white" stroke="black" points="111.5,-190.5 111.5,-209.5 215.5,-209.5 215.5,-190.5 111.5,-190.5"/>
<text text-anchor="middle" x="163.5" y="-197.5" font-family="Ubuntu Regular" font-size="10.00">kzh::delta_encoder</text>
</a>
</g>
</g>
<!-- Node1&#45;&gt;Node4 -->
<g id="edge3" class="edge"><title>Node1&#45;&gt;Node4</title>
<path fill="none" stroke="midnightblue" d="M59.2402,-157.827C72.2176,-165.382 88.6507,-174.352 104,-181 112.035,-184.48 120.925,-187.68 129.297,-190.422"/>
<polygon fill="midnightblue" stroke="midnightblue" points="60.8538,-154.715 50.4663,-152.628 57.2857,-160.737 60.8538,-154.715"/>
</g>
<!-- Node5 -->
<g id="node5" class="node"><title>Node5</title>
<g id="a_node5"><a xlink:href="classkzh_1_1downloader.html" target="_top" xlink:title="kzh::downloader">
<polygon fill="white" stroke="black" points="118,-152.5 118,-171.5 209,-171.5 209,-152.5 118,-152.5"/>
<text text-anchor="middle" x="163.5" y="-159.5" font-family="Ubuntu Regular" font-size="10.00">kzh::downloader</text>
</a>
</g>
</g>
<!-- Node1&#45;&gt;Node5 -->
<g id="edge4" class="edge"><title>Node1&#45;&gt;Node5</title>
<path fill="none" stroke="darkgreen" d="M78.1445,-149.429C90.9776,-151.342 105.059,-153.44 117.978,-155.365"/>
<polygon fill="darkgreen" stroke="darkgreen" points="78.573,-145.955 68.1663,-147.942 77.5412,-152.878 78.573,-145.955"/>
</g>
<!-- Node6 -->
<g id="node6" class="node"><title>Node6</title>
<g id="a_node6"><a xlink:href="classkzh_1_1file__manager.html" target="_top" xlink:title="kzh::file_manager">
<polygon fill="white" stroke="black" points="115.5,-114.5 115.5,-133.5 211.5,-133.5 211.5,-114.5 115.5,-114.5"/>
<text text-anchor="middle" x="163.5" y="-121.5" font-family="Ubuntu Regular" font-size="10.00">kzh::file_manager</text>
</a>
</g>
</g>
<!-- Node1&#45;&gt;Node6 -->
<g id="edge5" class="edge"><title>Node1&#45;&gt;Node6</title>
<path fill="none" stroke="midnightblue" d="M78.263,-136.553C90.1163,-134.787 103.027,-132.863 115.099,-131.064"/>
<polygon fill="midnightblue" stroke="midnightblue" points="77.5412,-133.122 68.1663,-138.058 78.573,-140.045 77.5412,-133.122"/>
</g>
<!-- Node7 -->
<g id="node7" class="node"><title>Node7</title>
<g id="a_node7"><a xlink:href="classkzh_1_1patcher.html" target="_top" xlink:title="kzh::patcher">
<polygon fill="white" stroke="black" points="126.5,-76.5 126.5,-95.5 200.5,-95.5 200.5,-76.5 126.5,-76.5"/>
<text text-anchor="middle" x="163.5" y="-83.5" font-family="Ubuntu Regular" font-size="10.00">kzh::patcher</text>
</a>
</g>
</g>
<!-- Node1&#45;&gt;Node7 -->
<g id="edge6" class="edge"><title>Node1&#45;&gt;Node7</title>
<path fill="none" stroke="darkgreen" d="M59.2402,-128.173C72.2176,-120.618 88.6507,-111.648 104,-105 112.035,-101.52 120.925,-98.3199 129.297,-95.5775"/>
<polygon fill="darkgreen" stroke="darkgreen" points="57.2857,-125.263 50.4663,-133.372 60.8538,-131.285 57.2857,-125.263"/>
</g>
<!-- Node8 -->
<g id="node8" class="node"><title>Node8</title>
<g id="a_node8"><a xlink:href="classkzh_1_1path__resolver.html" target="_top" xlink:title="kzh::path_resolver">
<polygon fill="white" stroke="black" points="113,-38.5 113,-57.5 214,-57.5 214,-38.5 113,-38.5"/>
<text text-anchor="middle" x="163.5" y="-45.5" font-family="Ubuntu Regular" font-size="10.00">kzh::path_resolver</text>
</a>
</g>
</g>
<!-- Node1&#45;&gt;Node8 -->
<g id="edge7" class="edge"><title>Node1&#45;&gt;Node8</title>
<path fill="none" stroke="darkgreen" d="M47.2486,-124.763C59.669,-107.583 80.3855,-82.2644 104,-67 109.919,-63.174 116.674,-60.058 123.441,-57.54"/>
<polygon fill="darkgreen" stroke="darkgreen" points="44.1019,-123.156 41.2362,-133.356 49.8372,-127.169 44.1019,-123.156"/>
</g>
<!-- Node9 -->
<g id="node9" class="node"><title>Node9</title>
<g id="a_node9"><a xlink:href="classkzh_1_1update__operation.html" target="_top" xlink:title="kzh::update_operation">
<polygon fill="white" stroke="black" points="104,-0.5 104,-19.5 223,-19.5 223,-0.5 104,-0.5"/>
<text text-anchor="middle" x="163.5" y="-7.5" font-family="Ubuntu Regular" font-size="10.00">kzh::update_operation</text>
</a>
</g>
</g>
<!-- Node1&#45;&gt;Node9 -->
<g id="edge8" class="edge"><title>Node1&#45;&gt;Node9</title>
<path fill="none" stroke="darkgreen" d="M41.6763,-123.916C51.4737,-98.6282 72.1149,-54.2755 104,-29 108.854,-25.1526 114.511,-22.0732 120.358,-19.6114"/>
<polygon fill="darkgreen" stroke="darkgreen" points="38.3271,-122.882 38.1402,-133.475 44.8923,-125.31 38.3271,-122.882"/>
</g>
</g>
</svg>
