<?xml version="1.0" encoding="UTF-8" standalone="no"?>
<!DOCTYPE svg PUBLIC "-//W3C//DTD SVG 1.1//EN"
 "http://www.w3.org/Graphics/SVG/1.1/DTD/svg11.dtd">
<!-- Generated by graphviz version 2.38.0 (20140413.2041)
 -->
<!-- Title: include/karazeh/config.hpp Pages: 1 -->
<svg width="401pt" height="196pt"
 viewBox="0.00 0.00 400.50 196.00" xmlns="http://www.w3.org/2000/svg" xmlns:xlink="http://www.w3.org/1999/xlink">
<g id="graph0" class="graph" transform="scale(1 1) rotate(0) translate(4 192)">
<title>include/karazeh/config.hpp</title>
<polygon fill="white" stroke="none" points="-4,4 -4,-192 396.5,-192 396.5,4 -4,4"/>
<!-- Node1 -->
<g id="node1" class="node"><title>Node1</title>
<polygon fill="#bfbfbf" stroke="black" points="0,-168.5 0,-187.5 142,-187.5 142,-168.5 0,-168.5"/>
<text text-anchor="middle" x="71" y="-175.5" font-family="Ubuntu Regular" font-size="10.00">include/karazeh/config.hpp</text>
</g>
<!-- Node2 -->
<g id="node2" class="node"><title>Node2</title>
<polygon fill="white" stroke="#bfbfbf" points="6.5,-0.5 6.5,-19.5 103.5,-19.5 103.5,-0.5 6.5,-0.5"/>
<text text-anchor="middle" x="55" y="-7.5" font-family="Ubuntu Regular" font-size="10.00">karazeh_export.h</text>
</g>
<!-- Node1&#45;&gt;Node2 -->
<g id="edge1" class="edge"><title>Node1&#45;&gt;Node2</title>
<path fill="none" stroke="midnightblue" d="M63.8134,-168.252C50.6273,-151.568 23.0046,-113.512 13,-76 10.7094,-67.4113 9.7404,-64.2697 13,-56 17.514,-44.5479 26.469,-34.291 34.9546,-26.4724"/>
<polygon fill="midnightblue" stroke="midnightblue" points="37.4686,-28.9275 42.7863,-19.7638 32.9147,-23.6113 37.4686,-28.9275"/>
</g>
<!-- Node3 -->
<g id="node3" class="node"><title>Node3</title>
<g id="a_node3"><a xlink:href="karazeh_8hpp.html" target="_top" xlink:title="karazeh/karazeh.hpp">
<polygon fill="white" stroke="black" points="91.5,-112.5 91.5,-131.5 204.5,-131.5 204.5,-112.5 91.5,-112.5"/>
<text text-anchor="middle" x="148" y="-119.5" font-family="Ubuntu Regular" font-size="10.00">karazeh/karazeh.hpp</text>
</a>
</g>
</g>
<!-- Node1&#45;&gt;Node3 -->
<g id="edge2" class="edge"><title>Node1&#45;&gt;Node3</title>
<path fill="none" stroke="midnightblue" d="M83.3714,-168.324C95.1585,-160.058 113.132,-147.453 127.136,-137.632"/>
<polygon fill="midnightblue" stroke="midnightblue" points="129.482,-140.262 135.659,-131.655 125.462,-134.531 129.482,-140.262"/>
</g>
<!-- Node4 -->
<g id="node4" class="node"><title>Node4</title>
<polygon fill="white" stroke="#bfbfbf" points="349.5,-0.5 349.5,-19.5 392.5,-19.5 392.5,-0.5 349.5,-0.5"/>
<text text-anchor="middle" x="371" y="-7.5" font-family="Ubuntu Regular" font-size="10.00">string</text>
</g>
<!-- Node3&#45;&gt;Node4 -->
<g id="edge3" class="edge"><title>Node3&#45;&gt;Node4</title>
<path fill="none" stroke="midnightblue" d="M204.508,-115.707C258.894,-109.44 335.905,-97.0938 357,-76 368.98,-64.0207 371.825,-44.413 372.072,-29.8609"/>
<polygon fill="midnightblue" stroke="midnightblue" points="375.563,-29.4348 371.838,-19.5167 368.565,-29.5934 375.563,-29.4348"/>
</g>
<!-- Node5 -->
<g id="node5" class="node"><title>Node5</title>
<polygon fill="white" stroke="#bfbfbf" points="22,-56.5 22,-75.5 72,-75.5 72,-56.5 22,-56.5"/>
<text text-anchor="middle" x="47" y="-63.5" font-family="Ubuntu Regular" font-size="10.00">cassert</text>
</g>
<!-- Node3&#45;&gt;Node5 -->
<g id="edge4" class="edge"><title>Node3&#45;&gt;Node5</title>
<path fill="none" stroke="midnightblue" d="M131.773,-112.324C115.649,-103.703 90.6998,-90.3643 72.0359,-80.3855"/>
<polygon fill="midnightblue" stroke="midnightblue" points="73.6561,-77.283 63.1871,-75.6545 70.3556,-83.456 73.6561,-77.283"/>
</g>
<!-- Node6 -->
<g id="node6" class="node"><title>Node6</title>
<polygon fill="white" stroke="#bfbfbf" points="90,-56.5 90,-75.5 206,-75.5 206,-56.5 90,-56.5"/>
<text text-anchor="middle" x="148" y="-63.5" font-family="Ubuntu Regular" font-size="10.00">boost/filesystem.hpp</text>
</g>
<!-- Node3&#45;&gt;Node6 -->
<g id="edge5" class="edge"><title>Node3&#45;&gt;Node6</title>
<path fill="none" stroke="midnightblue" d="M148,-112.083C148,-105.006 148,-94.8611 148,-85.9865"/>
<polygon fill="midnightblue" stroke="midnightblue" points="151.5,-85.751 148,-75.7511 144.5,-85.7511 151.5,-85.751"/>
</g>
<!-- Node7 -->
<g id="node7" class="node"><title>Node7</title>
<g id="a_node7"><a xlink:href="exception_8hpp.html" target="_top" xlink:title="karazeh/exception.hpp">
<polygon fill="white" stroke="black" points="224.5,-56.5 224.5,-75.5 347.5,-75.5 347.5,-56.5 224.5,-56.5"/>
<text text-anchor="middle" x="286" y="-63.5" font-family="Ubuntu Regular" font-size="10.00">karazeh/exception.hpp</text>
</a>
</g>
</g>
<!-- Node3&#45;&gt;Node7 -->
<g id="edge6" class="edge"><title>Node3&#45;&gt;Node7</title>
<path fill="none" stroke="midnightblue" d="M169.867,-112.444C192.779,-103.478 228.975,-89.314 254.866,-79.1827"/>
<polygon fill="midnightblue" stroke="midnightblue" points="256.199,-82.4198 264.236,-75.5164 253.648,-75.9011 256.199,-82.4198"/>
</g>
<!-- Node7&#45;&gt;Node2 -->
<g id="edge10" class="edge"><title>Node7&#45;&gt;Node2</title>
<path fill="none" stroke="midnightblue" d="M249.397,-56.4435C209.269,-47.0629 144.802,-31.9926 101.215,-21.8036"/>
<polygon fill="midnightblue" stroke="midnightblue" points="101.966,-18.3847 91.4314,-19.5164 100.372,-25.2009 101.966,-18.3847"/>
</g>
<!-- Node7&#45;&gt;Node4 -->
<g id="edge8" class="edge"><title>Node7&#45;&gt;Node4</title>
<path fill="none" stroke="midnightblue" d="M299.657,-56.324C312.916,-47.9002 333.268,-34.9709 348.846,-25.0741"/>
<polygon fill="midnightblue" stroke="midnightblue" points="350.813,-27.9711 357.377,-19.6545 347.06,-22.0626 350.813,-27.9711"/>
</g>
<!-- Node8 -->
<g id="node8" class="node"><title>Node8</title>
<polygon fill="white" stroke="#bfbfbf" points="259.5,-0.5 259.5,-19.5 322.5,-19.5 322.5,-0.5 259.5,-0.5"/>
<text text-anchor="middle" x="291" y="-7.5" font-family="Ubuntu Regular" font-size="10.00">exception</text>
</g>
<!-- Node7&#45;&gt;Node8 -->
<g id="edge7" class="edge"><title>Node7&#45;&gt;Node8</title>
<path fill="none" stroke="midnightblue" d="M286.826,-56.083C287.481,-49.0059 288.42,-38.8611 289.242,-29.9865"/>
<polygon fill="midnightblue" stroke="midnightblue" points="292.753,-30.0312 290.19,-19.7511 285.783,-29.3858 292.753,-30.0312"/>
</g>
<!-- Node9 -->
<g id="node9" class="node"><title>Node9</title>
<polygon fill="white" stroke="#bfbfbf" points="176.5,-0.5 176.5,-19.5 241.5,-19.5 241.5,-0.5 176.5,-0.5"/>
<text text-anchor="middle" x="209" y="-7.5" font-family="Ubuntu Regular" font-size="10.00">stdexcept</text>
</g>
<!-- Node7&#45;&gt;Node9 -->
<g id="edge9" class="edge"><title>Node7&#45;&gt;Node9</title>
<path fill="none" stroke="midnightblue" d="M273.629,-56.324C261.842,-48.0577 243.868,-35.4527 229.864,-25.6322"/>
<polygon fill="midnightblue" stroke="midnightblue" points="231.538,-22.5307 221.341,-19.6545 227.518,-28.2619 231.538,-22.5307"/>
</g>
</g>
</svg>
