<?xml version="1.0" encoding="UTF-8" standalone="no"?>
<!DOCTYPE svg PUBLIC "-//W3C//DTD SVG 1.1//EN"
 "http://www.w3.org/Graphics/SVG/1.1/DTD/svg11.dtd">
<!-- Generated by graphviz version 2.38.0 (20140413.2041)
 -->
<!-- Title: include/karazeh/config.hpp Pages: 1 -->
<!--zoomable 352 -->
<svg id="main" version="1.1" xmlns="http://www.w3.org/2000/svg" xmlns:xlink="http://www.w3.org/1999/xlink" xml:space="preserve" onload="init(evt)">
<style type="text/css"><![CDATA[
.edge:hover path { stroke: red; }
.edge:hover polygon { stroke: red; fill: red; }
]]></style>
<script type="text/javascript"><![CDATA[
var edges = document.getElementsByTagName('g');
if (edges && edges.length) {
  for (var i=0;i<edges.length;i++) {
    if (edges[i].id.substr(0,4)=='edge') {
      edges[i].setAttribute('class','edge');
    }
  }
}
]]></script>
        <defs>
                <circle id="rim" cx="0" cy="0" r="7"/>
                <circle id="rim2" cx="0" cy="0" r="3.5"/>
                <g id="zoomPlus">
                        <use xlink:href="#rim" fill="#404040">
                                <set attributeName="fill" to="#808080" begin="zoomplus.mouseover" end="zoomplus.mouseout"/>
                        </use>
                        <path d="M-4,0h8M0,-4v8" fill="none" stroke="white" stroke-width="1.5" pointer-events="none"/>
                </g>
                <g id="zoomMin">
                        <use xlink:href="#rim" fill="#404040">
                                <set attributeName="fill" to="#808080" begin="zoomminus.mouseover" end="zoomminus.mouseout"/>
                        </use>
                        <path d="M-4,0h8" fill="none" stroke="white" stroke-width="1.5" pointer-events="none"/>
                </g>
                <g id="dirArrow">
                        <path fill="none" stroke="white" stroke-width="1.5" d="M0,-3.0v7 M-2.5,-0.5L0,-3.0L2.5,-0.5"/>
                </g>
               <g id="resetDef">
                       <use xlink:href="#rim2" fill="#404040">
                               <set attributeName="fill" to="#808080" begin="reset.mouseover" end="reset.mouseout"/>
                       </use>
               </g>
        </defs>

<script type="text/javascript">
var viewWidth = 1205;
var viewHeight = 352;
var sectionId = 'dynsection-1';
</script>
<script xlink:href="svgpan.js"/>
<svg id="graph" class="graph">
<g id="viewport">
<title>include/karazeh/config.hpp</title>
<polygon fill="white" stroke="none" points="-4,4 -4,-348 1200.84,-348 1200.84,4 -4,4"/>
<!-- Node1 -->
<g id="node1" class="node"><title>Node1</title>
<polygon fill="#bfbfbf" stroke="black" points="760.5,-324.5 760.5,-343.5 902.5,-343.5 902.5,-324.5 760.5,-324.5"/>
<text text-anchor="middle" x="831.5" y="-331.5" font-family="Ubuntu Regular" font-size="10.00">include/karazeh/config.hpp</text>
</g>
<!-- Node2 -->
<g id="node2" class="node"><title>Node2</title>
<g id="a_node2"><a xlink:href="downloader_8hpp.html" target="_top" xlink:title="include/karazeh/downloader.hpp">
<polygon fill="white" stroke="black" points="878,-263 878,-282 1045,-282 1045,-263 878,-263"/>
<text text-anchor="middle" x="961.5" y="-270" font-family="Ubuntu Regular" font-size="10.00">include/karazeh/downloader.hpp</text>
</a>
</g>
</g>
<!-- Node1&#45;&gt;Node2 -->
<g id="edge1" class="edge"><title>Node1&#45;&gt;Node2</title>
<path fill="none" stroke="midnightblue" d="M859.523,-320.174C884.748,-308.629 921.107,-291.987 942.909,-282.009"/>
<polygon fill="midnightblue" stroke="midnightblue" points="857.762,-317.131 850.126,-324.475 860.675,-323.496 857.762,-317.131"/>
</g>
<!-- Node3 -->
<g id="node3" class="node"><title>Node3</title>
<g id="a_node3"><a xlink:href="operation_8hpp.html" target="_top" xlink:title="include/karazeh/operation.hpp">
<polygon fill="white" stroke="black" points="487.5,-201.5 487.5,-220.5 645.5,-220.5 645.5,-201.5 487.5,-201.5"/>
<text text-anchor="middle" x="566.5" y="-208.5" font-family="Ubuntu Regular" font-size="10.00">include/karazeh/operation.hpp</text>
</a>
</g>
</g>
<!-- Node1&#45;&gt;Node3 -->
<g id="edge31" class="edge"><title>Node1&#45;&gt;Node3</title>
<path fill="none" stroke="midnightblue" d="M803.528,-320.228C749.377,-295.502 631.512,-241.685 585.468,-220.661"/>
<polygon fill="midnightblue" stroke="midnightblue" points="802.315,-323.522 812.866,-324.492 805.223,-317.154 802.315,-323.522"/>
</g>
<!-- Node5 -->
<g id="node5" class="node"><title>Node5</title>
<g id="a_node5"><a xlink:href="version__manifest_8hpp.html" target="_top" xlink:title="include/karazeh/version\l_manifest.hpp">
<polygon fill="white" stroke="black" points="63.5,-67.5 63.5,-97.5 189.5,-97.5 189.5,-67.5 63.5,-67.5"/>
<text text-anchor="start" x="71.5" y="-85.5" font-family="Ubuntu Regular" font-size="10.00">include/karazeh/version</text>
<text text-anchor="middle" x="126.5" y="-74.5" font-family="Ubuntu Regular" font-size="10.00">_manifest.hpp</text>
</a>
</g>
</g>
<!-- Node1&#45;&gt;Node5 -->
<g id="edge33" class="edge"><title>Node1&#45;&gt;Node5</title>
<path fill="none" stroke="midnightblue" d="M750.364,-323.703C635.55,-309.171 419.994,-276.799 243.5,-221 185.842,-202.771 152.3,-215.802 119.5,-165 106.328,-144.598 113.876,-115.088 120.341,-97.7407"/>
<polygon fill="midnightblue" stroke="midnightblue" points="750.123,-327.2 760.48,-324.97 750.993,-320.255 750.123,-327.2"/>
</g>
<!-- Node9 -->
<g id="node9" class="node"><title>Node9</title>
<g id="a_node9"><a xlink:href="create_8test_8cpp.html" target="_top" xlink:title="src/operations/__tests\l__/create.test.cpp">
<polygon fill="white" stroke="black" points="677.5,-67.5 677.5,-97.5 797.5,-97.5 797.5,-67.5 677.5,-67.5"/>
<text text-anchor="start" x="685.5" y="-85.5" font-family="Ubuntu Regular" font-size="10.00">src/operations/__tests</text>
<text text-anchor="middle" x="737.5" y="-74.5" font-family="Ubuntu Regular" font-size="10.00">__/create.test.cpp</text>
</a>
</g>
</g>
<!-- Node1&#45;&gt;Node9 -->
<g id="edge35" class="edge"><title>Node1&#45;&gt;Node9</title>
<path fill="none" stroke="midnightblue" d="M831.784,-314.101C831.54,-277.085 826.981,-193.458 793.5,-134 785.214,-119.284 771.059,-106.576 759.054,-97.5893"/>
<polygon fill="midnightblue" stroke="midnightblue" points="828.283,-314.379 831.743,-324.392 835.283,-314.406 828.283,-314.379"/>
</g>
<!-- Node16 -->
<g id="node16" class="node"><title>Node16</title>
<g id="a_node16"><a xlink:href="patcher_8hpp.html" target="_top" xlink:title="include/karazeh/patcher.hpp">
<polygon fill="white" stroke="black" points="966,-73 966,-92 1115,-92 1115,-73 966,-73"/>
<text text-anchor="middle" x="1040.5" y="-80" font-family="Ubuntu Regular" font-size="10.00">include/karazeh/patcher.hpp</text>
</a>
</g>
</g>
<!-- Node1&#45;&gt;Node16 -->
<g id="edge32" class="edge"><title>Node1&#45;&gt;Node16</title>
<path fill="none" stroke="midnightblue" d="M832.911,-314.327C835.787,-287.077 844.366,-235.871 869.5,-201 909.307,-145.772 983.541,-108.047 1019.67,-92.0834"/>
<polygon fill="midnightblue" stroke="midnightblue" points="829.413,-314.146 831.995,-324.422 836.384,-314.778 829.413,-314.146"/>
</g>
<!-- Node21 -->
<g id="node21" class="node"><title>Node21</title>
<g id="a_node21"><a xlink:href="delta__encoder_8test_8cpp.html" target="_top" xlink:title="src/__tests__/delta\l_encoder.test.cpp">
<polygon fill="white" stroke="black" points="1063.5,-257.5 1063.5,-287.5 1167.5,-287.5 1167.5,-257.5 1063.5,-257.5"/>
<text text-anchor="start" x="1071.5" y="-275.5" font-family="Ubuntu Regular" font-size="10.00">src/__tests__/delta</text>
<text text-anchor="middle" x="1115.5" y="-264.5" font-family="Ubuntu Regular" font-size="10.00">_encoder.test.cpp</text>
</a>
</g>
</g>
<!-- Node1&#45;&gt;Node21 -->
<g id="edge34" class="edge"><title>Node1&#45;&gt;Node21</title>
<path fill="none" stroke="midnightblue" d="M885.652,-322.491C930.661,-313.644 996.348,-300.473 1053.5,-288 1056.74,-287.293 1060.07,-286.552 1063.43,-285.796"/>
<polygon fill="midnightblue" stroke="midnightblue" points="884.947,-319.062 875.808,-324.422 886.295,-325.931 884.947,-319.062"/>
</g>
<!-- Node2&#45;&gt;Node3 -->
<g id="edge2" class="edge"><title>Node2&#45;&gt;Node3</title>
<path fill="none" stroke="midnightblue" d="M894.922,-261.471C818.596,-249.974 694.801,-231.326 622.989,-220.509"/>
<polygon fill="midnightblue" stroke="midnightblue" points="894.496,-264.946 904.906,-262.975 895.539,-258.025 894.496,-264.946"/>
</g>
<!-- Node2&#45;&gt;Node5 -->
<g id="edge28" class="edge"><title>Node2&#45;&gt;Node5</title>
<path fill="none" stroke="midnightblue" d="M867.516,-265.916C661.918,-252.785 186.522,-217.075 136.5,-165 119.317,-147.112 120.872,-115.889 123.632,-97.7228"/>
<polygon fill="midnightblue" stroke="midnightblue" points="867.493,-269.422 877.694,-266.562 867.936,-262.436 867.493,-269.422"/>
</g>
<!-- Node2&#45;&gt;Node16 -->
<g id="edge27" class="edge"><title>Node2&#45;&gt;Node16</title>
<path fill="none" stroke="midnightblue" d="M1025.88,-261.237C1088.72,-250.564 1176.35,-233.675 1186.5,-221 1230.34,-166.226 1114.71,-112.491 1063.49,-92.0947"/>
<polygon fill="midnightblue" stroke="midnightblue" points="1024.91,-257.85 1015.63,-262.96 1026.07,-264.754 1024.91,-257.85"/>
</g>
<!-- Node19 -->
<g id="node19" class="node"><title>Node19</title>
<g id="a_node19"><a xlink:href="downloader_8test_8cpp.html" target="_top" xlink:title="src/__tests__/downloader.test.cpp">
<polygon fill="white" stroke="black" points="878.5,-201.5 878.5,-220.5 1052.5,-220.5 1052.5,-201.5 878.5,-201.5"/>
<text text-anchor="middle" x="965.5" y="-208.5" font-family="Ubuntu Regular" font-size="10.00">src/__tests__/downloader.test.cpp</text>
</a>
</g>
</g>
<!-- Node2&#45;&gt;Node19 -->
<g id="edge29" class="edge"><title>Node2&#45;&gt;Node19</title>
<path fill="none" stroke="midnightblue" d="M962.756,-252.817C963.483,-241.996 964.364,-228.898 964.928,-220.509"/>
<polygon fill="midnightblue" stroke="midnightblue" points="959.252,-252.763 962.073,-262.975 966.236,-253.232 959.252,-252.763"/>
</g>
<!-- Node20 -->
<g id="node20" class="node"><title>Node20</title>
<g id="a_node20"><a xlink:href="downloader_8cpp.html" target="_top" xlink:title="src/downloader.cpp">
<polygon fill="white" stroke="black" points="1071,-201.5 1071,-220.5 1178,-220.5 1178,-201.5 1071,-201.5"/>
<text text-anchor="middle" x="1124.5" y="-208.5" font-family="Ubuntu Regular" font-size="10.00">src/downloader.cpp</text>
</a>
</g>
</g>
<!-- Node2&#45;&gt;Node20 -->
<g id="edge30" class="edge"><title>Node2&#45;&gt;Node20</title>
<path fill="none" stroke="midnightblue" d="M994.558,-259.433C1026.24,-247.868 1073.25,-230.708 1101.19,-220.509"/>
<polygon fill="midnightblue" stroke="midnightblue" points="993.047,-256.258 984.854,-262.975 995.448,-262.834 993.047,-256.258"/>
</g>
<!-- Node4 -->
<g id="node4" class="node"><title>Node4</title>
<g id="a_node4"><a xlink:href="create_8hpp.html" target="_top" xlink:title="include/karazeh/operations\l/create.hpp">
<polygon fill="white" stroke="black" points="495,-134.5 495,-164.5 638,-164.5 638,-134.5 495,-134.5"/>
<text text-anchor="start" x="503" y="-152.5" font-family="Ubuntu Regular" font-size="10.00">include/karazeh/operations</text>
<text text-anchor="middle" x="566.5" y="-141.5" font-family="Ubuntu Regular" font-size="10.00">/create.hpp</text>
</a>
</g>
</g>
<!-- Node3&#45;&gt;Node4 -->
<g id="edge3" class="edge"><title>Node3&#45;&gt;Node4</title>
<path fill="none" stroke="midnightblue" d="M566.5,-191.235C566.5,-182.586 566.5,-172.497 566.5,-164.523"/>
<polygon fill="midnightblue" stroke="midnightblue" points="563,-191.475 566.5,-201.475 570,-191.475 563,-191.475"/>
</g>
<!-- Node3&#45;&gt;Node5 -->
<g id="edge26" class="edge"><title>Node3&#45;&gt;Node5</title>
<path fill="none" stroke="midnightblue" d="M477.169,-210.081C373.915,-208.471 211.95,-200.171 163.5,-165 141.368,-148.934 132.179,-116.437 128.597,-97.6956"/>
<polygon fill="midnightblue" stroke="midnightblue" points="477.235,-213.582 487.282,-210.22 477.331,-206.583 477.235,-213.582"/>
</g>
<!-- Node11 -->
<g id="node11" class="node"><title>Node11</title>
<g id="a_node11"><a xlink:href="delete_8hpp.html" target="_top" xlink:title="include/karazeh/operations\l/delete.hpp">
<polygon fill="white" stroke="black" points="173,-134.5 173,-164.5 316,-164.5 316,-134.5 173,-134.5"/>
<text text-anchor="start" x="181" y="-152.5" font-family="Ubuntu Regular" font-size="10.00">include/karazeh/operations</text>
<text text-anchor="middle" x="244.5" y="-141.5" font-family="Ubuntu Regular" font-size="10.00">/delete.hpp</text>
</a>
</g>
</g>
<!-- Node3&#45;&gt;Node11 -->
<g id="edge10" class="edge"><title>Node3&#45;&gt;Node11</title>
<path fill="none" stroke="midnightblue" d="M510.295,-199.614C456.352,-189.647 374.657,-174.551 316.084,-163.727"/>
<polygon fill="midnightblue" stroke="midnightblue" points="509.896,-203.1 520.365,-201.475 511.168,-196.216 509.896,-203.1"/>
</g>
<!-- Node13 -->
<g id="node13" class="node"><title>Node13</title>
<g id="a_node13"><a xlink:href="update_8hpp.html" target="_top" xlink:title="include/karazeh/operations\l/update.hpp">
<polygon fill="white" stroke="black" points="334,-134.5 334,-164.5 477,-164.5 477,-134.5 334,-134.5"/>
<text text-anchor="start" x="342" y="-152.5" font-family="Ubuntu Regular" font-size="10.00">include/karazeh/operations</text>
<text text-anchor="middle" x="405.5" y="-141.5" font-family="Ubuntu Regular" font-size="10.00">/update.hpp</text>
</a>
</g>
</g>
<!-- Node3&#45;&gt;Node13 -->
<g id="edge13" class="edge"><title>Node3&#45;&gt;Node13</title>
<path fill="none" stroke="midnightblue" d="M533.963,-197.976C507.787,-188.302 470.961,-174.692 443.445,-164.523"/>
<polygon fill="midnightblue" stroke="midnightblue" points="532.839,-201.292 543.433,-201.475 535.266,-194.726 532.839,-201.292"/>
</g>
<!-- Node15 -->
<g id="node15" class="node"><title>Node15</title>
<g id="a_node15"><a xlink:href="release__manifest_8hpp.html" target="_top" xlink:title="include/karazeh/release\l_manifest.hpp">
<polygon fill="white" stroke="black" points="656.5,-134.5 656.5,-164.5 784.5,-164.5 784.5,-134.5 656.5,-134.5"/>
<text text-anchor="start" x="664.5" y="-152.5" font-family="Ubuntu Regular" font-size="10.00">include/karazeh/release</text>
<text text-anchor="middle" x="720.5" y="-141.5" font-family="Ubuntu Regular" font-size="10.00">_manifest.hpp</text>
</a>
</g>
</g>
<!-- Node3&#45;&gt;Node15 -->
<g id="edge16" class="edge"><title>Node3&#45;&gt;Node15</title>
<path fill="none" stroke="midnightblue" d="M597.954,-197.847C622.971,-188.182 658.002,-174.647 684.205,-164.523"/>
<polygon fill="midnightblue" stroke="midnightblue" points="596.631,-194.606 588.564,-201.475 599.154,-201.136 596.631,-194.606"/>
</g>
<!-- Node4&#45;&gt;Node5 -->
<g id="edge4" class="edge"><title>Node4&#45;&gt;Node5</title>
<path fill="none" stroke="midnightblue" d="M484.774,-133.949C356.669,-114.856 322.155,-118.178 198.5,-98 195.606,-97.5277 192.65,-97.0232 189.668,-96.4961"/>
<polygon fill="midnightblue" stroke="midnightblue" points="484.57,-137.458 494.98,-135.488 485.614,-130.536 484.57,-137.458"/>
</g>
<!-- Node4&#45;&gt;Node9 -->
<g id="edge8" class="edge"><title>Node4&#45;&gt;Node9</title>
<path fill="none" stroke="midnightblue" d="M613.016,-130.819C640.502,-120.371 674.827,-107.323 700.468,-97.5765"/>
<polygon fill="midnightblue" stroke="midnightblue" points="611.708,-127.571 603.604,-134.396 614.196,-134.114 611.708,-127.571"/>
</g>
<!-- Node10 -->
<g id="node10" class="node"><title>Node10</title>
<g id="a_node10"><a xlink:href="create_8cpp.html" target="_top" xlink:title="src/operations/create.cpp">
<polygon fill="white" stroke="black" points="522,-73 522,-92 659,-92 659,-73 522,-73"/>
<text text-anchor="middle" x="590.5" y="-80" font-family="Ubuntu Regular" font-size="10.00">src/operations/create.cpp</text>
</a>
</g>
</g>
<!-- Node4&#45;&gt;Node10 -->
<g id="edge9" class="edge"><title>Node4&#45;&gt;Node10</title>
<path fill="none" stroke="midnightblue" d="M575.198,-124.942C579.408,-113.54 584.206,-100.545 587.29,-92.1945"/>
<polygon fill="midnightblue" stroke="midnightblue" points="571.888,-123.803 571.708,-134.396 578.455,-126.227 571.888,-123.803"/>
</g>
<!-- Node6 -->
<g id="node6" class="node"><title>Node6</title>
<g id="a_node6"><a xlink:href="patcher_8test_8cpp.html" target="_top" xlink:title="src/__tests__/patcher.test.cpp">
<polygon fill="white" stroke="black" points="551,-6 551,-25 708,-25 708,-6 551,-6"/>
<text text-anchor="middle" x="629.5" y="-13" font-family="Ubuntu Regular" font-size="10.00">src/__tests__/patcher.test.cpp</text>
</a>
</g>
</g>
<!-- Node5&#45;&gt;Node6 -->
<g id="edge5" class="edge"><title>Node5&#45;&gt;Node6</title>
<path fill="none" stroke="midnightblue" d="M199.695,-66.8886C328.321,-46.7358 466.589,-31.9756 550.981,-23.7455"/>
<polygon fill="midnightblue" stroke="midnightblue" points="198.994,-63.4559 189.663,-68.4746 200.087,-70.37 198.994,-63.4559"/>
</g>
<!-- Node7 -->
<g id="node7" class="node"><title>Node7</title>
<g id="a_node7"><a xlink:href="version__manifest_8test_8cpp.html" target="_top" xlink:title="src/__tests__/version\l_manifest.test.cpp">
<polygon fill="white" stroke="black" points="0,-0.5 0,-30.5 113,-30.5 113,-0.5 0,-0.5"/>
<text text-anchor="start" x="8" y="-18.5" font-family="Ubuntu Regular" font-size="10.00">src/__tests__/version</text>
<text text-anchor="middle" x="56.5" y="-7.5" font-family="Ubuntu Regular" font-size="10.00">_manifest.test.cpp</text>
</a>
</g>
</g>
<!-- Node5&#45;&gt;Node7 -->
<g id="edge6" class="edge"><title>Node5&#45;&gt;Node7</title>
<path fill="none" stroke="midnightblue" d="M103.682,-60.3115C93.1813,-50.5612 81.0097,-39.259 71.6593,-30.5765"/>
<polygon fill="midnightblue" stroke="midnightblue" points="101.601,-63.1562 111.311,-67.396 106.365,-58.0266 101.601,-63.1562"/>
</g>
<!-- Node8 -->
<g id="node8" class="node"><title>Node8</title>
<g id="a_node8"><a xlink:href="version__manifest_8cpp.html" target="_top" xlink:title="src/version_manifest.cpp">
<polygon fill="white" stroke="black" points="131,-6 131,-25 262,-25 262,-6 131,-6"/>
<text text-anchor="middle" x="196.5" y="-13" font-family="Ubuntu Regular" font-size="10.00">src/version_manifest.cpp</text>
</a>
</g>
</g>
<!-- Node5&#45;&gt;Node8 -->
<g id="edge7" class="edge"><title>Node5&#45;&gt;Node8</title>
<path fill="none" stroke="midnightblue" d="M149.293,-60.335C162.145,-48.401 177.507,-34.1359 187.137,-25.1945"/>
<polygon fill="midnightblue" stroke="midnightblue" points="146.635,-58.0266 141.689,-67.396 151.399,-63.1562 146.635,-58.0266"/>
</g>
<!-- Node11&#45;&gt;Node5 -->
<g id="edge11" class="edge"><title>Node11&#45;&gt;Node5</title>
<path fill="none" stroke="midnightblue" d="M209.89,-129.435C191.377,-119.237 168.975,-106.897 152.054,-97.5765"/>
<polygon fill="midnightblue" stroke="midnightblue" points="208.448,-132.637 218.896,-134.396 211.825,-126.505 208.448,-132.637"/>
</g>
<!-- Node12 -->
<g id="node12" class="node"><title>Node12</title>
<g id="a_node12"><a xlink:href="delete_8cpp.html" target="_top" xlink:title="src/operations/delete.cpp">
<polygon fill="white" stroke="black" points="207.5,-73 207.5,-92 345.5,-92 345.5,-73 207.5,-73"/>
<text text-anchor="middle" x="276.5" y="-80" font-family="Ubuntu Regular" font-size="10.00">src/operations/delete.cpp</text>
</a>
</g>
</g>
<!-- Node11&#45;&gt;Node12 -->
<g id="edge12" class="edge"><title>Node11&#45;&gt;Node12</title>
<path fill="none" stroke="midnightblue" d="M255.928,-125.287C261.582,-113.803 268.067,-100.63 272.22,-92.1945"/>
<polygon fill="midnightblue" stroke="midnightblue" points="252.72,-123.878 251.444,-134.396 259.001,-126.97 252.72,-123.878"/>
</g>
<!-- Node13&#45;&gt;Node5 -->
<g id="edge14" class="edge"><title>Node13&#45;&gt;Node5</title>
<path fill="none" stroke="midnightblue" d="M335.474,-132.186C289.781,-121.54 230.735,-107.784 187.068,-97.6109"/>
<polygon fill="midnightblue" stroke="midnightblue" points="334.771,-135.616 345.305,-134.476 336.36,-128.798 334.771,-135.616"/>
</g>
<!-- Node14 -->
<g id="node14" class="node"><title>Node14</title>
<g id="a_node14"><a xlink:href="update_8cpp.html" target="_top" xlink:title="src/operations/update.cpp">
<polygon fill="white" stroke="black" points="363.5,-73 363.5,-92 503.5,-92 503.5,-73 363.5,-73"/>
<text text-anchor="middle" x="433.5" y="-80" font-family="Ubuntu Regular" font-size="10.00">src/operations/update.cpp</text>
</a>
</g>
</g>
<!-- Node13&#45;&gt;Node14 -->
<g id="edge15" class="edge"><title>Node13&#45;&gt;Node14</title>
<path fill="none" stroke="midnightblue" d="M415.648,-124.942C420.56,-113.54 426.157,-100.545 429.755,-92.1945"/>
<polygon fill="midnightblue" stroke="midnightblue" points="412.317,-123.827 411.576,-134.396 418.746,-126.597 412.317,-123.827"/>
</g>
<!-- Node15&#45;&gt;Node5 -->
<g id="edge20" class="edge"><title>Node15&#45;&gt;Node5</title>
<path fill="none" stroke="midnightblue" d="M646.804,-134.042C646.703,-134.028 646.601,-134.014 646.5,-134 448.614,-106.751 396.314,-125.767 198.5,-98 195.596,-97.5923 192.632,-97.1409 189.643,-96.6568"/>
<polygon fill="midnightblue" stroke="midnightblue" points="645.991,-137.459 656.399,-135.478 647.028,-130.536 645.991,-137.459"/>
</g>
<!-- Node15&#45;&gt;Node9 -->
<g id="edge21" class="edge"><title>Node15&#45;&gt;Node9</title>
<path fill="none" stroke="midnightblue" d="M726.725,-124.697C729.108,-115.587 731.748,-105.493 733.818,-97.5765"/>
<polygon fill="midnightblue" stroke="midnightblue" points="723.333,-123.836 724.189,-134.396 730.105,-125.607 723.333,-123.836"/>
</g>
<!-- Node15&#45;&gt;Node10 -->
<g id="edge22" class="edge"><title>Node15&#45;&gt;Node10</title>
<path fill="none" stroke="midnightblue" d="M683.106,-129.803C658.184,-117.342 626.612,-101.556 607.514,-92.007"/>
<polygon fill="midnightblue" stroke="midnightblue" points="681.782,-133.054 692.292,-134.396 684.913,-126.793 681.782,-133.054"/>
</g>
<!-- Node15&#45;&gt;Node12 -->
<g id="edge23" class="edge"><title>Node15&#45;&gt;Node12</title>
<path fill="none" stroke="midnightblue" d="M646.803,-134.048C646.702,-134.032 646.601,-134.016 646.5,-134 517.37,-113.415 483.728,-117.959 354.5,-98 343.202,-96.2551 331.031,-94.1174 319.74,-92.0251"/>
<polygon fill="midnightblue" stroke="midnightblue" points="645.934,-137.452 656.374,-135.646 647.087,-130.547 645.934,-137.452"/>
</g>
<!-- Node15&#45;&gt;Node14 -->
<g id="edge24" class="edge"><title>Node15&#45;&gt;Node14</title>
<path fill="none" stroke="midnightblue" d="M648.654,-132.228C592.302,-119.466 516.119,-102.212 471.157,-92.0287"/>
<polygon fill="midnightblue" stroke="midnightblue" points="648.052,-135.681 658.579,-134.476 649.599,-128.854 648.052,-135.681"/>
</g>
<!-- Node15&#45;&gt;Node16 -->
<g id="edge17" class="edge"><title>Node15&#45;&gt;Node16</title>
<path fill="none" stroke="midnightblue" d="M794.813,-133.405C858.174,-120.535 946.966,-102.499 998.638,-92.0032"/>
<polygon fill="midnightblue" stroke="midnightblue" points="793.975,-130.004 784.872,-135.424 795.368,-136.864 793.975,-130.004"/>
</g>
<!-- Node18 -->
<g id="node18" class="node"><title>Node18</title>
<g id="a_node18"><a xlink:href="release__manifest_8cpp.html" target="_top" xlink:title="src/release_manifest.cpp">
<polygon fill="white" stroke="black" points="815.5,-73 815.5,-92 947.5,-92 947.5,-73 815.5,-73"/>
<text text-anchor="middle" x="881.5" y="-80" font-family="Ubuntu Regular" font-size="10.00">src/release_manifest.cpp</text>
</a>
</g>
</g>
<!-- Node15&#45;&gt;Node18 -->
<g id="edge25" class="edge"><title>Node15&#45;&gt;Node18</title>
<path fill="none" stroke="midnightblue" d="M764.784,-130.621C795.946,-118.04 836.256,-101.766 860.429,-92.007"/>
<polygon fill="midnightblue" stroke="midnightblue" points="763.397,-127.407 755.435,-134.396 766.018,-133.898 763.397,-127.407"/>
</g>
<!-- Node16&#45;&gt;Node6 -->
<g id="edge18" class="edge"><title>Node16&#45;&gt;Node6</title>
<path fill="none" stroke="midnightblue" d="M982.131,-71.2871C973.54,-69.8238 964.793,-68.356 956.5,-67 862.11,-51.5659 752.177,-34.8463 686.847,-25.0421"/>
<polygon fill="midnightblue" stroke="midnightblue" points="981.661,-74.7575 992.108,-72.9959 982.842,-67.858 981.661,-74.7575"/>
</g>
<!-- Node17 -->
<g id="node17" class="node"><title>Node17</title>
<g id="a_node17"><a xlink:href="patcher_8cpp.html" target="_top" xlink:title="src/patcher.cpp">
<polygon fill="white" stroke="black" points="996,-6 996,-25 1085,-25 1085,-6 996,-6"/>
<text text-anchor="middle" x="1040.5" y="-13" font-family="Ubuntu Regular" font-size="10.00">src/patcher.cpp</text>
</a>
</g>
</g>
<!-- Node16&#45;&gt;Node17 -->
<g id="edge19" class="edge"><title>Node16&#45;&gt;Node17</title>
<path fill="none" stroke="midnightblue" d="M1040.5,-62.537C1040.5,-50.1703 1040.5,-34.6198 1040.5,-25.1273"/>
<polygon fill="midnightblue" stroke="midnightblue" points="1037,-62.7338 1040.5,-72.7338 1044,-62.7338 1037,-62.7338"/>
</g>
</g>
</svg>
        <g id="navigator" transform="translate(0 0)" fill="#404254">
                <rect fill="#f2f5e9" fill-opacity="0.5" stroke="#606060" stroke-width=".5" x="0" y="0" width="60" height="60"/>
                <use id="zoomplus" xlink:href="#zoomPlus" x="17" y="9" onmousedown="handleZoom(evt,'in')"/>
                <use id="zoomminus" xlink:href="#zoomMin" x="42" y="9" onmousedown="handleZoom(evt,'out')"/>
                <use id="reset" xlink:href="#resetDef" x="30" y="36" onmousedown="handleReset()"/>
                <g id="arrowUp" xlink:href="#dirArrow" transform="translate(30 24)" onmousedown="handlePan(0,-1)">
                  <use xlink:href="#rim" fill="#404040">
                        <set attributeName="fill" to="#808080" begin="arrowUp.mouseover" end="arrowUp.mouseout"/>
                  </use>
                  <path fill="none" stroke="white" stroke-width="1.5" d="M0,-3.0v7 M-2.5,-0.5L0,-3.0L2.5,-0.5"/>
                </g>
                <g id="arrowRight" xlink:href="#dirArrow" transform="rotate(90) translate(36 -43)" onmousedown="handlePan(1,0)">
                  <use xlink:href="#rim" fill="#404040">
                        <set attributeName="fill" to="#808080" begin="arrowRight.mouseover" end="arrowRight.mouseout"/>
                  </use>
                  <path fill="none" stroke="white" stroke-width="1.5" d="M0,-3.0v7 M-2.5,-0.5L0,-3.0L2.5,-0.5"/>
                </g>
                <g id="arrowDown" xlink:href="#dirArrow" transform="rotate(180) translate(-30 -48)" onmousedown="handlePan(0,1)">
                  <use xlink:href="#rim" fill="#404040">
                        <set attributeName="fill" to="#808080" begin="arrowDown.mouseover" end="arrowDown.mouseout"/>
                  </use>
                  <path fill="none" stroke="white" stroke-width="1.5" d="M0,-3.0v7 M-2.5,-0.5L0,-3.0L2.5,-0.5"/>
                </g>
                <g id="arrowLeft" xlink:href="#dirArrow" transform="rotate(270) translate(-36 17)" onmousedown="handlePan(-1,0)">
                  <use xlink:href="#rim" fill="#404040">
                        <set attributeName="fill" to="#808080" begin="arrowLeft.mouseover" end="arrowLeft.mouseout"/>
                  </use>
                  <path fill="none" stroke="white" stroke-width="1.5" d="M0,-3.0v7 M-2.5,-0.5L0,-3.0L2.5,-0.5"/>
                </g>
        </g>
        <svg viewBox="0 0 15 15" width="100%" height="30px" preserveAspectRatio="xMaxYMin meet">
         <g id="arrow_out" transform="scale(0.3 0.3)">
          <a xlink:href="config_8hpp__dep__incl_org.svg" target="_base">
           <rect id="button" ry="5" rx="5" y="6" x="6" height="38" width="38"
                fill="#f2f5e9" fill-opacity="0.5" stroke="#606060" stroke-width="1.0"/>
           <path id="arrow"
             d="M 11.500037,31.436501 C 11.940474,20.09759 22.043105,11.32322 32.158766,21.979434 L 37.068811,17.246167 C 37.068811,17.246167 37.088388,32 37.088388,32 L 22.160133,31.978069 C 22.160133,31.978069 26.997745,27.140456 26.997745,27.140456 C 18.528582,18.264221 13.291696,25.230495 11.500037,31.436501 z"
             style="fill:#404040;"/>
          </a>
         </g>
        </svg>
</svg>
