<?xml version="1.0" encoding="UTF-8" standalone="no"?>
<!DOCTYPE svg PUBLIC "-//W3C//DTD SVG 1.1//EN"
 "http://www.w3.org/Graphics/SVG/1.1/DTD/svg11.dtd">
<!-- Generated by graphviz version 2.38.0 (20140413.2041)
 -->
<!-- Title: include/karazeh/operations/create.hpp Pages: 1 -->
<svg width="1009pt" height="431pt"
 viewBox="0.00 0.00 1008.50 431.00" xmlns="http://www.w3.org/2000/svg" xmlns:xlink="http://www.w3.org/1999/xlink">
<g id="graph0" class="graph" transform="scale(1 1) rotate(0) translate(4 427)">
<title>include/karazeh/operations/create.hpp</title>
<polygon fill="white" stroke="none" points="-4,4 -4,-427 1004.5,-427 1004.5,4 -4,4"/>
<!-- Node1 -->
<g id="node1" class="node"><title>Node1</title>
<polygon fill="#bfbfbf" stroke="black" points="853,-392.5 853,-422.5 996,-422.5 996,-392.5 853,-392.5"/>
<text text-anchor="start" x="861" y="-410.5" font-family="Ubuntu Regular" font-size="10.00">include/karazeh/operations</text>
<text text-anchor="middle" x="924.5" y="-399.5" font-family="Ubuntu Regular" font-size="10.00">/create.hpp</text>
</g>
<!-- Node2 -->
<g id="node2" class="node"><title>Node2</title>
<polygon fill="white" stroke="#bfbfbf" points="710,-0.5 710,-19.5 807,-19.5 807,-0.5 710,-0.5"/>
<text text-anchor="middle" x="758.5" y="-7.5" font-family="Ubuntu Regular" font-size="10.00">karazeh_export.h</text>
</g>
<!-- Node1&#45;&gt;Node2 -->
<g id="edge1" class="edge"><title>Node1&#45;&gt;Node2</title>
<path fill="none" stroke="midnightblue" d="M941.746,-392.429C964.169,-372.436 1000.5,-333.487 1000.5,-291 1000.5,-291 1000.5,-291 1000.5,-121 1000.5,-40.8333 889.078,-18.8134 817.444,-12.9406"/>
<polygon fill="midnightblue" stroke="midnightblue" points="817.411,-9.4288 807.181,-12.1862 816.898,-16.41 817.411,-9.4288"/>
</g>
<!-- Node3 -->
<g id="node3" class="node"><title>Node3</title>
<g id="a_node3"><a xlink:href="operation_8hpp.html" target="_top" xlink:title="karazeh/operation.hpp">
<polygon fill="white" stroke="black" points="480.5,-336.5 480.5,-355.5 602.5,-355.5 602.5,-336.5 480.5,-336.5"/>
<text text-anchor="middle" x="541.5" y="-343.5" font-family="Ubuntu Regular" font-size="10.00">karazeh/operation.hpp</text>
</a>
</g>
</g>
<!-- Node1&#45;&gt;Node3 -->
<g id="edge2" class="edge"><title>Node1&#45;&gt;Node3</title>
<path fill="none" stroke="midnightblue" d="M852.91,-395.378C782.17,-384.389 674.901,-367.724 606.531,-357.103"/>
<polygon fill="midnightblue" stroke="midnightblue" points="606.738,-353.593 596.319,-355.516 605.663,-360.51 606.738,-353.593"/>
</g>
<!-- Node15 -->
<g id="node15" class="node"><title>Node15</title>
<g id="a_node15"><a xlink:href="logger_8hpp.html" target="_top" xlink:title="karazeh/logger.hpp">
<polygon fill="white" stroke="black" points="789,-168.5 789,-187.5 896,-187.5 896,-168.5 789,-168.5"/>
<text text-anchor="middle" x="842.5" y="-175.5" font-family="Ubuntu Regular" font-size="10.00">karazeh/logger.hpp</text>
</a>
</g>
</g>
<!-- Node1&#45;&gt;Node15 -->
<g id="edge41" class="edge"><title>Node1&#45;&gt;Node15</title>
<path fill="none" stroke="midnightblue" d="M919.371,-392.269C905.118,-352.728 865.045,-241.548 849.133,-197.402"/>
<polygon fill="midnightblue" stroke="midnightblue" points="852.401,-196.148 845.718,-187.927 845.816,-198.521 852.401,-196.148"/>
</g>
<!-- Node3&#45;&gt;Node2 -->
<g id="edge3" class="edge"><title>Node3&#45;&gt;Node2</title>
<path fill="none" stroke="midnightblue" d="M590.205,-336.473C701.026,-315.689 962.5,-258.254 962.5,-179 962.5,-179 962.5,-179 962.5,-121 962.5,-54.5306 877.555,-28.0414 817.294,-17.6125"/>
<polygon fill="midnightblue" stroke="midnightblue" points="817.535,-14.1061 807.104,-15.9592 816.414,-21.0157 817.535,-14.1061"/>
</g>
<!-- Node4 -->
<g id="node4" class="node"><title>Node4</title>
<g id="a_node4"><a xlink:href="karazeh_8hpp.html" target="_top" xlink:title="karazeh/karazeh.hpp">
<polygon fill="white" stroke="black" points="214,-112.5 214,-131.5 327,-131.5 327,-112.5 214,-112.5"/>
<text text-anchor="middle" x="270.5" y="-119.5" font-family="Ubuntu Regular" font-size="10.00">karazeh/karazeh.hpp</text>
</a>
</g>
</g>
<!-- Node3&#45;&gt;Node4 -->
<g id="edge4" class="edge"><title>Node3&#45;&gt;Node4</title>
<path fill="none" stroke="midnightblue" d="M490.699,-336.452C408.915,-321.528 254.013,-288.061 222.5,-244 198.522,-210.475 233.072,-163.304 254.926,-138.946"/>
<polygon fill="midnightblue" stroke="midnightblue" points="257.499,-141.319 261.748,-131.613 252.374,-136.551 257.499,-141.319"/>
</g>
<!-- Node11 -->
<g id="node11" class="node"><title>Node11</title>
<g id="a_node11"><a xlink:href="config_8hpp.html" target="_top" xlink:title="karazeh/config.hpp">
<polygon fill="white" stroke="black" points="232,-224.5 232,-243.5 337,-243.5 337,-224.5 232,-224.5"/>
<text text-anchor="middle" x="284.5" y="-231.5" font-family="Ubuntu Regular" font-size="10.00">karazeh/config.hpp</text>
</a>
</g>
</g>
<!-- Node3&#45;&gt;Node11 -->
<g id="edge13" class="edge"><title>Node3&#45;&gt;Node11</title>
<path fill="none" stroke="midnightblue" d="M521.334,-336.368C476.2,-317.051 366.878,-270.259 314.05,-247.648"/>
<polygon fill="midnightblue" stroke="midnightblue" points="315.143,-244.309 304.573,-243.591 312.389,-250.744 315.143,-244.309"/>
</g>
<!-- Node12 -->
<g id="node12" class="node"><title>Node12</title>
<g id="a_node12"><a xlink:href="downloader_8hpp.html" target="_top" xlink:title="karazeh/downloader.hpp">
<polygon fill="white" stroke="black" points="532.5,-280.5 532.5,-299.5 662.5,-299.5 662.5,-280.5 532.5,-280.5"/>
<text text-anchor="middle" x="597.5" y="-287.5" font-family="Ubuntu Regular" font-size="10.00">karazeh/downloader.hpp</text>
</a>
</g>
</g>
<!-- Node3&#45;&gt;Node12 -->
<g id="edge16" class="edge"><title>Node3&#45;&gt;Node12</title>
<path fill="none" stroke="midnightblue" d="M550.497,-336.324C558.694,-328.42 571.006,-316.548 580.972,-306.938"/>
<polygon fill="midnightblue" stroke="midnightblue" points="583.57,-309.295 588.339,-299.834 578.711,-304.256 583.57,-309.295"/>
</g>
<!-- Node20 -->
<g id="node20" class="node"><title>Node20</title>
<g id="a_node20"><a xlink:href="file__manager_8hpp.html" target="_top" xlink:title="karazeh/file_manager.hpp">
<polygon fill="white" stroke="black" points="406,-224.5 406,-243.5 541,-243.5 541,-224.5 406,-224.5"/>
<text text-anchor="middle" x="473.5" y="-231.5" font-family="Ubuntu Regular" font-size="10.00">karazeh/file_manager.hpp</text>
</a>
</g>
</g>
<!-- Node3&#45;&gt;Node20 -->
<g id="edge40" class="edge"><title>Node3&#45;&gt;Node20</title>
<path fill="none" stroke="midnightblue" d="M536.164,-336.368C524.992,-318.296 498.955,-276.176 484.199,-252.307"/>
<polygon fill="midnightblue" stroke="midnightblue" points="487.046,-250.257 478.811,-243.591 481.092,-253.938 487.046,-250.257"/>
</g>
<!-- Node5 -->
<g id="node5" class="node"><title>Node5</title>
<polygon fill="white" stroke="#bfbfbf" points="0,-0.5 0,-19.5 43,-19.5 43,-0.5 0,-0.5"/>
<text text-anchor="middle" x="21.5" y="-7.5" font-family="Ubuntu Regular" font-size="10.00">string</text>
</g>
<!-- Node4&#45;&gt;Node5 -->
<g id="edge5" class="edge"><title>Node4&#45;&gt;Node5</title>
<path fill="none" stroke="midnightblue" d="M213.759,-117.232C152.476,-111.971 60.2692,-100.207 35.5,-76 23.3836,-64.1585 20.5585,-44.5306 20.3536,-29.9362"/>
<polygon fill="midnightblue" stroke="midnightblue" points="23.8623,-29.6435 20.6235,-19.5559 16.8646,-29.4614 23.8623,-29.6435"/>
</g>
<!-- Node6 -->
<g id="node6" class="node"><title>Node6</title>
<polygon fill="white" stroke="#bfbfbf" points="245.5,-56.5 245.5,-75.5 295.5,-75.5 295.5,-56.5 245.5,-56.5"/>
<text text-anchor="middle" x="270.5" y="-63.5" font-family="Ubuntu Regular" font-size="10.00">cassert</text>
</g>
<!-- Node4&#45;&gt;Node6 -->
<g id="edge6" class="edge"><title>Node4&#45;&gt;Node6</title>
<path fill="none" stroke="midnightblue" d="M270.5,-112.083C270.5,-105.006 270.5,-94.8611 270.5,-85.9865"/>
<polygon fill="midnightblue" stroke="midnightblue" points="274,-85.751 270.5,-75.7511 267,-85.7511 274,-85.751"/>
</g>
<!-- Node7 -->
<g id="node7" class="node"><title>Node7</title>
<polygon fill="white" stroke="#bfbfbf" points="383.5,-56.5 383.5,-75.5 499.5,-75.5 499.5,-56.5 383.5,-56.5"/>
<text text-anchor="middle" x="441.5" y="-63.5" font-family="Ubuntu Regular" font-size="10.00">boost/filesystem.hpp</text>
</g>
<!-- Node4&#45;&gt;Node7 -->
<g id="edge7" class="edge"><title>Node4&#45;&gt;Node7</title>
<path fill="none" stroke="midnightblue" d="M297.595,-112.444C326.488,-103.32 372.425,-88.8133 404.605,-78.6509"/>
<polygon fill="midnightblue" stroke="midnightblue" points="406.049,-81.8654 414.531,-75.5164 403.941,-75.1903 406.049,-81.8654"/>
</g>
<!-- Node8 -->
<g id="node8" class="node"><title>Node8</title>
<g id="a_node8"><a xlink:href="exception_8hpp.html" target="_top" xlink:title="karazeh/exception.hpp">
<polygon fill="white" stroke="black" points="45,-56.5 45,-75.5 168,-75.5 168,-56.5 45,-56.5"/>
<text text-anchor="middle" x="106.5" y="-63.5" font-family="Ubuntu Regular" font-size="10.00">karazeh/exception.hpp</text>
</a>
</g>
</g>
<!-- Node4&#45;&gt;Node8 -->
<g id="edge8" class="edge"><title>Node4&#45;&gt;Node8</title>
<path fill="none" stroke="midnightblue" d="M244.514,-112.444C216.804,-103.32 172.748,-88.8133 141.884,-78.6509"/>
<polygon fill="midnightblue" stroke="midnightblue" points="142.958,-75.3196 132.365,-75.5164 140.768,-81.9684 142.958,-75.3196"/>
</g>
<!-- Node8&#45;&gt;Node2 -->
<g id="edge12" class="edge"><title>Node8&#45;&gt;Node2</title>
<path fill="none" stroke="midnightblue" d="M168.279,-57.4751C173.089,-56.9532 177.872,-56.4546 182.5,-56 371.367,-37.4469 595.683,-21.738 699.889,-14.8032"/>
<polygon fill="midnightblue" stroke="midnightblue" points="700.147,-18.2939 709.894,-14.1398 699.684,-11.3092 700.147,-18.2939"/>
</g>
<!-- Node8&#45;&gt;Node5 -->
<g id="edge10" class="edge"><title>Node8&#45;&gt;Node5</title>
<path fill="none" stroke="midnightblue" d="M92.8433,-56.324C79.5837,-47.9002 59.232,-34.9709 43.6538,-25.0741"/>
<polygon fill="midnightblue" stroke="midnightblue" points="45.4404,-22.0626 35.1228,-19.6545 41.6867,-27.9711 45.4404,-22.0626"/>
</g>
<!-- Node9 -->
<g id="node9" class="node"><title>Node9</title>
<polygon fill="white" stroke="#bfbfbf" points="148,-0.5 148,-19.5 211,-19.5 211,-0.5 148,-0.5"/>
<text text-anchor="middle" x="179.5" y="-7.5" font-family="Ubuntu Regular" font-size="10.00">exception</text>
</g>
<!-- Node8&#45;&gt;Node9 -->
<g id="edge9" class="edge"><title>Node8&#45;&gt;Node9</title>
<path fill="none" stroke="midnightblue" d="M118.229,-56.324C129.337,-48.1066 146.242,-35.6017 159.483,-25.8069"/>
<polygon fill="midnightblue" stroke="midnightblue" points="161.6,-28.5948 167.558,-19.8339 157.437,-22.9671 161.6,-28.5948"/>
</g>
<!-- Node10 -->
<g id="node10" class="node"><title>Node10</title>
<polygon fill="white" stroke="#bfbfbf" points="65,-0.5 65,-19.5 130,-19.5 130,-0.5 65,-0.5"/>
<text text-anchor="middle" x="97.5" y="-7.5" font-family="Ubuntu Regular" font-size="10.00">stdexcept</text>
</g>
<!-- Node8&#45;&gt;Node10 -->
<g id="edge11" class="edge"><title>Node8&#45;&gt;Node10</title>
<path fill="none" stroke="midnightblue" d="M105.014,-56.083C103.821,-48.9272 102.106,-38.6353 100.615,-29.6911"/>
<polygon fill="midnightblue" stroke="midnightblue" points="104.055,-29.0396 98.9585,-19.7511 97.1502,-30.1904 104.055,-29.0396"/>
</g>
<!-- Node11&#45;&gt;Node2 -->
<g id="edge14" class="edge"><title>Node11&#45;&gt;Node2</title>
<path fill="none" stroke="midnightblue" d="M274.075,-224.326C255.771,-208.332 218.471,-172.139 204.5,-132 192.453,-97.3869 205.621,-75.7411 236.5,-56 274.788,-31.5222 571.387,-17.8386 699.682,-13.0128"/>
<polygon fill="midnightblue" stroke="midnightblue" points="699.863,-16.5086 709.726,-12.6402 699.603,-9.51344 699.863,-16.5086"/>
</g>
<!-- Node11&#45;&gt;Node4 -->
<g id="edge15" class="edge"><title>Node11&#45;&gt;Node4</title>
<path fill="none" stroke="midnightblue" d="M279.624,-224.372C274.941,-215.552 268.192,-201.299 265.5,-188 262.373,-172.556 264.126,-154.687 266.376,-141.597"/>
<polygon fill="midnightblue" stroke="midnightblue" points="269.865,-141.994 268.371,-131.505 262.998,-140.637 269.865,-141.994"/>
</g>
<!-- Node12&#45;&gt;Node2 -->
<g id="edge20" class="edge"><title>Node12&#45;&gt;Node2</title>
<path fill="none" stroke="midnightblue" d="M657.556,-280.471C699.125,-273.451 755.253,-261.735 802.5,-244 850.918,-225.826 878.162,-232.507 904.5,-188 937.045,-133.005 894.683,-99.0966 847.5,-56 831.967,-41.8126 811.131,-30.9558 793.524,-23.4638"/>
<polygon fill="midnightblue" stroke="midnightblue" points="794.711,-20.1682 784.129,-19.6479 792.077,-26.6537 794.711,-20.1682"/>
</g>
<!-- Node12&#45;&gt;Node4 -->
<g id="edge21" class="edge"><title>Node12&#45;&gt;Node4</title>
<path fill="none" stroke="midnightblue" d="M532.257,-280.619C491.984,-273.945 439.9,-262.561 396.5,-244 355.245,-226.357 343.999,-219.954 312.5,-188 298.687,-173.987 286.932,-154.734 279.402,-140.823"/>
<polygon fill="midnightblue" stroke="midnightblue" points="282.42,-139.041 274.696,-131.788 276.212,-142.274 282.42,-139.041"/>
</g>
<!-- Node12&#45;&gt;Node7 -->
<g id="edge18" class="edge"><title>Node12&#45;&gt;Node7</title>
<path fill="none" stroke="midnightblue" d="M624.287,-280.439C675.151,-262.759 777.477,-219.521 740.5,-168 732.608,-157.004 558.711,-102.794 479.817,-78.6439"/>
<polygon fill="midnightblue" stroke="midnightblue" points="480.375,-75.1547 469.789,-75.5794 478.329,-81.8491 480.375,-75.1547"/>
</g>
<!-- Node12&#45;&gt;Node11 -->
<g id="edge39" class="edge"><title>Node12&#45;&gt;Node11</title>
<path fill="none" stroke="midnightblue" d="M547.904,-280.444C492.501,-270.885 402.857,-255.419 343.795,-245.23"/>
<polygon fill="midnightblue" stroke="midnightblue" points="344.313,-241.768 333.864,-243.516 343.123,-248.666 344.313,-241.768"/>
</g>
<!-- Node13 -->
<g id="node13" class="node"><title>Node13</title>
<polygon fill="white" stroke="#bfbfbf" points="544,-168.5 544,-187.5 607,-187.5 607,-168.5 544,-168.5"/>
<text text-anchor="middle" x="575.5" y="-175.5" font-family="Ubuntu Regular" font-size="10.00">curl/curl.h</text>
</g>
<!-- Node12&#45;&gt;Node13 -->
<g id="edge17" class="edge"><title>Node12&#45;&gt;Node13</title>
<path fill="none" stroke="midnightblue" d="M595.774,-280.368C592.223,-262.617 584.033,-221.666 579.219,-197.597"/>
<polygon fill="midnightblue" stroke="midnightblue" points="582.612,-196.711 577.218,-187.591 575.747,-198.084 582.612,-196.711"/>
</g>
<!-- Node14 -->
<g id="node14" class="node"><title>Node14</title>
<polygon fill="white" stroke="#bfbfbf" points="421.5,-168.5 421.5,-187.5 525.5,-187.5 525.5,-168.5 421.5,-168.5"/>
<text text-anchor="middle" x="473.5" y="-175.5" font-family="Ubuntu Regular" font-size="10.00">binreloc/binreloc.h</text>
</g>
<!-- Node12&#45;&gt;Node14 -->
<g id="edge19" class="edge"><title>Node12&#45;&gt;Node14</title>
<path fill="none" stroke="midnightblue" d="M592.536,-280.136C584.714,-266.747 568.446,-241.114 549.5,-224 535.177,-211.062 516.565,-199.967 501.344,-192.032"/>
<polygon fill="midnightblue" stroke="midnightblue" points="502.88,-188.886 492.374,-187.51 499.729,-195.137 502.88,-188.886"/>
</g>
<!-- Node12&#45;&gt;Node15 -->
<g id="edge22" class="edge"><title>Node12&#45;&gt;Node15</title>
<path fill="none" stroke="midnightblue" d="M662.716,-280.642C697.506,-274.206 740.109,-263.053 774.5,-244 796.712,-231.695 817.027,-210.359 829.556,-195.502"/>
<polygon fill="midnightblue" stroke="midnightblue" points="832.377,-197.581 835.988,-187.62 826.953,-193.155 832.377,-197.581"/>
</g>
<!-- Node19 -->
<g id="node19" class="node"><title>Node19</title>
<g id="a_node19"><a xlink:href="hasher_8hpp.html" target="_top" xlink:title="karazeh/hasher.hpp">
<polygon fill="white" stroke="black" points="625,-168.5 625,-187.5 732,-187.5 732,-168.5 625,-168.5"/>
<text text-anchor="middle" x="678.5" y="-175.5" font-family="Ubuntu Regular" font-size="10.00">karazeh/hasher.hpp</text>
</a>
</g>
</g>
<!-- Node12&#45;&gt;Node19 -->
<g id="edge28" class="edge"><title>Node12&#45;&gt;Node19</title>
<path fill="none" stroke="midnightblue" d="M603.856,-280.368C617.282,-262.135 648.732,-219.426 666.221,-195.675"/>
<polygon fill="midnightblue" stroke="midnightblue" points="669.062,-197.719 672.174,-187.591 663.426,-193.568 669.062,-197.719"/>
</g>
<!-- Node12&#45;&gt;Node20 -->
<g id="edge31" class="edge"><title>Node12&#45;&gt;Node20</title>
<path fill="none" stroke="midnightblue" d="M577.852,-280.444C557.535,-271.596 525.597,-257.687 502.402,-247.586"/>
<polygon fill="midnightblue" stroke="midnightblue" points="503.622,-244.3 493.056,-243.516 500.827,-250.718 503.622,-244.3"/>
</g>
<!-- Node15&#45;&gt;Node2 -->
<g id="edge26" class="edge"><title>Node15&#45;&gt;Node2</title>
<path fill="none" stroke="midnightblue" d="M849.869,-168.467C859.753,-155.929 875.12,-131.863 866.5,-112 849.496,-72.8174 808.974,-41.9032 782.688,-25.0609"/>
<polygon fill="midnightblue" stroke="midnightblue" points="784.388,-21.997 774.045,-19.6999 780.698,-27.9455 784.388,-21.997"/>
</g>
<!-- Node15&#45;&gt;Node4 -->
<g id="edge27" class="edge"><title>Node15&#45;&gt;Node4</title>
<path fill="none" stroke="midnightblue" d="M788.945,-171.944C684.074,-162.044 451.899,-140.125 337.235,-129.3"/>
<polygon fill="midnightblue" stroke="midnightblue" points="337.466,-125.806 327.181,-128.351 336.808,-132.776 337.466,-125.806"/>
</g>
<!-- Node16 -->
<g id="node16" class="node"><title>Node16</title>
<polygon fill="white" stroke="#bfbfbf" points="659,-112.5 659,-131.5 712,-131.5 712,-112.5 659,-112.5"/>
<text text-anchor="middle" x="685.5" y="-119.5" font-family="Ubuntu Regular" font-size="10.00">sstream</text>
</g>
<!-- Node15&#45;&gt;Node16 -->
<g id="edge23" class="edge"><title>Node15&#45;&gt;Node16</title>
<path fill="none" stroke="midnightblue" d="M817.623,-168.444C791.211,-159.359 749.285,-144.939 719.758,-134.783"/>
<polygon fill="midnightblue" stroke="midnightblue" points="720.855,-131.459 710.261,-131.516 718.579,-138.079 720.855,-131.459"/>
</g>
<!-- Node17 -->
<g id="node17" class="node"><title>Node17</title>
<polygon fill="white" stroke="#bfbfbf" points="730,-112.5 730,-131.5 783,-131.5 783,-112.5 730,-112.5"/>
<text text-anchor="middle" x="756.5" y="-119.5" font-family="Ubuntu Regular" font-size="10.00">fstream</text>
</g>
<!-- Node15&#45;&gt;Node17 -->
<g id="edge24" class="edge"><title>Node15&#45;&gt;Node17</title>
<path fill="none" stroke="midnightblue" d="M828.683,-168.324C815.267,-159.9 794.676,-146.971 778.914,-137.074"/>
<polygon fill="midnightblue" stroke="midnightblue" points="780.613,-134.008 770.283,-131.655 776.891,-139.936 780.613,-134.008"/>
</g>
<!-- Node18 -->
<g id="node18" class="node"><title>Node18</title>
<polygon fill="white" stroke="#bfbfbf" points="801,-112.5 801,-131.5 858,-131.5 858,-112.5 801,-112.5"/>
<text text-anchor="middle" x="829.5" y="-119.5" font-family="Ubuntu Regular" font-size="10.00">iostream</text>
</g>
<!-- Node15&#45;&gt;Node18 -->
<g id="edge25" class="edge"><title>Node15&#45;&gt;Node18</title>
<path fill="none" stroke="midnightblue" d="M840.353,-168.083C838.631,-160.927 836.153,-150.635 834,-141.691"/>
<polygon fill="midnightblue" stroke="midnightblue" points="837.35,-140.654 831.607,-131.751 830.545,-142.293 837.35,-140.654"/>
</g>
<!-- Node19&#45;&gt;Node2 -->
<g id="edge29" class="edge"><title>Node19&#45;&gt;Node2</title>
<path fill="none" stroke="midnightblue" d="M669.612,-168.188C658.156,-155.708 640.697,-132.157 649.5,-112 666.678,-72.6628 707.57,-41.795 734.095,-25.0041"/>
<polygon fill="midnightblue" stroke="midnightblue" points="736.117,-27.8699 742.815,-19.6611 732.46,-21.9011 736.117,-27.8699"/>
</g>
<!-- Node19&#45;&gt;Node4 -->
<g id="edge30" class="edge"><title>Node19&#45;&gt;Node4</title>
<path fill="none" stroke="midnightblue" d="M624.89,-169.296C621.713,-168.854 618.565,-168.419 615.5,-168 518.672,-154.769 406.432,-140.288 336.937,-131.422"/>
<polygon fill="midnightblue" stroke="midnightblue" points="337.363,-127.948 327.001,-130.155 336.478,-134.891 337.363,-127.948"/>
</g>
<!-- Node20&#45;&gt;Node2 -->
<g id="edge35" class="edge"><title>Node20&#45;&gt;Node2</title>
<path fill="none" stroke="midnightblue" d="M452.032,-224.375C436.32,-216.986 415.696,-204.854 403.5,-188 368.287,-139.339 334.575,-100.877 374.5,-56 395.717,-32.1519 597.411,-18.8992 699.667,-13.6629"/>
<polygon fill="midnightblue" stroke="midnightblue" points="700.027,-17.1493 709.839,-13.1517 699.676,-10.1582 700.027,-17.1493"/>
</g>
<!-- Node20&#45;&gt;Node4 -->
<g id="edge36" class="edge"><title>Node20&#45;&gt;Node4</title>
<path fill="none" stroke="midnightblue" d="M435.3,-224.452C407.93,-217.287 370.87,-205.403 341.5,-188 319.386,-174.896 298.215,-154.074 284.836,-139.539"/>
<polygon fill="midnightblue" stroke="midnightblue" points="287.193,-136.923 277.912,-131.813 281.98,-141.595 287.193,-136.923"/>
</g>
<!-- Node20&#45;&gt;Node7 -->
<g id="edge33" class="edge"><title>Node20&#45;&gt;Node7</title>
<path fill="none" stroke="midnightblue" d="M453.594,-224.41C439.275,-217.04 421.042,-204.916 412.5,-188 395.213,-153.765 415.851,-108.819 430.126,-84.4837"/>
<polygon fill="midnightblue" stroke="midnightblue" points="433.284,-86.0309 435.548,-75.6808 427.323,-82.3598 433.284,-86.0309"/>
</g>
<!-- Node20&#45;&gt;Node13 -->
<g id="edge32" class="edge"><title>Node20&#45;&gt;Node13</title>
<path fill="none" stroke="midnightblue" d="M489.888,-224.324C506.171,-215.703 531.367,-202.364 550.216,-192.386"/>
<polygon fill="midnightblue" stroke="midnightblue" points="551.952,-195.427 559.153,-187.655 548.677,-189.24 551.952,-195.427"/>
</g>
<!-- Node20&#45;&gt;Node14 -->
<g id="edge34" class="edge"><title>Node20&#45;&gt;Node14</title>
<path fill="none" stroke="midnightblue" d="M473.5,-224.083C473.5,-217.006 473.5,-206.861 473.5,-197.986"/>
<polygon fill="midnightblue" stroke="midnightblue" points="477,-197.751 473.5,-187.751 470,-197.751 477,-197.751"/>
</g>
<!-- Node20&#45;&gt;Node15 -->
<g id="edge37" class="edge"><title>Node20&#45;&gt;Node15</title>
<path fill="none" stroke="midnightblue" d="M531.969,-224.444C599.277,-214.594 709.452,-198.47 778.866,-188.312"/>
<polygon fill="midnightblue" stroke="midnightblue" points="779.414,-191.769 788.802,-186.858 778.4,-184.843 779.414,-191.769"/>
</g>
<!-- Node20&#45;&gt;Node19 -->
<g id="edge38" class="edge"><title>Node20&#45;&gt;Node19</title>
<path fill="none" stroke="midnightblue" d="M505.983,-224.444C541.22,-215.162 597.604,-200.309 636.259,-190.127"/>
<polygon fill="midnightblue" stroke="midnightblue" points="637.391,-193.448 646.169,-187.516 635.607,-186.679 637.391,-193.448"/>
</g>
</g>
</svg>
