<?xml version="1.0" encoding="UTF-8" standalone="no"?>
<!DOCTYPE svg PUBLIC "-//W3C//DTD SVG 1.1//EN"
 "http://www.w3.org/Graphics/SVG/1.1/DTD/svg11.dtd">
<!-- Generated by graphviz version 2.38.0 (20140413.2041)
 -->
<!-- Title: src/operations/create.cpp Pages: 1 -->
<!--zoomable 487 -->
<svg id="main" version="1.1" xmlns="http://www.w3.org/2000/svg" xmlns:xlink="http://www.w3.org/1999/xlink" xml:space="preserve" onload="init(evt)">
<style type="text/css"><![CDATA[
.edge:hover path { stroke: red; }
.edge:hover polygon { stroke: red; fill: red; }
]]></style>
<script type="text/javascript"><![CDATA[
var edges = document.getElementsByTagName('g');
if (edges && edges.length) {
  for (var i=0;i<edges.length;i++) {
    if (edges[i].id.substr(0,4)=='edge') {
      edges[i].setAttribute('class','edge');
    }
  }
}
]]></script>
        <defs>
                <circle id="rim" cx="0" cy="0" r="7"/>
                <circle id="rim2" cx="0" cy="0" r="3.5"/>
                <g id="zoomPlus">
                        <use xlink:href="#rim" fill="#404040">
                                <set attributeName="fill" to="#808080" begin="zoomplus.mouseover" end="zoomplus.mouseout"/>
                        </use>
                        <path d="M-4,0h8M0,-4v8" fill="none" stroke="white" stroke-width="1.5" pointer-events="none"/>
                </g>
                <g id="zoomMin">
                        <use xlink:href="#rim" fill="#404040">
                                <set attributeName="fill" to="#808080" begin="zoomminus.mouseover" end="zoomminus.mouseout"/>
                        </use>
                        <path d="M-4,0h8" fill="none" stroke="white" stroke-width="1.5" pointer-events="none"/>
                </g>
                <g id="dirArrow">
                        <path fill="none" stroke="white" stroke-width="1.5" d="M0,-3.0v7 M-2.5,-0.5L0,-3.0L2.5,-0.5"/>
                </g>
               <g id="resetDef">
                       <use xlink:href="#rim2" fill="#404040">
                               <set attributeName="fill" to="#808080" begin="reset.mouseover" end="reset.mouseout"/>
                       </use>
               </g>
        </defs>

<script type="text/javascript">
var viewWidth = 1246;
var viewHeight = 487;
var sectionId = 'dynsection-0';
</script>
<script xlink:href="svgpan.js"/>
<svg id="graph" class="graph">
<g id="viewport">
<title>src/operations/create.cpp</title>
<polygon fill="white" stroke="none" points="-4,4 -4,-483 1241.5,-483 1241.5,4 -4,4"/>
<!-- Node1 -->
<g id="node1" class="node"><title>Node1</title>
<polygon fill="#bfbfbf" stroke="black" points="673.5,-459.5 673.5,-478.5 810.5,-478.5 810.5,-459.5 673.5,-459.5"/>
<text text-anchor="middle" x="742" y="-466.5" font-family="Ubuntu Regular" font-size="10.00">src/operations/create.cpp</text>
</g>
<!-- Node2 -->
<g id="node2" class="node"><title>Node2</title>
<g id="a_node2"><a xlink:href="create_8hpp.html" target="_top" xlink:title="karazeh/operations\l/create.hpp">
<polygon fill="white" stroke="black" points="245,-392.5 245,-422.5 351,-422.5 351,-392.5 245,-392.5"/>
<text text-anchor="start" x="253" y="-410.5" font-family="Ubuntu Regular" font-size="10.00">karazeh/operations</text>
<text text-anchor="middle" x="298" y="-399.5" font-family="Ubuntu Regular" font-size="10.00">/create.hpp</text>
</a>
</g>
</g>
<!-- Node1&#45;&gt;Node2 -->
<g id="edge1" class="edge"><title>Node1&#45;&gt;Node2</title>
<path fill="none" stroke="midnightblue" d="M678.386,-459.475C593.822,-448.143 445.282,-428.237 361.02,-416.945"/>
<polygon fill="midnightblue" stroke="midnightblue" points="361.447,-413.471 351.071,-415.612 360.518,-420.409 361.447,-413.471"/>
</g>
<!-- Node22 -->
<g id="node22" class="node"><title>Node22</title>
<g id="a_node22"><a xlink:href="release__manifest_8hpp.html" target="_top" xlink:title="karazeh/release_manifest.hpp">
<polygon fill="white" stroke="black" points="887.5,-398 887.5,-417 1042.5,-417 1042.5,-398 887.5,-398"/>
<text text-anchor="middle" x="965" y="-405" font-family="Ubuntu Regular" font-size="10.00">karazeh/release_manifest.hpp</text>
</a>
</g>
</g>
<!-- Node1&#45;&gt;Node22 -->
<g id="edge43" class="edge"><title>Node1&#45;&gt;Node22</title>
<path fill="none" stroke="midnightblue" d="M773.95,-459.475C813.196,-449.004 879.878,-431.212 923.173,-419.66"/>
<polygon fill="midnightblue" stroke="midnightblue" points="924.349,-422.969 933.109,-417.009 922.544,-416.205 924.349,-422.969"/>
</g>
<!-- Node3 -->
<g id="node3" class="node"><title>Node3</title>
<polygon fill="white" stroke="#bfbfbf" points="321.5,-0.5 321.5,-19.5 418.5,-19.5 418.5,-0.5 321.5,-0.5"/>
<text text-anchor="middle" x="370" y="-7.5" font-family="Ubuntu Regular" font-size="10.00">karazeh_export.h</text>
</g>
<!-- Node2&#45;&gt;Node3 -->
<g id="edge2" class="edge"><title>Node2&#45;&gt;Node3</title>
<path fill="none" stroke="midnightblue" d="M244.724,-397.158C159.008,-380.595 0,-342.88 0,-291 0,-291 0,-291 0,-121 0,-74.1454 40.0277,-74.6745 83,-56 157.444,-23.6486 251.717,-14.1888 311.464,-11.6241"/>
<polygon fill="midnightblue" stroke="midnightblue" points="311.616,-15.1209 321.476,-11.2451 311.351,-8.12596 311.616,-15.1209"/>
</g>
<!-- Node4 -->
<g id="node4" class="node"><title>Node4</title>
<g id="a_node4"><a xlink:href="operation_8hpp.html" target="_top" xlink:title="karazeh/operation.hpp">
<polygon fill="white" stroke="black" points="575,-336.5 575,-355.5 697,-355.5 697,-336.5 575,-336.5"/>
<text text-anchor="middle" x="636" y="-343.5" font-family="Ubuntu Regular" font-size="10.00">karazeh/operation.hpp</text>
</a>
</g>
</g>
<!-- Node2&#45;&gt;Node4 -->
<g id="edge3" class="edge"><title>Node2&#45;&gt;Node4</title>
<path fill="none" stroke="midnightblue" d="M351.184,-397.138C412.772,-386.296 513.898,-368.494 577.614,-357.278"/>
<polygon fill="midnightblue" stroke="midnightblue" points="578.266,-360.717 587.508,-355.536 577.052,-353.823 578.266,-360.717"/>
</g>
<!-- Node16 -->
<g id="node16" class="node"><title>Node16</title>
<g id="a_node16"><a xlink:href="logger_8hpp.html" target="_top" xlink:title="karazeh/logger.hpp">
<polygon fill="white" stroke="black" points="189.5,-168.5 189.5,-187.5 296.5,-187.5 296.5,-168.5 189.5,-168.5"/>
<text text-anchor="middle" x="243" y="-175.5" font-family="Ubuntu Regular" font-size="10.00">karazeh/logger.hpp</text>
</a>
</g>
</g>
<!-- Node2&#45;&gt;Node16 -->
<g id="edge42" class="edge"><title>Node2&#45;&gt;Node16</title>
<path fill="none" stroke="midnightblue" d="M294.56,-392.269C285.02,-352.811 258.235,-242.017 247.517,-197.683"/>
<polygon fill="midnightblue" stroke="midnightblue" points="250.91,-196.825 245.158,-187.927 244.106,-198.469 250.91,-196.825"/>
</g>
<!-- Node4&#45;&gt;Node3 -->
<g id="edge4" class="edge"><title>Node4&#45;&gt;Node3</title>
<path fill="none" stroke="midnightblue" d="M574.814,-341.052C422.404,-329.548 38,-289.574 38,-179 38,-179 38,-179 38,-121 38,-64.0988 215.948,-31.555 311.289,-18.2023"/>
<polygon fill="midnightblue" stroke="midnightblue" points="311.938,-21.6461 321.369,-16.8189 310.986,-14.7111 311.938,-21.6461"/>
</g>
<!-- Node5 -->
<g id="node5" class="node"><title>Node5</title>
<g id="a_node5"><a xlink:href="karazeh_8hpp.html" target="_top" xlink:title="karazeh/karazeh.hpp">
<polygon fill="white" stroke="black" points="841.5,-112.5 841.5,-131.5 954.5,-131.5 954.5,-112.5 841.5,-112.5"/>
<text text-anchor="middle" x="898" y="-119.5" font-family="Ubuntu Regular" font-size="10.00">karazeh/karazeh.hpp</text>
</a>
</g>
</g>
<!-- Node4&#45;&gt;Node5 -->
<g id="edge5" class="edge"><title>Node4&#45;&gt;Node5</title>
<path fill="none" stroke="midnightblue" d="M697.056,-341.515C761.423,-334.198 859.885,-311.84 907,-244 928.449,-213.116 915.611,-166.473 905.872,-141.063"/>
<polygon fill="midnightblue" stroke="midnightblue" points="909.02,-139.513 901.997,-131.58 902.54,-142.161 909.02,-139.513"/>
</g>
<!-- Node12 -->
<g id="node12" class="node"><title>Node12</title>
<g id="a_node12"><a xlink:href="config_8hpp.html" target="_top" xlink:title="karazeh/config.hpp">
<polygon fill="white" stroke="black" points="793.5,-224.5 793.5,-243.5 898.5,-243.5 898.5,-224.5 793.5,-224.5"/>
<text text-anchor="middle" x="846" y="-231.5" font-family="Ubuntu Regular" font-size="10.00">karazeh/config.hpp</text>
</a>
</g>
</g>
<!-- Node4&#45;&gt;Node12 -->
<g id="edge14" class="edge"><title>Node4&#45;&gt;Node12</title>
<path fill="none" stroke="midnightblue" d="M652.478,-336.368C688.974,-317.251 776.836,-271.229 820.493,-248.361"/>
<polygon fill="midnightblue" stroke="midnightblue" points="822.364,-251.332 829.598,-243.591 819.116,-245.131 822.364,-251.332"/>
</g>
<!-- Node13 -->
<g id="node13" class="node"><title>Node13</title>
<g id="a_node13"><a xlink:href="downloader_8hpp.html" target="_top" xlink:title="karazeh/downloader.hpp">
<polygon fill="white" stroke="black" points="571,-280.5 571,-299.5 701,-299.5 701,-280.5 571,-280.5"/>
<text text-anchor="middle" x="636" y="-287.5" font-family="Ubuntu Regular" font-size="10.00">karazeh/downloader.hpp</text>
</a>
</g>
</g>
<!-- Node4&#45;&gt;Node13 -->
<g id="edge17" class="edge"><title>Node4&#45;&gt;Node13</title>
<path fill="none" stroke="midnightblue" d="M636,-336.083C636,-329.006 636,-318.861 636,-309.986"/>
<polygon fill="midnightblue" stroke="midnightblue" points="639.5,-309.751 636,-299.751 632.5,-309.751 639.5,-309.751"/>
</g>
<!-- Node21 -->
<g id="node21" class="node"><title>Node21</title>
<g id="a_node21"><a xlink:href="file__manager_8hpp.html" target="_top" xlink:title="karazeh/file_manager.hpp">
<polygon fill="white" stroke="black" points="434.5,-224.5 434.5,-243.5 569.5,-243.5 569.5,-224.5 434.5,-224.5"/>
<text text-anchor="middle" x="502" y="-231.5" font-family="Ubuntu Regular" font-size="10.00">karazeh/file_manager.hpp</text>
</a>
</g>
</g>
<!-- Node4&#45;&gt;Node21 -->
<g id="edge41" class="edge"><title>Node4&#45;&gt;Node21</title>
<path fill="none" stroke="midnightblue" d="M618.955,-336.406C603.359,-328.144 580.036,-314.761 562,-300 544.088,-285.34 526.47,-265.412 515.008,-251.5"/>
<polygon fill="midnightblue" stroke="midnightblue" points="517.727,-249.295 508.72,-243.716 512.282,-253.694 517.727,-249.295"/>
</g>
<!-- Node6 -->
<g id="node6" class="node"><title>Node6</title>
<polygon fill="white" stroke="#bfbfbf" points="1194.5,-0.5 1194.5,-19.5 1237.5,-19.5 1237.5,-0.5 1194.5,-0.5"/>
<text text-anchor="middle" x="1216" y="-7.5" font-family="Ubuntu Regular" font-size="10.00">string</text>
</g>
<!-- Node5&#45;&gt;Node6 -->
<g id="edge6" class="edge"><title>Node5&#45;&gt;Node6</title>
<path fill="none" stroke="midnightblue" d="M954.506,-120.096C1032.41,-117.64 1167.15,-108.647 1202,-76 1214.49,-64.3023 1217.21,-44.361 1217.28,-29.643"/>
<polygon fill="midnightblue" stroke="midnightblue" points="1220.78,-29.5056 1216.95,-19.6293 1213.79,-29.7417 1220.78,-29.5056"/>
</g>
<!-- Node7 -->
<g id="node7" class="node"><title>Node7</title>
<polygon fill="white" stroke="#bfbfbf" points="881,-56.5 881,-75.5 931,-75.5 931,-56.5 881,-56.5"/>
<text text-anchor="middle" x="906" y="-63.5" font-family="Ubuntu Regular" font-size="10.00">cassert</text>
</g>
<!-- Node5&#45;&gt;Node7 -->
<g id="edge7" class="edge"><title>Node5&#45;&gt;Node7</title>
<path fill="none" stroke="midnightblue" d="M899.321,-112.083C900.381,-104.927 901.906,-94.6353 903.231,-85.6911"/>
<polygon fill="midnightblue" stroke="midnightblue" points="906.7,-86.1561 904.704,-75.7511 899.776,-85.1302 906.7,-86.1561"/>
</g>
<!-- Node8 -->
<g id="node8" class="node"><title>Node8</title>
<polygon fill="white" stroke="#bfbfbf" points="747,-56.5 747,-75.5 863,-75.5 863,-56.5 747,-56.5"/>
<text text-anchor="middle" x="805" y="-63.5" font-family="Ubuntu Regular" font-size="10.00">boost/filesystem.hpp</text>
</g>
<!-- Node5&#45;&gt;Node8 -->
<g id="edge8" class="edge"><title>Node5&#45;&gt;Node8</title>
<path fill="none" stroke="midnightblue" d="M883.058,-112.324C868.415,-103.822 845.866,-90.7288 828.762,-80.7975"/>
<polygon fill="midnightblue" stroke="midnightblue" points="830.31,-77.6491 819.905,-75.6545 826.795,-83.7027 830.31,-77.6491"/>
</g>
<!-- Node9 -->
<g id="node9" class="node"><title>Node9</title>
<g id="a_node9"><a xlink:href="exception_8hpp.html" target="_top" xlink:title="karazeh/exception.hpp">
<polygon fill="white" stroke="black" points="1069.5,-56.5 1069.5,-75.5 1192.5,-75.5 1192.5,-56.5 1069.5,-56.5"/>
<text text-anchor="middle" x="1131" y="-63.5" font-family="Ubuntu Regular" font-size="10.00">karazeh/exception.hpp</text>
</a>
</g>
</g>
<!-- Node5&#45;&gt;Node9 -->
<g id="edge9" class="edge"><title>Node5&#45;&gt;Node9</title>
<path fill="none" stroke="midnightblue" d="M934.92,-112.444C975.395,-103.063 1040.42,-87.9926 1084.38,-77.8036"/>
<polygon fill="midnightblue" stroke="midnightblue" points="1085.3,-81.1839 1094.25,-75.5164 1083.72,-74.3646 1085.3,-81.1839"/>
</g>
<!-- Node9&#45;&gt;Node3 -->
<g id="edge13" class="edge"><title>Node9&#45;&gt;Node3</title>
<path fill="none" stroke="midnightblue" d="M1069.23,-57.4111C1064.42,-56.9037 1059.63,-56.426 1055,-56 823.732,-34.7248 547.637,-19.7647 428.964,-13.8331"/>
<polygon fill="midnightblue" stroke="midnightblue" points="428.816,-10.3215 418.655,-13.3207 428.469,-17.3129 428.816,-10.3215"/>
</g>
<!-- Node9&#45;&gt;Node6 -->
<g id="edge11" class="edge"><title>Node9&#45;&gt;Node6</title>
<path fill="none" stroke="midnightblue" d="M1144.66,-56.324C1157.92,-47.9002 1178.27,-34.9709 1193.85,-25.0741"/>
<polygon fill="midnightblue" stroke="midnightblue" points="1195.81,-27.9711 1202.38,-19.6545 1192.06,-22.0626 1195.81,-27.9711"/>
</g>
<!-- Node10 -->
<g id="node10" class="node"><title>Node10</title>
<polygon fill="white" stroke="#bfbfbf" points="1104.5,-0.5 1104.5,-19.5 1167.5,-19.5 1167.5,-0.5 1104.5,-0.5"/>
<text text-anchor="middle" x="1136" y="-7.5" font-family="Ubuntu Regular" font-size="10.00">exception</text>
</g>
<!-- Node9&#45;&gt;Node10 -->
<g id="edge10" class="edge"><title>Node9&#45;&gt;Node10</title>
<path fill="none" stroke="midnightblue" d="M1131.83,-56.083C1132.48,-49.0059 1133.42,-38.8611 1134.24,-29.9865"/>
<polygon fill="midnightblue" stroke="midnightblue" points="1137.75,-30.0312 1135.19,-19.7511 1130.78,-29.3858 1137.75,-30.0312"/>
</g>
<!-- Node11 -->
<g id="node11" class="node"><title>Node11</title>
<polygon fill="white" stroke="#bfbfbf" points="1021.5,-0.5 1021.5,-19.5 1086.5,-19.5 1086.5,-0.5 1021.5,-0.5"/>
<text text-anchor="middle" x="1054" y="-7.5" font-family="Ubuntu Regular" font-size="10.00">stdexcept</text>
</g>
<!-- Node9&#45;&gt;Node11 -->
<g id="edge12" class="edge"><title>Node9&#45;&gt;Node11</title>
<path fill="none" stroke="midnightblue" d="M1118.63,-56.324C1106.84,-48.0577 1088.87,-35.4527 1074.86,-25.6322"/>
<polygon fill="midnightblue" stroke="midnightblue" points="1076.54,-22.5307 1066.34,-19.6545 1072.52,-28.2619 1076.54,-22.5307"/>
</g>
<!-- Node12&#45;&gt;Node3 -->
<g id="edge15" class="edge"><title>Node12&#45;&gt;Node3</title>
<path fill="none" stroke="midnightblue" d="M863.238,-224.419C890.437,-209.783 942.336,-177.138 963,-132 974.804,-106.217 941.686,-57.2293 940,-56 899.397,-26.3996 566.457,-15.4724 429.008,-12.197"/>
<polygon fill="midnightblue" stroke="midnightblue" points="428.751,-8.69015 418.673,-11.9564 428.588,-15.6883 428.751,-8.69015"/>
</g>
<!-- Node12&#45;&gt;Node5 -->
<g id="edge16" class="edge"><title>Node12&#45;&gt;Node5</title>
<path fill="none" stroke="midnightblue" d="M850.08,-224.368C858.548,-206.456 878.182,-164.923 889.515,-140.948"/>
<polygon fill="midnightblue" stroke="midnightblue" points="892.829,-142.128 893.939,-131.591 886.5,-139.136 892.829,-142.128"/>
</g>
<!-- Node13&#45;&gt;Node3 -->
<g id="edge21" class="edge"><title>Node13&#45;&gt;Node3</title>
<path fill="none" stroke="midnightblue" d="M579.887,-280.472C492.048,-265.521 332,-231.128 332,-179 332,-179 332,-179 332,-121 332,-86.8131 348.6,-49.7639 359.857,-28.5707"/>
<polygon fill="midnightblue" stroke="midnightblue" points="362.947,-30.2151 364.716,-19.769 356.819,-26.832 362.947,-30.2151"/>
</g>
<!-- Node13&#45;&gt;Node5 -->
<g id="edge22" class="edge"><title>Node13&#45;&gt;Node5</title>
<path fill="none" stroke="midnightblue" d="M659.059,-280.443C680.694,-272.108 713.717,-258.589 741,-244 781.222,-222.492 790.946,-215.938 827,-188 846.877,-172.597 867.916,-152.845 881.885,-139.178"/>
<polygon fill="midnightblue" stroke="midnightblue" points="884.581,-141.434 889.23,-131.913 879.659,-136.457 884.581,-141.434"/>
</g>
<!-- Node13&#45;&gt;Node8 -->
<g id="edge19" class="edge"><title>Node13&#45;&gt;Node8</title>
<path fill="none" stroke="midnightblue" d="M649.798,-280.404C687.879,-256.653 791.79,-191.634 794,-188 813.293,-156.272 811.254,-110.963 808.098,-85.7541"/>
<polygon fill="midnightblue" stroke="midnightblue" points="811.54,-85.1015 806.642,-75.7069 804.612,-86.1055 811.54,-85.1015"/>
</g>
<!-- Node13&#45;&gt;Node12 -->
<g id="edge40" class="edge"><title>Node13&#45;&gt;Node12</title>
<path fill="none" stroke="midnightblue" d="M669.275,-280.444C705.448,-271.142 763.377,-256.246 802.981,-246.062"/>
<polygon fill="midnightblue" stroke="midnightblue" points="804.067,-249.397 812.881,-243.516 802.324,-242.617 804.067,-249.397"/>
</g>
<!-- Node14 -->
<g id="node14" class="node"><title>Node14</title>
<polygon fill="white" stroke="#bfbfbf" points="599.5,-168.5 599.5,-187.5 662.5,-187.5 662.5,-168.5 599.5,-168.5"/>
<text text-anchor="middle" x="631" y="-175.5" font-family="Ubuntu Regular" font-size="10.00">curl/curl.h</text>
</g>
<!-- Node13&#45;&gt;Node14 -->
<g id="edge18" class="edge"><title>Node13&#45;&gt;Node14</title>
<path fill="none" stroke="midnightblue" d="M635.608,-280.368C634.801,-262.617 632.939,-221.666 631.845,-197.597"/>
<polygon fill="midnightblue" stroke="midnightblue" points="635.341,-197.422 631.391,-187.591 628.348,-197.74 635.341,-197.422"/>
</g>
<!-- Node15 -->
<g id="node15" class="node"><title>Node15</title>
<polygon fill="white" stroke="#bfbfbf" points="681,-168.5 681,-187.5 785,-187.5 785,-168.5 681,-168.5"/>
<text text-anchor="middle" x="733" y="-175.5" font-family="Ubuntu Regular" font-size="10.00">binreloc/binreloc.h</text>
</g>
<!-- Node13&#45;&gt;Node15 -->
<g id="edge20" class="edge"><title>Node13&#45;&gt;Node15</title>
<path fill="none" stroke="midnightblue" d="M643.611,-280.368C659.761,-262.055 697.684,-219.049 718.571,-195.362"/>
<polygon fill="midnightblue" stroke="midnightblue" points="721.435,-197.407 725.424,-187.591 716.185,-192.777 721.435,-197.407"/>
</g>
<!-- Node13&#45;&gt;Node16 -->
<g id="edge23" class="edge"><title>Node13&#45;&gt;Node16</title>
<path fill="none" stroke="midnightblue" d="M570.89,-284.151C491.312,-277.473 361.83,-263.96 318,-244 293.391,-232.793 270.768,-210.899 256.945,-195.632"/>
<polygon fill="midnightblue" stroke="midnightblue" points="259.434,-193.162 250.214,-187.943 254.167,-197.772 259.434,-193.162"/>
</g>
<!-- Node20 -->
<g id="node20" class="node"><title>Node20</title>
<g id="a_node20"><a xlink:href="hasher_8hpp.html" target="_top" xlink:title="karazeh/hasher.hpp">
<polygon fill="white" stroke="black" points="474.5,-168.5 474.5,-187.5 581.5,-187.5 581.5,-168.5 474.5,-168.5"/>
<text text-anchor="middle" x="528" y="-175.5" font-family="Ubuntu Regular" font-size="10.00">karazeh/hasher.hpp</text>
</a>
</g>
</g>
<!-- Node13&#45;&gt;Node20 -->
<g id="edge29" class="edge"><title>Node13&#45;&gt;Node20</title>
<path fill="none" stroke="midnightblue" d="M628.779,-280.316C618.08,-267.589 597.209,-243.291 578,-224 567.803,-213.759 555.78,-202.904 546.08,-194.421"/>
<polygon fill="midnightblue" stroke="midnightblue" points="548.11,-191.549 538.258,-187.652 543.53,-196.842 548.11,-191.549"/>
</g>
<!-- Node13&#45;&gt;Node21 -->
<g id="edge32" class="edge"><title>Node13&#45;&gt;Node21</title>
<path fill="none" stroke="midnightblue" d="M614.767,-280.444C592.616,-271.517 557.681,-257.439 532.564,-247.317"/>
<polygon fill="midnightblue" stroke="midnightblue" points="533.717,-244.008 523.133,-243.516 531.1,-250.501 533.717,-244.008"/>
</g>
<!-- Node16&#45;&gt;Node3 -->
<g id="edge27" class="edge"><title>Node16&#45;&gt;Node3</title>
<path fill="none" stroke="midnightblue" d="M249.385,-168.174C255.805,-159.199 265.886,-144.828 274,-132 294.865,-99.0149 293.122,-86.0741 318,-56 327.274,-44.7884 339.504,-34.0528 349.773,-25.881"/>
<polygon fill="midnightblue" stroke="midnightblue" points="352.05,-28.545 357.829,-19.6656 347.774,-23.0026 352.05,-28.545"/>
</g>
<!-- Node16&#45;&gt;Node5 -->
<g id="edge28" class="edge"><title>Node16&#45;&gt;Node5</title>
<path fill="none" stroke="midnightblue" d="M296.601,-172.581C415.444,-162.783 700.811,-139.257 831.095,-128.516"/>
<polygon fill="midnightblue" stroke="midnightblue" points="831.654,-131.982 841.333,-127.672 831.079,-125.005 831.654,-131.982"/>
</g>
<!-- Node17 -->
<g id="node17" class="node"><title>Node17</title>
<polygon fill="white" stroke="#bfbfbf" points="66.5,-112.5 66.5,-131.5 119.5,-131.5 119.5,-112.5 66.5,-112.5"/>
<text text-anchor="middle" x="93" y="-119.5" font-family="Ubuntu Regular" font-size="10.00">sstream</text>
</g>
<!-- Node16&#45;&gt;Node17 -->
<g id="edge24" class="edge"><title>Node16&#45;&gt;Node17</title>
<path fill="none" stroke="midnightblue" d="M219.232,-168.444C194.107,-159.399 154.289,-145.064 126.1,-134.916"/>
<polygon fill="midnightblue" stroke="midnightblue" points="127.251,-131.611 116.657,-131.516 124.88,-138.197 127.251,-131.611"/>
</g>
<!-- Node18 -->
<g id="node18" class="node"><title>Node18</title>
<polygon fill="white" stroke="#bfbfbf" points="137.5,-112.5 137.5,-131.5 190.5,-131.5 190.5,-112.5 137.5,-112.5"/>
<text text-anchor="middle" x="164" y="-119.5" font-family="Ubuntu Regular" font-size="10.00">fstream</text>
</g>
<!-- Node16&#45;&gt;Node18 -->
<g id="edge25" class="edge"><title>Node16&#45;&gt;Node18</title>
<path fill="none" stroke="midnightblue" d="M230.307,-168.324C218.099,-159.979 199.422,-147.212 184.997,-137.352"/>
<polygon fill="midnightblue" stroke="midnightblue" points="186.892,-134.408 176.661,-131.655 182.942,-140.187 186.892,-134.408"/>
</g>
<!-- Node19 -->
<g id="node19" class="node"><title>Node19</title>
<polygon fill="white" stroke="#bfbfbf" points="208.5,-112.5 208.5,-131.5 265.5,-131.5 265.5,-112.5 208.5,-112.5"/>
<text text-anchor="middle" x="237" y="-119.5" font-family="Ubuntu Regular" font-size="10.00">iostream</text>
</g>
<!-- Node16&#45;&gt;Node19 -->
<g id="edge26" class="edge"><title>Node16&#45;&gt;Node19</title>
<path fill="none" stroke="midnightblue" d="M242.009,-168.083C241.214,-160.927 240.071,-150.635 239.077,-141.691"/>
<polygon fill="midnightblue" stroke="midnightblue" points="242.555,-141.303 237.972,-131.751 235.598,-142.076 242.555,-141.303"/>
</g>
<!-- Node20&#45;&gt;Node3 -->
<g id="edge30" class="edge"><title>Node20&#45;&gt;Node3</title>
<path fill="none" stroke="midnightblue" d="M519.505,-168.075C493.989,-141.267 417.771,-61.1902 385.12,-26.8851"/>
<polygon fill="midnightblue" stroke="midnightblue" points="387.585,-24.3986 378.155,-19.5681 382.514,-29.2246 387.585,-24.3986"/>
</g>
<!-- Node20&#45;&gt;Node5 -->
<g id="edge31" class="edge"><title>Node20&#45;&gt;Node5</title>
<path fill="none" stroke="midnightblue" d="M581.801,-169.148C647.803,-159.515 759.706,-143.183 831.162,-132.755"/>
<polygon fill="midnightblue" stroke="midnightblue" points="832.012,-136.168 841.401,-131.26 831.001,-129.241 832.012,-136.168"/>
</g>
<!-- Node21&#45;&gt;Node3 -->
<g id="edge36" class="edge"><title>Node21&#45;&gt;Node3</title>
<path fill="none" stroke="midnightblue" d="M488.774,-224.345C477.065,-216.136 460.151,-202.873 449,-188 410.552,-136.717 385.585,-63.7645 375.322,-29.7756"/>
<polygon fill="midnightblue" stroke="midnightblue" points="378.578,-28.4421 372.406,-19.8303 371.861,-30.4111 378.578,-28.4421"/>
</g>
<!-- Node21&#45;&gt;Node5 -->
<g id="edge37" class="edge"><title>Node21&#45;&gt;Node5</title>
<path fill="none" stroke="midnightblue" d="M490.809,-224.464C474.833,-211.281 449.09,-185.65 465,-168 489.039,-141.333 715.945,-129.461 831.319,-125.113"/>
<polygon fill="midnightblue" stroke="midnightblue" points="831.588,-128.605 841.452,-124.739 831.33,-121.61 831.588,-128.605"/>
</g>
<!-- Node21&#45;&gt;Node8 -->
<g id="edge34" class="edge"><title>Node21&#45;&gt;Node8</title>
<path fill="none" stroke="midnightblue" d="M488.534,-224.438C470.438,-211.864 442.164,-187.754 457,-168 490.592,-123.272 645.443,-91.9478 736.875,-76.9887"/>
<polygon fill="midnightblue" stroke="midnightblue" points="737.565,-80.4227 746.881,-75.3755 736.451,-73.5119 737.565,-80.4227"/>
</g>
<!-- Node21&#45;&gt;Node14 -->
<g id="edge33" class="edge"><title>Node21&#45;&gt;Node14</title>
<path fill="none" stroke="midnightblue" d="M522.44,-224.444C543.67,-215.557 577.099,-201.563 601.255,-191.451"/>
<polygon fill="midnightblue" stroke="midnightblue" points="602.782,-194.606 610.655,-187.516 600.079,-188.149 602.782,-194.606"/>
</g>
<!-- Node21&#45;&gt;Node15 -->
<g id="edge35" class="edge"><title>Node21&#45;&gt;Node15</title>
<path fill="none" stroke="midnightblue" d="M538.603,-224.444C578.731,-215.063 643.198,-199.993 686.785,-189.804"/>
<polygon fill="midnightblue" stroke="midnightblue" points="687.628,-193.201 696.569,-187.516 686.034,-186.385 687.628,-193.201"/>
</g>
<!-- Node21&#45;&gt;Node16 -->
<g id="edge38" class="edge"><title>Node21&#45;&gt;Node16</title>
<path fill="none" stroke="midnightblue" d="M460.961,-224.444C415.684,-215.004 342.773,-199.802 293.894,-189.611"/>
<polygon fill="midnightblue" stroke="midnightblue" points="294.351,-186.131 283.847,-187.516 292.922,-192.984 294.351,-186.131"/>
</g>
<!-- Node21&#45;&gt;Node20 -->
<g id="edge39" class="edge"><title>Node21&#45;&gt;Node20</title>
<path fill="none" stroke="midnightblue" d="M506.293,-224.083C509.852,-216.691 515.022,-205.953 519.424,-196.811"/>
<polygon fill="midnightblue" stroke="midnightblue" points="522.602,-198.279 523.787,-187.751 516.295,-195.243 522.602,-198.279"/>
</g>
<!-- Node22&#45;&gt;Node3 -->
<g id="edge45" class="edge"><title>Node22&#45;&gt;Node3</title>
<path fill="none" stroke="midnightblue" d="M975.889,-397.925C996.904,-380.321 1041,-337.807 1041,-291 1041,-291 1041,-291 1041,-121 1041,-75.1877 1003.56,-72.9568 961,-56 865.485,-17.9433 558.957,-11.8807 429.061,-11.0522"/>
<polygon fill="midnightblue" stroke="midnightblue" points="428.923,-7.55153 418.904,-10.9959 428.884,-14.5514 428.923,-7.55153"/>
</g>
<!-- Node22&#45;&gt;Node4 -->
<g id="edge47" class="edge"><title>Node22&#45;&gt;Node4</title>
<path fill="none" stroke="midnightblue" d="M917.862,-397.975C858.495,-387.239 756.576,-368.806 692.925,-357.295"/>
<polygon fill="midnightblue" stroke="midnightblue" points="693.514,-353.845 683.05,-355.509 692.268,-360.733 693.514,-353.845"/>
</g>
<!-- Node22&#45;&gt;Node5 -->
<g id="edge46" class="edge"><title>Node22&#45;&gt;Node5</title>
<path fill="none" stroke="midnightblue" d="M965,-397.807C965,-378.562 965,-330.904 965,-291 965,-291 965,-291 965,-233 965,-194.704 935.013,-158.416 915.162,-138.589"/>
<polygon fill="midnightblue" stroke="midnightblue" points="917.522,-136.003 907.886,-131.598 912.671,-141.05 917.522,-136.003"/>
</g>
<!-- Node23 -->
<g id="node23" class="node"><title>Node23</title>
<polygon fill="white" stroke="#bfbfbf" points="1069.5,-336.5 1069.5,-355.5 1116.5,-355.5 1116.5,-336.5 1069.5,-336.5"/>
<text text-anchor="middle" x="1093" y="-343.5" font-family="Ubuntu Regular" font-size="10.00">vector</text>
</g>
<!-- Node22&#45;&gt;Node23 -->
<g id="edge44" class="edge"><title>Node22&#45;&gt;Node23</title>
<path fill="none" stroke="midnightblue" d="M983.339,-397.975C1004.82,-387.99 1040.62,-371.348 1065.45,-359.807"/>
<polygon fill="midnightblue" stroke="midnightblue" points="1067.1,-362.898 1074.69,-355.509 1064.15,-356.551 1067.1,-362.898"/>
</g>
</g>
</svg>
        <g id="navigator" transform="translate(0 0)" fill="#404254">
                <rect fill="#f2f5e9" fill-opacity="0.5" stroke="#606060" stroke-width=".5" x="0" y="0" width="60" height="60"/>
                <use id="zoomplus" xlink:href="#zoomPlus" x="17" y="9" onmousedown="handleZoom(evt,'in')"/>
                <use id="zoomminus" xlink:href="#zoomMin" x="42" y="9" onmousedown="handleZoom(evt,'out')"/>
                <use id="reset" xlink:href="#resetDef" x="30" y="36" onmousedown="handleReset()"/>
                <g id="arrowUp" xlink:href="#dirArrow" transform="translate(30 24)" onmousedown="handlePan(0,-1)">
                  <use xlink:href="#rim" fill="#404040">
                        <set attributeName="fill" to="#808080" begin="arrowUp.mouseover" end="arrowUp.mouseout"/>
                  </use>
                  <path fill="none" stroke="white" stroke-width="1.5" d="M0,-3.0v7 M-2.5,-0.5L0,-3.0L2.5,-0.5"/>
                </g>
                <g id="arrowRight" xlink:href="#dirArrow" transform="rotate(90) translate(36 -43)" onmousedown="handlePan(1,0)">
                  <use xlink:href="#rim" fill="#404040">
                        <set attributeName="fill" to="#808080" begin="arrowRight.mouseover" end="arrowRight.mouseout"/>
                  </use>
                  <path fill="none" stroke="white" stroke-width="1.5" d="M0,-3.0v7 M-2.5,-0.5L0,-3.0L2.5,-0.5"/>
                </g>
                <g id="arrowDown" xlink:href="#dirArrow" transform="rotate(180) translate(-30 -48)" onmousedown="handlePan(0,1)">
                  <use xlink:href="#rim" fill="#404040">
                        <set attributeName="fill" to="#808080" begin="arrowDown.mouseover" end="arrowDown.mouseout"/>
                  </use>
                  <path fill="none" stroke="white" stroke-width="1.5" d="M0,-3.0v7 M-2.5,-0.5L0,-3.0L2.5,-0.5"/>
                </g>
                <g id="arrowLeft" xlink:href="#dirArrow" transform="rotate(270) translate(-36 17)" onmousedown="handlePan(-1,0)">
                  <use xlink:href="#rim" fill="#404040">
                        <set attributeName="fill" to="#808080" begin="arrowLeft.mouseover" end="arrowLeft.mouseout"/>
                  </use>
                  <path fill="none" stroke="white" stroke-width="1.5" d="M0,-3.0v7 M-2.5,-0.5L0,-3.0L2.5,-0.5"/>
                </g>
        </g>
        <svg viewBox="0 0 15 15" width="100%" height="30px" preserveAspectRatio="xMaxYMin meet">
         <g id="arrow_out" transform="scale(0.3 0.3)">
          <a xlink:href="create_8cpp__incl_org.svg" target="_base">
           <rect id="button" ry="5" rx="5" y="6" x="6" height="38" width="38"
                fill="#f2f5e9" fill-opacity="0.5" stroke="#606060" stroke-width="1.0"/>
           <path id="arrow"
             d="M 11.500037,31.436501 C 11.940474,20.09759 22.043105,11.32322 32.158766,21.979434 L 37.068811,17.246167 C 37.068811,17.246167 37.088388,32 37.088388,32 L 22.160133,31.978069 C 22.160133,31.978069 26.997745,27.140456 26.997745,27.140456 C 18.528582,18.264221 13.291696,25.230495 11.500037,31.436501 z"
             style="fill:#404040;"/>
          </a>
         </g>
        </svg>
</svg>
