<?xml version="1.0" encoding="UTF-8" standalone="no"?>
<!DOCTYPE svg PUBLIC "-//W3C//DTD SVG 1.1//EN"
 "http://www.w3.org/Graphics/SVG/1.1/DTD/svg11.dtd">
<!-- Generated by graphviz version 2.38.0 (20140413.2041)
 -->
<!-- Title: include/karazeh/operations/delete.hpp Pages: 1 -->
<svg width="459pt" height="173pt"
 viewBox="0.00 0.00 458.50 173.00" xmlns="http://www.w3.org/2000/svg" xmlns:xlink="http://www.w3.org/1999/xlink">
<g id="graph0" class="graph" transform="scale(1 1) rotate(0) translate(4 169)">
<title>include/karazeh/operations/delete.hpp</title>
<polygon fill="white" stroke="none" points="-4,4 -4,-169 454.5,-169 454.5,4 -4,4"/>
<!-- Node1 -->
<g id="node1" class="node"><title>Node1</title>
<polygon fill="#bfbfbf" stroke="black" points="235,-134.5 235,-164.5 378,-164.5 378,-134.5 235,-134.5"/>
<text text-anchor="start" x="243" y="-152.5" font-family="Ubuntu Regular" font-size="10.00">include/karazeh/operations</text>
<text text-anchor="middle" x="306.5" y="-141.5" font-family="Ubuntu Regular" font-size="10.00">/delete.hpp</text>
</g>
<!-- Node2 -->
<g id="node2" class="node"><title>Node2</title>
<g id="a_node2"><a xlink:href="version__manifest_8hpp.html" target="_top" xlink:title="include/karazeh/version\l_manifest.hpp">
<polygon fill="white" stroke="black" points="168.5,-67.5 168.5,-97.5 294.5,-97.5 294.5,-67.5 168.5,-67.5"/>
<text text-anchor="start" x="176.5" y="-85.5" font-family="Ubuntu Regular" font-size="10.00">include/karazeh/version</text>
<text text-anchor="middle" x="231.5" y="-74.5" font-family="Ubuntu Regular" font-size="10.00">_manifest.hpp</text>
</a>
</g>
</g>
<!-- Node1&#45;&gt;Node2 -->
<g id="edge1" class="edge"><title>Node1&#45;&gt;Node2</title>
<path fill="none" stroke="midnightblue" d="M282.382,-127.598C271.057,-117.783 257.859,-106.344 247.742,-97.5765"/>
<polygon fill="midnightblue" stroke="midnightblue" points="280.377,-130.492 290.226,-134.396 284.961,-125.202 280.377,-130.492"/>
</g>
<!-- Node6 -->
<g id="node6" class="node"><title>Node6</title>
<g id="a_node6"><a xlink:href="delete_8cpp.html" target="_top" xlink:title="src/operations/delete.cpp">
<polygon fill="white" stroke="black" points="312.5,-73 312.5,-92 450.5,-92 450.5,-73 312.5,-73"/>
<text text-anchor="middle" x="381.5" y="-80" font-family="Ubuntu Regular" font-size="10.00">src/operations/delete.cpp</text>
</a>
</g>
</g>
<!-- Node1&#45;&gt;Node6 -->
<g id="edge5" class="edge"><title>Node1&#45;&gt;Node6</title>
<path fill="none" stroke="midnightblue" d="M330.532,-127.672C344.38,-115.671 361.054,-101.22 371.468,-92.1945"/>
<polygon fill="midnightblue" stroke="midnightblue" points="328.039,-125.202 322.774,-134.396 332.623,-130.492 328.039,-125.202"/>
</g>
<!-- Node3 -->
<g id="node3" class="node"><title>Node3</title>
<g id="a_node3"><a xlink:href="patcher_8test_8cpp.html" target="_top" xlink:title="src/__tests__/patcher.test.cpp">
<polygon fill="white" stroke="black" points="0,-6 0,-25 157,-25 157,-6 0,-6"/>
<text text-anchor="middle" x="78.5" y="-13" font-family="Ubuntu Regular" font-size="10.00">src/__tests__/patcher.test.cpp</text>
</a>
</g>
</g>
<!-- Node2&#45;&gt;Node3 -->
<g id="edge2" class="edge"><title>Node2&#45;&gt;Node3</title>
<path fill="none" stroke="midnightblue" d="M189.033,-63.4585C159.473,-50.9001 121.397,-34.724 98.5242,-25.007"/>
<polygon fill="midnightblue" stroke="midnightblue" points="187.729,-66.7071 198.301,-67.396 190.466,-60.2644 187.729,-66.7071"/>
</g>
<!-- Node4 -->
<g id="node4" class="node"><title>Node4</title>
<g id="a_node4"><a xlink:href="version__manifest_8test_8cpp.html" target="_top" xlink:title="src/__tests__/version\l_manifest.test.cpp">
<polygon fill="white" stroke="black" points="175,-0.5 175,-30.5 288,-30.5 288,-0.5 175,-0.5"/>
<text text-anchor="start" x="183" y="-18.5" font-family="Ubuntu Regular" font-size="10.00">src/__tests__/version</text>
<text text-anchor="middle" x="231.5" y="-7.5" font-family="Ubuntu Regular" font-size="10.00">_manifest.test.cpp</text>
</a>
</g>
</g>
<!-- Node2&#45;&gt;Node4 -->
<g id="edge3" class="edge"><title>Node2&#45;&gt;Node4</title>
<path fill="none" stroke="midnightblue" d="M231.5,-57.1081C231.5,-48.1539 231.5,-38.3227 231.5,-30.5765"/>
<polygon fill="midnightblue" stroke="midnightblue" points="228,-57.3959 231.5,-67.396 235,-57.396 228,-57.3959"/>
</g>
<!-- Node5 -->
<g id="node5" class="node"><title>Node5</title>
<g id="a_node5"><a xlink:href="version__manifest_8cpp.html" target="_top" xlink:title="src/version_manifest.cpp">
<polygon fill="white" stroke="black" points="306,-6 306,-25 437,-25 437,-6 306,-6"/>
<text text-anchor="middle" x="371.5" y="-13" font-family="Ubuntu Regular" font-size="10.00">src/version_manifest.cpp</text>
</a>
</g>
</g>
<!-- Node2&#45;&gt;Node5 -->
<g id="edge4" class="edge"><title>Node2&#45;&gt;Node5</title>
<path fill="none" stroke="midnightblue" d="M271.063,-63.1315C298.01,-50.6205 332.429,-34.6399 353.177,-25.007"/>
<polygon fill="midnightblue" stroke="midnightblue" points="269.474,-60.0103 261.878,-67.396 272.422,-66.3593 269.474,-60.0103"/>
</g>
</g>
</svg>
