<?xml version="1.0" encoding="UTF-8" standalone="no"?>
<!DOCTYPE svg PUBLIC "-//W3C//DTD SVG 1.1//EN"
 "http://www.w3.org/Graphics/SVG/1.1/DTD/svg11.dtd">
<!-- Generated by graphviz version 2.38.0 (20140413.2041)
 -->
<!-- Title: src/delta_encoder.cpp Pages: 1 -->
<!--zoomable 375 -->
<svg id="main" version="1.1" xmlns="http://www.w3.org/2000/svg" xmlns:xlink="http://www.w3.org/1999/xlink" xml:space="preserve" onload="init(evt)">
<style type="text/css"><![CDATA[
.edge:hover path { stroke: red; }
.edge:hover polygon { stroke: red; fill: red; }
]]></style>
<script type="text/javascript"><![CDATA[
var edges = document.getElementsByTagName('g');
if (edges && edges.length) {
  for (var i=0;i<edges.length;i++) {
    if (edges[i].id.substr(0,4)=='edge') {
      edges[i].setAttribute('class','edge');
    }
  }
}
]]></script>
        <defs>
                <circle id="rim" cx="0" cy="0" r="7"/>
                <circle id="rim2" cx="0" cy="0" r="3.5"/>
                <g id="zoomPlus">
                        <use xlink:href="#rim" fill="#404040">
                                <set attributeName="fill" to="#808080" begin="zoomplus.mouseover" end="zoomplus.mouseout"/>
                        </use>
                        <path d="M-4,0h8M0,-4v8" fill="none" stroke="white" stroke-width="1.5" pointer-events="none"/>
                </g>
                <g id="zoomMin">
                        <use xlink:href="#rim" fill="#404040">
                                <set attributeName="fill" to="#808080" begin="zoomminus.mouseover" end="zoomminus.mouseout"/>
                        </use>
                        <path d="M-4,0h8" fill="none" stroke="white" stroke-width="1.5" pointer-events="none"/>
                </g>
                <g id="dirArrow">
                        <path fill="none" stroke="white" stroke-width="1.5" d="M0,-3.0v7 M-2.5,-0.5L0,-3.0L2.5,-0.5"/>
                </g>
               <g id="resetDef">
                       <use xlink:href="#rim2" fill="#404040">
                               <set attributeName="fill" to="#808080" begin="reset.mouseover" end="reset.mouseout"/>
                       </use>
               </g>
        </defs>

<script type="text/javascript">
var viewWidth = 1014;
var viewHeight = 375;
var sectionId = 'dynsection-0';
</script>
<script xlink:href="svgpan.js"/>
<svg id="graph" class="graph">
<g id="viewport">
<title>src/delta_encoder.cpp</title>
<polygon fill="white" stroke="none" points="-4,4 -4,-371 1010,-371 1010,4 -4,4"/>
<!-- Node1 -->
<g id="node1" class="node"><title>Node1</title>
<polygon fill="#bfbfbf" stroke="black" points="565.5,-347.5 565.5,-366.5 685.5,-366.5 685.5,-347.5 565.5,-347.5"/>
<text text-anchor="middle" x="625.5" y="-354.5" font-family="Ubuntu Regular" font-size="10.00">src/delta_encoder.cpp</text>
</g>
<!-- Node2 -->
<g id="node2" class="node"><title>Node2</title>
<g id="a_node2"><a xlink:href="delta__encoder_8hpp.html" target="_top" xlink:title="karazeh/delta_encoder.hpp">
<polygon fill="white" stroke="black" points="554,-291.5 554,-310.5 697,-310.5 697,-291.5 554,-291.5"/>
<text text-anchor="middle" x="625.5" y="-298.5" font-family="Ubuntu Regular" font-size="10.00">karazeh/delta_encoder.hpp</text>
</a>
</g>
</g>
<!-- Node1&#45;&gt;Node2 -->
<g id="edge1" class="edge"><title>Node1&#45;&gt;Node2</title>
<path fill="none" stroke="midnightblue" d="M625.5,-347.083C625.5,-340.006 625.5,-329.861 625.5,-320.986"/>
<polygon fill="midnightblue" stroke="midnightblue" points="629,-320.751 625.5,-310.751 622,-320.751 629,-320.751"/>
</g>
<!-- Node3 -->
<g id="node3" class="node"><title>Node3</title>
<polygon fill="white" stroke="#bfbfbf" points="605,-0.5 605,-19.5 702,-19.5 702,-0.5 605,-0.5"/>
<text text-anchor="middle" x="653.5" y="-7.5" font-family="Ubuntu Regular" font-size="10.00">karazeh_export.h</text>
</g>
<!-- Node2&#45;&gt;Node3 -->
<g id="edge2" class="edge"><title>Node2&#45;&gt;Node3</title>
<path fill="none" stroke="midnightblue" d="M653.338,-291.409C696.21,-276.247 773.5,-240.399 773.5,-179 773.5,-179 773.5,-179 773.5,-121 773.5,-73.0796 720.857,-40.3821 685.306,-23.7644"/>
<polygon fill="midnightblue" stroke="midnightblue" points="686.347,-20.3959 675.79,-19.5045 683.487,-26.7849 686.347,-20.3959"/>
</g>
<!-- Node4 -->
<g id="node4" class="node"><title>Node4</title>
<g id="a_node4"><a xlink:href="karazeh_8hpp.html" target="_top" xlink:title="karazeh/karazeh.hpp">
<polygon fill="white" stroke="black" points="256,-112.5 256,-131.5 369,-131.5 369,-112.5 256,-112.5"/>
<text text-anchor="middle" x="312.5" y="-119.5" font-family="Ubuntu Regular" font-size="10.00">karazeh/karazeh.hpp</text>
</a>
</g>
</g>
<!-- Node2&#45;&gt;Node4 -->
<g id="edge3" class="edge"><title>Node2&#45;&gt;Node4</title>
<path fill="none" stroke="midnightblue" d="M553.866,-296.12C508.059,-291.171 448.62,-280.02 401.5,-255 364.027,-235.103 355.772,-224.112 333.5,-188 324.648,-173.648 319.151,-155.187 316.013,-141.609"/>
<polygon fill="midnightblue" stroke="midnightblue" points="319.382,-140.621 313.91,-131.549 312.53,-142.053 319.382,-140.621"/>
</g>
<!-- Node11 -->
<g id="node11" class="node"><title>Node11</title>
<g id="a_node11"><a xlink:href="logger_8hpp.html" target="_top" xlink:title="karazeh/logger.hpp">
<polygon fill="white" stroke="black" points="156,-168.5 156,-187.5 263,-187.5 263,-168.5 156,-168.5"/>
<text text-anchor="middle" x="209.5" y="-175.5" font-family="Ubuntu Regular" font-size="10.00">karazeh/logger.hpp</text>
</a>
</g>
</g>
<!-- Node2&#45;&gt;Node11 -->
<g id="edge12" class="edge"><title>Node2&#45;&gt;Node11</title>
<path fill="none" stroke="midnightblue" d="M553.801,-296.598C466.246,-291.439 324.057,-279.52 277.5,-255 252.122,-241.635 231.633,-214.75 220.007,-196.809"/>
<polygon fill="midnightblue" stroke="midnightblue" points="222.73,-194.559 214.486,-187.905 216.781,-198.248 222.73,-194.559"/>
</g>
<!-- Node15 -->
<g id="node15" class="node"><title>Node15</title>
<g id="a_node15"><a xlink:href="file__manager_8hpp.html" target="_top" xlink:title="karazeh/file_manager.hpp">
<polygon fill="white" stroke="black" points="411,-230 411,-249 546,-249 546,-230 411,-230"/>
<text text-anchor="middle" x="478.5" y="-237" font-family="Ubuntu Regular" font-size="10.00">karazeh/file_manager.hpp</text>
</a>
</g>
</g>
<!-- Node2&#45;&gt;Node15 -->
<g id="edge18" class="edge"><title>Node2&#45;&gt;Node15</title>
<path fill="none" stroke="midnightblue" d="M604.438,-291.475C579.441,-281.357 537.558,-264.405 509.013,-252.851"/>
<polygon fill="midnightblue" stroke="midnightblue" points="510.105,-249.517 499.522,-249.009 507.479,-256.005 510.105,-249.517"/>
</g>
<!-- Node19 -->
<g id="node19" class="node"><title>Node19</title>
<polygon fill="white" stroke="#bfbfbf" points="802,-224.5 802,-254.5 895,-254.5 895,-224.5 802,-224.5"/>
<text text-anchor="start" x="810" y="-242.5" font-family="Ubuntu Regular" font-size="10.00">librsync&#45;2.0.0/src</text>
<text text-anchor="middle" x="848.5" y="-231.5" font-family="Ubuntu Regular" font-size="10.00">/librsync.h</text>
</g>
<!-- Node2&#45;&gt;Node19 -->
<g id="edge28" class="edge"><title>Node2&#45;&gt;Node19</title>
<path fill="none" stroke="midnightblue" d="M657.45,-291.475C692.534,-282.114 749.541,-266.904 792.167,-255.53"/>
<polygon fill="midnightblue" stroke="midnightblue" points="793.09,-258.907 801.85,-252.947 791.285,-252.143 793.09,-258.907"/>
</g>
<!-- Node20 -->
<g id="node20" class="node"><title>Node20</title>
<polygon fill="white" stroke="#bfbfbf" points="913,-224.5 913,-254.5 1006,-254.5 1006,-224.5 913,-224.5"/>
<text text-anchor="start" x="921" y="-242.5" font-family="Ubuntu Regular" font-size="10.00">librsync&#45;2.0.0/src</text>
<text text-anchor="middle" x="959.5" y="-231.5" font-family="Ubuntu Regular" font-size="10.00">/fileutil.h</text>
</g>
<!-- Node2&#45;&gt;Node20 -->
<g id="edge29" class="edge"><title>Node2&#45;&gt;Node20</title>
<path fill="none" stroke="midnightblue" d="M689.544,-291.488C743.979,-283.839 824.379,-271.571 902.727,-255.267"/>
<polygon fill="midnightblue" stroke="midnightblue" points="903.702,-258.639 912.767,-253.153 902.26,-251.789 903.702,-258.639"/>
</g>
<!-- Node5 -->
<g id="node5" class="node"><title>Node5</title>
<polygon fill="white" stroke="#bfbfbf" points="39,-0.5 39,-19.5 82,-19.5 82,-0.5 39,-0.5"/>
<text text-anchor="middle" x="60.5" y="-7.5" font-family="Ubuntu Regular" font-size="10.00">string</text>
</g>
<!-- Node4&#45;&gt;Node5 -->
<g id="edge4" class="edge"><title>Node4&#45;&gt;Node5</title>
<path fill="none" stroke="midnightblue" d="M255.756,-113.602C189.537,-104.459 87.3901,-88.5684 74.5,-76 62.3698,-64.1726 59.5467,-44.5426 59.346,-29.9439"/>
<polygon fill="midnightblue" stroke="midnightblue" points="62.8549,-29.6486 59.6196,-19.5599 55.8574,-29.4642 62.8549,-29.6486"/>
</g>
<!-- Node6 -->
<g id="node6" class="node"><title>Node6</title>
<polygon fill="white" stroke="#bfbfbf" points="271.5,-56.5 271.5,-75.5 321.5,-75.5 321.5,-56.5 271.5,-56.5"/>
<text text-anchor="middle" x="296.5" y="-63.5" font-family="Ubuntu Regular" font-size="10.00">cassert</text>
</g>
<!-- Node4&#45;&gt;Node6 -->
<g id="edge5" class="edge"><title>Node4&#45;&gt;Node6</title>
<path fill="none" stroke="midnightblue" d="M309.858,-112.083C307.714,-104.849 304.621,-94.4087 301.951,-85.3968"/>
<polygon fill="midnightblue" stroke="midnightblue" points="305.29,-84.3447 299.093,-75.7511 298.578,-86.3334 305.29,-84.3447"/>
</g>
<!-- Node7 -->
<g id="node7" class="node"><title>Node7</title>
<polygon fill="white" stroke="#bfbfbf" points="339.5,-56.5 339.5,-75.5 455.5,-75.5 455.5,-56.5 339.5,-56.5"/>
<text text-anchor="middle" x="397.5" y="-63.5" font-family="Ubuntu Regular" font-size="10.00">boost/filesystem.hpp</text>
</g>
<!-- Node4&#45;&gt;Node7 -->
<g id="edge6" class="edge"><title>Node4&#45;&gt;Node7</title>
<path fill="none" stroke="midnightblue" d="M326.157,-112.324C339.416,-103.9 359.768,-90.9709 375.346,-81.0741"/>
<polygon fill="midnightblue" stroke="midnightblue" points="377.313,-83.9711 383.877,-75.6545 373.56,-78.0626 377.313,-83.9711"/>
</g>
<!-- Node8 -->
<g id="node8" class="node"><title>Node8</title>
<g id="a_node8"><a xlink:href="exception_8hpp.html" target="_top" xlink:title="karazeh/exception.hpp">
<polygon fill="white" stroke="black" points="84,-56.5 84,-75.5 207,-75.5 207,-56.5 84,-56.5"/>
<text text-anchor="middle" x="145.5" y="-63.5" font-family="Ubuntu Regular" font-size="10.00">karazeh/exception.hpp</text>
</a>
</g>
</g>
<!-- Node4&#45;&gt;Node8 -->
<g id="edge7" class="edge"><title>Node4&#45;&gt;Node8</title>
<path fill="none" stroke="midnightblue" d="M286.038,-112.444C257.822,-103.32 212.96,-88.8133 181.532,-78.6509"/>
<polygon fill="midnightblue" stroke="midnightblue" points="182.43,-75.263 171.838,-75.5164 180.276,-81.9234 182.43,-75.263"/>
</g>
<!-- Node8&#45;&gt;Node3 -->
<g id="edge11" class="edge"><title>Node8&#45;&gt;Node3</title>
<path fill="none" stroke="midnightblue" d="M207.293,-57.6087C212.1,-57.0563 216.878,-56.5144 221.5,-56 354.953,-41.1482 511.773,-25.1847 594.879,-16.8421"/>
<polygon fill="midnightblue" stroke="midnightblue" points="595.285,-20.319 604.886,-15.8387 594.587,-13.354 595.285,-20.319"/>
</g>
<!-- Node8&#45;&gt;Node5 -->
<g id="edge9" class="edge"><title>Node8&#45;&gt;Node5</title>
<path fill="none" stroke="midnightblue" d="M131.843,-56.324C118.584,-47.9002 98.232,-34.9709 82.6538,-25.0741"/>
<polygon fill="midnightblue" stroke="midnightblue" points="84.4404,-22.0626 74.1228,-19.6545 80.6867,-27.9711 84.4404,-22.0626"/>
</g>
<!-- Node9 -->
<g id="node9" class="node"><title>Node9</title>
<polygon fill="white" stroke="#bfbfbf" points="187,-0.5 187,-19.5 250,-19.5 250,-0.5 187,-0.5"/>
<text text-anchor="middle" x="218.5" y="-7.5" font-family="Ubuntu Regular" font-size="10.00">exception</text>
</g>
<!-- Node8&#45;&gt;Node9 -->
<g id="edge8" class="edge"><title>Node8&#45;&gt;Node9</title>
<path fill="none" stroke="midnightblue" d="M157.229,-56.324C168.337,-48.1066 185.242,-35.6017 198.483,-25.8069"/>
<polygon fill="midnightblue" stroke="midnightblue" points="200.6,-28.5948 206.558,-19.8339 196.437,-22.9671 200.6,-28.5948"/>
</g>
<!-- Node10 -->
<g id="node10" class="node"><title>Node10</title>
<polygon fill="white" stroke="#bfbfbf" points="104,-0.5 104,-19.5 169,-19.5 169,-0.5 104,-0.5"/>
<text text-anchor="middle" x="136.5" y="-7.5" font-family="Ubuntu Regular" font-size="10.00">stdexcept</text>
</g>
<!-- Node8&#45;&gt;Node10 -->
<g id="edge10" class="edge"><title>Node8&#45;&gt;Node10</title>
<path fill="none" stroke="midnightblue" d="M144.014,-56.083C142.821,-48.9272 141.106,-38.6353 139.615,-29.6911"/>
<polygon fill="midnightblue" stroke="midnightblue" points="143.055,-29.0396 137.959,-19.7511 136.15,-30.1904 143.055,-29.0396"/>
</g>
<!-- Node11&#45;&gt;Node3 -->
<g id="edge16" class="edge"><title>Node11&#45;&gt;Node3</title>
<path fill="none" stroke="midnightblue" d="M210.385,-168.498C213.23,-145.911 224.317,-84.2083 262.5,-56 313.87,-18.05 498.711,-11.5288 594.702,-10.7722"/>
<polygon fill="midnightblue" stroke="midnightblue" points="594.851,-14.2715 604.83,-10.7113 594.809,-7.27163 594.851,-14.2715"/>
</g>
<!-- Node11&#45;&gt;Node4 -->
<g id="edge17" class="edge"><title>Node11&#45;&gt;Node4</title>
<path fill="none" stroke="midnightblue" d="M226.049,-168.324C242.492,-159.703 267.935,-146.364 286.968,-136.386"/>
<polygon fill="midnightblue" stroke="midnightblue" points="288.761,-139.398 295.992,-131.655 285.511,-133.198 288.761,-139.398"/>
</g>
<!-- Node12 -->
<g id="node12" class="node"><title>Node12</title>
<polygon fill="white" stroke="#bfbfbf" points="0,-112.5 0,-131.5 53,-131.5 53,-112.5 0,-112.5"/>
<text text-anchor="middle" x="26.5" y="-119.5" font-family="Ubuntu Regular" font-size="10.00">sstream</text>
</g>
<!-- Node11&#45;&gt;Node12 -->
<g id="edge13" class="edge"><title>Node11&#45;&gt;Node12</title>
<path fill="none" stroke="midnightblue" d="M180.503,-168.444C148.673,-159.051 97.5139,-143.955 62.9827,-133.765"/>
<polygon fill="midnightblue" stroke="midnightblue" points="63.8591,-130.375 53.2774,-130.902 61.878,-137.089 63.8591,-130.375"/>
</g>
<!-- Node13 -->
<g id="node13" class="node"><title>Node13</title>
<polygon fill="white" stroke="#bfbfbf" points="71,-112.5 71,-131.5 124,-131.5 124,-112.5 71,-112.5"/>
<text text-anchor="middle" x="97.5" y="-119.5" font-family="Ubuntu Regular" font-size="10.00">fstream</text>
</g>
<!-- Node11&#45;&gt;Node13 -->
<g id="edge14" class="edge"><title>Node11&#45;&gt;Node13</title>
<path fill="none" stroke="midnightblue" d="M191.505,-168.324C173.462,-159.625 145.453,-146.12 124.697,-136.113"/>
<polygon fill="midnightblue" stroke="midnightblue" points="125.978,-132.845 115.45,-131.655 122.938,-139.15 125.978,-132.845"/>
</g>
<!-- Node14 -->
<g id="node14" class="node"><title>Node14</title>
<polygon fill="white" stroke="#bfbfbf" points="142,-112.5 142,-131.5 199,-131.5 199,-112.5 142,-112.5"/>
<text text-anchor="middle" x="170.5" y="-119.5" font-family="Ubuntu Regular" font-size="10.00">iostream</text>
</g>
<!-- Node11&#45;&gt;Node14 -->
<g id="edge15" class="edge"><title>Node11&#45;&gt;Node14</title>
<path fill="none" stroke="midnightblue" d="M203.06,-168.083C197.551,-160.455 189.469,-149.264 182.735,-139.941"/>
<polygon fill="midnightblue" stroke="midnightblue" points="185.513,-137.809 176.82,-131.751 179.838,-141.907 185.513,-137.809"/>
</g>
<!-- Node15&#45;&gt;Node3 -->
<g id="edge22" class="edge"><title>Node15&#45;&gt;Node3</title>
<path fill="none" stroke="midnightblue" d="M546.025,-233.411C608.401,-227.14 694.492,-213.956 715.5,-188 755.723,-138.304 697.765,-60.7094 668.577,-27.2522"/>
<polygon fill="midnightblue" stroke="midnightblue" points="671.131,-24.8576 661.853,-19.741 665.915,-29.5263 671.131,-24.8576"/>
</g>
<!-- Node15&#45;&gt;Node4 -->
<g id="edge23" class="edge"><title>Node15&#45;&gt;Node4</title>
<path fill="none" stroke="midnightblue" d="M441.104,-229.973C414.425,-222.423 378.916,-209.234 353.5,-188 338.34,-175.334 327.001,-155.576 320.135,-141.167"/>
<polygon fill="midnightblue" stroke="midnightblue" points="323.219,-139.491 315.935,-131.797 316.832,-142.354 323.219,-139.491"/>
</g>
<!-- Node15&#45;&gt;Node7 -->
<g id="edge20" class="edge"><title>Node15&#45;&gt;Node7</title>
<path fill="none" stroke="midnightblue" d="M446.042,-229.995C425.04,-222.623 399.306,-209.638 386.5,-188 367.417,-155.756 380.111,-110.005 389.672,-85.0129"/>
<polygon fill="midnightblue" stroke="midnightblue" points="392.946,-86.2546 393.476,-75.6731 386.463,-83.6141 392.946,-86.2546"/>
</g>
<!-- Node15&#45;&gt;Node11 -->
<g id="edge24" class="edge"><title>Node15&#45;&gt;Node11</title>
<path fill="none" stroke="midnightblue" d="M439.959,-229.975C392.018,-219.371 310.139,-201.26 257.985,-189.724"/>
<polygon fill="midnightblue" stroke="midnightblue" points="258.49,-186.251 247.97,-187.509 256.978,-193.086 258.49,-186.251"/>
</g>
<!-- Node16 -->
<g id="node16" class="node"><title>Node16</title>
<polygon fill="white" stroke="#bfbfbf" points="396,-168.5 396,-187.5 459,-187.5 459,-168.5 396,-168.5"/>
<text text-anchor="middle" x="427.5" y="-175.5" font-family="Ubuntu Regular" font-size="10.00">curl/curl.h</text>
</g>
<!-- Node15&#45;&gt;Node16 -->
<g id="edge19" class="edge"><title>Node15&#45;&gt;Node16</title>
<path fill="none" stroke="midnightblue" d="M471.193,-229.975C463.467,-220.962 451.092,-206.525 441.482,-195.312"/>
<polygon fill="midnightblue" stroke="midnightblue" points="443.959,-192.824 434.794,-187.509 438.644,-197.379 443.959,-192.824"/>
</g>
<!-- Node17 -->
<g id="node17" class="node"><title>Node17</title>
<polygon fill="white" stroke="#bfbfbf" points="477.5,-168.5 477.5,-187.5 581.5,-187.5 581.5,-168.5 477.5,-168.5"/>
<text text-anchor="middle" x="529.5" y="-175.5" font-family="Ubuntu Regular" font-size="10.00">binreloc/binreloc.h</text>
</g>
<!-- Node15&#45;&gt;Node17 -->
<g id="edge21" class="edge"><title>Node15&#45;&gt;Node17</title>
<path fill="none" stroke="midnightblue" d="M485.807,-229.975C493.533,-220.962 505.908,-206.525 515.518,-195.312"/>
<polygon fill="midnightblue" stroke="midnightblue" points="518.356,-197.379 522.206,-187.509 513.041,-192.824 518.356,-197.379"/>
</g>
<!-- Node18 -->
<g id="node18" class="node"><title>Node18</title>
<g id="a_node18"><a xlink:href="hasher_8hpp.html" target="_top" xlink:title="karazeh/hasher.hpp">
<polygon fill="white" stroke="black" points="600,-168.5 600,-187.5 707,-187.5 707,-168.5 600,-168.5"/>
<text text-anchor="middle" x="653.5" y="-175.5" font-family="Ubuntu Regular" font-size="10.00">karazeh/hasher.hpp</text>
</a>
</g>
</g>
<!-- Node15&#45;&gt;Node18 -->
<g id="edge25" class="edge"><title>Node15&#45;&gt;Node18</title>
<path fill="none" stroke="midnightblue" d="M503.573,-229.975C533.852,-219.68 584.94,-202.31 618.941,-190.75"/>
<polygon fill="midnightblue" stroke="midnightblue" points="620.132,-194.042 628.473,-187.509 617.879,-187.414 620.132,-194.042"/>
</g>
<!-- Node18&#45;&gt;Node3 -->
<g id="edge26" class="edge"><title>Node18&#45;&gt;Node3</title>
<path fill="none" stroke="midnightblue" d="M653.5,-168.075C653.5,-141.945 653.5,-65.2106 653.5,-29.577"/>
<polygon fill="midnightblue" stroke="midnightblue" points="657,-29.5681 653.5,-19.5681 650,-29.5681 657,-29.5681"/>
</g>
<!-- Node18&#45;&gt;Node4 -->
<g id="edge27" class="edge"><title>Node18&#45;&gt;Node4</title>
<path fill="none" stroke="midnightblue" d="M599.844,-168.503C539.312,-158.917 440.921,-143.337 376.451,-133.127"/>
<polygon fill="midnightblue" stroke="midnightblue" points="376.83,-129.644 366.406,-131.536 375.735,-136.558 376.83,-129.644"/>
</g>
</g>
</svg>
        <g id="navigator" transform="translate(0 0)" fill="#404254">
                <rect fill="#f2f5e9" fill-opacity="0.5" stroke="#606060" stroke-width=".5" x="0" y="0" width="60" height="60"/>
                <use id="zoomplus" xlink:href="#zoomPlus" x="17" y="9" onmousedown="handleZoom(evt,'in')"/>
                <use id="zoomminus" xlink:href="#zoomMin" x="42" y="9" onmousedown="handleZoom(evt,'out')"/>
                <use id="reset" xlink:href="#resetDef" x="30" y="36" onmousedown="handleReset()"/>
                <g id="arrowUp" xlink:href="#dirArrow" transform="translate(30 24)" onmousedown="handlePan(0,-1)">
                  <use xlink:href="#rim" fill="#404040">
                        <set attributeName="fill" to="#808080" begin="arrowUp.mouseover" end="arrowUp.mouseout"/>
                  </use>
                  <path fill="none" stroke="white" stroke-width="1.5" d="M0,-3.0v7 M-2.5,-0.5L0,-3.0L2.5,-0.5"/>
                </g>
                <g id="arrowRight" xlink:href="#dirArrow" transform="rotate(90) translate(36 -43)" onmousedown="handlePan(1,0)">
                  <use xlink:href="#rim" fill="#404040">
                        <set attributeName="fill" to="#808080" begin="arrowRight.mouseover" end="arrowRight.mouseout"/>
                  </use>
                  <path fill="none" stroke="white" stroke-width="1.5" d="M0,-3.0v7 M-2.5,-0.5L0,-3.0L2.5,-0.5"/>
                </g>
                <g id="arrowDown" xlink:href="#dirArrow" transform="rotate(180) translate(-30 -48)" onmousedown="handlePan(0,1)">
                  <use xlink:href="#rim" fill="#404040">
                        <set attributeName="fill" to="#808080" begin="arrowDown.mouseover" end="arrowDown.mouseout"/>
                  </use>
                  <path fill="none" stroke="white" stroke-width="1.5" d="M0,-3.0v7 M-2.5,-0.5L0,-3.0L2.5,-0.5"/>
                </g>
                <g id="arrowLeft" xlink:href="#dirArrow" transform="rotate(270) translate(-36 17)" onmousedown="handlePan(-1,0)">
                  <use xlink:href="#rim" fill="#404040">
                        <set attributeName="fill" to="#808080" begin="arrowLeft.mouseover" end="arrowLeft.mouseout"/>
                  </use>
                  <path fill="none" stroke="white" stroke-width="1.5" d="M0,-3.0v7 M-2.5,-0.5L0,-3.0L2.5,-0.5"/>
                </g>
        </g>
        <svg viewBox="0 0 15 15" width="100%" height="30px" preserveAspectRatio="xMaxYMin meet">
         <g id="arrow_out" transform="scale(0.3 0.3)">
          <a xlink:href="delta__encoder_8cpp__incl_org.svg" target="_base">
           <rect id="button" ry="5" rx="5" y="6" x="6" height="38" width="38"
                fill="#f2f5e9" fill-opacity="0.5" stroke="#606060" stroke-width="1.0"/>
           <path id="arrow"
             d="M 11.500037,31.436501 C 11.940474,20.09759 22.043105,11.32322 32.158766,21.979434 L 37.068811,17.246167 C 37.068811,17.246167 37.088388,32 37.088388,32 L 22.160133,31.978069 C 22.160133,31.978069 26.997745,27.140456 26.997745,27.140456 C 18.528582,18.264221 13.291696,25.230495 11.500037,31.436501 z"
             style="fill:#404040;"/>
          </a>
         </g>
        </svg>
</svg>
