<?xml version="1.0" encoding="UTF-8" standalone="no"?>
<!DOCTYPE svg PUBLIC "-//W3C//DTD SVG 1.1//EN"
 "http://www.w3.org/Graphics/SVG/1.1/DTD/svg11.dtd">
<!-- Generated by graphviz version 2.38.0 (20140413.2041)
 -->
<!-- Title: include/karazeh Pages: 1 -->
<svg width="182pt" height="183pt"
 viewBox="0.00 0.00 182.00 183.00" xmlns="http://www.w3.org/2000/svg" xmlns:xlink="http://www.w3.org/1999/xlink">
<g id="graph0" class="graph" transform="scale(1 1) rotate(0) translate(4 179)">
<title>include/karazeh</title>
<polygon fill="white" stroke="none" points="-4,4 -4,-179 178,-179 178,4 -4,4"/>
<g id="clust1" class="cluster"><title>clusterdir_d44c64559bbebec7f509842c48db8b23</title>
<g id="a_clust1"><a xlink:href="dir_d44c64559bbebec7f509842c48db8b23.html" target="_top" xlink:title="include">
<polygon fill="#ddddee" stroke="black" points="8,-8 8,-167 166,-167 166,-8 8,-8"/>
<text text-anchor="middle" x="87" y="-155" font-family="Ubuntu Regular" font-size="10.00">include</text>
</a>
</g>
</g>
<g id="clust2" class="cluster"><title>clusterdir_ca2c4acbf77cd3bbbb4ce555f511fb76</title>
<g id="a_clust2"><a xlink:href="dir_ca2c4acbf77cd3bbbb4ce555f511fb76.html" target="_top">
<polygon fill="#eeeeff" stroke="black" points="16,-16 16,-140 158,-140 158,-16 16,-16"/>
</a>
</g>
</g>
<!-- dir_ca2c4acbf77cd3bbbb4ce555f511fb76 -->
<g id="node1" class="node"><title>dir_ca2c4acbf77cd3bbbb4ce555f511fb76</title>
<text text-anchor="middle" x="123" y="-111.5" font-family="Ubuntu Regular" font-size="10.00">karazeh</text>
</g>
<!-- dir_5c37b97d9880b6d4bef8258877db48f5 -->
<g id="node3" class="node"><title>dir_5c37b97d9880b6d4bef8258877db48f5</title>
<g id="a_node3"><a xlink:href="dir_5c37b97d9880b6d4bef8258877db48f5.html" target="_top" xlink:title="operations">
<polygon fill="white" stroke="black" points="150,-60 84,-60 84,-24 150,-24 150,-60"/>
<text text-anchor="middle" x="117" y="-39.5" font-family="Ubuntu Regular" font-size="10.00">operations</text>
</a>
</g>
</g>
<!-- dir_ca2c4acbf77cd3bbbb4ce555f511fb76&#45;&gt;dir_5c37b97d9880b6d4bef8258877db48f5 -->
<g id="edge1" class="edge"><title>dir_ca2c4acbf77cd3bbbb4ce555f511fb76&#45;&gt;dir_5c37b97d9880b6d4bef8258877db48f5</title>
<path fill="none" stroke="black" d="M121.517,-95.6966C120.856,-87.9827 120.061,-78.7125 119.324,-70.1124"/>
<polygon fill="black" stroke="black" points="122.807,-69.7689 118.466,-60.1043 115.833,-70.3667 122.807,-69.7689"/>
<g id="a_edge1&#45;headlabel"><a xlink:href="dir_000001_000003.html" target="_top" xlink:title="3">
<text text-anchor="middle" x="125.943" y="-70.6079" font-family="Ubuntu Regular" font-size="10.00">3</text>
</a>
</g>
</g>
<!-- dir_d83e3f387a9cd111883b6b571cb3e68c -->
<g id="node2" class="node"><title>dir_d83e3f387a9cd111883b6b571cb3e68c</title>
<g id="a_node2"><a xlink:href="dir_d83e3f387a9cd111883b6b571cb3e68c.html" target="_top" xlink:title="hashers">
<polygon fill="white" stroke="black" points="78,-132 24,-132 24,-96 78,-96 78,-132"/>
<text text-anchor="middle" x="51" y="-111.5" font-family="Ubuntu Regular" font-size="10.00">hashers</text>
</a>
</g>
</g>
</g>
</svg>
