<?xml version="1.0" encoding="UTF-8" standalone="no"?>
<!DOCTYPE svg PUBLIC "-//W3C//DTD SVG 1.1//EN"
 "http://www.w3.org/Graphics/SVG/1.1/DTD/svg11.dtd">
<!-- Generated by graphviz version 2.38.0 (20140413.2041)
 -->
<!-- Title: src Pages: 1 -->
<svg width="328pt" height="132pt"
 viewBox="0.00 0.00 328.00 132.00" xmlns="http://www.w3.org/2000/svg" xmlns:xlink="http://www.w3.org/1999/xlink">
<g id="graph0" class="graph" transform="scale(1 1) rotate(0) translate(4 128)">
<title>src</title>
<polygon fill="white" stroke="none" points="-4,4 -4,-128 324,-128 324,4 -4,4"/>
<g id="clust1" class="cluster"><title>clusterdir_68267d1309a1af8e8297ef4c3efbcdba</title>
<g id="a_clust1"><a xlink:href="dir_68267d1309a1af8e8297ef4c3efbcdba.html" target="_top">
<polygon fill="#eeeeff" stroke="black" points="8,-64 8,-116 312,-116 312,-64 8,-64"/>
</a>
</g>
</g>
<!-- dir_68267d1309a1af8e8297ef4c3efbcdba -->
<g id="node1" class="node"><title>dir_68267d1309a1af8e8297ef4c3efbcdba</title>
<text text-anchor="middle" x="277" y="-87.5" font-family="Ubuntu Regular" font-size="10.00">src</text>
</g>
<!-- dir_0dae8a444542315d22277586c1b8cece -->
<g id="node2" class="node"><title>dir_0dae8a444542315d22277586c1b8cece</title>
<g id="a_node2"><a xlink:href="dir_0dae8a444542315d22277586c1b8cece.html" target="_top" xlink:title="__tests__">
<polygon fill="white" stroke="black" points="231.5,-108 172.5,-108 172.5,-72 231.5,-72 231.5,-108"/>
<text text-anchor="middle" x="202" y="-87.5" font-family="Ubuntu Regular" font-size="10.00">__tests__</text>
</a>
</g>
</g>
<!-- dir_d44c64559bbebec7f509842c48db8b23 -->
<g id="node5" class="node"><title>dir_d44c64559bbebec7f509842c48db8b23</title>
<g id="a_node5"><a xlink:href="dir_d44c64559bbebec7f509842c48db8b23.html" target="_top" xlink:title="include">
<polygon fill="white" stroke="red" points="154,-36 100,-36 100,-0 154,-0 154,-36"/>
<text text-anchor="middle" x="127" y="-15.5" font-family="Ubuntu Regular" font-size="10.00">include</text>
</a>
</g>
</g>
<!-- dir_0dae8a444542315d22277586c1b8cece&#45;&gt;dir_d44c64559bbebec7f509842c48db8b23 -->
<g id="edge1" class="edge"><title>dir_0dae8a444542315d22277586c1b8cece&#45;&gt;dir_d44c64559bbebec7f509842c48db8b23</title>
<path fill="none" stroke="black" d="M183.461,-71.6966C174.197,-63.0503 162.838,-52.4486 152.743,-43.027"/>
<polygon fill="black" stroke="black" points="155.025,-40.3688 145.326,-36.1043 150.249,-45.4863 155.025,-40.3688"/>
<g id="a_edge1&#45;headlabel"><a xlink:href="dir_000005_000000.html" target="_top" xlink:title="20">
<text text-anchor="middle" x="159.59" y="-38.2458" font-family="Ubuntu Regular" font-size="10.00">20</text>
</a>
</g>
</g>
<!-- dir_0586ab431190808e1f8d61a8bc87bd18 -->
<g id="node3" class="node"><title>dir_0586ab431190808e1f8d61a8bc87bd18</title>
<g id="a_node3"><a xlink:href="dir_0586ab431190808e1f8d61a8bc87bd18.html" target="_top" xlink:title="hashers">
<polygon fill="white" stroke="red" points="154,-108 100,-108 100,-72 154,-72 154,-108"/>
<text text-anchor="middle" x="127" y="-87.5" font-family="Ubuntu Regular" font-size="10.00">hashers</text>
</a>
</g>
</g>
<!-- dir_0586ab431190808e1f8d61a8bc87bd18&#45;&gt;dir_d44c64559bbebec7f509842c48db8b23 -->
<g id="edge3" class="edge"><title>dir_0586ab431190808e1f8d61a8bc87bd18&#45;&gt;dir_d44c64559bbebec7f509842c48db8b23</title>
<path fill="none" stroke="black" d="M127,-71.6966C127,-63.9827 127,-54.7125 127,-46.1124"/>
<polygon fill="black" stroke="black" points="130.5,-46.1043 127,-36.1043 123.5,-46.1044 130.5,-46.1043"/>
<g id="a_edge3&#45;headlabel"><a xlink:href="dir_000006_000000.html" target="_top" xlink:title="4">
<text text-anchor="middle" x="133.339" y="-47.199" font-family="Ubuntu Regular" font-size="10.00">4</text>
</a>
</g>
</g>
<!-- dir_0130712cf19296157468ab3e935b481e -->
<g id="node4" class="node"><title>dir_0130712cf19296157468ab3e935b481e</title>
<g id="a_node4"><a xlink:href="dir_0130712cf19296157468ab3e935b481e.html" target="_top" xlink:title="operations">
<polygon fill="white" stroke="red" points="82,-108 16,-108 16,-72 82,-72 82,-108"/>
<text text-anchor="middle" x="49" y="-87.5" font-family="Ubuntu Regular" font-size="10.00">operations</text>
</a>
</g>
</g>
<!-- dir_0130712cf19296157468ab3e935b481e&#45;&gt;dir_d44c64559bbebec7f509842c48db8b23 -->
<g id="edge2" class="edge"><title>dir_0130712cf19296157468ab3e935b481e&#45;&gt;dir_d44c64559bbebec7f509842c48db8b23</title>
<path fill="none" stroke="black" d="M68.2809,-71.6966C77.9154,-63.0503 89.7288,-52.4486 100.227,-43.027"/>
<polygon fill="black" stroke="black" points="102.836,-45.3883 107.941,-36.1043 98.1607,-40.1786 102.836,-45.3883"/>
<g id="a_edge2&#45;headlabel"><a xlink:href="dir_000008_000000.html" target="_top" xlink:title="11">
<text text-anchor="middle" x="102.057" y="-47.4023" font-family="Ubuntu Regular" font-size="10.00">11</text>
</a>
</g>
</g>
</g>
</svg>
