<?xml version="1.0" encoding="UTF-8" standalone="no"?>
<!DOCTYPE svg PUBLIC "-//W3C//DTD SVG 1.1//EN"
 "http://www.w3.org/Graphics/SVG/1.1/DTD/svg11.dtd">
<!-- Generated by graphviz version 2.38.0 (20140413.2041)
 -->
<!-- Title: src/hashers Pages: 1 -->
<svg width="188pt" height="159pt"
 viewBox="0.00 0.00 188.00 159.00" xmlns="http://www.w3.org/2000/svg" xmlns:xlink="http://www.w3.org/1999/xlink">
<g id="graph0" class="graph" transform="scale(1 1) rotate(0) translate(4 155)">
<title>src/hashers</title>
<polygon fill="white" stroke="none" points="-4,4 -4,-155 184,-155 184,4 -4,4"/>
<g id="clust1" class="cluster"><title>clusterdir_68267d1309a1af8e8297ef4c3efbcdba</title>
<g id="a_clust1"><a xlink:href="dir_68267d1309a1af8e8297ef4c3efbcdba.html" target="_top" xlink:title="src">
<polygon fill="#ddddee" stroke="black" points="8,-56 8,-143 172,-143 172,-56 8,-56"/>
<text text-anchor="middle" x="90" y="-131" font-family="Ubuntu Regular" font-size="10.00">src</text>
</a>
</g>
</g>
<g id="clust2" class="cluster"><title>clusterdir_0586ab431190808e1f8d61a8bc87bd18</title>
<g id="a_clust2"><a xlink:href="dir_0586ab431190808e1f8d61a8bc87bd18.html" target="_top">
<polygon fill="#eeeeff" stroke="black" points="16,-64 16,-116 164,-116 164,-64 16,-64"/>
</a>
</g>
</g>
<!-- dir_0586ab431190808e1f8d61a8bc87bd18 -->
<g id="node1" class="node"><title>dir_0586ab431190808e1f8d61a8bc87bd18</title>
<text text-anchor="middle" x="129" y="-87.5" font-family="Ubuntu Regular" font-size="10.00">hashers</text>
</g>
<!-- dir_fc635abb783ecbd1a73fc61981ad0dc1 -->
<g id="node2" class="node"><title>dir_fc635abb783ecbd1a73fc61981ad0dc1</title>
<g id="a_node2"><a xlink:href="dir_fc635abb783ecbd1a73fc61981ad0dc1.html" target="_top" xlink:title="__tests__">
<polygon fill="white" stroke="black" points="83.5,-108 24.5,-108 24.5,-72 83.5,-72 83.5,-108"/>
<text text-anchor="middle" x="54" y="-87.5" font-family="Ubuntu Regular" font-size="10.00">__tests__</text>
</a>
</g>
</g>
<!-- dir_d44c64559bbebec7f509842c48db8b23 -->
<g id="node3" class="node"><title>dir_d44c64559bbebec7f509842c48db8b23</title>
<g id="a_node3"><a xlink:href="dir_d44c64559bbebec7f509842c48db8b23.html" target="_top" xlink:title="include">
<polygon fill="white" stroke="red" points="81,-36 27,-36 27,-0 81,-0 81,-36"/>
<text text-anchor="middle" x="54" y="-15.5" font-family="Ubuntu Regular" font-size="10.00">include</text>
</a>
</g>
</g>
<!-- dir_fc635abb783ecbd1a73fc61981ad0dc1&#45;&gt;dir_d44c64559bbebec7f509842c48db8b23 -->
<g id="edge1" class="edge"><title>dir_fc635abb783ecbd1a73fc61981ad0dc1&#45;&gt;dir_d44c64559bbebec7f509842c48db8b23</title>
<path fill="none" stroke="black" d="M54,-71.6966C54,-63.9827 54,-54.7125 54,-46.1124"/>
<polygon fill="black" stroke="black" points="57.5001,-46.1043 54,-36.1043 50.5001,-46.1044 57.5001,-46.1043"/>
<g id="a_edge1&#45;headlabel"><a xlink:href="dir_000007_000000.html" target="_top" xlink:title="2">
<text text-anchor="middle" x="60.3393" y="-47.199" font-family="Ubuntu Regular" font-size="10.00">2</text>
</a>
</g>
</g>
</g>
</svg>
