<?xml version="1.0" encoding="UTF-8" standalone="no"?>
<!DOCTYPE svg PUBLIC "-//W3C//DTD SVG 1.1//EN"
 "http://www.w3.org/Graphics/SVG/1.1/DTD/svg11.dtd">
<!-- Generated by graphviz version 2.38.0 (20140413.2041)
 -->
<!-- Title: src/__tests__ Pages: 1 -->
<svg width="100pt" height="151pt"
 viewBox="0.00 0.00 100.00 151.00" xmlns="http://www.w3.org/2000/svg" xmlns:xlink="http://www.w3.org/1999/xlink">
<g id="graph0" class="graph" transform="scale(1 1) rotate(0) translate(4 147)">
<title>src/__tests__</title>
<polygon fill="white" stroke="none" points="-4,4 -4,-147 96,-147 96,4 -4,4"/>
<g id="clust1" class="cluster"><title>clusterdir_68267d1309a1af8e8297ef4c3efbcdba</title>
<g id="a_clust1"><a xlink:href="dir_68267d1309a1af8e8297ef4c3efbcdba.html" target="_top" xlink:title="src">
<polygon fill="#ddddee" stroke="black" points="8,-64 8,-135 84,-135 84,-64 8,-64"/>
<text text-anchor="middle" x="46" y="-123" font-family="Ubuntu Regular" font-size="10.00">src</text>
</a>
</g>
</g>
<!-- dir_0dae8a444542315d22277586c1b8cece -->
<g id="node1" class="node"><title>dir_0dae8a444542315d22277586c1b8cece</title>
<g id="a_node1"><a xlink:href="dir_0dae8a444542315d22277586c1b8cece.html" target="_top" xlink:title="__tests__">
<polygon fill="#eeeeff" stroke="black" points="75.5,-108 16.5,-108 16.5,-72 75.5,-72 75.5,-108"/>
<text text-anchor="middle" x="46" y="-87.5" font-family="Ubuntu Regular" font-size="10.00">__tests__</text>
</a>
</g>
</g>
<!-- dir_d44c64559bbebec7f509842c48db8b23 -->
<g id="node2" class="node"><title>dir_d44c64559bbebec7f509842c48db8b23</title>
<g id="a_node2"><a xlink:href="dir_d44c64559bbebec7f509842c48db8b23.html" target="_top" xlink:title="include">
<polygon fill="white" stroke="red" points="73,-36 19,-36 19,-0 73,-0 73,-36"/>
<text text-anchor="middle" x="46" y="-15.5" font-family="Ubuntu Regular" font-size="10.00">include</text>
</a>
</g>
</g>
<!-- dir_0dae8a444542315d22277586c1b8cece&#45;&gt;dir_d44c64559bbebec7f509842c48db8b23 -->
<g id="edge1" class="edge"><title>dir_0dae8a444542315d22277586c1b8cece&#45;&gt;dir_d44c64559bbebec7f509842c48db8b23</title>
<path fill="none" stroke="black" d="M46,-71.6966C46,-63.9827 46,-54.7125 46,-46.1124"/>
<polygon fill="black" stroke="black" points="49.5001,-46.1043 46,-36.1043 42.5001,-46.1044 49.5001,-46.1043"/>
<g id="a_edge1&#45;headlabel"><a xlink:href="dir_000005_000000.html" target="_top" xlink:title="20">
<text text-anchor="middle" x="52.3393" y="-47.199" font-family="Ubuntu Regular" font-size="10.00">20</text>
</a>
</g>
</g>
</g>
</svg>
