<?xml version="1.0" encoding="UTF-8" standalone="no"?>
<!DOCTYPE svg PUBLIC "-//W3C//DTD SVG 1.1//EN"
 "http://www.w3.org/Graphics/SVG/1.1/DTD/svg11.dtd">
<!-- Generated by graphviz version 2.38.0 (20140413.2041)
 -->
<!-- Title: include/karazeh/downloader.hpp Pages: 1 -->
<svg width="1156pt" height="285pt"
 viewBox="0.00 0.00 1156.00 285.00" xmlns="http://www.w3.org/2000/svg" xmlns:xlink="http://www.w3.org/1999/xlink">
<g id="graph0" class="graph" transform="scale(1 1) rotate(0) translate(4 281)">
<title>include/karazeh/downloader.hpp</title>
<polygon fill="white" stroke="none" points="-4,4 -4,-281 1152,-281 1152,4 -4,4"/>
<!-- Node1 -->
<g id="node1" class="node"><title>Node1</title>
<polygon fill="#bfbfbf" stroke="black" points="737,-257.5 737,-276.5 904,-276.5 904,-257.5 737,-257.5"/>
<text text-anchor="middle" x="820.5" y="-264.5" font-family="Ubuntu Regular" font-size="10.00">include/karazeh/downloader.hpp</text>
</g>
<!-- Node2 -->
<g id="node2" class="node"><title>Node2</title>
<g id="a_node2"><a xlink:href="operation_8hpp.html" target="_top" xlink:title="include/karazeh/operation.hpp">
<polygon fill="white" stroke="black" points="415.5,-201.5 415.5,-220.5 573.5,-220.5 573.5,-201.5 415.5,-201.5"/>
<text text-anchor="middle" x="494.5" y="-208.5" font-family="Ubuntu Regular" font-size="10.00">include/karazeh/operation.hpp</text>
</a>
</g>
</g>
<!-- Node1&#45;&gt;Node2 -->
<g id="edge1" class="edge"><title>Node1&#45;&gt;Node2</title>
<path fill="none" stroke="midnightblue" d="M758.866,-255.791C697.266,-245.587 603.638,-230.078 545.914,-220.516"/>
<polygon fill="midnightblue" stroke="midnightblue" points="758.407,-259.262 768.844,-257.444 759.551,-252.356 758.407,-259.262"/>
</g>
<!-- Node4 -->
<g id="node4" class="node"><title>Node4</title>
<g id="a_node4"><a xlink:href="version__manifest_8hpp.html" target="_top" xlink:title="include/karazeh/version\l_manifest.hpp">
<polygon fill="white" stroke="black" points="63.5,-67.5 63.5,-97.5 189.5,-97.5 189.5,-67.5 63.5,-67.5"/>
<text text-anchor="start" x="71.5" y="-85.5" font-family="Ubuntu Regular" font-size="10.00">include/karazeh/version</text>
<text text-anchor="middle" x="126.5" y="-74.5" font-family="Ubuntu Regular" font-size="10.00">_manifest.hpp</text>
</a>
</g>
</g>
<!-- Node1&#45;&gt;Node4 -->
<g id="edge27" class="edge"><title>Node1&#45;&gt;Node4</title>
<path fill="none" stroke="midnightblue" d="M726.698,-265.54C559.705,-262.619 220.906,-246.518 141.5,-165 124.033,-147.068 123.38,-115.861 124.755,-97.7094"/>
<polygon fill="midnightblue" stroke="midnightblue" points="726.657,-269.039 736.713,-265.702 726.771,-262.04 726.657,-269.039"/>
</g>
<!-- Node15 -->
<g id="node15" class="node"><title>Node15</title>
<g id="a_node15"><a xlink:href="patcher_8hpp.html" target="_top" xlink:title="include/karazeh/patcher.hpp">
<polygon fill="white" stroke="black" points="966,-73 966,-92 1115,-92 1115,-73 966,-73"/>
<text text-anchor="middle" x="1040.5" y="-80" font-family="Ubuntu Regular" font-size="10.00">include/karazeh/patcher.hpp</text>
</a>
</g>
</g>
<!-- Node1&#45;&gt;Node15 -->
<g id="edge26" class="edge"><title>Node1&#45;&gt;Node15</title>
<path fill="none" stroke="midnightblue" d="M822.261,-247.11C824.395,-233.139 829.107,-214.306 839.5,-201 885.53,-142.067 970.001,-106.949 1013.32,-92.0016"/>
<polygon fill="midnightblue" stroke="midnightblue" points="818.783,-246.723 821.043,-257.073 825.731,-247.572 818.783,-246.723"/>
</g>
<!-- Node18 -->
<g id="node18" class="node"><title>Node18</title>
<g id="a_node18"><a xlink:href="downloader_8test_8cpp.html" target="_top" xlink:title="src/__tests__/downloader.test.cpp">
<polygon fill="white" stroke="black" points="848.5,-201.5 848.5,-220.5 1022.5,-220.5 1022.5,-201.5 848.5,-201.5"/>
<text text-anchor="middle" x="935.5" y="-208.5" font-family="Ubuntu Regular" font-size="10.00">src/__tests__/downloader.test.cpp</text>
</a>
</g>
</g>
<!-- Node1&#45;&gt;Node18 -->
<g id="edge28" class="edge"><title>Node1&#45;&gt;Node18</title>
<path fill="none" stroke="midnightblue" d="M847.981,-253.096C869.466,-243.007 898.722,-229.27 917.363,-220.516"/>
<polygon fill="midnightblue" stroke="midnightblue" points="846.286,-250.025 838.722,-257.444 849.262,-256.361 846.286,-250.025"/>
</g>
<!-- Node19 -->
<g id="node19" class="node"><title>Node19</title>
<g id="a_node19"><a xlink:href="downloader_8cpp.html" target="_top" xlink:title="src/downloader.cpp">
<polygon fill="white" stroke="black" points="1041,-201.5 1041,-220.5 1148,-220.5 1148,-201.5 1041,-201.5"/>
<text text-anchor="middle" x="1094.5" y="-208.5" font-family="Ubuntu Regular" font-size="10.00">src/downloader.cpp</text>
</a>
</g>
</g>
<!-- Node1&#45;&gt;Node19 -->
<g id="edge29" class="edge"><title>Node1&#45;&gt;Node19</title>
<path fill="none" stroke="midnightblue" d="M873.913,-255.473C925.697,-245.268 1003.27,-229.979 1051.29,-220.516"/>
<polygon fill="midnightblue" stroke="midnightblue" points="873.051,-252.076 863.916,-257.444 874.404,-258.944 873.051,-252.076"/>
</g>
<!-- Node3 -->
<g id="node3" class="node"><title>Node3</title>
<g id="a_node3"><a xlink:href="create_8hpp.html" target="_top" xlink:title="include/karazeh/operations\l/create.hpp">
<polygon fill="white" stroke="black" points="503,-134.5 503,-164.5 646,-164.5 646,-134.5 503,-134.5"/>
<text text-anchor="start" x="511" y="-152.5" font-family="Ubuntu Regular" font-size="10.00">include/karazeh/operations</text>
<text text-anchor="middle" x="574.5" y="-141.5" font-family="Ubuntu Regular" font-size="10.00">/create.hpp</text>
</a>
</g>
</g>
<!-- Node2&#45;&gt;Node3 -->
<g id="edge2" class="edge"><title>Node2&#45;&gt;Node3</title>
<path fill="none" stroke="midnightblue" d="M514.039,-195.468C526.705,-186.047 543.117,-173.841 555.646,-164.523"/>
<polygon fill="midnightblue" stroke="midnightblue" points="511.897,-192.699 505.962,-201.475 516.075,-198.316 511.897,-192.699"/>
</g>
<!-- Node2&#45;&gt;Node4 -->
<g id="edge25" class="edge"><title>Node2&#45;&gt;Node4</title>
<path fill="none" stroke="midnightblue" d="M405.18,-206.421C322.978,-201.566 208.392,-190.367 171.5,-165 148.06,-148.882 135.581,-116.405 130.07,-97.6806"/>
<polygon fill="midnightblue" stroke="midnightblue" points="405.107,-209.922 415.289,-206.996 405.504,-202.934 405.107,-209.922"/>
</g>
<!-- Node10 -->
<g id="node10" class="node"><title>Node10</title>
<g id="a_node10"><a xlink:href="delete_8hpp.html" target="_top" xlink:title="include/karazeh/operations\l/delete.hpp">
<polygon fill="white" stroke="black" points="181,-134.5 181,-164.5 324,-164.5 324,-134.5 181,-134.5"/>
<text text-anchor="start" x="189" y="-152.5" font-family="Ubuntu Regular" font-size="10.00">include/karazeh/operations</text>
<text text-anchor="middle" x="252.5" y="-141.5" font-family="Ubuntu Regular" font-size="10.00">/delete.hpp</text>
</a>
</g>
</g>
<!-- Node2&#45;&gt;Node10 -->
<g id="edge9" class="edge"><title>Node2&#45;&gt;Node10</title>
<path fill="none" stroke="midnightblue" d="M449.945,-199.045C410.413,-189.326 352.443,-175.073 309.535,-164.523"/>
<polygon fill="midnightblue" stroke="midnightblue" points="449.281,-202.486 459.827,-201.475 450.952,-195.689 449.281,-202.486"/>
</g>
<!-- Node12 -->
<g id="node12" class="node"><title>Node12</title>
<g id="a_node12"><a xlink:href="update_8hpp.html" target="_top" xlink:title="include/karazeh/operations\l/update.hpp">
<polygon fill="white" stroke="black" points="342,-134.5 342,-164.5 485,-164.5 485,-134.5 342,-134.5"/>
<text text-anchor="start" x="350" y="-152.5" font-family="Ubuntu Regular" font-size="10.00">include/karazeh/operations</text>
<text text-anchor="middle" x="413.5" y="-141.5" font-family="Ubuntu Regular" font-size="10.00">/update.hpp</text>
</a>
</g>
</g>
<!-- Node2&#45;&gt;Node12 -->
<g id="edge12" class="edge"><title>Node2&#45;&gt;Node12</title>
<path fill="none" stroke="midnightblue" d="M474.717,-195.468C461.892,-186.047 445.275,-173.841 432.59,-164.523"/>
<polygon fill="midnightblue" stroke="midnightblue" points="472.763,-198.376 482.895,-201.475 476.907,-192.734 472.763,-198.376"/>
</g>
<!-- Node14 -->
<g id="node14" class="node"><title>Node14</title>
<g id="a_node14"><a xlink:href="release__manifest_8hpp.html" target="_top" xlink:title="include/karazeh/release\l_manifest.hpp">
<polygon fill="white" stroke="black" points="664.5,-134.5 664.5,-164.5 792.5,-164.5 792.5,-134.5 664.5,-134.5"/>
<text text-anchor="start" x="672.5" y="-152.5" font-family="Ubuntu Regular" font-size="10.00">include/karazeh/release</text>
<text text-anchor="middle" x="728.5" y="-141.5" font-family="Ubuntu Regular" font-size="10.00">_manifest.hpp</text>
</a>
</g>
</g>
<!-- Node2&#45;&gt;Node14 -->
<g id="edge15" class="edge"><title>Node2&#45;&gt;Node14</title>
<path fill="none" stroke="midnightblue" d="M537.826,-198.983C576.046,-189.265 631.949,-175.05 673.351,-164.523"/>
<polygon fill="midnightblue" stroke="midnightblue" points="536.856,-195.619 528.026,-201.475 538.581,-202.403 536.856,-195.619"/>
</g>
<!-- Node3&#45;&gt;Node4 -->
<g id="edge3" class="edge"><title>Node3&#45;&gt;Node4</title>
<path fill="none" stroke="midnightblue" d="M492.908,-133.973C361.168,-114.569 325.712,-118.54 198.5,-98 195.605,-97.5325 192.649,-97.032 189.666,-96.5082"/>
<polygon fill="midnightblue" stroke="midnightblue" points="492.575,-137.462 502.982,-135.475 493.607,-130.539 492.575,-137.462"/>
</g>
<!-- Node8 -->
<g id="node8" class="node"><title>Node8</title>
<g id="a_node8"><a xlink:href="create_8test_8cpp.html" target="_top" xlink:title="src/operations/__tests\l__/create.test.cpp">
<polygon fill="white" stroke="black" points="521.5,-67.5 521.5,-97.5 641.5,-97.5 641.5,-67.5 521.5,-67.5"/>
<text text-anchor="start" x="529.5" y="-85.5" font-family="Ubuntu Regular" font-size="10.00">src/operations/__tests</text>
<text text-anchor="middle" x="581.5" y="-74.5" font-family="Ubuntu Regular" font-size="10.00">__/create.test.cpp</text>
</a>
</g>
</g>
<!-- Node3&#45;&gt;Node8 -->
<g id="edge7" class="edge"><title>Node3&#45;&gt;Node8</title>
<path fill="none" stroke="midnightblue" d="M577.095,-124.403C578.068,-115.37 579.141,-105.408 579.984,-97.5765"/>
<polygon fill="midnightblue" stroke="midnightblue" points="573.61,-124.079 576.019,-134.396 580.57,-124.828 573.61,-124.079"/>
</g>
<!-- Node9 -->
<g id="node9" class="node"><title>Node9</title>
<g id="a_node9"><a xlink:href="create_8cpp.html" target="_top" xlink:title="src/operations/create.cpp">
<polygon fill="white" stroke="black" points="660,-73 660,-92 797,-92 797,-73 660,-73"/>
<text text-anchor="middle" x="728.5" y="-80" font-family="Ubuntu Regular" font-size="10.00">src/operations/create.cpp</text>
</a>
</g>
</g>
<!-- Node3&#45;&gt;Node9 -->
<g id="edge8" class="edge"><title>Node3&#45;&gt;Node9</title>
<path fill="none" stroke="midnightblue" d="M617.245,-130.458C646.998,-117.9 685.323,-101.724 708.345,-92.007"/>
<polygon fill="midnightblue" stroke="midnightblue" points="615.768,-127.283 607.916,-134.396 618.49,-133.732 615.768,-127.283"/>
</g>
<!-- Node5 -->
<g id="node5" class="node"><title>Node5</title>
<g id="a_node5"><a xlink:href="patcher_8test_8cpp.html" target="_top" xlink:title="src/__tests__/patcher.test.cpp">
<polygon fill="white" stroke="black" points="551,-6 551,-25 708,-25 708,-6 551,-6"/>
<text text-anchor="middle" x="629.5" y="-13" font-family="Ubuntu Regular" font-size="10.00">src/__tests__/patcher.test.cpp</text>
</a>
</g>
</g>
<!-- Node4&#45;&gt;Node5 -->
<g id="edge4" class="edge"><title>Node4&#45;&gt;Node5</title>
<path fill="none" stroke="midnightblue" d="M199.695,-66.8886C328.321,-46.7358 466.589,-31.9756 550.981,-23.7455"/>
<polygon fill="midnightblue" stroke="midnightblue" points="198.994,-63.4559 189.663,-68.4746 200.087,-70.37 198.994,-63.4559"/>
</g>
<!-- Node6 -->
<g id="node6" class="node"><title>Node6</title>
<g id="a_node6"><a xlink:href="version__manifest_8test_8cpp.html" target="_top" xlink:title="src/__tests__/version\l_manifest.test.cpp">
<polygon fill="white" stroke="black" points="0,-0.5 0,-30.5 113,-30.5 113,-0.5 0,-0.5"/>
<text text-anchor="start" x="8" y="-18.5" font-family="Ubuntu Regular" font-size="10.00">src/__tests__/version</text>
<text text-anchor="middle" x="56.5" y="-7.5" font-family="Ubuntu Regular" font-size="10.00">_manifest.test.cpp</text>
</a>
</g>
</g>
<!-- Node4&#45;&gt;Node6 -->
<g id="edge5" class="edge"><title>Node4&#45;&gt;Node6</title>
<path fill="none" stroke="midnightblue" d="M103.682,-60.3115C93.1813,-50.5612 81.0097,-39.259 71.6593,-30.5765"/>
<polygon fill="midnightblue" stroke="midnightblue" points="101.601,-63.1562 111.311,-67.396 106.365,-58.0266 101.601,-63.1562"/>
</g>
<!-- Node7 -->
<g id="node7" class="node"><title>Node7</title>
<g id="a_node7"><a xlink:href="version__manifest_8cpp.html" target="_top" xlink:title="src/version_manifest.cpp">
<polygon fill="white" stroke="black" points="131,-6 131,-25 262,-25 262,-6 131,-6"/>
<text text-anchor="middle" x="196.5" y="-13" font-family="Ubuntu Regular" font-size="10.00">src/version_manifest.cpp</text>
</a>
</g>
</g>
<!-- Node4&#45;&gt;Node7 -->
<g id="edge6" class="edge"><title>Node4&#45;&gt;Node7</title>
<path fill="none" stroke="midnightblue" d="M149.293,-60.335C162.145,-48.401 177.507,-34.1359 187.137,-25.1945"/>
<polygon fill="midnightblue" stroke="midnightblue" points="146.635,-58.0266 141.689,-67.396 151.399,-63.1562 146.635,-58.0266"/>
</g>
<!-- Node10&#45;&gt;Node4 -->
<g id="edge10" class="edge"><title>Node10&#45;&gt;Node4</title>
<path fill="none" stroke="midnightblue" d="M216.085,-129.714C196.213,-119.463 172.02,-106.983 153.787,-97.5765"/>
<polygon fill="midnightblue" stroke="midnightblue" points="214.668,-132.922 225.16,-134.396 217.877,-126.701 214.668,-132.922"/>
</g>
<!-- Node11 -->
<g id="node11" class="node"><title>Node11</title>
<g id="a_node11"><a xlink:href="delete_8cpp.html" target="_top" xlink:title="src/operations/delete.cpp">
<polygon fill="white" stroke="black" points="207.5,-73 207.5,-92 345.5,-92 345.5,-73 207.5,-73"/>
<text text-anchor="middle" x="276.5" y="-80" font-family="Ubuntu Regular" font-size="10.00">src/operations/delete.cpp</text>
</a>
</g>
</g>
<!-- Node10&#45;&gt;Node11 -->
<g id="edge11" class="edge"><title>Node10&#45;&gt;Node11</title>
<path fill="none" stroke="midnightblue" d="M261.198,-124.942C265.408,-113.54 270.206,-100.545 273.29,-92.1945"/>
<polygon fill="midnightblue" stroke="midnightblue" points="257.888,-123.803 257.708,-134.396 264.455,-126.227 257.888,-123.803"/>
</g>
<!-- Node12&#45;&gt;Node4 -->
<g id="edge13" class="edge"><title>Node12&#45;&gt;Node4</title>
<path fill="none" stroke="midnightblue" d="M341.761,-132.252C294.717,-121.598 233.818,-107.805 188.805,-97.6109"/>
<polygon fill="midnightblue" stroke="midnightblue" points="341.052,-135.681 351.579,-134.476 342.599,-128.854 341.052,-135.681"/>
</g>
<!-- Node13 -->
<g id="node13" class="node"><title>Node13</title>
<g id="a_node13"><a xlink:href="update_8cpp.html" target="_top" xlink:title="src/operations/update.cpp">
<polygon fill="white" stroke="black" points="363.5,-73 363.5,-92 503.5,-92 503.5,-73 363.5,-73"/>
<text text-anchor="middle" x="433.5" y="-80" font-family="Ubuntu Regular" font-size="10.00">src/operations/update.cpp</text>
</a>
</g>
</g>
<!-- Node12&#45;&gt;Node13 -->
<g id="edge14" class="edge"><title>Node12&#45;&gt;Node13</title>
<path fill="none" stroke="midnightblue" d="M420.855,-124.596C424.337,-113.278 428.281,-100.461 430.825,-92.1945"/>
<polygon fill="midnightblue" stroke="midnightblue" points="417.435,-123.809 417.84,-134.396 424.126,-125.867 417.435,-123.809"/>
</g>
<!-- Node14&#45;&gt;Node4 -->
<g id="edge19" class="edge"><title>Node14&#45;&gt;Node4</title>
<path fill="none" stroke="midnightblue" d="M654.804,-134.042C654.703,-134.028 654.601,-134.014 654.5,-134 453.084,-106.409 399.843,-126.119 198.5,-98 195.595,-97.5944 192.632,-97.1446 189.643,-96.6618"/>
<polygon fill="midnightblue" stroke="midnightblue" points="653.993,-137.459 664.4,-135.473 655.026,-130.536 653.993,-137.459"/>
</g>
<!-- Node14&#45;&gt;Node8 -->
<g id="edge20" class="edge"><title>Node14&#45;&gt;Node8</title>
<path fill="none" stroke="midnightblue" d="M687.269,-130.269C663.856,-119.916 634.992,-107.153 613.335,-97.5765"/>
<polygon fill="midnightblue" stroke="midnightblue" points="686.042,-133.553 696.603,-134.396 688.873,-127.151 686.042,-133.553"/>
</g>
<!-- Node14&#45;&gt;Node9 -->
<g id="edge21" class="edge"><title>Node14&#45;&gt;Node9</title>
<path fill="none" stroke="midnightblue" d="M728.5,-124.25C728.5,-113.017 728.5,-100.377 728.5,-92.1945"/>
<polygon fill="midnightblue" stroke="midnightblue" points="725,-124.396 728.5,-134.396 732,-124.396 725,-124.396"/>
</g>
<!-- Node14&#45;&gt;Node11 -->
<g id="edge22" class="edge"><title>Node14&#45;&gt;Node11</title>
<path fill="none" stroke="midnightblue" d="M654.803,-134.048C654.702,-134.032 654.601,-134.016 654.5,-134 521.85,-113.074 487.249,-118.282 354.5,-98 343.199,-96.2734 331.027,-94.1421 319.736,-92.0502"/>
<polygon fill="midnightblue" stroke="midnightblue" points="653.939,-137.452 664.376,-135.634 655.083,-130.546 653.939,-137.452"/>
</g>
<!-- Node14&#45;&gt;Node13 -->
<g id="edge23" class="edge"><title>Node14&#45;&gt;Node13</title>
<path fill="none" stroke="midnightblue" d="M655.011,-132.307C597.053,-119.537 518.518,-102.233 472.207,-92.0287"/>
<polygon fill="midnightblue" stroke="midnightblue" points="654.334,-135.742 664.853,-134.476 655.84,-128.906 654.334,-135.742"/>
</g>
<!-- Node14&#45;&gt;Node15 -->
<g id="edge16" class="edge"><title>Node14&#45;&gt;Node15</title>
<path fill="none" stroke="midnightblue" d="M802.83,-133.015C864.455,-120.176 949.76,-102.404 999.639,-92.0127"/>
<polygon fill="midnightblue" stroke="midnightblue" points="801.844,-129.645 792.768,-135.111 803.272,-136.498 801.844,-129.645"/>
</g>
<!-- Node17 -->
<g id="node17" class="node"><title>Node17</title>
<g id="a_node17"><a xlink:href="release__manifest_8cpp.html" target="_top" xlink:title="src/release_manifest.cpp">
<polygon fill="white" stroke="black" points="815.5,-73 815.5,-92 947.5,-92 947.5,-73 815.5,-73"/>
<text text-anchor="middle" x="881.5" y="-80" font-family="Ubuntu Regular" font-size="10.00">src/release_manifest.cpp</text>
</a>
</g>
</g>
<!-- Node14&#45;&gt;Node17 -->
<g id="edge24" class="edge"><title>Node14&#45;&gt;Node17</title>
<path fill="none" stroke="midnightblue" d="M770.967,-130.458C800.527,-117.9 838.603,-101.724 861.476,-92.007"/>
<polygon fill="midnightblue" stroke="midnightblue" points="769.534,-127.264 761.699,-134.396 772.271,-133.707 769.534,-127.264"/>
</g>
<!-- Node15&#45;&gt;Node5 -->
<g id="edge17" class="edge"><title>Node15&#45;&gt;Node5</title>
<path fill="none" stroke="midnightblue" d="M982.131,-71.2871C973.54,-69.8238 964.793,-68.356 956.5,-67 862.11,-51.5659 752.177,-34.8463 686.847,-25.0421"/>
<polygon fill="midnightblue" stroke="midnightblue" points="981.661,-74.7575 992.108,-72.9959 982.842,-67.858 981.661,-74.7575"/>
</g>
<!-- Node16 -->
<g id="node16" class="node"><title>Node16</title>
<g id="a_node16"><a xlink:href="patcher_8cpp.html" target="_top" xlink:title="src/patcher.cpp">
<polygon fill="white" stroke="black" points="996,-6 996,-25 1085,-25 1085,-6 996,-6"/>
<text text-anchor="middle" x="1040.5" y="-13" font-family="Ubuntu Regular" font-size="10.00">src/patcher.cpp</text>
</a>
</g>
</g>
<!-- Node15&#45;&gt;Node16 -->
<g id="edge18" class="edge"><title>Node15&#45;&gt;Node16</title>
<path fill="none" stroke="midnightblue" d="M1040.5,-62.537C1040.5,-50.1703 1040.5,-34.6198 1040.5,-25.1273"/>
<polygon fill="midnightblue" stroke="midnightblue" points="1037,-62.7338 1040.5,-72.7338 1044,-62.7338 1037,-62.7338"/>
</g>
</g>
</svg>
