<?xml version="1.0" encoding="UTF-8" standalone="no"?>
<!DOCTYPE svg PUBLIC "-//W3C//DTD SVG 1.1//EN"
 "http://www.w3.org/Graphics/SVG/1.1/DTD/svg11.dtd">
<!-- Generated by graphviz version 2.38.0 (20140413.2041)
 -->
<!-- Title: include/karazeh/downloader.hpp Pages: 1 -->
<!--zoomable 308 -->
<svg id="main" version="1.1" xmlns="http://www.w3.org/2000/svg" xmlns:xlink="http://www.w3.org/1999/xlink" xml:space="preserve" onload="init(evt)">
<style type="text/css"><![CDATA[
.edge:hover path { stroke: red; }
.edge:hover polygon { stroke: red; fill: red; }
]]></style>
<script type="text/javascript"><![CDATA[
var edges = document.getElementsByTagName('g');
if (edges && edges.length) {
  for (var i=0;i<edges.length;i++) {
    if (edges[i].id.substr(0,4)=='edge') {
      edges[i].setAttribute('class','edge');
    }
  }
}
]]></script>
        <defs>
                <circle id="rim" cx="0" cy="0" r="7"/>
                <circle id="rim2" cx="0" cy="0" r="3.5"/>
                <g id="zoomPlus">
                        <use xlink:href="#rim" fill="#404040">
                                <set attributeName="fill" to="#808080" begin="zoomplus.mouseover" end="zoomplus.mouseout"/>
                        </use>
                        <path d="M-4,0h8M0,-4v8" fill="none" stroke="white" stroke-width="1.5" pointer-events="none"/>
                </g>
                <g id="zoomMin">
                        <use xlink:href="#rim" fill="#404040">
                                <set attributeName="fill" to="#808080" begin="zoomminus.mouseover" end="zoomminus.mouseout"/>
                        </use>
                        <path d="M-4,0h8" fill="none" stroke="white" stroke-width="1.5" pointer-events="none"/>
                </g>
                <g id="dirArrow">
                        <path fill="none" stroke="white" stroke-width="1.5" d="M0,-3.0v7 M-2.5,-0.5L0,-3.0L2.5,-0.5"/>
                </g>
               <g id="resetDef">
                       <use xlink:href="#rim2" fill="#404040">
                               <set attributeName="fill" to="#808080" begin="reset.mouseover" end="reset.mouseout"/>
                       </use>
               </g>
        </defs>

<script type="text/javascript">
var viewWidth = 849;
var viewHeight = 308;
var sectionId = 'dynsection-0';
</script>
<script xlink:href="svgpan.js"/>
<svg id="graph" class="graph">
<g id="viewport">
<title>include/karazeh/downloader.hpp</title>
<polygon fill="white" stroke="none" points="-4,4 -4,-304 844.5,-304 844.5,4 -4,4"/>
<!-- Node1 -->
<g id="node1" class="node"><title>Node1</title>
<polygon fill="#bfbfbf" stroke="black" points="387,-280.5 387,-299.5 554,-299.5 554,-280.5 387,-280.5"/>
<text text-anchor="middle" x="470.5" y="-287.5" font-family="Ubuntu Regular" font-size="10.00">include/karazeh/downloader.hpp</text>
</g>
<!-- Node2 -->
<g id="node2" class="node"><title>Node2</title>
<polygon fill="white" stroke="#bfbfbf" points="216,-168.5 216,-187.5 279,-187.5 279,-168.5 216,-168.5"/>
<text text-anchor="middle" x="247.5" y="-175.5" font-family="Ubuntu Regular" font-size="10.00">curl/curl.h</text>
</g>
<!-- Node1&#45;&gt;Node2 -->
<g id="edge1" class="edge"><title>Node1&#45;&gt;Node2</title>
<path fill="none" stroke="midnightblue" d="M451.43,-280.438C431.789,-271.553 400.343,-257.143 373.5,-244 338.216,-226.724 297.95,-205.723 272.631,-192.358"/>
<polygon fill="midnightblue" stroke="midnightblue" points="274.176,-189.216 263.7,-187.633 270.903,-195.404 274.176,-189.216"/>
</g>
<!-- Node3 -->
<g id="node3" class="node"><title>Node3</title>
<polygon fill="white" stroke="#bfbfbf" points="378.5,-56.5 378.5,-75.5 494.5,-75.5 494.5,-56.5 378.5,-56.5"/>
<text text-anchor="middle" x="436.5" y="-63.5" font-family="Ubuntu Regular" font-size="10.00">boost/filesystem.hpp</text>
</g>
<!-- Node1&#45;&gt;Node3 -->
<g id="edge2" class="edge"><title>Node1&#45;&gt;Node3</title>
<path fill="none" stroke="midnightblue" d="M554.041,-289.112C652.031,-284.938 798.354,-263.041 774.5,-168 767.627,-140.614 767.61,-128.222 744.5,-112 706.932,-85.6292 583.603,-74.4415 504.871,-69.8986"/>
<polygon fill="midnightblue" stroke="midnightblue" points="504.727,-66.3853 494.548,-69.3261 504.339,-73.3745 504.727,-66.3853"/>
</g>
<!-- Node4 -->
<g id="node4" class="node"><title>Node4</title>
<polygon fill="white" stroke="#bfbfbf" points="536.5,-168.5 536.5,-187.5 640.5,-187.5 640.5,-168.5 536.5,-168.5"/>
<text text-anchor="middle" x="588.5" y="-175.5" font-family="Ubuntu Regular" font-size="10.00">binreloc/binreloc.h</text>
</g>
<!-- Node1&#45;&gt;Node4 -->
<g id="edge3" class="edge"><title>Node1&#45;&gt;Node4</title>
<path fill="none" stroke="midnightblue" d="M490.272,-280.444C506.678,-272.653 529.921,-259.943 546.5,-244 560.683,-230.361 572.384,-211.054 579.801,-197.028"/>
<polygon fill="midnightblue" stroke="midnightblue" points="583.025,-198.408 584.419,-187.905 576.78,-195.246 583.025,-198.408"/>
</g>
<!-- Node5 -->
<g id="node5" class="node"><title>Node5</title>
<polygon fill="white" stroke="#bfbfbf" points="388,-0.5 388,-19.5 485,-19.5 485,-0.5 388,-0.5"/>
<text text-anchor="middle" x="436.5" y="-7.5" font-family="Ubuntu Regular" font-size="10.00">karazeh_export.h</text>
</g>
<!-- Node1&#45;&gt;Node5 -->
<g id="edge4" class="edge"><title>Node1&#45;&gt;Node5</title>
<path fill="none" stroke="midnightblue" d="M554.042,-282.026C629.186,-274.753 733.308,-261.903 770.5,-244 808.754,-225.586 840.5,-221.455 840.5,-179 840.5,-179 840.5,-179 840.5,-121 840.5,-50.3321 607.461,-23.5565 495.366,-14.7647"/>
<polygon fill="midnightblue" stroke="midnightblue" points="495.469,-11.2625 485.232,-13.9931 494.937,-18.2423 495.469,-11.2625"/>
</g>
<!-- Node6 -->
<g id="node6" class="node"><title>Node6</title>
<g id="a_node6"><a xlink:href="karazeh_8hpp.html" target="_top" xlink:title="karazeh/karazeh.hpp">
<polygon fill="white" stroke="black" points="209,-112.5 209,-131.5 322,-131.5 322,-112.5 209,-112.5"/>
<text text-anchor="middle" x="265.5" y="-119.5" font-family="Ubuntu Regular" font-size="10.00">karazeh/karazeh.hpp</text>
</a>
</g>
</g>
<!-- Node1&#45;&gt;Node6 -->
<g id="edge5" class="edge"><title>Node1&#45;&gt;Node6</title>
<path fill="none" stroke="midnightblue" d="M386.78,-282.236C325.017,-272.276 245.252,-247.824 206.5,-188 193.813,-168.414 217.412,-149.003 238.428,-136.565"/>
<polygon fill="midnightblue" stroke="midnightblue" points="240.142,-139.616 247.163,-131.681 236.726,-133.506 240.142,-139.616"/>
</g>
<!-- Node12 -->
<g id="node12" class="node"><title>Node12</title>
<g id="a_node12"><a xlink:href="logger_8hpp.html" target="_top" xlink:title="karazeh/logger.hpp">
<polygon fill="white" stroke="black" points="659,-168.5 659,-187.5 766,-187.5 766,-168.5 659,-168.5"/>
<text text-anchor="middle" x="712.5" y="-175.5" font-family="Ubuntu Regular" font-size="10.00">karazeh/logger.hpp</text>
</a>
</g>
</g>
<!-- Node1&#45;&gt;Node12 -->
<g id="edge14" class="edge"><title>Node1&#45;&gt;Node12</title>
<path fill="none" stroke="midnightblue" d="M489.489,-280.368C531.9,-261.091 634.502,-214.454 684.363,-191.789"/>
<polygon fill="midnightblue" stroke="midnightblue" points="685.944,-194.916 693.599,-187.591 683.047,-188.543 685.944,-194.916"/>
</g>
<!-- Node16 -->
<g id="node16" class="node"><title>Node16</title>
<g id="a_node16"><a xlink:href="hasher_8hpp.html" target="_top" xlink:title="karazeh/hasher.hpp">
<polygon fill="white" stroke="black" points="297,-168.5 297,-187.5 404,-187.5 404,-168.5 297,-168.5"/>
<text text-anchor="middle" x="350.5" y="-175.5" font-family="Ubuntu Regular" font-size="10.00">karazeh/hasher.hpp</text>
</a>
</g>
</g>
<!-- Node1&#45;&gt;Node16 -->
<g id="edge20" class="edge"><title>Node1&#45;&gt;Node16</title>
<path fill="none" stroke="midnightblue" d="M450.506,-280.453C433.908,-272.667 410.373,-259.96 393.5,-244 379.104,-230.383 367.107,-211.073 359.475,-197.04"/>
<polygon fill="midnightblue" stroke="midnightblue" points="362.443,-195.162 354.717,-187.912 356.235,-198.397 362.443,-195.162"/>
</g>
<!-- Node17 -->
<g id="node17" class="node"><title>Node17</title>
<g id="a_node17"><a xlink:href="file__manager_8hpp.html" target="_top" xlink:title="karazeh/file_manager.hpp">
<polygon fill="white" stroke="black" points="403,-224.5 403,-243.5 538,-243.5 538,-224.5 403,-224.5"/>
<text text-anchor="middle" x="470.5" y="-231.5" font-family="Ubuntu Regular" font-size="10.00">karazeh/file_manager.hpp</text>
</a>
</g>
</g>
<!-- Node1&#45;&gt;Node17 -->
<g id="edge23" class="edge"><title>Node1&#45;&gt;Node17</title>
<path fill="none" stroke="midnightblue" d="M470.5,-280.083C470.5,-273.006 470.5,-262.861 470.5,-253.986"/>
<polygon fill="midnightblue" stroke="midnightblue" points="474,-253.751 470.5,-243.751 467,-253.751 474,-253.751"/>
</g>
<!-- Node18 -->
<g id="node18" class="node"><title>Node18</title>
<g id="a_node18"><a xlink:href="config_8hpp.html" target="_top" xlink:title="karazeh/config.hpp">
<polygon fill="white" stroke="black" points="54,-168.5 54,-187.5 159,-187.5 159,-168.5 54,-168.5"/>
<text text-anchor="middle" x="106.5" y="-175.5" font-family="Ubuntu Regular" font-size="10.00">karazeh/config.hpp</text>
</a>
</g>
</g>
<!-- Node1&#45;&gt;Node18 -->
<g id="edge31" class="edge"><title>Node1&#45;&gt;Node18</title>
<path fill="none" stroke="midnightblue" d="M386.989,-282.072C312.587,-274.868 210.002,-262.099 173.5,-244 150.924,-232.806 131.056,-211.232 118.935,-196.016"/>
<polygon fill="midnightblue" stroke="midnightblue" points="121.591,-193.728 112.731,-187.918 116.034,-197.985 121.591,-193.728"/>
</g>
<!-- Node6&#45;&gt;Node3 -->
<g id="edge8" class="edge"><title>Node6&#45;&gt;Node3</title>
<path fill="none" stroke="midnightblue" d="M292.595,-112.444C321.488,-103.32 367.425,-88.8133 399.605,-78.6509"/>
<polygon fill="midnightblue" stroke="midnightblue" points="401.049,-81.8654 409.531,-75.5164 398.941,-75.1903 401.049,-81.8654"/>
</g>
<!-- Node7 -->
<g id="node7" class="node"><title>Node7</title>
<polygon fill="white" stroke="#bfbfbf" points="0,-0.5 0,-19.5 43,-19.5 43,-0.5 0,-0.5"/>
<text text-anchor="middle" x="21.5" y="-7.5" font-family="Ubuntu Regular" font-size="10.00">string</text>
</g>
<!-- Node6&#45;&gt;Node7 -->
<g id="edge6" class="edge"><title>Node6&#45;&gt;Node7</title>
<path fill="none" stroke="midnightblue" d="M208.873,-116.971C148.887,-111.516 59.5682,-99.6168 35.5,-76 23.4074,-64.1342 20.5788,-44.5098 20.3666,-29.9229"/>
<polygon fill="midnightblue" stroke="midnightblue" points="23.8749,-29.6347 20.6303,-19.549 16.8772,-29.4567 23.8749,-29.6347"/>
</g>
<!-- Node8 -->
<g id="node8" class="node"><title>Node8</title>
<polygon fill="white" stroke="#bfbfbf" points="240.5,-56.5 240.5,-75.5 290.5,-75.5 290.5,-56.5 240.5,-56.5"/>
<text text-anchor="middle" x="265.5" y="-63.5" font-family="Ubuntu Regular" font-size="10.00">cassert</text>
</g>
<!-- Node6&#45;&gt;Node8 -->
<g id="edge7" class="edge"><title>Node6&#45;&gt;Node8</title>
<path fill="none" stroke="midnightblue" d="M265.5,-112.083C265.5,-105.006 265.5,-94.8611 265.5,-85.9865"/>
<polygon fill="midnightblue" stroke="midnightblue" points="269,-85.751 265.5,-75.7511 262,-85.7511 269,-85.751"/>
</g>
<!-- Node9 -->
<g id="node9" class="node"><title>Node9</title>
<g id="a_node9"><a xlink:href="exception_8hpp.html" target="_top" xlink:title="karazeh/exception.hpp">
<polygon fill="white" stroke="black" points="45,-56.5 45,-75.5 168,-75.5 168,-56.5 45,-56.5"/>
<text text-anchor="middle" x="106.5" y="-63.5" font-family="Ubuntu Regular" font-size="10.00">karazeh/exception.hpp</text>
</a>
</g>
</g>
<!-- Node6&#45;&gt;Node9 -->
<g id="edge9" class="edge"><title>Node6&#45;&gt;Node9</title>
<path fill="none" stroke="midnightblue" d="M240.306,-112.444C213.557,-103.359 171.097,-88.9388 141.195,-78.7831"/>
<polygon fill="midnightblue" stroke="midnightblue" points="142.171,-75.4182 131.576,-75.5164 139.919,-82.0464 142.171,-75.4182"/>
</g>
<!-- Node9&#45;&gt;Node5 -->
<g id="edge13" class="edge"><title>Node9&#45;&gt;Node5</title>
<path fill="none" stroke="midnightblue" d="M158.789,-56.4435C218.442,-46.6823 315.742,-30.7604 377.905,-20.5882"/>
<polygon fill="midnightblue" stroke="midnightblue" points="378.644,-24.0139 387.948,-18.9449 377.514,-17.1058 378.644,-24.0139"/>
</g>
<!-- Node9&#45;&gt;Node7 -->
<g id="edge11" class="edge"><title>Node9&#45;&gt;Node7</title>
<path fill="none" stroke="midnightblue" d="M92.8433,-56.324C79.5837,-47.9002 59.232,-34.9709 43.6538,-25.0741"/>
<polygon fill="midnightblue" stroke="midnightblue" points="45.4404,-22.0626 35.1228,-19.6545 41.6867,-27.9711 45.4404,-22.0626"/>
</g>
<!-- Node10 -->
<g id="node10" class="node"><title>Node10</title>
<polygon fill="white" stroke="#bfbfbf" points="66,-0.5 66,-19.5 129,-19.5 129,-0.5 66,-0.5"/>
<text text-anchor="middle" x="97.5" y="-7.5" font-family="Ubuntu Regular" font-size="10.00">exception</text>
</g>
<!-- Node9&#45;&gt;Node10 -->
<g id="edge10" class="edge"><title>Node9&#45;&gt;Node10</title>
<path fill="none" stroke="midnightblue" d="M105.014,-56.083C103.821,-48.9272 102.106,-38.6353 100.615,-29.6911"/>
<polygon fill="midnightblue" stroke="midnightblue" points="104.055,-29.0396 98.9585,-19.7511 97.1502,-30.1904 104.055,-29.0396"/>
</g>
<!-- Node11 -->
<g id="node11" class="node"><title>Node11</title>
<polygon fill="white" stroke="#bfbfbf" points="147,-0.5 147,-19.5 212,-19.5 212,-0.5 147,-0.5"/>
<text text-anchor="middle" x="179.5" y="-7.5" font-family="Ubuntu Regular" font-size="10.00">stdexcept</text>
</g>
<!-- Node9&#45;&gt;Node11 -->
<g id="edge12" class="edge"><title>Node9&#45;&gt;Node11</title>
<path fill="none" stroke="midnightblue" d="M118.229,-56.324C129.337,-48.1066 146.242,-35.6017 159.483,-25.8069"/>
<polygon fill="midnightblue" stroke="midnightblue" points="161.6,-28.5948 167.558,-19.8339 157.437,-22.9671 161.6,-28.5948"/>
</g>
<!-- Node12&#45;&gt;Node5 -->
<g id="edge18" class="edge"><title>Node12&#45;&gt;Node5</title>
<path fill="none" stroke="midnightblue" d="M722.342,-168.493C736.091,-155.571 757.931,-130.538 744.5,-112 687.622,-33.4909 567.812,-14.9084 495.53,-11.1509"/>
<polygon fill="midnightblue" stroke="midnightblue" points="495.367,-7.64043 485.224,-10.6987 495.061,-14.6337 495.367,-7.64043"/>
</g>
<!-- Node12&#45;&gt;Node6 -->
<g id="edge19" class="edge"><title>Node12&#45;&gt;Node6</title>
<path fill="none" stroke="midnightblue" d="M658.896,-169.248C655.718,-168.818 652.568,-168.399 649.5,-168 538.339,-153.549 408.794,-138.802 332.157,-130.295"/>
<polygon fill="midnightblue" stroke="midnightblue" points="332.485,-126.81 322.161,-129.187 331.714,-133.767 332.485,-126.81"/>
</g>
<!-- Node13 -->
<g id="node13" class="node"><title>Node13</title>
<polygon fill="white" stroke="#bfbfbf" points="612,-112.5 612,-131.5 665,-131.5 665,-112.5 612,-112.5"/>
<text text-anchor="middle" x="638.5" y="-119.5" font-family="Ubuntu Regular" font-size="10.00">sstream</text>
</g>
<!-- Node12&#45;&gt;Node13 -->
<g id="edge15" class="edge"><title>Node12&#45;&gt;Node13</title>
<path fill="none" stroke="midnightblue" d="M700.611,-168.324C689.35,-160.107 672.213,-147.602 658.791,-137.807"/>
<polygon fill="midnightblue" stroke="midnightblue" points="660.747,-134.901 650.606,-131.834 656.62,-140.556 660.747,-134.901"/>
</g>
<!-- Node14 -->
<g id="node14" class="node"><title>Node14</title>
<polygon fill="white" stroke="#bfbfbf" points="683,-112.5 683,-131.5 736,-131.5 736,-112.5 683,-112.5"/>
<text text-anchor="middle" x="709.5" y="-119.5" font-family="Ubuntu Regular" font-size="10.00">fstream</text>
</g>
<!-- Node12&#45;&gt;Node14 -->
<g id="edge16" class="edge"><title>Node12&#45;&gt;Node14</title>
<path fill="none" stroke="midnightblue" d="M712.005,-168.083C711.611,-161.006 711.048,-150.861 710.555,-141.986"/>
<polygon fill="midnightblue" stroke="midnightblue" points="714.036,-141.542 709.986,-131.751 707.046,-141.93 714.036,-141.542"/>
</g>
<!-- Node15 -->
<g id="node15" class="node"><title>Node15</title>
<polygon fill="white" stroke="#bfbfbf" points="537,-112.5 537,-131.5 594,-131.5 594,-112.5 537,-112.5"/>
<text text-anchor="middle" x="565.5" y="-119.5" font-family="Ubuntu Regular" font-size="10.00">iostream</text>
</g>
<!-- Node12&#45;&gt;Node15 -->
<g id="edge17" class="edge"><title>Node12&#45;&gt;Node15</title>
<path fill="none" stroke="midnightblue" d="M689.207,-168.444C664.693,-159.438 625.904,-145.189 598.3,-135.049"/>
<polygon fill="midnightblue" stroke="midnightblue" points="599.277,-131.679 588.684,-131.516 596.863,-138.25 599.277,-131.679"/>
</g>
<!-- Node16&#45;&gt;Node5 -->
<g id="edge21" class="edge"><title>Node16&#45;&gt;Node5</title>
<path fill="none" stroke="midnightblue" d="M349.622,-168.269C347.944,-147.156 346.295,-92.3989 369.5,-56 378.313,-42.1762 393.065,-31.5887 406.487,-24.1669"/>
<polygon fill="midnightblue" stroke="midnightblue" points="408.191,-27.2259 415.477,-19.5335 404.985,-21.0037 408.191,-27.2259"/>
</g>
<!-- Node16&#45;&gt;Node6 -->
<g id="edge22" class="edge"><title>Node16&#45;&gt;Node6</title>
<path fill="none" stroke="midnightblue" d="M336.843,-168.324C323.584,-159.9 303.232,-146.971 287.654,-137.074"/>
<polygon fill="midnightblue" stroke="midnightblue" points="289.44,-134.063 279.123,-131.655 285.687,-139.971 289.44,-134.063"/>
</g>
<!-- Node17&#45;&gt;Node2 -->
<g id="edge24" class="edge"><title>Node17&#45;&gt;Node2</title>
<path fill="none" stroke="midnightblue" d="M435.165,-224.444C395.455,-214.828 331.056,-199.233 288.988,-189.046"/>
<polygon fill="midnightblue" stroke="midnightblue" points="289.607,-185.595 279.064,-186.643 287.959,-192.399 289.607,-185.595"/>
</g>
<!-- Node17&#45;&gt;Node3 -->
<g id="edge25" class="edge"><title>Node17&#45;&gt;Node3</title>
<path fill="none" stroke="midnightblue" d="M468.672,-224.075C463.32,-197.945 447.603,-121.211 440.305,-85.577"/>
<polygon fill="midnightblue" stroke="midnightblue" points="443.69,-84.6624 438.255,-75.5681 436.833,-86.067 443.69,-84.6624"/>
</g>
<!-- Node17&#45;&gt;Node4 -->
<g id="edge26" class="edge"><title>Node17&#45;&gt;Node4</title>
<path fill="none" stroke="midnightblue" d="M489.197,-224.444C508.444,-215.636 538.652,-201.812 560.7,-191.722"/>
<polygon fill="midnightblue" stroke="midnightblue" points="562.253,-194.86 569.89,-187.516 559.34,-188.495 562.253,-194.86"/>
</g>
<!-- Node17&#45;&gt;Node5 -->
<g id="edge27" class="edge"><title>Node17&#45;&gt;Node5</title>
<path fill="none" stroke="midnightblue" d="M475.852,-224.294C491.583,-197.488 534.669,-114.481 503.5,-56 495.95,-41.8339 481.739,-31.3348 468.342,-24.0576"/>
<polygon fill="midnightblue" stroke="midnightblue" points="469.798,-20.8724 459.288,-19.5289 466.666,-27.1329 469.798,-20.8724"/>
</g>
<!-- Node17&#45;&gt;Node6 -->
<g id="edge28" class="edge"><title>Node17&#45;&gt;Node6</title>
<path fill="none" stroke="midnightblue" d="M465.175,-224.481C456.073,-210.61 436.189,-183.172 412.5,-168 386.678,-151.462 354.426,-140.704 326.716,-133.87"/>
<polygon fill="midnightblue" stroke="midnightblue" points="327.268,-130.404 316.732,-131.526 325.668,-137.219 327.268,-130.404"/>
</g>
<!-- Node17&#45;&gt;Node12 -->
<g id="edge29" class="edge"><title>Node17&#45;&gt;Node12</title>
<path fill="none" stroke="midnightblue" d="M508.846,-224.444C550.973,-215.043 618.706,-199.929 664.372,-189.739"/>
<polygon fill="midnightblue" stroke="midnightblue" points="665.336,-193.11 674.334,-187.516 663.812,-186.278 665.336,-193.11"/>
</g>
<!-- Node17&#45;&gt;Node16 -->
<g id="edge30" class="edge"><title>Node17&#45;&gt;Node16</title>
<path fill="none" stroke="midnightblue" d="M451.486,-224.444C431.912,-215.636 401.192,-201.812 378.771,-191.722"/>
<polygon fill="midnightblue" stroke="midnightblue" points="379.981,-188.428 369.425,-187.516 377.108,-194.812 379.981,-188.428"/>
</g>
<!-- Node18&#45;&gt;Node5 -->
<g id="edge32" class="edge"><title>Node18&#45;&gt;Node5</title>
<path fill="none" stroke="midnightblue" d="M112.669,-168.323C129.145,-145.844 176.679,-85.4251 231.5,-56 277.124,-31.5114 335.265,-20.344 377.968,-15.2543"/>
<polygon fill="midnightblue" stroke="midnightblue" points="378.376,-18.7306 387.926,-14.1437 377.6,-11.7737 378.376,-18.7306"/>
</g>
<!-- Node18&#45;&gt;Node6 -->
<g id="edge33" class="edge"><title>Node18&#45;&gt;Node6</title>
<path fill="none" stroke="midnightblue" d="M131.694,-168.444C158.443,-159.359 200.903,-144.939 230.805,-134.783"/>
<polygon fill="midnightblue" stroke="midnightblue" points="232.081,-138.046 240.424,-131.516 229.829,-131.418 232.081,-138.046"/>
</g>
</g>
</svg>
        <g id="navigator" transform="translate(0 0)" fill="#404254">
                <rect fill="#f2f5e9" fill-opacity="0.5" stroke="#606060" stroke-width=".5" x="0" y="0" width="60" height="60"/>
                <use id="zoomplus" xlink:href="#zoomPlus" x="17" y="9" onmousedown="handleZoom(evt,'in')"/>
                <use id="zoomminus" xlink:href="#zoomMin" x="42" y="9" onmousedown="handleZoom(evt,'out')"/>
                <use id="reset" xlink:href="#resetDef" x="30" y="36" onmousedown="handleReset()"/>
                <g id="arrowUp" xlink:href="#dirArrow" transform="translate(30 24)" onmousedown="handlePan(0,-1)">
                  <use xlink:href="#rim" fill="#404040">
                        <set attributeName="fill" to="#808080" begin="arrowUp.mouseover" end="arrowUp.mouseout"/>
                  </use>
                  <path fill="none" stroke="white" stroke-width="1.5" d="M0,-3.0v7 M-2.5,-0.5L0,-3.0L2.5,-0.5"/>
                </g>
                <g id="arrowRight" xlink:href="#dirArrow" transform="rotate(90) translate(36 -43)" onmousedown="handlePan(1,0)">
                  <use xlink:href="#rim" fill="#404040">
                        <set attributeName="fill" to="#808080" begin="arrowRight.mouseover" end="arrowRight.mouseout"/>
                  </use>
                  <path fill="none" stroke="white" stroke-width="1.5" d="M0,-3.0v7 M-2.5,-0.5L0,-3.0L2.5,-0.5"/>
                </g>
                <g id="arrowDown" xlink:href="#dirArrow" transform="rotate(180) translate(-30 -48)" onmousedown="handlePan(0,1)">
                  <use xlink:href="#rim" fill="#404040">
                        <set attributeName="fill" to="#808080" begin="arrowDown.mouseover" end="arrowDown.mouseout"/>
                  </use>
                  <path fill="none" stroke="white" stroke-width="1.5" d="M0,-3.0v7 M-2.5,-0.5L0,-3.0L2.5,-0.5"/>
                </g>
                <g id="arrowLeft" xlink:href="#dirArrow" transform="rotate(270) translate(-36 17)" onmousedown="handlePan(-1,0)">
                  <use xlink:href="#rim" fill="#404040">
                        <set attributeName="fill" to="#808080" begin="arrowLeft.mouseover" end="arrowLeft.mouseout"/>
                  </use>
                  <path fill="none" stroke="white" stroke-width="1.5" d="M0,-3.0v7 M-2.5,-0.5L0,-3.0L2.5,-0.5"/>
                </g>
        </g>
        <svg viewBox="0 0 15 15" width="100%" height="30px" preserveAspectRatio="xMaxYMin meet">
         <g id="arrow_out" transform="scale(0.3 0.3)">
          <a xlink:href="downloader_8hpp__incl_org.svg" target="_base">
           <rect id="button" ry="5" rx="5" y="6" x="6" height="38" width="38"
                fill="#f2f5e9" fill-opacity="0.5" stroke="#606060" stroke-width="1.0"/>
           <path id="arrow"
             d="M 11.500037,31.436501 C 11.940474,20.09759 22.043105,11.32322 32.158766,21.979434 L 37.068811,17.246167 C 37.068811,17.246167 37.088388,32 37.088388,32 L 22.160133,31.978069 C 22.160133,31.978069 26.997745,27.140456 26.997745,27.140456 C 18.528582,18.264221 13.291696,25.230495 11.500037,31.436501 z"
             style="fill:#404040;"/>
          </a>
         </g>
        </svg>
</svg>
