<?xml version="1.0" encoding="UTF-8" standalone="no"?>
<!DOCTYPE svg PUBLIC "-//W3C//DTD SVG 1.1//EN"
 "http://www.w3.org/Graphics/SVG/1.1/DTD/svg11.dtd">
<!-- Generated by graphviz version 2.38.0 (20140413.2041)
 -->
<!-- Title: include/karazeh/exception.hpp Pages: 1 -->
<svg width="330pt" height="84pt"
 viewBox="0.00 0.00 330.00 84.00" xmlns="http://www.w3.org/2000/svg" xmlns:xlink="http://www.w3.org/1999/xlink">
<g id="graph0" class="graph" transform="scale(1 1) rotate(0) translate(4 80)">
<title>include/karazeh/exception.hpp</title>
<polygon fill="white" stroke="none" points="-4,4 -4,-80 326,-80 326,4 -4,4"/>
<!-- Node1 -->
<g id="node1" class="node"><title>Node1</title>
<polygon fill="#bfbfbf" stroke="black" points="58.5,-56.5 58.5,-75.5 218.5,-75.5 218.5,-56.5 58.5,-56.5"/>
<text text-anchor="middle" x="138.5" y="-63.5" font-family="Ubuntu Regular" font-size="10.00">include/karazeh/exception.hpp</text>
</g>
<!-- Node2 -->
<g id="node2" class="node"><title>Node2</title>
<polygon fill="white" stroke="#bfbfbf" points="0,-0.5 0,-19.5 63,-19.5 63,-0.5 0,-0.5"/>
<text text-anchor="middle" x="31.5" y="-7.5" font-family="Ubuntu Regular" font-size="10.00">exception</text>
</g>
<!-- Node1&#45;&gt;Node2 -->
<g id="edge1" class="edge"><title>Node1&#45;&gt;Node2</title>
<path fill="none" stroke="midnightblue" d="M121.309,-56.324C104.149,-47.6641 77.5543,-34.2424 57.7527,-24.249"/>
<polygon fill="midnightblue" stroke="midnightblue" points="59.1532,-21.0354 48.6487,-19.6545 55.9993,-27.2847 59.1532,-21.0354"/>
</g>
<!-- Node3 -->
<g id="node3" class="node"><title>Node3</title>
<polygon fill="white" stroke="#bfbfbf" points="81,-0.5 81,-19.5 124,-19.5 124,-0.5 81,-0.5"/>
<text text-anchor="middle" x="102.5" y="-7.5" font-family="Ubuntu Regular" font-size="10.00">string</text>
</g>
<!-- Node1&#45;&gt;Node3 -->
<g id="edge2" class="edge"><title>Node1&#45;&gt;Node3</title>
<path fill="none" stroke="midnightblue" d="M132.555,-56.083C127.523,-48.5341 120.163,-37.4948 113.987,-28.2298"/>
<polygon fill="midnightblue" stroke="midnightblue" points="116.793,-26.1301 108.334,-19.7511 110.969,-30.0131 116.793,-26.1301"/>
</g>
<!-- Node4 -->
<g id="node4" class="node"><title>Node4</title>
<polygon fill="white" stroke="#bfbfbf" points="142,-0.5 142,-19.5 207,-19.5 207,-0.5 142,-0.5"/>
<text text-anchor="middle" x="174.5" y="-7.5" font-family="Ubuntu Regular" font-size="10.00">stdexcept</text>
</g>
<!-- Node1&#45;&gt;Node4 -->
<g id="edge3" class="edge"><title>Node1&#45;&gt;Node4</title>
<path fill="none" stroke="midnightblue" d="M144.445,-56.083C149.477,-48.5341 156.837,-37.4948 163.013,-28.2298"/>
<polygon fill="midnightblue" stroke="midnightblue" points="166.031,-30.0131 168.666,-19.7511 160.207,-26.1301 166.031,-30.0131"/>
</g>
<!-- Node5 -->
<g id="node5" class="node"><title>Node5</title>
<polygon fill="white" stroke="#bfbfbf" points="225,-0.5 225,-19.5 322,-19.5 322,-0.5 225,-0.5"/>
<text text-anchor="middle" x="273.5" y="-7.5" font-family="Ubuntu Regular" font-size="10.00">karazeh_export.h</text>
</g>
<!-- Node1&#45;&gt;Node5 -->
<g id="edge4" class="edge"><title>Node1&#45;&gt;Node5</title>
<path fill="none" stroke="midnightblue" d="M159.891,-56.4435C182.207,-47.5171 217.403,-33.4387 242.708,-23.3168"/>
<polygon fill="midnightblue" stroke="midnightblue" points="244.224,-26.4801 252.209,-19.5164 241.624,-19.9807 244.224,-26.4801"/>
</g>
</g>
</svg>
