<?xml version="1.0" encoding="UTF-8" standalone="no"?>
<!DOCTYPE svg PUBLIC "-//W3C//DTD SVG 1.1//EN"
 "http://www.w3.org/Graphics/SVG/1.1/DTD/svg11.dtd">
<!-- Generated by graphviz version 2.38.0 (20140413.2041)
 -->
<!-- Title: src/file_manager.cpp Pages: 1 -->
<!--zoomable 308 -->
<svg id="main" version="1.1" xmlns="http://www.w3.org/2000/svg" xmlns:xlink="http://www.w3.org/1999/xlink" xml:space="preserve" onload="init(evt)">
<style type="text/css"><![CDATA[
.edge:hover path { stroke: red; }
.edge:hover polygon { stroke: red; fill: red; }
]]></style>
<script type="text/javascript"><![CDATA[
var edges = document.getElementsByTagName('g');
if (edges && edges.length) {
  for (var i=0;i<edges.length;i++) {
    if (edges[i].id.substr(0,4)=='edge') {
      edges[i].setAttribute('class','edge');
    }
  }
}
]]></script>
        <defs>
                <circle id="rim" cx="0" cy="0" r="7"/>
                <circle id="rim2" cx="0" cy="0" r="3.5"/>
                <g id="zoomPlus">
                        <use xlink:href="#rim" fill="#404040">
                                <set attributeName="fill" to="#808080" begin="zoomplus.mouseover" end="zoomplus.mouseout"/>
                        </use>
                        <path d="M-4,0h8M0,-4v8" fill="none" stroke="white" stroke-width="1.5" pointer-events="none"/>
                </g>
                <g id="zoomMin">
                        <use xlink:href="#rim" fill="#404040">
                                <set attributeName="fill" to="#808080" begin="zoomminus.mouseover" end="zoomminus.mouseout"/>
                        </use>
                        <path d="M-4,0h8" fill="none" stroke="white" stroke-width="1.5" pointer-events="none"/>
                </g>
                <g id="dirArrow">
                        <path fill="none" stroke="white" stroke-width="1.5" d="M0,-3.0v7 M-2.5,-0.5L0,-3.0L2.5,-0.5"/>
                </g>
               <g id="resetDef">
                       <use xlink:href="#rim2" fill="#404040">
                               <set attributeName="fill" to="#808080" begin="reset.mouseover" end="reset.mouseout"/>
                       </use>
               </g>
        </defs>

<script type="text/javascript">
var viewWidth = 622;
var viewHeight = 308;
var sectionId = 'dynsection-0';
</script>
<script xlink:href="svgpan.js"/>
<svg id="graph" class="graph">
<g id="viewport">
<title>src/file_manager.cpp</title>
<polygon fill="white" stroke="none" points="-4,4 -4,-304 618.192,-304 618.192,4 -4,4"/>
<!-- Node1 -->
<g id="node1" class="node"><title>Node1</title>
<polygon fill="#bfbfbf" stroke="black" points="195.5,-280.5 195.5,-299.5 307.5,-299.5 307.5,-280.5 195.5,-280.5"/>
<text text-anchor="middle" x="251.5" y="-287.5" font-family="Ubuntu Regular" font-size="10.00">src/file_manager.cpp</text>
</g>
<!-- Node2 -->
<g id="node2" class="node"><title>Node2</title>
<g id="a_node2"><a xlink:href="file__manager_8hpp.html" target="_top" xlink:title="karazeh/file_manager.hpp">
<polygon fill="white" stroke="black" points="184,-224.5 184,-243.5 319,-243.5 319,-224.5 184,-224.5"/>
<text text-anchor="middle" x="251.5" y="-231.5" font-family="Ubuntu Regular" font-size="10.00">karazeh/file_manager.hpp</text>
</a>
</g>
</g>
<!-- Node1&#45;&gt;Node2 -->
<g id="edge1" class="edge"><title>Node1&#45;&gt;Node2</title>
<path fill="none" stroke="midnightblue" d="M251.5,-280.083C251.5,-273.006 251.5,-262.861 251.5,-253.986"/>
<polygon fill="midnightblue" stroke="midnightblue" points="255,-253.751 251.5,-243.751 248,-253.751 255,-253.751"/>
</g>
<!-- Node3 -->
<g id="node3" class="node"><title>Node3</title>
<polygon fill="white" stroke="#bfbfbf" points="0,-168.5 0,-187.5 63,-187.5 63,-168.5 0,-168.5"/>
<text text-anchor="middle" x="31.5" y="-175.5" font-family="Ubuntu Regular" font-size="10.00">curl/curl.h</text>
</g>
<!-- Node2&#45;&gt;Node3 -->
<g id="edge2" class="edge"><title>Node2&#45;&gt;Node3</title>
<path fill="none" stroke="midnightblue" d="M216.64,-224.444C177.688,-214.883 114.657,-199.411 73.1435,-189.222"/>
<polygon fill="midnightblue" stroke="midnightblue" points="73.8854,-185.8 63.3393,-186.815 72.2167,-192.598 73.8854,-185.8"/>
</g>
<!-- Node4 -->
<g id="node4" class="node"><title>Node4</title>
<polygon fill="white" stroke="#bfbfbf" points="33.5,-56.5 33.5,-75.5 149.5,-75.5 149.5,-56.5 33.5,-56.5"/>
<text text-anchor="middle" x="91.5" y="-63.5" font-family="Ubuntu Regular" font-size="10.00">boost/filesystem.hpp</text>
</g>
<!-- Node2&#45;&gt;Node4 -->
<g id="edge3" class="edge"><title>Node2&#45;&gt;Node4</title>
<path fill="none" stroke="midnightblue" d="M183.816,-226.641C157.259,-220.68 128.815,-209.36 110.5,-188 85.7825,-159.174 86.3035,-111.687 88.8797,-85.599"/>
<polygon fill="midnightblue" stroke="midnightblue" points="92.3688,-85.8987 90.0833,-75.5533 85.4185,-85.0659 92.3688,-85.8987"/>
</g>
<!-- Node5 -->
<g id="node5" class="node"><title>Node5</title>
<polygon fill="white" stroke="#bfbfbf" points="119.5,-168.5 119.5,-187.5 223.5,-187.5 223.5,-168.5 119.5,-168.5"/>
<text text-anchor="middle" x="171.5" y="-175.5" font-family="Ubuntu Regular" font-size="10.00">binreloc/binreloc.h</text>
</g>
<!-- Node2&#45;&gt;Node5 -->
<g id="edge4" class="edge"><title>Node2&#45;&gt;Node5</title>
<path fill="none" stroke="midnightblue" d="M238.647,-224.324C226.284,-215.979 207.37,-203.212 192.763,-193.352"/>
<polygon fill="midnightblue" stroke="midnightblue" points="194.568,-190.348 184.321,-187.655 190.652,-196.15 194.568,-190.348"/>
</g>
<!-- Node6 -->
<g id="node6" class="node"><title>Node6</title>
<polygon fill="white" stroke="#bfbfbf" points="449,-0.5 449,-19.5 546,-19.5 546,-0.5 449,-0.5"/>
<text text-anchor="middle" x="497.5" y="-7.5" font-family="Ubuntu Regular" font-size="10.00">karazeh_export.h</text>
</g>
<!-- Node2&#45;&gt;Node6 -->
<g id="edge5" class="edge"><title>Node2&#45;&gt;Node6</title>
<path fill="none" stroke="midnightblue" d="M319.242,-229.485C375.331,-224.774 456.269,-213.755 522.5,-188 565.01,-171.469 586.761,-172.097 608.5,-132 633.217,-86.4101 566.754,-44.5126 526.217,-24.0811"/>
<polygon fill="midnightblue" stroke="midnightblue" points="527.549,-20.8365 517.028,-19.5902 524.476,-27.1257 527.549,-20.8365"/>
</g>
<!-- Node7 -->
<g id="node7" class="node"><title>Node7</title>
<g id="a_node7"><a xlink:href="karazeh_8hpp.html" target="_top" xlink:title="karazeh/karazeh.hpp">
<polygon fill="white" stroke="black" points="192,-112.5 192,-131.5 305,-131.5 305,-112.5 192,-112.5"/>
<text text-anchor="middle" x="248.5" y="-119.5" font-family="Ubuntu Regular" font-size="10.00">karazeh/karazeh.hpp</text>
</a>
</g>
</g>
<!-- Node2&#45;&gt;Node7 -->
<g id="edge6" class="edge"><title>Node2&#45;&gt;Node7</title>
<path fill="none" stroke="midnightblue" d="M251.265,-224.368C250.78,-206.617 249.664,-165.666 249.007,-141.597"/>
<polygon fill="midnightblue" stroke="midnightblue" points="252.506,-141.492 248.734,-131.591 245.508,-141.683 252.506,-141.492"/>
</g>
<!-- Node13 -->
<g id="node13" class="node"><title>Node13</title>
<g id="a_node13"><a xlink:href="logger_8hpp.html" target="_top" xlink:title="karazeh/logger.hpp">
<polygon fill="white" stroke="black" points="407,-168.5 407,-187.5 514,-187.5 514,-168.5 407,-168.5"/>
<text text-anchor="middle" x="460.5" y="-175.5" font-family="Ubuntu Regular" font-size="10.00">karazeh/logger.hpp</text>
</a>
</g>
</g>
<!-- Node2&#45;&gt;Node13 -->
<g id="edge15" class="edge"><title>Node2&#45;&gt;Node13</title>
<path fill="none" stroke="midnightblue" d="M284.617,-224.444C320.618,-215.142 378.27,-200.246 417.686,-190.062"/>
<polygon fill="midnightblue" stroke="midnightblue" points="418.732,-193.407 427.538,-187.516 416.981,-186.629 418.732,-193.407"/>
</g>
<!-- Node17 -->
<g id="node17" class="node"><title>Node17</title>
<g id="a_node17"><a xlink:href="hasher_8hpp.html" target="_top" xlink:title="karazeh/hasher.hpp">
<polygon fill="white" stroke="black" points="280,-168.5 280,-187.5 387,-187.5 387,-168.5 280,-168.5"/>
<text text-anchor="middle" x="333.5" y="-175.5" font-family="Ubuntu Regular" font-size="10.00">karazeh/hasher.hpp</text>
</a>
</g>
</g>
<!-- Node2&#45;&gt;Node17 -->
<g id="edge21" class="edge"><title>Node2&#45;&gt;Node17</title>
<path fill="none" stroke="midnightblue" d="M264.675,-224.324C277.347,-215.979 296.733,-203.212 311.706,-193.352"/>
<polygon fill="midnightblue" stroke="midnightblue" points="313.931,-196.078 320.358,-187.655 310.081,-190.231 313.931,-196.078"/>
</g>
<!-- Node7&#45;&gt;Node4 -->
<g id="edge9" class="edge"><title>Node7&#45;&gt;Node4</title>
<path fill="none" stroke="midnightblue" d="M223.623,-112.444C197.211,-103.359 155.285,-88.9388 125.758,-78.7831"/>
<polygon fill="midnightblue" stroke="midnightblue" points="126.855,-75.4593 116.261,-75.5164 124.579,-82.0787 126.855,-75.4593"/>
</g>
<!-- Node8 -->
<g id="node8" class="node"><title>Node8</title>
<polygon fill="white" stroke="#bfbfbf" points="158,-0.5 158,-19.5 201,-19.5 201,-0.5 158,-0.5"/>
<text text-anchor="middle" x="179.5" y="-7.5" font-family="Ubuntu Regular" font-size="10.00">string</text>
</g>
<!-- Node7&#45;&gt;Node8 -->
<g id="edge7" class="edge"><title>Node7&#45;&gt;Node8</title>
<path fill="none" stroke="midnightblue" d="M234.474,-112.383C222.622,-104.383 206.087,-91.4076 196.5,-76 187.738,-61.9185 183.465,-43.4273 181.397,-29.769"/>
<polygon fill="midnightblue" stroke="midnightblue" points="184.844,-29.1235 180.129,-19.6355 177.898,-29.9928 184.844,-29.1235"/>
</g>
<!-- Node9 -->
<g id="node9" class="node"><title>Node9</title>
<polygon fill="white" stroke="#bfbfbf" points="205.5,-56.5 205.5,-75.5 255.5,-75.5 255.5,-56.5 205.5,-56.5"/>
<text text-anchor="middle" x="230.5" y="-63.5" font-family="Ubuntu Regular" font-size="10.00">cassert</text>
</g>
<!-- Node7&#45;&gt;Node9 -->
<g id="edge8" class="edge"><title>Node7&#45;&gt;Node9</title>
<path fill="none" stroke="midnightblue" d="M245.528,-112.083C243.116,-104.849 239.636,-94.4087 236.632,-85.3968"/>
<polygon fill="midnightblue" stroke="midnightblue" points="239.9,-84.1311 233.417,-75.7511 233.259,-86.3447 239.9,-84.1311"/>
</g>
<!-- Node10 -->
<g id="node10" class="node"><title>Node10</title>
<g id="a_node10"><a xlink:href="exception_8hpp.html" target="_top" xlink:title="karazeh/exception.hpp">
<polygon fill="white" stroke="black" points="274,-56.5 274,-75.5 397,-75.5 397,-56.5 274,-56.5"/>
<text text-anchor="middle" x="335.5" y="-63.5" font-family="Ubuntu Regular" font-size="10.00">karazeh/exception.hpp</text>
</a>
</g>
</g>
<!-- Node7&#45;&gt;Node10 -->
<g id="edge10" class="edge"><title>Node7&#45;&gt;Node10</title>
<path fill="none" stroke="midnightblue" d="M262.478,-112.324C276.05,-103.9 296.88,-90.9709 312.825,-81.0741"/>
<polygon fill="midnightblue" stroke="midnightblue" points="314.906,-83.9019 321.557,-75.6545 311.214,-77.9544 314.906,-83.9019"/>
</g>
<!-- Node10&#45;&gt;Node6 -->
<g id="edge14" class="edge"><title>Node10&#45;&gt;Node6</title>
<path fill="none" stroke="midnightblue" d="M361.169,-56.4435C388.423,-47.3591 431.684,-32.9388 462.151,-22.7831"/>
<polygon fill="midnightblue" stroke="midnightblue" points="463.571,-25.9992 471.951,-19.5164 461.357,-19.3584 463.571,-25.9992"/>
</g>
<!-- Node10&#45;&gt;Node8 -->
<g id="edge12" class="edge"><title>Node10&#45;&gt;Node8</title>
<path fill="none" stroke="midnightblue" d="M310.781,-56.4435C283.729,-47.0794 240.298,-32.0456 210.866,-21.8574"/>
<polygon fill="midnightblue" stroke="midnightblue" points="211.683,-18.4367 201.089,-18.473 209.394,-25.0516 211.683,-18.4367"/>
</g>
<!-- Node11 -->
<g id="node11" class="node"><title>Node11</title>
<polygon fill="white" stroke="#bfbfbf" points="243,-0.5 243,-19.5 306,-19.5 306,-0.5 243,-0.5"/>
<text text-anchor="middle" x="274.5" y="-7.5" font-family="Ubuntu Regular" font-size="10.00">exception</text>
</g>
<!-- Node10&#45;&gt;Node11 -->
<g id="edge11" class="edge"><title>Node10&#45;&gt;Node11</title>
<path fill="none" stroke="midnightblue" d="M325.699,-56.324C316.682,-48.3414 303.094,-36.3128 292.182,-26.6529"/>
<polygon fill="midnightblue" stroke="midnightblue" points="294.287,-23.8416 284.479,-19.8339 289.647,-29.083 294.287,-23.8416"/>
</g>
<!-- Node12 -->
<g id="node12" class="node"><title>Node12</title>
<polygon fill="white" stroke="#bfbfbf" points="324,-0.5 324,-19.5 389,-19.5 389,-0.5 324,-0.5"/>
<text text-anchor="middle" x="356.5" y="-7.5" font-family="Ubuntu Regular" font-size="10.00">stdexcept</text>
</g>
<!-- Node10&#45;&gt;Node12 -->
<g id="edge13" class="edge"><title>Node10&#45;&gt;Node12</title>
<path fill="none" stroke="midnightblue" d="M338.968,-56.083C341.812,-48.77 345.929,-38.1814 349.46,-29.1034"/>
<polygon fill="midnightblue" stroke="midnightblue" points="352.734,-30.3397 353.097,-19.7511 346.21,-27.8025 352.734,-30.3397"/>
</g>
<!-- Node13&#45;&gt;Node6 -->
<g id="edge19" class="edge"><title>Node13&#45;&gt;Node6</title>
<path fill="none" stroke="midnightblue" d="M471.214,-168.305C480.438,-160.069 493.091,-146.789 498.5,-132 511.083,-97.5952 506.06,-53.9171 501.577,-29.5635"/>
<polygon fill="midnightblue" stroke="midnightblue" points="504.968,-28.6714 499.56,-19.5604 498.106,-30.0549 504.968,-28.6714"/>
</g>
<!-- Node13&#45;&gt;Node7 -->
<g id="edge20" class="edge"><title>Node13&#45;&gt;Node7</title>
<path fill="none" stroke="midnightblue" d="M426.908,-168.444C390.313,-159.122 331.662,-144.183 291.674,-133.997"/>
<polygon fill="midnightblue" stroke="midnightblue" points="292.489,-130.593 281.935,-131.516 290.761,-137.377 292.489,-130.593"/>
</g>
<!-- Node14 -->
<g id="node14" class="node"><title>Node14</title>
<polygon fill="white" stroke="#bfbfbf" points="547,-112.5 547,-131.5 600,-131.5 600,-112.5 547,-112.5"/>
<text text-anchor="middle" x="573.5" y="-119.5" font-family="Ubuntu Regular" font-size="10.00">sstream</text>
</g>
<!-- Node13&#45;&gt;Node14 -->
<g id="edge16" class="edge"><title>Node13&#45;&gt;Node14</title>
<path fill="none" stroke="midnightblue" d="M478.405,-168.444C496.754,-159.675 525.505,-145.935 546.594,-135.858"/>
<polygon fill="midnightblue" stroke="midnightblue" points="548.165,-138.986 555.679,-131.516 545.147,-132.67 548.165,-138.986"/>
</g>
<!-- Node15 -->
<g id="node15" class="node"><title>Node15</title>
<polygon fill="white" stroke="#bfbfbf" points="362,-112.5 362,-131.5 415,-131.5 415,-112.5 362,-112.5"/>
<text text-anchor="middle" x="388.5" y="-119.5" font-family="Ubuntu Regular" font-size="10.00">fstream</text>
</g>
<!-- Node13&#45;&gt;Node15 -->
<g id="edge17" class="edge"><title>Node13&#45;&gt;Node15</title>
<path fill="none" stroke="midnightblue" d="M448.932,-168.324C438.08,-160.185 421.619,-147.839 408.617,-138.087"/>
<polygon fill="midnightblue" stroke="midnightblue" points="410.379,-135.034 400.279,-131.834 406.179,-140.634 410.379,-135.034"/>
</g>
<!-- Node16 -->
<g id="node16" class="node"><title>Node16</title>
<polygon fill="white" stroke="#bfbfbf" points="433,-112.5 433,-131.5 490,-131.5 490,-112.5 433,-112.5"/>
<text text-anchor="middle" x="461.5" y="-119.5" font-family="Ubuntu Regular" font-size="10.00">iostream</text>
</g>
<!-- Node13&#45;&gt;Node16 -->
<g id="edge18" class="edge"><title>Node13&#45;&gt;Node16</title>
<path fill="none" stroke="midnightblue" d="M460.665,-168.083C460.796,-161.006 460.984,-150.861 461.148,-141.986"/>
<polygon fill="midnightblue" stroke="midnightblue" points="464.652,-141.814 461.338,-131.751 457.653,-141.685 464.652,-141.814"/>
</g>
<!-- Node17&#45;&gt;Node6 -->
<g id="edge22" class="edge"><title>Node17&#45;&gt;Node6</title>
<path fill="none" stroke="midnightblue" d="M334.188,-168.183C335.616,-154.854 339.906,-129.299 352.5,-112 369.259,-88.9785 382.093,-92.2164 405.5,-76 430.229,-58.8681 458.457,-38.8554 477.051,-25.6099"/>
<polygon fill="midnightblue" stroke="midnightblue" points="479.238,-28.3493 485.347,-19.6934 475.173,-22.6501 479.238,-28.3493"/>
</g>
<!-- Node17&#45;&gt;Node7 -->
<g id="edge23" class="edge"><title>Node17&#45;&gt;Node7</title>
<path fill="none" stroke="midnightblue" d="M319.843,-168.324C306.584,-159.9 286.232,-146.971 270.654,-137.074"/>
<polygon fill="midnightblue" stroke="midnightblue" points="272.44,-134.063 262.123,-131.655 268.687,-139.971 272.44,-134.063"/>
</g>
</g>
</svg>
        <g id="navigator" transform="translate(0 0)" fill="#404254">
                <rect fill="#f2f5e9" fill-opacity="0.5" stroke="#606060" stroke-width=".5" x="0" y="0" width="60" height="60"/>
                <use id="zoomplus" xlink:href="#zoomPlus" x="17" y="9" onmousedown="handleZoom(evt,'in')"/>
                <use id="zoomminus" xlink:href="#zoomMin" x="42" y="9" onmousedown="handleZoom(evt,'out')"/>
                <use id="reset" xlink:href="#resetDef" x="30" y="36" onmousedown="handleReset()"/>
                <g id="arrowUp" xlink:href="#dirArrow" transform="translate(30 24)" onmousedown="handlePan(0,-1)">
                  <use xlink:href="#rim" fill="#404040">
                        <set attributeName="fill" to="#808080" begin="arrowUp.mouseover" end="arrowUp.mouseout"/>
                  </use>
                  <path fill="none" stroke="white" stroke-width="1.5" d="M0,-3.0v7 M-2.5,-0.5L0,-3.0L2.5,-0.5"/>
                </g>
                <g id="arrowRight" xlink:href="#dirArrow" transform="rotate(90) translate(36 -43)" onmousedown="handlePan(1,0)">
                  <use xlink:href="#rim" fill="#404040">
                        <set attributeName="fill" to="#808080" begin="arrowRight.mouseover" end="arrowRight.mouseout"/>
                  </use>
                  <path fill="none" stroke="white" stroke-width="1.5" d="M0,-3.0v7 M-2.5,-0.5L0,-3.0L2.5,-0.5"/>
                </g>
                <g id="arrowDown" xlink:href="#dirArrow" transform="rotate(180) translate(-30 -48)" onmousedown="handlePan(0,1)">
                  <use xlink:href="#rim" fill="#404040">
                        <set attributeName="fill" to="#808080" begin="arrowDown.mouseover" end="arrowDown.mouseout"/>
                  </use>
                  <path fill="none" stroke="white" stroke-width="1.5" d="M0,-3.0v7 M-2.5,-0.5L0,-3.0L2.5,-0.5"/>
                </g>
                <g id="arrowLeft" xlink:href="#dirArrow" transform="rotate(270) translate(-36 17)" onmousedown="handlePan(-1,0)">
                  <use xlink:href="#rim" fill="#404040">
                        <set attributeName="fill" to="#808080" begin="arrowLeft.mouseover" end="arrowLeft.mouseout"/>
                  </use>
                  <path fill="none" stroke="white" stroke-width="1.5" d="M0,-3.0v7 M-2.5,-0.5L0,-3.0L2.5,-0.5"/>
                </g>
        </g>
        <svg viewBox="0 0 15 15" width="100%" height="30px" preserveAspectRatio="xMaxYMin meet">
         <g id="arrow_out" transform="scale(0.3 0.3)">
          <a xlink:href="file__manager_8cpp__incl_org.svg" target="_base">
           <rect id="button" ry="5" rx="5" y="6" x="6" height="38" width="38"
                fill="#f2f5e9" fill-opacity="0.5" stroke="#606060" stroke-width="1.0"/>
           <path id="arrow"
             d="M 11.500037,31.436501 C 11.940474,20.09759 22.043105,11.32322 32.158766,21.979434 L 37.068811,17.246167 C 37.068811,17.246167 37.088388,32 37.088388,32 L 22.160133,31.978069 C 22.160133,31.978069 26.997745,27.140456 26.997745,27.140456 C 18.528582,18.264221 13.291696,25.230495 11.500037,31.436501 z"
             style="fill:#404040;"/>
          </a>
         </g>
        </svg>
</svg>
