<?xml version="1.0" encoding="UTF-8" standalone="no"?>
<!DOCTYPE svg PUBLIC "-//W3C//DTD SVG 1.1//EN"
 "http://www.w3.org/Graphics/SVG/1.1/DTD/svg11.dtd">
<!-- Generated by graphviz version 2.38.0 (20140413.2041)
 -->
<!-- Title: include/karazeh/file_manager.hpp Pages: 1 -->
<svg width="1304pt" height="374pt"
 viewBox="0.00 0.00 1303.63 374.00" xmlns="http://www.w3.org/2000/svg" xmlns:xlink="http://www.w3.org/1999/xlink">
<g id="graph0" class="graph" transform="scale(1 1) rotate(0) translate(4 370)">
<title>include/karazeh/file_manager.hpp</title>
<polygon fill="white" stroke="none" points="-4,4 -4,-370 1299.63,-370 1299.63,4 -4,4"/>
<!-- Node1 -->
<g id="node1" class="node"><title>Node1</title>
<polygon fill="#bfbfbf" stroke="black" points="616.629,-335.5 616.629,-365.5 724.629,-365.5 724.629,-335.5 616.629,-335.5"/>
<text text-anchor="start" x="624.629" y="-353.5" font-family="Ubuntu Regular" font-size="10.00">include/karazeh/file</text>
<text text-anchor="middle" x="670.629" y="-342.5" font-family="Ubuntu Regular" font-size="10.00">_manager.hpp</text>
</g>
<!-- Node2 -->
<g id="node2" class="node"><title>Node2</title>
<g id="a_node2"><a xlink:href="delta__encoder_8hpp.html" target="_top" xlink:title="include/karazeh/delta\l_encoder.hpp">
<polygon fill="white" stroke="black" points="196.629,-268.5 196.629,-298.5 314.629,-298.5 314.629,-268.5 196.629,-268.5"/>
<text text-anchor="start" x="204.629" y="-286.5" font-family="Ubuntu Regular" font-size="10.00">include/karazeh/delta</text>
<text text-anchor="middle" x="255.629" y="-275.5" font-family="Ubuntu Regular" font-size="10.00">_encoder.hpp</text>
</a>
</g>
</g>
<!-- Node1&#45;&gt;Node2 -->
<g id="edge1" class="edge"><title>Node1&#45;&gt;Node2</title>
<path fill="none" stroke="midnightblue" d="M606.472,-339.451C526.865,-326.983 392.212,-305.892 314.926,-293.788"/>
<polygon fill="midnightblue" stroke="midnightblue" points="605.954,-342.913 616.375,-341.002 607.037,-335.997 605.954,-342.913"/>
</g>
<!-- Node4 -->
<g id="node4" class="node"><title>Node4</title>
<g id="a_node4"><a xlink:href="version__manifest_8hpp.html" target="_top" xlink:title="include/karazeh/version\l_manifest.hpp">
<polygon fill="white" stroke="black" points="228.629,-67.5 228.629,-97.5 354.629,-97.5 354.629,-67.5 228.629,-67.5"/>
<text text-anchor="start" x="236.629" y="-85.5" font-family="Ubuntu Regular" font-size="10.00">include/karazeh/version</text>
<text text-anchor="middle" x="291.629" y="-74.5" font-family="Ubuntu Regular" font-size="10.00">_manifest.hpp</text>
</a>
</g>
</g>
<!-- Node1&#45;&gt;Node4 -->
<g id="edge37" class="edge"><title>Node1&#45;&gt;Node4</title>
<path fill="none" stroke="midnightblue" d="M606.094,-349.605C451.752,-348.191 69.6492,-334.253 9.62907,-232 -42.5389,-143.124 130.468,-104.967 228.616,-90.7715"/>
<polygon fill="midnightblue" stroke="midnightblue" points="606.339,-353.107 616.365,-349.684 606.392,-346.107 606.339,-353.107"/>
</g>
<!-- Node9 -->
<g id="node9" class="node"><title>Node9</title>
<g id="a_node9"><a xlink:href="delta__encoder_8test_8cpp.html" target="_top" xlink:title="src/__tests__/delta\l_encoder.test.cpp">
<polygon fill="white" stroke="black" points="18.6291,-201.5 18.6291,-231.5 122.629,-231.5 122.629,-201.5 18.6291,-201.5"/>
<text text-anchor="start" x="26.6291" y="-219.5" font-family="Ubuntu Regular" font-size="10.00">src/__tests__/delta</text>
<text text-anchor="middle" x="70.6291" y="-208.5" font-family="Ubuntu Regular" font-size="10.00">_encoder.test.cpp</text>
</a>
</g>
</g>
<!-- Node1&#45;&gt;Node9 -->
<g id="edge38" class="edge"><title>Node1&#45;&gt;Node9</title>
<path fill="none" stroke="midnightblue" d="M605.958,-346.738C492.552,-341.233 262.72,-326.948 187.629,-299 146.565,-283.716 106.354,-250.607 85.4466,-231.627"/>
<polygon fill="midnightblue" stroke="midnightblue" points="606.076,-350.247 616.231,-347.228 606.409,-343.255 606.076,-350.247"/>
</g>
<!-- Node11 -->
<g id="node11" class="node"><title>Node11</title>
<g id="a_node11"><a xlink:href="downloader_8hpp.html" target="_top" xlink:title="include/karazeh/downloader.hpp">
<polygon fill="white" stroke="black" points="527.129,-274 527.129,-293 694.129,-293 694.129,-274 527.129,-274"/>
<text text-anchor="middle" x="610.629" y="-281" font-family="Ubuntu Regular" font-size="10.00">include/karazeh/downloader.hpp</text>
</a>
</g>
</g>
<!-- Node1&#45;&gt;Node11 -->
<g id="edge10" class="edge"><title>Node1&#45;&gt;Node11</title>
<path fill="none" stroke="midnightblue" d="M650.78,-327.997C639.828,-316.132 626.831,-302.052 618.655,-293.195"/>
<polygon fill="midnightblue" stroke="midnightblue" points="648.255,-330.422 657.61,-335.396 653.399,-325.674 648.255,-330.422"/>
</g>
<!-- Node12 -->
<g id="node12" class="node"><title>Node12</title>
<g id="a_node12"><a xlink:href="operation_8hpp.html" target="_top" xlink:title="include/karazeh/operation.hpp">
<polygon fill="white" stroke="black" points="672.629,-207 672.629,-226 830.629,-226 830.629,-207 672.629,-207"/>
<text text-anchor="middle" x="751.629" y="-214" font-family="Ubuntu Regular" font-size="10.00">include/karazeh/operation.hpp</text>
</a>
</g>
</g>
<!-- Node1&#45;&gt;Node12 -->
<g id="edge35" class="edge"><title>Node1&#45;&gt;Node12</title>
<path fill="none" stroke="midnightblue" d="M685.094,-326.923C690.626,-318.224 696.964,-308.177 702.629,-299 718.933,-272.589 737.717,-241.016 746.545,-226.106"/>
<polygon fill="midnightblue" stroke="midnightblue" points="682.11,-325.093 679.684,-335.407 688.012,-328.857 682.11,-325.093"/>
</g>
<!-- Node19 -->
<g id="node19" class="node"><title>Node19</title>
<g id="a_node19"><a xlink:href="patcher_8hpp.html" target="_top" xlink:title="include/karazeh/patcher.hpp">
<polygon fill="white" stroke="black" points="1131.13,-73 1131.13,-92 1280.13,-92 1280.13,-73 1131.13,-73"/>
<text text-anchor="middle" x="1205.63" y="-80" font-family="Ubuntu Regular" font-size="10.00">include/karazeh/patcher.hpp</text>
</a>
</g>
</g>
<!-- Node1&#45;&gt;Node19 -->
<g id="edge36" class="edge"><title>Node1&#45;&gt;Node19</title>
<path fill="none" stroke="midnightblue" d="M708.072,-330.883C814.064,-278.185 1113.35,-129.38 1188.4,-92.0677"/>
<polygon fill="midnightblue" stroke="midnightblue" points="706.411,-327.8 699.015,-335.386 709.528,-334.068 706.411,-327.8"/>
</g>
<!-- Node24 -->
<g id="node24" class="node"><title>Node24</title>
<g id="a_node24"><a xlink:href="file__manager_8test_8cpp.html" target="_top" xlink:title="src/__tests__/file\l_manager.test.cpp">
<polygon fill="white" stroke="black" points="1064.13,-268.5 1064.13,-298.5 1165.13,-298.5 1165.13,-268.5 1064.13,-268.5"/>
<text text-anchor="start" x="1072.13" y="-286.5" font-family="Ubuntu Regular" font-size="10.00">src/__tests__/file</text>
<text text-anchor="middle" x="1114.63" y="-275.5" font-family="Ubuntu Regular" font-size="10.00">_manager.test.cpp</text>
</a>
</g>
</g>
<!-- Node1&#45;&gt;Node24 -->
<g id="edge39" class="edge"><title>Node1&#45;&gt;Node24</title>
<path fill="none" stroke="midnightblue" d="M735.144,-342.636C810.778,-334.188 939.771,-318.534 1049.63,-299 1054.3,-298.17 1059.14,-297.234 1063.97,-296.247"/>
<polygon fill="midnightblue" stroke="midnightblue" points="734.386,-339.198 724.833,-343.779 735.158,-346.155 734.386,-339.198"/>
</g>
<!-- Node25 -->
<g id="node25" class="node"><title>Node25</title>
<g id="a_node25"><a xlink:href="file__manager_8cpp.html" target="_top" xlink:title="src/file_manager.cpp">
<polygon fill="white" stroke="black" points="1183.63,-274 1183.63,-293 1295.63,-293 1295.63,-274 1183.63,-274"/>
<text text-anchor="middle" x="1239.63" y="-281" font-family="Ubuntu Regular" font-size="10.00">src/file_manager.cpp</text>
</a>
</g>
</g>
<!-- Node1&#45;&gt;Node25 -->
<g id="edge40" class="edge"><title>Node1&#45;&gt;Node25</title>
<path fill="none" stroke="midnightblue" d="M735.126,-345.517C831.294,-339.019 1017.77,-324.261 1174.63,-299 1184.56,-297.401 1195.25,-295.214 1205.03,-293.023"/>
<polygon fill="midnightblue" stroke="midnightblue" points="734.724,-342.036 724.979,-346.194 735.19,-349.02 734.724,-342.036"/>
</g>
<!-- Node3 -->
<g id="node3" class="node"><title>Node3</title>
<g id="a_node3"><a xlink:href="update_8hpp.html" target="_top" xlink:title="include/karazeh/operations\l/update.hpp">
<polygon fill="white" stroke="black" points="358.129,-134.5 358.129,-164.5 501.129,-164.5 501.129,-134.5 358.129,-134.5"/>
<text text-anchor="start" x="366.129" y="-152.5" font-family="Ubuntu Regular" font-size="10.00">include/karazeh/operations</text>
<text text-anchor="middle" x="429.629" y="-141.5" font-family="Ubuntu Regular" font-size="10.00">/update.hpp</text>
</a>
</g>
</g>
<!-- Node2&#45;&gt;Node3 -->
<g id="edge2" class="edge"><title>Node2&#45;&gt;Node3</title>
<path fill="none" stroke="midnightblue" d="M277,-260.95C294.617,-243.74 320.677,-219.523 345.629,-201 364.074,-187.308 386.425,-174.013 403.433,-164.504"/>
<polygon fill="midnightblue" stroke="midnightblue" points="274.193,-258.803 269.534,-268.318 279.11,-263.785 274.193,-258.803"/>
</g>
<!-- Node2&#45;&gt;Node9 -->
<g id="edge8" class="edge"><title>Node2&#45;&gt;Node9</title>
<path fill="none" stroke="midnightblue" d="M205.694,-264.955C175.893,-254.485 138.554,-241.366 110.693,-231.577"/>
<polygon fill="midnightblue" stroke="midnightblue" points="204.892,-268.383 215.487,-268.396 207.212,-261.779 204.892,-268.383"/>
</g>
<!-- Node10 -->
<g id="node10" class="node"><title>Node10</title>
<g id="a_node10"><a xlink:href="delta__encoder_8cpp.html" target="_top" xlink:title="src/delta_encoder.cpp">
<polygon fill="white" stroke="black" points="140.629,-207 140.629,-226 260.629,-226 260.629,-207 140.629,-207"/>
<text text-anchor="middle" x="200.629" y="-214" font-family="Ubuntu Regular" font-size="10.00">src/delta_encoder.cpp</text>
</a>
</g>
</g>
<!-- Node2&#45;&gt;Node10 -->
<g id="edge9" class="edge"><title>Node2&#45;&gt;Node10</title>
<path fill="none" stroke="midnightblue" d="M237.147,-260.657C227.168,-248.865 215.409,-234.967 207.986,-226.195"/>
<polygon fill="midnightblue" stroke="midnightblue" points="234.564,-263.023 243.695,-268.396 239.907,-258.501 234.564,-263.023"/>
</g>
<!-- Node3&#45;&gt;Node4 -->
<g id="edge3" class="edge"><title>Node3&#45;&gt;Node4</title>
<path fill="none" stroke="midnightblue" d="M390.629,-130.131C368.702,-119.802 341.755,-107.11 321.515,-97.5765"/>
<polygon fill="midnightblue" stroke="midnightblue" points="389.147,-133.301 399.685,-134.396 392.13,-126.968 389.147,-133.301"/>
</g>
<!-- Node8 -->
<g id="node8" class="node"><title>Node8</title>
<g id="a_node8"><a xlink:href="update_8cpp.html" target="_top" xlink:title="src/operations/update.cpp">
<polygon fill="white" stroke="black" points="372.629,-73 372.629,-92 512.629,-92 512.629,-73 372.629,-73"/>
<text text-anchor="middle" x="442.629" y="-80" font-family="Ubuntu Regular" font-size="10.00">src/operations/update.cpp</text>
</a>
</g>
</g>
<!-- Node3&#45;&gt;Node8 -->
<g id="edge7" class="edge"><title>Node3&#45;&gt;Node8</title>
<path fill="none" stroke="midnightblue" d="M434.479,-124.25C436.726,-113.017 439.254,-100.377 440.89,-92.1945"/>
<polygon fill="midnightblue" stroke="midnightblue" points="430.979,-123.904 432.45,-134.396 437.843,-125.277 430.979,-123.904"/>
</g>
<!-- Node5 -->
<g id="node5" class="node"><title>Node5</title>
<g id="a_node5"><a xlink:href="patcher_8test_8cpp.html" target="_top" xlink:title="src/__tests__/patcher.test.cpp">
<polygon fill="white" stroke="black" points="716.129,-6 716.129,-25 873.129,-25 873.129,-6 716.129,-6"/>
<text text-anchor="middle" x="794.629" y="-13" font-family="Ubuntu Regular" font-size="10.00">src/__tests__/patcher.test.cpp</text>
</a>
</g>
</g>
<!-- Node4&#45;&gt;Node5 -->
<g id="edge4" class="edge"><title>Node4&#45;&gt;Node5</title>
<path fill="none" stroke="midnightblue" d="M364.824,-66.8886C493.45,-46.7358 631.718,-31.9756 716.11,-23.7455"/>
<polygon fill="midnightblue" stroke="midnightblue" points="364.123,-63.4559 354.792,-68.4746 365.216,-70.37 364.123,-63.4559"/>
</g>
<!-- Node6 -->
<g id="node6" class="node"><title>Node6</title>
<g id="a_node6"><a xlink:href="version__manifest_8test_8cpp.html" target="_top" xlink:title="src/__tests__/version\l_manifest.test.cpp">
<polygon fill="white" stroke="black" points="165.129,-0.5 165.129,-30.5 278.129,-30.5 278.129,-0.5 165.129,-0.5"/>
<text text-anchor="start" x="173.129" y="-18.5" font-family="Ubuntu Regular" font-size="10.00">src/__tests__/version</text>
<text text-anchor="middle" x="221.629" y="-7.5" font-family="Ubuntu Regular" font-size="10.00">_manifest.test.cpp</text>
</a>
</g>
</g>
<!-- Node4&#45;&gt;Node6 -->
<g id="edge5" class="edge"><title>Node4&#45;&gt;Node6</title>
<path fill="none" stroke="midnightblue" d="M268.811,-60.3115C258.31,-50.5612 246.139,-39.259 236.788,-30.5765"/>
<polygon fill="midnightblue" stroke="midnightblue" points="266.731,-63.1562 276.44,-67.396 271.494,-58.0266 266.731,-63.1562"/>
</g>
<!-- Node7 -->
<g id="node7" class="node"><title>Node7</title>
<g id="a_node7"><a xlink:href="version__manifest_8cpp.html" target="_top" xlink:title="src/version_manifest.cpp">
<polygon fill="white" stroke="black" points="296.129,-6 296.129,-25 427.129,-25 427.129,-6 296.129,-6"/>
<text text-anchor="middle" x="361.629" y="-13" font-family="Ubuntu Regular" font-size="10.00">src/version_manifest.cpp</text>
</a>
</g>
</g>
<!-- Node4&#45;&gt;Node7 -->
<g id="edge6" class="edge"><title>Node4&#45;&gt;Node7</title>
<path fill="none" stroke="midnightblue" d="M314.422,-60.335C327.274,-48.401 342.637,-34.1359 352.266,-25.1945"/>
<polygon fill="midnightblue" stroke="midnightblue" points="311.764,-58.0266 306.818,-67.396 316.528,-63.1562 311.764,-58.0266"/>
</g>
<!-- Node11&#45;&gt;Node4 -->
<g id="edge32" class="edge"><title>Node11&#45;&gt;Node4</title>
<path fill="none" stroke="midnightblue" d="M516.547,-273.69C451.46,-265.923 371.998,-252.587 345.629,-232 302.815,-198.574 293.926,-128.02 292.096,-97.7665"/>
<polygon fill="midnightblue" stroke="midnightblue" points="516.522,-277.211 526.86,-274.889 517.331,-270.258 516.522,-277.211"/>
</g>
<!-- Node11&#45;&gt;Node12 -->
<g id="edge11" class="edge"><title>Node11&#45;&gt;Node12</title>
<path fill="none" stroke="midnightblue" d="M638.585,-269.613C666.511,-256.739 708.666,-237.306 732.828,-226.167"/>
<polygon fill="midnightblue" stroke="midnightblue" points="636.969,-266.503 629.353,-273.869 639.9,-272.86 636.969,-266.503"/>
</g>
<!-- Node11&#45;&gt;Node19 -->
<g id="edge31" class="edge"><title>Node11&#45;&gt;Node19</title>
<path fill="none" stroke="midnightblue" d="M676.149,-272.225C722.557,-263.944 785.863,-250.603 839.629,-232 904.439,-209.576 919.698,-200.077 978.629,-165 998.874,-152.95 1000.38,-144.168 1021.63,-134 1064.96,-113.27 1118.23,-99.822 1156.29,-92.0574"/>
<polygon fill="midnightblue" stroke="midnightblue" points="675.462,-268.792 666.217,-273.966 676.671,-275.687 675.462,-268.792"/>
</g>
<!-- Node22 -->
<g id="node22" class="node"><title>Node22</title>
<g id="a_node22"><a xlink:href="downloader_8test_8cpp.html" target="_top" xlink:title="src/__tests__/downloader.test.cpp">
<polygon fill="white" stroke="black" points="354.629,-207 354.629,-226 528.629,-226 528.629,-207 354.629,-207"/>
<text text-anchor="middle" x="441.629" y="-214" font-family="Ubuntu Regular" font-size="10.00">src/__tests__/downloader.test.cpp</text>
</a>
</g>
</g>
<!-- Node11&#45;&gt;Node22 -->
<g id="edge33" class="edge"><title>Node11&#45;&gt;Node22</title>
<path fill="none" stroke="midnightblue" d="M578.833,-270.271C545.291,-257.37 493.306,-237.376 463.895,-226.064"/>
<polygon fill="midnightblue" stroke="midnightblue" points="577.597,-273.545 588.187,-273.869 580.11,-267.012 577.597,-273.545"/>
</g>
<!-- Node23 -->
<g id="node23" class="node"><title>Node23</title>
<g id="a_node23"><a xlink:href="downloader_8cpp.html" target="_top" xlink:title="src/downloader.cpp">
<polygon fill="white" stroke="black" points="547.129,-207 547.129,-226 654.129,-226 654.129,-207 547.129,-207"/>
<text text-anchor="middle" x="600.629" y="-214" font-family="Ubuntu Regular" font-size="10.00">src/downloader.cpp</text>
</a>
</g>
</g>
<!-- Node11&#45;&gt;Node23 -->
<g id="edge34" class="edge"><title>Node11&#45;&gt;Node23</title>
<path fill="none" stroke="midnightblue" d="M607.712,-263.537C605.809,-251.17 603.417,-235.62 601.956,-226.127"/>
<polygon fill="midnightblue" stroke="midnightblue" points="604.3,-264.382 609.28,-273.734 611.219,-263.318 604.3,-264.382"/>
</g>
<!-- Node12&#45;&gt;Node3 -->
<g id="edge19" class="edge"><title>Node12&#45;&gt;Node3</title>
<path fill="none" stroke="midnightblue" d="M699.078,-204.892C644.644,-193.904 559.3,-176.676 499.276,-164.559"/>
<polygon fill="midnightblue" stroke="midnightblue" points="698.707,-208.388 709.202,-206.936 700.092,-201.526 698.707,-208.388"/>
</g>
<!-- Node12&#45;&gt;Node4 -->
<g id="edge30" class="edge"><title>Node12&#45;&gt;Node4</title>
<path fill="none" stroke="midnightblue" d="M691.778,-205.351C682.046,-203.815 672.066,-202.309 662.629,-201 593.06,-191.35 408.967,-200.949 348.629,-165 322.374,-149.358 305.176,-116.385 297.062,-97.5247"/>
<polygon fill="midnightblue" stroke="midnightblue" points="691.369,-208.83 701.796,-206.954 692.475,-201.918 691.369,-208.83"/>
</g>
<!-- Node13 -->
<g id="node13" class="node"><title>Node13</title>
<g id="a_node13"><a xlink:href="create_8hpp.html" target="_top" xlink:title="include/karazeh/operations\l/create.hpp">
<polygon fill="white" stroke="black" points="519.129,-134.5 519.129,-164.5 662.129,-164.5 662.129,-134.5 519.129,-134.5"/>
<text text-anchor="start" x="527.129" y="-152.5" font-family="Ubuntu Regular" font-size="10.00">include/karazeh/operations</text>
<text text-anchor="middle" x="590.629" y="-141.5" font-family="Ubuntu Regular" font-size="10.00">/create.hpp</text>
</a>
</g>
</g>
<!-- Node12&#45;&gt;Node13 -->
<g id="edge12" class="edge"><title>Node12&#45;&gt;Node13</title>
<path fill="none" stroke="midnightblue" d="M720.811,-203.058C693.538,-192.047 653.771,-175.992 625.376,-164.528"/>
<polygon fill="midnightblue" stroke="midnightblue" points="719.666,-206.37 730.25,-206.869 722.287,-199.879 719.666,-206.37"/>
</g>
<!-- Node16 -->
<g id="node16" class="node"><title>Node16</title>
<g id="a_node16"><a xlink:href="delete_8hpp.html" target="_top" xlink:title="include/karazeh/operations\l/delete.hpp">
<polygon fill="white" stroke="black" points="680.129,-134.5 680.129,-164.5 823.129,-164.5 823.129,-134.5 680.129,-134.5"/>
<text text-anchor="start" x="688.129" y="-152.5" font-family="Ubuntu Regular" font-size="10.00">include/karazeh/operations</text>
<text text-anchor="middle" x="751.629" y="-141.5" font-family="Ubuntu Regular" font-size="10.00">/delete.hpp</text>
</a>
</g>
</g>
<!-- Node12&#45;&gt;Node16 -->
<g id="edge16" class="edge"><title>Node12&#45;&gt;Node16</title>
<path fill="none" stroke="midnightblue" d="M751.629,-196.411C751.629,-186.222 751.629,-173.901 751.629,-164.589"/>
<polygon fill="midnightblue" stroke="midnightblue" points="748.129,-196.734 751.629,-206.734 755.129,-196.734 748.129,-196.734"/>
</g>
<!-- Node18 -->
<g id="node18" class="node"><title>Node18</title>
<g id="a_node18"><a xlink:href="release__manifest_8hpp.html" target="_top" xlink:title="include/karazeh/release\l_manifest.hpp">
<polygon fill="white" stroke="black" points="841.629,-134.5 841.629,-164.5 969.629,-164.5 969.629,-134.5 841.629,-134.5"/>
<text text-anchor="start" x="849.629" y="-152.5" font-family="Ubuntu Regular" font-size="10.00">include/karazeh/release</text>
<text text-anchor="middle" x="905.629" y="-141.5" font-family="Ubuntu Regular" font-size="10.00">_manifest.hpp</text>
</a>
</g>
</g>
<!-- Node12&#45;&gt;Node18 -->
<g id="edge20" class="edge"><title>Node12&#45;&gt;Node18</title>
<path fill="none" stroke="midnightblue" d="M781.451,-202.913C807.528,-191.906 845.351,-175.942 872.393,-164.528"/>
<polygon fill="midnightblue" stroke="midnightblue" points="779.931,-199.755 772.079,-206.869 782.653,-206.204 779.931,-199.755"/>
</g>
<!-- Node13&#45;&gt;Node4 -->
<g id="edge13" class="edge"><title>Node13&#45;&gt;Node4</title>
<path fill="none" stroke="midnightblue" d="M516.076,-132.293C466.412,-121.496 401.861,-107.464 354.741,-97.2201"/>
<polygon fill="midnightblue" stroke="midnightblue" points="515.603,-135.772 526.119,-134.476 517.09,-128.932 515.603,-135.772"/>
</g>
<!-- Node14 -->
<g id="node14" class="node"><title>Node14</title>
<g id="a_node14"><a xlink:href="create_8test_8cpp.html" target="_top" xlink:title="src/operations/__tests\l__/create.test.cpp">
<polygon fill="white" stroke="black" points="530.629,-67.5 530.629,-97.5 650.629,-97.5 650.629,-67.5 530.629,-67.5"/>
<text text-anchor="start" x="538.629" y="-85.5" font-family="Ubuntu Regular" font-size="10.00">src/operations/__tests</text>
<text text-anchor="middle" x="590.629" y="-74.5" font-family="Ubuntu Regular" font-size="10.00">__/create.test.cpp</text>
</a>
</g>
</g>
<!-- Node13&#45;&gt;Node14 -->
<g id="edge14" class="edge"><title>Node13&#45;&gt;Node14</title>
<path fill="none" stroke="midnightblue" d="M590.629,-124.108C590.629,-115.154 590.629,-105.323 590.629,-97.5765"/>
<polygon fill="midnightblue" stroke="midnightblue" points="587.129,-124.396 590.629,-134.396 594.129,-124.396 587.129,-124.396"/>
</g>
<!-- Node15 -->
<g id="node15" class="node"><title>Node15</title>
<g id="a_node15"><a xlink:href="create_8cpp.html" target="_top" xlink:title="src/operations/create.cpp">
<polygon fill="white" stroke="black" points="669.129,-73 669.129,-92 806.129,-92 806.129,-73 669.129,-73"/>
<text text-anchor="middle" x="737.629" y="-80" font-family="Ubuntu Regular" font-size="10.00">src/operations/create.cpp</text>
</a>
</g>
</g>
<!-- Node13&#45;&gt;Node15 -->
<g id="edge15" class="edge"><title>Node13&#45;&gt;Node15</title>
<path fill="none" stroke="midnightblue" d="M631.8,-130.295C660.148,-117.76 696.51,-101.682 718.39,-92.007"/>
<polygon fill="midnightblue" stroke="midnightblue" points="630.256,-127.151 622.526,-134.396 633.087,-133.553 630.256,-127.151"/>
</g>
<!-- Node16&#45;&gt;Node4 -->
<g id="edge17" class="edge"><title>Node16&#45;&gt;Node4</title>
<path fill="none" stroke="midnightblue" d="M670.07,-133.984C533.014,-114.139 496.123,-119.073 363.629,-98 360.733,-97.5393 357.776,-97.0444 354.792,-96.5251"/>
<polygon fill="midnightblue" stroke="midnightblue" points="669.712,-137.469 680.114,-135.456 670.727,-130.543 669.712,-137.469"/>
</g>
<!-- Node17 -->
<g id="node17" class="node"><title>Node17</title>
<g id="a_node17"><a xlink:href="delete_8cpp.html" target="_top" xlink:title="src/operations/delete.cpp">
<polygon fill="white" stroke="black" points="824.629,-73 824.629,-92 962.629,-92 962.629,-73 824.629,-73"/>
<text text-anchor="middle" x="893.629" y="-80" font-family="Ubuntu Regular" font-size="10.00">src/operations/delete.cpp</text>
</a>
</g>
</g>
<!-- Node16&#45;&gt;Node17 -->
<g id="edge18" class="edge"><title>Node16&#45;&gt;Node17</title>
<path fill="none" stroke="midnightblue" d="M791.757,-130.131C819.089,-117.62 854,-101.64 875.045,-92.007"/>
<polygon fill="midnightblue" stroke="midnightblue" points="790.077,-127.051 782.441,-134.396 792.99,-133.416 790.077,-127.051"/>
</g>
<!-- Node18&#45;&gt;Node4 -->
<g id="edge24" class="edge"><title>Node18&#45;&gt;Node4</title>
<path fill="none" stroke="midnightblue" d="M831.595,-133.976C623.762,-106.232 567.473,-126.242 363.629,-98 360.724,-97.5975 357.76,-97.1503 354.771,-96.6697"/>
<polygon fill="midnightblue" stroke="midnightblue" points="831.228,-137.458 841.608,-135.334 832.169,-130.522 831.228,-137.458"/>
</g>
<!-- Node18&#45;&gt;Node8 -->
<g id="edge28" class="edge"><title>Node18&#45;&gt;Node8</title>
<path fill="none" stroke="midnightblue" d="M831.471,-133.902C693.427,-112.701 656.02,-118.089 521.629,-98 510.182,-96.2889 497.854,-94.1632 486.419,-92.0715"/>
<polygon fill="midnightblue" stroke="midnightblue" points="831.168,-137.397 841.587,-135.475 832.244,-130.48 831.168,-137.397"/>
</g>
<!-- Node18&#45;&gt;Node14 -->
<g id="edge25" class="edge"><title>Node18&#45;&gt;Node14</title>
<path fill="none" stroke="midnightblue" d="M831.534,-133.383C782.697,-123.396 717.337,-109.987 659.629,-98 656.753,-97.4025 653.809,-96.7896 650.836,-96.1695"/>
<polygon fill="midnightblue" stroke="midnightblue" points="830.887,-136.823 841.385,-135.397 832.289,-129.965 830.887,-136.823"/>
</g>
<!-- Node18&#45;&gt;Node15 -->
<g id="edge26" class="edge"><title>Node18&#45;&gt;Node15</title>
<path fill="none" stroke="midnightblue" d="M859.84,-130.784C827.265,-118.181 784.949,-101.808 759.616,-92.007"/>
<polygon fill="midnightblue" stroke="midnightblue" points="858.586,-134.052 869.176,-134.396 861.112,-127.523 858.586,-134.052"/>
</g>
<!-- Node18&#45;&gt;Node17 -->
<g id="edge27" class="edge"><title>Node18&#45;&gt;Node17</title>
<path fill="none" stroke="midnightblue" d="M901.152,-124.25C899.078,-113.017 896.745,-100.377 895.234,-92.1945"/>
<polygon fill="midnightblue" stroke="midnightblue" points="897.768,-125.198 903.025,-134.396 904.652,-123.927 897.768,-125.198"/>
</g>
<!-- Node18&#45;&gt;Node19 -->
<g id="edge21" class="edge"><title>Node18&#45;&gt;Node19</title>
<path fill="none" stroke="midnightblue" d="M979.993,-132.388C1038.93,-119.619 1118.96,-102.279 1166.17,-92.0503"/>
<polygon fill="midnightblue" stroke="midnightblue" points="979.019,-129.018 969.987,-134.556 980.501,-135.859 979.019,-129.018"/>
</g>
<!-- Node21 -->
<g id="node21" class="node"><title>Node21</title>
<g id="a_node21"><a xlink:href="release__manifest_8cpp.html" target="_top" xlink:title="src/release_manifest.cpp">
<polygon fill="white" stroke="black" points="980.629,-73 980.629,-92 1112.63,-92 1112.63,-73 980.629,-73"/>
<text text-anchor="middle" x="1046.63" y="-80" font-family="Ubuntu Regular" font-size="10.00">src/release_manifest.cpp</text>
</a>
</g>
</g>
<!-- Node18&#45;&gt;Node21 -->
<g id="edge29" class="edge"><title>Node18&#45;&gt;Node21</title>
<path fill="none" stroke="midnightblue" d="M945.475,-130.131C972.614,-117.62 1007.28,-101.64 1028.18,-92.007"/>
<polygon fill="midnightblue" stroke="midnightblue" points="943.84,-127.031 936.224,-134.396 946.771,-133.388 943.84,-127.031"/>
</g>
<!-- Node19&#45;&gt;Node5 -->
<g id="edge22" class="edge"><title>Node19&#45;&gt;Node5</title>
<path fill="none" stroke="midnightblue" d="M1147.26,-71.2871C1138.67,-69.8238 1129.92,-68.356 1121.63,-67 1027.24,-51.5659 917.306,-34.8463 851.976,-25.0421"/>
<polygon fill="midnightblue" stroke="midnightblue" points="1146.79,-74.7575 1157.24,-72.9959 1147.97,-67.858 1146.79,-74.7575"/>
</g>
<!-- Node20 -->
<g id="node20" class="node"><title>Node20</title>
<g id="a_node20"><a xlink:href="patcher_8cpp.html" target="_top" xlink:title="src/patcher.cpp">
<polygon fill="white" stroke="black" points="1161.13,-6 1161.13,-25 1250.13,-25 1250.13,-6 1161.13,-6"/>
<text text-anchor="middle" x="1205.63" y="-13" font-family="Ubuntu Regular" font-size="10.00">src/patcher.cpp</text>
</a>
</g>
</g>
<!-- Node19&#45;&gt;Node20 -->
<g id="edge23" class="edge"><title>Node19&#45;&gt;Node20</title>
<path fill="none" stroke="midnightblue" d="M1205.63,-62.537C1205.63,-50.1703 1205.63,-34.6198 1205.63,-25.1273"/>
<polygon fill="midnightblue" stroke="midnightblue" points="1202.13,-62.7338 1205.63,-72.7338 1209.13,-62.7338 1202.13,-62.7338"/>
</g>
</g>
</svg>
