<?xml version="1.0" encoding="UTF-8" standalone="no"?>
<!DOCTYPE svg PUBLIC "-//W3C//DTD SVG 1.1//EN"
 "http://www.w3.org/Graphics/SVG/1.1/DTD/svg11.dtd">
<!-- Generated by graphviz version 2.38.0 (20140413.2041)
 -->
<!-- Title: Graph Legend Pages: 1 -->
<svg width="520pt" height="159pt"
 viewBox="0.00 0.00 520.00 159.00" xmlns="http://www.w3.org/2000/svg" xmlns:xlink="http://www.w3.org/1999/xlink">
<g id="graph0" class="graph" transform="scale(1 1) rotate(0) translate(4 155)">
<title>Graph Legend</title>
<polygon fill="white" stroke="none" points="-4,4 -4,-155 516,-155 516,4 -4,4"/>
<!-- Node9 -->
<g id="node1" class="node"><title>Node9</title>
<polygon fill="#bfbfbf" stroke="black" points="301.5,-19 242.5,-19 242.5,-0 301.5,-0 301.5,-19"/>
<text text-anchor="middle" x="272" y="-7" font-family="Ubuntu Regular" font-size="10.00">Inherited</text>
</g>
<!-- Node10 -->
<g id="node2" class="node"><title>Node10</title>
<g id="a_node2"><a xlink:href="$classPublicBase.html" xlink:title="PublicBase">
<polygon fill="none" stroke="black" points="66,-85 0,-85 0,-66 66,-66 66,-85"/>
<text text-anchor="middle" x="33" y="-73" font-family="Ubuntu Regular" font-size="10.00">PublicBase</text>
</a>
</g>
</g>
<!-- Node10&#45;&gt;Node9 -->
<g id="edge1" class="edge"><title>Node10&#45;&gt;Node9</title>
<path fill="none" stroke="midnightblue" d="M74.9874,-63.2565C122.889,-50.4294 200.017,-29.7758 242.155,-18.4919"/>
<polygon fill="midnightblue" stroke="midnightblue" points="73.9869,-59.901 65.2326,-65.8687 75.7976,-66.6628 73.9869,-59.901"/>
</g>
<!-- Node11 -->
<g id="node3" class="node"><title>Node11</title>
<g id="a_node3"><a xlink:href="$classTruncated.html" xlink:title="Truncated">
<polygon fill="none" stroke="red" points="64,-151 2,-151 2,-132 64,-132 64,-151"/>
<text text-anchor="middle" x="33" y="-139" font-family="Ubuntu Regular" font-size="10.00">Truncated</text>
</a>
</g>
</g>
<!-- Node11&#45;&gt;Node10 -->
<g id="edge2" class="edge"><title>Node11&#45;&gt;Node10</title>
<path fill="none" stroke="midnightblue" d="M33,-121.584C33,-109.625 33,-94.7211 33,-85.4052"/>
<polygon fill="midnightblue" stroke="midnightblue" points="29.5001,-121.869 33,-131.869 36.5001,-121.869 29.5001,-121.869"/>
</g>
<!-- Node13 -->
<g id="node4" class="node"><title>Node13</title>
<g id="a_node4"><a xlink:href="$classProtectedBase.html" xlink:title="ProtectedBase">
<polygon fill="none" stroke="black" points="170,-85 84,-85 84,-66 170,-66 170,-85"/>
<text text-anchor="middle" x="127" y="-73" font-family="Ubuntu Regular" font-size="10.00">ProtectedBase</text>
</a>
</g>
</g>
<!-- Node13&#45;&gt;Node9 -->
<g id="edge3" class="edge"><title>Node13&#45;&gt;Node9</title>
<path fill="none" stroke="darkgreen" d="M156.014,-61.6939C184.59,-49.081 227.461,-30.1584 252.291,-19.199"/>
<polygon fill="darkgreen" stroke="darkgreen" points="154.291,-58.6287 146.555,-65.8687 157.117,-65.0326 154.291,-58.6287"/>
</g>
<!-- Node14 -->
<g id="node5" class="node"><title>Node14</title>
<g id="a_node5"><a xlink:href="$classPrivateBase.html" xlink:title="PrivateBase">
<polygon fill="none" stroke="black" points="259.5,-85 188.5,-85 188.5,-66 259.5,-66 259.5,-85"/>
<text text-anchor="middle" x="224" y="-73" font-family="Ubuntu Regular" font-size="10.00">PrivateBase</text>
</a>
</g>
</g>
<!-- Node14&#45;&gt;Node9 -->
<g id="edge4" class="edge"><title>Node14&#45;&gt;Node9</title>
<path fill="none" stroke="#8b1a1a" d="M236.55,-57.7673C245.757,-45.4902 257.902,-29.2973 265.321,-19.4052"/>
<polygon fill="#8b1a1a" stroke="#8b1a1a" points="233.674,-55.7686 230.473,-65.8687 239.274,-59.9687 233.674,-55.7686"/>
</g>
<!-- Node15 -->
<g id="node6" class="node"><title>Node15</title>
<polygon fill="none" stroke="#bfbfbf" points="364.5,-85 277.5,-85 277.5,-66 364.5,-66 364.5,-85"/>
<text text-anchor="middle" x="321" y="-73" font-family="Ubuntu Regular" font-size="10.00">Undocumented</text>
</g>
<!-- Node15&#45;&gt;Node9 -->
<g id="edge5" class="edge"><title>Node15&#45;&gt;Node9</title>
<path fill="none" stroke="midnightblue" d="M308.189,-57.7673C298.789,-45.4902 286.392,-29.2973 278.818,-19.4052"/>
<polygon fill="midnightblue" stroke="midnightblue" points="305.533,-60.0563 314.392,-65.8687 311.092,-55.8009 305.533,-60.0563"/>
</g>
<!-- Node16 -->
<g id="node7" class="node"><title>Node16</title>
<g id="a_node7"><a xlink:href="$classTempl.html" xlink:title="Templ&lt; int &gt;">
<polygon fill="none" stroke="black" points="453.5,-85 382.5,-85 382.5,-66 453.5,-66 453.5,-85"/>
<text text-anchor="middle" x="418" y="-73" font-family="Ubuntu Regular" font-size="10.00">Templ&lt; int &gt;</text>
</a>
</g>
</g>
<!-- Node16&#45;&gt;Node9 -->
<g id="edge6" class="edge"><title>Node16&#45;&gt;Node9</title>
<path fill="none" stroke="midnightblue" d="M388.786,-61.6939C360.013,-49.081 316.846,-30.1584 291.845,-19.199"/>
<polygon fill="midnightblue" stroke="midnightblue" points="387.746,-65.0594 398.31,-65.8687 390.556,-58.6483 387.746,-65.0594"/>
</g>
<!-- Node17 -->
<g id="node8" class="node"><title>Node17</title>
<g id="a_node8"><a xlink:href="$classTempl.html" xlink:title="Templ&lt; T &gt;">
<polygon fill="none" stroke="black" points="450.5,-151 385.5,-151 385.5,-132 450.5,-132 450.5,-151"/>
<text text-anchor="middle" x="418" y="-139" font-family="Ubuntu Regular" font-size="10.00">Templ&lt; T &gt;</text>
</a>
</g>
</g>
<!-- Node17&#45;&gt;Node16 -->
<g id="edge7" class="edge"><title>Node17&#45;&gt;Node16</title>
<path fill="none" stroke="orange" stroke-dasharray="5,2" d="M418,-121.584C418,-109.625 418,-94.7211 418,-85.4052"/>
<polygon fill="orange" stroke="orange" points="414.5,-121.869 418,-131.869 421.5,-121.869 414.5,-121.869"/>
<text text-anchor="middle" x="432" y="-106" font-family="Ubuntu Regular" font-size="10.00">&lt; int &gt;</text>
</g>
<!-- Node18 -->
<g id="node9" class="node"><title>Node18</title>
<g id="a_node9"><a xlink:href="$classUsed.html" xlink:title="Used">
<polygon fill="none" stroke="black" points="512,-85 472,-85 472,-66 512,-66 512,-85"/>
<text text-anchor="middle" x="492" y="-73" font-family="Ubuntu Regular" font-size="10.00">Used</text>
</a>
</g>
</g>
<!-- Node18&#45;&gt;Node9 -->
<g id="edge8" class="edge"><title>Node18&#45;&gt;Node9</title>
<path fill="none" stroke="#9a32cd" stroke-dasharray="5,2" d="M462.003,-65.7736C419.84,-53.5079 343.523,-31.3068 301.584,-19.1064"/>
<polygon fill="#9a32cd" stroke="#9a32cd" points="461.118,-69.1611 471.697,-68.5938 463.073,-62.4397 461.118,-69.1611"/>
<text text-anchor="middle" x="425.5" y="-40" font-family="Ubuntu Regular" font-size="10.00">m_usedClass</text>
</g>
</g>
</svg>
