<?xml version="1.0" encoding="UTF-8" standalone="no"?>
<!DOCTYPE svg PUBLIC "-//W3C//DTD SVG 1.1//EN"
 "http://www.w3.org/Graphics/SVG/1.1/DTD/svg11.dtd">
<!-- Generated by graphviz version 2.38.0 (20140413.2041)
 -->
<!-- Title: include/karazeh/hasher.hpp Pages: 1 -->
<svg width="402pt" height="196pt"
 viewBox="0.00 0.00 401.50 196.00" xmlns="http://www.w3.org/2000/svg" xmlns:xlink="http://www.w3.org/1999/xlink">
<g id="graph0" class="graph" transform="scale(1 1) rotate(0) translate(4 192)">
<title>include/karazeh/hasher.hpp</title>
<polygon fill="white" stroke="none" points="-4,4 -4,-192 397.5,-192 397.5,4 -4,4"/>
<!-- Node1 -->
<g id="node1" class="node"><title>Node1</title>
<polygon fill="#bfbfbf" stroke="black" points="0,-168.5 0,-187.5 144,-187.5 144,-168.5 0,-168.5"/>
<text text-anchor="middle" x="72" y="-175.5" font-family="Ubuntu Regular" font-size="10.00">include/karazeh/hasher.hpp</text>
</g>
<!-- Node2 -->
<g id="node2" class="node"><title>Node2</title>
<polygon fill="white" stroke="#bfbfbf" points="7.5,-0.5 7.5,-19.5 104.5,-19.5 104.5,-0.5 7.5,-0.5"/>
<text text-anchor="middle" x="56" y="-7.5" font-family="Ubuntu Regular" font-size="10.00">karazeh_export.h</text>
</g>
<!-- Node1&#45;&gt;Node2 -->
<g id="edge1" class="edge"><title>Node1&#45;&gt;Node2</title>
<path fill="none" stroke="midnightblue" d="M64.8134,-168.252C51.6273,-151.568 24.0046,-113.512 14,-76 11.7094,-67.4113 10.7404,-64.2697 14,-56 18.514,-44.5479 27.469,-34.291 35.9546,-26.4724"/>
<polygon fill="midnightblue" stroke="midnightblue" points="38.4686,-28.9275 43.7863,-19.7638 33.9147,-23.6113 38.4686,-28.9275"/>
</g>
<!-- Node3 -->
<g id="node3" class="node"><title>Node3</title>
<g id="a_node3"><a xlink:href="karazeh_8hpp.html" target="_top" xlink:title="karazeh/karazeh.hpp">
<polygon fill="white" stroke="black" points="92.5,-112.5 92.5,-131.5 205.5,-131.5 205.5,-112.5 92.5,-112.5"/>
<text text-anchor="middle" x="149" y="-119.5" font-family="Ubuntu Regular" font-size="10.00">karazeh/karazeh.hpp</text>
</a>
</g>
</g>
<!-- Node1&#45;&gt;Node3 -->
<g id="edge2" class="edge"><title>Node1&#45;&gt;Node3</title>
<path fill="none" stroke="midnightblue" d="M84.3714,-168.324C96.1585,-160.058 114.132,-147.453 128.136,-137.632"/>
<polygon fill="midnightblue" stroke="midnightblue" points="130.482,-140.262 136.659,-131.655 126.462,-134.531 130.482,-140.262"/>
</g>
<!-- Node4 -->
<g id="node4" class="node"><title>Node4</title>
<polygon fill="white" stroke="#bfbfbf" points="350.5,-0.5 350.5,-19.5 393.5,-19.5 393.5,-0.5 350.5,-0.5"/>
<text text-anchor="middle" x="372" y="-7.5" font-family="Ubuntu Regular" font-size="10.00">string</text>
</g>
<!-- Node3&#45;&gt;Node4 -->
<g id="edge3" class="edge"><title>Node3&#45;&gt;Node4</title>
<path fill="none" stroke="midnightblue" d="M205.508,-115.707C259.894,-109.44 336.905,-97.0938 358,-76 369.98,-64.0207 372.825,-44.413 373.072,-29.8609"/>
<polygon fill="midnightblue" stroke="midnightblue" points="376.563,-29.4348 372.838,-19.5167 369.565,-29.5934 376.563,-29.4348"/>
</g>
<!-- Node5 -->
<g id="node5" class="node"><title>Node5</title>
<polygon fill="white" stroke="#bfbfbf" points="23,-56.5 23,-75.5 73,-75.5 73,-56.5 23,-56.5"/>
<text text-anchor="middle" x="48" y="-63.5" font-family="Ubuntu Regular" font-size="10.00">cassert</text>
</g>
<!-- Node3&#45;&gt;Node5 -->
<g id="edge4" class="edge"><title>Node3&#45;&gt;Node5</title>
<path fill="none" stroke="midnightblue" d="M132.773,-112.324C116.649,-103.703 91.6998,-90.3643 73.0359,-80.3855"/>
<polygon fill="midnightblue" stroke="midnightblue" points="74.6561,-77.283 64.1871,-75.6545 71.3556,-83.456 74.6561,-77.283"/>
</g>
<!-- Node6 -->
<g id="node6" class="node"><title>Node6</title>
<polygon fill="white" stroke="#bfbfbf" points="91,-56.5 91,-75.5 207,-75.5 207,-56.5 91,-56.5"/>
<text text-anchor="middle" x="149" y="-63.5" font-family="Ubuntu Regular" font-size="10.00">boost/filesystem.hpp</text>
</g>
<!-- Node3&#45;&gt;Node6 -->
<g id="edge5" class="edge"><title>Node3&#45;&gt;Node6</title>
<path fill="none" stroke="midnightblue" d="M149,-112.083C149,-105.006 149,-94.8611 149,-85.9865"/>
<polygon fill="midnightblue" stroke="midnightblue" points="152.5,-85.751 149,-75.7511 145.5,-85.7511 152.5,-85.751"/>
</g>
<!-- Node7 -->
<g id="node7" class="node"><title>Node7</title>
<g id="a_node7"><a xlink:href="exception_8hpp.html" target="_top" xlink:title="karazeh/exception.hpp">
<polygon fill="white" stroke="black" points="225.5,-56.5 225.5,-75.5 348.5,-75.5 348.5,-56.5 225.5,-56.5"/>
<text text-anchor="middle" x="287" y="-63.5" font-family="Ubuntu Regular" font-size="10.00">karazeh/exception.hpp</text>
</a>
</g>
</g>
<!-- Node3&#45;&gt;Node7 -->
<g id="edge6" class="edge"><title>Node3&#45;&gt;Node7</title>
<path fill="none" stroke="midnightblue" d="M170.867,-112.444C193.779,-103.478 229.975,-89.314 255.866,-79.1827"/>
<polygon fill="midnightblue" stroke="midnightblue" points="257.199,-82.4198 265.236,-75.5164 254.648,-75.9011 257.199,-82.4198"/>
</g>
<!-- Node7&#45;&gt;Node2 -->
<g id="edge10" class="edge"><title>Node7&#45;&gt;Node2</title>
<path fill="none" stroke="midnightblue" d="M250.397,-56.4435C210.269,-47.0629 145.802,-31.9926 102.215,-21.8036"/>
<polygon fill="midnightblue" stroke="midnightblue" points="102.966,-18.3847 92.4314,-19.5164 101.372,-25.2009 102.966,-18.3847"/>
</g>
<!-- Node7&#45;&gt;Node4 -->
<g id="edge8" class="edge"><title>Node7&#45;&gt;Node4</title>
<path fill="none" stroke="midnightblue" d="M300.657,-56.324C313.916,-47.9002 334.268,-34.9709 349.846,-25.0741"/>
<polygon fill="midnightblue" stroke="midnightblue" points="351.813,-27.9711 358.377,-19.6545 348.06,-22.0626 351.813,-27.9711"/>
</g>
<!-- Node8 -->
<g id="node8" class="node"><title>Node8</title>
<polygon fill="white" stroke="#bfbfbf" points="260.5,-0.5 260.5,-19.5 323.5,-19.5 323.5,-0.5 260.5,-0.5"/>
<text text-anchor="middle" x="292" y="-7.5" font-family="Ubuntu Regular" font-size="10.00">exception</text>
</g>
<!-- Node7&#45;&gt;Node8 -->
<g id="edge7" class="edge"><title>Node7&#45;&gt;Node8</title>
<path fill="none" stroke="midnightblue" d="M287.826,-56.083C288.481,-49.0059 289.42,-38.8611 290.242,-29.9865"/>
<polygon fill="midnightblue" stroke="midnightblue" points="293.753,-30.0312 291.19,-19.7511 286.783,-29.3858 293.753,-30.0312"/>
</g>
<!-- Node9 -->
<g id="node9" class="node"><title>Node9</title>
<polygon fill="white" stroke="#bfbfbf" points="177.5,-0.5 177.5,-19.5 242.5,-19.5 242.5,-0.5 177.5,-0.5"/>
<text text-anchor="middle" x="210" y="-7.5" font-family="Ubuntu Regular" font-size="10.00">stdexcept</text>
</g>
<!-- Node7&#45;&gt;Node9 -->
<g id="edge9" class="edge"><title>Node7&#45;&gt;Node9</title>
<path fill="none" stroke="midnightblue" d="M274.629,-56.324C262.842,-48.0577 244.868,-35.4527 230.864,-25.6322"/>
<polygon fill="midnightblue" stroke="midnightblue" points="232.538,-22.5307 222.341,-19.6545 228.518,-28.2619 232.538,-22.5307"/>
</g>
</g>
</svg>
