<?xml version="1.0" encoding="UTF-8" standalone="no"?>
<!DOCTYPE svg PUBLIC "-//W3C//DTD SVG 1.1//EN"
 "http://www.w3.org/Graphics/SVG/1.1/DTD/svg11.dtd">
<!-- Generated by graphviz version 2.38.0 (20140413.2041)
 -->
<!-- Title: include/karazeh/hasher.hpp Pages: 1 -->
<svg width="1620pt" height="430pt"
 viewBox="0.00 0.00 1619.59 430.00" xmlns="http://www.w3.org/2000/svg" xmlns:xlink="http://www.w3.org/1999/xlink">
<g id="graph0" class="graph" transform="scale(1 1) rotate(0) translate(4 426)">
<title>include/karazeh/hasher.hpp</title>
<polygon fill="white" stroke="none" points="-4,4 -4,-426 1615.59,-426 1615.59,4 -4,4"/>
<!-- Node1 -->
<g id="node1" class="node"><title>Node1</title>
<polygon fill="#bfbfbf" stroke="black" points="534,-402.5 534,-421.5 678,-421.5 678,-402.5 534,-402.5"/>
<text text-anchor="middle" x="606" y="-409.5" font-family="Ubuntu Regular" font-size="10.00">include/karazeh/hasher.hpp</text>
</g>
<!-- Node2 -->
<g id="node2" class="node"><title>Node2</title>
<g id="a_node2"><a xlink:href="downloader_8hpp.html" target="_top" xlink:title="include/karazeh/downloader.hpp">
<polygon fill="white" stroke="black" points="203.5,-274 203.5,-293 370.5,-293 370.5,-274 203.5,-274"/>
<text text-anchor="middle" x="287" y="-281" font-family="Ubuntu Regular" font-size="10.00">include/karazeh/downloader.hpp</text>
</a>
</g>
</g>
<!-- Node1&#45;&gt;Node2 -->
<g id="edge1" class="edge"><title>Node1&#45;&gt;Node2</title>
<path fill="none" stroke="midnightblue" d="M574.704,-398.589C510.221,-373.019 363.979,-315.026 308.705,-293.107"/>
<polygon fill="midnightblue" stroke="midnightblue" points="573.739,-401.972 584.325,-402.405 576.319,-395.465 573.739,-401.972"/>
</g>
<!-- Node5 -->
<g id="node5" class="node"><title>Node5</title>
<g id="a_node5"><a xlink:href="version__manifest_8hpp.html" target="_top" xlink:title="include/karazeh/version\l_manifest.hpp">
<polygon fill="white" stroke="black" points="14,-67.5 14,-97.5 140,-97.5 140,-67.5 14,-67.5"/>
<text text-anchor="start" x="22" y="-85.5" font-family="Ubuntu Regular" font-size="10.00">include/karazeh/version</text>
<text text-anchor="middle" x="77" y="-74.5" font-family="Ubuntu Regular" font-size="10.00">_manifest.hpp</text>
</a>
</g>
</g>
<!-- Node1&#45;&gt;Node5 -->
<g id="edge55" class="edge"><title>Node1&#45;&gt;Node5</title>
<path fill="none" stroke="midnightblue" d="M523.655,-410.799C357.97,-408.163 0,-390.233 0,-284.5 0,-284.5 0,-284.5 0,-215.5 0,-166.949 39.3471,-120.358 61.7873,-97.7353"/>
<polygon fill="midnightblue" stroke="midnightblue" points="523.755,-414.301 533.804,-410.945 523.856,-407.301 523.755,-414.301"/>
</g>
<!-- Node21 -->
<g id="node21" class="node"><title>Node21</title>
<g id="a_node21"><a xlink:href="file__manager_8hpp.html" target="_top" xlink:title="include/karazeh/file\l_manager.hpp">
<polygon fill="white" stroke="black" points="552,-335.5 552,-365.5 660,-365.5 660,-335.5 552,-335.5"/>
<text text-anchor="start" x="560" y="-353.5" font-family="Ubuntu Regular" font-size="10.00">include/karazeh/file</text>
<text text-anchor="middle" x="606" y="-342.5" font-family="Ubuntu Regular" font-size="10.00">_manager.hpp</text>
</a>
</g>
</g>
<!-- Node1&#45;&gt;Node21 -->
<g id="edge31" class="edge"><title>Node1&#45;&gt;Node21</title>
<path fill="none" stroke="midnightblue" d="M606,-392.235C606,-383.586 606,-373.497 606,-365.523"/>
<polygon fill="midnightblue" stroke="midnightblue" points="602.5,-392.475 606,-402.475 609.5,-392.475 602.5,-392.475"/>
</g>
<!-- Node27 -->
<g id="node27" class="node"><title>Node27</title>
<g id="a_node27"><a xlink:href="md5__hasher_8hpp.html" target="_top" xlink:title="include/karazeh/hashers\l/md5_hasher.hpp">
<polygon fill="white" stroke="black" points="903.5,-268.5 903.5,-298.5 1032.5,-298.5 1032.5,-268.5 903.5,-268.5"/>
<text text-anchor="start" x="911.5" y="-286.5" font-family="Ubuntu Regular" font-size="10.00">include/karazeh/hashers</text>
<text text-anchor="middle" x="968" y="-275.5" font-family="Ubuntu Regular" font-size="10.00">/md5_hasher.hpp</text>
</a>
</g>
</g>
<!-- Node1&#45;&gt;Node27 -->
<g id="edge43" class="edge"><title>Node1&#45;&gt;Node27</title>
<path fill="none" stroke="midnightblue" d="M640.283,-399.02C707.501,-375.531 856.279,-323.541 927.916,-298.507"/>
<polygon fill="midnightblue" stroke="midnightblue" points="638.883,-395.802 630.597,-402.405 641.192,-402.41 638.883,-395.802"/>
</g>
<!-- Node30 -->
<g id="node30" class="node"><title>Node30</title>
<g id="a_node30"><a xlink:href="path__resolver_8hpp.html" target="_top" xlink:title="include/karazeh/path\l_resolver.hpp">
<polygon fill="white" stroke="black" points="1311.5,-268.5 1311.5,-298.5 1426.5,-298.5 1426.5,-268.5 1311.5,-268.5"/>
<text text-anchor="start" x="1319.5" y="-286.5" font-family="Ubuntu Regular" font-size="10.00">include/karazeh/path</text>
<text text-anchor="middle" x="1369" y="-275.5" font-family="Ubuntu Regular" font-size="10.00">_resolver.hpp</text>
</a>
</g>
</g>
<!-- Node1&#45;&gt;Node30 -->
<g id="edge49" class="edge"><title>Node1&#45;&gt;Node30</title>
<path fill="none" stroke="midnightblue" d="M667.567,-400.793C811.989,-376.849 1170.91,-317.341 1311.36,-294.057"/>
<polygon fill="midnightblue" stroke="midnightblue" points="666.838,-397.366 657.545,-402.454 667.983,-404.271 666.838,-397.366"/>
</g>
<!-- Node3 -->
<g id="node3" class="node"><title>Node3</title>
<g id="a_node3"><a xlink:href="operation_8hpp.html" target="_top" xlink:title="include/karazeh/operation.hpp">
<polygon fill="white" stroke="black" points="230,-207 230,-226 388,-226 388,-207 230,-207"/>
<text text-anchor="middle" x="309" y="-214" font-family="Ubuntu Regular" font-size="10.00">include/karazeh/operation.hpp</text>
</a>
</g>
</g>
<!-- Node2&#45;&gt;Node3 -->
<g id="edge2" class="edge"><title>Node2&#45;&gt;Node3</title>
<path fill="none" stroke="midnightblue" d="M293.29,-263.915C297.496,-251.488 302.834,-235.717 306.08,-226.127"/>
<polygon fill="midnightblue" stroke="midnightblue" points="289.858,-263.14 289.967,-273.734 296.488,-265.384 289.858,-263.14"/>
</g>
<!-- Node2&#45;&gt;Node5 -->
<g id="edge28" class="edge"><title>Node2&#45;&gt;Node5</title>
<path fill="none" stroke="midnightblue" d="M267.434,-267.679C254.262,-257.665 236.529,-244.111 221,-232 203.54,-218.383 200.909,-212.521 182,-201 148.704,-180.713 127.791,-194.241 102,-165 85.0635,-145.798 79.6007,-115.329 77.8388,-97.5906"/>
<polygon fill="midnightblue" stroke="midnightblue" points="265.659,-270.726 275.741,-273.985 269.892,-265.151 265.659,-270.726"/>
</g>
<!-- Node16 -->
<g id="node16" class="node"><title>Node16</title>
<g id="a_node16"><a xlink:href="patcher_8hpp.html" target="_top" xlink:title="include/karazeh/patcher.hpp">
<polygon fill="white" stroke="black" points="916.5,-73 916.5,-92 1065.5,-92 1065.5,-73 916.5,-73"/>
<text text-anchor="middle" x="991" y="-80" font-family="Ubuntu Regular" font-size="10.00">include/karazeh/patcher.hpp</text>
</a>
</g>
</g>
<!-- Node2&#45;&gt;Node16 -->
<g id="edge27" class="edge"><title>Node2&#45;&gt;Node16</title>
<path fill="none" stroke="midnightblue" d="M319.636,-270.08C342.128,-260.913 372.3,-247.394 397,-232 415.497,-220.471 414.896,-209.42 435,-201 570.675,-144.174 626.406,-217.008 764,-165 786.377,-156.542 786.372,-144.222 808,-134 851.505,-113.438 904.909,-99.9044 942.771,-92.0699"/>
<polygon fill="midnightblue" stroke="midnightblue" points="318.182,-266.891 310.197,-273.855 320.782,-273.391 318.182,-266.891"/>
</g>
<!-- Node19 -->
<g id="node19" class="node"><title>Node19</title>
<g id="a_node19"><a xlink:href="downloader_8test_8cpp.html" target="_top" xlink:title="src/__tests__/downloader.test.cpp">
<polygon fill="white" stroke="black" points="444,-207 444,-226 618,-226 618,-207 444,-207"/>
<text text-anchor="middle" x="531" y="-214" font-family="Ubuntu Regular" font-size="10.00">src/__tests__/downloader.test.cpp</text>
</a>
</g>
</g>
<!-- Node2&#45;&gt;Node19 -->
<g id="edge29" class="edge"><title>Node2&#45;&gt;Node19</title>
<path fill="none" stroke="midnightblue" d="M328.955,-271.323C377.135,-258.489 455.128,-237.712 498.779,-226.083"/>
<polygon fill="midnightblue" stroke="midnightblue" points="327.912,-267.979 319.15,-273.936 329.714,-274.743 327.912,-267.979"/>
</g>
<!-- Node20 -->
<g id="node20" class="node"><title>Node20</title>
<g id="a_node20"><a xlink:href="downloader_8cpp.html" target="_top" xlink:title="src/downloader.cpp">
<polygon fill="white" stroke="black" points="66.5,-207 66.5,-226 173.5,-226 173.5,-207 66.5,-207"/>
<text text-anchor="middle" x="120" y="-214" font-family="Ubuntu Regular" font-size="10.00">src/downloader.cpp</text>
</a>
</g>
</g>
<!-- Node2&#45;&gt;Node20 -->
<g id="edge30" class="edge"><title>Node2&#45;&gt;Node20</title>
<path fill="none" stroke="midnightblue" d="M255.152,-270.104C221.994,-257.198 170.941,-237.327 142.002,-226.064"/>
<polygon fill="midnightblue" stroke="midnightblue" points="254.235,-273.503 264.824,-273.869 256.774,-266.98 254.235,-273.503"/>
</g>
<!-- Node4 -->
<g id="node4" class="node"><title>Node4</title>
<g id="a_node4"><a xlink:href="create_8hpp.html" target="_top" xlink:title="include/karazeh/operations\l/create.hpp">
<polygon fill="white" stroke="black" points="465.5,-134.5 465.5,-164.5 608.5,-164.5 608.5,-134.5 465.5,-134.5"/>
<text text-anchor="start" x="473.5" y="-152.5" font-family="Ubuntu Regular" font-size="10.00">include/karazeh/operations</text>
<text text-anchor="middle" x="537" y="-141.5" font-family="Ubuntu Regular" font-size="10.00">/create.hpp</text>
</a>
</g>
</g>
<!-- Node3&#45;&gt;Node4 -->
<g id="edge3" class="edge"><title>Node3&#45;&gt;Node4</title>
<path fill="none" stroke="midnightblue" d="M349.137,-204.058C387.793,-193.037 446.347,-176.344 487.794,-164.528"/>
<polygon fill="midnightblue" stroke="midnightblue" points="347.934,-200.761 339.277,-206.869 349.853,-207.493 347.934,-200.761"/>
</g>
<!-- Node3&#45;&gt;Node5 -->
<g id="edge26" class="edge"><title>Node3&#45;&gt;Node5</title>
<path fill="none" stroke="midnightblue" d="M257.628,-204.673C213.473,-194.653 153.867,-179.205 134,-165 109.42,-147.426 91.8094,-115.794 83.1259,-97.5361"/>
<polygon fill="midnightblue" stroke="midnightblue" points="257.116,-208.145 267.639,-206.913 258.645,-201.314 257.116,-208.145"/>
</g>
<!-- Node11 -->
<g id="node11" class="node"><title>Node11</title>
<g id="a_node11"><a xlink:href="delete_8hpp.html" target="_top" xlink:title="include/karazeh/operations\l/delete.hpp">
<polygon fill="white" stroke="black" points="143.5,-134.5 143.5,-164.5 286.5,-164.5 286.5,-134.5 143.5,-134.5"/>
<text text-anchor="start" x="151.5" y="-152.5" font-family="Ubuntu Regular" font-size="10.00">include/karazeh/operations</text>
<text text-anchor="middle" x="215" y="-141.5" font-family="Ubuntu Regular" font-size="10.00">/delete.hpp</text>
</a>
</g>
</g>
<!-- Node3&#45;&gt;Node11 -->
<g id="edge10" class="edge"><title>Node3&#45;&gt;Node11</title>
<path fill="none" stroke="midnightblue" d="M287.813,-200.849C272.123,-190 250.869,-175.303 235.375,-164.589"/>
<polygon fill="midnightblue" stroke="midnightblue" points="286.107,-203.925 296.323,-206.734 290.088,-198.167 286.107,-203.925"/>
</g>
<!-- Node13 -->
<g id="node13" class="node"><title>Node13</title>
<g id="a_node13"><a xlink:href="update_8hpp.html" target="_top" xlink:title="include/karazeh/operations\l/update.hpp">
<polygon fill="white" stroke="black" points="304.5,-134.5 304.5,-164.5 447.5,-164.5 447.5,-134.5 304.5,-134.5"/>
<text text-anchor="start" x="312.5" y="-152.5" font-family="Ubuntu Regular" font-size="10.00">include/karazeh/operations</text>
<text text-anchor="middle" x="376" y="-141.5" font-family="Ubuntu Regular" font-size="10.00">/update.hpp</text>
</a>
</g>
</g>
<!-- Node3&#45;&gt;Node13 -->
<g id="edge13" class="edge"><title>Node3&#45;&gt;Node13</title>
<path fill="none" stroke="midnightblue" d="M325.372,-199.617C336.412,-188.907 350.847,-174.902 361.477,-164.589"/>
<polygon fill="midnightblue" stroke="midnightblue" points="322.776,-197.259 318.036,-206.734 327.65,-202.283 322.776,-197.259"/>
</g>
<!-- Node15 -->
<g id="node15" class="node"><title>Node15</title>
<g id="a_node15"><a xlink:href="release__manifest_8hpp.html" target="_top" xlink:title="include/karazeh/release\l_manifest.hpp">
<polygon fill="white" stroke="black" points="627,-134.5 627,-164.5 755,-164.5 755,-134.5 627,-134.5"/>
<text text-anchor="start" x="635" y="-152.5" font-family="Ubuntu Regular" font-size="10.00">include/karazeh/release</text>
<text text-anchor="middle" x="691" y="-141.5" font-family="Ubuntu Regular" font-size="10.00">_manifest.hpp</text>
</a>
</g>
</g>
<!-- Node3&#45;&gt;Node15 -->
<g id="edge16" class="edge"><title>Node3&#45;&gt;Node15</title>
<path fill="none" stroke="midnightblue" d="M372.19,-205.376C448.171,-193.162 571.193,-173.241 617,-165 620.221,-164.42 623.519,-163.816 626.848,-163.197"/>
<polygon fill="midnightblue" stroke="midnightblue" points="371.569,-201.931 362.251,-206.973 372.68,-208.843 371.569,-201.931"/>
</g>
<!-- Node4&#45;&gt;Node5 -->
<g id="edge4" class="edge"><title>Node4&#45;&gt;Node5</title>
<path fill="none" stroke="midnightblue" d="M455.441,-133.984C318.385,-114.139 281.494,-119.073 149,-98 146.104,-97.5393 143.147,-97.0444 140.163,-96.5251"/>
<polygon fill="midnightblue" stroke="midnightblue" points="455.083,-137.469 465.485,-135.456 456.098,-130.543 455.083,-137.469"/>
</g>
<!-- Node9 -->
<g id="node9" class="node"><title>Node9</title>
<g id="a_node9"><a xlink:href="create_8test_8cpp.html" target="_top" xlink:title="src/operations/__tests\l__/create.test.cpp">
<polygon fill="white" stroke="black" points="778,-67.5 778,-97.5 898,-97.5 898,-67.5 778,-67.5"/>
<text text-anchor="start" x="786" y="-85.5" font-family="Ubuntu Regular" font-size="10.00">src/operations/__tests</text>
<text text-anchor="middle" x="838" y="-74.5" font-family="Ubuntu Regular" font-size="10.00">__/create.test.cpp</text>
</a>
</g>
</g>
<!-- Node4&#45;&gt;Node9 -->
<g id="edge8" class="edge"><title>Node4&#45;&gt;Node9</title>
<path fill="none" stroke="midnightblue" d="M611.959,-132.313C663.143,-121.26 730.066,-106.808 777.782,-96.5039"/>
<polygon fill="midnightblue" stroke="midnightblue" points="610.978,-128.944 601.942,-134.476 612.455,-135.786 610.978,-128.944"/>
</g>
<!-- Node10 -->
<g id="node10" class="node"><title>Node10</title>
<g id="a_node10"><a xlink:href="create_8cpp.html" target="_top" xlink:title="src/operations/create.cpp">
<polygon fill="white" stroke="black" points="472.5,-73 472.5,-92 609.5,-92 609.5,-73 472.5,-73"/>
<text text-anchor="middle" x="541" y="-80" font-family="Ubuntu Regular" font-size="10.00">src/operations/create.cpp</text>
</a>
</g>
</g>
<!-- Node4&#45;&gt;Node10 -->
<g id="edge9" class="edge"><title>Node4&#45;&gt;Node10</title>
<path fill="none" stroke="midnightblue" d="M538.492,-124.25C539.184,-113.017 539.961,-100.377 540.465,-92.1945"/>
<polygon fill="midnightblue" stroke="midnightblue" points="534.989,-124.2 537.868,-134.396 541.976,-124.63 534.989,-124.2"/>
</g>
<!-- Node6 -->
<g id="node6" class="node"><title>Node6</title>
<g id="a_node6"><a xlink:href="patcher_8test_8cpp.html" target="_top" xlink:title="src/__tests__/patcher.test.cpp">
<polygon fill="white" stroke="black" points="841.5,-6 841.5,-25 998.5,-25 998.5,-6 841.5,-6"/>
<text text-anchor="middle" x="920" y="-13" font-family="Ubuntu Regular" font-size="10.00">src/__tests__/patcher.test.cpp</text>
</a>
</g>
</g>
<!-- Node5&#45;&gt;Node6 -->
<g id="edge5" class="edge"><title>Node5&#45;&gt;Node6</title>
<path fill="none" stroke="midnightblue" d="M150.458,-66.962C299.379,-48.4809 676.771,-28.5133 841.395,-20.3135"/>
<polygon fill="midnightblue" stroke="midnightblue" points="149.608,-63.5424 140.136,-68.2898 150.501,-70.4851 149.608,-63.5424"/>
</g>
<!-- Node7 -->
<g id="node7" class="node"><title>Node7</title>
<g id="a_node7"><a xlink:href="version__manifest_8test_8cpp.html" target="_top" xlink:title="src/__tests__/version\l_manifest.test.cpp">
<polygon fill="white" stroke="black" points="470.5,-0.5 470.5,-30.5 583.5,-30.5 583.5,-0.5 470.5,-0.5"/>
<text text-anchor="start" x="478.5" y="-18.5" font-family="Ubuntu Regular" font-size="10.00">src/__tests__/version</text>
<text text-anchor="middle" x="527" y="-7.5" font-family="Ubuntu Regular" font-size="10.00">_manifest.test.cpp</text>
</a>
</g>
</g>
<!-- Node5&#45;&gt;Node7 -->
<g id="edge6" class="edge"><title>Node5&#45;&gt;Node7</title>
<path fill="none" stroke="midnightblue" d="M150.241,-66.8568C269.895,-47.0938 398.441,-31.2564 470.47,-22.8734"/>
<polygon fill="midnightblue" stroke="midnightblue" points="149.462,-63.4382 140.173,-68.5328 150.612,-70.3432 149.462,-63.4382"/>
</g>
<!-- Node8 -->
<g id="node8" class="node"><title>Node8</title>
<g id="a_node8"><a xlink:href="version__manifest_8cpp.html" target="_top" xlink:title="src/version_manifest.cpp">
<polygon fill="white" stroke="black" points="11.5,-6 11.5,-25 142.5,-25 142.5,-6 11.5,-6"/>
<text text-anchor="middle" x="77" y="-13" font-family="Ubuntu Regular" font-size="10.00">src/version_manifest.cpp</text>
</a>
</g>
</g>
<!-- Node5&#45;&gt;Node8 -->
<g id="edge7" class="edge"><title>Node5&#45;&gt;Node8</title>
<path fill="none" stroke="midnightblue" d="M77,-57.2495C77,-46.017 77,-33.3767 77,-25.1945"/>
<polygon fill="midnightblue" stroke="midnightblue" points="73.5001,-57.3959 77,-67.396 80.5001,-57.396 73.5001,-57.3959"/>
</g>
<!-- Node11&#45;&gt;Node5 -->
<g id="edge11" class="edge"><title>Node11&#45;&gt;Node5</title>
<path fill="none" stroke="midnightblue" d="M176,-130.131C154.073,-119.802 127.126,-107.11 106.886,-97.5765"/>
<polygon fill="midnightblue" stroke="midnightblue" points="174.518,-133.301 185.056,-134.396 177.501,-126.968 174.518,-133.301"/>
</g>
<!-- Node12 -->
<g id="node12" class="node"><title>Node12</title>
<g id="a_node12"><a xlink:href="delete_8cpp.html" target="_top" xlink:title="src/operations/delete.cpp">
<polygon fill="white" stroke="black" points="158,-73 158,-92 296,-92 296,-73 158,-73"/>
<text text-anchor="middle" x="227" y="-80" font-family="Ubuntu Regular" font-size="10.00">src/operations/delete.cpp</text>
</a>
</g>
</g>
<!-- Node11&#45;&gt;Node12 -->
<g id="edge12" class="edge"><title>Node11&#45;&gt;Node12</title>
<path fill="none" stroke="midnightblue" d="M219.477,-124.25C221.551,-113.017 223.884,-100.377 225.395,-92.1945"/>
<polygon fill="midnightblue" stroke="midnightblue" points="215.978,-123.927 217.604,-134.396 222.861,-125.198 215.978,-123.927"/>
</g>
<!-- Node13&#45;&gt;Node5 -->
<g id="edge14" class="edge"><title>Node13&#45;&gt;Node5</title>
<path fill="none" stroke="midnightblue" d="M301.447,-132.293C251.783,-121.496 187.232,-107.464 140.112,-97.2201"/>
<polygon fill="midnightblue" stroke="midnightblue" points="300.974,-135.772 311.49,-134.476 302.461,-128.932 300.974,-135.772"/>
</g>
<!-- Node14 -->
<g id="node14" class="node"><title>Node14</title>
<g id="a_node14"><a xlink:href="update_8cpp.html" target="_top" xlink:title="src/operations/update.cpp">
<polygon fill="white" stroke="black" points="314,-73 314,-92 454,-92 454,-73 314,-73"/>
<text text-anchor="middle" x="384" y="-80" font-family="Ubuntu Regular" font-size="10.00">src/operations/update.cpp</text>
</a>
</g>
</g>
<!-- Node13&#45;&gt;Node14 -->
<g id="edge15" class="edge"><title>Node13&#45;&gt;Node14</title>
<path fill="none" stroke="midnightblue" d="M378.985,-124.25C380.367,-113.017 381.923,-100.377 382.93,-92.1945"/>
<polygon fill="midnightblue" stroke="midnightblue" points="375.484,-124.043 377.736,-134.396 382.431,-124.898 375.484,-124.043"/>
</g>
<!-- Node15&#45;&gt;Node5 -->
<g id="edge20" class="edge"><title>Node15&#45;&gt;Node5</title>
<path fill="none" stroke="midnightblue" d="M617.304,-134.041C617.203,-134.028 617.101,-134.014 617,-134 410.287,-105.895 355.638,-126.646 149,-98 146.095,-97.5973 143.131,-97.1499 140.142,-96.6691"/>
<polygon fill="midnightblue" stroke="midnightblue" points="616.496,-137.46 626.901,-135.465 617.523,-130.536 616.496,-137.46"/>
</g>
<!-- Node15&#45;&gt;Node9 -->
<g id="edge21" class="edge"><title>Node15&#45;&gt;Node9</title>
<path fill="none" stroke="midnightblue" d="M732.231,-130.269C755.644,-119.916 784.508,-107.153 806.165,-97.5765"/>
<polygon fill="midnightblue" stroke="midnightblue" points="730.627,-127.151 722.897,-134.396 733.458,-133.553 730.627,-127.151"/>
</g>
<!-- Node15&#45;&gt;Node10 -->
<g id="edge22" class="edge"><title>Node15&#45;&gt;Node10</title>
<path fill="none" stroke="midnightblue" d="M648.989,-130.295C620.062,-117.76 582.958,-101.682 560.632,-92.007"/>
<polygon fill="midnightblue" stroke="midnightblue" points="647.885,-133.631 658.452,-134.396 650.668,-127.208 647.885,-133.631"/>
</g>
<!-- Node15&#45;&gt;Node12 -->
<g id="edge23" class="edge"><title>Node15&#45;&gt;Node12</title>
<path fill="none" stroke="midnightblue" d="M617.303,-134.047C617.202,-134.031 617.101,-134.016 617,-134 479.069,-112.563 443.033,-118.768 305,-98 293.559,-96.2786 281.228,-94.1257 269.823,-92.0098"/>
<polygon fill="midnightblue" stroke="midnightblue" points="616.445,-137.453 626.879,-135.616 617.576,-130.545 616.445,-137.453"/>
</g>
<!-- Node15&#45;&gt;Node14 -->
<g id="edge24" class="edge"><title>Node15&#45;&gt;Node14</title>
<path fill="none" stroke="midnightblue" d="M616.761,-132.782C556.271,-119.974 473.151,-102.376 424.348,-92.0428"/>
<polygon fill="midnightblue" stroke="midnightblue" points="616.135,-136.227 626.643,-134.874 617.585,-129.378 616.135,-136.227"/>
</g>
<!-- Node15&#45;&gt;Node16 -->
<g id="edge17" class="edge"><title>Node15&#45;&gt;Node16</title>
<path fill="none" stroke="midnightblue" d="M765.363,-132.388C824.297,-119.619 904.329,-102.279 951.537,-92.0503"/>
<polygon fill="midnightblue" stroke="midnightblue" points="764.39,-129.018 755.358,-134.556 765.872,-135.859 764.39,-129.018"/>
</g>
<!-- Node18 -->
<g id="node18" class="node"><title>Node18</title>
<g id="a_node18"><a xlink:href="release__manifest_8cpp.html" target="_top" xlink:title="src/release_manifest.cpp">
<polygon fill="white" stroke="black" points="628,-73 628,-92 760,-92 760,-73 628,-73"/>
<text text-anchor="middle" x="694" y="-80" font-family="Ubuntu Regular" font-size="10.00">src/release_manifest.cpp</text>
</a>
</g>
</g>
<!-- Node15&#45;&gt;Node18 -->
<g id="edge25" class="edge"><title>Node15&#45;&gt;Node18</title>
<path fill="none" stroke="midnightblue" d="M692.119,-124.25C692.638,-113.017 693.221,-100.377 693.599,-92.1945"/>
<polygon fill="midnightblue" stroke="midnightblue" points="688.616,-124.245 691.651,-134.396 695.608,-124.568 688.616,-124.245"/>
</g>
<!-- Node16&#45;&gt;Node6 -->
<g id="edge18" class="edge"><title>Node16&#45;&gt;Node6</title>
<path fill="none" stroke="midnightblue" d="M973.912,-65.8564C959.954,-53.0777 940.745,-35.4915 929.424,-25.1273"/>
<polygon fill="midnightblue" stroke="midnightblue" points="971.685,-68.5628 981.425,-72.7338 976.412,-63.3997 971.685,-68.5628"/>
</g>
<!-- Node17 -->
<g id="node17" class="node"><title>Node17</title>
<g id="a_node17"><a xlink:href="patcher_8cpp.html" target="_top" xlink:title="src/patcher.cpp">
<polygon fill="white" stroke="black" points="1016.5,-6 1016.5,-25 1105.5,-25 1105.5,-6 1016.5,-6"/>
<text text-anchor="middle" x="1061" y="-13" font-family="Ubuntu Regular" font-size="10.00">src/patcher.cpp</text>
</a>
</g>
</g>
<!-- Node16&#45;&gt;Node17 -->
<g id="edge19" class="edge"><title>Node16&#45;&gt;Node17</title>
<path fill="none" stroke="midnightblue" d="M1007.85,-65.8564C1021.61,-53.0777 1040.55,-35.4915 1051.71,-25.1273"/>
<polygon fill="midnightblue" stroke="midnightblue" points="1005.39,-63.3645 1000.44,-72.7338 1010.15,-68.4941 1005.39,-63.3645"/>
</g>
<!-- Node21&#45;&gt;Node2 -->
<g id="edge36" class="edge"><title>Node21&#45;&gt;Node2</title>
<path fill="none" stroke="midnightblue" d="M542.004,-336.46C478.662,-323.553 383.512,-304.166 329.129,-293.084"/>
<polygon fill="midnightblue" stroke="midnightblue" points="541.389,-339.906 551.886,-338.474 542.786,-333.047 541.389,-339.906"/>
</g>
<!-- Node21&#45;&gt;Node3 -->
<g id="edge37" class="edge"><title>Node21&#45;&gt;Node3</title>
<path fill="none" stroke="midnightblue" d="M622.524,-326.809C633.33,-308.97 643.071,-284.466 629,-268 620.859,-258.473 468.913,-237.73 377.369,-226.009"/>
<polygon fill="midnightblue" stroke="midnightblue" points="619.42,-325.162 616.896,-335.452 625.286,-328.981 619.42,-325.162"/>
</g>
<!-- Node21&#45;&gt;Node5 -->
<g id="edge39" class="edge"><title>Node21&#45;&gt;Node5</title>
<path fill="none" stroke="midnightblue" d="M541.783,-346.728C408.098,-339.342 108.052,-313.797 57,-232 30.2792,-189.187 55.5427,-125.982 69.347,-97.8782"/>
<polygon fill="midnightblue" stroke="midnightblue" points="541.712,-350.229 551.885,-347.268 542.087,-343.239 541.712,-350.229"/>
</g>
<!-- Node21&#45;&gt;Node16 -->
<g id="edge38" class="edge"><title>Node21&#45;&gt;Node16</title>
<path fill="none" stroke="midnightblue" d="M670.503,-347.742C712.8,-343.348 766.774,-331.154 803,-299 837.938,-267.989 813.173,-238.523 841,-201 879.031,-149.718 944.974,-108.976 975.128,-92.0285"/>
<polygon fill="midnightblue" stroke="midnightblue" points="669.935,-344.279 660.295,-348.676 670.573,-351.25 669.935,-344.279"/>
</g>
<!-- Node22 -->
<g id="node22" class="node"><title>Node22</title>
<g id="a_node22"><a xlink:href="delta__encoder_8hpp.html" target="_top" xlink:title="include/karazeh/delta\l_encoder.hpp">
<polygon fill="white" stroke="black" points="676,-268.5 676,-298.5 794,-298.5 794,-268.5 676,-268.5"/>
<text text-anchor="start" x="684" y="-286.5" font-family="Ubuntu Regular" font-size="10.00">include/karazeh/delta</text>
<text text-anchor="middle" x="735" y="-275.5" font-family="Ubuntu Regular" font-size="10.00">_encoder.hpp</text>
</a>
</g>
</g>
<!-- Node21&#45;&gt;Node22 -->
<g id="edge32" class="edge"><title>Node21&#45;&gt;Node22</title>
<path fill="none" stroke="midnightblue" d="M643.007,-330.853C663.403,-320.576 688.312,-308.025 707.064,-298.577"/>
<polygon fill="midnightblue" stroke="midnightblue" points="641.347,-327.77 633.991,-335.396 644.496,-334.022 641.347,-327.77"/>
</g>
<!-- Node23 -->
<g id="node23" class="node"><title>Node23</title>
<g id="a_node23"><a xlink:href="delta__encoder_8test_8cpp.html" target="_top" xlink:title="src/__tests__/delta\l_encoder.test.cpp">
<polygon fill="white" stroke="black" points="850,-201.5 850,-231.5 954,-231.5 954,-201.5 850,-201.5"/>
<text text-anchor="start" x="858" y="-219.5" font-family="Ubuntu Regular" font-size="10.00">src/__tests__/delta</text>
<text text-anchor="middle" x="902" y="-208.5" font-family="Ubuntu Regular" font-size="10.00">_encoder.test.cpp</text>
</a>
</g>
</g>
<!-- Node21&#45;&gt;Node23 -->
<g id="edge40" class="edge"><title>Node21&#45;&gt;Node23</title>
<path fill="none" stroke="midnightblue" d="M670.543,-346.742C719.174,-342.08 785.825,-329.978 836,-299 863.111,-282.261 883.998,-250.323 894.502,-231.787"/>
<polygon fill="midnightblue" stroke="midnightblue" points="670.107,-343.266 660.452,-347.628 670.719,-350.24 670.107,-343.266"/>
</g>
<!-- Node25 -->
<g id="node25" class="node"><title>Node25</title>
<g id="a_node25"><a xlink:href="file__manager_8test_8cpp.html" target="_top" xlink:title="src/__tests__/file\l_manager.test.cpp">
<polygon fill="white" stroke="black" points="388.5,-268.5 388.5,-298.5 489.5,-298.5 489.5,-268.5 388.5,-268.5"/>
<text text-anchor="start" x="396.5" y="-286.5" font-family="Ubuntu Regular" font-size="10.00">src/__tests__/file</text>
<text text-anchor="middle" x="439" y="-275.5" font-family="Ubuntu Regular" font-size="10.00">_manager.test.cpp</text>
</a>
</g>
</g>
<!-- Node21&#45;&gt;Node25 -->
<g id="edge41" class="edge"><title>Node21&#45;&gt;Node25</title>
<path fill="none" stroke="midnightblue" d="M560.22,-331.682C533.437,-321.257 500.098,-308.281 475.166,-298.577"/>
<polygon fill="midnightblue" stroke="midnightblue" points="559.175,-335.03 569.763,-335.396 561.714,-328.507 559.175,-335.03"/>
</g>
<!-- Node26 -->
<g id="node26" class="node"><title>Node26</title>
<g id="a_node26"><a xlink:href="file__manager_8cpp.html" target="_top" xlink:title="src/file_manager.cpp">
<polygon fill="white" stroke="black" points="508,-274 508,-293 620,-293 620,-274 508,-274"/>
<text text-anchor="middle" x="564" y="-281" font-family="Ubuntu Regular" font-size="10.00">src/file_manager.cpp</text>
</a>
</g>
</g>
<!-- Node21&#45;&gt;Node26 -->
<g id="edge42" class="edge"><title>Node21&#45;&gt;Node26</title>
<path fill="none" stroke="midnightblue" d="M591.445,-326.974C583.922,-315.332 575.177,-301.799 569.618,-293.195"/>
<polygon fill="midnightblue" stroke="midnightblue" points="588.52,-328.896 596.887,-335.396 594.399,-325.097 588.52,-328.896"/>
</g>
<!-- Node22&#45;&gt;Node13 -->
<g id="edge33" class="edge"><title>Node22&#45;&gt;Node13</title>
<path fill="none" stroke="midnightblue" d="M706.429,-262.468C693.629,-253.345 678.425,-242.304 665,-232 647.71,-218.729 646.707,-210.312 627,-201 618.799,-197.125 518.987,-177.656 447.739,-164.057"/>
<polygon fill="midnightblue" stroke="midnightblue" points="704.673,-265.514 714.855,-268.444 708.723,-259.804 704.673,-265.514"/>
</g>
<!-- Node22&#45;&gt;Node23 -->
<g id="edge34" class="edge"><title>Node22&#45;&gt;Node23</title>
<path fill="none" stroke="midnightblue" d="M780.78,-264.682C807.563,-254.257 840.902,-241.281 865.834,-231.577"/>
<polygon fill="midnightblue" stroke="midnightblue" points="779.286,-261.507 771.237,-268.396 781.825,-268.03 779.286,-261.507"/>
</g>
<!-- Node24 -->
<g id="node24" class="node"><title>Node24</title>
<g id="a_node24"><a xlink:href="delta__encoder_8cpp.html" target="_top" xlink:title="src/delta_encoder.cpp">
<polygon fill="white" stroke="black" points="674,-207 674,-226 794,-226 794,-207 674,-207"/>
<text text-anchor="middle" x="734" y="-214" font-family="Ubuntu Regular" font-size="10.00">src/delta_encoder.cpp</text>
</a>
</g>
</g>
<!-- Node22&#45;&gt;Node24 -->
<g id="edge35" class="edge"><title>Node22&#45;&gt;Node24</title>
<path fill="none" stroke="midnightblue" d="M734.627,-258.25C734.454,-247.017 734.26,-234.377 734.134,-226.195"/>
<polygon fill="midnightblue" stroke="midnightblue" points="731.13,-258.451 734.783,-268.396 738.129,-258.343 731.13,-258.451"/>
</g>
<!-- Node27&#45;&gt;Node9 -->
<g id="edge48" class="edge"><title>Node27&#45;&gt;Node9</title>
<path fill="none" stroke="midnightblue" d="M971.057,-258.332C972.131,-241.479 971.399,-218.896 963,-201 940.983,-154.086 891.148,-116.663 861.482,-97.5032"/>
<polygon fill="midnightblue" stroke="midnightblue" points="967.555,-258.202 970.153,-268.473 974.527,-258.823 967.555,-258.202"/>
</g>
<!-- Node27&#45;&gt;Node19 -->
<g id="edge45" class="edge"><title>Node27&#45;&gt;Node19</title>
<path fill="none" stroke="midnightblue" d="M893.042,-271.351C806.613,-258.495 666.439,-237.645 588.287,-226.021"/>
<polygon fill="midnightblue" stroke="midnightblue" points="892.642,-274.83 903.049,-272.839 893.672,-267.906 892.642,-274.83"/>
</g>
<!-- Node27&#45;&gt;Node23 -->
<g id="edge44" class="edge"><title>Node27&#45;&gt;Node23</title>
<path fill="none" stroke="midnightblue" d="M946.485,-261.311C936.585,-251.561 925.109,-240.259 916.293,-231.577"/>
<polygon fill="midnightblue" stroke="midnightblue" points="944.098,-263.873 953.679,-268.396 949.01,-258.885 944.098,-263.873"/>
</g>
<!-- Node28 -->
<g id="node28" class="node"><title>Node28</title>
<g id="a_node28"><a xlink:href="md5__hasher_8test_8cpp.html" target="_top" xlink:title="src/hashers/__tests\l__/md5_hasher.test.cpp">
<polygon fill="white" stroke="black" points="1010.5,-201.5 1010.5,-231.5 1135.5,-231.5 1135.5,-201.5 1010.5,-201.5"/>
<text text-anchor="start" x="1018.5" y="-219.5" font-family="Ubuntu Regular" font-size="10.00">src/hashers/__tests</text>
<text text-anchor="middle" x="1073" y="-208.5" font-family="Ubuntu Regular" font-size="10.00">__/md5_hasher.test.cpp</text>
</a>
</g>
</g>
<!-- Node27&#45;&gt;Node28 -->
<g id="edge46" class="edge"><title>Node27&#45;&gt;Node28</title>
<path fill="none" stroke="midnightblue" d="M999.476,-263.015C1015.82,-252.9 1035.41,-240.77 1050.26,-231.577"/>
<polygon fill="midnightblue" stroke="midnightblue" points="997.444,-260.156 990.783,-268.396 1001.13,-266.108 997.444,-260.156"/>
</g>
<!-- Node29 -->
<g id="node29" class="node"><title>Node29</title>
<g id="a_node29"><a xlink:href="md5__hasher_8cpp.html" target="_top" xlink:title="src/hashers/md5_hasher.cpp">
<polygon fill="white" stroke="black" points="1154,-207 1154,-226 1302,-226 1302,-207 1154,-207"/>
<text text-anchor="middle" x="1228" y="-214" font-family="Ubuntu Regular" font-size="10.00">src/hashers/md5_hasher.cpp</text>
</a>
</g>
</g>
<!-- Node27&#45;&gt;Node29 -->
<g id="edge47" class="edge"><title>Node27&#45;&gt;Node29</title>
<path fill="none" stroke="midnightblue" d="M1034.04,-265.99C1084.99,-253.252 1153.41,-236.148 1193.89,-226.029"/>
<polygon fill="midnightblue" stroke="midnightblue" points="1032.95,-262.655 1024.1,-268.476 1034.65,-269.446 1032.95,-262.655"/>
</g>
<!-- Node30&#45;&gt;Node6 -->
<g id="edge51" class="edge"><title>Node30&#45;&gt;Node6</title>
<path fill="none" stroke="midnightblue" d="M1436.91,-282.552C1519.48,-279.87 1643.27,-265.419 1604,-201 1460.62,34.1962 1280.95,-68.079 1008,-31 995.265,-29.27 981.538,-27.1377 968.8,-25.0456"/>
<polygon fill="midnightblue" stroke="midnightblue" points="1436.71,-279.056 1426.81,-282.829 1436.9,-286.053 1436.71,-279.056"/>
</g>
<!-- Node30&#45;&gt;Node7 -->
<g id="edge53" class="edge"><title>Node30&#45;&gt;Node7</title>
<path fill="none" stroke="midnightblue" d="M1356.32,-259.373C1345.86,-241.806 1329.72,-217.872 1311,-201 1221.11,-119.996 1189.48,-103.143 1074,-67 983.667,-38.7273 704.548,-23.9372 583.719,-18.7196"/>
<polygon fill="midnightblue" stroke="midnightblue" points="1353.5,-261.485 1361.53,-268.393 1359.56,-257.983 1353.5,-261.485"/>
</g>
<!-- Node30&#45;&gt;Node23 -->
<g id="edge50" class="edge"><title>Node30&#45;&gt;Node23</title>
<path fill="none" stroke="midnightblue" d="M1301.39,-273.346C1227.73,-263.339 1106.46,-246.76 1002,-232 986.454,-229.803 969.555,-227.37 954.15,-225.135"/>
<polygon fill="midnightblue" stroke="midnightblue" points="1301.07,-276.835 1311.45,-274.713 1302.02,-269.899 1301.07,-276.835"/>
</g>
<!-- Node31 -->
<g id="node31" class="node"><title>Node31</title>
<g id="a_node31"><a xlink:href="path__resolver_8test_8cpp.html" target="_top" xlink:title="src/__tests__/path\l_resolver.test.cpp">
<polygon fill="white" stroke="black" points="1358.5,-201.5 1358.5,-231.5 1459.5,-231.5 1459.5,-201.5 1358.5,-201.5"/>
<text text-anchor="start" x="1366.5" y="-219.5" font-family="Ubuntu Regular" font-size="10.00">src/__tests__/path</text>
<text text-anchor="middle" x="1409" y="-208.5" font-family="Ubuntu Regular" font-size="10.00">_resolver.test.cpp</text>
</a>
</g>
</g>
<!-- Node30&#45;&gt;Node31 -->
<g id="edge52" class="edge"><title>Node30&#45;&gt;Node31</title>
<path fill="none" stroke="midnightblue" d="M1382.93,-259.867C1388.72,-250.459 1395.26,-239.833 1400.34,-231.577"/>
<polygon fill="midnightblue" stroke="midnightblue" points="1379.94,-258.045 1377.68,-268.396 1385.9,-261.714 1379.94,-258.045"/>
</g>
<!-- Node32 -->
<g id="node32" class="node"><title>Node32</title>
<g id="a_node32"><a xlink:href="path__resolver_8cpp.html" target="_top" xlink:title="src/path_resolver.cpp">
<polygon fill="white" stroke="black" points="1477.5,-207 1477.5,-226 1594.5,-226 1594.5,-207 1477.5,-207"/>
<text text-anchor="middle" x="1536" y="-214" font-family="Ubuntu Regular" font-size="10.00">src/path_resolver.cpp</text>
</a>
</g>
</g>
<!-- Node30&#45;&gt;Node32 -->
<g id="edge54" class="edge"><title>Node30&#45;&gt;Node32</title>
<path fill="none" stroke="midnightblue" d="M1414.93,-264.621C1447.26,-252.04 1489.07,-235.766 1514.14,-226.007"/>
<polygon fill="midnightblue" stroke="midnightblue" points="1413.29,-261.507 1405.24,-268.396 1415.83,-268.03 1413.29,-261.507"/>
</g>
</g>
</svg>
