<?xml version="1.0" encoding="UTF-8" standalone="no"?>
<!DOCTYPE svg PUBLIC "-//W3C//DTD SVG 1.1//EN"
 "http://www.w3.org/Graphics/SVG/1.1/DTD/svg11.dtd">
<!-- Generated by graphviz version 2.38.0 (20140413.2041)
 -->
<!-- Title: Graphical Class Hierarchy Pages: 1 -->
<svg width="245pt" height="294pt"
 viewBox="0.00 0.00 245.00 294.00" xmlns="http://www.w3.org/2000/svg" xmlns:xlink="http://www.w3.org/1999/xlink">
<g id="graph0" class="graph" transform="scale(1 1) rotate(0) translate(4 290)">
<title>Graphical Class Hierarchy</title>
<polygon fill="white" stroke="none" points="-4,4 -4,-290 241,-290 241,4 -4,4"/>
<!-- Node1 -->
<g id="node1" class="node"><title>Node1</title>
<g id="a_node1"><a xlink:href="classkzh_1_1logger.html" target="_top" xlink:title="kzh::logger">
<polygon fill="white" stroke="black" points="7,-133.5 7,-152.5 75,-152.5 75,-133.5 7,-133.5"/>
<text text-anchor="middle" x="41" y="-140.5" font-family="Ubuntu Regular" font-size="10.00">kzh::logger</text>
</a>
</g>
</g>
<!-- Node2 -->
<g id="node2" class="node"><title>Node2</title>
<g id="a_node2"><a xlink:href="classkzh_1_1create__operation.html" target="_top" xlink:title="kzh::create_operation">
<polygon fill="white" stroke="black" points="119,-266.5 119,-285.5 236,-285.5 236,-266.5 119,-266.5"/>
<text text-anchor="middle" x="177.5" y="-273.5" font-family="Ubuntu Regular" font-size="10.00">kzh::create_operation</text>
</a>
</g>
</g>
<!-- Node1&#45;&gt;Node2 -->
<g id="edge1" class="edge"><title>Node1&#45;&gt;Node2</title>
<path fill="none" stroke="darkgreen" d="M49.7238,-161.75C61.0478,-186.982 84.5071,-231.622 118,-257 123.107,-260.869 129.033,-263.969 135.115,-266.446"/>
<polygon fill="darkgreen" stroke="darkgreen" points="52.9184,-160.319 45.7398,-152.527 46.4923,-163.095 52.9184,-160.319"/>
</g>
<!-- Node3 -->
<g id="node3" class="node"><title>Node3</title>
<g id="a_node3"><a xlink:href="classkzh_1_1delete__operation.html" target="_top" xlink:title="kzh::delete_operation">
<polygon fill="white" stroke="black" points="118.5,-228.5 118.5,-247.5 236.5,-247.5 236.5,-228.5 118.5,-228.5"/>
<text text-anchor="middle" x="177.5" y="-235.5" font-family="Ubuntu Regular" font-size="10.00">kzh::delete_operation</text>
</a>
</g>
</g>
<!-- Node1&#45;&gt;Node3 -->
<g id="edge2" class="edge"><title>Node1&#45;&gt;Node3</title>
<path fill="none" stroke="darkgreen" d="M55.5055,-160.711C69.4407,-177.858 92.6635,-203.476 118,-219 124.192,-222.794 131.221,-225.913 138.207,-228.447"/>
<polygon fill="darkgreen" stroke="darkgreen" points="58.051,-158.287 49.1029,-152.614 52.5604,-162.629 58.051,-158.287"/>
</g>
<!-- Node4 -->
<g id="node4" class="node"><title>Node4</title>
<g id="a_node4"><a xlink:href="classkzh_1_1delta__encoder.html" target="_top" xlink:title="librsync implementation of delta encoding, used in rdiff. ">
<polygon fill="white" stroke="black" points="125.5,-0.5 125.5,-19.5 229.5,-19.5 229.5,-0.5 125.5,-0.5"/>
<text text-anchor="middle" x="177.5" y="-7.5" font-family="Ubuntu Regular" font-size="10.00">kzh::delta_encoder</text>
</a>
</g>
</g>
<!-- Node1&#45;&gt;Node4 -->
<g id="edge3" class="edge"><title>Node1&#45;&gt;Node4</title>
<path fill="none" stroke="midnightblue" d="M49.7238,-124.25C61.0478,-99.018 84.5071,-54.3778 118,-29 123.107,-25.1306 129.033,-22.0313 135.115,-19.5536"/>
<polygon fill="midnightblue" stroke="midnightblue" points="46.4923,-122.905 45.7398,-133.473 52.9184,-125.681 46.4923,-122.905"/>
</g>
<!-- Node5 -->
<g id="node5" class="node"><title>Node5</title>
<g id="a_node5"><a xlink:href="classkzh_1_1downloader.html" target="_top" xlink:title="kzh::downloader">
<polygon fill="white" stroke="black" points="132,-152.5 132,-171.5 223,-171.5 223,-152.5 132,-152.5"/>
<text text-anchor="middle" x="177.5" y="-159.5" font-family="Ubuntu Regular" font-size="10.00">kzh::downloader</text>
</a>
</g>
</g>
<!-- Node1&#45;&gt;Node5 -->
<g id="edge4" class="edge"><title>Node1&#45;&gt;Node5</title>
<path fill="none" stroke="darkgreen" d="M85.251,-149.11C100.183,-151.219 116.932,-153.585 131.964,-155.709"/>
<polygon fill="darkgreen" stroke="darkgreen" points="85.6385,-145.63 75.2472,-147.697 84.6593,-152.561 85.6385,-145.63"/>
</g>
<!-- Node6 -->
<g id="node6" class="node"><title>Node6</title>
<g id="a_node6"><a xlink:href="classkzh_1_1file__manager.html" target="_top" xlink:title="kzh::file_manager">
<polygon fill="white" stroke="black" points="129.5,-114.5 129.5,-133.5 225.5,-133.5 225.5,-114.5 129.5,-114.5"/>
<text text-anchor="middle" x="177.5" y="-121.5" font-family="Ubuntu Regular" font-size="10.00">kzh::file_manager</text>
</a>
</g>
</g>
<!-- Node1&#45;&gt;Node6 -->
<g id="edge5" class="edge"><title>Node1&#45;&gt;Node6</title>
<path fill="none" stroke="midnightblue" d="M85.1923,-136.898C99.3039,-134.905 115.043,-132.682 129.426,-130.65"/>
<polygon fill="midnightblue" stroke="midnightblue" points="84.6593,-133.439 75.2472,-138.303 85.6385,-140.37 84.6593,-133.439"/>
</g>
<!-- Node7 -->
<g id="node7" class="node"><title>Node7</title>
<g id="a_node7"><a xlink:href="classkzh_1_1patcher.html" target="_top" xlink:title="kzh::patcher">
<polygon fill="white" stroke="black" points="140.5,-76.5 140.5,-95.5 214.5,-95.5 214.5,-76.5 140.5,-76.5"/>
<text text-anchor="middle" x="177.5" y="-83.5" font-family="Ubuntu Regular" font-size="10.00">kzh::patcher</text>
</a>
</g>
</g>
<!-- Node1&#45;&gt;Node7 -->
<g id="edge6" class="edge"><title>Node1&#45;&gt;Node7</title>
<path fill="none" stroke="darkgreen" d="M68.0401,-128.767C82.5096,-121.169 100.979,-111.973 118,-105 126.399,-101.559 135.67,-98.3082 144.308,-95.5009"/>
<polygon fill="darkgreen" stroke="darkgreen" points="66.3482,-125.702 59.1646,-133.49 69.6367,-131.882 66.3482,-125.702"/>
</g>
<!-- Node8 -->
<g id="node8" class="node"><title>Node8</title>
<g id="a_node8"><a xlink:href="classkzh_1_1path__resolver.html" target="_top" xlink:title="kzh::path_resolver">
<polygon fill="white" stroke="black" points="127,-38.5 127,-57.5 228,-57.5 228,-38.5 127,-38.5"/>
<text text-anchor="middle" x="177.5" y="-45.5" font-family="Ubuntu Regular" font-size="10.00">kzh::path_resolver</text>
</a>
</g>
</g>
<!-- Node1&#45;&gt;Node8 -->
<g id="edge7" class="edge"><title>Node1&#45;&gt;Node8</title>
<path fill="none" stroke="darkgreen" d="M55.5055,-125.289C69.4407,-108.142 92.6635,-82.5241 118,-67 124.192,-63.2063 131.221,-60.0874 138.207,-57.5526"/>
<polygon fill="darkgreen" stroke="darkgreen" points="52.5604,-123.371 49.1029,-133.386 58.051,-127.713 52.5604,-123.371"/>
</g>
<!-- Node9 -->
<g id="node9" class="node"><title>Node9</title>
<g id="a_node9"><a xlink:href="classkzh_1_1update__operation.html" target="_top" xlink:title="kzh::update_operation">
<polygon fill="white" stroke="black" points="118,-190.5 118,-209.5 237,-209.5 237,-190.5 118,-190.5"/>
<text text-anchor="middle" x="177.5" y="-197.5" font-family="Ubuntu Regular" font-size="10.00">kzh::update_operation</text>
</a>
</g>
</g>
<!-- Node1&#45;&gt;Node9 -->
<g id="edge8" class="edge"><title>Node1&#45;&gt;Node9</title>
<path fill="none" stroke="darkgreen" d="M68.0401,-157.233C82.5096,-164.831 100.979,-174.027 118,-181 126.399,-184.441 135.67,-187.692 144.308,-190.499"/>
<polygon fill="darkgreen" stroke="darkgreen" points="69.6367,-154.118 59.1646,-152.51 66.3482,-160.298 69.6367,-154.118"/>
</g>
<!-- Node10 -->
<g id="node10" class="node"><title>Node10</title>
<g id="a_node10"><a xlink:href="classkzh_1_1operation.html" target="_top" xlink:title="kzh::operation">
<polygon fill="white" stroke="black" points="0,-228.5 0,-247.5 82,-247.5 82,-228.5 0,-228.5"/>
<text text-anchor="middle" x="41" y="-235.5" font-family="Ubuntu Regular" font-size="10.00">kzh::operation</text>
</a>
</g>
</g>
<!-- Node10&#45;&gt;Node2 -->
<g id="edge9" class="edge"><title>Node10&#45;&gt;Node2</title>
<path fill="none" stroke="midnightblue" d="M85.6004,-250.318C104.08,-255.539 125.289,-261.532 142.571,-266.414"/>
<polygon fill="midnightblue" stroke="midnightblue" points="86.515,-246.94 75.94,-247.589 84.6117,-253.676 86.515,-246.94"/>
</g>
<!-- Node10&#45;&gt;Node3 -->
<g id="edge10" class="edge"><title>Node10&#45;&gt;Node3</title>
<path fill="none" stroke="midnightblue" d="M92.4163,-238C100.851,-238 109.662,-238 118.273,-238"/>
<polygon fill="midnightblue" stroke="midnightblue" points="92.3545,-234.5 82.3544,-238 92.3544,-241.5 92.3545,-234.5"/>
</g>
<!-- Node10&#45;&gt;Node9 -->
<g id="edge11" class="edge"><title>Node10&#45;&gt;Node9</title>
<path fill="none" stroke="midnightblue" d="M85.6004,-225.682C104.08,-220.461 125.289,-214.468 142.571,-209.586"/>
<polygon fill="midnightblue" stroke="midnightblue" points="84.6117,-222.324 75.94,-228.411 86.515,-229.06 84.6117,-222.324"/>
</g>
</g>
</svg>
