<?xml version="1.0" encoding="UTF-8" standalone="no"?>
<!DOCTYPE svg PUBLIC "-//W3C//DTD SVG 1.1//EN"
 "http://www.w3.org/Graphics/SVG/1.1/DTD/svg11.dtd">
<!-- Generated by graphviz version 2.38.0 (20140413.2041)
 -->
<!-- Title: Graphical Class Hierarchy Pages: 1 -->
<svg width="235pt" height="142pt"
 viewBox="0.00 0.00 235.00 142.00" xmlns="http://www.w3.org/2000/svg" xmlns:xlink="http://www.w3.org/1999/xlink">
<g id="graph0" class="graph" transform="scale(1 1) rotate(0) translate(4 138)">
<title>Graphical Class Hierarchy</title>
<polygon fill="white" stroke="none" points="-4,4 -4,-138 231,-138 231,4 -4,4"/>
<!-- Node1 -->
<g id="node1" class="node"><title>Node1</title>
<polygon fill="white" stroke="#bfbfbf" points="0,-57.5 0,-76.5 80,-76.5 80,-57.5 0,-57.5"/>
<text text-anchor="middle" x="40" y="-64.5" font-family="Ubuntu Regular" font-size="10.00">runtime_error</text>
</g>
<!-- Node2 -->
<g id="node2" class="node"><title>Node2</title>
<g id="a_node2"><a xlink:href="classkzh_1_1invalid__manifest.html" target="_top" xlink:title="kzh::invalid_manifest">
<polygon fill="white" stroke="black" points="116.5,-114.5 116.5,-133.5 226.5,-133.5 226.5,-114.5 116.5,-114.5"/>
<text text-anchor="middle" x="171.5" y="-121.5" font-family="Ubuntu Regular" font-size="10.00">kzh::invalid_manifest</text>
</a>
</g>
</g>
<!-- Node1&#45;&gt;Node2 -->
<g id="edge1" class="edge"><title>Node1&#45;&gt;Node2</title>
<path fill="none" stroke="midnightblue" d="M67.4266,-81.479C81.6108,-88.971 99.5207,-97.9897 116,-105 123.93,-108.373 132.682,-111.624 140.81,-114.455"/>
<polygon fill="midnightblue" stroke="midnightblue" points="68.734,-78.2092 58.2652,-76.5796 65.4329,-84.3819 68.734,-78.2092"/>
</g>
<!-- Node3 -->
<g id="node3" class="node"><title>Node3</title>
<g id="a_node3"><a xlink:href="classkzh_1_1invalid__resource.html" target="_top" xlink:title="kzh::invalid_resource">
<polygon fill="white" stroke="black" points="116,-76.5 116,-95.5 227,-95.5 227,-76.5 116,-76.5"/>
<text text-anchor="middle" x="171.5" y="-83.5" font-family="Ubuntu Regular" font-size="10.00">kzh::invalid_resource</text>
</a>
</g>
</g>
<!-- Node1&#45;&gt;Node3 -->
<g id="edge2" class="edge"><title>Node1&#45;&gt;Node3</title>
<path fill="none" stroke="midnightblue" d="M90.1516,-74.2114C98.4875,-75.4345 107.19,-76.7113 115.661,-77.9541"/>
<polygon fill="midnightblue" stroke="midnightblue" points="90.6079,-70.741 80.2057,-72.7522 89.5917,-77.6668 90.6079,-70.741"/>
</g>
<!-- Node4 -->
<g id="node4" class="node"><title>Node4</title>
<g id="a_node4"><a xlink:href="classkzh_1_1invalid__state.html" target="_top" xlink:title="kzh::invalid_state">
<polygon fill="white" stroke="black" points="124,-38.5 124,-57.5 219,-57.5 219,-38.5 124,-38.5"/>
<text text-anchor="middle" x="171.5" y="-45.5" font-family="Ubuntu Regular" font-size="10.00">kzh::invalid_state</text>
</a>
</g>
</g>
<!-- Node1&#45;&gt;Node4 -->
<g id="edge3" class="edge"><title>Node1&#45;&gt;Node4</title>
<path fill="none" stroke="midnightblue" d="M90.4338,-59.7472C101.344,-58.1464 112.87,-56.4554 123.673,-54.8703"/>
<polygon fill="midnightblue" stroke="midnightblue" points="89.5917,-56.3332 80.2057,-61.2478 90.6079,-63.259 89.5917,-56.3332"/>
</g>
<!-- Node5 -->
<g id="node5" class="node"><title>Node5</title>
<g id="a_node5"><a xlink:href="classkzh_1_1manifest__error.html" target="_top" xlink:title="kzh::manifest_error">
<polygon fill="white" stroke="black" points="119.5,-0.5 119.5,-19.5 223.5,-19.5 223.5,-0.5 119.5,-0.5"/>
<text text-anchor="middle" x="171.5" y="-7.5" font-family="Ubuntu Regular" font-size="10.00">kzh::manifest_error</text>
</a>
</g>
</g>
<!-- Node1&#45;&gt;Node5 -->
<g id="edge4" class="edge"><title>Node1&#45;&gt;Node5</title>
<path fill="none" stroke="midnightblue" d="M67.4266,-52.521C81.6108,-45.029 99.5207,-36.0103 116,-29 123.93,-25.6267 132.682,-22.3756 140.81,-19.5453"/>
<polygon fill="midnightblue" stroke="midnightblue" points="65.4329,-49.6181 58.2652,-57.4204 68.734,-55.7908 65.4329,-49.6181"/>
</g>
</g>
</svg>
