<?xml version="1.0" encoding="UTF-8" standalone="no"?>
<!DOCTYPE svg PUBLIC "-//W3C//DTD SVG 1.1//EN"
 "http://www.w3.org/Graphics/SVG/1.1/DTD/svg11.dtd">
<!-- Generated by graphviz version 2.38.0 (20140413.2041)
 -->
<!-- Title: include/karazeh/karazeh.hpp Pages: 1 -->
<svg width="432pt" height="140pt"
 viewBox="0.00 0.00 432.13 140.00" xmlns="http://www.w3.org/2000/svg" xmlns:xlink="http://www.w3.org/1999/xlink">
<g id="graph0" class="graph" transform="scale(1 1) rotate(0) translate(4 136)">
<title>include/karazeh/karazeh.hpp</title>
<polygon fill="white" stroke="none" points="-4,4 -4,-136 428.133,-136 428.133,4 -4,4"/>
<!-- Node1 -->
<g id="node1" class="node"><title>Node1</title>
<polygon fill="#bfbfbf" stroke="black" points="13.1328,-112.5 13.1328,-131.5 162.133,-131.5 162.133,-112.5 13.1328,-112.5"/>
<text text-anchor="middle" x="87.6328" y="-119.5" font-family="Ubuntu Regular" font-size="10.00">include/karazeh/karazeh.hpp</text>
</g>
<!-- Node2 -->
<g id="node2" class="node"><title>Node2</title>
<polygon fill="white" stroke="#bfbfbf" points="32.1328,-0.5 32.1328,-19.5 75.1328,-19.5 75.1328,-0.5 32.1328,-0.5"/>
<text text-anchor="middle" x="53.6328" y="-7.5" font-family="Ubuntu Regular" font-size="10.00">string</text>
</g>
<!-- Node1&#45;&gt;Node2 -->
<g id="edge1" class="edge"><title>Node1&#45;&gt;Node2</title>
<path fill="none" stroke="midnightblue" d="M54.6465,-112.438C36.17,-105.769 14.6812,-94.4527 3.63285,-76 -7.49191,-57.4198 12.2558,-37.9714 30.1161,-25.2463"/>
<polygon fill="midnightblue" stroke="midnightblue" points="32.2271,-28.045 38.5888,-19.5727 28.3322,-22.2286 32.2271,-28.045"/>
</g>
<!-- Node3 -->
<g id="node3" class="node"><title>Node3</title>
<polygon fill="white" stroke="#bfbfbf" points="12.6328,-56.5 12.6328,-75.5 62.6328,-75.5 62.6328,-56.5 12.6328,-56.5"/>
<text text-anchor="middle" x="37.6328" y="-63.5" font-family="Ubuntu Regular" font-size="10.00">cassert</text>
</g>
<!-- Node1&#45;&gt;Node3 -->
<g id="edge2" class="edge"><title>Node1&#45;&gt;Node3</title>
<path fill="none" stroke="midnightblue" d="M79.3764,-112.083C72.1682,-104.298 61.5231,-92.8015 52.787,-83.3665"/>
<polygon fill="midnightblue" stroke="midnightblue" points="55.098,-80.7108 45.7357,-75.7511 49.9616,-85.4666 55.098,-80.7108"/>
</g>
<!-- Node4 -->
<g id="node4" class="node"><title>Node4</title>
<polygon fill="white" stroke="#bfbfbf" points="80.6328,-56.5 80.6328,-75.5 196.633,-75.5 196.633,-56.5 80.6328,-56.5"/>
<text text-anchor="middle" x="138.633" y="-63.5" font-family="Ubuntu Regular" font-size="10.00">boost/filesystem.hpp</text>
</g>
<!-- Node1&#45;&gt;Node4 -->
<g id="edge3" class="edge"><title>Node1&#45;&gt;Node4</title>
<path fill="none" stroke="midnightblue" d="M96.0545,-112.083C103.481,-104.22 114.485,-92.5688 123.445,-83.0813"/>
<polygon fill="midnightblue" stroke="midnightblue" points="126.046,-85.4244 130.368,-75.7511 120.957,-80.618 126.046,-85.4244"/>
</g>
<!-- Node5 -->
<g id="node5" class="node"><title>Node5</title>
<g id="a_node5"><a xlink:href="exception_8hpp.html" target="_top" xlink:title="karazeh/exception.hpp">
<polygon fill="white" stroke="black" points="215.133,-56.5 215.133,-75.5 338.133,-75.5 338.133,-56.5 215.133,-56.5"/>
<text text-anchor="middle" x="276.633" y="-63.5" font-family="Ubuntu Regular" font-size="10.00">karazeh/exception.hpp</text>
</a>
</g>
</g>
<!-- Node1&#45;&gt;Node5 -->
<g id="edge4" class="edge"><title>Node1&#45;&gt;Node5</title>
<path fill="none" stroke="midnightblue" d="M117.58,-112.444C149.791,-103.241 201.167,-88.5617 236.775,-78.3879"/>
<polygon fill="midnightblue" stroke="midnightblue" points="238.172,-81.629 246.825,-75.5164 236.249,-74.8984 238.172,-81.629"/>
</g>
<!-- Node5&#45;&gt;Node2 -->
<g id="edge6" class="edge"><title>Node5&#45;&gt;Node2</title>
<path fill="none" stroke="midnightblue" d="M241.298,-56.4435C198.275,-46.0255 126.272,-28.5899 85.0867,-18.6166"/>
<polygon fill="midnightblue" stroke="midnightblue" points="85.8589,-15.2025 75.3161,-16.2506 84.2114,-22.0059 85.8589,-15.2025"/>
</g>
<!-- Node6 -->
<g id="node6" class="node"><title>Node6</title>
<polygon fill="white" stroke="#bfbfbf" points="163.133,-0.5 163.133,-19.5 226.133,-19.5 226.133,-0.5 163.133,-0.5"/>
<text text-anchor="middle" x="194.633" y="-7.5" font-family="Ubuntu Regular" font-size="10.00">exception</text>
</g>
<!-- Node5&#45;&gt;Node6 -->
<g id="edge5" class="edge"><title>Node5&#45;&gt;Node6</title>
<path fill="none" stroke="midnightblue" d="M263.458,-56.324C250.786,-47.979 231.399,-35.2122 216.427,-25.3524"/>
<polygon fill="midnightblue" stroke="midnightblue" points="218.052,-22.2313 207.775,-19.6545 214.202,-28.0776 218.052,-22.2313"/>
</g>
<!-- Node7 -->
<g id="node7" class="node"><title>Node7</title>
<polygon fill="white" stroke="#bfbfbf" points="244.133,-0.5 244.133,-19.5 309.133,-19.5 309.133,-0.5 244.133,-0.5"/>
<text text-anchor="middle" x="276.633" y="-7.5" font-family="Ubuntu Regular" font-size="10.00">stdexcept</text>
</g>
<!-- Node5&#45;&gt;Node7 -->
<g id="edge7" class="edge"><title>Node5&#45;&gt;Node7</title>
<path fill="none" stroke="midnightblue" d="M276.633,-56.083C276.633,-49.0059 276.633,-38.8611 276.633,-29.9865"/>
<polygon fill="midnightblue" stroke="midnightblue" points="280.133,-29.751 276.633,-19.7511 273.133,-29.7511 280.133,-29.751"/>
</g>
<!-- Node8 -->
<g id="node8" class="node"><title>Node8</title>
<polygon fill="white" stroke="#bfbfbf" points="327.133,-0.5 327.133,-19.5 424.133,-19.5 424.133,-0.5 327.133,-0.5"/>
<text text-anchor="middle" x="375.633" y="-7.5" font-family="Ubuntu Regular" font-size="10.00">karazeh_export.h</text>
</g>
<!-- Node5&#45;&gt;Node8 -->
<g id="edge8" class="edge"><title>Node5&#45;&gt;Node8</title>
<path fill="none" stroke="midnightblue" d="M292.539,-56.324C308.271,-47.7428 332.575,-34.486 350.842,-24.5224"/>
<polygon fill="midnightblue" stroke="midnightblue" points="352.663,-27.5157 359.766,-19.6545 349.311,-21.3704 352.663,-27.5157"/>
</g>
</g>
</svg>
