<?xml version="1.0" encoding="UTF-8" standalone="no"?>
<!DOCTYPE svg PUBLIC "-//W3C//DTD SVG 1.1//EN"
 "http://www.w3.org/Graphics/SVG/1.1/DTD/svg11.dtd">
<!-- Generated by graphviz version 2.38.0 (20140413.2041)
 -->
<!-- Title: src/logger.cpp Pages: 1 -->
<svg width="634pt" height="252pt"
 viewBox="0.00 0.00 634.00 252.00" xmlns="http://www.w3.org/2000/svg" xmlns:xlink="http://www.w3.org/1999/xlink">
<g id="graph0" class="graph" transform="scale(1 1) rotate(0) translate(4 248)">
<title>src/logger.cpp</title>
<polygon fill="white" stroke="none" points="-4,4 -4,-248 630,-248 630,4 -4,4"/>
<!-- Node1 -->
<g id="node1" class="node"><title>Node1</title>
<polygon fill="#bfbfbf" stroke="black" points="178,-224.5 178,-243.5 261,-243.5 261,-224.5 178,-224.5"/>
<text text-anchor="middle" x="219.5" y="-231.5" font-family="Ubuntu Regular" font-size="10.00">src/logger.cpp</text>
</g>
<!-- Node2 -->
<g id="node2" class="node"><title>Node2</title>
<g id="a_node2"><a xlink:href="logger_8hpp.html" target="_top" xlink:title="karazeh/logger.hpp">
<polygon fill="white" stroke="black" points="117,-168.5 117,-187.5 224,-187.5 224,-168.5 117,-168.5"/>
<text text-anchor="middle" x="170.5" y="-175.5" font-family="Ubuntu Regular" font-size="10.00">karazeh/logger.hpp</text>
</a>
</g>
</g>
<!-- Node1&#45;&gt;Node2 -->
<g id="edge1" class="edge"><title>Node1&#45;&gt;Node2</title>
<path fill="none" stroke="midnightblue" d="M211.409,-224.083C204.345,-216.298 193.912,-204.801 185.351,-195.367"/>
<polygon fill="midnightblue" stroke="midnightblue" points="187.753,-192.805 178.441,-187.751 182.569,-197.509 187.753,-192.805"/>
</g>
<!-- Node14 -->
<g id="node14" class="node"><title>Node14</title>
<polygon fill="white" stroke="#bfbfbf" points="242.5,-168.5 242.5,-187.5 294.5,-187.5 294.5,-168.5 242.5,-168.5"/>
<text text-anchor="middle" x="268.5" y="-175.5" font-family="Ubuntu Regular" font-size="10.00">iomanip</text>
</g>
<!-- Node1&#45;&gt;Node14 -->
<g id="edge15" class="edge"><title>Node1&#45;&gt;Node14</title>
<path fill="none" stroke="midnightblue" d="M227.591,-224.083C234.655,-216.298 245.088,-204.801 253.649,-195.367"/>
<polygon fill="midnightblue" stroke="midnightblue" points="256.431,-197.509 260.559,-187.751 251.247,-192.805 256.431,-197.509"/>
</g>
<!-- Node3 -->
<g id="node3" class="node"><title>Node3</title>
<polygon fill="white" stroke="#bfbfbf" points="0,-112.5 0,-131.5 53,-131.5 53,-112.5 0,-112.5"/>
<text text-anchor="middle" x="26.5" y="-119.5" font-family="Ubuntu Regular" font-size="10.00">sstream</text>
</g>
<!-- Node2&#45;&gt;Node3 -->
<g id="edge2" class="edge"><title>Node2&#45;&gt;Node3</title>
<path fill="none" stroke="midnightblue" d="M147.683,-168.444C123.668,-159.438 85.671,-145.189 58.6308,-135.049"/>
<polygon fill="midnightblue" stroke="midnightblue" points="59.8027,-131.751 49.2105,-131.516 57.3448,-138.305 59.8027,-131.751"/>
</g>
<!-- Node4 -->
<g id="node4" class="node"><title>Node4</title>
<polygon fill="white" stroke="#bfbfbf" points="71,-112.5 71,-131.5 124,-131.5 124,-112.5 71,-112.5"/>
<text text-anchor="middle" x="97.5" y="-119.5" font-family="Ubuntu Regular" font-size="10.00">fstream</text>
</g>
<!-- Node2&#45;&gt;Node4 -->
<g id="edge3" class="edge"><title>Node2&#45;&gt;Node4</title>
<path fill="none" stroke="midnightblue" d="M158.771,-168.324C147.663,-160.107 130.758,-147.602 117.517,-137.807"/>
<polygon fill="midnightblue" stroke="midnightblue" points="119.563,-134.967 109.442,-131.834 115.4,-140.595 119.563,-134.967"/>
</g>
<!-- Node5 -->
<g id="node5" class="node"><title>Node5</title>
<polygon fill="white" stroke="#bfbfbf" points="142,-112.5 142,-131.5 199,-131.5 199,-112.5 142,-112.5"/>
<text text-anchor="middle" x="170.5" y="-119.5" font-family="Ubuntu Regular" font-size="10.00">iostream</text>
</g>
<!-- Node2&#45;&gt;Node5 -->
<g id="edge4" class="edge"><title>Node2&#45;&gt;Node5</title>
<path fill="none" stroke="midnightblue" d="M170.5,-168.083C170.5,-161.006 170.5,-150.861 170.5,-141.986"/>
<polygon fill="midnightblue" stroke="midnightblue" points="174,-141.751 170.5,-131.751 167,-141.751 174,-141.751"/>
</g>
<!-- Node6 -->
<g id="node6" class="node"><title>Node6</title>
<polygon fill="white" stroke="#bfbfbf" points="240,-0.5 240,-19.5 337,-19.5 337,-0.5 240,-0.5"/>
<text text-anchor="middle" x="288.5" y="-7.5" font-family="Ubuntu Regular" font-size="10.00">karazeh_export.h</text>
</g>
<!-- Node2&#45;&gt;Node6 -->
<g id="edge5" class="edge"><title>Node2&#45;&gt;Node6</title>
<path fill="none" stroke="midnightblue" d="M179.036,-168.197C187.221,-159.471 199.613,-145.492 208.5,-132 229.273,-100.462 224.95,-87.0123 246.5,-56 253.802,-45.4923 263.461,-34.9698 271.675,-26.745"/>
<polygon fill="midnightblue" stroke="midnightblue" points="274.254,-29.1193 278.984,-19.6388 269.374,-24.1005 274.254,-29.1193"/>
</g>
<!-- Node7 -->
<g id="node7" class="node"><title>Node7</title>
<g id="a_node7"><a xlink:href="karazeh_8hpp.html" target="_top" xlink:title="karazeh/karazeh.hpp">
<polygon fill="white" stroke="black" points="325,-112.5 325,-131.5 438,-131.5 438,-112.5 325,-112.5"/>
<text text-anchor="middle" x="381.5" y="-119.5" font-family="Ubuntu Regular" font-size="10.00">karazeh/karazeh.hpp</text>
</a>
</g>
</g>
<!-- Node2&#45;&gt;Node7 -->
<g id="edge6" class="edge"><title>Node2&#45;&gt;Node7</title>
<path fill="none" stroke="midnightblue" d="M203.934,-168.444C240.356,-159.122 298.73,-144.183 338.529,-133.997"/>
<polygon fill="midnightblue" stroke="midnightblue" points="339.403,-137.387 348.223,-131.516 337.667,-130.605 339.403,-137.387"/>
</g>
<!-- Node8 -->
<g id="node8" class="node"><title>Node8</title>
<polygon fill="white" stroke="#bfbfbf" points="583,-0.5 583,-19.5 626,-19.5 626,-0.5 583,-0.5"/>
<text text-anchor="middle" x="604.5" y="-7.5" font-family="Ubuntu Regular" font-size="10.00">string</text>
</g>
<!-- Node7&#45;&gt;Node8 -->
<g id="edge7" class="edge"><title>Node7&#45;&gt;Node8</title>
<path fill="none" stroke="midnightblue" d="M438.008,-115.707C492.394,-109.44 569.405,-97.0938 590.5,-76 602.48,-64.0207 605.325,-44.413 605.572,-29.8609"/>
<polygon fill="midnightblue" stroke="midnightblue" points="609.063,-29.4348 605.338,-19.5167 602.065,-29.5934 609.063,-29.4348"/>
</g>
<!-- Node9 -->
<g id="node9" class="node"><title>Node9</title>
<polygon fill="white" stroke="#bfbfbf" points="255.5,-56.5 255.5,-75.5 305.5,-75.5 305.5,-56.5 255.5,-56.5"/>
<text text-anchor="middle" x="280.5" y="-63.5" font-family="Ubuntu Regular" font-size="10.00">cassert</text>
</g>
<!-- Node7&#45;&gt;Node9 -->
<g id="edge8" class="edge"><title>Node7&#45;&gt;Node9</title>
<path fill="none" stroke="midnightblue" d="M365.273,-112.324C349.149,-103.703 324.2,-90.3643 305.536,-80.3855"/>
<polygon fill="midnightblue" stroke="midnightblue" points="307.156,-77.283 296.687,-75.6545 303.856,-83.456 307.156,-77.283"/>
</g>
<!-- Node10 -->
<g id="node10" class="node"><title>Node10</title>
<polygon fill="white" stroke="#bfbfbf" points="323.5,-56.5 323.5,-75.5 439.5,-75.5 439.5,-56.5 323.5,-56.5"/>
<text text-anchor="middle" x="381.5" y="-63.5" font-family="Ubuntu Regular" font-size="10.00">boost/filesystem.hpp</text>
</g>
<!-- Node7&#45;&gt;Node10 -->
<g id="edge9" class="edge"><title>Node7&#45;&gt;Node10</title>
<path fill="none" stroke="midnightblue" d="M381.5,-112.083C381.5,-105.006 381.5,-94.8611 381.5,-85.9865"/>
<polygon fill="midnightblue" stroke="midnightblue" points="385,-85.751 381.5,-75.7511 378,-85.7511 385,-85.751"/>
</g>
<!-- Node11 -->
<g id="node11" class="node"><title>Node11</title>
<g id="a_node11"><a xlink:href="exception_8hpp.html" target="_top" xlink:title="karazeh/exception.hpp">
<polygon fill="white" stroke="black" points="458,-56.5 458,-75.5 581,-75.5 581,-56.5 458,-56.5"/>
<text text-anchor="middle" x="519.5" y="-63.5" font-family="Ubuntu Regular" font-size="10.00">karazeh/exception.hpp</text>
</a>
</g>
</g>
<!-- Node7&#45;&gt;Node11 -->
<g id="edge10" class="edge"><title>Node7&#45;&gt;Node11</title>
<path fill="none" stroke="midnightblue" d="M403.367,-112.444C426.279,-103.478 462.475,-89.314 488.366,-79.1827"/>
<polygon fill="midnightblue" stroke="midnightblue" points="489.699,-82.4198 497.736,-75.5164 487.148,-75.9011 489.699,-82.4198"/>
</g>
<!-- Node11&#45;&gt;Node6 -->
<g id="edge14" class="edge"><title>Node11&#45;&gt;Node6</title>
<path fill="none" stroke="midnightblue" d="M482.897,-56.4435C442.769,-47.0629 378.302,-31.9926 334.715,-21.8036"/>
<polygon fill="midnightblue" stroke="midnightblue" points="335.466,-18.3847 324.931,-19.5164 333.872,-25.2009 335.466,-18.3847"/>
</g>
<!-- Node11&#45;&gt;Node8 -->
<g id="edge12" class="edge"><title>Node11&#45;&gt;Node8</title>
<path fill="none" stroke="midnightblue" d="M533.157,-56.324C546.416,-47.9002 566.768,-34.9709 582.346,-25.0741"/>
<polygon fill="midnightblue" stroke="midnightblue" points="584.313,-27.9711 590.877,-19.6545 580.56,-22.0626 584.313,-27.9711"/>
</g>
<!-- Node12 -->
<g id="node12" class="node"><title>Node12</title>
<polygon fill="white" stroke="#bfbfbf" points="493,-0.5 493,-19.5 556,-19.5 556,-0.5 493,-0.5"/>
<text text-anchor="middle" x="524.5" y="-7.5" font-family="Ubuntu Regular" font-size="10.00">exception</text>
</g>
<!-- Node11&#45;&gt;Node12 -->
<g id="edge11" class="edge"><title>Node11&#45;&gt;Node12</title>
<path fill="none" stroke="midnightblue" d="M520.326,-56.083C520.981,-49.0059 521.92,-38.8611 522.742,-29.9865"/>
<polygon fill="midnightblue" stroke="midnightblue" points="526.253,-30.0312 523.69,-19.7511 519.283,-29.3858 526.253,-30.0312"/>
</g>
<!-- Node13 -->
<g id="node13" class="node"><title>Node13</title>
<polygon fill="white" stroke="#bfbfbf" points="410,-0.5 410,-19.5 475,-19.5 475,-0.5 410,-0.5"/>
<text text-anchor="middle" x="442.5" y="-7.5" font-family="Ubuntu Regular" font-size="10.00">stdexcept</text>
</g>
<!-- Node11&#45;&gt;Node13 -->
<g id="edge13" class="edge"><title>Node11&#45;&gt;Node13</title>
<path fill="none" stroke="midnightblue" d="M507.129,-56.324C495.342,-48.0577 477.368,-35.4527 463.364,-25.6322"/>
<polygon fill="midnightblue" stroke="midnightblue" points="465.038,-22.5307 454.841,-19.6545 461.018,-28.2619 465.038,-22.5307"/>
</g>
</g>
</svg>
