<?xml version="1.0" encoding="UTF-8" standalone="no"?>
<!DOCTYPE svg PUBLIC "-//W3C//DTD SVG 1.1//EN"
 "http://www.w3.org/Graphics/SVG/1.1/DTD/svg11.dtd">
<!-- Generated by graphviz version 2.38.0 (20140413.2041)
 -->
<!-- Title: include/karazeh/logger.hpp Pages: 1 -->
<svg width="1492pt" height="430pt"
 viewBox="0.00 0.00 1492.00 430.00" xmlns="http://www.w3.org/2000/svg" xmlns:xlink="http://www.w3.org/1999/xlink">
<g id="graph0" class="graph" transform="scale(1 1) rotate(0) translate(4 426)">
<title>include/karazeh/logger.hpp</title>
<polygon fill="white" stroke="none" points="-4,4 -4,-426 1488,-426 1488,4 -4,4"/>
<!-- Node1 -->
<g id="node1" class="node"><title>Node1</title>
<polygon fill="#bfbfbf" stroke="black" points="981,-402.5 981,-421.5 1124,-421.5 1124,-402.5 981,-402.5"/>
<text text-anchor="middle" x="1052.5" y="-409.5" font-family="Ubuntu Regular" font-size="10.00">include/karazeh/logger.hpp</text>
</g>
<!-- Node2 -->
<g id="node2" class="node"><title>Node2</title>
<g id="a_node2"><a xlink:href="delta__encoder_8hpp.html" target="_top" xlink:title="include/karazeh/delta\l_encoder.hpp">
<polygon fill="white" stroke="black" points="878.5,-268.5 878.5,-298.5 996.5,-298.5 996.5,-268.5 878.5,-268.5"/>
<text text-anchor="start" x="886.5" y="-286.5" font-family="Ubuntu Regular" font-size="10.00">include/karazeh/delta</text>
<text text-anchor="middle" x="937.5" y="-275.5" font-family="Ubuntu Regular" font-size="10.00">_encoder.hpp</text>
</a>
</g>
</g>
<!-- Node1&#45;&gt;Node2 -->
<g id="edge1" class="edge"><title>Node1&#45;&gt;Node2</title>
<path fill="none" stroke="midnightblue" d="M1037.76,-394.785C1015.12,-369.887 972.17,-322.638 950.58,-298.888"/>
<polygon fill="midnightblue" stroke="midnightblue" points="1035.28,-397.26 1044.6,-402.305 1040.46,-392.551 1035.28,-397.26"/>
</g>
<!-- Node3 -->
<g id="node3" class="node"><title>Node3</title>
<g id="a_node3"><a xlink:href="update_8hpp.html" target="_top" xlink:title="include/karazeh/operations\l/update.hpp">
<polygon fill="white" stroke="black" points="477,-134.5 477,-164.5 620,-164.5 620,-134.5 477,-134.5"/>
<text text-anchor="start" x="485" y="-152.5" font-family="Ubuntu Regular" font-size="10.00">include/karazeh/operations</text>
<text text-anchor="middle" x="548.5" y="-141.5" font-family="Ubuntu Regular" font-size="10.00">/update.hpp</text>
</a>
</g>
</g>
<!-- Node1&#45;&gt;Node3 -->
<g id="edge46" class="edge"><title>Node1&#45;&gt;Node3</title>
<path fill="none" stroke="midnightblue" d="M970.776,-406.196C839.271,-396.45 590.624,-368.997 543.5,-299 515.408,-257.273 533.013,-192.953 542.999,-164.669"/>
<polygon fill="midnightblue" stroke="midnightblue" points="970.584,-409.691 980.81,-406.922 971.089,-402.709 970.584,-409.691"/>
</g>
<!-- Node11 -->
<g id="node11" class="node"><title>Node11</title>
<g id="a_node11"><a xlink:href="downloader_8hpp.html" target="_top" xlink:title="include/karazeh/downloader.hpp">
<polygon fill="white" stroke="black" points="292,-274 292,-293 459,-293 459,-274 292,-274"/>
<text text-anchor="middle" x="375.5" y="-281" font-family="Ubuntu Regular" font-size="10.00">include/karazeh/downloader.hpp</text>
</a>
</g>
</g>
<!-- Node1&#45;&gt;Node11 -->
<g id="edge10" class="edge"><title>Node1&#45;&gt;Node11</title>
<path fill="none" stroke="midnightblue" d="M970.706,-410.773C832.815,-409.378 560.511,-401.983 472.5,-366 432.595,-349.685 396.935,-310.579 382.411,-293.144"/>
<polygon fill="midnightblue" stroke="midnightblue" points="970.769,-414.273 980.801,-410.867 970.834,-407.274 970.769,-414.273"/>
</g>
<!-- Node13 -->
<g id="node13" class="node"><title>Node13</title>
<g id="a_node13"><a xlink:href="create_8hpp.html" target="_top" xlink:title="include/karazeh/operations\l/create.hpp">
<polygon fill="white" stroke="black" points="638,-134.5 638,-164.5 781,-164.5 781,-134.5 638,-134.5"/>
<text text-anchor="start" x="646" y="-152.5" font-family="Ubuntu Regular" font-size="10.00">include/karazeh/operations</text>
<text text-anchor="middle" x="709.5" y="-141.5" font-family="Ubuntu Regular" font-size="10.00">/create.hpp</text>
</a>
</g>
</g>
<!-- Node1&#45;&gt;Node13 -->
<g id="edge44" class="edge"><title>Node1&#45;&gt;Node13</title>
<path fill="none" stroke="midnightblue" d="M1063.24,-393.757C1086.31,-354.289 1134.68,-256.521 1085.5,-201 1041.56,-151.398 855.017,-174.913 789.5,-165 786.848,-164.599 784.15,-164.177 781.425,-163.741"/>
<polygon fill="midnightblue" stroke="midnightblue" points="1060.15,-392.1 1057.99,-402.473 1066.15,-395.71 1060.15,-392.1"/>
</g>
<!-- Node16 -->
<g id="node16" class="node"><title>Node16</title>
<g id="a_node16"><a xlink:href="delete_8hpp.html" target="_top" xlink:title="include/karazeh/operations\l/delete.hpp">
<polygon fill="white" stroke="black" points="799,-134.5 799,-164.5 942,-164.5 942,-134.5 799,-134.5"/>
<text text-anchor="start" x="807" y="-152.5" font-family="Ubuntu Regular" font-size="10.00">include/karazeh/operations</text>
<text text-anchor="middle" x="870.5" y="-141.5" font-family="Ubuntu Regular" font-size="10.00">/delete.hpp</text>
</a>
</g>
</g>
<!-- Node1&#45;&gt;Node16 -->
<g id="edge45" class="edge"><title>Node1&#45;&gt;Node16</title>
<path fill="none" stroke="midnightblue" d="M1083.88,-397.833C1097.08,-390.533 1111.08,-380.047 1118.5,-366 1152.77,-301.165 1164.89,-257.793 1118.5,-201 1096.54,-174.117 1007.22,-161.182 942.05,-155.217"/>
<polygon fill="midnightblue" stroke="midnightblue" points="1082.28,-394.721 1074.96,-402.382 1085.46,-400.957 1082.28,-394.721"/>
</g>
<!-- Node19 -->
<g id="node19" class="node"><title>Node19</title>
<g id="a_node19"><a xlink:href="patcher_8hpp.html" target="_top" xlink:title="include/karazeh/patcher.hpp">
<polygon fill="white" stroke="black" points="0,-73 0,-92 149,-92 149,-73 0,-73"/>
<text text-anchor="middle" x="74.5" y="-80" font-family="Ubuntu Regular" font-size="10.00">include/karazeh/patcher.hpp</text>
</a>
</g>
</g>
<!-- Node1&#45;&gt;Node19 -->
<g id="edge47" class="edge"><title>Node1&#45;&gt;Node19</title>
<path fill="none" stroke="midnightblue" d="M970.727,-409.185C732.283,-402.817 54.5,-376.615 54.5,-284.5 54.5,-284.5 54.5,-284.5 54.5,-215.5 54.5,-168.448 67.076,-113.016 72.2832,-92.0805"/>
<polygon fill="midnightblue" stroke="midnightblue" points="970.638,-412.684 980.726,-409.447 970.822,-405.686 970.638,-412.684"/>
</g>
<!-- Node24 -->
<g id="node24" class="node"><title>Node24</title>
<g id="a_node24"><a xlink:href="file__manager_8hpp.html" target="_top" xlink:title="include/karazeh/file\l_manager.hpp">
<polygon fill="white" stroke="black" points="717.5,-335.5 717.5,-365.5 825.5,-365.5 825.5,-335.5 717.5,-335.5"/>
<text text-anchor="start" x="725.5" y="-353.5" font-family="Ubuntu Regular" font-size="10.00">include/karazeh/file</text>
<text text-anchor="middle" x="771.5" y="-342.5" font-family="Ubuntu Regular" font-size="10.00">_manager.hpp</text>
</a>
</g>
</g>
<!-- Node1&#45;&gt;Node24 -->
<g id="edge35" class="edge"><title>Node1&#45;&gt;Node24</title>
<path fill="none" stroke="midnightblue" d="M1002.36,-400.382C952.644,-389.856 876.723,-373.78 825.656,-362.967"/>
<polygon fill="midnightblue" stroke="midnightblue" points="1001.73,-403.828 1012.24,-402.475 1003.18,-396.979 1001.73,-403.828"/>
</g>
<!-- Node27 -->
<g id="node27" class="node"><title>Node27</title>
<g id="a_node27"><a xlink:href="path__resolver_8hpp.html" target="_top" xlink:title="include/karazeh/path\l_resolver.hpp">
<polygon fill="white" stroke="black" points="1190,-268.5 1190,-298.5 1305,-298.5 1305,-268.5 1190,-268.5"/>
<text text-anchor="start" x="1198" y="-286.5" font-family="Ubuntu Regular" font-size="10.00">include/karazeh/path</text>
<text text-anchor="middle" x="1247.5" y="-275.5" font-family="Ubuntu Regular" font-size="10.00">_resolver.hpp</text>
</a>
</g>
</g>
<!-- Node1&#45;&gt;Node27 -->
<g id="edge48" class="edge"><title>Node1&#45;&gt;Node27</title>
<path fill="none" stroke="midnightblue" d="M1087.87,-398.955C1108.68,-391.088 1135.04,-379.734 1156.5,-366 1187.22,-346.334 1217.74,-316.304 1234.46,-298.714"/>
<polygon fill="midnightblue" stroke="midnightblue" points="1086.62,-395.687 1078.44,-402.426 1089.04,-402.256 1086.62,-395.687"/>
</g>
<!-- Node30 -->
<g id="node30" class="node"><title>Node30</title>
<g id="a_node30"><a xlink:href="md5__hasher_8cpp.html" target="_top" xlink:title="src/hashers/md5_hasher.cpp">
<polygon fill="white" stroke="black" points="1208.5,-341 1208.5,-360 1356.5,-360 1356.5,-341 1208.5,-341"/>
<text text-anchor="middle" x="1282.5" y="-348" font-family="Ubuntu Regular" font-size="10.00">src/hashers/md5_hasher.cpp</text>
</a>
</g>
</g>
<!-- Node1&#45;&gt;Node30 -->
<g id="edge54" class="edge"><title>Node1&#45;&gt;Node30</title>
<path fill="none" stroke="midnightblue" d="M1095.14,-399.968C1139.8,-388.415 1208.99,-370.517 1249.61,-360.009"/>
<polygon fill="midnightblue" stroke="midnightblue" points="1094.26,-396.582 1085.45,-402.475 1096.01,-403.359 1094.26,-396.582"/>
</g>
<!-- Node31 -->
<g id="node31" class="node"><title>Node31</title>
<g id="a_node31"><a xlink:href="logger_8cpp.html" target="_top" xlink:title="src/logger.cpp">
<polygon fill="white" stroke="black" points="1375,-341 1375,-360 1458,-360 1458,-341 1375,-341"/>
<text text-anchor="middle" x="1416.5" y="-348" font-family="Ubuntu Regular" font-size="10.00">src/logger.cpp</text>
</a>
</g>
</g>
<!-- Node1&#45;&gt;Node31 -->
<g id="edge55" class="edge"><title>Node1&#45;&gt;Node31</title>
<path fill="none" stroke="midnightblue" d="M1134.1,-402.31C1197.58,-394.819 1287.65,-382.585 1365.5,-366 1373.24,-364.351 1381.54,-362.173 1389.14,-360.008"/>
<polygon fill="midnightblue" stroke="midnightblue" points="1133.68,-398.836 1124.15,-403.471 1134.49,-405.788 1133.68,-398.836"/>
</g>
<!-- Node2&#45;&gt;Node3 -->
<g id="edge2" class="edge"><title>Node2&#45;&gt;Node3</title>
<path fill="none" stroke="midnightblue" d="M897.637,-264.308C851.468,-243.401 778.096,-210.718 749.5,-201 705.724,-186.123 655.252,-173.457 615.835,-164.531"/>
<polygon fill="midnightblue" stroke="midnightblue" points="896.215,-267.506 906.768,-268.45 899.107,-261.131 896.215,-267.506"/>
</g>
<!-- Node9 -->
<g id="node9" class="node"><title>Node9</title>
<g id="a_node9"><a xlink:href="delta__encoder_8test_8cpp.html" target="_top" xlink:title="src/__tests__/delta\l_encoder.test.cpp">
<polygon fill="white" stroke="black" points="972.5,-201.5 972.5,-231.5 1076.5,-231.5 1076.5,-201.5 972.5,-201.5"/>
<text text-anchor="start" x="980.5" y="-219.5" font-family="Ubuntu Regular" font-size="10.00">src/__tests__/delta</text>
<text text-anchor="middle" x="1024.5" y="-208.5" font-family="Ubuntu Regular" font-size="10.00">_encoder.test.cpp</text>
</a>
</g>
</g>
<!-- Node2&#45;&gt;Node9 -->
<g id="edge8" class="edge"><title>Node2&#45;&gt;Node9</title>
<path fill="none" stroke="midnightblue" d="M964.714,-262.168C978.018,-252.228 993.696,-240.514 1005.66,-231.577"/>
<polygon fill="midnightblue" stroke="midnightblue" points="962.294,-259.607 956.378,-268.396 966.484,-265.215 962.294,-259.607"/>
</g>
<!-- Node10 -->
<g id="node10" class="node"><title>Node10</title>
<g id="a_node10"><a xlink:href="delta__encoder_8cpp.html" target="_top" xlink:title="src/delta_encoder.cpp">
<polygon fill="white" stroke="black" points="834.5,-207 834.5,-226 954.5,-226 954.5,-207 834.5,-207"/>
<text text-anchor="middle" x="894.5" y="-214" font-family="Ubuntu Regular" font-size="10.00">src/delta_encoder.cpp</text>
</a>
</g>
</g>
<!-- Node2&#45;&gt;Node10 -->
<g id="edge9" class="edge"><title>Node2&#45;&gt;Node10</title>
<path fill="none" stroke="midnightblue" d="M922.598,-259.974C914.897,-248.332 905.944,-234.799 900.252,-226.195"/>
<polygon fill="midnightblue" stroke="midnightblue" points="919.733,-261.987 928.17,-268.396 925.571,-258.125 919.733,-261.987"/>
</g>
<!-- Node4 -->
<g id="node4" class="node"><title>Node4</title>
<g id="a_node4"><a xlink:href="version__manifest_8hpp.html" target="_top" xlink:title="include/karazeh/version\l_manifest.hpp">
<polygon fill="white" stroke="black" points="925.5,-67.5 925.5,-97.5 1051.5,-97.5 1051.5,-67.5 925.5,-67.5"/>
<text text-anchor="start" x="933.5" y="-85.5" font-family="Ubuntu Regular" font-size="10.00">include/karazeh/version</text>
<text text-anchor="middle" x="988.5" y="-74.5" font-family="Ubuntu Regular" font-size="10.00">_manifest.hpp</text>
</a>
</g>
</g>
<!-- Node3&#45;&gt;Node4 -->
<g id="edge3" class="edge"><title>Node3&#45;&gt;Node4</title>
<path fill="none" stroke="midnightblue" d="M630.56,-133.735C757.757,-114.69 792.416,-118.221 916.5,-98 919.395,-97.5283 922.35,-97.0243 925.332,-96.4977"/>
<polygon fill="midnightblue" stroke="midnightblue" points="629.79,-130.312 620.427,-135.271 630.839,-137.233 629.79,-130.312"/>
</g>
<!-- Node8 -->
<g id="node8" class="node"><title>Node8</title>
<g id="a_node8"><a xlink:href="update_8cpp.html" target="_top" xlink:title="src/operations/update.cpp">
<polygon fill="white" stroke="black" points="317.5,-73 317.5,-92 457.5,-92 457.5,-73 317.5,-73"/>
<text text-anchor="middle" x="387.5" y="-80" font-family="Ubuntu Regular" font-size="10.00">src/operations/update.cpp</text>
</a>
</g>
</g>
<!-- Node3&#45;&gt;Node8 -->
<g id="edge7" class="edge"><title>Node3&#45;&gt;Node8</title>
<path fill="none" stroke="midnightblue" d="M504.216,-130.621C473.054,-118.04 432.744,-101.766 408.571,-92.007"/>
<polygon fill="midnightblue" stroke="midnightblue" points="502.982,-133.898 513.565,-134.396 505.603,-127.407 502.982,-133.898"/>
</g>
<!-- Node5 -->
<g id="node5" class="node"><title>Node5</title>
<g id="a_node5"><a xlink:href="patcher_8test_8cpp.html" target="_top" xlink:title="src/__tests__/patcher.test.cpp">
<polygon fill="white" stroke="black" points="963,-6 963,-25 1120,-25 1120,-6 963,-6"/>
<text text-anchor="middle" x="1041.5" y="-13" font-family="Ubuntu Regular" font-size="10.00">src/__tests__/patcher.test.cpp</text>
</a>
</g>
</g>
<!-- Node4&#45;&gt;Node5 -->
<g id="edge4" class="edge"><title>Node4&#45;&gt;Node5</title>
<path fill="none" stroke="midnightblue" d="M1006.59,-59.3163C1016.14,-47.5978 1027.33,-33.8829 1034.41,-25.1945"/>
<polygon fill="midnightblue" stroke="midnightblue" points="1003.61,-57.434 1000,-67.396 1009.03,-61.8576 1003.61,-57.434"/>
</g>
<!-- Node6 -->
<g id="node6" class="node"><title>Node6</title>
<g id="a_node6"><a xlink:href="version__manifest_8test_8cpp.html" target="_top" xlink:title="src/__tests__/version\l_manifest.test.cpp">
<polygon fill="white" stroke="black" points="1244,-0.5 1244,-30.5 1357,-30.5 1357,-0.5 1244,-0.5"/>
<text text-anchor="start" x="1252" y="-18.5" font-family="Ubuntu Regular" font-size="10.00">src/__tests__/version</text>
<text text-anchor="middle" x="1300.5" y="-7.5" font-family="Ubuntu Regular" font-size="10.00">_manifest.test.cpp</text>
</a>
</g>
</g>
<!-- Node4&#45;&gt;Node6 -->
<g id="edge5" class="edge"><title>Node4&#45;&gt;Node6</title>
<path fill="none" stroke="midnightblue" d="M1061.43,-66.3056C1117.06,-54.7162 1192.59,-38.982 1243.75,-28.3228"/>
<polygon fill="midnightblue" stroke="midnightblue" points="1060.71,-62.8802 1051.64,-68.3463 1062.14,-69.7331 1060.71,-62.8802"/>
</g>
<!-- Node7 -->
<g id="node7" class="node"><title>Node7</title>
<g id="a_node7"><a xlink:href="version__manifest_8cpp.html" target="_top" xlink:title="src/version_manifest.cpp">
<polygon fill="white" stroke="black" points="814,-6 814,-25 945,-25 945,-6 814,-6"/>
<text text-anchor="middle" x="879.5" y="-13" font-family="Ubuntu Regular" font-size="10.00">src/version_manifest.cpp</text>
</a>
</g>
</g>
<!-- Node4&#45;&gt;Node7 -->
<g id="edge6" class="edge"><title>Node4&#45;&gt;Node7</title>
<path fill="none" stroke="midnightblue" d="M956.037,-62.1411C935.32,-49.7874 909.496,-34.3875 893.766,-25.007"/>
<polygon fill="midnightblue" stroke="midnightblue" points="954.467,-65.2802 964.849,-67.396 958.052,-59.2681 954.467,-65.2802"/>
</g>
<!-- Node11&#45;&gt;Node4 -->
<g id="edge32" class="edge"><title>Node11&#45;&gt;Node4</title>
<path fill="none" stroke="midnightblue" d="M395.731,-267.351C406.905,-258.138 420.335,-245.559 429.5,-232 455.661,-193.297 430.042,-161.915 467.5,-134 547.761,-74.1859 817.373,-111.905 916.5,-98 919.404,-97.5926 922.368,-97.1413 925.357,-96.6574"/>
<polygon fill="midnightblue" stroke="midnightblue" points="393.39,-264.741 387.734,-273.7 397.742,-270.223 393.39,-264.741"/>
</g>
<!-- Node12 -->
<g id="node12" class="node"><title>Node12</title>
<g id="a_node12"><a xlink:href="operation_8hpp.html" target="_top" xlink:title="include/karazeh/operation.hpp">
<polygon fill="white" stroke="black" points="582.5,-207 582.5,-226 740.5,-226 740.5,-207 582.5,-207"/>
<text text-anchor="middle" x="661.5" y="-214" font-family="Ubuntu Regular" font-size="10.00">include/karazeh/operation.hpp</text>
</a>
</g>
</g>
<!-- Node11&#45;&gt;Node12 -->
<g id="edge11" class="edge"><title>Node11&#45;&gt;Node12</title>
<path fill="none" stroke="midnightblue" d="M423.266,-271.644C479.617,-258.837 572.14,-237.809 623.733,-226.083"/>
<polygon fill="midnightblue" stroke="midnightblue" points="422.159,-268.306 413.184,-273.936 423.711,-275.132 422.159,-268.306"/>
</g>
<!-- Node11&#45;&gt;Node19 -->
<g id="edge31" class="edge"><title>Node11&#45;&gt;Node19</title>
<path fill="none" stroke="midnightblue" d="M281.949,-275.2C216.234,-268.16 135.881,-255.071 111.5,-232 70.78,-193.467 72.0489,-117.572 73.7532,-92.0805"/>
<polygon fill="midnightblue" stroke="midnightblue" points="281.636,-278.687 291.944,-276.237 282.359,-271.724 281.636,-278.687"/>
</g>
<!-- Node22 -->
<g id="node22" class="node"><title>Node22</title>
<g id="a_node22"><a xlink:href="downloader_8test_8cpp.html" target="_top" xlink:title="src/__tests__/downloader.test.cpp">
<polygon fill="white" stroke="black" points="246.5,-207 246.5,-226 420.5,-226 420.5,-207 246.5,-207"/>
<text text-anchor="middle" x="333.5" y="-214" font-family="Ubuntu Regular" font-size="10.00">src/__tests__/downloader.test.cpp</text>
</a>
</g>
</g>
<!-- Node11&#45;&gt;Node22 -->
<g id="edge33" class="edge"><title>Node11&#45;&gt;Node22</title>
<path fill="none" stroke="midnightblue" d="M364.215,-265.035C356.083,-252.45 345.459,-236.007 339.075,-226.127"/>
<polygon fill="midnightblue" stroke="midnightblue" points="361.469,-267.234 369.836,-273.734 367.348,-263.435 361.469,-267.234"/>
</g>
<!-- Node23 -->
<g id="node23" class="node"><title>Node23</title>
<g id="a_node23"><a xlink:href="downloader_8cpp.html" target="_top" xlink:title="src/downloader.cpp">
<polygon fill="white" stroke="black" points="121,-207 121,-226 228,-226 228,-207 121,-207"/>
<text text-anchor="middle" x="174.5" y="-214" font-family="Ubuntu Regular" font-size="10.00">src/downloader.cpp</text>
</a>
</g>
</g>
<!-- Node11&#45;&gt;Node23 -->
<g id="edge34" class="edge"><title>Node11&#45;&gt;Node23</title>
<path fill="none" stroke="midnightblue" d="M339.213,-270.765C299.387,-257.886 236.412,-237.521 200.982,-226.064"/>
<polygon fill="midnightblue" stroke="midnightblue" points="338.217,-274.122 348.809,-273.869 340.371,-267.461 338.217,-274.122"/>
</g>
<!-- Node12&#45;&gt;Node3 -->
<g id="edge19" class="edge"><title>Node12&#45;&gt;Node3</title>
<path fill="none" stroke="midnightblue" d="M637.342,-201.604C618.367,-190.689 592.054,-175.553 572.993,-164.589"/>
<polygon fill="midnightblue" stroke="midnightblue" points="635.847,-204.781 646.26,-206.734 639.337,-198.714 635.847,-204.781"/>
</g>
<!-- Node12&#45;&gt;Node4 -->
<g id="edge30" class="edge"><title>Node12&#45;&gt;Node4</title>
<path fill="none" stroke="midnightblue" d="M723.69,-205.366C807.272,-191.643 945.989,-168.456 950.5,-165 972.311,-148.29 982.093,-116.035 986.077,-97.507"/>
<polygon fill="midnightblue" stroke="midnightblue" points="723.085,-201.919 713.783,-206.991 724.218,-208.826 723.085,-201.919"/>
</g>
<!-- Node12&#45;&gt;Node13 -->
<g id="edge12" class="edge"><title>Node12&#45;&gt;Node13</title>
<path fill="none" stroke="midnightblue" d="M673.926,-198.673C681.738,-188.094 691.702,-174.602 699.096,-164.589"/>
<polygon fill="midnightblue" stroke="midnightblue" points="671.098,-196.61 667.973,-206.734 676.729,-200.769 671.098,-196.61"/>
</g>
<!-- Node12&#45;&gt;Node16 -->
<g id="edge16" class="edge"><title>Node12&#45;&gt;Node16</title>
<path fill="none" stroke="midnightblue" d="M699.201,-203.775C734.639,-192.753 787.725,-176.244 825.394,-164.528"/>
<polygon fill="midnightblue" stroke="midnightblue" points="697.763,-200.557 689.254,-206.869 699.842,-207.241 697.763,-200.557"/>
</g>
<!-- Node18 -->
<g id="node18" class="node"><title>Node18</title>
<g id="a_node18"><a xlink:href="release__manifest_8hpp.html" target="_top" xlink:title="include/karazeh/release\l_manifest.hpp">
<polygon fill="white" stroke="black" points="292.5,-134.5 292.5,-164.5 420.5,-164.5 420.5,-134.5 292.5,-134.5"/>
<text text-anchor="start" x="300.5" y="-152.5" font-family="Ubuntu Regular" font-size="10.00">include/karazeh/release</text>
<text text-anchor="middle" x="356.5" y="-141.5" font-family="Ubuntu Regular" font-size="10.00">_manifest.hpp</text>
</a>
</g>
</g>
<!-- Node12&#45;&gt;Node18 -->
<g id="edge20" class="edge"><title>Node12&#45;&gt;Node18</title>
<path fill="none" stroke="midnightblue" d="M611.302,-204.802C559.196,-193.698 477.519,-176.291 420.737,-164.19"/>
<polygon fill="midnightblue" stroke="midnightblue" points="610.803,-208.274 621.313,-206.936 612.262,-201.428 610.803,-208.274"/>
</g>
<!-- Node13&#45;&gt;Node4 -->
<g id="edge13" class="edge"><title>Node13&#45;&gt;Node4</title>
<path fill="none" stroke="midnightblue" d="M779.526,-132.186C825.219,-121.54 884.265,-107.784 927.932,-97.6109"/>
<polygon fill="midnightblue" stroke="midnightblue" points="778.64,-128.798 769.695,-134.476 780.229,-135.616 778.64,-128.798"/>
</g>
<!-- Node14 -->
<g id="node14" class="node"><title>Node14</title>
<g id="a_node14"><a xlink:href="create_8test_8cpp.html" target="_top" xlink:title="src/operations/__tests\l__/create.test.cpp">
<polygon fill="white" stroke="black" points="475.5,-67.5 475.5,-97.5 595.5,-97.5 595.5,-67.5 475.5,-67.5"/>
<text text-anchor="start" x="483.5" y="-85.5" font-family="Ubuntu Regular" font-size="10.00">src/operations/__tests</text>
<text text-anchor="middle" x="535.5" y="-74.5" font-family="Ubuntu Regular" font-size="10.00">__/create.test.cpp</text>
</a>
</g>
</g>
<!-- Node13&#45;&gt;Node14 -->
<g id="edge14" class="edge"><title>Node13&#45;&gt;Node14</title>
<path fill="none" stroke="midnightblue" d="M662.168,-130.819C634.2,-120.371 599.273,-107.323 573.182,-97.5765"/>
<polygon fill="midnightblue" stroke="midnightblue" points="661.152,-134.175 671.745,-134.396 663.602,-127.618 661.152,-134.175"/>
</g>
<!-- Node15 -->
<g id="node15" class="node"><title>Node15</title>
<g id="a_node15"><a xlink:href="create_8cpp.html" target="_top" xlink:title="src/operations/create.cpp">
<polygon fill="white" stroke="black" points="614,-73 614,-92 751,-92 751,-73 614,-73"/>
<text text-anchor="middle" x="682.5" y="-80" font-family="Ubuntu Regular" font-size="10.00">src/operations/create.cpp</text>
</a>
</g>
</g>
<!-- Node13&#45;&gt;Node15 -->
<g id="edge15" class="edge"><title>Node13&#45;&gt;Node15</title>
<path fill="none" stroke="midnightblue" d="M699.715,-124.942C694.978,-113.54 689.58,-100.545 686.112,-92.1945"/>
<polygon fill="midnightblue" stroke="midnightblue" points="696.573,-126.504 703.641,-134.396 703.038,-123.818 696.573,-126.504"/>
</g>
<!-- Node16&#45;&gt;Node4 -->
<g id="edge17" class="edge"><title>Node16&#45;&gt;Node4</title>
<path fill="none" stroke="midnightblue" d="M905.11,-129.435C923.623,-119.237 946.025,-106.897 962.946,-97.5765"/>
<polygon fill="midnightblue" stroke="midnightblue" points="903.175,-126.505 896.104,-134.396 906.552,-132.637 903.175,-126.505"/>
</g>
<!-- Node17 -->
<g id="node17" class="node"><title>Node17</title>
<g id="a_node17"><a xlink:href="delete_8cpp.html" target="_top" xlink:title="src/operations/delete.cpp">
<polygon fill="white" stroke="black" points="769.5,-73 769.5,-92 907.5,-92 907.5,-73 769.5,-73"/>
<text text-anchor="middle" x="838.5" y="-80" font-family="Ubuntu Regular" font-size="10.00">src/operations/delete.cpp</text>
</a>
</g>
</g>
<!-- Node16&#45;&gt;Node17 -->
<g id="edge18" class="edge"><title>Node16&#45;&gt;Node17</title>
<path fill="none" stroke="midnightblue" d="M859.072,-125.287C853.418,-113.803 846.933,-100.63 842.78,-92.1945"/>
<polygon fill="midnightblue" stroke="midnightblue" points="855.999,-126.97 863.556,-134.396 862.28,-123.878 855.999,-126.97"/>
</g>
<!-- Node18&#45;&gt;Node4 -->
<g id="edge24" class="edge"><title>Node18&#45;&gt;Node4</title>
<path fill="none" stroke="midnightblue" d="M430.667,-134.515C431.954,-134.336 433.232,-134.165 434.5,-134 647.529,-106.328 703.683,-127.262 916.5,-98 919.405,-97.6005 922.37,-97.1558 925.359,-96.6771"/>
<polygon fill="midnightblue" stroke="midnightblue" points="430.064,-131.066 420.685,-135.994 431.09,-137.99 430.064,-131.066"/>
</g>
<!-- Node18&#45;&gt;Node8 -->
<g id="edge28" class="edge"><title>Node18&#45;&gt;Node8</title>
<path fill="none" stroke="midnightblue" d="M367.571,-125.287C373.048,-113.803 379.33,-100.63 383.353,-92.1945"/>
<polygon fill="midnightblue" stroke="midnightblue" points="364.372,-123.863 363.227,-134.396 370.69,-126.877 364.372,-123.863"/>
</g>
<!-- Node18&#45;&gt;Node14 -->
<g id="edge25" class="edge"><title>Node18&#45;&gt;Node14</title>
<path fill="none" stroke="midnightblue" d="M404.816,-130.955C433.65,-120.485 469.778,-107.366 496.735,-97.5765"/>
<polygon fill="midnightblue" stroke="midnightblue" points="403.545,-127.693 395.34,-134.396 405.934,-134.273 403.545,-127.693"/>
</g>
<!-- Node18&#45;&gt;Node15 -->
<g id="edge26" class="edge"><title>Node18&#45;&gt;Node15</title>
<path fill="none" stroke="midnightblue" d="M430.626,-133.72C495.099,-120.865 586.292,-102.683 639.426,-92.0884"/>
<polygon fill="midnightblue" stroke="midnightblue" points="429.641,-130.348 420.518,-135.736 431.01,-137.213 429.641,-130.348"/>
</g>
<!-- Node18&#45;&gt;Node17 -->
<g id="edge27" class="edge"><title>Node18&#45;&gt;Node17</title>
<path fill="none" stroke="midnightblue" d="M430.676,-134.578C431.96,-134.38 433.235,-134.187 434.5,-134 578.259,-112.705 615.717,-119.131 759.5,-98 771.089,-96.2968 783.578,-94.1502 795.129,-92.0345"/>
<polygon fill="midnightblue" stroke="midnightblue" points="430.03,-131.137 420.71,-136.177 431.139,-138.048 430.03,-131.137"/>
</g>
<!-- Node18&#45;&gt;Node19 -->
<g id="edge21" class="edge"><title>Node18&#45;&gt;Node19</title>
<path fill="none" stroke="midnightblue" d="M285.905,-132.228C230.535,-119.466 155.68,-102.212 111.501,-92.0287"/>
<polygon fill="midnightblue" stroke="midnightblue" points="285.127,-135.64 295.657,-134.476 286.699,-128.819 285.127,-135.64"/>
</g>
<!-- Node21 -->
<g id="node21" class="node"><title>Node21</title>
<g id="a_node21"><a xlink:href="release__manifest_8cpp.html" target="_top" xlink:title="src/release_manifest.cpp">
<polygon fill="white" stroke="black" points="167.5,-73 167.5,-92 299.5,-92 299.5,-73 167.5,-73"/>
<text text-anchor="middle" x="233.5" y="-80" font-family="Ubuntu Regular" font-size="10.00">src/release_manifest.cpp</text>
</a>
</g>
</g>
<!-- Node18&#45;&gt;Node21 -->
<g id="edge29" class="edge"><title>Node18&#45;&gt;Node21</title>
<path fill="none" stroke="midnightblue" d="M320.807,-129.638C297.276,-117.203 267.587,-101.514 249.598,-92.007"/>
<polygon fill="midnightblue" stroke="midnightblue" points="319.334,-132.818 329.811,-134.396 322.605,-126.629 319.334,-132.818"/>
</g>
<!-- Node19&#45;&gt;Node5 -->
<g id="edge22" class="edge"><title>Node19&#45;&gt;Node5</title>
<path fill="none" stroke="midnightblue" d="M127.907,-71.2455C138.035,-69.5951 148.569,-68.0777 158.5,-67 510.131,-28.8423 601.726,-67.8161 953.5,-31 967.36,-29.5495 982.351,-27.3267 995.965,-25.0539"/>
<polygon fill="midnightblue" stroke="midnightblue" points="127.227,-67.8106 117.951,-72.9289 128.394,-74.7127 127.227,-67.8106"/>
</g>
<!-- Node20 -->
<g id="node20" class="node"><title>Node20</title>
<g id="a_node20"><a xlink:href="patcher_8cpp.html" target="_top" xlink:title="src/patcher.cpp">
<polygon fill="white" stroke="black" points="30,-6 30,-25 119,-25 119,-6 30,-6"/>
<text text-anchor="middle" x="74.5" y="-13" font-family="Ubuntu Regular" font-size="10.00">src/patcher.cpp</text>
</a>
</g>
</g>
<!-- Node19&#45;&gt;Node20 -->
<g id="edge23" class="edge"><title>Node19&#45;&gt;Node20</title>
<path fill="none" stroke="midnightblue" d="M74.5,-62.537C74.5,-50.1703 74.5,-34.6198 74.5,-25.1273"/>
<polygon fill="midnightblue" stroke="midnightblue" points="71.0001,-62.7338 74.5,-72.7338 78.0001,-62.7338 71.0001,-62.7338"/>
</g>
<!-- Node24&#45;&gt;Node2 -->
<g id="edge36" class="edge"><title>Node24&#45;&gt;Node2</title>
<path fill="none" stroke="midnightblue" d="M817.006,-331.682C843.629,-321.257 876.768,-308.281 901.551,-298.577"/>
<polygon fill="midnightblue" stroke="midnightblue" points="815.555,-328.491 807.52,-335.396 818.107,-335.009 815.555,-328.491"/>
</g>
<!-- Node24&#45;&gt;Node4 -->
<g id="edge40" class="edge"><title>Node24&#45;&gt;Node4</title>
<path fill="none" stroke="midnightblue" d="M804.67,-329.407C814.905,-321.348 824.939,-311.08 830.5,-299 848.737,-259.384 798.473,-235.228 825.5,-201 868.255,-146.853 929.905,-215.88 976.5,-165 993.307,-146.648 992.811,-115.592 990.768,-97.5801"/>
<polygon fill="midnightblue" stroke="midnightblue" points="802.501,-326.657 796.5,-335.389 806.637,-332.305 802.501,-326.657"/>
</g>
<!-- Node24&#45;&gt;Node9 -->
<g id="edge41" class="edge"><title>Node24&#45;&gt;Node9</title>
<path fill="none" stroke="midnightblue" d="M835.816,-343.325C896.575,-336.171 981.833,-322.28 1005.5,-299 1023.52,-281.272 1025.82,-249.992 1025.45,-231.772"/>
<polygon fill="midnightblue" stroke="midnightblue" points="835.071,-339.887 825.533,-344.5 835.866,-346.842 835.071,-339.887"/>
</g>
<!-- Node24&#45;&gt;Node11 -->
<g id="edge37" class="edge"><title>Node24&#45;&gt;Node11</title>
<path fill="none" stroke="midnightblue" d="M707.092,-338.928C629.14,-326.133 499.414,-304.839 427.505,-293.036"/>
<polygon fill="midnightblue" stroke="midnightblue" points="706.833,-342.432 717.268,-340.598 707.967,-335.525 706.833,-342.432"/>
</g>
<!-- Node24&#45;&gt;Node12 -->
<g id="edge38" class="edge"><title>Node24&#45;&gt;Node12</title>
<path fill="none" stroke="midnightblue" d="M743.776,-329.26C732.996,-320.631 720.985,-310.019 711.5,-299 690.924,-275.096 673.348,-241.781 665.654,-226.192"/>
<polygon fill="midnightblue" stroke="midnightblue" points="741.677,-332.062 751.717,-335.445 745.979,-326.539 741.677,-332.062"/>
</g>
<!-- Node24&#45;&gt;Node19 -->
<g id="edge39" class="edge"><title>Node24&#45;&gt;Node19</title>
<path fill="none" stroke="midnightblue" d="M707.296,-343.775C659.995,-337.582 595.179,-324.864 543.5,-299 483.75,-269.097 488.89,-231.611 429.5,-201 370.094,-170.381 347.212,-185.183 283.5,-165 212.215,-142.418 130.295,-107.865 93.7903,-92.0003"/>
<polygon fill="midnightblue" stroke="midnightblue" points="707.057,-347.272 717.413,-345.036 707.922,-340.326 707.057,-347.272"/>
</g>
<!-- Node25 -->
<g id="node25" class="node"><title>Node25</title>
<g id="a_node25"><a xlink:href="file__manager_8test_8cpp.html" target="_top" xlink:title="src/__tests__/file\l_manager.test.cpp">
<polygon fill="white" stroke="black" points="721,-268.5 721,-298.5 822,-298.5 822,-268.5 721,-268.5"/>
<text text-anchor="start" x="729" y="-286.5" font-family="Ubuntu Regular" font-size="10.00">src/__tests__/file</text>
<text text-anchor="middle" x="771.5" y="-275.5" font-family="Ubuntu Regular" font-size="10.00">_manager.test.cpp</text>
</a>
</g>
</g>
<!-- Node24&#45;&gt;Node25 -->
<g id="edge42" class="edge"><title>Node24&#45;&gt;Node25</title>
<path fill="none" stroke="midnightblue" d="M771.5,-325.108C771.5,-316.154 771.5,-306.323 771.5,-298.577"/>
<polygon fill="midnightblue" stroke="midnightblue" points="768,-325.396 771.5,-335.396 775,-325.396 768,-325.396"/>
</g>
<!-- Node26 -->
<g id="node26" class="node"><title>Node26</title>
<g id="a_node26"><a xlink:href="file__manager_8cpp.html" target="_top" xlink:title="src/file_manager.cpp">
<polygon fill="white" stroke="black" points="552.5,-274 552.5,-293 664.5,-293 664.5,-274 552.5,-274"/>
<text text-anchor="middle" x="608.5" y="-281" font-family="Ubuntu Regular" font-size="10.00">src/file_manager.cpp</text>
</a>
</g>
</g>
<!-- Node24&#45;&gt;Node26 -->
<g id="edge43" class="edge"><title>Node24&#45;&gt;Node26</title>
<path fill="none" stroke="midnightblue" d="M726.666,-331.621C695.116,-319.04 654.306,-302.766 629.833,-293.007"/>
<polygon fill="midnightblue" stroke="midnightblue" points="725.546,-334.943 736.131,-335.396 728.139,-328.441 725.546,-334.943"/>
</g>
<!-- Node27&#45;&gt;Node5 -->
<g id="edge50" class="edge"><title>Node27&#45;&gt;Node5</title>
<path fill="none" stroke="midnightblue" d="M1226.02,-261.118C1217.5,-252.329 1207.78,-241.905 1199.5,-232 1135.23,-155.122 1066.93,-54.5582 1047.16,-25.0089"/>
<polygon fill="midnightblue" stroke="midnightblue" points="1223.63,-263.679 1233.13,-268.366 1228.63,-258.776 1223.63,-263.679"/>
</g>
<!-- Node27&#45;&gt;Node6 -->
<g id="edge52" class="edge"><title>Node27&#45;&gt;Node6</title>
<path fill="none" stroke="midnightblue" d="M1300.39,-263.701C1314.25,-256.087 1327.53,-245.755 1335.5,-232 1374.44,-164.759 1328.57,-67.0192 1308.75,-30.7446"/>
<polygon fill="midnightblue" stroke="midnightblue" points="1298.59,-260.687 1291.25,-268.32 1301.75,-266.935 1298.59,-260.687"/>
</g>
<!-- Node27&#45;&gt;Node9 -->
<g id="edge49" class="edge"><title>Node27&#45;&gt;Node9</title>
<path fill="none" stroke="midnightblue" d="M1189.45,-265.58C1153.23,-255.022 1107.15,-241.592 1072.91,-231.611"/>
<polygon fill="midnightblue" stroke="midnightblue" points="1188.81,-269.038 1199.39,-268.476 1190.77,-262.317 1188.81,-269.038"/>
</g>
<!-- Node28 -->
<g id="node28" class="node"><title>Node28</title>
<g id="a_node28"><a xlink:href="path__resolver_8test_8cpp.html" target="_top" xlink:title="src/__tests__/path\l_resolver.test.cpp">
<polygon fill="white" stroke="black" points="1383,-201.5 1383,-231.5 1484,-231.5 1484,-201.5 1383,-201.5"/>
<text text-anchor="start" x="1391" y="-219.5" font-family="Ubuntu Regular" font-size="10.00">src/__tests__/path</text>
<text text-anchor="middle" x="1433.5" y="-208.5" font-family="Ubuntu Regular" font-size="10.00">_resolver.test.cpp</text>
</a>
</g>
</g>
<!-- Node27&#45;&gt;Node28 -->
<g id="edge51" class="edge"><title>Node27&#45;&gt;Node28</title>
<path fill="none" stroke="midnightblue" d="M1297.31,-265.092C1327.34,-254.599 1365.09,-241.408 1393.22,-231.577"/>
<polygon fill="midnightblue" stroke="midnightblue" points="1296.14,-261.793 1287.86,-268.396 1298.45,-268.401 1296.14,-261.793"/>
</g>
<!-- Node29 -->
<g id="node29" class="node"><title>Node29</title>
<g id="a_node29"><a xlink:href="path__resolver_8cpp.html" target="_top" xlink:title="src/path_resolver.cpp">
<polygon fill="white" stroke="black" points="1209,-207 1209,-226 1326,-226 1326,-207 1209,-207"/>
<text text-anchor="middle" x="1267.5" y="-214" font-family="Ubuntu Regular" font-size="10.00">src/path_resolver.cpp</text>
</a>
</g>
</g>
<!-- Node27&#45;&gt;Node29 -->
<g id="edge53" class="edge"><title>Node27&#45;&gt;Node29</title>
<path fill="none" stroke="midnightblue" d="M1254.85,-258.596C1258.34,-247.278 1262.28,-234.461 1264.82,-226.195"/>
<polygon fill="midnightblue" stroke="midnightblue" points="1251.44,-257.809 1251.84,-268.396 1258.13,-259.867 1251.44,-257.809"/>
</g>
</g>
</svg>
