<?xml version="1.0" encoding="UTF-8" standalone="no"?>
<!DOCTYPE svg PUBLIC "-//W3C//DTD SVG 1.1//EN"
 "http://www.w3.org/Graphics/SVG/1.1/DTD/svg11.dtd">
<!-- Generated by graphviz version 2.38.0 (20140413.2041)
 -->
<!-- Title: include/karazeh/hashers/md5_hasher.hpp Pages: 1 -->
<svg width="553pt" height="263pt"
 viewBox="0.00 0.00 552.50 263.00" xmlns="http://www.w3.org/2000/svg" xmlns:xlink="http://www.w3.org/1999/xlink">
<g id="graph0" class="graph" transform="scale(1 1) rotate(0) translate(4 259)">
<title>include/karazeh/hashers/md5_hasher.hpp</title>
<polygon fill="white" stroke="none" points="-4,4 -4,-259 548.5,-259 548.5,4 -4,4"/>
<!-- Node1 -->
<g id="node1" class="node"><title>Node1</title>
<polygon fill="#bfbfbf" stroke="black" points="43.5,-224.5 43.5,-254.5 172.5,-254.5 172.5,-224.5 43.5,-224.5"/>
<text text-anchor="start" x="51.5" y="-242.5" font-family="Ubuntu Regular" font-size="10.00">include/karazeh/hashers</text>
<text text-anchor="middle" x="108" y="-231.5" font-family="Ubuntu Regular" font-size="10.00">/md5_hasher.hpp</text>
</g>
<!-- Node2 -->
<g id="node2" class="node"><title>Node2</title>
<polygon fill="white" stroke="#bfbfbf" points="0,-168.5 0,-187.5 80,-187.5 80,-168.5 0,-168.5"/>
<text text-anchor="middle" x="40" y="-175.5" font-family="Ubuntu Regular" font-size="10.00">md5/md5.hpp</text>
</g>
<!-- Node1&#45;&gt;Node2 -->
<g id="edge1" class="edge"><title>Node1&#45;&gt;Node2</title>
<path fill="none" stroke="midnightblue" d="M91.8849,-224.399C81.5963,-215.397 68.253,-203.721 57.6745,-194.465"/>
<polygon fill="midnightblue" stroke="midnightblue" points="59.7252,-191.609 49.8946,-187.658 55.1156,-196.877 59.7252,-191.609"/>
</g>
<!-- Node3 -->
<g id="node3" class="node"><title>Node3</title>
<polygon fill="white" stroke="#bfbfbf" points="97.5,-0.5 97.5,-19.5 194.5,-19.5 194.5,-0.5 97.5,-0.5"/>
<text text-anchor="middle" x="146" y="-7.5" font-family="Ubuntu Regular" font-size="10.00">karazeh_export.h</text>
</g>
<!-- Node1&#45;&gt;Node3 -->
<g id="edge2" class="edge"><title>Node1&#45;&gt;Node3</title>
<path fill="none" stroke="midnightblue" d="M110.377,-224.269C116.954,-184.895 135.396,-74.4866 142.832,-29.9655"/>
<polygon fill="midnightblue" stroke="midnightblue" points="146.313,-30.367 144.509,-19.927 139.409,-29.2137 146.313,-30.367"/>
</g>
<!-- Node4 -->
<g id="node4" class="node"><title>Node4</title>
<g id="a_node4"><a xlink:href="hasher_8hpp.html" target="_top" xlink:title="karazeh/hasher.hpp">
<polygon fill="white" stroke="black" points="136.5,-168.5 136.5,-187.5 243.5,-187.5 243.5,-168.5 136.5,-168.5"/>
<text text-anchor="middle" x="190" y="-175.5" font-family="Ubuntu Regular" font-size="10.00">karazeh/hasher.hpp</text>
</a>
</g>
</g>
<!-- Node1&#45;&gt;Node4 -->
<g id="edge3" class="edge"><title>Node1&#45;&gt;Node4</title>
<path fill="none" stroke="midnightblue" d="M127.433,-224.399C140.208,-215.129 156.889,-203.025 169.814,-193.647"/>
<polygon fill="midnightblue" stroke="midnightblue" points="172.03,-196.364 178.068,-187.658 167.919,-190.698 172.03,-196.364"/>
</g>
<!-- Node4&#45;&gt;Node3 -->
<g id="edge4" class="edge"><title>Node4&#45;&gt;Node3</title>
<path fill="none" stroke="midnightblue" d="M187.634,-168.075C180.708,-141.945 160.369,-65.2106 150.924,-29.577"/>
<polygon fill="midnightblue" stroke="midnightblue" points="154.216,-28.3375 148.271,-19.5681 147.45,-30.1311 154.216,-28.3375"/>
</g>
<!-- Node5 -->
<g id="node5" class="node"><title>Node5</title>
<g id="a_node5"><a xlink:href="karazeh_8hpp.html" target="_top" xlink:title="karazeh/karazeh.hpp">
<polygon fill="white" stroke="black" points="243.5,-112.5 243.5,-131.5 356.5,-131.5 356.5,-112.5 243.5,-112.5"/>
<text text-anchor="middle" x="300" y="-119.5" font-family="Ubuntu Regular" font-size="10.00">karazeh/karazeh.hpp</text>
</a>
</g>
</g>
<!-- Node4&#45;&gt;Node5 -->
<g id="edge5" class="edge"><title>Node4&#45;&gt;Node5</title>
<path fill="none" stroke="midnightblue" d="M207.673,-168.324C225.394,-159.625 252.903,-146.12 273.288,-136.113"/>
<polygon fill="midnightblue" stroke="midnightblue" points="274.936,-139.203 282.37,-131.655 271.851,-132.919 274.936,-139.203"/>
</g>
<!-- Node6 -->
<g id="node6" class="node"><title>Node6</title>
<polygon fill="white" stroke="#bfbfbf" points="501.5,-0.5 501.5,-19.5 544.5,-19.5 544.5,-0.5 501.5,-0.5"/>
<text text-anchor="middle" x="523" y="-7.5" font-family="Ubuntu Regular" font-size="10.00">string</text>
</g>
<!-- Node5&#45;&gt;Node6 -->
<g id="edge6" class="edge"><title>Node5&#45;&gt;Node6</title>
<path fill="none" stroke="midnightblue" d="M356.508,-115.707C410.894,-109.44 487.905,-97.0938 509,-76 520.98,-64.0207 523.825,-44.413 524.072,-29.8609"/>
<polygon fill="midnightblue" stroke="midnightblue" points="527.563,-29.4348 523.838,-19.5167 520.565,-29.5934 527.563,-29.4348"/>
</g>
<!-- Node7 -->
<g id="node7" class="node"><title>Node7</title>
<polygon fill="white" stroke="#bfbfbf" points="174,-56.5 174,-75.5 224,-75.5 224,-56.5 174,-56.5"/>
<text text-anchor="middle" x="199" y="-63.5" font-family="Ubuntu Regular" font-size="10.00">cassert</text>
</g>
<!-- Node5&#45;&gt;Node7 -->
<g id="edge7" class="edge"><title>Node5&#45;&gt;Node7</title>
<path fill="none" stroke="midnightblue" d="M283.773,-112.324C267.649,-103.703 242.7,-90.3643 224.036,-80.3855"/>
<polygon fill="midnightblue" stroke="midnightblue" points="225.656,-77.283 215.187,-75.6545 222.356,-83.456 225.656,-77.283"/>
</g>
<!-- Node8 -->
<g id="node8" class="node"><title>Node8</title>
<polygon fill="white" stroke="#bfbfbf" points="242,-56.5 242,-75.5 358,-75.5 358,-56.5 242,-56.5"/>
<text text-anchor="middle" x="300" y="-63.5" font-family="Ubuntu Regular" font-size="10.00">boost/filesystem.hpp</text>
</g>
<!-- Node5&#45;&gt;Node8 -->
<g id="edge8" class="edge"><title>Node5&#45;&gt;Node8</title>
<path fill="none" stroke="midnightblue" d="M300,-112.083C300,-105.006 300,-94.8611 300,-85.9865"/>
<polygon fill="midnightblue" stroke="midnightblue" points="303.5,-85.751 300,-75.7511 296.5,-85.7511 303.5,-85.751"/>
</g>
<!-- Node9 -->
<g id="node9" class="node"><title>Node9</title>
<g id="a_node9"><a xlink:href="exception_8hpp.html" target="_top" xlink:title="karazeh/exception.hpp">
<polygon fill="white" stroke="black" points="376.5,-56.5 376.5,-75.5 499.5,-75.5 499.5,-56.5 376.5,-56.5"/>
<text text-anchor="middle" x="438" y="-63.5" font-family="Ubuntu Regular" font-size="10.00">karazeh/exception.hpp</text>
</a>
</g>
</g>
<!-- Node5&#45;&gt;Node9 -->
<g id="edge9" class="edge"><title>Node5&#45;&gt;Node9</title>
<path fill="none" stroke="midnightblue" d="M321.867,-112.444C344.779,-103.478 380.975,-89.314 406.866,-79.1827"/>
<polygon fill="midnightblue" stroke="midnightblue" points="408.199,-82.4198 416.236,-75.5164 405.648,-75.9011 408.199,-82.4198"/>
</g>
<!-- Node9&#45;&gt;Node3 -->
<g id="edge13" class="edge"><title>Node9&#45;&gt;Node3</title>
<path fill="none" stroke="midnightblue" d="M391.732,-56.4435C340.259,-46.9246 257.107,-31.5472 202.001,-21.3563"/>
<polygon fill="midnightblue" stroke="midnightblue" points="202.522,-17.8933 192.052,-19.5164 201.249,-24.7766 202.522,-17.8933"/>
</g>
<!-- Node9&#45;&gt;Node6 -->
<g id="edge11" class="edge"><title>Node9&#45;&gt;Node6</title>
<path fill="none" stroke="midnightblue" d="M451.657,-56.324C464.916,-47.9002 485.268,-34.9709 500.846,-25.0741"/>
<polygon fill="midnightblue" stroke="midnightblue" points="502.813,-27.9711 509.377,-19.6545 499.06,-22.0626 502.813,-27.9711"/>
</g>
<!-- Node10 -->
<g id="node10" class="node"><title>Node10</title>
<polygon fill="white" stroke="#bfbfbf" points="333.5,-0.5 333.5,-19.5 396.5,-19.5 396.5,-0.5 333.5,-0.5"/>
<text text-anchor="middle" x="365" y="-7.5" font-family="Ubuntu Regular" font-size="10.00">exception</text>
</g>
<!-- Node9&#45;&gt;Node10 -->
<g id="edge10" class="edge"><title>Node9&#45;&gt;Node10</title>
<path fill="none" stroke="midnightblue" d="M426.271,-56.324C415.163,-48.1066 398.258,-35.6017 385.017,-25.8069"/>
<polygon fill="midnightblue" stroke="midnightblue" points="387.063,-22.9671 376.942,-19.8339 382.9,-28.5948 387.063,-22.9671"/>
</g>
<!-- Node11 -->
<g id="node11" class="node"><title>Node11</title>
<polygon fill="white" stroke="#bfbfbf" points="414.5,-0.5 414.5,-19.5 479.5,-19.5 479.5,-0.5 414.5,-0.5"/>
<text text-anchor="middle" x="447" y="-7.5" font-family="Ubuntu Regular" font-size="10.00">stdexcept</text>
</g>
<!-- Node9&#45;&gt;Node11 -->
<g id="edge12" class="edge"><title>Node9&#45;&gt;Node11</title>
<path fill="none" stroke="midnightblue" d="M439.486,-56.083C440.679,-48.9272 442.394,-38.6353 443.885,-29.6911"/>
<polygon fill="midnightblue" stroke="midnightblue" points="447.35,-30.1904 445.541,-19.7511 440.445,-29.0396 447.35,-30.1904"/>
</g>
</g>
</svg>
