<?xml version="1.0" encoding="UTF-8" standalone="no"?>
<!DOCTYPE svg PUBLIC "-//W3C//DTD SVG 1.1//EN"
 "http://www.w3.org/Graphics/SVG/1.1/DTD/svg11.dtd">
<!-- Generated by graphviz version 2.38.0 (20140413.2041)
 -->
<!-- Title: include/karazeh/hashers/md5_hasher.hpp Pages: 1 -->
<svg width="752pt" height="106pt"
 viewBox="0.00 0.00 752.00 106.00" xmlns="http://www.w3.org/2000/svg" xmlns:xlink="http://www.w3.org/1999/xlink">
<g id="graph0" class="graph" transform="scale(1 1) rotate(0) translate(4 102)">
<title>include/karazeh/hashers/md5_hasher.hpp</title>
<polygon fill="white" stroke="none" points="-4,4 -4,-102 748,-102 748,4 -4,4"/>
<!-- Node1 -->
<g id="node1" class="node"><title>Node1</title>
<polygon fill="#bfbfbf" stroke="black" points="312.5,-67.5 312.5,-97.5 441.5,-97.5 441.5,-67.5 312.5,-67.5"/>
<text text-anchor="start" x="320.5" y="-85.5" font-family="Ubuntu Regular" font-size="10.00">include/karazeh/hashers</text>
<text text-anchor="middle" x="377" y="-74.5" font-family="Ubuntu Regular" font-size="10.00">/md5_hasher.hpp</text>
</g>
<!-- Node2 -->
<g id="node2" class="node"><title>Node2</title>
<g id="a_node2"><a xlink:href="delta__encoder_8test_8cpp.html" target="_top" xlink:title="src/__tests__/delta\l_encoder.test.cpp">
<polygon fill="white" stroke="black" points="0,-0.5 0,-30.5 104,-30.5 104,-0.5 0,-0.5"/>
<text text-anchor="start" x="8" y="-18.5" font-family="Ubuntu Regular" font-size="10.00">src/__tests__/delta</text>
<text text-anchor="middle" x="52" y="-7.5" font-family="Ubuntu Regular" font-size="10.00">_encoder.test.cpp</text>
</a>
</g>
</g>
<!-- Node1&#45;&gt;Node2 -->
<g id="edge1" class="edge"><title>Node1&#45;&gt;Node2</title>
<path fill="none" stroke="midnightblue" d="M302.296,-68.1235C249.333,-58.417 176.654,-44.6466 113,-31 110.126,-30.3839 107.18,-29.7365 104.209,-29.0712"/>
<polygon fill="midnightblue" stroke="midnightblue" points="301.817,-71.5938 312.283,-69.9484 303.076,-64.7078 301.817,-71.5938"/>
</g>
<!-- Node3 -->
<g id="node3" class="node"><title>Node3</title>
<g id="a_node3"><a xlink:href="downloader_8test_8cpp.html" target="_top" xlink:title="src/__tests__/downloader.test.cpp">
<polygon fill="white" stroke="black" points="122,-6 122,-25 296,-25 296,-6 122,-6"/>
<text text-anchor="middle" x="209" y="-13" font-family="Ubuntu Regular" font-size="10.00">src/__tests__/downloader.test.cpp</text>
</a>
</g>
</g>
<!-- Node1&#45;&gt;Node3 -->
<g id="edge2" class="edge"><title>Node1&#45;&gt;Node3</title>
<path fill="none" stroke="midnightblue" d="M331.211,-63.7838C298.636,-51.1807 256.32,-34.8082 230.987,-25.007"/>
<polygon fill="midnightblue" stroke="midnightblue" points="329.957,-67.0517 340.547,-67.396 332.483,-60.5233 329.957,-67.0517"/>
</g>
<!-- Node4 -->
<g id="node4" class="node"><title>Node4</title>
<g id="a_node4"><a xlink:href="md5__hasher_8test_8cpp.html" target="_top" xlink:title="src/hashers/__tests\l__/md5_hasher.test.cpp">
<polygon fill="white" stroke="black" points="314.5,-0.5 314.5,-30.5 439.5,-30.5 439.5,-0.5 314.5,-0.5"/>
<text text-anchor="start" x="322.5" y="-18.5" font-family="Ubuntu Regular" font-size="10.00">src/hashers/__tests</text>
<text text-anchor="middle" x="377" y="-7.5" font-family="Ubuntu Regular" font-size="10.00">__/md5_hasher.test.cpp</text>
</a>
</g>
</g>
<!-- Node1&#45;&gt;Node4 -->
<g id="edge3" class="edge"><title>Node1&#45;&gt;Node4</title>
<path fill="none" stroke="midnightblue" d="M377,-57.1081C377,-48.1539 377,-38.3227 377,-30.5765"/>
<polygon fill="midnightblue" stroke="midnightblue" points="373.5,-57.3959 377,-67.396 380.5,-57.396 373.5,-57.3959"/>
</g>
<!-- Node5 -->
<g id="node5" class="node"><title>Node5</title>
<g id="a_node5"><a xlink:href="md5__hasher_8cpp.html" target="_top" xlink:title="src/hashers/md5_hasher.cpp">
<polygon fill="white" stroke="black" points="458,-6 458,-25 606,-25 606,-6 458,-6"/>
<text text-anchor="middle" x="532" y="-13" font-family="Ubuntu Regular" font-size="10.00">src/hashers/md5_hasher.cpp</text>
</a>
</g>
</g>
<!-- Node1&#45;&gt;Node5 -->
<g id="edge4" class="edge"><title>Node1&#45;&gt;Node5</title>
<path fill="none" stroke="midnightblue" d="M420.022,-63.4585C449.969,-50.9001 488.543,-34.724 511.714,-25.007"/>
<polygon fill="midnightblue" stroke="midnightblue" points="418.501,-60.301 410.633,-67.396 421.208,-66.7563 418.501,-60.301"/>
</g>
<!-- Node6 -->
<g id="node6" class="node"><title>Node6</title>
<g id="a_node6"><a xlink:href="create_8test_8cpp.html" target="_top" xlink:title="src/operations/__tests\l__/create.test.cpp">
<polygon fill="white" stroke="black" points="624,-0.5 624,-30.5 744,-30.5 744,-0.5 624,-0.5"/>
<text text-anchor="start" x="632" y="-18.5" font-family="Ubuntu Regular" font-size="10.00">src/operations/__tests</text>
<text text-anchor="middle" x="684" y="-7.5" font-family="Ubuntu Regular" font-size="10.00">__/create.test.cpp</text>
</a>
</g>
</g>
<!-- Node1&#45;&gt;Node6 -->
<g id="edge5" class="edge"><title>Node1&#45;&gt;Node6</title>
<path fill="none" stroke="midnightblue" d="M451.727,-65.6784C504.575,-54.4889 574.513,-39.6813 623.788,-29.2484"/>
<polygon fill="midnightblue" stroke="midnightblue" points="450.79,-62.2991 441.732,-67.7946 452.24,-69.1473 450.79,-62.2991"/>
</g>
</g>
</svg>
