<?xml version="1.0" encoding="UTF-8" standalone="no"?>
<!DOCTYPE svg PUBLIC "-//W3C//DTD SVG 1.1//EN"
 "http://www.w3.org/Graphics/SVG/1.1/DTD/svg11.dtd">
<!-- Generated by graphviz version 2.38.0 (20140413.2041)
 -->
<!-- Title: src/hashers/md5_hasher.cpp Pages: 1 -->
<!--zoomable 319 -->
<svg id="main" version="1.1" xmlns="http://www.w3.org/2000/svg" xmlns:xlink="http://www.w3.org/1999/xlink" xml:space="preserve" onload="init(evt)">
<style type="text/css"><![CDATA[
.edge:hover path { stroke: red; }
.edge:hover polygon { stroke: red; fill: red; }
]]></style>
<script type="text/javascript"><![CDATA[
var edges = document.getElementsByTagName('g');
if (edges && edges.length) {
  for (var i=0;i<edges.length;i++) {
    if (edges[i].id.substr(0,4)=='edge') {
      edges[i].setAttribute('class','edge');
    }
  }
}
]]></script>
        <defs>
                <circle id="rim" cx="0" cy="0" r="7"/>
                <circle id="rim2" cx="0" cy="0" r="3.5"/>
                <g id="zoomPlus">
                        <use xlink:href="#rim" fill="#404040">
                                <set attributeName="fill" to="#808080" begin="zoomplus.mouseover" end="zoomplus.mouseout"/>
                        </use>
                        <path d="M-4,0h8M0,-4v8" fill="none" stroke="white" stroke-width="1.5" pointer-events="none"/>
                </g>
                <g id="zoomMin">
                        <use xlink:href="#rim" fill="#404040">
                                <set attributeName="fill" to="#808080" begin="zoomminus.mouseover" end="zoomminus.mouseout"/>
                        </use>
                        <path d="M-4,0h8" fill="none" stroke="white" stroke-width="1.5" pointer-events="none"/>
                </g>
                <g id="dirArrow">
                        <path fill="none" stroke="white" stroke-width="1.5" d="M0,-3.0v7 M-2.5,-0.5L0,-3.0L2.5,-0.5"/>
                </g>
               <g id="resetDef">
                       <use xlink:href="#rim2" fill="#404040">
                               <set attributeName="fill" to="#808080" begin="reset.mouseover" end="reset.mouseout"/>
                       </use>
               </g>
        </defs>

<script type="text/javascript">
var viewWidth = 503;
var viewHeight = 319;
var sectionId = 'dynsection-0';
</script>
<script xlink:href="svgpan.js"/>
<svg id="graph" class="graph">
<g id="viewport">
<title>src/hashers/md5_hasher.cpp</title>
<polygon fill="white" stroke="none" points="-4,4 -4,-315 498.587,-315 498.587,4 -4,4"/>
<!-- Node1 -->
<g id="node1" class="node"><title>Node1</title>
<polygon fill="#bfbfbf" stroke="black" points="103.087,-291.5 103.087,-310.5 251.087,-310.5 251.087,-291.5 103.087,-291.5"/>
<text text-anchor="middle" x="177.087" y="-298.5" font-family="Ubuntu Regular" font-size="10.00">src/hashers/md5_hasher.cpp</text>
</g>
<!-- Node2 -->
<g id="node2" class="node"><title>Node2</title>
<g id="a_node2"><a xlink:href="md5__hasher_8hpp.html" target="_top" xlink:title="karazeh/hashers/md5\l_hasher.hpp">
<polygon fill="white" stroke="black" points="39.0874,-224.5 39.0874,-254.5 155.087,-254.5 155.087,-224.5 39.0874,-224.5"/>
<text text-anchor="start" x="47.0874" y="-242.5" font-family="Ubuntu Regular" font-size="10.00">karazeh/hashers/md5</text>
<text text-anchor="middle" x="97.0874" y="-231.5" font-family="Ubuntu Regular" font-size="10.00">_hasher.hpp</text>
</a>
</g>
</g>
<!-- Node1&#45;&gt;Node2 -->
<g id="edge1" class="edge"><title>Node1&#45;&gt;Node2</title>
<path fill="none" stroke="midnightblue" d="M165.625,-291.475C154.892,-283.492 138.438,-271.254 124.342,-260.77"/>
<polygon fill="midnightblue" stroke="midnightblue" points="126.055,-257.682 115.942,-254.523 121.877,-263.299 126.055,-257.682"/>
</g>
<!-- Node13 -->
<g id="node13" class="node"><title>Node13</title>
<g id="a_node13"><a xlink:href="logger_8hpp.html" target="_top" xlink:title="karazeh/logger.hpp">
<polygon fill="white" stroke="black" points="242.587,-168.5 242.587,-187.5 349.587,-187.5 349.587,-168.5 242.587,-168.5"/>
<text text-anchor="middle" x="296.087" y="-175.5" font-family="Ubuntu Regular" font-size="10.00">karazeh/logger.hpp</text>
</a>
</g>
</g>
<!-- Node1&#45;&gt;Node13 -->
<g id="edge15" class="edge"><title>Node1&#45;&gt;Node13</title>
<path fill="none" stroke="midnightblue" d="M185.646,-291.298C205.544,-271.066 255.154,-220.622 280.559,-194.789"/>
<polygon fill="midnightblue" stroke="midnightblue" points="283.09,-197.207 287.607,-187.623 278.099,-192.299 283.09,-197.207"/>
</g>
<!-- Node3 -->
<g id="node3" class="node"><title>Node3</title>
<polygon fill="white" stroke="#bfbfbf" points="19.0874,-168.5 19.0874,-187.5 99.0874,-187.5 99.0874,-168.5 19.0874,-168.5"/>
<text text-anchor="middle" x="59.0874" y="-175.5" font-family="Ubuntu Regular" font-size="10.00">md5/md5.hpp</text>
</g>
<!-- Node2&#45;&gt;Node3 -->
<g id="edge2" class="edge"><title>Node2&#45;&gt;Node3</title>
<path fill="none" stroke="midnightblue" d="M88.0819,-224.399C82.6739,-215.932 75.7558,-205.099 70.0335,-196.139"/>
<polygon fill="midnightblue" stroke="midnightblue" points="72.949,-194.202 64.6167,-187.658 67.0495,-197.97 72.949,-194.202"/>
</g>
<!-- Node4 -->
<g id="node4" class="node"><title>Node4</title>
<polygon fill="white" stroke="#bfbfbf" points="24.5874,-0.5 24.5874,-19.5 121.587,-19.5 121.587,-0.5 24.5874,-0.5"/>
<text text-anchor="middle" x="73.0874" y="-7.5" font-family="Ubuntu Regular" font-size="10.00">karazeh_export.h</text>
</g>
<!-- Node2&#45;&gt;Node4 -->
<g id="edge3" class="edge"><title>Node2&#45;&gt;Node4</title>
<path fill="none" stroke="midnightblue" d="M54.2822,-224.418C37.4016,-216.525 19.7606,-204.8 10.0874,-188 -21.587,-132.99 31.3032,-59.3295 58.4916,-27.1642"/>
<polygon fill="midnightblue" stroke="midnightblue" points="61.1669,-29.4215 65.086,-19.5781 55.8839,-24.8291 61.1669,-29.4215"/>
</g>
<!-- Node5 -->
<g id="node5" class="node"><title>Node5</title>
<g id="a_node5"><a xlink:href="hasher_8hpp.html" target="_top" xlink:title="karazeh/hasher.hpp">
<polygon fill="white" stroke="black" points="117.587,-168.5 117.587,-187.5 224.587,-187.5 224.587,-168.5 117.587,-168.5"/>
<text text-anchor="middle" x="171.087" y="-175.5" font-family="Ubuntu Regular" font-size="10.00">karazeh/hasher.hpp</text>
</a>
</g>
</g>
<!-- Node2&#45;&gt;Node5 -->
<g id="edge4" class="edge"><title>Node2&#45;&gt;Node5</title>
<path fill="none" stroke="midnightblue" d="M114.624,-224.399C125.932,-215.308 140.629,-203.49 152.194,-194.191"/>
<polygon fill="midnightblue" stroke="midnightblue" points="154.72,-196.652 160.32,-187.658 150.333,-191.196 154.72,-196.652"/>
</g>
<!-- Node5&#45;&gt;Node4 -->
<g id="edge5" class="edge"><title>Node5&#45;&gt;Node4</title>
<path fill="none" stroke="midnightblue" d="M132.616,-168.435C112.849,-161.914 90.388,-150.745 78.0874,-132 57.5898,-100.763 63.1399,-54.5888 68.4523,-29.2664"/>
<polygon fill="midnightblue" stroke="midnightblue" points="71.8652,-30.0421 70.7099,-19.5104 65.0454,-28.4639 71.8652,-30.0421"/>
</g>
<!-- Node6 -->
<g id="node6" class="node"><title>Node6</title>
<g id="a_node6"><a xlink:href="karazeh_8hpp.html" target="_top" xlink:title="karazeh/karazeh.hpp">
<polygon fill="white" stroke="black" points="126.587,-112.5 126.587,-131.5 239.587,-131.5 239.587,-112.5 126.587,-112.5"/>
<text text-anchor="middle" x="183.087" y="-119.5" font-family="Ubuntu Regular" font-size="10.00">karazeh/karazeh.hpp</text>
</a>
</g>
</g>
<!-- Node5&#45;&gt;Node6 -->
<g id="edge6" class="edge"><title>Node5&#45;&gt;Node6</title>
<path fill="none" stroke="midnightblue" d="M173.069,-168.083C174.659,-160.927 176.946,-150.635 178.934,-141.691"/>
<polygon fill="midnightblue" stroke="midnightblue" points="182.39,-142.272 181.143,-131.751 175.557,-140.754 182.39,-142.272"/>
</g>
<!-- Node7 -->
<g id="node7" class="node"><title>Node7</title>
<polygon fill="white" stroke="#bfbfbf" points="224.587,-0.5 224.587,-19.5 267.587,-19.5 267.587,-0.5 224.587,-0.5"/>
<text text-anchor="middle" x="246.087" y="-7.5" font-family="Ubuntu Regular" font-size="10.00">string</text>
</g>
<!-- Node6&#45;&gt;Node7 -->
<g id="edge7" class="edge"><title>Node6&#45;&gt;Node7</title>
<path fill="none" stroke="midnightblue" d="M172.615,-112.324C158.572,-99.6071 136.752,-75.3214 149.087,-56 163.382,-33.6112 192,-22.1918 214.464,-16.4739"/>
<polygon fill="midnightblue" stroke="midnightblue" points="215.312,-19.8706 224.279,-14.229 213.751,-13.0468 215.312,-19.8706"/>
</g>
<!-- Node8 -->
<g id="node8" class="node"><title>Node8</title>
<polygon fill="white" stroke="#bfbfbf" points="158.087,-56.5 158.087,-75.5 208.087,-75.5 208.087,-56.5 158.087,-56.5"/>
<text text-anchor="middle" x="183.087" y="-63.5" font-family="Ubuntu Regular" font-size="10.00">cassert</text>
</g>
<!-- Node6&#45;&gt;Node8 -->
<g id="edge8" class="edge"><title>Node6&#45;&gt;Node8</title>
<path fill="none" stroke="midnightblue" d="M183.087,-112.083C183.087,-105.006 183.087,-94.8611 183.087,-85.9865"/>
<polygon fill="midnightblue" stroke="midnightblue" points="186.588,-85.751 183.087,-75.7511 179.588,-85.7511 186.588,-85.751"/>
</g>
<!-- Node9 -->
<g id="node9" class="node"><title>Node9</title>
<polygon fill="white" stroke="#bfbfbf" points="226.087,-56.5 226.087,-75.5 342.087,-75.5 342.087,-56.5 226.087,-56.5"/>
<text text-anchor="middle" x="284.087" y="-63.5" font-family="Ubuntu Regular" font-size="10.00">boost/filesystem.hpp</text>
</g>
<!-- Node6&#45;&gt;Node9 -->
<g id="edge9" class="edge"><title>Node6&#45;&gt;Node9</title>
<path fill="none" stroke="midnightblue" d="M199.315,-112.324C215.438,-103.703 240.388,-90.3643 259.052,-80.3855"/>
<polygon fill="midnightblue" stroke="midnightblue" points="260.732,-83.456 267.9,-75.6545 257.431,-77.283 260.732,-83.456"/>
</g>
<!-- Node10 -->
<g id="node10" class="node"><title>Node10</title>
<g id="a_node10"><a xlink:href="exception_8hpp.html" target="_top" xlink:title="karazeh/exception.hpp">
<polygon fill="white" stroke="black" points="360.587,-56.5 360.587,-75.5 483.587,-75.5 483.587,-56.5 360.587,-56.5"/>
<text text-anchor="middle" x="422.087" y="-63.5" font-family="Ubuntu Regular" font-size="10.00">karazeh/exception.hpp</text>
</a>
</g>
</g>
<!-- Node6&#45;&gt;Node10 -->
<g id="edge10" class="edge"><title>Node6&#45;&gt;Node10</title>
<path fill="none" stroke="midnightblue" d="M220.958,-112.444C262.563,-103.043 329.457,-87.9291 374.556,-77.7393"/>
<polygon fill="midnightblue" stroke="midnightblue" points="375.412,-81.1343 384.394,-75.5164 373.869,-74.3064 375.412,-81.1343"/>
</g>
<!-- Node10&#45;&gt;Node4 -->
<g id="edge14" class="edge"><title>Node10&#45;&gt;Node4</title>
<path fill="none" stroke="midnightblue" d="M366.787,-56.4435C302.658,-46.521 197.387,-30.2326 131.828,-20.0888"/>
<polygon fill="midnightblue" stroke="midnightblue" points="132.077,-16.5858 121.66,-18.5155 131.007,-23.5035 132.077,-16.5858"/>
</g>
<!-- Node10&#45;&gt;Node7 -->
<g id="edge12" class="edge"><title>Node10&#45;&gt;Node7</title>
<path fill="none" stroke="midnightblue" d="M394.2,-56.4435C362.401,-46.6872 310.544,-30.7764 277.388,-20.6036"/>
<polygon fill="midnightblue" stroke="midnightblue" points="278.328,-17.2311 267.741,-17.6439 276.275,-23.9232 278.328,-17.2311"/>
</g>
<!-- Node11 -->
<g id="node11" class="node"><title>Node11</title>
<polygon fill="white" stroke="#bfbfbf" points="431.587,-0.5 431.587,-19.5 494.587,-19.5 494.587,-0.5 431.587,-0.5"/>
<text text-anchor="middle" x="463.087" y="-7.5" font-family="Ubuntu Regular" font-size="10.00">exception</text>
</g>
<!-- Node10&#45;&gt;Node11 -->
<g id="edge11" class="edge"><title>Node10&#45;&gt;Node11</title>
<path fill="none" stroke="midnightblue" d="M428.858,-56.083C434.649,-48.4554 443.146,-37.2645 450.225,-27.9408"/>
<polygon fill="midnightblue" stroke="midnightblue" points="453.184,-29.8321 456.443,-19.7511 447.608,-25.5991 453.184,-29.8321"/>
</g>
<!-- Node12 -->
<g id="node12" class="node"><title>Node12</title>
<polygon fill="white" stroke="#bfbfbf" points="348.587,-0.5 348.587,-19.5 413.587,-19.5 413.587,-0.5 348.587,-0.5"/>
<text text-anchor="middle" x="381.087" y="-7.5" font-family="Ubuntu Regular" font-size="10.00">stdexcept</text>
</g>
<!-- Node10&#45;&gt;Node12 -->
<g id="edge13" class="edge"><title>Node10&#45;&gt;Node12</title>
<path fill="none" stroke="midnightblue" d="M415.317,-56.083C409.526,-48.4554 401.029,-37.2645 393.95,-27.9408"/>
<polygon fill="midnightblue" stroke="midnightblue" points="396.566,-25.5991 387.732,-19.7511 390.991,-29.8321 396.566,-25.5991"/>
</g>
<!-- Node13&#45;&gt;Node4 -->
<g id="edge19" class="edge"><title>Node13&#45;&gt;Node4</title>
<path fill="none" stroke="midnightblue" d="M242.206,-169.134C196.46,-161.457 135.405,-148.53 117.087,-132 87.3093,-105.127 77.6585,-56.4754 74.5495,-29.7807"/>
<polygon fill="midnightblue" stroke="midnightblue" points="78.0029,-29.1298 73.555,-19.5139 71.0356,-29.8048 78.0029,-29.1298"/>
</g>
<!-- Node13&#45;&gt;Node6 -->
<g id="edge20" class="edge"><title>Node13&#45;&gt;Node6</title>
<path fill="none" stroke="midnightblue" d="M278.182,-168.444C259.833,-159.675 231.082,-145.935 209.994,-135.858"/>
<polygon fill="midnightblue" stroke="midnightblue" points="211.441,-132.67 200.909,-131.516 208.422,-138.986 211.441,-132.67"/>
</g>
<!-- Node14 -->
<g id="node14" class="node"><title>Node14</title>
<polygon fill="white" stroke="#bfbfbf" points="403.587,-112.5 403.587,-131.5 456.587,-131.5 456.587,-112.5 403.587,-112.5"/>
<text text-anchor="middle" x="430.087" y="-119.5" font-family="Ubuntu Regular" font-size="10.00">sstream</text>
</g>
<!-- Node13&#45;&gt;Node14 -->
<g id="edge16" class="edge"><title>Node13&#45;&gt;Node14</title>
<path fill="none" stroke="midnightblue" d="M317.32,-168.444C339.471,-159.517 374.406,-145.439 399.523,-135.317"/>
<polygon fill="midnightblue" stroke="midnightblue" points="400.987,-138.501 408.954,-131.516 398.371,-132.008 400.987,-138.501"/>
</g>
<!-- Node15 -->
<g id="node15" class="node"><title>Node15</title>
<polygon fill="white" stroke="#bfbfbf" points="257.587,-112.5 257.587,-131.5 310.587,-131.5 310.587,-112.5 257.587,-112.5"/>
<text text-anchor="middle" x="284.087" y="-119.5" font-family="Ubuntu Regular" font-size="10.00">fstream</text>
</g>
<!-- Node13&#45;&gt;Node15 -->
<g id="edge17" class="edge"><title>Node13&#45;&gt;Node15</title>
<path fill="none" stroke="midnightblue" d="M294.106,-168.083C292.516,-160.927 290.229,-150.635 288.241,-141.691"/>
<polygon fill="midnightblue" stroke="midnightblue" points="291.618,-140.754 286.032,-131.751 284.785,-142.272 291.618,-140.754"/>
</g>
<!-- Node16 -->
<g id="node16" class="node"><title>Node16</title>
<polygon fill="white" stroke="#bfbfbf" points="328.587,-112.5 328.587,-131.5 385.587,-131.5 385.587,-112.5 328.587,-112.5"/>
<text text-anchor="middle" x="357.087" y="-119.5" font-family="Ubuntu Regular" font-size="10.00">iostream</text>
</g>
<!-- Node13&#45;&gt;Node16 -->
<g id="edge18" class="edge"><title>Node13&#45;&gt;Node16</title>
<path fill="none" stroke="midnightblue" d="M305.888,-168.324C314.905,-160.341 328.493,-148.313 339.405,-138.653"/>
<polygon fill="midnightblue" stroke="midnightblue" points="341.941,-141.083 347.108,-131.834 337.301,-135.842 341.941,-141.083"/>
</g>
</g>
</svg>
        <g id="navigator" transform="translate(0 0)" fill="#404254">
                <rect fill="#f2f5e9" fill-opacity="0.5" stroke="#606060" stroke-width=".5" x="0" y="0" width="60" height="60"/>
                <use id="zoomplus" xlink:href="#zoomPlus" x="17" y="9" onmousedown="handleZoom(evt,'in')"/>
                <use id="zoomminus" xlink:href="#zoomMin" x="42" y="9" onmousedown="handleZoom(evt,'out')"/>
                <use id="reset" xlink:href="#resetDef" x="30" y="36" onmousedown="handleReset()"/>
                <g id="arrowUp" xlink:href="#dirArrow" transform="translate(30 24)" onmousedown="handlePan(0,-1)">
                  <use xlink:href="#rim" fill="#404040">
                        <set attributeName="fill" to="#808080" begin="arrowUp.mouseover" end="arrowUp.mouseout"/>
                  </use>
                  <path fill="none" stroke="white" stroke-width="1.5" d="M0,-3.0v7 M-2.5,-0.5L0,-3.0L2.5,-0.5"/>
                </g>
                <g id="arrowRight" xlink:href="#dirArrow" transform="rotate(90) translate(36 -43)" onmousedown="handlePan(1,0)">
                  <use xlink:href="#rim" fill="#404040">
                        <set attributeName="fill" to="#808080" begin="arrowRight.mouseover" end="arrowRight.mouseout"/>
                  </use>
                  <path fill="none" stroke="white" stroke-width="1.5" d="M0,-3.0v7 M-2.5,-0.5L0,-3.0L2.5,-0.5"/>
                </g>
                <g id="arrowDown" xlink:href="#dirArrow" transform="rotate(180) translate(-30 -48)" onmousedown="handlePan(0,1)">
                  <use xlink:href="#rim" fill="#404040">
                        <set attributeName="fill" to="#808080" begin="arrowDown.mouseover" end="arrowDown.mouseout"/>
                  </use>
                  <path fill="none" stroke="white" stroke-width="1.5" d="M0,-3.0v7 M-2.5,-0.5L0,-3.0L2.5,-0.5"/>
                </g>
                <g id="arrowLeft" xlink:href="#dirArrow" transform="rotate(270) translate(-36 17)" onmousedown="handlePan(-1,0)">
                  <use xlink:href="#rim" fill="#404040">
                        <set attributeName="fill" to="#808080" begin="arrowLeft.mouseover" end="arrowLeft.mouseout"/>
                  </use>
                  <path fill="none" stroke="white" stroke-width="1.5" d="M0,-3.0v7 M-2.5,-0.5L0,-3.0L2.5,-0.5"/>
                </g>
        </g>
        <svg viewBox="0 0 15 15" width="100%" height="30px" preserveAspectRatio="xMaxYMin meet">
         <g id="arrow_out" transform="scale(0.3 0.3)">
          <a xlink:href="md5__hasher_8cpp__incl_org.svg" target="_base">
           <rect id="button" ry="5" rx="5" y="6" x="6" height="38" width="38"
                fill="#f2f5e9" fill-opacity="0.5" stroke="#606060" stroke-width="1.0"/>
           <path id="arrow"
             d="M 11.500037,31.436501 C 11.940474,20.09759 22.043105,11.32322 32.158766,21.979434 L 37.068811,17.246167 C 37.068811,17.246167 37.088388,32 37.088388,32 L 22.160133,31.978069 C 22.160133,31.978069 26.997745,27.140456 26.997745,27.140456 C 18.528582,18.264221 13.291696,25.230495 11.500037,31.436501 z"
             style="fill:#404040;"/>
          </a>
         </g>
        </svg>
</svg>
