<?xml version="1.0" encoding="UTF-8" standalone="no"?>
<!DOCTYPE svg PUBLIC "-//W3C//DTD SVG 1.1//EN"
 "http://www.w3.org/Graphics/SVG/1.1/DTD/svg11.dtd">
<!-- Generated by graphviz version 2.38.0 (20140413.2041)
 -->
<!-- Title: include/karazeh/operation.hpp Pages: 1 -->
<!--zoomable 229 -->
<svg id="main" version="1.1" xmlns="http://www.w3.org/2000/svg" xmlns:xlink="http://www.w3.org/1999/xlink" xml:space="preserve" onload="init(evt)">
<style type="text/css"><![CDATA[
.edge:hover path { stroke: red; }
.edge:hover polygon { stroke: red; fill: red; }
]]></style>
<script type="text/javascript"><![CDATA[
var edges = document.getElementsByTagName('g');
if (edges && edges.length) {
  for (var i=0;i<edges.length;i++) {
    if (edges[i].id.substr(0,4)=='edge') {
      edges[i].setAttribute('class','edge');
    }
  }
}
]]></script>
        <defs>
                <circle id="rim" cx="0" cy="0" r="7"/>
                <circle id="rim2" cx="0" cy="0" r="3.5"/>
                <g id="zoomPlus">
                        <use xlink:href="#rim" fill="#404040">
                                <set attributeName="fill" to="#808080" begin="zoomplus.mouseover" end="zoomplus.mouseout"/>
                        </use>
                        <path d="M-4,0h8M0,-4v8" fill="none" stroke="white" stroke-width="1.5" pointer-events="none"/>
                </g>
                <g id="zoomMin">
                        <use xlink:href="#rim" fill="#404040">
                                <set attributeName="fill" to="#808080" begin="zoomminus.mouseover" end="zoomminus.mouseout"/>
                        </use>
                        <path d="M-4,0h8" fill="none" stroke="white" stroke-width="1.5" pointer-events="none"/>
                </g>
                <g id="dirArrow">
                        <path fill="none" stroke="white" stroke-width="1.5" d="M0,-3.0v7 M-2.5,-0.5L0,-3.0L2.5,-0.5"/>
                </g>
               <g id="resetDef">
                       <use xlink:href="#rim2" fill="#404040">
                               <set attributeName="fill" to="#808080" begin="reset.mouseover" end="reset.mouseout"/>
                       </use>
               </g>
        </defs>

<script type="text/javascript">
var viewWidth = 1123;
var viewHeight = 229;
var sectionId = 'dynsection-1';
</script>
<script xlink:href="svgpan.js"/>
<svg id="graph" class="graph">
<g id="viewport">
<title>include/karazeh/operation.hpp</title>
<polygon fill="white" stroke="none" points="-4,4 -4,-225 1119,-225 1119,4 -4,4"/>
<!-- Node1 -->
<g id="node1" class="node"><title>Node1</title>
<polygon fill="#bfbfbf" stroke="black" points="308.5,-201.5 308.5,-220.5 466.5,-220.5 466.5,-201.5 308.5,-201.5"/>
<text text-anchor="middle" x="387.5" y="-208.5" font-family="Ubuntu Regular" font-size="10.00">include/karazeh/operation.hpp</text>
</g>
<!-- Node2 -->
<g id="node2" class="node"><title>Node2</title>
<g id="a_node2"><a xlink:href="create_8hpp.html" target="_top" xlink:title="include/karazeh/operations\l/create.hpp">
<polygon fill="white" stroke="black" points="155,-134.5 155,-164.5 298,-164.5 298,-134.5 155,-134.5"/>
<text text-anchor="start" x="163" y="-152.5" font-family="Ubuntu Regular" font-size="10.00">include/karazeh/operations</text>
<text text-anchor="middle" x="226.5" y="-141.5" font-family="Ubuntu Regular" font-size="10.00">/create.hpp</text>
</a>
</g>
</g>
<!-- Node1&#45;&gt;Node2 -->
<g id="edge1" class="edge"><title>Node1&#45;&gt;Node2</title>
<path fill="none" stroke="midnightblue" d="M354.963,-197.976C328.787,-188.302 291.961,-174.692 264.445,-164.523"/>
<polygon fill="midnightblue" stroke="midnightblue" points="353.839,-201.292 364.433,-201.475 356.266,-194.726 353.839,-201.292"/>
</g>
<!-- Node3 -->
<g id="node3" class="node"><title>Node3</title>
<g id="a_node3"><a xlink:href="version__manifest_8hpp.html" target="_top" xlink:title="include/karazeh/version\l_manifest.hpp">
<polygon fill="white" stroke="black" points="63.5,-67.5 63.5,-97.5 189.5,-97.5 189.5,-67.5 63.5,-67.5"/>
<text text-anchor="start" x="71.5" y="-85.5" font-family="Ubuntu Regular" font-size="10.00">include/karazeh/version</text>
<text text-anchor="middle" x="126.5" y="-74.5" font-family="Ubuntu Regular" font-size="10.00">_manifest.hpp</text>
</a>
</g>
</g>
<!-- Node1&#45;&gt;Node3 -->
<g id="edge24" class="edge"><title>Node1&#45;&gt;Node3</title>
<path fill="none" stroke="midnightblue" d="M298.167,-203.53C238.569,-197.368 167.293,-185.83 145.5,-165 127.12,-147.432 124.99,-115.798 125.483,-97.5381"/>
<polygon fill="midnightblue" stroke="midnightblue" points="298.083,-207.039 308.381,-204.546 298.776,-200.073 298.083,-207.039"/>
</g>
<!-- Node9 -->
<g id="node9" class="node"><title>Node9</title>
<g id="a_node9"><a xlink:href="delete_8hpp.html" target="_top" xlink:title="include/karazeh/operations\l/delete.hpp">
<polygon fill="white" stroke="black" points="316,-134.5 316,-164.5 459,-164.5 459,-134.5 316,-134.5"/>
<text text-anchor="start" x="324" y="-152.5" font-family="Ubuntu Regular" font-size="10.00">include/karazeh/operations</text>
<text text-anchor="middle" x="387.5" y="-141.5" font-family="Ubuntu Regular" font-size="10.00">/delete.hpp</text>
</a>
</g>
</g>
<!-- Node1&#45;&gt;Node9 -->
<g id="edge8" class="edge"><title>Node1&#45;&gt;Node9</title>
<path fill="none" stroke="midnightblue" d="M387.5,-191.235C387.5,-182.586 387.5,-172.497 387.5,-164.523"/>
<polygon fill="midnightblue" stroke="midnightblue" points="384,-191.475 387.5,-201.475 391,-191.475 384,-191.475"/>
</g>
<!-- Node11 -->
<g id="node11" class="node"><title>Node11</title>
<g id="a_node11"><a xlink:href="update_8hpp.html" target="_top" xlink:title="include/karazeh/operations\l/update.hpp">
<polygon fill="white" stroke="black" points="477,-134.5 477,-164.5 620,-164.5 620,-134.5 477,-134.5"/>
<text text-anchor="start" x="485" y="-152.5" font-family="Ubuntu Regular" font-size="10.00">include/karazeh/operations</text>
<text text-anchor="middle" x="548.5" y="-141.5" font-family="Ubuntu Regular" font-size="10.00">/update.hpp</text>
</a>
</g>
</g>
<!-- Node1&#45;&gt;Node11 -->
<g id="edge11" class="edge"><title>Node1&#45;&gt;Node11</title>
<path fill="none" stroke="midnightblue" d="M420.037,-197.976C446.213,-188.302 483.039,-174.692 510.555,-164.523"/>
<polygon fill="midnightblue" stroke="midnightblue" points="418.734,-194.726 410.567,-201.475 421.161,-201.292 418.734,-194.726"/>
</g>
<!-- Node13 -->
<g id="node13" class="node"><title>Node13</title>
<g id="a_node13"><a xlink:href="release__manifest_8hpp.html" target="_top" xlink:title="include/karazeh/release\l_manifest.hpp">
<polygon fill="white" stroke="black" points="638.5,-134.5 638.5,-164.5 766.5,-164.5 766.5,-134.5 638.5,-134.5"/>
<text text-anchor="start" x="646.5" y="-152.5" font-family="Ubuntu Regular" font-size="10.00">include/karazeh/release</text>
<text text-anchor="middle" x="702.5" y="-141.5" font-family="Ubuntu Regular" font-size="10.00">_manifest.hpp</text>
</a>
</g>
</g>
<!-- Node1&#45;&gt;Node13 -->
<g id="edge14" class="edge"><title>Node1&#45;&gt;Node13</title>
<path fill="none" stroke="midnightblue" d="M443.778,-199.638C492.637,-190.607 565.273,-177.097 628.5,-165 631.715,-164.385 635.007,-163.752 638.331,-163.11"/>
<polygon fill="midnightblue" stroke="midnightblue" points="442.922,-196.237 433.724,-201.495 444.194,-203.12 442.922,-196.237"/>
</g>
<!-- Node2&#45;&gt;Node3 -->
<g id="edge2" class="edge"><title>Node2&#45;&gt;Node3</title>
<path fill="none" stroke="midnightblue" d="M196.09,-128.734C180.616,-118.676 162.169,-106.685 148.156,-97.5765"/>
<polygon fill="midnightblue" stroke="midnightblue" points="194.51,-131.881 204.801,-134.396 198.325,-126.011 194.51,-131.881"/>
</g>
<!-- Node7 -->
<g id="node7" class="node"><title>Node7</title>
<g id="a_node7"><a xlink:href="create_8test_8cpp.html" target="_top" xlink:title="src/operations/__tests\l__/create.test.cpp">
<polygon fill="white" stroke="black" points="363.5,-67.5 363.5,-97.5 483.5,-97.5 483.5,-67.5 363.5,-67.5"/>
<text text-anchor="start" x="371.5" y="-85.5" font-family="Ubuntu Regular" font-size="10.00">src/operations/__tests</text>
<text text-anchor="middle" x="423.5" y="-74.5" font-family="Ubuntu Regular" font-size="10.00">__/create.test.cpp</text>
</a>
</g>
</g>
<!-- Node2&#45;&gt;Node7 -->
<g id="edge6" class="edge"><title>Node2&#45;&gt;Node7</title>
<path fill="none" stroke="midnightblue" d="M278.848,-131.228C310.716,-120.713 350.911,-107.451 380.837,-97.5765"/>
<polygon fill="midnightblue" stroke="midnightblue" points="277.646,-127.939 269.246,-134.396 279.839,-134.586 277.646,-127.939"/>
</g>
<!-- Node8 -->
<g id="node8" class="node"><title>Node8</title>
<g id="a_node8"><a xlink:href="create_8cpp.html" target="_top" xlink:title="src/operations/create.cpp">
<polygon fill="white" stroke="black" points="208,-73 208,-92 345,-92 345,-73 208,-73"/>
<text text-anchor="middle" x="276.5" y="-80" font-family="Ubuntu Regular" font-size="10.00">src/operations/create.cpp</text>
</a>
</g>
</g>
<!-- Node2&#45;&gt;Node8 -->
<g id="edge7" class="edge"><title>Node2&#45;&gt;Node8</title>
<path fill="none" stroke="midnightblue" d="M243.564,-126.316C252.579,-114.598 263.129,-100.883 269.812,-92.1945"/>
<polygon fill="midnightblue" stroke="midnightblue" points="240.672,-124.336 237.349,-134.396 246.221,-128.604 240.672,-124.336"/>
</g>
<!-- Node4 -->
<g id="node4" class="node"><title>Node4</title>
<g id="a_node4"><a xlink:href="patcher_8test_8cpp.html" target="_top" xlink:title="src/__tests__/patcher.test.cpp">
<polygon fill="white" stroke="black" points="551,-6 551,-25 708,-25 708,-6 551,-6"/>
<text text-anchor="middle" x="629.5" y="-13" font-family="Ubuntu Regular" font-size="10.00">src/__tests__/patcher.test.cpp</text>
</a>
</g>
</g>
<!-- Node3&#45;&gt;Node4 -->
<g id="edge3" class="edge"><title>Node3&#45;&gt;Node4</title>
<path fill="none" stroke="midnightblue" d="M199.695,-66.8886C328.321,-46.7358 466.589,-31.9756 550.981,-23.7455"/>
<polygon fill="midnightblue" stroke="midnightblue" points="198.994,-63.4559 189.663,-68.4746 200.087,-70.37 198.994,-63.4559"/>
</g>
<!-- Node5 -->
<g id="node5" class="node"><title>Node5</title>
<g id="a_node5"><a xlink:href="version__manifest_8test_8cpp.html" target="_top" xlink:title="src/__tests__/version\l_manifest.test.cpp">
<polygon fill="white" stroke="black" points="0,-0.5 0,-30.5 113,-30.5 113,-0.5 0,-0.5"/>
<text text-anchor="start" x="8" y="-18.5" font-family="Ubuntu Regular" font-size="10.00">src/__tests__/version</text>
<text text-anchor="middle" x="56.5" y="-7.5" font-family="Ubuntu Regular" font-size="10.00">_manifest.test.cpp</text>
</a>
</g>
</g>
<!-- Node3&#45;&gt;Node5 -->
<g id="edge4" class="edge"><title>Node3&#45;&gt;Node5</title>
<path fill="none" stroke="midnightblue" d="M103.682,-60.3115C93.1813,-50.5612 81.0097,-39.259 71.6593,-30.5765"/>
<polygon fill="midnightblue" stroke="midnightblue" points="101.601,-63.1562 111.311,-67.396 106.365,-58.0266 101.601,-63.1562"/>
</g>
<!-- Node6 -->
<g id="node6" class="node"><title>Node6</title>
<g id="a_node6"><a xlink:href="version__manifest_8cpp.html" target="_top" xlink:title="src/version_manifest.cpp">
<polygon fill="white" stroke="black" points="131,-6 131,-25 262,-25 262,-6 131,-6"/>
<text text-anchor="middle" x="196.5" y="-13" font-family="Ubuntu Regular" font-size="10.00">src/version_manifest.cpp</text>
</a>
</g>
</g>
<!-- Node3&#45;&gt;Node6 -->
<g id="edge5" class="edge"><title>Node3&#45;&gt;Node6</title>
<path fill="none" stroke="midnightblue" d="M149.293,-60.335C162.145,-48.401 177.507,-34.1359 187.137,-25.1945"/>
<polygon fill="midnightblue" stroke="midnightblue" points="146.635,-58.0266 141.689,-67.396 151.399,-63.1562 146.635,-58.0266"/>
</g>
<!-- Node9&#45;&gt;Node3 -->
<g id="edge9" class="edge"><title>Node9&#45;&gt;Node3</title>
<path fill="none" stroke="midnightblue" d="M321.453,-132.052C278.784,-121.425 223.839,-107.741 183.161,-97.6109"/>
<polygon fill="midnightblue" stroke="midnightblue" points="320.639,-135.456 331.188,-134.476 322.33,-128.663 320.639,-135.456"/>
</g>
<!-- Node10 -->
<g id="node10" class="node"><title>Node10</title>
<g id="a_node10"><a xlink:href="delete_8cpp.html" target="_top" xlink:title="src/operations/delete.cpp">
<polygon fill="white" stroke="black" points="501.5,-73 501.5,-92 639.5,-92 639.5,-73 501.5,-73"/>
<text text-anchor="middle" x="570.5" y="-80" font-family="Ubuntu Regular" font-size="10.00">src/operations/delete.cpp</text>
</a>
</g>
</g>
<!-- Node9&#45;&gt;Node10 -->
<g id="edge10" class="edge"><title>Node9&#45;&gt;Node10</title>
<path fill="none" stroke="midnightblue" d="M436.922,-130.946C472.465,-118.321 518.837,-101.85 546.55,-92.007"/>
<polygon fill="midnightblue" stroke="midnightblue" points="435.46,-127.751 427.208,-134.396 437.803,-134.347 435.46,-127.751"/>
</g>
<!-- Node11&#45;&gt;Node3 -->
<g id="edge12" class="edge"><title>Node11&#45;&gt;Node3</title>
<path fill="none" stroke="midnightblue" d="M466.999,-133.972C346.638,-115.487 314.329,-117.392 198.5,-98 195.608,-97.5157 192.654,-97.0014 189.673,-96.4664"/>
<polygon fill="midnightblue" stroke="midnightblue" points="466.557,-137.445 476.975,-135.52 467.63,-130.528 466.557,-137.445"/>
</g>
<!-- Node12 -->
<g id="node12" class="node"><title>Node12</title>
<g id="a_node12"><a xlink:href="update_8cpp.html" target="_top" xlink:title="src/operations/update.cpp">
<polygon fill="white" stroke="black" points="657.5,-73 657.5,-92 797.5,-92 797.5,-73 657.5,-73"/>
<text text-anchor="middle" x="727.5" y="-80" font-family="Ubuntu Regular" font-size="10.00">src/operations/update.cpp</text>
</a>
</g>
</g>
<!-- Node11&#45;&gt;Node12 -->
<g id="edge13" class="edge"><title>Node11&#45;&gt;Node12</title>
<path fill="none" stroke="midnightblue" d="M596.841,-130.946C631.607,-118.321 676.966,-101.85 704.073,-92.007"/>
<polygon fill="midnightblue" stroke="midnightblue" points="595.545,-127.693 587.34,-134.396 597.934,-134.273 595.545,-127.693"/>
</g>
<!-- Node13&#45;&gt;Node3 -->
<g id="edge18" class="edge"><title>Node13&#45;&gt;Node3</title>
<path fill="none" stroke="midnightblue" d="M628.804,-134.043C628.703,-134.028 628.601,-134.014 628.5,-134 438.557,-107.521 388.373,-124.976 198.5,-98 195.596,-97.5875 192.633,-97.132 189.645,-96.6447"/>
<polygon fill="midnightblue" stroke="midnightblue" points="627.987,-137.459 638.397,-135.492 629.032,-130.537 627.987,-137.459"/>
</g>
<!-- Node13&#45;&gt;Node7 -->
<g id="edge19" class="edge"><title>Node13&#45;&gt;Node7</title>
<path fill="none" stroke="midnightblue" d="M632.439,-132.178C586.583,-121.494 527.29,-107.68 483.587,-97.4989"/>
<polygon fill="midnightblue" stroke="midnightblue" points="631.771,-135.616 642.305,-134.476 633.36,-128.798 631.771,-135.616"/>
</g>
<!-- Node13&#45;&gt;Node8 -->
<g id="edge20" class="edge"><title>Node13&#45;&gt;Node8</title>
<path fill="none" stroke="midnightblue" d="M628.803,-134.05C628.702,-134.033 628.601,-134.017 628.5,-134 507.285,-114.181 475.81,-117.231 354.5,-98 343.345,-96.2316 331.333,-94.1084 320.158,-92.0391"/>
<polygon fill="midnightblue" stroke="midnightblue" points="627.924,-137.45 638.369,-135.678 629.098,-130.549 627.924,-137.45"/>
</g>
<!-- Node13&#45;&gt;Node10 -->
<g id="edge21" class="edge"><title>Node13&#45;&gt;Node10</title>
<path fill="none" stroke="midnightblue" d="M664.864,-129.967C639.508,-117.481 607.253,-101.598 587.776,-92.007"/>
<polygon fill="midnightblue" stroke="midnightblue" points="663.34,-133.118 673.858,-134.396 666.433,-126.838 663.34,-133.118"/>
</g>
<!-- Node13&#45;&gt;Node12 -->
<g id="edge22" class="edge"><title>Node13&#45;&gt;Node12</title>
<path fill="none" stroke="midnightblue" d="M711.561,-124.942C715.946,-113.54 720.944,-100.545 724.156,-92.1945"/>
<polygon fill="midnightblue" stroke="midnightblue" points="708.248,-123.806 707.925,-134.396 714.781,-126.319 708.248,-123.806"/>
</g>
<!-- Node14 -->
<g id="node14" class="node"><title>Node14</title>
<g id="a_node14"><a xlink:href="patcher_8hpp.html" target="_top" xlink:title="include/karazeh/patcher.hpp">
<polygon fill="white" stroke="black" points="966,-73 966,-92 1115,-92 1115,-73 966,-73"/>
<text text-anchor="middle" x="1040.5" y="-80" font-family="Ubuntu Regular" font-size="10.00">include/karazeh/patcher.hpp</text>
</a>
</g>
</g>
<!-- Node13&#45;&gt;Node14 -->
<g id="edge15" class="edge"><title>Node13&#45;&gt;Node14</title>
<path fill="none" stroke="midnightblue" d="M776.97,-134.179C844.115,-121.266 940.609,-102.71 996.289,-92.002"/>
<polygon fill="midnightblue" stroke="midnightblue" points="776.03,-130.795 766.871,-136.121 777.352,-137.669 776.03,-130.795"/>
</g>
<!-- Node16 -->
<g id="node16" class="node"><title>Node16</title>
<g id="a_node16"><a xlink:href="release__manifest_8cpp.html" target="_top" xlink:title="src/release_manifest.cpp">
<polygon fill="white" stroke="black" points="815.5,-73 815.5,-92 947.5,-92 947.5,-73 815.5,-73"/>
<text text-anchor="middle" x="881.5" y="-80" font-family="Ubuntu Regular" font-size="10.00">src/release_manifest.cpp</text>
</a>
</g>
</g>
<!-- Node13&#45;&gt;Node16 -->
<g id="edge23" class="edge"><title>Node13&#45;&gt;Node16</title>
<path fill="none" stroke="midnightblue" d="M750.841,-130.946C785.607,-118.321 830.966,-101.85 858.073,-92.007"/>
<polygon fill="midnightblue" stroke="midnightblue" points="749.545,-127.693 741.34,-134.396 751.934,-134.273 749.545,-127.693"/>
</g>
<!-- Node14&#45;&gt;Node4 -->
<g id="edge16" class="edge"><title>Node14&#45;&gt;Node4</title>
<path fill="none" stroke="midnightblue" d="M982.131,-71.2871C973.54,-69.8238 964.793,-68.356 956.5,-67 862.11,-51.5659 752.177,-34.8463 686.847,-25.0421"/>
<polygon fill="midnightblue" stroke="midnightblue" points="981.661,-74.7575 992.108,-72.9959 982.842,-67.858 981.661,-74.7575"/>
</g>
<!-- Node15 -->
<g id="node15" class="node"><title>Node15</title>
<g id="a_node15"><a xlink:href="patcher_8cpp.html" target="_top" xlink:title="src/patcher.cpp">
<polygon fill="white" stroke="black" points="996,-6 996,-25 1085,-25 1085,-6 996,-6"/>
<text text-anchor="middle" x="1040.5" y="-13" font-family="Ubuntu Regular" font-size="10.00">src/patcher.cpp</text>
</a>
</g>
</g>
<!-- Node14&#45;&gt;Node15 -->
<g id="edge17" class="edge"><title>Node14&#45;&gt;Node15</title>
<path fill="none" stroke="midnightblue" d="M1040.5,-62.537C1040.5,-50.1703 1040.5,-34.6198 1040.5,-25.1273"/>
<polygon fill="midnightblue" stroke="midnightblue" points="1037,-62.7338 1040.5,-72.7338 1044,-62.7338 1037,-62.7338"/>
</g>
</g>
</svg>
        <g id="navigator" transform="translate(0 0)" fill="#404254">
                <rect fill="#f2f5e9" fill-opacity="0.5" stroke="#606060" stroke-width=".5" x="0" y="0" width="60" height="60"/>
                <use id="zoomplus" xlink:href="#zoomPlus" x="17" y="9" onmousedown="handleZoom(evt,'in')"/>
                <use id="zoomminus" xlink:href="#zoomMin" x="42" y="9" onmousedown="handleZoom(evt,'out')"/>
                <use id="reset" xlink:href="#resetDef" x="30" y="36" onmousedown="handleReset()"/>
                <g id="arrowUp" xlink:href="#dirArrow" transform="translate(30 24)" onmousedown="handlePan(0,-1)">
                  <use xlink:href="#rim" fill="#404040">
                        <set attributeName="fill" to="#808080" begin="arrowUp.mouseover" end="arrowUp.mouseout"/>
                  </use>
                  <path fill="none" stroke="white" stroke-width="1.5" d="M0,-3.0v7 M-2.5,-0.5L0,-3.0L2.5,-0.5"/>
                </g>
                <g id="arrowRight" xlink:href="#dirArrow" transform="rotate(90) translate(36 -43)" onmousedown="handlePan(1,0)">
                  <use xlink:href="#rim" fill="#404040">
                        <set attributeName="fill" to="#808080" begin="arrowRight.mouseover" end="arrowRight.mouseout"/>
                  </use>
                  <path fill="none" stroke="white" stroke-width="1.5" d="M0,-3.0v7 M-2.5,-0.5L0,-3.0L2.5,-0.5"/>
                </g>
                <g id="arrowDown" xlink:href="#dirArrow" transform="rotate(180) translate(-30 -48)" onmousedown="handlePan(0,1)">
                  <use xlink:href="#rim" fill="#404040">
                        <set attributeName="fill" to="#808080" begin="arrowDown.mouseover" end="arrowDown.mouseout"/>
                  </use>
                  <path fill="none" stroke="white" stroke-width="1.5" d="M0,-3.0v7 M-2.5,-0.5L0,-3.0L2.5,-0.5"/>
                </g>
                <g id="arrowLeft" xlink:href="#dirArrow" transform="rotate(270) translate(-36 17)" onmousedown="handlePan(-1,0)">
                  <use xlink:href="#rim" fill="#404040">
                        <set attributeName="fill" to="#808080" begin="arrowLeft.mouseover" end="arrowLeft.mouseout"/>
                  </use>
                  <path fill="none" stroke="white" stroke-width="1.5" d="M0,-3.0v7 M-2.5,-0.5L0,-3.0L2.5,-0.5"/>
                </g>
        </g>
        <svg viewBox="0 0 15 15" width="100%" height="30px" preserveAspectRatio="xMaxYMin meet">
         <g id="arrow_out" transform="scale(0.3 0.3)">
          <a xlink:href="operation_8hpp__dep__incl_org.svg" target="_base">
           <rect id="button" ry="5" rx="5" y="6" x="6" height="38" width="38"
                fill="#f2f5e9" fill-opacity="0.5" stroke="#606060" stroke-width="1.0"/>
           <path id="arrow"
             d="M 11.500037,31.436501 C 11.940474,20.09759 22.043105,11.32322 32.158766,21.979434 L 37.068811,17.246167 C 37.068811,17.246167 37.088388,32 37.088388,32 L 22.160133,31.978069 C 22.160133,31.978069 26.997745,27.140456 26.997745,27.140456 C 18.528582,18.264221 13.291696,25.230495 11.500037,31.436501 z"
             style="fill:#404040;"/>
          </a>
         </g>
        </svg>
</svg>
