<?xml version="1.0" encoding="UTF-8" standalone="no"?>
<!DOCTYPE svg PUBLIC "-//W3C//DTD SVG 1.1//EN"
 "http://www.w3.org/Graphics/SVG/1.1/DTD/svg11.dtd">
<!-- Generated by graphviz version 2.38.0 (20140413.2041)
 -->
<!-- Title: include/karazeh/operation.hpp Pages: 1 -->
<svg width="1008pt" height="364pt"
 viewBox="0.00 0.00 1007.50 364.00" xmlns="http://www.w3.org/2000/svg" xmlns:xlink="http://www.w3.org/1999/xlink">
<g id="graph0" class="graph" transform="scale(1 1) rotate(0) translate(4 360)">
<title>include/karazeh/operation.hpp</title>
<polygon fill="white" stroke="none" points="-4,4 -4,-360 1003.5,-360 1003.5,4 -4,4"/>
<!-- Node1 -->
<g id="node1" class="node"><title>Node1</title>
<polygon fill="#bfbfbf" stroke="black" points="431.5,-336.5 431.5,-355.5 589.5,-355.5 589.5,-336.5 431.5,-336.5"/>
<text text-anchor="middle" x="510.5" y="-343.5" font-family="Ubuntu Regular" font-size="10.00">include/karazeh/operation.hpp</text>
</g>
<!-- Node2 -->
<g id="node2" class="node"><title>Node2</title>
<polygon fill="white" stroke="#bfbfbf" points="581,-0.5 581,-19.5 678,-19.5 678,-0.5 581,-0.5"/>
<text text-anchor="middle" x="629.5" y="-7.5" font-family="Ubuntu Regular" font-size="10.00">karazeh_export.h</text>
</g>
<!-- Node1&#45;&gt;Node2 -->
<g id="edge1" class="edge"><title>Node1&#45;&gt;Node2</title>
<path fill="none" stroke="midnightblue" d="M589.61,-343.379C728.007,-338.379 999.5,-317.993 999.5,-235 999.5,-235 999.5,-235 999.5,-121 999.5,-56.8745 792.723,-27.151 688.328,-16.2309"/>
<polygon fill="midnightblue" stroke="midnightblue" points="688.555,-12.7359 678.252,-15.2019 687.844,-19.6997 688.555,-12.7359"/>
</g>
<!-- Node3 -->
<g id="node3" class="node"><title>Node3</title>
<g id="a_node3"><a xlink:href="karazeh_8hpp.html" target="_top" xlink:title="karazeh/karazeh.hpp">
<polygon fill="white" stroke="black" points="217,-112.5 217,-131.5 330,-131.5 330,-112.5 217,-112.5"/>
<text text-anchor="middle" x="273.5" y="-119.5" font-family="Ubuntu Regular" font-size="10.00">karazeh/karazeh.hpp</text>
</a>
</g>
</g>
<!-- Node1&#45;&gt;Node3 -->
<g id="edge2" class="edge"><title>Node1&#45;&gt;Node3</title>
<path fill="none" stroke="midnightblue" d="M431.445,-342.775C360.631,-336.049 260.602,-313.796 211.5,-244 186.745,-208.811 228.672,-162.391 254.875,-138.571"/>
<polygon fill="midnightblue" stroke="midnightblue" points="257.523,-140.904 262.726,-131.675 252.903,-135.645 257.523,-140.904"/>
</g>
<!-- Node10 -->
<g id="node10" class="node"><title>Node10</title>
<g id="a_node10"><a xlink:href="config_8hpp.html" target="_top" xlink:title="karazeh/config.hpp">
<polygon fill="white" stroke="black" points="221,-224.5 221,-243.5 326,-243.5 326,-224.5 221,-224.5"/>
<text text-anchor="middle" x="273.5" y="-231.5" font-family="Ubuntu Regular" font-size="10.00">karazeh/config.hpp</text>
</a>
</g>
</g>
<!-- Node1&#45;&gt;Node10 -->
<g id="edge11" class="edge"><title>Node1&#45;&gt;Node10</title>
<path fill="none" stroke="midnightblue" d="M491.903,-336.368C450.455,-317.131 350.305,-270.648 301.361,-247.931"/>
<polygon fill="midnightblue" stroke="midnightblue" points="302.555,-244.627 292.011,-243.591 299.608,-250.976 302.555,-244.627"/>
</g>
<!-- Node11 -->
<g id="node11" class="node"><title>Node11</title>
<g id="a_node11"><a xlink:href="downloader_8hpp.html" target="_top" xlink:title="karazeh/downloader.hpp">
<polygon fill="white" stroke="black" points="445.5,-280.5 445.5,-299.5 575.5,-299.5 575.5,-280.5 445.5,-280.5"/>
<text text-anchor="middle" x="510.5" y="-287.5" font-family="Ubuntu Regular" font-size="10.00">karazeh/downloader.hpp</text>
</a>
</g>
</g>
<!-- Node1&#45;&gt;Node11 -->
<g id="edge14" class="edge"><title>Node1&#45;&gt;Node11</title>
<path fill="none" stroke="midnightblue" d="M510.5,-336.083C510.5,-329.006 510.5,-318.861 510.5,-309.986"/>
<polygon fill="midnightblue" stroke="midnightblue" points="514,-309.751 510.5,-299.751 507,-309.751 514,-309.751"/>
</g>
<!-- Node19 -->
<g id="node19" class="node"><title>Node19</title>
<g id="a_node19"><a xlink:href="file__manager_8hpp.html" target="_top" xlink:title="karazeh/file_manager.hpp">
<polygon fill="white" stroke="black" points="577,-224.5 577,-243.5 712,-243.5 712,-224.5 577,-224.5"/>
<text text-anchor="middle" x="644.5" y="-231.5" font-family="Ubuntu Regular" font-size="10.00">karazeh/file_manager.hpp</text>
</a>
</g>
</g>
<!-- Node1&#45;&gt;Node19 -->
<g id="edge38" class="edge"><title>Node1&#45;&gt;Node19</title>
<path fill="none" stroke="midnightblue" d="M527.545,-336.406C543.141,-328.144 566.464,-314.761 584.5,-300 602.412,-285.34 620.03,-265.412 631.492,-251.5"/>
<polygon fill="midnightblue" stroke="midnightblue" points="634.218,-253.694 637.78,-243.716 628.773,-249.295 634.218,-253.694"/>
</g>
<!-- Node4 -->
<g id="node4" class="node"><title>Node4</title>
<polygon fill="white" stroke="#bfbfbf" points="0,-0.5 0,-19.5 43,-19.5 43,-0.5 0,-0.5"/>
<text text-anchor="middle" x="21.5" y="-7.5" font-family="Ubuntu Regular" font-size="10.00">string</text>
</g>
<!-- Node3&#45;&gt;Node4 -->
<g id="edge3" class="edge"><title>Node3&#45;&gt;Node4</title>
<path fill="none" stroke="midnightblue" d="M216.876,-117.399C154.823,-112.264 60.7157,-100.586 35.5,-76 23.3698,-64.1726 20.5467,-44.5426 20.346,-29.9439"/>
<polygon fill="midnightblue" stroke="midnightblue" points="23.8549,-29.6486 20.6196,-19.5599 16.8574,-29.4642 23.8549,-29.6486"/>
</g>
<!-- Node5 -->
<g id="node5" class="node"><title>Node5</title>
<polygon fill="white" stroke="#bfbfbf" points="240.5,-56.5 240.5,-75.5 290.5,-75.5 290.5,-56.5 240.5,-56.5"/>
<text text-anchor="middle" x="265.5" y="-63.5" font-family="Ubuntu Regular" font-size="10.00">cassert</text>
</g>
<!-- Node3&#45;&gt;Node5 -->
<g id="edge4" class="edge"><title>Node3&#45;&gt;Node5</title>
<path fill="none" stroke="midnightblue" d="M272.179,-112.083C271.119,-104.927 269.594,-94.6353 268.269,-85.6911"/>
<polygon fill="midnightblue" stroke="midnightblue" points="271.724,-85.1302 266.796,-75.7511 264.8,-86.1561 271.724,-85.1302"/>
</g>
<!-- Node6 -->
<g id="node6" class="node"><title>Node6</title>
<polygon fill="white" stroke="#bfbfbf" points="308.5,-56.5 308.5,-75.5 424.5,-75.5 424.5,-56.5 308.5,-56.5"/>
<text text-anchor="middle" x="366.5" y="-63.5" font-family="Ubuntu Regular" font-size="10.00">boost/filesystem.hpp</text>
</g>
<!-- Node3&#45;&gt;Node6 -->
<g id="edge5" class="edge"><title>Node3&#45;&gt;Node6</title>
<path fill="none" stroke="midnightblue" d="M288.442,-112.324C303.085,-103.822 325.634,-90.7288 342.738,-80.7975"/>
<polygon fill="midnightblue" stroke="midnightblue" points="344.705,-83.7027 351.595,-75.6545 341.19,-77.6491 344.705,-83.7027"/>
</g>
<!-- Node7 -->
<g id="node7" class="node"><title>Node7</title>
<g id="a_node7"><a xlink:href="exception_8hpp.html" target="_top" xlink:title="karazeh/exception.hpp">
<polygon fill="white" stroke="black" points="45,-56.5 45,-75.5 168,-75.5 168,-56.5 45,-56.5"/>
<text text-anchor="middle" x="106.5" y="-63.5" font-family="Ubuntu Regular" font-size="10.00">karazeh/exception.hpp</text>
</a>
</g>
</g>
<!-- Node3&#45;&gt;Node7 -->
<g id="edge6" class="edge"><title>Node3&#45;&gt;Node7</title>
<path fill="none" stroke="midnightblue" d="M247.038,-112.444C218.822,-103.32 173.96,-88.8133 142.532,-78.6509"/>
<polygon fill="midnightblue" stroke="midnightblue" points="143.43,-75.263 132.838,-75.5164 141.276,-81.9234 143.43,-75.263"/>
</g>
<!-- Node7&#45;&gt;Node2 -->
<g id="edge10" class="edge"><title>Node7&#45;&gt;Node2</title>
<path fill="none" stroke="midnightblue" d="M168.291,-57.5908C173.098,-57.0425 177.877,-56.5064 182.5,-56 321.636,-40.7593 485.359,-24.7732 570.826,-16.5759"/>
<polygon fill="midnightblue" stroke="midnightblue" points="571.234,-20.053 580.854,-15.6154 570.566,-13.0849 571.234,-20.053"/>
</g>
<!-- Node7&#45;&gt;Node4 -->
<g id="edge8" class="edge"><title>Node7&#45;&gt;Node4</title>
<path fill="none" stroke="midnightblue" d="M92.8433,-56.324C79.5837,-47.9002 59.232,-34.9709 43.6538,-25.0741"/>
<polygon fill="midnightblue" stroke="midnightblue" points="45.4404,-22.0626 35.1228,-19.6545 41.6867,-27.9711 45.4404,-22.0626"/>
</g>
<!-- Node8 -->
<g id="node8" class="node"><title>Node8</title>
<polygon fill="white" stroke="#bfbfbf" points="148,-0.5 148,-19.5 211,-19.5 211,-0.5 148,-0.5"/>
<text text-anchor="middle" x="179.5" y="-7.5" font-family="Ubuntu Regular" font-size="10.00">exception</text>
</g>
<!-- Node7&#45;&gt;Node8 -->
<g id="edge7" class="edge"><title>Node7&#45;&gt;Node8</title>
<path fill="none" stroke="midnightblue" d="M118.229,-56.324C129.337,-48.1066 146.242,-35.6017 159.483,-25.8069"/>
<polygon fill="midnightblue" stroke="midnightblue" points="161.6,-28.5948 167.558,-19.8339 157.437,-22.9671 161.6,-28.5948"/>
</g>
<!-- Node9 -->
<g id="node9" class="node"><title>Node9</title>
<polygon fill="white" stroke="#bfbfbf" points="65,-0.5 65,-19.5 130,-19.5 130,-0.5 65,-0.5"/>
<text text-anchor="middle" x="97.5" y="-7.5" font-family="Ubuntu Regular" font-size="10.00">stdexcept</text>
</g>
<!-- Node7&#45;&gt;Node9 -->
<g id="edge9" class="edge"><title>Node7&#45;&gt;Node9</title>
<path fill="none" stroke="midnightblue" d="M105.014,-56.083C103.821,-48.9272 102.106,-38.6353 100.615,-29.6911"/>
<polygon fill="midnightblue" stroke="midnightblue" points="104.055,-29.0396 98.9585,-19.7511 97.1502,-30.1904 104.055,-29.0396"/>
</g>
<!-- Node10&#45;&gt;Node2 -->
<g id="edge12" class="edge"><title>Node10&#45;&gt;Node2</title>
<path fill="none" stroke="midnightblue" d="M265.339,-224.446C250.364,-208.085 218.977,-170.545 207.5,-132 197.391,-98.0511 203.072,-77.1324 231.5,-56 283.797,-17.1239 472.843,-11.0516 570.376,-10.5882"/>
<polygon fill="midnightblue" stroke="midnightblue" points="570.672,-14.0875 580.662,-10.5586 570.652,-7.08749 570.672,-14.0875"/>
</g>
<!-- Node10&#45;&gt;Node3 -->
<g id="edge13" class="edge"><title>Node10&#45;&gt;Node3</title>
<path fill="none" stroke="midnightblue" d="M273.5,-224.368C273.5,-206.617 273.5,-165.666 273.5,-141.597"/>
<polygon fill="midnightblue" stroke="midnightblue" points="277,-141.591 273.5,-131.591 270,-141.591 277,-141.591"/>
</g>
<!-- Node11&#45;&gt;Node2 -->
<g id="edge18" class="edge"><title>Node11&#45;&gt;Node2</title>
<path fill="none" stroke="midnightblue" d="M575.598,-286.6C700.493,-280.213 961.5,-257.478 961.5,-179 961.5,-179 961.5,-179 961.5,-121 961.5,-64.0988 783.552,-31.555 688.211,-18.2023"/>
<polygon fill="midnightblue" stroke="midnightblue" points="688.514,-14.7111 678.131,-16.8189 687.562,-21.6461 688.514,-14.7111"/>
</g>
<!-- Node11&#45;&gt;Node3 -->
<g id="edge19" class="edge"><title>Node11&#45;&gt;Node3</title>
<path fill="none" stroke="midnightblue" d="M467.78,-280.498C440.582,-273.679 405.517,-262.18 378.5,-244 336.369,-215.65 300.925,-166.192 284.06,-140.154"/>
<polygon fill="midnightblue" stroke="midnightblue" points="287.016,-138.28 278.709,-131.703 281.102,-142.024 287.016,-138.28"/>
</g>
<!-- Node11&#45;&gt;Node6 -->
<g id="edge16" class="edge"><title>Node11&#45;&gt;Node6</title>
<path fill="none" stroke="midnightblue" d="M488.999,-280.485C457.069,-266.549 398.134,-235.568 372.5,-188 354.935,-155.406 358.69,-110.422 362.75,-85.5003"/>
<polygon fill="midnightblue" stroke="midnightblue" points="366.208,-86.0443 364.561,-75.5784 359.322,-84.7874 366.208,-86.0443"/>
</g>
<!-- Node11&#45;&gt;Node10 -->
<g id="edge37" class="edge"><title>Node11&#45;&gt;Node10</title>
<path fill="none" stroke="midnightblue" d="M472.947,-280.444C431.689,-271.043 365.356,-255.929 320.634,-245.739"/>
<polygon fill="midnightblue" stroke="midnightblue" points="321.405,-242.326 310.878,-243.516 319.85,-249.151 321.405,-242.326"/>
</g>
<!-- Node12 -->
<g id="node12" class="node"><title>Node12</title>
<polygon fill="white" stroke="#bfbfbf" points="382,-168.5 382,-187.5 445,-187.5 445,-168.5 382,-168.5"/>
<text text-anchor="middle" x="413.5" y="-175.5" font-family="Ubuntu Regular" font-size="10.00">curl/curl.h</text>
</g>
<!-- Node11&#45;&gt;Node12 -->
<g id="edge15" class="edge"><title>Node11&#45;&gt;Node12</title>
<path fill="none" stroke="midnightblue" d="M502.889,-280.368C486.739,-262.055 448.816,-219.049 427.929,-195.362"/>
<polygon fill="midnightblue" stroke="midnightblue" points="430.315,-192.777 421.076,-187.591 425.065,-197.407 430.315,-192.777"/>
</g>
<!-- Node13 -->
<g id="node13" class="node"><title>Node13</title>
<polygon fill="white" stroke="#bfbfbf" points="463.5,-168.5 463.5,-187.5 567.5,-187.5 567.5,-168.5 463.5,-168.5"/>
<text text-anchor="middle" x="515.5" y="-175.5" font-family="Ubuntu Regular" font-size="10.00">binreloc/binreloc.h</text>
</g>
<!-- Node11&#45;&gt;Node13 -->
<g id="edge17" class="edge"><title>Node11&#45;&gt;Node13</title>
<path fill="none" stroke="midnightblue" d="M510.892,-280.368C511.699,-262.617 513.561,-221.666 514.655,-197.597"/>
<polygon fill="midnightblue" stroke="midnightblue" points="518.152,-197.74 515.109,-187.591 511.159,-197.422 518.152,-197.74"/>
</g>
<!-- Node14 -->
<g id="node14" class="node"><title>Node14</title>
<g id="a_node14"><a xlink:href="logger_8hpp.html" target="_top" xlink:title="karazeh/logger.hpp">
<polygon fill="white" stroke="black" points="750,-168.5 750,-187.5 857,-187.5 857,-168.5 750,-168.5"/>
<text text-anchor="middle" x="803.5" y="-175.5" font-family="Ubuntu Regular" font-size="10.00">karazeh/logger.hpp</text>
</a>
</g>
</g>
<!-- Node11&#45;&gt;Node14 -->
<g id="edge20" class="edge"><title>Node11&#45;&gt;Node14</title>
<path fill="none" stroke="midnightblue" d="M575.867,-282.71C618.59,-276.768 674.741,-265.416 720.5,-244 746.756,-231.712 772.295,-209.747 787.953,-194.784"/>
<polygon fill="midnightblue" stroke="midnightblue" points="790.503,-197.186 795.193,-187.685 785.602,-192.188 790.503,-197.186"/>
</g>
<!-- Node18 -->
<g id="node18" class="node"><title>Node18</title>
<g id="a_node18"><a xlink:href="hasher_8hpp.html" target="_top" xlink:title="karazeh/hasher.hpp">
<polygon fill="white" stroke="black" points="586,-168.5 586,-187.5 693,-187.5 693,-168.5 586,-168.5"/>
<text text-anchor="middle" x="639.5" y="-175.5" font-family="Ubuntu Regular" font-size="10.00">karazeh/hasher.hpp</text>
</a>
</g>
</g>
<!-- Node11&#45;&gt;Node18 -->
<g id="edge26" class="edge"><title>Node11&#45;&gt;Node18</title>
<path fill="none" stroke="midnightblue" d="M516.819,-280.282C526.66,-267.084 546.691,-241.697 567.5,-224 581.778,-211.858 599.634,-200.676 613.992,-192.496"/>
<polygon fill="midnightblue" stroke="midnightblue" points="615.808,-195.491 622.849,-187.575 612.408,-189.373 615.808,-195.491"/>
</g>
<!-- Node11&#45;&gt;Node19 -->
<g id="edge29" class="edge"><title>Node11&#45;&gt;Node19</title>
<path fill="none" stroke="midnightblue" d="M531.733,-280.444C553.884,-271.517 588.819,-257.439 613.936,-247.317"/>
<polygon fill="midnightblue" stroke="midnightblue" points="615.4,-250.501 623.367,-243.516 612.783,-244.008 615.4,-250.501"/>
</g>
<!-- Node14&#45;&gt;Node2 -->
<g id="edge24" class="edge"><title>Node14&#45;&gt;Node2</title>
<path fill="none" stroke="midnightblue" d="M753.324,-168.434C713.556,-160.596 662.435,-147.825 648.5,-132 623.404,-103.502 624.075,-55.8853 626.776,-29.6892"/>
<polygon fill="midnightblue" stroke="midnightblue" points="630.27,-29.9538 628.032,-19.5982 623.324,-29.0894 630.27,-29.9538"/>
</g>
<!-- Node14&#45;&gt;Node3 -->
<g id="edge25" class="edge"><title>Node14&#45;&gt;Node3</title>
<path fill="none" stroke="midnightblue" d="M749.699,-169.705C744.9,-169.107 740.114,-168.53 735.5,-168 595.002,-151.865 430.03,-136.705 340.158,-128.766"/>
<polygon fill="midnightblue" stroke="midnightblue" points="340.376,-125.271 330.107,-127.88 339.762,-132.244 340.376,-125.271"/>
</g>
<!-- Node15 -->
<g id="node15" class="node"><title>Node15</title>
<polygon fill="white" stroke="#bfbfbf" points="658,-112.5 658,-131.5 711,-131.5 711,-112.5 658,-112.5"/>
<text text-anchor="middle" x="684.5" y="-119.5" font-family="Ubuntu Regular" font-size="10.00">sstream</text>
</g>
<!-- Node14&#45;&gt;Node15 -->
<g id="edge21" class="edge"><title>Node14&#45;&gt;Node15</title>
<path fill="none" stroke="midnightblue" d="M784.644,-168.444C765.234,-159.636 734.77,-145.812 712.535,-135.722"/>
<polygon fill="midnightblue" stroke="midnightblue" points="713.82,-132.462 703.268,-131.516 710.928,-138.836 713.82,-132.462"/>
</g>
<!-- Node16 -->
<g id="node16" class="node"><title>Node16</title>
<polygon fill="white" stroke="#bfbfbf" points="729,-112.5 729,-131.5 782,-131.5 782,-112.5 729,-112.5"/>
<text text-anchor="middle" x="755.5" y="-119.5" font-family="Ubuntu Regular" font-size="10.00">fstream</text>
</g>
<!-- Node14&#45;&gt;Node16 -->
<g id="edge22" class="edge"><title>Node14&#45;&gt;Node16</title>
<path fill="none" stroke="midnightblue" d="M795.574,-168.083C788.654,-160.298 778.435,-148.801 770.048,-139.367"/>
<polygon fill="midnightblue" stroke="midnightblue" points="772.538,-136.9 763.279,-131.751 767.306,-141.55 772.538,-136.9"/>
</g>
<!-- Node17 -->
<g id="node17" class="node"><title>Node17</title>
<polygon fill="white" stroke="#bfbfbf" points="800,-112.5 800,-131.5 857,-131.5 857,-112.5 800,-112.5"/>
<text text-anchor="middle" x="828.5" y="-119.5" font-family="Ubuntu Regular" font-size="10.00">iostream</text>
</g>
<!-- Node14&#45;&gt;Node17 -->
<g id="edge23" class="edge"><title>Node14&#45;&gt;Node17</title>
<path fill="none" stroke="midnightblue" d="M807.628,-168.083C811.014,-160.77 815.916,-150.181 820.119,-141.103"/>
<polygon fill="midnightblue" stroke="midnightblue" points="823.423,-142.296 824.449,-131.751 817.071,-139.355 823.423,-142.296"/>
</g>
<!-- Node18&#45;&gt;Node2 -->
<g id="edge27" class="edge"><title>Node18&#45;&gt;Node2</title>
<path fill="none" stroke="midnightblue" d="M633.133,-168.232C627.24,-159.532 618.893,-145.572 615.5,-132 607.308,-99.2307 610.425,-89.3944 615.5,-56 616.868,-47.001 619.69,-37.3251 622.445,-29.2601"/>
<polygon fill="midnightblue" stroke="midnightblue" points="625.765,-30.3722 625.9,-19.7782 619.188,-27.9759 625.765,-30.3722"/>
</g>
<!-- Node18&#45;&gt;Node3 -->
<g id="edge28" class="edge"><title>Node18&#45;&gt;Node3</title>
<path fill="none" stroke="midnightblue" d="M585.888,-169.09C520.787,-159.485 410.959,-143.281 340.385,-132.868"/>
<polygon fill="midnightblue" stroke="midnightblue" points="340.671,-129.373 330.267,-131.375 339.649,-136.298 340.671,-129.373"/>
</g>
<!-- Node19&#45;&gt;Node2 -->
<g id="edge33" class="edge"><title>Node19&#45;&gt;Node2</title>
<path fill="none" stroke="midnightblue" d="M712.15,-229.832C775.857,-225.262 864.681,-214.25 886.5,-188 908.091,-162.024 905.521,-139.913 886.5,-112 842.286,-47.1188 749.46,-23.9158 688.316,-15.6183"/>
<polygon fill="midnightblue" stroke="midnightblue" points="688.397,-12.1009 678.038,-14.3227 687.521,-19.046 688.397,-12.1009"/>
</g>
<!-- Node19&#45;&gt;Node3 -->
<g id="edge34" class="edge"><title>Node19&#45;&gt;Node3</title>
<path fill="none" stroke="midnightblue" d="M661.747,-224.315C684.446,-211.79 719.477,-187.966 701.5,-168 677.812,-141.691 454.604,-129.672 340.289,-125.205"/>
<polygon fill="midnightblue" stroke="midnightblue" points="340.371,-121.706 330.245,-124.821 340.104,-128.7 340.371,-121.706"/>
</g>
<!-- Node19&#45;&gt;Node6 -->
<g id="edge31" class="edge"><title>Node19&#45;&gt;Node6</title>
<path fill="none" stroke="midnightblue" d="M712.172,-228.505C770.143,-223.077 847.239,-211.556 866.5,-188 887.881,-161.85 889.289,-136.932 866.5,-112 837.946,-80.7605 564.873,-71.0204 434.776,-68.139"/>
<polygon fill="midnightblue" stroke="midnightblue" points="434.601,-64.6345 424.529,-67.9197 434.452,-71.6329 434.601,-64.6345"/>
</g>
<!-- Node19&#45;&gt;Node12 -->
<g id="edge30" class="edge"><title>Node19&#45;&gt;Node12</title>
<path fill="none" stroke="midnightblue" d="M607.897,-224.444C566.322,-214.725 498.622,-198.899 455.085,-188.721"/>
<polygon fill="midnightblue" stroke="midnightblue" points="455.64,-185.257 445.106,-186.388 454.047,-192.073 455.64,-185.257"/>
</g>
<!-- Node19&#45;&gt;Node13 -->
<g id="edge32" class="edge"><title>Node19&#45;&gt;Node13</title>
<path fill="none" stroke="midnightblue" d="M624.06,-224.444C602.83,-215.557 569.401,-201.563 545.245,-191.451"/>
<polygon fill="midnightblue" stroke="midnightblue" points="546.421,-188.149 535.845,-187.516 543.718,-194.606 546.421,-188.149"/>
</g>
<!-- Node19&#45;&gt;Node14 -->
<g id="edge35" class="edge"><title>Node19&#45;&gt;Node14</title>
<path fill="none" stroke="midnightblue" d="M669.694,-224.444C696.443,-215.359 738.903,-200.939 768.805,-190.783"/>
<polygon fill="midnightblue" stroke="midnightblue" points="770.081,-194.046 778.424,-187.516 767.829,-187.418 770.081,-194.046"/>
</g>
<!-- Node19&#45;&gt;Node18 -->
<g id="edge36" class="edge"><title>Node19&#45;&gt;Node18</title>
<path fill="none" stroke="midnightblue" d="M643.674,-224.083C643.019,-217.006 642.08,-206.861 641.258,-197.986"/>
<polygon fill="midnightblue" stroke="midnightblue" points="644.717,-197.386 640.31,-187.751 637.747,-198.031 644.717,-197.386"/>
</g>
</g>
</svg>
