<?xml version="1.0" encoding="UTF-8" standalone="no"?>
<!DOCTYPE svg PUBLIC "-//W3C//DTD SVG 1.1//EN"
 "http://www.w3.org/Graphics/SVG/1.1/DTD/svg11.dtd">
<!-- Generated by graphviz version 2.38.0 (20140413.2041)
 -->
<!-- Title: src/patcher.cpp Pages: 1 -->
<!--zoomable 532 -->
<svg id="main" version="1.1" xmlns="http://www.w3.org/2000/svg" xmlns:xlink="http://www.w3.org/1999/xlink" xml:space="preserve" onload="init(evt)">
<style type="text/css"><![CDATA[
.edge:hover path { stroke: red; }
.edge:hover polygon { stroke: red; fill: red; }
]]></style>
<script type="text/javascript"><![CDATA[
var edges = document.getElementsByTagName('g');
if (edges && edges.length) {
  for (var i=0;i<edges.length;i++) {
    if (edges[i].id.substr(0,4)=='edge') {
      edges[i].setAttribute('class','edge');
    }
  }
}
]]></script>
        <defs>
                <circle id="rim" cx="0" cy="0" r="7"/>
                <circle id="rim2" cx="0" cy="0" r="3.5"/>
                <g id="zoomPlus">
                        <use xlink:href="#rim" fill="#404040">
                                <set attributeName="fill" to="#808080" begin="zoomplus.mouseover" end="zoomplus.mouseout"/>
                        </use>
                        <path d="M-4,0h8M0,-4v8" fill="none" stroke="white" stroke-width="1.5" pointer-events="none"/>
                </g>
                <g id="zoomMin">
                        <use xlink:href="#rim" fill="#404040">
                                <set attributeName="fill" to="#808080" begin="zoomminus.mouseover" end="zoomminus.mouseout"/>
                        </use>
                        <path d="M-4,0h8" fill="none" stroke="white" stroke-width="1.5" pointer-events="none"/>
                </g>
                <g id="dirArrow">
                        <path fill="none" stroke="white" stroke-width="1.5" d="M0,-3.0v7 M-2.5,-0.5L0,-3.0L2.5,-0.5"/>
                </g>
               <g id="resetDef">
                       <use xlink:href="#rim2" fill="#404040">
                               <set attributeName="fill" to="#808080" begin="reset.mouseover" end="reset.mouseout"/>
                       </use>
               </g>
        </defs>

<script type="text/javascript">
var viewWidth = 1121;
var viewHeight = 532;
var sectionId = 'dynsection-0';
</script>
<script xlink:href="svgpan.js"/>
<svg id="graph" class="graph">
<g id="viewport">
<title>src/patcher.cpp</title>
<polygon fill="white" stroke="none" points="-4,4 -4,-528 1116.5,-528 1116.5,4 -4,4"/>
<!-- Node1 -->
<g id="node1" class="node"><title>Node1</title>
<polygon fill="#bfbfbf" stroke="black" points="768.5,-504.5 768.5,-523.5 857.5,-523.5 857.5,-504.5 768.5,-504.5"/>
<text text-anchor="middle" x="813" y="-511.5" font-family="Ubuntu Regular" font-size="10.00">src/patcher.cpp</text>
</g>
<!-- Node2 -->
<g id="node2" class="node"><title>Node2</title>
<g id="a_node2"><a xlink:href="patcher_8hpp.html" target="_top" xlink:title="karazeh/patcher.hpp">
<polygon fill="white" stroke="black" points="459.5,-448.5 459.5,-467.5 572.5,-467.5 572.5,-448.5 459.5,-448.5"/>
<text text-anchor="middle" x="516" y="-455.5" font-family="Ubuntu Regular" font-size="10.00">karazeh/patcher.hpp</text>
</a>
</g>
</g>
<!-- Node1&#45;&gt;Node2 -->
<g id="edge1" class="edge"><title>Node1&#45;&gt;Node2</title>
<path fill="none" stroke="midnightblue" d="M768.215,-504.857C716.085,-495.379 629.899,-479.709 573.029,-469.369"/>
<polygon fill="midnightblue" stroke="midnightblue" points="573.581,-465.912 563.116,-467.567 572.329,-472.799 573.581,-465.912"/>
</g>
<!-- Node7 -->
<g id="node7" class="node"><title>Node7</title>
<polygon fill="white" stroke="#bfbfbf" points="577,-56.5 577,-75.5 693,-75.5 693,-56.5 577,-56.5"/>
<text text-anchor="middle" x="635" y="-63.5" font-family="Ubuntu Regular" font-size="10.00">boost/filesystem.hpp</text>
</g>
<!-- Node1&#45;&gt;Node7 -->
<g id="edge51" class="edge"><title>Node1&#45;&gt;Node7</title>
<path fill="none" stroke="midnightblue" d="M857.658,-510.39C922.486,-503.918 1035,-481.392 1035,-403 1035,-403 1035,-403 1035,-177 1035,-109.01 817.433,-81.4755 703.214,-71.7048"/>
<polygon fill="midnightblue" stroke="midnightblue" points="703.419,-68.2099 693.163,-70.8681 702.839,-75.1858 703.419,-68.2099"/>
</g>
<!-- Node3 -->
<g id="node3" class="node"><title>Node3</title>
<polygon fill="white" stroke="#bfbfbf" points="321.5,-0.5 321.5,-19.5 418.5,-19.5 418.5,-0.5 321.5,-0.5"/>
<text text-anchor="middle" x="370" y="-7.5" font-family="Ubuntu Regular" font-size="10.00">karazeh_export.h</text>
</g>
<!-- Node2&#45;&gt;Node3 -->
<g id="edge2" class="edge"><title>Node2&#45;&gt;Node3</title>
<path fill="none" stroke="midnightblue" d="M459.303,-456.77C325.26,-454.699 0,-440.085 0,-347 0,-347 0,-347 0,-121 0,-56.8745 206.777,-27.151 311.172,-16.2309"/>
<polygon fill="midnightblue" stroke="midnightblue" points="311.656,-19.6997 321.248,-15.2019 310.945,-12.7359 311.656,-19.6997"/>
</g>
<!-- Node4 -->
<g id="node4" class="node"><title>Node4</title>
<g id="a_node4"><a xlink:href="karazeh_8hpp.html" target="_top" xlink:title="karazeh/karazeh.hpp">
<polygon fill="white" stroke="black" points="749.5,-112.5 749.5,-131.5 862.5,-131.5 862.5,-112.5 749.5,-112.5"/>
<text text-anchor="middle" x="806" y="-119.5" font-family="Ubuntu Regular" font-size="10.00">karazeh/karazeh.hpp</text>
</a>
</g>
</g>
<!-- Node2&#45;&gt;Node4 -->
<g id="edge3" class="edge"><title>Node2&#45;&gt;Node4</title>
<path fill="none" stroke="midnightblue" d="M572.591,-455.886C699.74,-451.85 997,-433.198 997,-347 997,-347 997,-347 997,-233 997,-174.011 927.742,-146.178 872.636,-133.368"/>
<polygon fill="midnightblue" stroke="midnightblue" points="873.049,-129.876 862.531,-131.147 871.546,-136.713 873.049,-129.876"/>
</g>
<!-- Node11 -->
<g id="node11" class="node"><title>Node11</title>
<g id="a_node11"><a xlink:href="logger_8hpp.html" target="_top" xlink:title="karazeh/logger.hpp">
<polygon fill="white" stroke="black" points="66.5,-168.5 66.5,-187.5 173.5,-187.5 173.5,-168.5 66.5,-168.5"/>
<text text-anchor="middle" x="120" y="-175.5" font-family="Ubuntu Regular" font-size="10.00">karazeh/logger.hpp</text>
</a>
</g>
</g>
<!-- Node2&#45;&gt;Node11 -->
<g id="edge12" class="edge"><title>Node2&#45;&gt;Node11</title>
<path fill="none" stroke="midnightblue" d="M459.354,-451.532C357.973,-440.165 156,-409.657 156,-347 156,-347 156,-347 156,-289 156,-254.982 140.256,-217.85 129.591,-196.6"/>
<polygon fill="midnightblue" stroke="midnightblue" points="132.585,-194.772 124.855,-187.527 126.38,-198.012 132.585,-194.772"/>
</g>
<!-- Node15 -->
<g id="node15" class="node"><title>Node15</title>
<g id="a_node15"><a xlink:href="config_8hpp.html" target="_top" xlink:title="karazeh/config.hpp">
<polygon fill="white" stroke="black" points="787.5,-224.5 787.5,-243.5 892.5,-243.5 892.5,-224.5 787.5,-224.5"/>
<text text-anchor="middle" x="840" y="-231.5" font-family="Ubuntu Regular" font-size="10.00">karazeh/config.hpp</text>
</a>
</g>
</g>
<!-- Node2&#45;&gt;Node15 -->
<g id="edge18" class="edge"><title>Node2&#45;&gt;Node15</title>
<path fill="none" stroke="midnightblue" d="M572.619,-453.097C637.823,-445.454 743.458,-422.851 802,-356 827.778,-326.564 836.078,-279.69 838.744,-253.772"/>
<polygon fill="midnightblue" stroke="midnightblue" points="842.235,-254.027 839.596,-243.766 835.26,-253.433 842.235,-254.027"/>
</g>
<!-- Node16 -->
<g id="node16" class="node"><title>Node16</title>
<g id="a_node16"><a xlink:href="downloader_8hpp.html" target="_top" xlink:title="karazeh/downloader.hpp">
<polygon fill="white" stroke="black" points="502,-280.5 502,-299.5 632,-299.5 632,-280.5 502,-280.5"/>
<text text-anchor="middle" x="567" y="-287.5" font-family="Ubuntu Regular" font-size="10.00">karazeh/downloader.hpp</text>
</a>
</g>
</g>
<!-- Node2&#45;&gt;Node16 -->
<g id="edge21" class="edge"><title>Node2&#45;&gt;Node16</title>
<path fill="none" stroke="midnightblue" d="M513.123,-448.434C509.335,-435.856 503.735,-411.74 509,-392 517.637,-359.617 539.404,-326.828 553.677,-307.733"/>
<polygon fill="midnightblue" stroke="midnightblue" points="556.496,-309.81 559.813,-299.748 550.945,-305.545 556.496,-309.81"/>
</g>
<!-- Node20 -->
<g id="node20" class="node"><title>Node20</title>
<g id="a_node20"><a xlink:href="file__manager_8hpp.html" target="_top" xlink:title="karazeh/file_manager.hpp">
<polygon fill="white" stroke="black" points="333.5,-224.5 333.5,-243.5 468.5,-243.5 468.5,-224.5 333.5,-224.5"/>
<text text-anchor="middle" x="401" y="-231.5" font-family="Ubuntu Regular" font-size="10.00">karazeh/file_manager.hpp</text>
</a>
</g>
</g>
<!-- Node2&#45;&gt;Node20 -->
<g id="edge40" class="edge"><title>Node2&#45;&gt;Node20</title>
<path fill="none" stroke="midnightblue" d="M511.492,-448.297C494.427,-415.356 433.582,-297.898 410.223,-252.805"/>
<polygon fill="midnightblue" stroke="midnightblue" points="413.309,-251.153 405.602,-243.884 407.094,-254.373 413.309,-251.153"/>
</g>
<!-- Node21 -->
<g id="node21" class="node"><title>Node21</title>
<g id="a_node21"><a xlink:href="release__manifest_8hpp.html" target="_top" xlink:title="karazeh/release_manifest.hpp">
<polygon fill="white" stroke="black" points="518.5,-392.5 518.5,-411.5 673.5,-411.5 673.5,-392.5 518.5,-392.5"/>
<text text-anchor="middle" x="596" y="-399.5" font-family="Ubuntu Regular" font-size="10.00">karazeh/release_manifest.hpp</text>
</a>
</g>
</g>
<!-- Node2&#45;&gt;Node21 -->
<g id="edge41" class="edge"><title>Node2&#45;&gt;Node21</title>
<path fill="none" stroke="midnightblue" d="M528.853,-448.324C541.216,-439.979 560.13,-427.212 574.737,-417.352"/>
<polygon fill="midnightblue" stroke="midnightblue" points="576.848,-420.15 583.179,-411.655 572.932,-414.348 576.848,-420.15"/>
</g>
<!-- Node5 -->
<g id="node5" class="node"><title>Node5</title>
<polygon fill="white" stroke="#bfbfbf" points="896.5,-0.5 896.5,-19.5 939.5,-19.5 939.5,-0.5 896.5,-0.5"/>
<text text-anchor="middle" x="918" y="-7.5" font-family="Ubuntu Regular" font-size="10.00">string</text>
</g>
<!-- Node4&#45;&gt;Node5 -->
<g id="edge4" class="edge"><title>Node4&#45;&gt;Node5</title>
<path fill="none" stroke="midnightblue" d="M814.788,-112.368C833.599,-93.8941 877.993,-50.2926 901.97,-26.7436"/>
<polygon fill="midnightblue" stroke="midnightblue" points="904.57,-29.0956 909.252,-19.5914 899.665,-24.1015 904.57,-29.0956"/>
</g>
<!-- Node6 -->
<g id="node6" class="node"><title>Node6</title>
<polygon fill="white" stroke="#bfbfbf" points="781,-56.5 781,-75.5 831,-75.5 831,-56.5 781,-56.5"/>
<text text-anchor="middle" x="806" y="-63.5" font-family="Ubuntu Regular" font-size="10.00">cassert</text>
</g>
<!-- Node4&#45;&gt;Node6 -->
<g id="edge5" class="edge"><title>Node4&#45;&gt;Node6</title>
<path fill="none" stroke="midnightblue" d="M806,-112.083C806,-105.006 806,-94.8611 806,-85.9865"/>
<polygon fill="midnightblue" stroke="midnightblue" points="809.5,-85.751 806,-75.7511 802.5,-85.7511 809.5,-85.751"/>
</g>
<!-- Node4&#45;&gt;Node7 -->
<g id="edge6" class="edge"><title>Node4&#45;&gt;Node7</title>
<path fill="none" stroke="midnightblue" d="M778.905,-112.444C750.012,-103.32 704.075,-88.8133 671.895,-78.6509"/>
<polygon fill="midnightblue" stroke="midnightblue" points="672.559,-75.1903 661.969,-75.5164 670.451,-81.8654 672.559,-75.1903"/>
</g>
<!-- Node8 -->
<g id="node8" class="node"><title>Node8</title>
<g id="a_node8"><a xlink:href="exception_8hpp.html" target="_top" xlink:title="karazeh/exception.hpp">
<polygon fill="white" stroke="black" points="941.5,-56.5 941.5,-75.5 1064.5,-75.5 1064.5,-56.5 941.5,-56.5"/>
<text text-anchor="middle" x="1003" y="-63.5" font-family="Ubuntu Regular" font-size="10.00">karazeh/exception.hpp</text>
</a>
</g>
</g>
<!-- Node4&#45;&gt;Node8 -->
<g id="edge7" class="edge"><title>Node4&#45;&gt;Node8</title>
<path fill="none" stroke="midnightblue" d="M837.215,-112.444C870.933,-103.201 924.8,-88.4356 961.932,-78.2572"/>
<polygon fill="midnightblue" stroke="midnightblue" points="963.212,-81.5356 971.931,-75.5164 961.361,-74.7846 963.212,-81.5356"/>
</g>
<!-- Node8&#45;&gt;Node3 -->
<g id="edge11" class="edge"><title>Node8&#45;&gt;Node3</title>
<path fill="none" stroke="midnightblue" d="M941.442,-59.7486C819.481,-49.3443 548.615,-26.2373 428.874,-16.0225"/>
<polygon fill="midnightblue" stroke="midnightblue" points="429.059,-12.5256 418.797,-15.1628 428.464,-19.5002 429.059,-12.5256"/>
</g>
<!-- Node8&#45;&gt;Node5 -->
<g id="edge9" class="edge"><title>Node8&#45;&gt;Node5</title>
<path fill="none" stroke="midnightblue" d="M989.343,-56.324C976.084,-47.9002 955.732,-34.9709 940.154,-25.0741"/>
<polygon fill="midnightblue" stroke="midnightblue" points="941.94,-22.0626 931.623,-19.6545 938.187,-27.9711 941.94,-22.0626"/>
</g>
<!-- Node9 -->
<g id="node9" class="node"><title>Node9</title>
<polygon fill="white" stroke="#bfbfbf" points="966.5,-0.5 966.5,-19.5 1029.5,-19.5 1029.5,-0.5 966.5,-0.5"/>
<text text-anchor="middle" x="998" y="-7.5" font-family="Ubuntu Regular" font-size="10.00">exception</text>
</g>
<!-- Node8&#45;&gt;Node9 -->
<g id="edge8" class="edge"><title>Node8&#45;&gt;Node9</title>
<path fill="none" stroke="midnightblue" d="M1002.17,-56.083C1001.52,-49.0059 1000.58,-38.8611 999.758,-29.9865"/>
<polygon fill="midnightblue" stroke="midnightblue" points="1003.22,-29.3858 998.81,-19.7511 996.247,-30.0312 1003.22,-29.3858"/>
</g>
<!-- Node10 -->
<g id="node10" class="node"><title>Node10</title>
<polygon fill="white" stroke="#bfbfbf" points="1047.5,-0.5 1047.5,-19.5 1112.5,-19.5 1112.5,-0.5 1047.5,-0.5"/>
<text text-anchor="middle" x="1080" y="-7.5" font-family="Ubuntu Regular" font-size="10.00">stdexcept</text>
</g>
<!-- Node8&#45;&gt;Node10 -->
<g id="edge10" class="edge"><title>Node8&#45;&gt;Node10</title>
<path fill="none" stroke="midnightblue" d="M1015.37,-56.324C1027.16,-48.0577 1045.13,-35.4527 1059.14,-25.6322"/>
<polygon fill="midnightblue" stroke="midnightblue" points="1061.48,-28.2619 1067.66,-19.6545 1057.46,-22.5307 1061.48,-28.2619"/>
</g>
<!-- Node11&#45;&gt;Node3 -->
<g id="edge16" class="edge"><title>Node11&#45;&gt;Node3</title>
<path fill="none" stroke="midnightblue" d="M111.784,-168.369C100.354,-155.285 82.4048,-130.044 95,-112 143.635,-42.3257 245.908,-20.5756 311.099,-13.8725"/>
<polygon fill="midnightblue" stroke="midnightblue" points="311.6,-17.3409 321.229,-12.9209 310.946,-10.3716 311.6,-17.3409"/>
</g>
<!-- Node11&#45;&gt;Node4 -->
<g id="edge17" class="edge"><title>Node11&#45;&gt;Node4</title>
<path fill="none" stroke="midnightblue" d="M173.738,-168.957C176.53,-168.615 179.297,-168.293 182,-168 384.298,-146.052 624.694,-132.128 739.084,-126.238"/>
<polygon fill="midnightblue" stroke="midnightblue" points="739.284,-129.732 749.092,-125.726 738.926,-122.741 739.284,-129.732"/>
</g>
<!-- Node12 -->
<g id="node12" class="node"><title>Node12</title>
<polygon fill="white" stroke="#bfbfbf" points="104.5,-112.5 104.5,-131.5 157.5,-131.5 157.5,-112.5 104.5,-112.5"/>
<text text-anchor="middle" x="131" y="-119.5" font-family="Ubuntu Regular" font-size="10.00">sstream</text>
</g>
<!-- Node11&#45;&gt;Node12 -->
<g id="edge13" class="edge"><title>Node11&#45;&gt;Node12</title>
<path fill="none" stroke="midnightblue" d="M121.816,-168.083C123.274,-160.927 125.371,-150.635 127.193,-141.691"/>
<polygon fill="midnightblue" stroke="midnightblue" points="130.651,-142.248 129.217,-131.751 123.792,-140.851 130.651,-142.248"/>
</g>
<!-- Node13 -->
<g id="node13" class="node"><title>Node13</title>
<polygon fill="white" stroke="#bfbfbf" points="175.5,-112.5 175.5,-131.5 228.5,-131.5 228.5,-112.5 175.5,-112.5"/>
<text text-anchor="middle" x="202" y="-119.5" font-family="Ubuntu Regular" font-size="10.00">fstream</text>
</g>
<!-- Node11&#45;&gt;Node13 -->
<g id="edge14" class="edge"><title>Node11&#45;&gt;Node13</title>
<path fill="none" stroke="midnightblue" d="M133.175,-168.324C145.847,-159.979 165.233,-147.212 180.206,-137.352"/>
<polygon fill="midnightblue" stroke="midnightblue" points="182.431,-140.078 188.858,-131.655 178.581,-134.231 182.431,-140.078"/>
</g>
<!-- Node14 -->
<g id="node14" class="node"><title>Node14</title>
<polygon fill="white" stroke="#bfbfbf" points="246.5,-112.5 246.5,-131.5 303.5,-131.5 303.5,-112.5 246.5,-112.5"/>
<text text-anchor="middle" x="275" y="-119.5" font-family="Ubuntu Regular" font-size="10.00">iostream</text>
</g>
<!-- Node11&#45;&gt;Node14 -->
<g id="edge15" class="edge"><title>Node11&#45;&gt;Node14</title>
<path fill="none" stroke="midnightblue" d="M144.56,-168.444C170.523,-159.399 211.668,-145.064 240.797,-134.916"/>
<polygon fill="midnightblue" stroke="midnightblue" points="242.263,-138.112 250.555,-131.516 239.96,-131.501 242.263,-138.112"/>
</g>
<!-- Node15&#45;&gt;Node3 -->
<g id="edge19" class="edge"><title>Node15&#45;&gt;Node3</title>
<path fill="none" stroke="midnightblue" d="M843.645,-224.289C850.64,-207.047 865.721,-167.19 871,-132 876.412,-95.924 870.507,-76.0019 840,-56 806.321,-33.9184 547.375,-19.2204 428.868,-13.5827"/>
<polygon fill="midnightblue" stroke="midnightblue" points="429.027,-10.0863 418.873,-13.1128 428.698,-17.0786 429.027,-10.0863"/>
</g>
<!-- Node15&#45;&gt;Node4 -->
<g id="edge20" class="edge"><title>Node15&#45;&gt;Node4</title>
<path fill="none" stroke="midnightblue" d="M837.332,-224.368C831.82,-206.537 819.073,-165.295 811.648,-141.272"/>
<polygon fill="midnightblue" stroke="midnightblue" points="814.953,-140.112 808.656,-131.591 808.265,-142.179 814.953,-140.112"/>
</g>
<!-- Node16&#45;&gt;Node3 -->
<g id="edge25" class="edge"><title>Node16&#45;&gt;Node3</title>
<path fill="none" stroke="midnightblue" d="M577.177,-280.321C599.488,-260.206 648.946,-208.99 626,-168 580.138,-86.0741 472.121,-41.7199 412.088,-22.6179"/>
<polygon fill="midnightblue" stroke="midnightblue" points="412.76,-19.1622 402.173,-19.5538 410.694,-25.8502 412.76,-19.1622"/>
</g>
<!-- Node16&#45;&gt;Node4 -->
<g id="edge26" class="edge"><title>Node16&#45;&gt;Node4</title>
<path fill="none" stroke="midnightblue" d="M608.068,-280.437C634.929,-273.525 669.927,-261.947 697,-244 740.026,-215.478 777.123,-166.093 794.863,-140.112"/>
<polygon fill="midnightblue" stroke="midnightblue" points="797.851,-141.939 800.498,-131.68 792.031,-138.05 797.851,-141.939"/>
</g>
<!-- Node16&#45;&gt;Node7 -->
<g id="edge23" class="edge"><title>Node16&#45;&gt;Node7</title>
<path fill="none" stroke="midnightblue" d="M605.845,-280.364C625.377,-273.847 647.327,-262.704 659,-244 690.692,-193.218 660.945,-118.383 644.394,-84.6412"/>
<polygon fill="midnightblue" stroke="midnightblue" points="647.425,-82.8796 639.764,-75.5609 641.189,-86.0595 647.425,-82.8796"/>
</g>
<!-- Node16&#45;&gt;Node11 -->
<g id="edge27" class="edge"><title>Node16&#45;&gt;Node11</title>
<path fill="none" stroke="midnightblue" d="M501.841,-282.224C445.198,-275.434 361.271,-263.198 290,-244 238.848,-230.221 181.782,-206.611 148.488,-191.957"/>
<polygon fill="midnightblue" stroke="midnightblue" points="149.51,-188.582 138.951,-187.717 146.667,-194.978 149.51,-188.582"/>
</g>
<!-- Node16&#45;&gt;Node15 -->
<g id="edge39" class="edge"><title>Node16&#45;&gt;Node15</title>
<path fill="none" stroke="midnightblue" d="M610.258,-280.444C658.181,-270.964 735.478,-255.675 787,-245.483"/>
<polygon fill="midnightblue" stroke="midnightblue" points="787.814,-248.89 796.945,-243.516 786.456,-242.023 787.814,-248.89"/>
</g>
<!-- Node17 -->
<g id="node17" class="node"><title>Node17</title>
<polygon fill="white" stroke="#bfbfbf" points="431.5,-168.5 431.5,-187.5 494.5,-187.5 494.5,-168.5 431.5,-168.5"/>
<text text-anchor="middle" x="463" y="-175.5" font-family="Ubuntu Regular" font-size="10.00">curl/curl.h</text>
</g>
<!-- Node16&#45;&gt;Node17 -->
<g id="edge22" class="edge"><title>Node16&#45;&gt;Node17</title>
<path fill="none" stroke="midnightblue" d="M558.839,-280.368C541.448,-261.974 500.507,-218.671 478.176,-195.052"/>
<polygon fill="midnightblue" stroke="midnightblue" points="480.536,-192.453 471.123,-187.591 475.45,-197.262 480.536,-192.453"/>
</g>
<!-- Node18 -->
<g id="node18" class="node"><title>Node18</title>
<polygon fill="white" stroke="#bfbfbf" points="513,-168.5 513,-187.5 617,-187.5 617,-168.5 513,-168.5"/>
<text text-anchor="middle" x="565" y="-175.5" font-family="Ubuntu Regular" font-size="10.00">binreloc/binreloc.h</text>
</g>
<!-- Node16&#45;&gt;Node18 -->
<g id="edge24" class="edge"><title>Node16&#45;&gt;Node18</title>
<path fill="none" stroke="midnightblue" d="M566.843,-280.368C566.52,-262.617 565.776,-221.666 565.338,-197.597"/>
<polygon fill="midnightblue" stroke="midnightblue" points="568.838,-197.526 565.156,-187.591 561.839,-197.653 568.838,-197.526"/>
</g>
<!-- Node19 -->
<g id="node19" class="node"><title>Node19</title>
<g id="a_node19"><a xlink:href="hasher_8hpp.html" target="_top" xlink:title="karazeh/hasher.hpp">
<polygon fill="white" stroke="black" points="191.5,-168.5 191.5,-187.5 298.5,-187.5 298.5,-168.5 191.5,-168.5"/>
<text text-anchor="middle" x="245" y="-175.5" font-family="Ubuntu Regular" font-size="10.00">karazeh/hasher.hpp</text>
</a>
</g>
</g>
<!-- Node16&#45;&gt;Node19 -->
<g id="edge28" class="edge"><title>Node16&#45;&gt;Node19</title>
<path fill="none" stroke="midnightblue" d="M501.893,-285.815C451.351,-281.286 380.592,-270.352 324,-244 298.732,-232.234 274.755,-210.466 259.982,-195.381"/>
<polygon fill="midnightblue" stroke="midnightblue" points="262.198,-192.632 252.772,-187.794 257.124,-197.454 262.198,-192.632"/>
</g>
<!-- Node16&#45;&gt;Node20 -->
<g id="edge31" class="edge"><title>Node16&#45;&gt;Node20</title>
<path fill="none" stroke="midnightblue" d="M540.697,-280.444C512.649,-271.32 468.056,-256.813 436.816,-246.651"/>
<polygon fill="midnightblue" stroke="midnightblue" points="437.772,-243.282 427.18,-243.516 435.607,-249.938 437.772,-243.282"/>
</g>
<!-- Node19&#45;&gt;Node3 -->
<g id="edge29" class="edge"><title>Node19&#45;&gt;Node3</title>
<path fill="none" stroke="midnightblue" d="M262.876,-168.42C277.61,-160.613 298.249,-147.896 312,-132 339.083,-100.692 356.514,-54.5453 364.643,-29.2464"/>
<polygon fill="midnightblue" stroke="midnightblue" points="368.046,-30.0874 367.641,-19.5003 361.355,-28.0288 368.046,-30.0874"/>
</g>
<!-- Node19&#45;&gt;Node4 -->
<g id="edge30" class="edge"><title>Node19&#45;&gt;Node4</title>
<path fill="none" stroke="midnightblue" d="M298.537,-171.847C401.451,-161.941 626.645,-140.264 739.197,-129.43"/>
<polygon fill="midnightblue" stroke="midnightblue" points="739.782,-132.89 749.401,-128.448 739.112,-125.922 739.782,-132.89"/>
</g>
<!-- Node20&#45;&gt;Node3 -->
<g id="edge35" class="edge"><title>Node20&#45;&gt;Node3</title>
<path fill="none" stroke="midnightblue" d="M399.608,-224.381C398.158,-215.328 395.845,-200.675 394,-188 385.646,-130.606 376.688,-62.5989 372.468,-30.1213"/>
<polygon fill="midnightblue" stroke="midnightblue" points="375.893,-29.3164 371.138,-19.8488 368.951,-30.2156 375.893,-29.3164"/>
</g>
<!-- Node20&#45;&gt;Node4 -->
<g id="edge36" class="edge"><title>Node20&#45;&gt;Node4</title>
<path fill="none" stroke="midnightblue" d="M401.028,-224.218C401.591,-209.968 404.953,-181.998 422,-168 469.049,-129.368 642.213,-122.889 739.151,-122.395"/>
<polygon fill="midnightblue" stroke="midnightblue" points="739.445,-125.894 749.434,-122.363 739.423,-118.894 739.445,-125.894"/>
</g>
<!-- Node20&#45;&gt;Node7 -->
<g id="edge33" class="edge"><title>Node20&#45;&gt;Node7</title>
<path fill="none" stroke="midnightblue" d="M398.858,-224.076C396.171,-210.609 393.225,-184.875 405,-168 441.985,-114.997 513.228,-89.5135 566.67,-77.4497"/>
<polygon fill="midnightblue" stroke="midnightblue" points="567.725,-80.8029 576.767,-75.2807 566.255,-73.959 567.725,-80.8029"/>
</g>
<!-- Node20&#45;&gt;Node11 -->
<g id="edge37" class="edge"><title>Node20&#45;&gt;Node11</title>
<path fill="none" stroke="midnightblue" d="M356.475,-224.444C307.044,-214.944 227.254,-199.611 174.222,-189.42"/>
<polygon fill="midnightblue" stroke="midnightblue" points="174.798,-185.967 164.317,-187.516 173.477,-192.841 174.798,-185.967"/>
</g>
<!-- Node20&#45;&gt;Node17 -->
<g id="edge32" class="edge"><title>Node20&#45;&gt;Node17</title>
<path fill="none" stroke="midnightblue" d="M410.961,-224.324C420.127,-216.341 433.937,-204.313 445.028,-194.653"/>
<polygon fill="midnightblue" stroke="midnightblue" points="447.615,-197.041 452.857,-187.834 443.018,-191.762 447.615,-197.041"/>
</g>
<!-- Node20&#45;&gt;Node18 -->
<g id="edge34" class="edge"><title>Node20&#45;&gt;Node18</title>
<path fill="none" stroke="midnightblue" d="M426.986,-224.444C454.696,-215.32 498.752,-200.813 529.616,-190.651"/>
<polygon fill="midnightblue" stroke="midnightblue" points="530.732,-193.968 539.135,-187.516 528.542,-187.32 530.732,-193.968"/>
</g>
<!-- Node20&#45;&gt;Node19 -->
<g id="edge38" class="edge"><title>Node20&#45;&gt;Node19</title>
<path fill="none" stroke="midnightblue" d="M376.281,-224.444C350.152,-215.399 308.741,-201.064 279.424,-190.916"/>
<polygon fill="midnightblue" stroke="midnightblue" points="280.198,-187.48 269.603,-187.516 277.908,-194.095 280.198,-187.48"/>
</g>
<!-- Node21&#45;&gt;Node3 -->
<g id="edge43" class="edge"><title>Node21&#45;&gt;Node3</title>
<path fill="none" stroke="midnightblue" d="M560.588,-392.49C450.381,-365.222 117.261,-276.609 57,-188 19.2997,-132.564 72.8694,-91.0787 130,-56 159.668,-37.7834 250.061,-24.4182 311.044,-17.1779"/>
<polygon fill="midnightblue" stroke="midnightblue" points="311.787,-20.6152 321.316,-15.983 310.978,-13.662 311.787,-20.6152"/>
</g>
<!-- Node21&#45;&gt;Node4 -->
<g id="edge44" class="edge"><title>Node21&#45;&gt;Node4</title>
<path fill="none" stroke="midnightblue" d="M673.592,-392.639C713.411,-386.25 761.852,-375.142 802,-356 866.688,-325.158 893.842,-311.47 918,-244 929.737,-211.221 922.053,-194.093 899,-168 885.573,-152.802 865.866,-142.251 848.045,-135.207"/>
<polygon fill="midnightblue" stroke="midnightblue" points="848.984,-131.823 838.39,-131.647 846.562,-138.39 848.984,-131.823"/>
</g>
<!-- Node22 -->
<g id="node22" class="node"><title>Node22</title>
<polygon fill="white" stroke="#bfbfbf" points="572.5,-336.5 572.5,-355.5 619.5,-355.5 619.5,-336.5 572.5,-336.5"/>
<text text-anchor="middle" x="596" y="-343.5" font-family="Ubuntu Regular" font-size="10.00">vector</text>
</g>
<!-- Node21&#45;&gt;Node22 -->
<g id="edge42" class="edge"><title>Node21&#45;&gt;Node22</title>
<path fill="none" stroke="midnightblue" d="M596,-392.083C596,-385.006 596,-374.861 596,-365.986"/>
<polygon fill="midnightblue" stroke="midnightblue" points="599.5,-365.751 596,-355.751 592.5,-365.751 599.5,-365.751"/>
</g>
<!-- Node23 -->
<g id="node23" class="node"><title>Node23</title>
<g id="a_node23"><a xlink:href="operation_8hpp.html" target="_top" xlink:title="karazeh/operation.hpp">
<polygon fill="white" stroke="black" points="671,-336.5 671,-355.5 793,-355.5 793,-336.5 671,-336.5"/>
<text text-anchor="middle" x="732" y="-343.5" font-family="Ubuntu Regular" font-size="10.00">karazeh/operation.hpp</text>
</a>
</g>
</g>
<!-- Node21&#45;&gt;Node23 -->
<g id="edge45" class="edge"><title>Node21&#45;&gt;Node23</title>
<path fill="none" stroke="midnightblue" d="M617.55,-392.444C640.031,-383.517 675.488,-369.439 700.98,-359.317"/>
<polygon fill="midnightblue" stroke="midnightblue" points="702.549,-362.46 710.551,-355.516 699.965,-355.954 702.549,-362.46"/>
</g>
<!-- Node23&#45;&gt;Node3 -->
<g id="edge46" class="edge"><title>Node23&#45;&gt;Node3</title>
<path fill="none" stroke="midnightblue" d="M732.466,-336.297C734.616,-292.547 741.846,-97.1123 702,-56 665.288,-18.1214 513.941,-11.3281 428.826,-10.5861"/>
<polygon fill="midnightblue" stroke="midnightblue" points="428.808,-7.08607 418.786,-10.524 428.764,-14.0859 428.808,-7.08607"/>
</g>
<!-- Node23&#45;&gt;Node4 -->
<g id="edge47" class="edge"><title>Node23&#45;&gt;Node4</title>
<path fill="none" stroke="midnightblue" d="M763.877,-336.473C804.125,-323.798 871.652,-295.729 901,-244 925.015,-201.671 866.712,-158.297 831.11,-136.811"/>
<polygon fill="midnightblue" stroke="midnightblue" points="832.584,-133.619 822.184,-131.592 829.05,-139.661 832.584,-133.619"/>
</g>
<!-- Node23&#45;&gt;Node15 -->
<g id="edge48" class="edge"><title>Node23&#45;&gt;Node15</title>
<path fill="none" stroke="midnightblue" d="M740.475,-336.368C758.613,-317.894 801.422,-274.293 824.543,-250.744"/>
<polygon fill="midnightblue" stroke="midnightblue" points="827.056,-253.179 831.565,-243.591 822.061,-248.275 827.056,-253.179"/>
</g>
<!-- Node23&#45;&gt;Node16 -->
<g id="edge49" class="edge"><title>Node23&#45;&gt;Node16</title>
<path fill="none" stroke="midnightblue" d="M705.855,-336.444C677.977,-327.32 633.652,-312.813 602.6,-302.651"/>
<polygon fill="midnightblue" stroke="midnightblue" points="603.615,-299.3 593.022,-299.516 601.438,-305.953 603.615,-299.3"/>
</g>
<!-- Node23&#45;&gt;Node20 -->
<g id="edge50" class="edge"><title>Node23&#45;&gt;Node20</title>
<path fill="none" stroke="midnightblue" d="M670.752,-340.716C621.192,-335.563 550.444,-324.328 493,-300 464.06,-287.744 435.2,-265.261 417.724,-250.221"/>
<polygon fill="midnightblue" stroke="midnightblue" points="419.926,-247.496 410.109,-243.513 415.299,-252.749 419.926,-247.496"/>
</g>
</g>
</svg>
        <g id="navigator" transform="translate(0 0)" fill="#404254">
                <rect fill="#f2f5e9" fill-opacity="0.5" stroke="#606060" stroke-width=".5" x="0" y="0" width="60" height="60"/>
                <use id="zoomplus" xlink:href="#zoomPlus" x="17" y="9" onmousedown="handleZoom(evt,'in')"/>
                <use id="zoomminus" xlink:href="#zoomMin" x="42" y="9" onmousedown="handleZoom(evt,'out')"/>
                <use id="reset" xlink:href="#resetDef" x="30" y="36" onmousedown="handleReset()"/>
                <g id="arrowUp" xlink:href="#dirArrow" transform="translate(30 24)" onmousedown="handlePan(0,-1)">
                  <use xlink:href="#rim" fill="#404040">
                        <set attributeName="fill" to="#808080" begin="arrowUp.mouseover" end="arrowUp.mouseout"/>
                  </use>
                  <path fill="none" stroke="white" stroke-width="1.5" d="M0,-3.0v7 M-2.5,-0.5L0,-3.0L2.5,-0.5"/>
                </g>
                <g id="arrowRight" xlink:href="#dirArrow" transform="rotate(90) translate(36 -43)" onmousedown="handlePan(1,0)">
                  <use xlink:href="#rim" fill="#404040">
                        <set attributeName="fill" to="#808080" begin="arrowRight.mouseover" end="arrowRight.mouseout"/>
                  </use>
                  <path fill="none" stroke="white" stroke-width="1.5" d="M0,-3.0v7 M-2.5,-0.5L0,-3.0L2.5,-0.5"/>
                </g>
                <g id="arrowDown" xlink:href="#dirArrow" transform="rotate(180) translate(-30 -48)" onmousedown="handlePan(0,1)">
                  <use xlink:href="#rim" fill="#404040">
                        <set attributeName="fill" to="#808080" begin="arrowDown.mouseover" end="arrowDown.mouseout"/>
                  </use>
                  <path fill="none" stroke="white" stroke-width="1.5" d="M0,-3.0v7 M-2.5,-0.5L0,-3.0L2.5,-0.5"/>
                </g>
                <g id="arrowLeft" xlink:href="#dirArrow" transform="rotate(270) translate(-36 17)" onmousedown="handlePan(-1,0)">
                  <use xlink:href="#rim" fill="#404040">
                        <set attributeName="fill" to="#808080" begin="arrowLeft.mouseover" end="arrowLeft.mouseout"/>
                  </use>
                  <path fill="none" stroke="white" stroke-width="1.5" d="M0,-3.0v7 M-2.5,-0.5L0,-3.0L2.5,-0.5"/>
                </g>
        </g>
        <svg viewBox="0 0 15 15" width="100%" height="30px" preserveAspectRatio="xMaxYMin meet">
         <g id="arrow_out" transform="scale(0.3 0.3)">
          <a xlink:href="patcher_8cpp__incl_org.svg" target="_base">
           <rect id="button" ry="5" rx="5" y="6" x="6" height="38" width="38"
                fill="#f2f5e9" fill-opacity="0.5" stroke="#606060" stroke-width="1.0"/>
           <path id="arrow"
             d="M 11.500037,31.436501 C 11.940474,20.09759 22.043105,11.32322 32.158766,21.979434 L 37.068811,17.246167 C 37.068811,17.246167 37.088388,32 37.088388,32 L 22.160133,31.978069 C 22.160133,31.978069 26.997745,27.140456 26.997745,27.140456 C 18.528582,18.264221 13.291696,25.230495 11.500037,31.436501 z"
             style="fill:#404040;"/>
          </a>
         </g>
        </svg>
</svg>
