<?xml version="1.0" encoding="UTF-8" standalone="no"?>
<!DOCTYPE svg PUBLIC "-//W3C//DTD SVG 1.1//EN"
 "http://www.w3.org/Graphics/SVG/1.1/DTD/svg11.dtd">
<!-- Generated by graphviz version 2.38.0 (20140413.2041)
 -->
<!-- Title: include/karazeh/patcher.hpp Pages: 1 -->
<svg width="1129pt" height="476pt"
 viewBox="0.00 0.00 1128.50 476.00" xmlns="http://www.w3.org/2000/svg" xmlns:xlink="http://www.w3.org/1999/xlink">
<g id="graph0" class="graph" transform="scale(1 1) rotate(0) translate(4 472)">
<title>include/karazeh/patcher.hpp</title>
<polygon fill="white" stroke="none" points="-4,4 -4,-472 1124.5,-472 1124.5,4 -4,4"/>
<!-- Node1 -->
<g id="node1" class="node"><title>Node1</title>
<polygon fill="#bfbfbf" stroke="black" points="687.5,-448.5 687.5,-467.5 836.5,-467.5 836.5,-448.5 687.5,-448.5"/>
<text text-anchor="middle" x="762" y="-455.5" font-family="Ubuntu Regular" font-size="10.00">include/karazeh/patcher.hpp</text>
</g>
<!-- Node2 -->
<g id="node2" class="node"><title>Node2</title>
<polygon fill="white" stroke="#bfbfbf" points="321.5,-0.5 321.5,-19.5 418.5,-19.5 418.5,-0.5 321.5,-0.5"/>
<text text-anchor="middle" x="370" y="-7.5" font-family="Ubuntu Regular" font-size="10.00">karazeh_export.h</text>
</g>
<!-- Node1&#45;&gt;Node2 -->
<g id="edge1" class="edge"><title>Node1&#45;&gt;Node2</title>
<path fill="none" stroke="midnightblue" d="M687.2,-453.976C495.21,-445.223 0,-415.962 0,-347 0,-347 0,-347 0,-121 0,-81.985 24.5523,-74.3175 59,-56 101.584,-33.3561 233.7,-20.525 311.36,-14.7536"/>
<polygon fill="midnightblue" stroke="midnightblue" points="311.758,-18.234 321.478,-14.0187 311.251,-11.2524 311.758,-18.234"/>
</g>
<!-- Node3 -->
<g id="node3" class="node"><title>Node3</title>
<g id="a_node3"><a xlink:href="karazeh_8hpp.html" target="_top" xlink:title="karazeh/karazeh.hpp">
<polygon fill="white" stroke="black" points="798.5,-112.5 798.5,-131.5 911.5,-131.5 911.5,-112.5 798.5,-112.5"/>
<text text-anchor="middle" x="855" y="-119.5" font-family="Ubuntu Regular" font-size="10.00">karazeh/karazeh.hpp</text>
</a>
</g>
</g>
<!-- Node1&#45;&gt;Node3 -->
<g id="edge2" class="edge"><title>Node1&#45;&gt;Node3</title>
<path fill="none" stroke="midnightblue" d="M810.821,-448.484C892.021,-432.92 1046,-396.834 1046,-347 1046,-347 1046,-347 1046,-233 1046,-174.011 976.742,-146.178 921.636,-133.368"/>
<polygon fill="midnightblue" stroke="midnightblue" points="922.049,-129.876 911.531,-131.147 920.546,-136.713 922.049,-129.876"/>
</g>
<!-- Node10 -->
<g id="node10" class="node"><title>Node10</title>
<g id="a_node10"><a xlink:href="logger_8hpp.html" target="_top" xlink:title="karazeh/logger.hpp">
<polygon fill="white" stroke="black" points="152.5,-168.5 152.5,-187.5 259.5,-187.5 259.5,-168.5 152.5,-168.5"/>
<text text-anchor="middle" x="206" y="-175.5" font-family="Ubuntu Regular" font-size="10.00">karazeh/logger.hpp</text>
</a>
</g>
</g>
<!-- Node1&#45;&gt;Node10 -->
<g id="edge11" class="edge"><title>Node1&#45;&gt;Node10</title>
<path fill="none" stroke="midnightblue" d="M687.304,-457.611C535.669,-456.831 206,-443.984 206,-347 206,-347 206,-347 206,-289 206,-256.948 206,-219.643 206,-197.749"/>
<polygon fill="midnightblue" stroke="midnightblue" points="209.5,-197.558 206,-187.558 202.5,-197.558 209.5,-197.558"/>
</g>
<!-- Node14 -->
<g id="node14" class="node"><title>Node14</title>
<g id="a_node14"><a xlink:href="config_8hpp.html" target="_top" xlink:title="karazeh/config.hpp">
<polygon fill="white" stroke="black" points="874.5,-224.5 874.5,-243.5 979.5,-243.5 979.5,-224.5 874.5,-224.5"/>
<text text-anchor="middle" x="927" y="-231.5" font-family="Ubuntu Regular" font-size="10.00">karazeh/config.hpp</text>
</a>
</g>
</g>
<!-- Node1&#45;&gt;Node14 -->
<g id="edge17" class="edge"><title>Node1&#45;&gt;Node14</title>
<path fill="none" stroke="midnightblue" d="M800.911,-448.433C822.684,-441.812 848.821,-430.546 866,-412 908.467,-366.155 921.553,-289.334 925.436,-253.925"/>
<polygon fill="midnightblue" stroke="midnightblue" points="928.955,-253.898 926.43,-243.609 921.987,-253.227 928.955,-253.898"/>
</g>
<!-- Node15 -->
<g id="node15" class="node"><title>Node15</title>
<g id="a_node15"><a xlink:href="downloader_8hpp.html" target="_top" xlink:title="karazeh/downloader.hpp">
<polygon fill="white" stroke="black" points="646,-280.5 646,-299.5 776,-299.5 776,-280.5 646,-280.5"/>
<text text-anchor="middle" x="711" y="-287.5" font-family="Ubuntu Regular" font-size="10.00">karazeh/downloader.hpp</text>
</a>
</g>
</g>
<!-- Node1&#45;&gt;Node15 -->
<g id="edge20" class="edge"><title>Node1&#45;&gt;Node15</title>
<path fill="none" stroke="midnightblue" d="M796.184,-448.493C814.993,-441.877 836.743,-430.596 848,-412 855.755,-399.19 864.744,-361.051 846,-336 831.625,-316.788 808.725,-305.676 785.839,-299.284"/>
<polygon fill="midnightblue" stroke="midnightblue" points="786.608,-295.869 776.056,-296.824 784.9,-302.657 786.608,-295.869"/>
</g>
<!-- Node19 -->
<g id="node19" class="node"><title>Node19</title>
<g id="a_node19"><a xlink:href="file__manager_8hpp.html" target="_top" xlink:title="karazeh/file_manager.hpp">
<polygon fill="white" stroke="black" points="353.5,-224.5 353.5,-243.5 488.5,-243.5 488.5,-224.5 353.5,-224.5"/>
<text text-anchor="middle" x="421" y="-231.5" font-family="Ubuntu Regular" font-size="10.00">karazeh/file_manager.hpp</text>
</a>
</g>
</g>
<!-- Node1&#45;&gt;Node19 -->
<g id="edge39" class="edge"><title>Node1&#45;&gt;Node19</title>
<path fill="none" stroke="midnightblue" d="M743.626,-448.368C725.752,-439.77 698.004,-425.882 675,-412 584.112,-357.15 482.277,-281.579 440.486,-249.908"/>
<polygon fill="midnightblue" stroke="midnightblue" points="442.364,-246.939 432.285,-243.671 438.126,-252.51 442.364,-246.939"/>
</g>
<!-- Node20 -->
<g id="node20" class="node"><title>Node20</title>
<g id="a_node20"><a xlink:href="release__manifest_8hpp.html" target="_top" xlink:title="karazeh/release_manifest.hpp">
<polygon fill="white" stroke="black" points="684.5,-392.5 684.5,-411.5 839.5,-411.5 839.5,-392.5 684.5,-392.5"/>
<text text-anchor="middle" x="762" y="-399.5" font-family="Ubuntu Regular" font-size="10.00">karazeh/release_manifest.hpp</text>
</a>
</g>
</g>
<!-- Node1&#45;&gt;Node20 -->
<g id="edge40" class="edge"><title>Node1&#45;&gt;Node20</title>
<path fill="none" stroke="midnightblue" d="M762,-448.083C762,-441.006 762,-430.861 762,-421.986"/>
<polygon fill="midnightblue" stroke="midnightblue" points="765.5,-421.751 762,-411.751 758.5,-421.751 765.5,-421.751"/>
</g>
<!-- Node4 -->
<g id="node4" class="node"><title>Node4</title>
<polygon fill="white" stroke="#bfbfbf" points="1077.5,-0.5 1077.5,-19.5 1120.5,-19.5 1120.5,-0.5 1077.5,-0.5"/>
<text text-anchor="middle" x="1099" y="-7.5" font-family="Ubuntu Regular" font-size="10.00">string</text>
</g>
<!-- Node3&#45;&gt;Node4 -->
<g id="edge3" class="edge"><title>Node3&#45;&gt;Node4</title>
<path fill="none" stroke="midnightblue" d="M911.589,-116.847C971.257,-111.293 1059.91,-99.3164 1084,-76 1096.21,-64.1795 1099.35,-44.5485 1099.81,-29.9477"/>
<polygon fill="midnightblue" stroke="midnightblue" points="1103.31,-29.5317 1099.72,-19.5618 1096.31,-29.5912 1103.31,-29.5317"/>
</g>
<!-- Node5 -->
<g id="node5" class="node"><title>Node5</title>
<polygon fill="white" stroke="#bfbfbf" points="830,-56.5 830,-75.5 880,-75.5 880,-56.5 830,-56.5"/>
<text text-anchor="middle" x="855" y="-63.5" font-family="Ubuntu Regular" font-size="10.00">cassert</text>
</g>
<!-- Node3&#45;&gt;Node5 -->
<g id="edge4" class="edge"><title>Node3&#45;&gt;Node5</title>
<path fill="none" stroke="midnightblue" d="M855,-112.083C855,-105.006 855,-94.8611 855,-85.9865"/>
<polygon fill="midnightblue" stroke="midnightblue" points="858.5,-85.751 855,-75.7511 851.5,-85.7511 858.5,-85.751"/>
</g>
<!-- Node6 -->
<g id="node6" class="node"><title>Node6</title>
<polygon fill="white" stroke="#bfbfbf" points="626,-56.5 626,-75.5 742,-75.5 742,-56.5 626,-56.5"/>
<text text-anchor="middle" x="684" y="-63.5" font-family="Ubuntu Regular" font-size="10.00">boost/filesystem.hpp</text>
</g>
<!-- Node3&#45;&gt;Node6 -->
<g id="edge5" class="edge"><title>Node3&#45;&gt;Node6</title>
<path fill="none" stroke="midnightblue" d="M827.905,-112.444C799.012,-103.32 753.075,-88.8133 720.895,-78.6509"/>
<polygon fill="midnightblue" stroke="midnightblue" points="721.559,-75.1903 710.969,-75.5164 719.451,-81.8654 721.559,-75.1903"/>
</g>
<!-- Node7 -->
<g id="node7" class="node"><title>Node7</title>
<g id="a_node7"><a xlink:href="exception_8hpp.html" target="_top" xlink:title="karazeh/exception.hpp">
<polygon fill="white" stroke="black" points="952.5,-56.5 952.5,-75.5 1075.5,-75.5 1075.5,-56.5 952.5,-56.5"/>
<text text-anchor="middle" x="1014" y="-63.5" font-family="Ubuntu Regular" font-size="10.00">karazeh/exception.hpp</text>
</a>
</g>
</g>
<!-- Node3&#45;&gt;Node7 -->
<g id="edge6" class="edge"><title>Node3&#45;&gt;Node7</title>
<path fill="none" stroke="midnightblue" d="M880.194,-112.444C906.943,-103.359 949.403,-88.9388 979.305,-78.7831"/>
<polygon fill="midnightblue" stroke="midnightblue" points="980.581,-82.0464 988.924,-75.5164 978.329,-75.4182 980.581,-82.0464"/>
</g>
<!-- Node7&#45;&gt;Node2 -->
<g id="edge10" class="edge"><title>Node7&#45;&gt;Node2</title>
<path fill="none" stroke="midnightblue" d="M952.22,-57.4808C947.411,-56.9575 942.628,-56.4572 938,-56 752.414,-37.6668 532.128,-21.9311 428.899,-14.9097"/>
<polygon fill="midnightblue" stroke="midnightblue" points="428.897,-11.4017 418.683,-14.2174 428.424,-18.3856 428.897,-11.4017"/>
</g>
<!-- Node7&#45;&gt;Node4 -->
<g id="edge8" class="edge"><title>Node7&#45;&gt;Node4</title>
<path fill="none" stroke="midnightblue" d="M1027.66,-56.324C1040.92,-47.9002 1061.27,-34.9709 1076.85,-25.0741"/>
<polygon fill="midnightblue" stroke="midnightblue" points="1078.81,-27.9711 1085.38,-19.6545 1075.06,-22.0626 1078.81,-27.9711"/>
</g>
<!-- Node8 -->
<g id="node8" class="node"><title>Node8</title>
<polygon fill="white" stroke="#bfbfbf" points="904.5,-0.5 904.5,-19.5 967.5,-19.5 967.5,-0.5 904.5,-0.5"/>
<text text-anchor="middle" x="936" y="-7.5" font-family="Ubuntu Regular" font-size="10.00">exception</text>
</g>
<!-- Node7&#45;&gt;Node8 -->
<g id="edge7" class="edge"><title>Node7&#45;&gt;Node8</title>
<path fill="none" stroke="midnightblue" d="M1001.47,-56.324C989.414,-47.979 970.973,-35.2122 956.731,-25.3524"/>
<polygon fill="midnightblue" stroke="midnightblue" points="958.715,-22.469 948.501,-19.6545 954.731,-28.2243 958.715,-22.469"/>
</g>
<!-- Node9 -->
<g id="node9" class="node"><title>Node9</title>
<polygon fill="white" stroke="#bfbfbf" points="985.5,-0.5 985.5,-19.5 1050.5,-19.5 1050.5,-0.5 985.5,-0.5"/>
<text text-anchor="middle" x="1018" y="-7.5" font-family="Ubuntu Regular" font-size="10.00">stdexcept</text>
</g>
<!-- Node7&#45;&gt;Node9 -->
<g id="edge9" class="edge"><title>Node7&#45;&gt;Node9</title>
<path fill="none" stroke="midnightblue" d="M1014.66,-56.083C1015.18,-49.0059 1015.94,-38.8611 1016.59,-29.9865"/>
<polygon fill="midnightblue" stroke="midnightblue" points="1020.1,-29.9823 1017.35,-19.7511 1013.12,-29.4652 1020.1,-29.9823"/>
</g>
<!-- Node10&#45;&gt;Node2 -->
<g id="edge15" class="edge"><title>Node10&#45;&gt;Node2</title>
<path fill="none" stroke="midnightblue" d="M242.834,-168.463C265.125,-161.712 292.847,-150.3 312,-132 327.751,-116.95 351.445,-59.3055 363.069,-29.3379"/>
<polygon fill="midnightblue" stroke="midnightblue" points="366.46,-30.27 366.768,-19.6796 359.923,-27.7662 366.46,-30.27"/>
</g>
<!-- Node10&#45;&gt;Node3 -->
<g id="edge16" class="edge"><title>Node10&#45;&gt;Node3</title>
<path fill="none" stroke="midnightblue" d="M259.663,-172.535C377.494,-162.731 658.618,-139.34 787.883,-128.584"/>
<polygon fill="midnightblue" stroke="midnightblue" points="788.369,-132.056 798.045,-127.739 787.789,-125.08 788.369,-132.056"/>
</g>
<!-- Node11 -->
<g id="node11" class="node"><title>Node11</title>
<polygon fill="white" stroke="#bfbfbf" points="179.5,-112.5 179.5,-131.5 232.5,-131.5 232.5,-112.5 179.5,-112.5"/>
<text text-anchor="middle" x="206" y="-119.5" font-family="Ubuntu Regular" font-size="10.00">sstream</text>
</g>
<!-- Node10&#45;&gt;Node11 -->
<g id="edge12" class="edge"><title>Node10&#45;&gt;Node11</title>
<path fill="none" stroke="midnightblue" d="M206,-168.083C206,-161.006 206,-150.861 206,-141.986"/>
<polygon fill="midnightblue" stroke="midnightblue" points="209.5,-141.751 206,-131.751 202.5,-141.751 209.5,-141.751"/>
</g>
<!-- Node12 -->
<g id="node12" class="node"><title>Node12</title>
<polygon fill="white" stroke="#bfbfbf" points="250.5,-112.5 250.5,-131.5 303.5,-131.5 303.5,-112.5 250.5,-112.5"/>
<text text-anchor="middle" x="277" y="-119.5" font-family="Ubuntu Regular" font-size="10.00">fstream</text>
</g>
<!-- Node10&#45;&gt;Node12 -->
<g id="edge13" class="edge"><title>Node10&#45;&gt;Node12</title>
<path fill="none" stroke="midnightblue" d="M217.407,-168.324C228.109,-160.185 244.341,-147.839 257.163,-138.087"/>
<polygon fill="midnightblue" stroke="midnightblue" points="259.544,-140.673 265.385,-131.834 255.307,-135.102 259.544,-140.673"/>
</g>
<!-- Node13 -->
<g id="node13" class="node"><title>Node13</title>
<polygon fill="white" stroke="#bfbfbf" points="104.5,-112.5 104.5,-131.5 161.5,-131.5 161.5,-112.5 104.5,-112.5"/>
<text text-anchor="middle" x="133" y="-119.5" font-family="Ubuntu Regular" font-size="10.00">iostream</text>
</g>
<!-- Node10&#45;&gt;Node13 -->
<g id="edge14" class="edge"><title>Node10&#45;&gt;Node13</title>
<path fill="none" stroke="midnightblue" d="M194.271,-168.324C183.163,-160.107 166.258,-147.602 153.017,-137.807"/>
<polygon fill="midnightblue" stroke="midnightblue" points="155.063,-134.967 144.942,-131.834 150.9,-140.595 155.063,-134.967"/>
</g>
<!-- Node14&#45;&gt;Node2 -->
<g id="edge18" class="edge"><title>Node14&#45;&gt;Node2</title>
<path fill="none" stroke="midnightblue" d="M928.677,-224.094C933.846,-193.561 945.939,-92.9681 889,-56 851.14,-31.4195 556.703,-17.81 428.889,-13.0089"/>
<polygon fill="midnightblue" stroke="midnightblue" points="428.637,-9.49723 418.514,-12.6248 428.378,-16.4924 428.637,-9.49723"/>
</g>
<!-- Node14&#45;&gt;Node3 -->
<g id="edge19" class="edge"><title>Node14&#45;&gt;Node3</title>
<path fill="none" stroke="midnightblue" d="M921.35,-224.368C909.468,-206.215 881.706,-163.802 866.121,-139.99"/>
<polygon fill="midnightblue" stroke="midnightblue" points="869.029,-138.042 860.623,-131.591 863.172,-141.875 869.029,-138.042"/>
</g>
<!-- Node15&#45;&gt;Node2 -->
<g id="edge24" class="edge"><title>Node15&#45;&gt;Node2</title>
<path fill="none" stroke="midnightblue" d="M719.453,-280.438C735.767,-262.962 770,-221.258 770,-179 770,-179 770,-179 770,-121 770,-90.9022 773.981,-75.4353 751,-56 703.635,-15.9435 523.49,-10.3542 428.864,-10.2814"/>
<polygon fill="midnightblue" stroke="midnightblue" points="428.59,-6.78165 418.595,-10.2949 428.599,-13.7816 428.59,-6.78165"/>
</g>
<!-- Node15&#45;&gt;Node3 -->
<g id="edge25" class="edge"><title>Node15&#45;&gt;Node3</title>
<path fill="none" stroke="midnightblue" d="M730.149,-280.454C746.004,-272.668 768.382,-259.962 784,-244 799.999,-227.648 830.749,-170.141 845.986,-140.682"/>
<polygon fill="midnightblue" stroke="midnightblue" points="849.223,-142.04 850.679,-131.546 842.997,-138.842 849.223,-142.04"/>
</g>
<!-- Node15&#45;&gt;Node6 -->
<g id="edge22" class="edge"><title>Node15&#45;&gt;Node6</title>
<path fill="none" stroke="midnightblue" d="M711.907,-280.438C713.829,-260.571 717.692,-209.84 712,-168 707.985,-138.487 697.657,-105.423 690.73,-85.4149"/>
<polygon fill="midnightblue" stroke="midnightblue" points="693.941,-83.9981 687.294,-75.748 687.346,-86.3427 693.941,-83.9981"/>
</g>
<!-- Node15&#45;&gt;Node10 -->
<g id="edge26" class="edge"><title>Node15&#45;&gt;Node10</title>
<path fill="none" stroke="midnightblue" d="M645.781,-287.233C571.417,-283.797 446.84,-273.694 344,-244 301.625,-231.764 255.978,-207.938 229.252,-192.781"/>
<polygon fill="midnightblue" stroke="midnightblue" points="230.714,-189.585 220.302,-187.627 227.221,-195.65 230.714,-189.585"/>
</g>
<!-- Node15&#45;&gt;Node14 -->
<g id="edge38" class="edge"><title>Node15&#45;&gt;Node14</title>
<path fill="none" stroke="midnightblue" d="M745.226,-280.444C782.512,-271.122 842.269,-256.183 883.011,-245.997"/>
<polygon fill="midnightblue" stroke="midnightblue" points="884.082,-249.337 892.934,-243.516 882.384,-242.546 884.082,-249.337"/>
</g>
<!-- Node16 -->
<g id="node16" class="node"><title>Node16</title>
<polygon fill="white" stroke="#bfbfbf" points="640.5,-168.5 640.5,-187.5 703.5,-187.5 703.5,-168.5 640.5,-168.5"/>
<text text-anchor="middle" x="672" y="-175.5" font-family="Ubuntu Regular" font-size="10.00">curl/curl.h</text>
</g>
<!-- Node15&#45;&gt;Node16 -->
<g id="edge21" class="edge"><title>Node15&#45;&gt;Node16</title>
<path fill="none" stroke="midnightblue" d="M707.94,-280.368C701.618,-262.537 686.996,-221.295 678.478,-197.272"/>
<polygon fill="midnightblue" stroke="midnightblue" points="681.687,-195.847 675.046,-187.591 675.089,-198.186 681.687,-195.847"/>
</g>
<!-- Node17 -->
<g id="node17" class="node"><title>Node17</title>
<polygon fill="white" stroke="#bfbfbf" points="518,-168.5 518,-187.5 622,-187.5 622,-168.5 518,-168.5"/>
<text text-anchor="middle" x="570" y="-175.5" font-family="Ubuntu Regular" font-size="10.00">binreloc/binreloc.h</text>
</g>
<!-- Node15&#45;&gt;Node17 -->
<g id="edge23" class="edge"><title>Node15&#45;&gt;Node17</title>
<path fill="none" stroke="midnightblue" d="M699.936,-280.368C675.946,-261.653 618.902,-217.151 589.012,-193.832"/>
<polygon fill="midnightblue" stroke="midnightblue" points="591.05,-190.983 581.013,-187.591 586.744,-196.502 591.05,-190.983"/>
</g>
<!-- Node18 -->
<g id="node18" class="node"><title>Node18</title>
<g id="a_node18"><a xlink:href="hasher_8hpp.html" target="_top" xlink:title="karazeh/hasher.hpp">
<polygon fill="white" stroke="black" points="392.5,-168.5 392.5,-187.5 499.5,-187.5 499.5,-168.5 392.5,-168.5"/>
<text text-anchor="middle" x="446" y="-175.5" font-family="Ubuntu Regular" font-size="10.00">karazeh/hasher.hpp</text>
</a>
</g>
</g>
<!-- Node15&#45;&gt;Node18 -->
<g id="edge27" class="edge"><title>Node15&#45;&gt;Node18</title>
<path fill="none" stroke="midnightblue" d="M690.206,-280.368C643.571,-261.01 530.474,-214.065 476.131,-191.507"/>
<polygon fill="midnightblue" stroke="midnightblue" points="477.275,-188.193 466.698,-187.591 474.592,-194.658 477.275,-188.193"/>
</g>
<!-- Node15&#45;&gt;Node19 -->
<g id="edge30" class="edge"><title>Node15&#45;&gt;Node19</title>
<path fill="none" stroke="midnightblue" d="M665.049,-280.444C613.929,-270.925 531.346,-255.547 476.617,-245.356"/>
<polygon fill="midnightblue" stroke="midnightblue" points="477.208,-241.906 466.736,-243.516 475.927,-248.788 477.208,-241.906"/>
</g>
<!-- Node18&#45;&gt;Node2 -->
<g id="edge28" class="edge"><title>Node18&#45;&gt;Node2</title>
<path fill="none" stroke="midnightblue" d="M441.914,-168.075C429.847,-141.719 394.209,-63.878 378.086,-28.6608"/>
<polygon fill="midnightblue" stroke="midnightblue" points="381.268,-27.2035 373.923,-19.5681 374.903,-30.1175 381.268,-27.2035"/>
</g>
<!-- Node18&#45;&gt;Node3 -->
<g id="edge29" class="edge"><title>Node18&#45;&gt;Node3</title>
<path fill="none" stroke="midnightblue" d="M499.61,-169.295C502.786,-168.853 505.935,-168.418 509,-168 606.107,-154.75 718.672,-140.273 788.369,-131.414"/>
<polygon fill="midnightblue" stroke="midnightblue" points="788.855,-134.88 798.334,-130.148 787.973,-127.936 788.855,-134.88"/>
</g>
<!-- Node19&#45;&gt;Node2 -->
<g id="edge34" class="edge"><title>Node19&#45;&gt;Node2</title>
<path fill="none" stroke="midnightblue" d="M403.802,-224.386C390.749,-216.794 373.766,-204.389 366,-188 352.942,-160.444 362.528,-69.2772 367.502,-29.6564"/>
<polygon fill="midnightblue" stroke="midnightblue" points="370.998,-29.9079 368.813,-19.5408 364.056,-29.0076 370.998,-29.9079"/>
</g>
<!-- Node19&#45;&gt;Node3 -->
<g id="edge35" class="edge"><title>Node19&#45;&gt;Node3</title>
<path fill="none" stroke="midnightblue" d="M409.567,-224.476C393.241,-211.309 366.908,-185.699 383,-168 409.729,-138.602 664.614,-127.951 788.307,-124.491"/>
<polygon fill="midnightblue" stroke="midnightblue" points="788.518,-127.987 798.42,-124.216 788.328,-120.99 788.518,-127.987"/>
</g>
<!-- Node19&#45;&gt;Node6 -->
<g id="edge32" class="edge"><title>Node19&#45;&gt;Node6</title>
<path fill="none" stroke="midnightblue" d="M406.827,-224.371C388.17,-211.914 359.356,-188.172 374,-168 429.022,-92.2047 542.427,-72.1955 615.756,-67.5225"/>
<polygon fill="midnightblue" stroke="midnightblue" points="616.037,-71.0124 625.827,-66.9607 615.647,-64.0232 616.037,-71.0124"/>
</g>
<!-- Node19&#45;&gt;Node10 -->
<g id="edge36" class="edge"><title>Node19&#45;&gt;Node10</title>
<path fill="none" stroke="midnightblue" d="M386.933,-224.444C349.82,-215.122 290.339,-200.183 249.785,-189.997"/>
<polygon fill="midnightblue" stroke="midnightblue" points="250.459,-186.558 239.908,-187.516 248.754,-193.347 250.459,-186.558"/>
</g>
<!-- Node19&#45;&gt;Node16 -->
<g id="edge31" class="edge"><title>Node19&#45;&gt;Node16</title>
<path fill="none" stroke="midnightblue" d="M461.271,-224.433C501.49,-215.863 565.35,-202.218 630.224,-188.16"/>
<polygon fill="midnightblue" stroke="midnightblue" points="631.188,-191.532 640.219,-185.993 629.705,-184.691 631.188,-191.532"/>
</g>
<!-- Node19&#45;&gt;Node17 -->
<g id="edge33" class="edge"><title>Node19&#45;&gt;Node17</title>
<path fill="none" stroke="midnightblue" d="M444.609,-224.444C469.458,-215.438 508.774,-201.189 536.754,-191.049"/>
<polygon fill="midnightblue" stroke="midnightblue" points="538.292,-194.214 546.501,-187.516 535.907,-187.633 538.292,-194.214"/>
</g>
<!-- Node19&#45;&gt;Node18 -->
<g id="edge37" class="edge"><title>Node19&#45;&gt;Node18</title>
<path fill="none" stroke="midnightblue" d="M425.128,-224.083C428.514,-216.77 433.416,-206.181 437.619,-197.103"/>
<polygon fill="midnightblue" stroke="midnightblue" points="440.923,-198.296 441.949,-187.751 434.571,-195.355 440.923,-198.296"/>
</g>
<!-- Node20&#45;&gt;Node2 -->
<g id="edge42" class="edge"><title>Node20&#45;&gt;Node2</title>
<path fill="none" stroke="midnightblue" d="M684.176,-397.235C497.184,-387.154 38,-355.8 38,-291 38,-291 38,-291 38,-121 38,-81.3821 64.0595,-74.6746 99,-56 134.807,-36.862 242.856,-23.2758 311.216,-16.3218"/>
<polygon fill="midnightblue" stroke="midnightblue" points="311.812,-19.7798 321.414,-15.3035 311.116,-12.8145 311.812,-19.7798"/>
</g>
<!-- Node20&#45;&gt;Node3 -->
<g id="edge43" class="edge"><title>Node20&#45;&gt;Node3</title>
<path fill="none" stroke="midnightblue" d="M788.622,-392.369C839.187,-374.314 947.667,-327.181 988,-244 1012.54,-193.389 936.648,-154.08 889.544,-135.235"/>
<polygon fill="midnightblue" stroke="midnightblue" points="890.565,-131.877 879.976,-131.528 888.036,-138.405 890.565,-131.877"/>
</g>
<!-- Node21 -->
<g id="node21" class="node"><title>Node21</title>
<polygon fill="white" stroke="#bfbfbf" points="790.5,-336.5 790.5,-355.5 837.5,-355.5 837.5,-336.5 790.5,-336.5"/>
<text text-anchor="middle" x="814" y="-343.5" font-family="Ubuntu Regular" font-size="10.00">vector</text>
</g>
<!-- Node20&#45;&gt;Node21 -->
<g id="edge41" class="edge"><title>Node20&#45;&gt;Node21</title>
<path fill="none" stroke="midnightblue" d="M770.587,-392.083C778.159,-384.22 789.378,-372.569 798.514,-363.081"/>
<polygon fill="midnightblue" stroke="midnightblue" points="801.158,-365.382 805.573,-355.751 796.115,-360.527 801.158,-365.382"/>
</g>
<!-- Node22 -->
<g id="node22" class="node"><title>Node22</title>
<g id="a_node22"><a xlink:href="operation_8hpp.html" target="_top" xlink:title="karazeh/operation.hpp">
<polygon fill="white" stroke="black" points="650,-336.5 650,-355.5 772,-355.5 772,-336.5 650,-336.5"/>
<text text-anchor="middle" x="711" y="-343.5" font-family="Ubuntu Regular" font-size="10.00">karazeh/operation.hpp</text>
</a>
</g>
</g>
<!-- Node20&#45;&gt;Node22 -->
<g id="edge44" class="edge"><title>Node20&#45;&gt;Node22</title>
<path fill="none" stroke="midnightblue" d="M753.578,-392.083C746.152,-384.22 735.148,-372.569 726.188,-363.081"/>
<polygon fill="midnightblue" stroke="midnightblue" points="728.676,-360.618 719.265,-355.751 723.587,-365.424 728.676,-360.618"/>
</g>
<!-- Node22&#45;&gt;Node2 -->
<g id="edge45" class="edge"><title>Node22&#45;&gt;Node2</title>
<path fill="none" stroke="midnightblue" d="M649.783,-341.45C539.097,-332.323 302.404,-300.142 143,-188 116.189,-169.139 106.373,-162.744 95,-132 61.4564,-41.323 220.655,-18.5213 311.071,-12.842"/>
<polygon fill="midnightblue" stroke="midnightblue" points="311.421,-16.3277 321.204,-12.2587 311.019,-9.33927 311.421,-16.3277"/>
</g>
<!-- Node22&#45;&gt;Node3 -->
<g id="edge46" class="edge"><title>Node22&#45;&gt;Node3</title>
<path fill="none" stroke="midnightblue" d="M732.313,-336.429C748.621,-328.933 770.676,-316.636 785,-300 826.262,-252.08 844.951,-176.896 851.758,-141.986"/>
<polygon fill="midnightblue" stroke="midnightblue" points="855.266,-142.256 853.626,-131.789 848.381,-140.995 855.266,-142.256"/>
</g>
<!-- Node22&#45;&gt;Node14 -->
<g id="edge47" class="edge"><title>Node22&#45;&gt;Node14</title>
<path fill="none" stroke="midnightblue" d="M759.684,-336.438C790.017,-329.658 829.024,-318.224 860,-300 881.485,-287.36 901.339,-266.444 913.766,-251.76"/>
<polygon fill="midnightblue" stroke="midnightblue" points="916.542,-253.895 920.181,-243.944 911.131,-249.454 916.542,-253.895"/>
</g>
<!-- Node22&#45;&gt;Node15 -->
<g id="edge48" class="edge"><title>Node22&#45;&gt;Node15</title>
<path fill="none" stroke="midnightblue" d="M711,-336.083C711,-329.006 711,-318.861 711,-309.986"/>
<polygon fill="midnightblue" stroke="midnightblue" points="714.5,-309.751 711,-299.751 707.5,-309.751 714.5,-309.751"/>
</g>
<!-- Node22&#45;&gt;Node19 -->
<g id="edge49" class="edge"><title>Node22&#45;&gt;Node19</title>
<path fill="none" stroke="midnightblue" d="M688.244,-336.368C636.998,-316.93 512.414,-269.674 453.237,-247.228"/>
<polygon fill="midnightblue" stroke="midnightblue" points="454.241,-243.866 443.65,-243.591 451.759,-250.411 454.241,-243.866"/>
</g>
</g>
</svg>
