<?xml version="1.0" encoding="UTF-8" standalone="no"?>
<!DOCTYPE svg PUBLIC "-//W3C//DTD SVG 1.1//EN"
 "http://www.w3.org/Graphics/SVG/1.1/DTD/svg11.dtd">
<!-- Generated by graphviz version 2.38.0 (20140413.2041)
 -->
<!-- Title: include/karazeh/patcher.hpp Pages: 1 -->
<svg width="272pt" height="84pt"
 viewBox="0.00 0.00 272.00 84.00" xmlns="http://www.w3.org/2000/svg" xmlns:xlink="http://www.w3.org/1999/xlink">
<g id="graph0" class="graph" transform="scale(1 1) rotate(0) translate(4 80)">
<title>include/karazeh/patcher.hpp</title>
<polygon fill="white" stroke="none" points="-4,4 -4,-80 268,-80 268,4 -4,4"/>
<!-- Node1 -->
<g id="node1" class="node"><title>Node1</title>
<polygon fill="#bfbfbf" stroke="black" points="74,-56.5 74,-75.5 223,-75.5 223,-56.5 74,-56.5"/>
<text text-anchor="middle" x="148.5" y="-63.5" font-family="Ubuntu Regular" font-size="10.00">include/karazeh/patcher.hpp</text>
</g>
<!-- Node2 -->
<g id="node2" class="node"><title>Node2</title>
<g id="a_node2"><a xlink:href="patcher_8test_8cpp.html" target="_top" xlink:title="src/__tests__/patcher.test.cpp">
<polygon fill="white" stroke="black" points="0,-0.5 0,-19.5 157,-19.5 157,-0.5 0,-0.5"/>
<text text-anchor="middle" x="78.5" y="-7.5" font-family="Ubuntu Regular" font-size="10.00">src/__tests__/patcher.test.cpp</text>
</a>
</g>
</g>
<!-- Node1&#45;&gt;Node2 -->
<g id="edge1" class="edge"><title>Node1&#45;&gt;Node2</title>
<path fill="none" stroke="midnightblue" d="M129.186,-50.1008C116.588,-40.3824 100.572,-28.0269 89.9513,-19.8339"/>
<polygon fill="midnightblue" stroke="midnightblue" points="127.198,-52.9871 137.253,-56.324 131.473,-47.4446 127.198,-52.9871"/>
</g>
<!-- Node3 -->
<g id="node3" class="node"><title>Node3</title>
<g id="a_node3"><a xlink:href="patcher_8cpp.html" target="_top" xlink:title="src/patcher.cpp">
<polygon fill="white" stroke="black" points="175,-0.5 175,-19.5 264,-19.5 264,-0.5 175,-0.5"/>
<text text-anchor="middle" x="219.5" y="-7.5" font-family="Ubuntu Regular" font-size="10.00">src/patcher.cpp</text>
</a>
</g>
</g>
<!-- Node1&#45;&gt;Node3 -->
<g id="edge2" class="edge"><title>Node1&#45;&gt;Node3</title>
<path fill="none" stroke="midnightblue" d="M168.09,-50.1008C180.868,-40.3824 197.113,-28.0269 207.885,-19.8339"/>
<polygon fill="midnightblue" stroke="midnightblue" points="165.748,-47.4844 159.907,-56.324 169.986,-53.0561 165.748,-47.4844"/>
</g>
</g>
</svg>
