<?xml version="1.0" encoding="UTF-8" standalone="no"?>
<!DOCTYPE svg PUBLIC "-//W3C//DTD SVG 1.1//EN"
 "http://www.w3.org/Graphics/SVG/1.1/DTD/svg11.dtd">
<!-- Generated by graphviz version 2.38.0 (20140413.2041)
 -->
<!-- Title: include/karazeh/path_resolver.hpp Pages: 1 -->
<svg width="583pt" height="263pt"
 viewBox="0.00 0.00 582.95 263.00" xmlns="http://www.w3.org/2000/svg" xmlns:xlink="http://www.w3.org/1999/xlink">
<g id="graph0" class="graph" transform="scale(1 1) rotate(0) translate(4 259)">
<title>include/karazeh/path_resolver.hpp</title>
<polygon fill="white" stroke="none" points="-4,4 -4,-259 578.951,-259 578.951,4 -4,4"/>
<!-- Node1 -->
<g id="node1" class="node"><title>Node1</title>
<polygon fill="#bfbfbf" stroke="black" points="260.5,-224.5 260.5,-254.5 375.5,-254.5 375.5,-224.5 260.5,-224.5"/>
<text text-anchor="start" x="268.5" y="-242.5" font-family="Ubuntu Regular" font-size="10.00">include/karazeh/path</text>
<text text-anchor="middle" x="318" y="-231.5" font-family="Ubuntu Regular" font-size="10.00">_resolver.hpp</text>
</g>
<!-- Node2 -->
<g id="node2" class="node"><title>Node2</title>
<polygon fill="white" stroke="#bfbfbf" points="104,-168.5 104,-187.5 208,-187.5 208,-168.5 104,-168.5"/>
<text text-anchor="middle" x="156" y="-175.5" font-family="Ubuntu Regular" font-size="10.00">binreloc/binreloc.h</text>
</g>
<!-- Node1&#45;&gt;Node2 -->
<g id="edge1" class="edge"><title>Node1&#45;&gt;Node2</title>
<path fill="none" stroke="midnightblue" d="M279.608,-224.399C252.063,-214.283 215.329,-200.791 189.079,-191.149"/>
<polygon fill="midnightblue" stroke="midnightblue" points="190.166,-187.82 179.572,-187.658 187.753,-194.391 190.166,-187.82"/>
</g>
<!-- Node3 -->
<g id="node3" class="node"><title>Node3</title>
<polygon fill="white" stroke="#bfbfbf" points="444.5,-0.5 444.5,-19.5 541.5,-19.5 541.5,-0.5 444.5,-0.5"/>
<text text-anchor="middle" x="493" y="-7.5" font-family="Ubuntu Regular" font-size="10.00">karazeh_export.h</text>
</g>
<!-- Node1&#45;&gt;Node3 -->
<g id="edge2" class="edge"><title>Node1&#45;&gt;Node3</title>
<path fill="none" stroke="midnightblue" d="M375.741,-235.376C439.987,-228.247 539.092,-205.282 572,-132 580.965,-112.037 565.426,-65.3876 559,-56 549.708,-42.4245 534.856,-31.7677 521.591,-24.2398"/>
<polygon fill="midnightblue" stroke="midnightblue" points="523.222,-21.1426 512.75,-19.5305 519.931,-27.3208 523.222,-21.1426"/>
</g>
<!-- Node4 -->
<g id="node4" class="node"><title>Node4</title>
<g id="a_node4"><a xlink:href="karazeh_8hpp.html" target="_top" xlink:title="karazeh/karazeh.hpp">
<polygon fill="white" stroke="black" points="176.5,-112.5 176.5,-131.5 289.5,-131.5 289.5,-112.5 176.5,-112.5"/>
<text text-anchor="middle" x="233" y="-119.5" font-family="Ubuntu Regular" font-size="10.00">karazeh/karazeh.hpp</text>
</a>
</g>
</g>
<!-- Node1&#45;&gt;Node4 -->
<g id="edge3" class="edge"><title>Node1&#45;&gt;Node4</title>
<path fill="none" stroke="midnightblue" d="M294.978,-224.356C281.976,-215.35 266.313,-202.641 256,-188 246.1,-173.946 240.07,-155.205 236.682,-141.458"/>
<polygon fill="midnightblue" stroke="midnightblue" points="240.097,-140.69 234.509,-131.689 233.264,-142.21 240.097,-140.69"/>
</g>
<!-- Node11 -->
<g id="node11" class="node"><title>Node11</title>
<g id="a_node11"><a xlink:href="logger_8hpp.html" target="_top" xlink:title="karazeh/logger.hpp">
<polygon fill="white" stroke="black" points="392.5,-168.5 392.5,-187.5 499.5,-187.5 499.5,-168.5 392.5,-168.5"/>
<text text-anchor="middle" x="446" y="-175.5" font-family="Ubuntu Regular" font-size="10.00">karazeh/logger.hpp</text>
</a>
</g>
</g>
<!-- Node1&#45;&gt;Node11 -->
<g id="edge12" class="edge"><title>Node1&#45;&gt;Node11</title>
<path fill="none" stroke="midnightblue" d="M348.334,-224.399C369.523,-214.55 397.594,-201.501 418.202,-191.922"/>
<polygon fill="midnightblue" stroke="midnightblue" points="419.782,-195.047 427.375,-187.658 416.831,-188.699 419.782,-195.047"/>
</g>
<!-- Node15 -->
<g id="node15" class="node"><title>Node15</title>
<g id="a_node15"><a xlink:href="hasher_8hpp.html" target="_top" xlink:title="karazeh/hasher.hpp">
<polygon fill="white" stroke="black" points="264.5,-168.5 264.5,-187.5 371.5,-187.5 371.5,-168.5 264.5,-168.5"/>
<text text-anchor="middle" x="318" y="-175.5" font-family="Ubuntu Regular" font-size="10.00">karazeh/hasher.hpp</text>
</a>
</g>
</g>
<!-- Node1&#45;&gt;Node15 -->
<g id="edge18" class="edge"><title>Node1&#45;&gt;Node15</title>
<path fill="none" stroke="midnightblue" d="M318,-224.399C318,-216.466 318,-206.458 318,-197.858"/>
<polygon fill="midnightblue" stroke="midnightblue" points="321.5,-197.658 318,-187.658 314.5,-197.658 321.5,-197.658"/>
</g>
<!-- Node5 -->
<g id="node5" class="node"><title>Node5</title>
<polygon fill="white" stroke="#bfbfbf" points="91.5,-0.5 91.5,-19.5 134.5,-19.5 134.5,-0.5 91.5,-0.5"/>
<text text-anchor="middle" x="113" y="-7.5" font-family="Ubuntu Regular" font-size="10.00">string</text>
</g>
<!-- Node4&#45;&gt;Node5 -->
<g id="edge4" class="edge"><title>Node4&#45;&gt;Node5</title>
<path fill="none" stroke="midnightblue" d="M176.218,-117.384C147.532,-112.337 115.059,-100.998 97,-76 86.9361,-62.0696 93.8374,-42.5444 101.462,-28.5361"/>
<polygon fill="midnightblue" stroke="midnightblue" points="104.525,-30.234 106.657,-19.8559 98.5186,-26.6392 104.525,-30.234"/>
</g>
<!-- Node6 -->
<g id="node6" class="node"><title>Node6</title>
<polygon fill="white" stroke="#bfbfbf" points="0,-56.5 0,-75.5 50,-75.5 50,-56.5 0,-56.5"/>
<text text-anchor="middle" x="25" y="-63.5" font-family="Ubuntu Regular" font-size="10.00">cassert</text>
</g>
<!-- Node4&#45;&gt;Node6 -->
<g id="edge5" class="edge"><title>Node4&#45;&gt;Node6</title>
<path fill="none" stroke="midnightblue" d="M200.042,-112.444C161.871,-102.534 99.2419,-86.2743 60.1591,-76.1278"/>
<polygon fill="midnightblue" stroke="midnightblue" points="60.8386,-72.6883 50.2799,-73.5631 59.0795,-79.4637 60.8386,-72.6883"/>
</g>
<!-- Node7 -->
<g id="node7" class="node"><title>Node7</title>
<polygon fill="white" stroke="#bfbfbf" points="106,-56.5 106,-75.5 222,-75.5 222,-56.5 106,-56.5"/>
<text text-anchor="middle" x="164" y="-63.5" font-family="Ubuntu Regular" font-size="10.00">boost/filesystem.hpp</text>
</g>
<!-- Node4&#45;&gt;Node7 -->
<g id="edge6" class="edge"><title>Node4&#45;&gt;Node7</title>
<path fill="none" stroke="midnightblue" d="M221.914,-112.324C211.514,-104.185 195.739,-91.8395 183.278,-82.0874"/>
<polygon fill="midnightblue" stroke="midnightblue" points="185.32,-79.2407 175.288,-75.8339 181.006,-84.7533 185.32,-79.2407"/>
</g>
<!-- Node8 -->
<g id="node8" class="node"><title>Node8</title>
<g id="a_node8"><a xlink:href="exception_8hpp.html" target="_top" xlink:title="karazeh/exception.hpp">
<polygon fill="white" stroke="black" points="240.5,-56.5 240.5,-75.5 363.5,-75.5 363.5,-56.5 240.5,-56.5"/>
<text text-anchor="middle" x="302" y="-63.5" font-family="Ubuntu Regular" font-size="10.00">karazeh/exception.hpp</text>
</a>
</g>
</g>
<!-- Node4&#45;&gt;Node8 -->
<g id="edge7" class="edge"><title>Node4&#45;&gt;Node8</title>
<path fill="none" stroke="midnightblue" d="M244.086,-112.324C254.486,-104.185 270.261,-91.8395 282.722,-82.0874"/>
<polygon fill="midnightblue" stroke="midnightblue" points="284.994,-84.7533 290.712,-75.8339 280.68,-79.2407 284.994,-84.7533"/>
</g>
<!-- Node8&#45;&gt;Node3 -->
<g id="edge11" class="edge"><title>Node8&#45;&gt;Node3</title>
<path fill="none" stroke="midnightblue" d="M332.265,-56.4435C364.955,-47.2011 417.182,-32.4356 453.183,-22.2572"/>
<polygon fill="midnightblue" stroke="midnightblue" points="454.206,-25.6051 462.877,-19.5164 452.302,-18.8691 454.206,-25.6051"/>
</g>
<!-- Node8&#45;&gt;Node5 -->
<g id="edge9" class="edge"><title>Node8&#45;&gt;Node5</title>
<path fill="none" stroke="midnightblue" d="M272.052,-56.4435C237.19,-46.4827 179.874,-30.1068 144.401,-19.9717"/>
<polygon fill="midnightblue" stroke="midnightblue" points="145.154,-16.5468 134.577,-17.1649 143.231,-23.2775 145.154,-16.5468"/>
</g>
<!-- Node9 -->
<g id="node9" class="node"><title>Node9</title>
<polygon fill="white" stroke="#bfbfbf" points="311.5,-0.5 311.5,-19.5 374.5,-19.5 374.5,-0.5 311.5,-0.5"/>
<text text-anchor="middle" x="343" y="-7.5" font-family="Ubuntu Regular" font-size="10.00">exception</text>
</g>
<!-- Node8&#45;&gt;Node9 -->
<g id="edge8" class="edge"><title>Node8&#45;&gt;Node9</title>
<path fill="none" stroke="midnightblue" d="M308.77,-56.083C314.562,-48.4554 323.058,-37.2645 330.138,-27.9408"/>
<polygon fill="midnightblue" stroke="midnightblue" points="333.096,-29.8321 336.356,-19.7511 327.521,-25.5991 333.096,-29.8321"/>
</g>
<!-- Node10 -->
<g id="node10" class="node"><title>Node10</title>
<polygon fill="white" stroke="#bfbfbf" points="228.5,-0.5 228.5,-19.5 293.5,-19.5 293.5,-0.5 228.5,-0.5"/>
<text text-anchor="middle" x="261" y="-7.5" font-family="Ubuntu Regular" font-size="10.00">stdexcept</text>
</g>
<!-- Node8&#45;&gt;Node10 -->
<g id="edge10" class="edge"><title>Node8&#45;&gt;Node10</title>
<path fill="none" stroke="midnightblue" d="M295.23,-56.083C289.438,-48.4554 280.942,-37.2645 273.862,-27.9408"/>
<polygon fill="midnightblue" stroke="midnightblue" points="276.479,-25.5991 267.644,-19.7511 270.904,-29.8321 276.479,-25.5991"/>
</g>
<!-- Node11&#45;&gt;Node3 -->
<g id="edge16" class="edge"><title>Node11&#45;&gt;Node3</title>
<path fill="none" stroke="midnightblue" d="M498.279,-168.478C519.592,-162.151 542.193,-151.143 555,-132 578.924,-96.2408 537.349,-50.0619 511.418,-26.4293"/>
<polygon fill="midnightblue" stroke="midnightblue" points="513.469,-23.5723 503.651,-19.5904 508.843,-28.8258 513.469,-23.5723"/>
</g>
<!-- Node11&#45;&gt;Node4 -->
<g id="edge17" class="edge"><title>Node11&#45;&gt;Node4</title>
<path fill="none" stroke="midnightblue" d="M412.25,-168.444C375.482,-159.122 316.554,-144.183 276.378,-133.997"/>
<polygon fill="midnightblue" stroke="midnightblue" points="277.146,-130.581 266.593,-131.516 275.426,-137.367 277.146,-130.581"/>
</g>
<!-- Node12 -->
<g id="node12" class="node"><title>Node12</title>
<polygon fill="white" stroke="#bfbfbf" points="421.5,-112.5 421.5,-131.5 474.5,-131.5 474.5,-112.5 421.5,-112.5"/>
<text text-anchor="middle" x="448" y="-119.5" font-family="Ubuntu Regular" font-size="10.00">sstream</text>
</g>
<!-- Node11&#45;&gt;Node12 -->
<g id="edge13" class="edge"><title>Node11&#45;&gt;Node12</title>
<path fill="none" stroke="midnightblue" d="M446.33,-168.083C446.592,-161.006 446.968,-150.861 447.297,-141.986"/>
<polygon fill="midnightblue" stroke="midnightblue" points="450.803,-141.874 447.676,-131.751 443.808,-141.615 450.803,-141.874"/>
</g>
<!-- Node13 -->
<g id="node13" class="node"><title>Node13</title>
<polygon fill="white" stroke="#bfbfbf" points="492.5,-112.5 492.5,-131.5 545.5,-131.5 545.5,-112.5 492.5,-112.5"/>
<text text-anchor="middle" x="519" y="-119.5" font-family="Ubuntu Regular" font-size="10.00">fstream</text>
</g>
<!-- Node11&#45;&gt;Node13 -->
<g id="edge14" class="edge"><title>Node11&#45;&gt;Node13</title>
<path fill="none" stroke="midnightblue" d="M457.729,-168.324C468.837,-160.107 485.742,-147.602 498.983,-137.807"/>
<polygon fill="midnightblue" stroke="midnightblue" points="501.1,-140.595 507.058,-131.834 496.937,-134.967 501.1,-140.595"/>
</g>
<!-- Node14 -->
<g id="node14" class="node"><title>Node14</title>
<polygon fill="white" stroke="#bfbfbf" points="346.5,-112.5 346.5,-131.5 403.5,-131.5 403.5,-112.5 346.5,-112.5"/>
<text text-anchor="middle" x="375" y="-119.5" font-family="Ubuntu Regular" font-size="10.00">iostream</text>
</g>
<!-- Node11&#45;&gt;Node14 -->
<g id="edge15" class="edge"><title>Node11&#45;&gt;Node14</title>
<path fill="none" stroke="midnightblue" d="M434.593,-168.324C423.891,-160.185 407.659,-147.839 394.837,-138.087"/>
<polygon fill="midnightblue" stroke="midnightblue" points="396.693,-135.102 386.615,-131.834 392.456,-140.673 396.693,-135.102"/>
</g>
<!-- Node15&#45;&gt;Node3 -->
<g id="edge19" class="edge"><title>Node15&#45;&gt;Node3</title>
<path fill="none" stroke="midnightblue" d="M318.805,-168.148C320.414,-154.774 325.066,-129.16 338,-112 370.338,-69.0966 426.593,-39.1388 461.703,-23.5264"/>
<polygon fill="midnightblue" stroke="midnightblue" points="463.217,-26.6849 471.007,-19.5044 460.439,-20.2595 463.217,-26.6849"/>
</g>
<!-- Node15&#45;&gt;Node4 -->
<g id="edge20" class="edge"><title>Node15&#45;&gt;Node4</title>
<path fill="none" stroke="midnightblue" d="M304.343,-168.324C291.084,-159.9 270.732,-146.971 255.154,-137.074"/>
<polygon fill="midnightblue" stroke="midnightblue" points="256.94,-134.063 246.623,-131.655 253.187,-139.971 256.94,-134.063"/>
</g>
</g>
</svg>
