<?xml version="1.0" encoding="UTF-8" standalone="no"?>
<!DOCTYPE svg PUBLIC "-//W3C//DTD SVG 1.1//EN"
 "http://www.w3.org/Graphics/SVG/1.1/DTD/svg11.dtd">
<!-- Generated by graphviz version 2.38.0 (20140413.2041)
 -->
<!-- Title: src/path_resolver.cpp Pages: 1 -->
<!--zoomable 308 -->
<svg id="main" version="1.1" xmlns="http://www.w3.org/2000/svg" xmlns:xlink="http://www.w3.org/1999/xlink" xml:space="preserve" onload="init(evt)">
<style type="text/css"><![CDATA[
.edge:hover path { stroke: red; }
.edge:hover polygon { stroke: red; fill: red; }
]]></style>
<script type="text/javascript"><![CDATA[
var edges = document.getElementsByTagName('g');
if (edges && edges.length) {
  for (var i=0;i<edges.length;i++) {
    if (edges[i].id.substr(0,4)=='edge') {
      edges[i].setAttribute('class','edge');
    }
  }
}
]]></script>
        <defs>
                <circle id="rim" cx="0" cy="0" r="7"/>
                <circle id="rim2" cx="0" cy="0" r="3.5"/>
                <g id="zoomPlus">
                        <use xlink:href="#rim" fill="#404040">
                                <set attributeName="fill" to="#808080" begin="zoomplus.mouseover" end="zoomplus.mouseout"/>
                        </use>
                        <path d="M-4,0h8M0,-4v8" fill="none" stroke="white" stroke-width="1.5" pointer-events="none"/>
                </g>
                <g id="zoomMin">
                        <use xlink:href="#rim" fill="#404040">
                                <set attributeName="fill" to="#808080" begin="zoomminus.mouseover" end="zoomminus.mouseout"/>
                        </use>
                        <path d="M-4,0h8" fill="none" stroke="white" stroke-width="1.5" pointer-events="none"/>
                </g>
                <g id="dirArrow">
                        <path fill="none" stroke="white" stroke-width="1.5" d="M0,-3.0v7 M-2.5,-0.5L0,-3.0L2.5,-0.5"/>
                </g>
               <g id="resetDef">
                       <use xlink:href="#rim2" fill="#404040">
                               <set attributeName="fill" to="#808080" begin="reset.mouseover" end="reset.mouseout"/>
                       </use>
               </g>
        </defs>

<script type="text/javascript">
var viewWidth = 672;
var viewHeight = 308;
var sectionId = 'dynsection-0';
</script>
<script xlink:href="svgpan.js"/>
<svg id="graph" class="graph">
<g id="viewport">
<title>src/path_resolver.cpp</title>
<polygon fill="white" stroke="none" points="-4,4 -4,-304 668,-304 668,4 -4,4"/>
<!-- Node1 -->
<g id="node1" class="node"><title>Node1</title>
<polygon fill="#bfbfbf" stroke="black" points="435.5,-280.5 435.5,-299.5 552.5,-299.5 552.5,-280.5 435.5,-280.5"/>
<text text-anchor="middle" x="494" y="-287.5" font-family="Ubuntu Regular" font-size="10.00">src/path_resolver.cpp</text>
</g>
<!-- Node2 -->
<g id="node2" class="node"><title>Node2</title>
<g id="a_node2"><a xlink:href="path__resolver_8hpp.html" target="_top" xlink:title="karazeh/path_resolver.hpp">
<polygon fill="white" stroke="black" points="248,-224.5 248,-243.5 388,-243.5 388,-224.5 248,-224.5"/>
<text text-anchor="middle" x="318" y="-231.5" font-family="Ubuntu Regular" font-size="10.00">karazeh/path_resolver.hpp</text>
</a>
</g>
</g>
<!-- Node1&#45;&gt;Node2 -->
<g id="edge1" class="edge"><title>Node1&#45;&gt;Node2</title>
<path fill="none" stroke="midnightblue" d="M466.112,-280.444C436.246,-271.28 388.685,-256.688 355.544,-246.519"/>
<polygon fill="midnightblue" stroke="midnightblue" points="356.344,-243.104 345.757,-243.516 354.291,-249.796 356.344,-243.104"/>
</g>
<!-- Node17 -->
<g id="node17" class="node"><title>Node17</title>
<polygon fill="white" stroke="#bfbfbf" points="406,-224.5 406,-243.5 582,-243.5 582,-224.5 406,-224.5"/>
<text text-anchor="middle" x="494" y="-231.5" font-family="Ubuntu Regular" font-size="10.00">CoreFoundation/CoreFoundation.h</text>
</g>
<!-- Node1&#45;&gt;Node17 -->
<g id="edge22" class="edge"><title>Node1&#45;&gt;Node17</title>
<path fill="none" stroke="midnightblue" d="M494,-280.083C494,-273.006 494,-262.861 494,-253.986"/>
<polygon fill="midnightblue" stroke="midnightblue" points="497.5,-253.751 494,-243.751 490.5,-253.751 497.5,-253.751"/>
</g>
<!-- Node18 -->
<g id="node18" class="node"><title>Node18</title>
<polygon fill="white" stroke="#bfbfbf" points="600,-224.5 600,-243.5 664,-243.5 664,-224.5 600,-224.5"/>
<text text-anchor="middle" x="632" y="-231.5" font-family="Ubuntu Regular" font-size="10.00">Windows.h</text>
</g>
<!-- Node1&#45;&gt;Node18 -->
<g id="edge23" class="edge"><title>Node1&#45;&gt;Node18</title>
<path fill="none" stroke="midnightblue" d="M515.867,-280.444C538.779,-271.478 574.975,-257.314 600.866,-247.183"/>
<polygon fill="midnightblue" stroke="midnightblue" points="602.199,-250.42 610.236,-243.516 599.648,-243.901 602.199,-250.42"/>
</g>
<!-- Node3 -->
<g id="node3" class="node"><title>Node3</title>
<polygon fill="white" stroke="#bfbfbf" points="104,-168.5 104,-187.5 208,-187.5 208,-168.5 104,-168.5"/>
<text text-anchor="middle" x="156" y="-175.5" font-family="Ubuntu Regular" font-size="10.00">binreloc/binreloc.h</text>
</g>
<!-- Node2&#45;&gt;Node3 -->
<g id="edge2" class="edge"><title>Node2&#45;&gt;Node3</title>
<path fill="none" stroke="midnightblue" d="M292.331,-224.444C265.077,-215.359 221.816,-200.939 191.349,-190.783"/>
<polygon fill="midnightblue" stroke="midnightblue" points="192.143,-187.358 181.549,-187.516 189.929,-193.999 192.143,-187.358"/>
</g>
<!-- Node4 -->
<g id="node4" class="node"><title>Node4</title>
<polygon fill="white" stroke="#bfbfbf" points="444.5,-0.5 444.5,-19.5 541.5,-19.5 541.5,-0.5 444.5,-0.5"/>
<text text-anchor="middle" x="493" y="-7.5" font-family="Ubuntu Regular" font-size="10.00">karazeh_export.h</text>
</g>
<!-- Node2&#45;&gt;Node4 -->
<g id="edge3" class="edge"><title>Node2&#45;&gt;Node4</title>
<path fill="none" stroke="midnightblue" d="M388.073,-224.975C425.527,-218.637 471.511,-207.47 509,-188 542.246,-170.733 556.653,-166.175 572,-132 580.965,-112.037 565.426,-65.3876 559,-56 549.708,-42.4245 534.856,-31.7677 521.591,-24.2398"/>
<polygon fill="midnightblue" stroke="midnightblue" points="523.222,-21.1426 512.75,-19.5305 519.931,-27.3208 523.222,-21.1426"/>
</g>
<!-- Node5 -->
<g id="node5" class="node"><title>Node5</title>
<g id="a_node5"><a xlink:href="karazeh_8hpp.html" target="_top" xlink:title="karazeh/karazeh.hpp">
<polygon fill="white" stroke="black" points="176.5,-112.5 176.5,-131.5 289.5,-131.5 289.5,-112.5 176.5,-112.5"/>
<text text-anchor="middle" x="233" y="-119.5" font-family="Ubuntu Regular" font-size="10.00">karazeh/karazeh.hpp</text>
</a>
</g>
</g>
<!-- Node2&#45;&gt;Node5 -->
<g id="edge4" class="edge"><title>Node2&#45;&gt;Node5</title>
<path fill="none" stroke="midnightblue" d="M301.054,-224.465C287.173,-216.686 267.939,-203.984 256,-188 245.713,-174.227 239.729,-155.452 236.458,-141.621"/>
<polygon fill="midnightblue" stroke="midnightblue" points="239.871,-140.843 234.386,-131.778 233.022,-142.285 239.871,-140.843"/>
</g>
<!-- Node12 -->
<g id="node12" class="node"><title>Node12</title>
<g id="a_node12"><a xlink:href="logger_8hpp.html" target="_top" xlink:title="karazeh/logger.hpp">
<polygon fill="white" stroke="black" points="392.5,-168.5 392.5,-187.5 499.5,-187.5 499.5,-168.5 392.5,-168.5"/>
<text text-anchor="middle" x="446" y="-175.5" font-family="Ubuntu Regular" font-size="10.00">karazeh/logger.hpp</text>
</a>
</g>
</g>
<!-- Node2&#45;&gt;Node12 -->
<g id="edge13" class="edge"><title>Node2&#45;&gt;Node12</title>
<path fill="none" stroke="midnightblue" d="M338.282,-224.444C359.347,-215.557 392.517,-201.563 416.486,-191.451"/>
<polygon fill="midnightblue" stroke="midnightblue" points="417.96,-194.628 425.813,-187.516 415.239,-188.179 417.96,-194.628"/>
</g>
<!-- Node16 -->
<g id="node16" class="node"><title>Node16</title>
<g id="a_node16"><a xlink:href="hasher_8hpp.html" target="_top" xlink:title="karazeh/hasher.hpp">
<polygon fill="white" stroke="black" points="264.5,-168.5 264.5,-187.5 371.5,-187.5 371.5,-168.5 264.5,-168.5"/>
<text text-anchor="middle" x="318" y="-175.5" font-family="Ubuntu Regular" font-size="10.00">karazeh/hasher.hpp</text>
</a>
</g>
</g>
<!-- Node2&#45;&gt;Node16 -->
<g id="edge19" class="edge"><title>Node2&#45;&gt;Node16</title>
<path fill="none" stroke="midnightblue" d="M318,-224.083C318,-217.006 318,-206.861 318,-197.986"/>
<polygon fill="midnightblue" stroke="midnightblue" points="321.5,-197.751 318,-187.751 314.5,-197.751 321.5,-197.751"/>
</g>
<!-- Node6 -->
<g id="node6" class="node"><title>Node6</title>
<polygon fill="white" stroke="#bfbfbf" points="91.5,-0.5 91.5,-19.5 134.5,-19.5 134.5,-0.5 91.5,-0.5"/>
<text text-anchor="middle" x="113" y="-7.5" font-family="Ubuntu Regular" font-size="10.00">string</text>
</g>
<!-- Node5&#45;&gt;Node6 -->
<g id="edge5" class="edge"><title>Node5&#45;&gt;Node6</title>
<path fill="none" stroke="midnightblue" d="M176.218,-117.384C147.532,-112.337 115.059,-100.998 97,-76 86.9361,-62.0696 93.8374,-42.5444 101.462,-28.5361"/>
<polygon fill="midnightblue" stroke="midnightblue" points="104.525,-30.234 106.657,-19.8559 98.5186,-26.6392 104.525,-30.234"/>
</g>
<!-- Node7 -->
<g id="node7" class="node"><title>Node7</title>
<polygon fill="white" stroke="#bfbfbf" points="0,-56.5 0,-75.5 50,-75.5 50,-56.5 0,-56.5"/>
<text text-anchor="middle" x="25" y="-63.5" font-family="Ubuntu Regular" font-size="10.00">cassert</text>
</g>
<!-- Node5&#45;&gt;Node7 -->
<g id="edge6" class="edge"><title>Node5&#45;&gt;Node7</title>
<path fill="none" stroke="midnightblue" d="M200.042,-112.444C161.871,-102.534 99.2419,-86.2743 60.1591,-76.1278"/>
<polygon fill="midnightblue" stroke="midnightblue" points="60.8386,-72.6883 50.2799,-73.5631 59.0795,-79.4637 60.8386,-72.6883"/>
</g>
<!-- Node8 -->
<g id="node8" class="node"><title>Node8</title>
<polygon fill="white" stroke="#bfbfbf" points="106,-56.5 106,-75.5 222,-75.5 222,-56.5 106,-56.5"/>
<text text-anchor="middle" x="164" y="-63.5" font-family="Ubuntu Regular" font-size="10.00">boost/filesystem.hpp</text>
</g>
<!-- Node5&#45;&gt;Node8 -->
<g id="edge7" class="edge"><title>Node5&#45;&gt;Node8</title>
<path fill="none" stroke="midnightblue" d="M221.914,-112.324C211.514,-104.185 195.739,-91.8395 183.278,-82.0874"/>
<polygon fill="midnightblue" stroke="midnightblue" points="185.32,-79.2407 175.288,-75.8339 181.006,-84.7533 185.32,-79.2407"/>
</g>
<!-- Node9 -->
<g id="node9" class="node"><title>Node9</title>
<g id="a_node9"><a xlink:href="exception_8hpp.html" target="_top" xlink:title="karazeh/exception.hpp">
<polygon fill="white" stroke="black" points="240.5,-56.5 240.5,-75.5 363.5,-75.5 363.5,-56.5 240.5,-56.5"/>
<text text-anchor="middle" x="302" y="-63.5" font-family="Ubuntu Regular" font-size="10.00">karazeh/exception.hpp</text>
</a>
</g>
</g>
<!-- Node5&#45;&gt;Node9 -->
<g id="edge8" class="edge"><title>Node5&#45;&gt;Node9</title>
<path fill="none" stroke="midnightblue" d="M244.086,-112.324C254.486,-104.185 270.261,-91.8395 282.722,-82.0874"/>
<polygon fill="midnightblue" stroke="midnightblue" points="284.994,-84.7533 290.712,-75.8339 280.68,-79.2407 284.994,-84.7533"/>
</g>
<!-- Node9&#45;&gt;Node4 -->
<g id="edge12" class="edge"><title>Node9&#45;&gt;Node4</title>
<path fill="none" stroke="midnightblue" d="M332.265,-56.4435C364.955,-47.2011 417.182,-32.4356 453.183,-22.2572"/>
<polygon fill="midnightblue" stroke="midnightblue" points="454.206,-25.6051 462.877,-19.5164 452.302,-18.8691 454.206,-25.6051"/>
</g>
<!-- Node9&#45;&gt;Node6 -->
<g id="edge10" class="edge"><title>Node9&#45;&gt;Node6</title>
<path fill="none" stroke="midnightblue" d="M272.052,-56.4435C237.19,-46.4827 179.874,-30.1068 144.401,-19.9717"/>
<polygon fill="midnightblue" stroke="midnightblue" points="145.154,-16.5468 134.577,-17.1649 143.231,-23.2775 145.154,-16.5468"/>
</g>
<!-- Node10 -->
<g id="node10" class="node"><title>Node10</title>
<polygon fill="white" stroke="#bfbfbf" points="311.5,-0.5 311.5,-19.5 374.5,-19.5 374.5,-0.5 311.5,-0.5"/>
<text text-anchor="middle" x="343" y="-7.5" font-family="Ubuntu Regular" font-size="10.00">exception</text>
</g>
<!-- Node9&#45;&gt;Node10 -->
<g id="edge9" class="edge"><title>Node9&#45;&gt;Node10</title>
<path fill="none" stroke="midnightblue" d="M308.77,-56.083C314.562,-48.4554 323.058,-37.2645 330.138,-27.9408"/>
<polygon fill="midnightblue" stroke="midnightblue" points="333.096,-29.8321 336.356,-19.7511 327.521,-25.5991 333.096,-29.8321"/>
</g>
<!-- Node11 -->
<g id="node11" class="node"><title>Node11</title>
<polygon fill="white" stroke="#bfbfbf" points="228.5,-0.5 228.5,-19.5 293.5,-19.5 293.5,-0.5 228.5,-0.5"/>
<text text-anchor="middle" x="261" y="-7.5" font-family="Ubuntu Regular" font-size="10.00">stdexcept</text>
</g>
<!-- Node9&#45;&gt;Node11 -->
<g id="edge11" class="edge"><title>Node9&#45;&gt;Node11</title>
<path fill="none" stroke="midnightblue" d="M295.23,-56.083C289.438,-48.4554 280.942,-37.2645 273.862,-27.9408"/>
<polygon fill="midnightblue" stroke="midnightblue" points="276.479,-25.5991 267.644,-19.7511 270.904,-29.8321 276.479,-25.5991"/>
</g>
<!-- Node12&#45;&gt;Node4 -->
<g id="edge17" class="edge"><title>Node12&#45;&gt;Node4</title>
<path fill="none" stroke="midnightblue" d="M498.279,-168.478C519.592,-162.151 542.193,-151.143 555,-132 578.924,-96.2408 537.349,-50.0619 511.418,-26.4293"/>
<polygon fill="midnightblue" stroke="midnightblue" points="513.469,-23.5723 503.651,-19.5904 508.843,-28.8258 513.469,-23.5723"/>
</g>
<!-- Node12&#45;&gt;Node5 -->
<g id="edge18" class="edge"><title>Node12&#45;&gt;Node5</title>
<path fill="none" stroke="midnightblue" d="M412.25,-168.444C375.482,-159.122 316.554,-144.183 276.378,-133.997"/>
<polygon fill="midnightblue" stroke="midnightblue" points="277.146,-130.581 266.593,-131.516 275.426,-137.367 277.146,-130.581"/>
</g>
<!-- Node13 -->
<g id="node13" class="node"><title>Node13</title>
<polygon fill="white" stroke="#bfbfbf" points="421.5,-112.5 421.5,-131.5 474.5,-131.5 474.5,-112.5 421.5,-112.5"/>
<text text-anchor="middle" x="448" y="-119.5" font-family="Ubuntu Regular" font-size="10.00">sstream</text>
</g>
<!-- Node12&#45;&gt;Node13 -->
<g id="edge14" class="edge"><title>Node12&#45;&gt;Node13</title>
<path fill="none" stroke="midnightblue" d="M446.33,-168.083C446.592,-161.006 446.968,-150.861 447.297,-141.986"/>
<polygon fill="midnightblue" stroke="midnightblue" points="450.803,-141.874 447.676,-131.751 443.808,-141.615 450.803,-141.874"/>
</g>
<!-- Node14 -->
<g id="node14" class="node"><title>Node14</title>
<polygon fill="white" stroke="#bfbfbf" points="492.5,-112.5 492.5,-131.5 545.5,-131.5 545.5,-112.5 492.5,-112.5"/>
<text text-anchor="middle" x="519" y="-119.5" font-family="Ubuntu Regular" font-size="10.00">fstream</text>
</g>
<!-- Node12&#45;&gt;Node14 -->
<g id="edge15" class="edge"><title>Node12&#45;&gt;Node14</title>
<path fill="none" stroke="midnightblue" d="M457.729,-168.324C468.837,-160.107 485.742,-147.602 498.983,-137.807"/>
<polygon fill="midnightblue" stroke="midnightblue" points="501.1,-140.595 507.058,-131.834 496.937,-134.967 501.1,-140.595"/>
</g>
<!-- Node15 -->
<g id="node15" class="node"><title>Node15</title>
<polygon fill="white" stroke="#bfbfbf" points="346.5,-112.5 346.5,-131.5 403.5,-131.5 403.5,-112.5 346.5,-112.5"/>
<text text-anchor="middle" x="375" y="-119.5" font-family="Ubuntu Regular" font-size="10.00">iostream</text>
</g>
<!-- Node12&#45;&gt;Node15 -->
<g id="edge16" class="edge"><title>Node12&#45;&gt;Node15</title>
<path fill="none" stroke="midnightblue" d="M434.593,-168.324C423.891,-160.185 407.659,-147.839 394.837,-138.087"/>
<polygon fill="midnightblue" stroke="midnightblue" points="396.693,-135.102 386.615,-131.834 392.456,-140.673 396.693,-135.102"/>
</g>
<!-- Node16&#45;&gt;Node4 -->
<g id="edge20" class="edge"><title>Node16&#45;&gt;Node4</title>
<path fill="none" stroke="midnightblue" d="M318.805,-168.148C320.414,-154.774 325.066,-129.16 338,-112 370.338,-69.0966 426.593,-39.1388 461.703,-23.5264"/>
<polygon fill="midnightblue" stroke="midnightblue" points="463.217,-26.6849 471.007,-19.5044 460.439,-20.2595 463.217,-26.6849"/>
</g>
<!-- Node16&#45;&gt;Node5 -->
<g id="edge21" class="edge"><title>Node16&#45;&gt;Node5</title>
<path fill="none" stroke="midnightblue" d="M304.343,-168.324C291.084,-159.9 270.732,-146.971 255.154,-137.074"/>
<polygon fill="midnightblue" stroke="midnightblue" points="256.94,-134.063 246.623,-131.655 253.187,-139.971 256.94,-134.063"/>
</g>
</g>
</svg>
        <g id="navigator" transform="translate(0 0)" fill="#404254">
                <rect fill="#f2f5e9" fill-opacity="0.5" stroke="#606060" stroke-width=".5" x="0" y="0" width="60" height="60"/>
                <use id="zoomplus" xlink:href="#zoomPlus" x="17" y="9" onmousedown="handleZoom(evt,'in')"/>
                <use id="zoomminus" xlink:href="#zoomMin" x="42" y="9" onmousedown="handleZoom(evt,'out')"/>
                <use id="reset" xlink:href="#resetDef" x="30" y="36" onmousedown="handleReset()"/>
                <g id="arrowUp" xlink:href="#dirArrow" transform="translate(30 24)" onmousedown="handlePan(0,-1)">
                  <use xlink:href="#rim" fill="#404040">
                        <set attributeName="fill" to="#808080" begin="arrowUp.mouseover" end="arrowUp.mouseout"/>
                  </use>
                  <path fill="none" stroke="white" stroke-width="1.5" d="M0,-3.0v7 M-2.5,-0.5L0,-3.0L2.5,-0.5"/>
                </g>
                <g id="arrowRight" xlink:href="#dirArrow" transform="rotate(90) translate(36 -43)" onmousedown="handlePan(1,0)">
                  <use xlink:href="#rim" fill="#404040">
                        <set attributeName="fill" to="#808080" begin="arrowRight.mouseover" end="arrowRight.mouseout"/>
                  </use>
                  <path fill="none" stroke="white" stroke-width="1.5" d="M0,-3.0v7 M-2.5,-0.5L0,-3.0L2.5,-0.5"/>
                </g>
                <g id="arrowDown" xlink:href="#dirArrow" transform="rotate(180) translate(-30 -48)" onmousedown="handlePan(0,1)">
                  <use xlink:href="#rim" fill="#404040">
                        <set attributeName="fill" to="#808080" begin="arrowDown.mouseover" end="arrowDown.mouseout"/>
                  </use>
                  <path fill="none" stroke="white" stroke-width="1.5" d="M0,-3.0v7 M-2.5,-0.5L0,-3.0L2.5,-0.5"/>
                </g>
                <g id="arrowLeft" xlink:href="#dirArrow" transform="rotate(270) translate(-36 17)" onmousedown="handlePan(-1,0)">
                  <use xlink:href="#rim" fill="#404040">
                        <set attributeName="fill" to="#808080" begin="arrowLeft.mouseover" end="arrowLeft.mouseout"/>
                  </use>
                  <path fill="none" stroke="white" stroke-width="1.5" d="M0,-3.0v7 M-2.5,-0.5L0,-3.0L2.5,-0.5"/>
                </g>
        </g>
        <svg viewBox="0 0 15 15" width="100%" height="30px" preserveAspectRatio="xMaxYMin meet">
         <g id="arrow_out" transform="scale(0.3 0.3)">
          <a xlink:href="path__resolver_8cpp__incl_org.svg" target="_base">
           <rect id="button" ry="5" rx="5" y="6" x="6" height="38" width="38"
                fill="#f2f5e9" fill-opacity="0.5" stroke="#606060" stroke-width="1.0"/>
           <path id="arrow"
             d="M 11.500037,31.436501 C 11.940474,20.09759 22.043105,11.32322 32.158766,21.979434 L 37.068811,17.246167 C 37.068811,17.246167 37.088388,32 37.088388,32 L 22.160133,31.978069 C 22.160133,31.978069 26.997745,27.140456 26.997745,27.140456 C 18.528582,18.264221 13.291696,25.230495 11.500037,31.436501 z"
             style="fill:#404040;"/>
          </a>
         </g>
        </svg>
</svg>
