<?xml version="1.0" encoding="UTF-8" standalone="no"?>
<!DOCTYPE svg PUBLIC "-//W3C//DTD SVG 1.1//EN"
 "http://www.w3.org/Graphics/SVG/1.1/DTD/svg11.dtd">
<!-- Generated by graphviz version 2.38.0 (20140413.2041)
 -->
<!-- Title: include/karazeh/path_resolver.hpp Pages: 1 -->
<!--zoomable 106 -->
<svg id="main" version="1.1" xmlns="http://www.w3.org/2000/svg" xmlns:xlink="http://www.w3.org/1999/xlink" xml:space="preserve" onload="init(evt)">
<style type="text/css"><![CDATA[
.edge:hover path { stroke: red; }
.edge:hover polygon { stroke: red; fill: red; }
]]></style>
<script type="text/javascript"><![CDATA[
var edges = document.getElementsByTagName('g');
if (edges && edges.length) {
  for (var i=0;i<edges.length;i++) {
    if (edges[i].id.substr(0,4)=='edge') {
      edges[i].setAttribute('class','edge');
    }
  }
}
]]></script>
        <defs>
                <circle id="rim" cx="0" cy="0" r="7"/>
                <circle id="rim2" cx="0" cy="0" r="3.5"/>
                <g id="zoomPlus">
                        <use xlink:href="#rim" fill="#404040">
                                <set attributeName="fill" to="#808080" begin="zoomplus.mouseover" end="zoomplus.mouseout"/>
                        </use>
                        <path d="M-4,0h8M0,-4v8" fill="none" stroke="white" stroke-width="1.5" pointer-events="none"/>
                </g>
                <g id="zoomMin">
                        <use xlink:href="#rim" fill="#404040">
                                <set attributeName="fill" to="#808080" begin="zoomminus.mouseover" end="zoomminus.mouseout"/>
                        </use>
                        <path d="M-4,0h8" fill="none" stroke="white" stroke-width="1.5" pointer-events="none"/>
                </g>
                <g id="dirArrow">
                        <path fill="none" stroke="white" stroke-width="1.5" d="M0,-3.0v7 M-2.5,-0.5L0,-3.0L2.5,-0.5"/>
                </g>
               <g id="resetDef">
                       <use xlink:href="#rim2" fill="#404040">
                               <set attributeName="fill" to="#808080" begin="reset.mouseover" end="reset.mouseout"/>
                       </use>
               </g>
        </defs>

<script type="text/javascript">
var viewWidth = 673;
var viewHeight = 106;
var sectionId = 'dynsection-1';
</script>
<script xlink:href="svgpan.js"/>
<svg id="graph" class="graph">
<g id="viewport">
<title>include/karazeh/path_resolver.hpp</title>
<polygon fill="white" stroke="none" points="-4,4 -4,-102 668.5,-102 668.5,4 -4,4"/>
<!-- Node1 -->
<g id="node1" class="node"><title>Node1</title>
<polygon fill="#bfbfbf" stroke="black" points="290.5,-67.5 290.5,-97.5 405.5,-97.5 405.5,-67.5 290.5,-67.5"/>
<text text-anchor="start" x="298.5" y="-85.5" font-family="Ubuntu Regular" font-size="10.00">include/karazeh/path</text>
<text text-anchor="middle" x="348" y="-74.5" font-family="Ubuntu Regular" font-size="10.00">_resolver.hpp</text>
</g>
<!-- Node2 -->
<g id="node2" class="node"><title>Node2</title>
<g id="a_node2"><a xlink:href="delta__encoder_8test_8cpp.html" target="_top" xlink:title="src/__tests__/delta\l_encoder.test.cpp">
<polygon fill="white" stroke="black" points="0,-0.5 0,-30.5 104,-30.5 104,-0.5 0,-0.5"/>
<text text-anchor="start" x="8" y="-18.5" font-family="Ubuntu Regular" font-size="10.00">src/__tests__/delta</text>
<text text-anchor="middle" x="52" y="-7.5" font-family="Ubuntu Regular" font-size="10.00">_encoder.test.cpp</text>
</a>
</g>
</g>
<!-- Node1&#45;&gt;Node2 -->
<g id="edge1" class="edge"><title>Node1&#45;&gt;Node2</title>
<path fill="none" stroke="midnightblue" d="M280.398,-67.3787C233.391,-57.46 169.309,-43.7412 113,-31 110.133,-30.3514 107.193,-29.6783 104.226,-28.9931"/>
<polygon fill="midnightblue" stroke="midnightblue" points="279.953,-70.8617 290.46,-69.4987 281.396,-64.0121 279.953,-70.8617"/>
</g>
<!-- Node3 -->
<g id="node3" class="node"><title>Node3</title>
<g id="a_node3"><a xlink:href="patcher_8test_8cpp.html" target="_top" xlink:title="src/__tests__/patcher.test.cpp">
<polygon fill="white" stroke="black" points="122.5,-6 122.5,-25 279.5,-25 279.5,-6 122.5,-6"/>
<text text-anchor="middle" x="201" y="-13" font-family="Ubuntu Regular" font-size="10.00">src/__tests__/patcher.test.cpp</text>
</a>
</g>
</g>
<!-- Node1&#45;&gt;Node3 -->
<g id="edge2" class="edge"><title>Node1&#45;&gt;Node3</title>
<path fill="none" stroke="midnightblue" d="M306.829,-63.2952C278.481,-50.7602 242.119,-34.682 220.239,-25.007"/>
<polygon fill="midnightblue" stroke="midnightblue" points="305.542,-66.5529 316.103,-67.396 308.373,-60.1508 305.542,-66.5529"/>
</g>
<!-- Node4 -->
<g id="node4" class="node"><title>Node4</title>
<g id="a_node4"><a xlink:href="path__resolver_8test_8cpp.html" target="_top" xlink:title="src/__tests__/path\l_resolver.test.cpp">
<polygon fill="white" stroke="black" points="297.5,-0.5 297.5,-30.5 398.5,-30.5 398.5,-0.5 297.5,-0.5"/>
<text text-anchor="start" x="305.5" y="-18.5" font-family="Ubuntu Regular" font-size="10.00">src/__tests__/path</text>
<text text-anchor="middle" x="348" y="-7.5" font-family="Ubuntu Regular" font-size="10.00">_resolver.test.cpp</text>
</a>
</g>
</g>
<!-- Node1&#45;&gt;Node4 -->
<g id="edge3" class="edge"><title>Node1&#45;&gt;Node4</title>
<path fill="none" stroke="midnightblue" d="M348,-57.1081C348,-48.1539 348,-38.3227 348,-30.5765"/>
<polygon fill="midnightblue" stroke="midnightblue" points="344.5,-57.3959 348,-67.396 351.5,-57.396 344.5,-57.3959"/>
</g>
<!-- Node5 -->
<g id="node5" class="node"><title>Node5</title>
<g id="a_node5"><a xlink:href="version__manifest_8test_8cpp.html" target="_top" xlink:title="src/__tests__/version\l_manifest.test.cpp">
<polygon fill="white" stroke="black" points="416.5,-0.5 416.5,-30.5 529.5,-30.5 529.5,-0.5 416.5,-0.5"/>
<text text-anchor="start" x="424.5" y="-18.5" font-family="Ubuntu Regular" font-size="10.00">src/__tests__/version</text>
<text text-anchor="middle" x="473" y="-7.5" font-family="Ubuntu Regular" font-size="10.00">_manifest.test.cpp</text>
</a>
</g>
</g>
<!-- Node1&#45;&gt;Node5 -->
<g id="edge4" class="edge"><title>Node1&#45;&gt;Node5</title>
<path fill="none" stroke="midnightblue" d="M384.126,-62.7143C403.84,-52.4631 427.841,-39.9826 445.93,-30.5765"/>
<polygon fill="midnightblue" stroke="midnightblue" points="382.381,-59.6771 375.123,-67.396 385.61,-65.8877 382.381,-59.6771"/>
</g>
<!-- Node6 -->
<g id="node6" class="node"><title>Node6</title>
<g id="a_node6"><a xlink:href="path__resolver_8cpp.html" target="_top" xlink:title="src/path_resolver.cpp">
<polygon fill="white" stroke="black" points="547.5,-6 547.5,-25 664.5,-25 664.5,-6 547.5,-6"/>
<text text-anchor="middle" x="606" y="-13" font-family="Ubuntu Regular" font-size="10.00">src/path_resolver.cpp</text>
</a>
</g>
</g>
<!-- Node1&#45;&gt;Node6 -->
<g id="edge5" class="edge"><title>Node1&#45;&gt;Node6</title>
<path fill="none" stroke="midnightblue" d="M413.532,-64.9899C464.094,-52.2516 531.98,-35.1484 572.148,-25.0287"/>
<polygon fill="midnightblue" stroke="midnightblue" points="412.506,-61.6389 403.665,-67.476 414.217,-68.4268 412.506,-61.6389"/>
</g>
</g>
</svg>
        <g id="navigator" transform="translate(0 0)" fill="#404254">
                <rect fill="#f2f5e9" fill-opacity="0.5" stroke="#606060" stroke-width=".5" x="0" y="0" width="60" height="60"/>
                <use id="zoomplus" xlink:href="#zoomPlus" x="17" y="9" onmousedown="handleZoom(evt,'in')"/>
                <use id="zoomminus" xlink:href="#zoomMin" x="42" y="9" onmousedown="handleZoom(evt,'out')"/>
                <use id="reset" xlink:href="#resetDef" x="30" y="36" onmousedown="handleReset()"/>
                <g id="arrowUp" xlink:href="#dirArrow" transform="translate(30 24)" onmousedown="handlePan(0,-1)">
                  <use xlink:href="#rim" fill="#404040">
                        <set attributeName="fill" to="#808080" begin="arrowUp.mouseover" end="arrowUp.mouseout"/>
                  </use>
                  <path fill="none" stroke="white" stroke-width="1.5" d="M0,-3.0v7 M-2.5,-0.5L0,-3.0L2.5,-0.5"/>
                </g>
                <g id="arrowRight" xlink:href="#dirArrow" transform="rotate(90) translate(36 -43)" onmousedown="handlePan(1,0)">
                  <use xlink:href="#rim" fill="#404040">
                        <set attributeName="fill" to="#808080" begin="arrowRight.mouseover" end="arrowRight.mouseout"/>
                  </use>
                  <path fill="none" stroke="white" stroke-width="1.5" d="M0,-3.0v7 M-2.5,-0.5L0,-3.0L2.5,-0.5"/>
                </g>
                <g id="arrowDown" xlink:href="#dirArrow" transform="rotate(180) translate(-30 -48)" onmousedown="handlePan(0,1)">
                  <use xlink:href="#rim" fill="#404040">
                        <set attributeName="fill" to="#808080" begin="arrowDown.mouseover" end="arrowDown.mouseout"/>
                  </use>
                  <path fill="none" stroke="white" stroke-width="1.5" d="M0,-3.0v7 M-2.5,-0.5L0,-3.0L2.5,-0.5"/>
                </g>
                <g id="arrowLeft" xlink:href="#dirArrow" transform="rotate(270) translate(-36 17)" onmousedown="handlePan(-1,0)">
                  <use xlink:href="#rim" fill="#404040">
                        <set attributeName="fill" to="#808080" begin="arrowLeft.mouseover" end="arrowLeft.mouseout"/>
                  </use>
                  <path fill="none" stroke="white" stroke-width="1.5" d="M0,-3.0v7 M-2.5,-0.5L0,-3.0L2.5,-0.5"/>
                </g>
        </g>
        <svg viewBox="0 0 15 15" width="100%" height="30px" preserveAspectRatio="xMaxYMin meet">
         <g id="arrow_out" transform="scale(0.3 0.3)">
          <a xlink:href="path__resolver_8hpp__dep__incl_org.svg" target="_base">
           <rect id="button" ry="5" rx="5" y="6" x="6" height="38" width="38"
                fill="#f2f5e9" fill-opacity="0.5" stroke="#606060" stroke-width="1.0"/>
           <path id="arrow"
             d="M 11.500037,31.436501 C 11.940474,20.09759 22.043105,11.32322 32.158766,21.979434 L 37.068811,17.246167 C 37.068811,17.246167 37.088388,32 37.088388,32 L 22.160133,31.978069 C 22.160133,31.978069 26.997745,27.140456 26.997745,27.140456 C 18.528582,18.264221 13.291696,25.230495 11.500037,31.436501 z"
             style="fill:#404040;"/>
          </a>
         </g>
        </svg>
</svg>
