<?xml version="1.0" encoding="UTF-8" standalone="no"?>
<!DOCTYPE svg PUBLIC "-//W3C//DTD SVG 1.1//EN"
 "http://www.w3.org/Graphics/SVG/1.1/DTD/svg11.dtd">
<!-- Generated by graphviz version 2.38.0 (20140413.2041)
 -->
<!-- Title: src/release_manifest.cpp Pages: 1 -->
<!--zoomable 476 -->
<svg id="main" version="1.1" xmlns="http://www.w3.org/2000/svg" xmlns:xlink="http://www.w3.org/1999/xlink" xml:space="preserve" onload="init(evt)">
<style type="text/css"><![CDATA[
.edge:hover path { stroke: red; }
.edge:hover polygon { stroke: red; fill: red; }
]]></style>
<script type="text/javascript"><![CDATA[
var edges = document.getElementsByTagName('g');
if (edges && edges.length) {
  for (var i=0;i<edges.length;i++) {
    if (edges[i].id.substr(0,4)=='edge') {
      edges[i].setAttribute('class','edge');
    }
  }
}
]]></script>
        <defs>
                <circle id="rim" cx="0" cy="0" r="7"/>
                <circle id="rim2" cx="0" cy="0" r="3.5"/>
                <g id="zoomPlus">
                        <use xlink:href="#rim" fill="#404040">
                                <set attributeName="fill" to="#808080" begin="zoomplus.mouseover" end="zoomplus.mouseout"/>
                        </use>
                        <path d="M-4,0h8M0,-4v8" fill="none" stroke="white" stroke-width="1.5" pointer-events="none"/>
                </g>
                <g id="zoomMin">
                        <use xlink:href="#rim" fill="#404040">
                                <set attributeName="fill" to="#808080" begin="zoomminus.mouseover" end="zoomminus.mouseout"/>
                        </use>
                        <path d="M-4,0h8" fill="none" stroke="white" stroke-width="1.5" pointer-events="none"/>
                </g>
                <g id="dirArrow">
                        <path fill="none" stroke="white" stroke-width="1.5" d="M0,-3.0v7 M-2.5,-0.5L0,-3.0L2.5,-0.5"/>
                </g>
               <g id="resetDef">
                       <use xlink:href="#rim2" fill="#404040">
                               <set attributeName="fill" to="#808080" begin="reset.mouseover" end="reset.mouseout"/>
                       </use>
               </g>
        </defs>

<script type="text/javascript">
var viewWidth = 1078;
var viewHeight = 476;
var sectionId = 'dynsection-0';
</script>
<script xlink:href="svgpan.js"/>
<svg id="graph" class="graph">
<g id="viewport">
<title>src/release_manifest.cpp</title>
<polygon fill="white" stroke="none" points="-4,4 -4,-472 1073.5,-472 1073.5,4 -4,4"/>
<!-- Node1 -->
<g id="node1" class="node"><title>Node1</title>
<polygon fill="#bfbfbf" stroke="black" points="862.5,-448.5 862.5,-467.5 994.5,-467.5 994.5,-448.5 862.5,-448.5"/>
<text text-anchor="middle" x="928.5" y="-455.5" font-family="Ubuntu Regular" font-size="10.00">src/release_manifest.cpp</text>
</g>
<!-- Node2 -->
<g id="node2" class="node"><title>Node2</title>
<g id="a_node2"><a xlink:href="release__manifest_8hpp.html" target="_top" xlink:title="karazeh/release_manifest.hpp">
<polygon fill="white" stroke="black" points="749,-392.5 749,-411.5 904,-411.5 904,-392.5 749,-392.5"/>
<text text-anchor="middle" x="826.5" y="-399.5" font-family="Ubuntu Regular" font-size="10.00">karazeh/release_manifest.hpp</text>
</a>
</g>
</g>
<!-- Node1&#45;&gt;Node2 -->
<g id="edge1" class="edge"><title>Node1&#45;&gt;Node2</title>
<path fill="none" stroke="midnightblue" d="M912.112,-448.324C895.829,-439.703 870.633,-426.364 851.784,-416.386"/>
<polygon fill="midnightblue" stroke="midnightblue" points="853.323,-413.24 842.847,-411.655 850.048,-419.427 853.323,-413.24"/>
</g>
<!-- Node18 -->
<g id="node18" class="node"><title>Node18</title>
<polygon fill="white" stroke="#bfbfbf" points="874,-112.5 874,-131.5 927,-131.5 927,-112.5 874,-112.5"/>
<text text-anchor="middle" x="900.5" y="-119.5" font-family="Ubuntu Regular" font-size="10.00">sstream</text>
</g>
<!-- Node1&#45;&gt;Node18 -->
<g id="edge44" class="edge"><title>Node1&#45;&gt;Node18</title>
<path fill="none" stroke="midnightblue" d="M927.78,-448.408C924.097,-404.475 907.338,-204.572 902.082,-141.87"/>
<polygon fill="midnightblue" stroke="midnightblue" points="905.539,-141.208 901.216,-131.535 898.563,-141.793 905.539,-141.208"/>
</g>
<!-- Node3 -->
<g id="node3" class="node"><title>Node3</title>
<polygon fill="white" stroke="#bfbfbf" points="803,-336.5 803,-355.5 850,-355.5 850,-336.5 803,-336.5"/>
<text text-anchor="middle" x="826.5" y="-343.5" font-family="Ubuntu Regular" font-size="10.00">vector</text>
</g>
<!-- Node2&#45;&gt;Node3 -->
<g id="edge2" class="edge"><title>Node2&#45;&gt;Node3</title>
<path fill="none" stroke="midnightblue" d="M826.5,-392.083C826.5,-385.006 826.5,-374.861 826.5,-365.986"/>
<polygon fill="midnightblue" stroke="midnightblue" points="830,-365.751 826.5,-355.751 823,-365.751 830,-365.751"/>
</g>
<!-- Node4 -->
<g id="node4" class="node"><title>Node4</title>
<polygon fill="white" stroke="#bfbfbf" points="852,-0.5 852,-19.5 949,-19.5 949,-0.5 852,-0.5"/>
<text text-anchor="middle" x="900.5" y="-7.5" font-family="Ubuntu Regular" font-size="10.00">karazeh_export.h</text>
</g>
<!-- Node2&#45;&gt;Node4 -->
<g id="edge3" class="edge"><title>Node2&#45;&gt;Node4</title>
<path fill="none" stroke="midnightblue" d="M868.55,-392.483C938.1,-375.671 1069.5,-331.18 1069.5,-235 1069.5,-235 1069.5,-235 1069.5,-121 1069.5,-64.9948 1003.5,-36.0295 953.993,-22.1799"/>
<polygon fill="midnightblue" stroke="midnightblue" points="954.585,-18.716 944.022,-19.5288 952.787,-25.4809 954.585,-18.716"/>
</g>
<!-- Node5 -->
<g id="node5" class="node"><title>Node5</title>
<g id="a_node5"><a xlink:href="karazeh_8hpp.html" target="_top" xlink:title="karazeh/karazeh.hpp">
<polygon fill="white" stroke="black" points="217,-112.5 217,-131.5 330,-131.5 330,-112.5 217,-112.5"/>
<text text-anchor="middle" x="273.5" y="-119.5" font-family="Ubuntu Regular" font-size="10.00">karazeh/karazeh.hpp</text>
</a>
</g>
</g>
<!-- Node2&#45;&gt;Node5 -->
<g id="edge4" class="edge"><title>Node2&#45;&gt;Node5</title>
<path fill="none" stroke="midnightblue" d="M748.954,-396.397C571.391,-384.82 150.5,-351.047 150.5,-291 150.5,-291 150.5,-291 150.5,-233 150.5,-184.48 204.336,-152.014 240.774,-135.597"/>
<polygon fill="midnightblue" stroke="midnightblue" points="242.282,-138.758 250.075,-131.58 239.507,-132.332 242.282,-138.758"/>
</g>
<!-- Node12 -->
<g id="node12" class="node"><title>Node12</title>
<g id="a_node12"><a xlink:href="operation_8hpp.html" target="_top" xlink:title="karazeh/operation.hpp">
<polygon fill="white" stroke="black" points="510.5,-336.5 510.5,-355.5 632.5,-355.5 632.5,-336.5 510.5,-336.5"/>
<text text-anchor="middle" x="571.5" y="-343.5" font-family="Ubuntu Regular" font-size="10.00">karazeh/operation.hpp</text>
</a>
</g>
</g>
<!-- Node2&#45;&gt;Node12 -->
<g id="edge13" class="edge"><title>Node2&#45;&gt;Node12</title>
<path fill="none" stroke="midnightblue" d="M786.094,-392.444C741.517,-383.004 669.732,-367.802 621.608,-357.611"/>
<polygon fill="midnightblue" stroke="midnightblue" points="622.225,-354.164 611.716,-355.516 620.774,-361.012 622.225,-354.164"/>
</g>
<!-- Node6 -->
<g id="node6" class="node"><title>Node6</title>
<polygon fill="white" stroke="#bfbfbf" points="0,-0.5 0,-19.5 43,-19.5 43,-0.5 0,-0.5"/>
<text text-anchor="middle" x="21.5" y="-7.5" font-family="Ubuntu Regular" font-size="10.00">string</text>
</g>
<!-- Node5&#45;&gt;Node6 -->
<g id="edge5" class="edge"><title>Node5&#45;&gt;Node6</title>
<path fill="none" stroke="midnightblue" d="M216.876,-117.399C154.823,-112.264 60.7157,-100.586 35.5,-76 23.3698,-64.1726 20.5467,-44.5426 20.346,-29.9439"/>
<polygon fill="midnightblue" stroke="midnightblue" points="23.8549,-29.6486 20.6196,-19.5599 16.8574,-29.4642 23.8549,-29.6486"/>
</g>
<!-- Node7 -->
<g id="node7" class="node"><title>Node7</title>
<polygon fill="white" stroke="#bfbfbf" points="240.5,-56.5 240.5,-75.5 290.5,-75.5 290.5,-56.5 240.5,-56.5"/>
<text text-anchor="middle" x="265.5" y="-63.5" font-family="Ubuntu Regular" font-size="10.00">cassert</text>
</g>
<!-- Node5&#45;&gt;Node7 -->
<g id="edge6" class="edge"><title>Node5&#45;&gt;Node7</title>
<path fill="none" stroke="midnightblue" d="M272.179,-112.083C271.119,-104.927 269.594,-94.6353 268.269,-85.6911"/>
<polygon fill="midnightblue" stroke="midnightblue" points="271.724,-85.1302 266.796,-75.7511 264.8,-86.1561 271.724,-85.1302"/>
</g>
<!-- Node8 -->
<g id="node8" class="node"><title>Node8</title>
<polygon fill="white" stroke="#bfbfbf" points="308.5,-56.5 308.5,-75.5 424.5,-75.5 424.5,-56.5 308.5,-56.5"/>
<text text-anchor="middle" x="366.5" y="-63.5" font-family="Ubuntu Regular" font-size="10.00">boost/filesystem.hpp</text>
</g>
<!-- Node5&#45;&gt;Node8 -->
<g id="edge7" class="edge"><title>Node5&#45;&gt;Node8</title>
<path fill="none" stroke="midnightblue" d="M288.442,-112.324C303.085,-103.822 325.634,-90.7288 342.738,-80.7975"/>
<polygon fill="midnightblue" stroke="midnightblue" points="344.705,-83.7027 351.595,-75.6545 341.19,-77.6491 344.705,-83.7027"/>
</g>
<!-- Node9 -->
<g id="node9" class="node"><title>Node9</title>
<g id="a_node9"><a xlink:href="exception_8hpp.html" target="_top" xlink:title="karazeh/exception.hpp">
<polygon fill="white" stroke="black" points="45,-56.5 45,-75.5 168,-75.5 168,-56.5 45,-56.5"/>
<text text-anchor="middle" x="106.5" y="-63.5" font-family="Ubuntu Regular" font-size="10.00">karazeh/exception.hpp</text>
</a>
</g>
</g>
<!-- Node5&#45;&gt;Node9 -->
<g id="edge8" class="edge"><title>Node5&#45;&gt;Node9</title>
<path fill="none" stroke="midnightblue" d="M247.038,-112.444C218.822,-103.32 173.96,-88.8133 142.532,-78.6509"/>
<polygon fill="midnightblue" stroke="midnightblue" points="143.43,-75.263 132.838,-75.5164 141.276,-81.9234 143.43,-75.263"/>
</g>
<!-- Node9&#45;&gt;Node4 -->
<g id="edge12" class="edge"><title>Node9&#45;&gt;Node4</title>
<path fill="none" stroke="midnightblue" d="M168.272,-57.3956C173.083,-56.8917 177.869,-56.419 182.5,-56 426.65,-33.9098 718.492,-19.24 841.368,-13.5977"/>
<polygon fill="midnightblue" stroke="midnightblue" points="841.846,-17.0797 851.676,-13.1274 841.527,-10.0869 841.846,-17.0797"/>
</g>
<!-- Node9&#45;&gt;Node6 -->
<g id="edge10" class="edge"><title>Node9&#45;&gt;Node6</title>
<path fill="none" stroke="midnightblue" d="M92.8433,-56.324C79.5837,-47.9002 59.232,-34.9709 43.6538,-25.0741"/>
<polygon fill="midnightblue" stroke="midnightblue" points="45.4404,-22.0626 35.1228,-19.6545 41.6867,-27.9711 45.4404,-22.0626"/>
</g>
<!-- Node10 -->
<g id="node10" class="node"><title>Node10</title>
<polygon fill="white" stroke="#bfbfbf" points="148,-0.5 148,-19.5 211,-19.5 211,-0.5 148,-0.5"/>
<text text-anchor="middle" x="179.5" y="-7.5" font-family="Ubuntu Regular" font-size="10.00">exception</text>
</g>
<!-- Node9&#45;&gt;Node10 -->
<g id="edge9" class="edge"><title>Node9&#45;&gt;Node10</title>
<path fill="none" stroke="midnightblue" d="M118.229,-56.324C129.337,-48.1066 146.242,-35.6017 159.483,-25.8069"/>
<polygon fill="midnightblue" stroke="midnightblue" points="161.6,-28.5948 167.558,-19.8339 157.437,-22.9671 161.6,-28.5948"/>
</g>
<!-- Node11 -->
<g id="node11" class="node"><title>Node11</title>
<polygon fill="white" stroke="#bfbfbf" points="65,-0.5 65,-19.5 130,-19.5 130,-0.5 65,-0.5"/>
<text text-anchor="middle" x="97.5" y="-7.5" font-family="Ubuntu Regular" font-size="10.00">stdexcept</text>
</g>
<!-- Node9&#45;&gt;Node11 -->
<g id="edge11" class="edge"><title>Node9&#45;&gt;Node11</title>
<path fill="none" stroke="midnightblue" d="M105.014,-56.083C103.821,-48.9272 102.106,-38.6353 100.615,-29.6911"/>
<polygon fill="midnightblue" stroke="midnightblue" points="104.055,-29.0396 98.9585,-19.7511 97.1502,-30.1904 104.055,-29.0396"/>
</g>
<!-- Node12&#45;&gt;Node4 -->
<g id="edge14" class="edge"><title>Node12&#45;&gt;Node4</title>
<path fill="none" stroke="midnightblue" d="M630.227,-336.466C754.237,-316.792 1031.5,-263.371 1031.5,-179 1031.5,-179 1031.5,-179 1031.5,-121 1031.5,-71.036 974.92,-39.2346 936.129,-23.3027"/>
<polygon fill="midnightblue" stroke="midnightblue" points="937.282,-19.9955 926.695,-19.5928 934.72,-26.5098 937.282,-19.9955"/>
</g>
<!-- Node12&#45;&gt;Node5 -->
<g id="edge15" class="edge"><title>Node12&#45;&gt;Node5</title>
<path fill="none" stroke="midnightblue" d="M510.148,-336.998C416.528,-323.369 245.087,-292.341 209.5,-244 183.709,-208.966 227.53,-162.163 254.594,-138.338"/>
<polygon fill="midnightblue" stroke="midnightblue" points="257.019,-140.87 262.36,-131.72 252.478,-135.542 257.019,-140.87"/>
</g>
<!-- Node13 -->
<g id="node13" class="node"><title>Node13</title>
<g id="a_node13"><a xlink:href="config_8hpp.html" target="_top" xlink:title="karazeh/config.hpp">
<polygon fill="white" stroke="black" points="219,-224.5 219,-243.5 324,-243.5 324,-224.5 219,-224.5"/>
<text text-anchor="middle" x="271.5" y="-231.5" font-family="Ubuntu Regular" font-size="10.00">karazeh/config.hpp</text>
</a>
</g>
</g>
<!-- Node12&#45;&gt;Node13 -->
<g id="edge16" class="edge"><title>Node12&#45;&gt;Node13</title>
<path fill="none" stroke="midnightblue" d="M547.308,-336.477C521.913,-327.503 480.845,-312.913 445.5,-300 395.878,-281.871 338.507,-260.326 303.628,-247.161"/>
<polygon fill="midnightblue" stroke="midnightblue" points="304.577,-243.778 293.985,-243.518 302.103,-250.326 304.577,-243.778"/>
</g>
<!-- Node14 -->
<g id="node14" class="node"><title>Node14</title>
<g id="a_node14"><a xlink:href="downloader_8hpp.html" target="_top" xlink:title="karazeh/downloader.hpp">
<polygon fill="white" stroke="black" points="454.5,-280.5 454.5,-299.5 584.5,-299.5 584.5,-280.5 454.5,-280.5"/>
<text text-anchor="middle" x="519.5" y="-287.5" font-family="Ubuntu Regular" font-size="10.00">karazeh/downloader.hpp</text>
</a>
</g>
</g>
<!-- Node12&#45;&gt;Node14 -->
<g id="edge19" class="edge"><title>Node12&#45;&gt;Node14</title>
<path fill="none" stroke="midnightblue" d="M562.913,-336.083C555.341,-328.22 544.122,-316.569 534.986,-307.081"/>
<polygon fill="midnightblue" stroke="midnightblue" points="537.385,-304.527 527.927,-299.751 532.342,-309.382 537.385,-304.527"/>
</g>
<!-- Node22 -->
<g id="node22" class="node"><title>Node22</title>
<g id="a_node22"><a xlink:href="file__manager_8hpp.html" target="_top" xlink:title="karazeh/file_manager.hpp">
<polygon fill="white" stroke="black" points="576,-224.5 576,-243.5 711,-243.5 711,-224.5 576,-224.5"/>
<text text-anchor="middle" x="643.5" y="-231.5" font-family="Ubuntu Regular" font-size="10.00">karazeh/file_manager.hpp</text>
</a>
</g>
</g>
<!-- Node12&#45;&gt;Node22 -->
<g id="edge43" class="edge"><title>Node12&#45;&gt;Node22</title>
<path fill="none" stroke="midnightblue" d="M577.15,-336.368C589.032,-318.215 616.794,-275.802 632.379,-251.99"/>
<polygon fill="midnightblue" stroke="midnightblue" points="635.328,-253.875 637.877,-243.591 629.471,-250.042 635.328,-253.875"/>
</g>
<!-- Node13&#45;&gt;Node4 -->
<g id="edge17" class="edge"><title>Node13&#45;&gt;Node4</title>
<path fill="none" stroke="midnightblue" d="M263.582,-224.396C249.053,-207.951 218.607,-170.278 207.5,-132 197.629,-97.9811 202.6,-76.4814 231.5,-56 280.649,-21.1689 687.699,-13.2442 841.742,-11.4866"/>
<polygon fill="midnightblue" stroke="midnightblue" points="841.991,-14.9842 851.952,-11.3749 841.914,-7.98458 841.991,-14.9842"/>
</g>
<!-- Node13&#45;&gt;Node5 -->
<g id="edge18" class="edge"><title>Node13&#45;&gt;Node5</title>
<path fill="none" stroke="midnightblue" d="M271.657,-224.368C271.98,-206.617 272.724,-165.666 273.162,-141.597"/>
<polygon fill="midnightblue" stroke="midnightblue" points="276.661,-141.653 273.344,-131.591 269.662,-141.526 276.661,-141.653"/>
</g>
<!-- Node14&#45;&gt;Node4 -->
<g id="edge23" class="edge"><title>Node14&#45;&gt;Node4</title>
<path fill="none" stroke="midnightblue" d="M581.874,-280.498C682.115,-265.697 872.956,-232.478 923.5,-188 967.789,-149.026 963.592,-108.912 937.5,-56 932.266,-45.3866 924.088,-35.075 916.75,-27.0063"/>
<polygon fill="midnightblue" stroke="midnightblue" points="919.268,-24.5752 909.832,-19.757 914.204,-29.4079 919.268,-24.5752"/>
</g>
<!-- Node14&#45;&gt;Node5 -->
<g id="edge24" class="edge"><title>Node14&#45;&gt;Node5</title>
<path fill="none" stroke="midnightblue" d="M469.501,-280.457C440.579,-273.828 404.487,-262.546 376.5,-244 334.698,-216.299 300.328,-166.929 283.912,-140.63"/>
<polygon fill="midnightblue" stroke="midnightblue" points="286.711,-138.496 278.522,-131.774 280.731,-142.136 286.711,-138.496"/>
</g>
<!-- Node14&#45;&gt;Node8 -->
<g id="edge21" class="edge"><title>Node14&#45;&gt;Node8</title>
<path fill="none" stroke="midnightblue" d="M492.645,-280.405C456.318,-267.148 393.02,-237.884 366.5,-188 349.141,-155.347 355.656,-110.385 361.419,-85.4832"/>
<polygon fill="midnightblue" stroke="midnightblue" points="364.868,-86.1226 363.926,-75.5697 358.081,-84.4065 364.868,-86.1226"/>
</g>
<!-- Node14&#45;&gt;Node13 -->
<g id="edge42" class="edge"><title>Node14&#45;&gt;Node13</title>
<path fill="none" stroke="midnightblue" d="M480.204,-280.444C436.941,-271.023 367.327,-255.866 320.527,-245.675"/>
<polygon fill="midnightblue" stroke="midnightblue" points="321.128,-242.224 310.612,-243.516 319.639,-249.064 321.128,-242.224"/>
</g>
<!-- Node15 -->
<g id="node15" class="node"><title>Node15</title>
<polygon fill="white" stroke="#bfbfbf" points="376,-168.5 376,-187.5 439,-187.5 439,-168.5 376,-168.5"/>
<text text-anchor="middle" x="407.5" y="-175.5" font-family="Ubuntu Regular" font-size="10.00">curl/curl.h</text>
</g>
<!-- Node14&#45;&gt;Node15 -->
<g id="edge20" class="edge"><title>Node14&#45;&gt;Node15</title>
<path fill="none" stroke="midnightblue" d="M510.712,-280.368C491.901,-261.894 447.507,-218.293 423.53,-194.744"/>
<polygon fill="midnightblue" stroke="midnightblue" points="425.835,-192.101 416.248,-187.591 420.93,-197.096 425.835,-192.101"/>
</g>
<!-- Node16 -->
<g id="node16" class="node"><title>Node16</title>
<polygon fill="white" stroke="#bfbfbf" points="457.5,-168.5 457.5,-187.5 561.5,-187.5 561.5,-168.5 457.5,-168.5"/>
<text text-anchor="middle" x="509.5" y="-175.5" font-family="Ubuntu Regular" font-size="10.00">binreloc/binreloc.h</text>
</g>
<!-- Node14&#45;&gt;Node16 -->
<g id="edge22" class="edge"><title>Node14&#45;&gt;Node16</title>
<path fill="none" stroke="midnightblue" d="M518.715,-280.368C517.102,-262.617 513.379,-221.666 511.191,-197.597"/>
<polygon fill="midnightblue" stroke="midnightblue" points="514.672,-197.233 510.281,-187.591 507.701,-197.867 514.672,-197.233"/>
</g>
<!-- Node17 -->
<g id="node17" class="node"><title>Node17</title>
<g id="a_node17"><a xlink:href="logger_8hpp.html" target="_top" xlink:title="karazeh/logger.hpp">
<polygon fill="white" stroke="black" points="782,-168.5 782,-187.5 889,-187.5 889,-168.5 782,-168.5"/>
<text text-anchor="middle" x="835.5" y="-175.5" font-family="Ubuntu Regular" font-size="10.00">karazeh/logger.hpp</text>
</a>
</g>
</g>
<!-- Node14&#45;&gt;Node17 -->
<g id="edge25" class="edge"><title>Node14&#45;&gt;Node17</title>
<path fill="none" stroke="midnightblue" d="M577.695,-280.489C618.313,-273.451 673.307,-261.706 719.5,-244 754.549,-230.565 791.871,-207.975 814.44,-193.279"/>
<polygon fill="midnightblue" stroke="midnightblue" points="816.471,-196.132 822.884,-187.699 812.611,-190.292 816.471,-196.132"/>
</g>
<!-- Node21 -->
<g id="node21" class="node"><title>Node21</title>
<g id="a_node21"><a xlink:href="hasher_8hpp.html" target="_top" xlink:title="karazeh/hasher.hpp">
<polygon fill="white" stroke="black" points="580,-168.5 580,-187.5 687,-187.5 687,-168.5 580,-168.5"/>
<text text-anchor="middle" x="633.5" y="-175.5" font-family="Ubuntu Regular" font-size="10.00">karazeh/hasher.hpp</text>
</a>
</g>
</g>
<!-- Node14&#45;&gt;Node21 -->
<g id="edge31" class="edge"><title>Node14&#45;&gt;Node21</title>
<path fill="none" stroke="midnightblue" d="M524.442,-280.26C532.206,-267.033 548.271,-241.609 566.5,-224 579.11,-211.819 595.399,-200.795 608.759,-192.707"/>
<polygon fill="midnightblue" stroke="midnightblue" points="610.607,-195.681 617.458,-187.599 607.063,-189.644 610.607,-195.681"/>
</g>
<!-- Node14&#45;&gt;Node22 -->
<g id="edge34" class="edge"><title>Node14&#45;&gt;Node22</title>
<path fill="none" stroke="midnightblue" d="M539.148,-280.444C559.465,-271.596 591.403,-257.687 614.598,-247.586"/>
<polygon fill="midnightblue" stroke="midnightblue" points="616.173,-250.718 623.944,-243.516 613.378,-244.3 616.173,-250.718"/>
</g>
<!-- Node17&#45;&gt;Node4 -->
<g id="edge29" class="edge"><title>Node17&#45;&gt;Node4</title>
<path fill="none" stroke="midnightblue" d="M838.995,-168.075C849.271,-141.832 879.533,-64.5453 893.406,-29.1165"/>
<polygon fill="midnightblue" stroke="midnightblue" points="896.758,-30.1559 897.145,-19.5681 890.24,-27.6036 896.758,-30.1559"/>
</g>
<!-- Node17&#45;&gt;Node5 -->
<g id="edge30" class="edge"><title>Node17&#45;&gt;Node5</title>
<path fill="none" stroke="midnightblue" d="M781.868,-171.847C678.77,-161.941 453.175,-140.264 340.423,-129.43"/>
<polygon fill="midnightblue" stroke="midnightblue" points="340.489,-125.921 330.2,-128.448 339.819,-132.889 340.489,-125.921"/>
</g>
<!-- Node17&#45;&gt;Node18 -->
<g id="edge26" class="edge"><title>Node17&#45;&gt;Node18</title>
<path fill="none" stroke="midnightblue" d="M845.943,-168.324C855.646,-160.263 870.315,-148.077 882,-138.369"/>
<polygon fill="midnightblue" stroke="midnightblue" points="884.411,-140.916 889.867,-131.834 879.938,-135.532 884.411,-140.916"/>
</g>
<!-- Node19 -->
<g id="node19" class="node"><title>Node19</title>
<polygon fill="white" stroke="#bfbfbf" points="689,-112.5 689,-131.5 742,-131.5 742,-112.5 689,-112.5"/>
<text text-anchor="middle" x="715.5" y="-119.5" font-family="Ubuntu Regular" font-size="10.00">fstream</text>
</g>
<!-- Node17&#45;&gt;Node19 -->
<g id="edge27" class="edge"><title>Node17&#45;&gt;Node19</title>
<path fill="none" stroke="midnightblue" d="M816.486,-168.444C796.912,-159.636 766.192,-145.812 743.771,-135.722"/>
<polygon fill="midnightblue" stroke="midnightblue" points="744.981,-132.428 734.425,-131.516 742.108,-138.812 744.981,-132.428"/>
</g>
<!-- Node20 -->
<g id="node20" class="node"><title>Node20</title>
<polygon fill="white" stroke="#bfbfbf" points="760,-112.5 760,-131.5 817,-131.5 817,-112.5 760,-112.5"/>
<text text-anchor="middle" x="788.5" y="-119.5" font-family="Ubuntu Regular" font-size="10.00">iostream</text>
</g>
<!-- Node17&#45;&gt;Node20 -->
<g id="edge28" class="edge"><title>Node17&#45;&gt;Node20</title>
<path fill="none" stroke="midnightblue" d="M827.739,-168.083C820.963,-160.298 810.957,-148.801 802.745,-139.367"/>
<polygon fill="midnightblue" stroke="midnightblue" points="805.322,-136.996 796.117,-131.751 800.042,-141.592 805.322,-136.996"/>
</g>
<!-- Node21&#45;&gt;Node4 -->
<g id="edge32" class="edge"><title>Node21&#45;&gt;Node4</title>
<path fill="none" stroke="midnightblue" d="M637.721,-168.318C644.717,-154.707 659.911,-128.227 679.5,-112 734.093,-66.7772 812.242,-37.4046 859.498,-22.5596"/>
<polygon fill="midnightblue" stroke="midnightblue" points="860.562,-25.8943 869.093,-19.6119 858.506,-19.2029 860.562,-25.8943"/>
</g>
<!-- Node21&#45;&gt;Node5 -->
<g id="edge33" class="edge"><title>Node21&#45;&gt;Node5</title>
<path fill="none" stroke="midnightblue" d="M579.993,-168.974C516.146,-159.397 409.365,-143.38 340.197,-133.005"/>
<polygon fill="midnightblue" stroke="midnightblue" points="340.683,-129.538 330.275,-131.516 339.645,-136.461 340.683,-129.538"/>
</g>
<!-- Node22&#45;&gt;Node4 -->
<g id="edge38" class="edge"><title>Node22&#45;&gt;Node4</title>
<path fill="none" stroke="midnightblue" d="M711.133,-226.904C775.643,-220.054 867.316,-207.301 897.5,-188 929.486,-167.547 942.968,-149.411 936.5,-112 931.285,-81.8355 917.915,-48.7484 909.019,-28.9402"/>
<polygon fill="midnightblue" stroke="midnightblue" points="912.096,-27.2554 904.729,-19.6411 905.74,-30.1876 912.096,-27.2554"/>
</g>
<!-- Node22&#45;&gt;Node5 -->
<g id="edge39" class="edge"><title>Node22&#45;&gt;Node5</title>
<path fill="none" stroke="midnightblue" d="M659.126,-224.33C680.118,-211.621 712.891,-187.344 695.5,-168 672.243,-142.131 453.639,-129.94 340.565,-125.324"/>
<polygon fill="midnightblue" stroke="midnightblue" points="340.425,-121.816 330.293,-124.914 340.145,-128.81 340.425,-121.816"/>
</g>
<!-- Node22&#45;&gt;Node8 -->
<g id="edge36" class="edge"><title>Node22&#45;&gt;Node8</title>
<path fill="none" stroke="midnightblue" d="M665.491,-224.317C691.629,-212.705 729.679,-190.911 712.5,-168 679.166,-123.544 525.569,-92.1619 434.609,-77.1089"/>
<polygon fill="midnightblue" stroke="midnightblue" points="435.086,-73.6406 424.653,-75.4851 433.959,-80.5493 435.086,-73.6406"/>
</g>
<!-- Node22&#45;&gt;Node15 -->
<g id="edge35" class="edge"><title>Node22&#45;&gt;Node15</title>
<path fill="none" stroke="midnightblue" d="M606.105,-224.444C563.299,-214.649 493.386,-198.652 448.951,-188.484"/>
<polygon fill="midnightblue" stroke="midnightblue" points="449.584,-185.039 439.055,-186.22 448.023,-191.863 449.584,-185.039"/>
</g>
<!-- Node22&#45;&gt;Node16 -->
<g id="edge37" class="edge"><title>Node22&#45;&gt;Node16</title>
<path fill="none" stroke="midnightblue" d="M622.267,-224.444C600.116,-215.517 565.181,-201.439 540.064,-191.317"/>
<polygon fill="midnightblue" stroke="midnightblue" points="541.217,-188.008 530.633,-187.516 538.6,-194.501 541.217,-188.008"/>
</g>
<!-- Node22&#45;&gt;Node17 -->
<g id="edge40" class="edge"><title>Node22&#45;&gt;Node17</title>
<path fill="none" stroke="midnightblue" d="M673.923,-224.444C706.785,-215.201 759.285,-200.436 795.474,-190.257"/>
<polygon fill="midnightblue" stroke="midnightblue" points="796.54,-193.593 805.219,-187.516 794.645,-186.855 796.54,-193.593"/>
</g>
<!-- Node22&#45;&gt;Node21 -->
<g id="edge41" class="edge"><title>Node22&#45;&gt;Node21</title>
<path fill="none" stroke="midnightblue" d="M641.849,-224.083C640.524,-216.927 638.618,-206.635 636.961,-197.691"/>
<polygon fill="midnightblue" stroke="midnightblue" points="640.383,-196.947 635.121,-187.751 633.5,-198.221 640.383,-196.947"/>
</g>
</g>
</svg>
        <g id="navigator" transform="translate(0 0)" fill="#404254">
                <rect fill="#f2f5e9" fill-opacity="0.5" stroke="#606060" stroke-width=".5" x="0" y="0" width="60" height="60"/>
                <use id="zoomplus" xlink:href="#zoomPlus" x="17" y="9" onmousedown="handleZoom(evt,'in')"/>
                <use id="zoomminus" xlink:href="#zoomMin" x="42" y="9" onmousedown="handleZoom(evt,'out')"/>
                <use id="reset" xlink:href="#resetDef" x="30" y="36" onmousedown="handleReset()"/>
                <g id="arrowUp" xlink:href="#dirArrow" transform="translate(30 24)" onmousedown="handlePan(0,-1)">
                  <use xlink:href="#rim" fill="#404040">
                        <set attributeName="fill" to="#808080" begin="arrowUp.mouseover" end="arrowUp.mouseout"/>
                  </use>
                  <path fill="none" stroke="white" stroke-width="1.5" d="M0,-3.0v7 M-2.5,-0.5L0,-3.0L2.5,-0.5"/>
                </g>
                <g id="arrowRight" xlink:href="#dirArrow" transform="rotate(90) translate(36 -43)" onmousedown="handlePan(1,0)">
                  <use xlink:href="#rim" fill="#404040">
                        <set attributeName="fill" to="#808080" begin="arrowRight.mouseover" end="arrowRight.mouseout"/>
                  </use>
                  <path fill="none" stroke="white" stroke-width="1.5" d="M0,-3.0v7 M-2.5,-0.5L0,-3.0L2.5,-0.5"/>
                </g>
                <g id="arrowDown" xlink:href="#dirArrow" transform="rotate(180) translate(-30 -48)" onmousedown="handlePan(0,1)">
                  <use xlink:href="#rim" fill="#404040">
                        <set attributeName="fill" to="#808080" begin="arrowDown.mouseover" end="arrowDown.mouseout"/>
                  </use>
                  <path fill="none" stroke="white" stroke-width="1.5" d="M0,-3.0v7 M-2.5,-0.5L0,-3.0L2.5,-0.5"/>
                </g>
                <g id="arrowLeft" xlink:href="#dirArrow" transform="rotate(270) translate(-36 17)" onmousedown="handlePan(-1,0)">
                  <use xlink:href="#rim" fill="#404040">
                        <set attributeName="fill" to="#808080" begin="arrowLeft.mouseover" end="arrowLeft.mouseout"/>
                  </use>
                  <path fill="none" stroke="white" stroke-width="1.5" d="M0,-3.0v7 M-2.5,-0.5L0,-3.0L2.5,-0.5"/>
                </g>
        </g>
        <svg viewBox="0 0 15 15" width="100%" height="30px" preserveAspectRatio="xMaxYMin meet">
         <g id="arrow_out" transform="scale(0.3 0.3)">
          <a xlink:href="release__manifest_8cpp__incl_org.svg" target="_base">
           <rect id="button" ry="5" rx="5" y="6" x="6" height="38" width="38"
                fill="#f2f5e9" fill-opacity="0.5" stroke="#606060" stroke-width="1.0"/>
           <path id="arrow"
             d="M 11.500037,31.436501 C 11.940474,20.09759 22.043105,11.32322 32.158766,21.979434 L 37.068811,17.246167 C 37.068811,17.246167 37.088388,32 37.088388,32 L 22.160133,31.978069 C 22.160133,31.978069 26.997745,27.140456 26.997745,27.140456 C 18.528582,18.264221 13.291696,25.230495 11.500037,31.436501 z"
             style="fill:#404040;"/>
          </a>
         </g>
        </svg>
</svg>
