<?xml version="1.0" encoding="UTF-8" standalone="no"?>
<!DOCTYPE svg PUBLIC "-//W3C//DTD SVG 1.1//EN"
 "http://www.w3.org/Graphics/SVG/1.1/DTD/svg11.dtd">
<!-- Generated by graphviz version 2.38.0 (20140413.2041)
 -->
<!-- Title: include/karazeh/release_manifest.hpp Pages: 1 -->
<svg width="1131pt" height="431pt"
 viewBox="0.00 0.00 1131.00 431.00" xmlns="http://www.w3.org/2000/svg" xmlns:xlink="http://www.w3.org/1999/xlink">
<g id="graph0" class="graph" transform="scale(1 1) rotate(0) translate(4 427)">
<title>include/karazeh/release_manifest.hpp</title>
<polygon fill="white" stroke="none" points="-4,4 -4,-427 1127,-427 1127,4 -4,4"/>
<!-- Node1 -->
<g id="node1" class="node"><title>Node1</title>
<polygon fill="#bfbfbf" stroke="black" points="212.5,-392.5 212.5,-422.5 340.5,-422.5 340.5,-392.5 212.5,-392.5"/>
<text text-anchor="start" x="220.5" y="-410.5" font-family="Ubuntu Regular" font-size="10.00">include/karazeh/release</text>
<text text-anchor="middle" x="276.5" y="-399.5" font-family="Ubuntu Regular" font-size="10.00">_manifest.hpp</text>
</g>
<!-- Node2 -->
<g id="node2" class="node"><title>Node2</title>
<polygon fill="white" stroke="#bfbfbf" points="0,-336.5 0,-355.5 47,-355.5 47,-336.5 0,-336.5"/>
<text text-anchor="middle" x="23.5" y="-343.5" font-family="Ubuntu Regular" font-size="10.00">vector</text>
</g>
<!-- Node1&#45;&gt;Node2 -->
<g id="edge1" class="edge"><title>Node1&#45;&gt;Node2</title>
<path fill="none" stroke="midnightblue" d="M216.716,-392.489C173.572,-382.37 113.932,-368.367 61.5,-356 60.0565,-355.66 58.5823,-355.312 57.0931,-354.96"/>
<polygon fill="midnightblue" stroke="midnightblue" points="57.7522,-351.519 47.2151,-352.624 56.1412,-358.331 57.7522,-351.519"/>
</g>
<!-- Node3 -->
<g id="node3" class="node"><title>Node3</title>
<polygon fill="white" stroke="#bfbfbf" points="160,-0.5 160,-19.5 257,-19.5 257,-0.5 160,-0.5"/>
<text text-anchor="middle" x="208.5" y="-7.5" font-family="Ubuntu Regular" font-size="10.00">karazeh_export.h</text>
</g>
<!-- Node1&#45;&gt;Node3 -->
<g id="edge2" class="edge"><title>Node1&#45;&gt;Node3</title>
<path fill="none" stroke="midnightblue" d="M212.35,-397.002C153.526,-384.232 75.5,-355.194 75.5,-291 75.5,-291 75.5,-291 75.5,-121 75.5,-70.7254 132.629,-39.1005 172.003,-23.2746"/>
<polygon fill="midnightblue" stroke="midnightblue" points="173.508,-26.4459 181.585,-19.5897 170.996,-19.9123 173.508,-26.4459"/>
</g>
<!-- Node4 -->
<g id="node4" class="node"><title>Node4</title>
<g id="a_node4"><a xlink:href="karazeh_8hpp.html" target="_top" xlink:title="karazeh/karazeh.hpp">
<polygon fill="white" stroke="black" points="757,-112.5 757,-131.5 870,-131.5 870,-112.5 757,-112.5"/>
<text text-anchor="middle" x="813.5" y="-119.5" font-family="Ubuntu Regular" font-size="10.00">karazeh/karazeh.hpp</text>
</a>
</g>
</g>
<!-- Node1&#45;&gt;Node4 -->
<g id="edge3" class="edge"><title>Node1&#45;&gt;Node4</title>
<path fill="none" stroke="midnightblue" d="M340.725,-402.19C508.945,-390.047 949.5,-352.386 949.5,-291 949.5,-291 949.5,-291 949.5,-233 949.5,-182.081 891.156,-150.674 850.897,-135.063"/>
<polygon fill="midnightblue" stroke="midnightblue" points="851.943,-131.718 841.35,-131.522 849.508,-138.281 851.943,-131.718"/>
</g>
<!-- Node11 -->
<g id="node11" class="node"><title>Node11</title>
<g id="a_node11"><a xlink:href="operation_8hpp.html" target="_top" xlink:title="karazeh/operation.hpp">
<polygon fill="white" stroke="black" points="416.5,-336.5 416.5,-355.5 538.5,-355.5 538.5,-336.5 416.5,-336.5"/>
<text text-anchor="middle" x="477.5" y="-343.5" font-family="Ubuntu Regular" font-size="10.00">karazeh/operation.hpp</text>
</a>
</g>
</g>
<!-- Node1&#45;&gt;Node11 -->
<g id="edge12" class="edge"><title>Node1&#45;&gt;Node11</title>
<path fill="none" stroke="midnightblue" d="M323.88,-392.475C359.011,-382.075 406.294,-368.078 439.083,-358.372"/>
<polygon fill="midnightblue" stroke="midnightblue" points="440.169,-361.701 448.764,-355.506 438.182,-354.989 440.169,-361.701"/>
</g>
<!-- Node5 -->
<g id="node5" class="node"><title>Node5</title>
<polygon fill="white" stroke="#bfbfbf" points="907,-0.5 907,-19.5 950,-19.5 950,-0.5 907,-0.5"/>
<text text-anchor="middle" x="928.5" y="-7.5" font-family="Ubuntu Regular" font-size="10.00">string</text>
</g>
<!-- Node4&#45;&gt;Node5 -->
<g id="edge4" class="edge"><title>Node4&#45;&gt;Node5</title>
<path fill="none" stroke="midnightblue" d="M822.524,-112.368C841.838,-93.8941 887.421,-50.2926 912.041,-26.7436"/>
<polygon fill="midnightblue" stroke="midnightblue" points="914.711,-29.0329 919.518,-19.5914 909.872,-23.9744 914.711,-29.0329"/>
</g>
<!-- Node6 -->
<g id="node6" class="node"><title>Node6</title>
<polygon fill="white" stroke="#bfbfbf" points="788.5,-56.5 788.5,-75.5 838.5,-75.5 838.5,-56.5 788.5,-56.5"/>
<text text-anchor="middle" x="813.5" y="-63.5" font-family="Ubuntu Regular" font-size="10.00">cassert</text>
</g>
<!-- Node4&#45;&gt;Node6 -->
<g id="edge5" class="edge"><title>Node4&#45;&gt;Node6</title>
<path fill="none" stroke="midnightblue" d="M813.5,-112.083C813.5,-105.006 813.5,-94.8611 813.5,-85.9865"/>
<polygon fill="midnightblue" stroke="midnightblue" points="817,-85.751 813.5,-75.7511 810,-85.7511 817,-85.751"/>
</g>
<!-- Node7 -->
<g id="node7" class="node"><title>Node7</title>
<polygon fill="white" stroke="#bfbfbf" points="571.5,-56.5 571.5,-75.5 687.5,-75.5 687.5,-56.5 571.5,-56.5"/>
<text text-anchor="middle" x="629.5" y="-63.5" font-family="Ubuntu Regular" font-size="10.00">boost/filesystem.hpp</text>
</g>
<!-- Node4&#45;&gt;Node7 -->
<g id="edge6" class="edge"><title>Node4&#45;&gt;Node7</title>
<path fill="none" stroke="midnightblue" d="M784.345,-112.444C752.987,-103.241 702.969,-88.5617 668.303,-78.3879"/>
<polygon fill="midnightblue" stroke="midnightblue" points="669.1,-74.9742 658.519,-75.5164 667.129,-81.6909 669.1,-74.9742"/>
</g>
<!-- Node8 -->
<g id="node8" class="node"><title>Node8</title>
<g id="a_node8"><a xlink:href="exception_8hpp.html" target="_top" xlink:title="karazeh/exception.hpp">
<polygon fill="white" stroke="black" points="952,-56.5 952,-75.5 1075,-75.5 1075,-56.5 952,-56.5"/>
<text text-anchor="middle" x="1013.5" y="-63.5" font-family="Ubuntu Regular" font-size="10.00">karazeh/exception.hpp</text>
</a>
</g>
</g>
<!-- Node4&#45;&gt;Node8 -->
<g id="edge7" class="edge"><title>Node4&#45;&gt;Node8</title>
<path fill="none" stroke="midnightblue" d="M845.191,-112.444C879.568,-103.162 934.577,-88.3093 972.289,-78.127"/>
<polygon fill="midnightblue" stroke="midnightblue" points="973.216,-81.5022 981.958,-75.5164 971.391,-74.7442 973.216,-81.5022"/>
</g>
<!-- Node8&#45;&gt;Node3 -->
<g id="edge11" class="edge"><title>Node8&#45;&gt;Node3</title>
<path fill="none" stroke="midnightblue" d="M951.981,-59.9875C934.983,-58.6449 916.53,-57.2267 899.5,-56 665.309,-39.1308 386.261,-21.8092 267.111,-14.5441"/>
<polygon fill="midnightblue" stroke="midnightblue" points="267.3,-11.0492 257.106,-13.9348 266.875,-18.0363 267.3,-11.0492"/>
</g>
<!-- Node8&#45;&gt;Node5 -->
<g id="edge9" class="edge"><title>Node8&#45;&gt;Node5</title>
<path fill="none" stroke="midnightblue" d="M999.843,-56.324C986.584,-47.9002 966.232,-34.9709 950.654,-25.0741"/>
<polygon fill="midnightblue" stroke="midnightblue" points="952.44,-22.0626 942.123,-19.6545 948.687,-27.9711 952.44,-22.0626"/>
</g>
<!-- Node9 -->
<g id="node9" class="node"><title>Node9</title>
<polygon fill="white" stroke="#bfbfbf" points="977,-0.5 977,-19.5 1040,-19.5 1040,-0.5 977,-0.5"/>
<text text-anchor="middle" x="1008.5" y="-7.5" font-family="Ubuntu Regular" font-size="10.00">exception</text>
</g>
<!-- Node8&#45;&gt;Node9 -->
<g id="edge8" class="edge"><title>Node8&#45;&gt;Node9</title>
<path fill="none" stroke="midnightblue" d="M1012.67,-56.083C1012.02,-49.0059 1011.08,-38.8611 1010.26,-29.9865"/>
<polygon fill="midnightblue" stroke="midnightblue" points="1013.72,-29.3858 1009.31,-19.7511 1006.75,-30.0312 1013.72,-29.3858"/>
</g>
<!-- Node10 -->
<g id="node10" class="node"><title>Node10</title>
<polygon fill="white" stroke="#bfbfbf" points="1058,-0.5 1058,-19.5 1123,-19.5 1123,-0.5 1058,-0.5"/>
<text text-anchor="middle" x="1090.5" y="-7.5" font-family="Ubuntu Regular" font-size="10.00">stdexcept</text>
</g>
<!-- Node8&#45;&gt;Node10 -->
<g id="edge10" class="edge"><title>Node8&#45;&gt;Node10</title>
<path fill="none" stroke="midnightblue" d="M1025.87,-56.324C1037.66,-48.0577 1055.63,-35.4527 1069.64,-25.6322"/>
<polygon fill="midnightblue" stroke="midnightblue" points="1071.98,-28.2619 1078.16,-19.6545 1067.96,-22.5307 1071.98,-28.2619"/>
</g>
<!-- Node11&#45;&gt;Node3 -->
<g id="edge13" class="edge"><title>Node11&#45;&gt;Node3</title>
<path fill="none" stroke="midnightblue" d="M416.164,-339.205C312.427,-327.692 113.5,-297.469 113.5,-235 113.5,-235 113.5,-235 113.5,-121 113.5,-77.7385 156.108,-43.0862 184.255,-24.9149"/>
<polygon fill="midnightblue" stroke="midnightblue" points="186.161,-27.851 192.813,-19.6042 182.47,-21.9032 186.161,-27.851"/>
</g>
<!-- Node11&#45;&gt;Node4 -->
<g id="edge14" class="edge"><title>Node11&#45;&gt;Node4</title>
<path fill="none" stroke="midnightblue" d="M538.857,-337.61C635.565,-324.557 816.394,-293.976 854.5,-244 878.921,-211.971 848.067,-164.499 828.068,-139.608"/>
<polygon fill="midnightblue" stroke="midnightblue" points="830.651,-137.24 821.555,-131.807 825.278,-141.727 830.651,-137.24"/>
</g>
<!-- Node12 -->
<g id="node12" class="node"><title>Node12</title>
<g id="a_node12"><a xlink:href="config_8hpp.html" target="_top" xlink:title="karazeh/config.hpp">
<polygon fill="white" stroke="black" points="740,-224.5 740,-243.5 845,-243.5 845,-224.5 740,-224.5"/>
<text text-anchor="middle" x="792.5" y="-231.5" font-family="Ubuntu Regular" font-size="10.00">karazeh/config.hpp</text>
</a>
</g>
</g>
<!-- Node11&#45;&gt;Node12 -->
<g id="edge15" class="edge"><title>Node11&#45;&gt;Node12</title>
<path fill="none" stroke="midnightblue" d="M502.636,-336.438C529.024,-327.432 571.712,-312.816 608.5,-300 660.993,-281.713 721.781,-260.166 758.668,-247.051"/>
<polygon fill="midnightblue" stroke="midnightblue" points="760.163,-250.234 768.412,-243.584 757.817,-243.638 760.163,-250.234"/>
</g>
<!-- Node13 -->
<g id="node13" class="node"><title>Node13</title>
<g id="a_node13"><a xlink:href="downloader_8hpp.html" target="_top" xlink:title="karazeh/downloader.hpp">
<polygon fill="white" stroke="black" points="469.5,-280.5 469.5,-299.5 599.5,-299.5 599.5,-280.5 469.5,-280.5"/>
<text text-anchor="middle" x="534.5" y="-287.5" font-family="Ubuntu Regular" font-size="10.00">karazeh/downloader.hpp</text>
</a>
</g>
</g>
<!-- Node11&#45;&gt;Node13 -->
<g id="edge18" class="edge"><title>Node11&#45;&gt;Node13</title>
<path fill="none" stroke="midnightblue" d="M486.658,-336.324C495.001,-328.42 507.532,-316.548 517.677,-306.938"/>
<polygon fill="midnightblue" stroke="midnightblue" points="520.323,-309.252 525.175,-299.834 515.509,-304.171 520.323,-309.252"/>
</g>
<!-- Node21 -->
<g id="node21" class="node"><title>Node21</title>
<g id="a_node21"><a xlink:href="file__manager_8hpp.html" target="_top" xlink:title="karazeh/file_manager.hpp">
<polygon fill="white" stroke="black" points="352,-224.5 352,-243.5 487,-243.5 487,-224.5 352,-224.5"/>
<text text-anchor="middle" x="419.5" y="-231.5" font-family="Ubuntu Regular" font-size="10.00">karazeh/file_manager.hpp</text>
</a>
</g>
</g>
<!-- Node11&#45;&gt;Node21 -->
<g id="edge42" class="edge"><title>Node11&#45;&gt;Node21</title>
<path fill="none" stroke="midnightblue" d="M472.949,-336.368C463.462,-318.376 441.408,-276.55 428.794,-252.627"/>
<polygon fill="midnightblue" stroke="midnightblue" points="431.79,-250.805 424.03,-243.591 425.598,-254.07 431.79,-250.805"/>
</g>
<!-- Node12&#45;&gt;Node3 -->
<g id="edge16" class="edge"><title>Node12&#45;&gt;Node3</title>
<path fill="none" stroke="midnightblue" d="M804.13,-224.293C824.11,-208.515 864.274,-173.005 879.5,-132 892.257,-97.6422 878.533,-75.4983 847.5,-56 799.106,-25.5934 416.406,-15.0034 267.495,-12.011"/>
<polygon fill="midnightblue" stroke="midnightblue" points="267.252,-8.50567 257.185,-11.8085 267.115,-15.5043 267.252,-8.50567"/>
</g>
<!-- Node12&#45;&gt;Node4 -->
<g id="edge17" class="edge"><title>Node12&#45;&gt;Node4</title>
<path fill="none" stroke="midnightblue" d="M797.29,-224.354C801.906,-215.52 808.603,-201.256 811.5,-188 814.855,-172.644 815.153,-154.767 814.726,-141.652"/>
<polygon fill="midnightblue" stroke="midnightblue" points="818.215,-141.349 814.223,-131.535 811.224,-141.697 818.215,-141.349"/>
</g>
<!-- Node13&#45;&gt;Node3 -->
<g id="edge22" class="edge"><title>Node13&#45;&gt;Node3</title>
<path fill="none" stroke="midnightblue" d="M469.095,-283.732C359.706,-273.101 151.5,-244.29 151.5,-179 151.5,-179 151.5,-179 151.5,-121 151.5,-84.3005 176.821,-47.6567 193.71,-27.2973"/>
<polygon fill="midnightblue" stroke="midnightblue" points="196.454,-29.475 200.333,-19.6161 191.152,-24.9037 196.454,-29.475"/>
</g>
<!-- Node13&#45;&gt;Node4 -->
<g id="edge23" class="edge"><title>Node13&#45;&gt;Node4</title>
<path fill="none" stroke="midnightblue" d="M566.814,-280.474C595.597,-272.444 638.591,-259.373 674.5,-244 722.401,-223.494 740.512,-224.701 777.5,-188 790.927,-174.678 800.783,-155.293 806.754,-141.161"/>
<polygon fill="midnightblue" stroke="midnightblue" points="810.126,-142.151 810.557,-131.565 803.619,-139.572 810.126,-142.151"/>
</g>
<!-- Node13&#45;&gt;Node7 -->
<g id="edge20" class="edge"><title>Node13&#45;&gt;Node7</title>
<path fill="none" stroke="midnightblue" d="M544.161,-280.394C561.586,-264.234 597.996,-227.408 614.5,-188 628.759,-153.952 630.552,-110.145 630.246,-85.6725"/>
<polygon fill="midnightblue" stroke="midnightblue" points="633.744,-85.521 629.984,-75.6157 626.746,-85.7035 633.744,-85.521"/>
</g>
<!-- Node13&#45;&gt;Node12 -->
<g id="edge41" class="edge"><title>Node13&#45;&gt;Node12</title>
<path fill="none" stroke="midnightblue" d="M575.381,-280.444C620.483,-271.004 693.112,-255.802 741.802,-245.611"/>
<polygon fill="midnightblue" stroke="midnightblue" points="742.74,-248.991 751.81,-243.516 741.305,-242.139 742.74,-248.991"/>
</g>
<!-- Node14 -->
<g id="node14" class="node"><title>Node14</title>
<polygon fill="white" stroke="#bfbfbf" points="420,-168.5 420,-187.5 483,-187.5 483,-168.5 420,-168.5"/>
<text text-anchor="middle" x="451.5" y="-175.5" font-family="Ubuntu Regular" font-size="10.00">curl/curl.h</text>
</g>
<!-- Node13&#45;&gt;Node14 -->
<g id="edge19" class="edge"><title>Node13&#45;&gt;Node14</title>
<path fill="none" stroke="midnightblue" d="M530.056,-280.173C523.374,-267.269 509.973,-242.753 495.5,-224 487.424,-213.536 477.156,-202.913 468.571,-194.618"/>
<polygon fill="midnightblue" stroke="midnightblue" points="470.944,-192.046 461.27,-187.726 466.139,-197.136 470.944,-192.046"/>
</g>
<!-- Node15 -->
<g id="node15" class="node"><title>Node15</title>
<polygon fill="white" stroke="#bfbfbf" points="501.5,-168.5 501.5,-187.5 605.5,-187.5 605.5,-168.5 501.5,-168.5"/>
<text text-anchor="middle" x="553.5" y="-175.5" font-family="Ubuntu Regular" font-size="10.00">binreloc/binreloc.h</text>
</g>
<!-- Node13&#45;&gt;Node15 -->
<g id="edge21" class="edge"><title>Node13&#45;&gt;Node15</title>
<path fill="none" stroke="midnightblue" d="M535.991,-280.368C539.057,-262.617 546.13,-221.666 550.288,-197.597"/>
<polygon fill="midnightblue" stroke="midnightblue" points="553.763,-198.041 552.016,-187.591 546.865,-196.85 553.763,-198.041"/>
</g>
<!-- Node16 -->
<g id="node16" class="node"><title>Node16</title>
<g id="a_node16"><a xlink:href="logger_8hpp.html" target="_top" xlink:title="karazeh/logger.hpp">
<polygon fill="white" stroke="black" points="218,-168.5 218,-187.5 325,-187.5 325,-168.5 218,-168.5"/>
<text text-anchor="middle" x="271.5" y="-175.5" font-family="Ubuntu Regular" font-size="10.00">karazeh/logger.hpp</text>
</a>
</g>
</g>
<!-- Node13&#45;&gt;Node16 -->
<g id="edge24" class="edge"><title>Node13&#45;&gt;Node16</title>
<path fill="none" stroke="midnightblue" d="M469.354,-282.129C430.756,-276.06 381.859,-264.78 342.5,-244 319.522,-231.868 298.265,-210.496 285.114,-195.582"/>
<polygon fill="midnightblue" stroke="midnightblue" points="287.512,-193 278.357,-187.667 282.188,-197.545 287.512,-193"/>
</g>
<!-- Node20 -->
<g id="node20" class="node"><title>Node20</title>
<g id="a_node20"><a xlink:href="hasher_8hpp.html" target="_top" xlink:title="karazeh/hasher.hpp">
<polygon fill="white" stroke="black" points="662,-168.5 662,-187.5 769,-187.5 769,-168.5 662,-168.5"/>
<text text-anchor="middle" x="715.5" y="-175.5" font-family="Ubuntu Regular" font-size="10.00">karazeh/hasher.hpp</text>
</a>
</g>
</g>
<!-- Node13&#45;&gt;Node20 -->
<g id="edge30" class="edge"><title>Node13&#45;&gt;Node20</title>
<path fill="none" stroke="midnightblue" d="M564.792,-280.443C588.453,-272.954 621.559,-260.661 647.5,-244 668.636,-230.425 688.921,-209.698 701.748,-195.313"/>
<polygon fill="midnightblue" stroke="midnightblue" points="704.467,-197.521 708.389,-187.679 699.185,-192.927 704.467,-197.521"/>
</g>
<!-- Node13&#45;&gt;Node21 -->
<g id="edge33" class="edge"><title>Node13&#45;&gt;Node21</title>
<path fill="none" stroke="midnightblue" d="M516.278,-280.444C497.604,-271.675 468.344,-257.935 446.883,-247.858"/>
<polygon fill="midnightblue" stroke="midnightblue" points="448.176,-244.599 437.637,-243.516 445.201,-250.935 448.176,-244.599"/>
</g>
<!-- Node16&#45;&gt;Node3 -->
<g id="edge28" class="edge"><title>Node16&#45;&gt;Node3</title>
<path fill="none" stroke="midnightblue" d="M265.971,-168.305C260.498,-159.432 252.143,-145.139 246.5,-132 231.421,-96.8949 219.325,-53.7883 213.096,-29.6555"/>
<polygon fill="midnightblue" stroke="midnightblue" points="216.431,-28.5638 210.59,-19.7245 209.643,-30.277 216.431,-28.5638"/>
</g>
<!-- Node16&#45;&gt;Node4 -->
<g id="edge29" class="edge"><title>Node16&#45;&gt;Node4</title>
<path fill="none" stroke="midnightblue" d="M325.451,-171.625C425.187,-161.688 638.114,-140.474 746.751,-129.65"/>
<polygon fill="midnightblue" stroke="midnightblue" points="747.327,-133.11 756.931,-128.636 746.633,-126.145 747.327,-133.11"/>
</g>
<!-- Node17 -->
<g id="node17" class="node"><title>Node17</title>
<polygon fill="white" stroke="#bfbfbf" points="256,-112.5 256,-131.5 309,-131.5 309,-112.5 256,-112.5"/>
<text text-anchor="middle" x="282.5" y="-119.5" font-family="Ubuntu Regular" font-size="10.00">sstream</text>
</g>
<!-- Node16&#45;&gt;Node17 -->
<g id="edge25" class="edge"><title>Node16&#45;&gt;Node17</title>
<path fill="none" stroke="midnightblue" d="M273.316,-168.083C274.774,-160.927 276.871,-150.635 278.693,-141.691"/>
<polygon fill="midnightblue" stroke="midnightblue" points="282.151,-142.248 280.717,-131.751 275.292,-140.851 282.151,-142.248"/>
</g>
<!-- Node18 -->
<g id="node18" class="node"><title>Node18</title>
<polygon fill="white" stroke="#bfbfbf" points="327,-112.5 327,-131.5 380,-131.5 380,-112.5 327,-112.5"/>
<text text-anchor="middle" x="353.5" y="-119.5" font-family="Ubuntu Regular" font-size="10.00">fstream</text>
</g>
<!-- Node16&#45;&gt;Node18 -->
<g id="edge26" class="edge"><title>Node16&#45;&gt;Node18</title>
<path fill="none" stroke="midnightblue" d="M284.675,-168.324C297.347,-159.979 316.733,-147.212 331.706,-137.352"/>
<polygon fill="midnightblue" stroke="midnightblue" points="333.931,-140.078 340.358,-131.655 330.081,-134.231 333.931,-140.078"/>
</g>
<!-- Node19 -->
<g id="node19" class="node"><title>Node19</title>
<polygon fill="white" stroke="#bfbfbf" points="398,-112.5 398,-131.5 455,-131.5 455,-112.5 398,-112.5"/>
<text text-anchor="middle" x="426.5" y="-119.5" font-family="Ubuntu Regular" font-size="10.00">iostream</text>
</g>
<!-- Node16&#45;&gt;Node19 -->
<g id="edge27" class="edge"><title>Node16&#45;&gt;Node19</title>
<path fill="none" stroke="midnightblue" d="M296.06,-168.444C322.023,-159.399 363.168,-145.064 392.297,-134.916"/>
<polygon fill="midnightblue" stroke="midnightblue" points="393.763,-138.112 402.055,-131.516 391.46,-131.501 393.763,-138.112"/>
</g>
<!-- Node20&#45;&gt;Node3 -->
<g id="edge31" class="edge"><title>Node20&#45;&gt;Node3</title>
<path fill="none" stroke="midnightblue" d="M717.265,-168.386C721.282,-146.058 728.447,-85.9708 696.5,-56 665.758,-27.1589 390.161,-16.0038 267.235,-12.436"/>
<polygon fill="midnightblue" stroke="midnightblue" points="267.333,-8.93749 257.238,-12.1529 267.135,-15.9347 267.333,-8.93749"/>
</g>
<!-- Node20&#45;&gt;Node4 -->
<g id="edge32" class="edge"><title>Node20&#45;&gt;Node4</title>
<path fill="none" stroke="midnightblue" d="M731.245,-168.324C746.819,-159.743 770.877,-146.486 788.959,-136.522"/>
<polygon fill="midnightblue" stroke="midnightblue" points="790.724,-139.546 797.794,-131.655 787.346,-133.415 790.724,-139.546"/>
</g>
<!-- Node21&#45;&gt;Node3 -->
<g id="edge37" class="edge"><title>Node21&#45;&gt;Node3</title>
<path fill="none" stroke="midnightblue" d="M351.92,-227.681C297.202,-221.805 226.377,-210.092 208.5,-188 171.173,-141.873 190.158,-64.625 201.74,-29.4506"/>
<polygon fill="midnightblue" stroke="midnightblue" points="205.186,-30.1963 205.16,-19.6015 198.573,-27.9003 205.186,-30.1963"/>
</g>
<!-- Node21&#45;&gt;Node4 -->
<g id="edge38" class="edge"><title>Node21&#45;&gt;Node4</title>
<path fill="none" stroke="midnightblue" d="M414.448,-224.175C407.288,-210.367 396.524,-183.623 410.5,-168 432.468,-143.443 637.826,-130.737 746.602,-125.682"/>
<polygon fill="midnightblue" stroke="midnightblue" points="746.988,-129.168 756.818,-125.216 746.669,-122.175 746.988,-129.168"/>
</g>
<!-- Node21&#45;&gt;Node7 -->
<g id="edge35" class="edge"><title>Node21&#45;&gt;Node7</title>
<path fill="none" stroke="midnightblue" d="M412.726,-224.34C403.348,-211.216 388.815,-185.925 400.5,-168 411.964,-150.415 536.605,-101.828 597.028,-79.063"/>
<polygon fill="midnightblue" stroke="midnightblue" points="598.359,-82.3018 606.491,-75.5109 595.899,-75.7483 598.359,-82.3018"/>
</g>
<!-- Node21&#45;&gt;Node14 -->
<g id="edge34" class="edge"><title>Node21&#45;&gt;Node14</title>
<path fill="none" stroke="midnightblue" d="M424.784,-224.083C429.211,-216.613 435.663,-205.724 441.118,-196.52"/>
<polygon fill="midnightblue" stroke="midnightblue" points="444.227,-198.138 446.314,-187.751 438.205,-194.57 444.227,-198.138"/>
</g>
<!-- Node21&#45;&gt;Node15 -->
<g id="edge36" class="edge"><title>Node21&#45;&gt;Node15</title>
<path fill="none" stroke="midnightblue" d="M440.733,-224.444C462.884,-215.517 497.819,-201.439 522.936,-191.317"/>
<polygon fill="midnightblue" stroke="midnightblue" points="524.4,-194.501 532.367,-187.516 521.783,-188.008 524.4,-194.501"/>
</g>
<!-- Node21&#45;&gt;Node16 -->
<g id="edge39" class="edge"><title>Node21&#45;&gt;Node16</title>
<path fill="none" stroke="midnightblue" d="M396.049,-224.444C371.367,-215.438 332.315,-201.189 304.523,-191.049"/>
<polygon fill="midnightblue" stroke="midnightblue" points="305.435,-187.656 294.841,-187.516 303.036,-194.232 305.435,-187.656"/>
</g>
<!-- Node21&#45;&gt;Node20 -->
<g id="edge40" class="edge"><title>Node21&#45;&gt;Node20</title>
<path fill="none" stroke="midnightblue" d="M466.402,-224.444C518.58,-214.925 602.871,-199.547 658.732,-189.356"/>
<polygon fill="midnightblue" stroke="midnightblue" points="659.608,-192.754 668.817,-187.516 658.352,-185.868 659.608,-192.754"/>
</g>
</g>
</svg>
