<?xml version="1.0" encoding="UTF-8" standalone="no"?>
<!DOCTYPE svg PUBLIC "-//W3C//DTD SVG 1.1//EN"
 "http://www.w3.org/Graphics/SVG/1.1/DTD/svg11.dtd">
<!-- Generated by graphviz version 2.38.0 (20140413.2041)
 -->
<!-- Title: include/karazeh/release_manifest.hpp Pages: 1 -->
<!--zoomable 173 -->
<svg id="main" version="1.1" xmlns="http://www.w3.org/2000/svg" xmlns:xlink="http://www.w3.org/1999/xlink" xml:space="preserve" onload="init(evt)">
<style type="text/css"><![CDATA[
.edge:hover path { stroke: red; }
.edge:hover polygon { stroke: red; fill: red; }
]]></style>
<script type="text/javascript"><![CDATA[
var edges = document.getElementsByTagName('g');
if (edges && edges.length) {
  for (var i=0;i<edges.length;i++) {
    if (edges[i].id.substr(0,4)=='edge') {
      edges[i].setAttribute('class','edge');
    }
  }
}
]]></script>
        <defs>
                <circle id="rim" cx="0" cy="0" r="7"/>
                <circle id="rim2" cx="0" cy="0" r="3.5"/>
                <g id="zoomPlus">
                        <use xlink:href="#rim" fill="#404040">
                                <set attributeName="fill" to="#808080" begin="zoomplus.mouseover" end="zoomplus.mouseout"/>
                        </use>
                        <path d="M-4,0h8M0,-4v8" fill="none" stroke="white" stroke-width="1.5" pointer-events="none"/>
                </g>
                <g id="zoomMin">
                        <use xlink:href="#rim" fill="#404040">
                                <set attributeName="fill" to="#808080" begin="zoomminus.mouseover" end="zoomminus.mouseout"/>
                        </use>
                        <path d="M-4,0h8" fill="none" stroke="white" stroke-width="1.5" pointer-events="none"/>
                </g>
                <g id="dirArrow">
                        <path fill="none" stroke="white" stroke-width="1.5" d="M0,-3.0v7 M-2.5,-0.5L0,-3.0L2.5,-0.5"/>
                </g>
               <g id="resetDef">
                       <use xlink:href="#rim2" fill="#404040">
                               <set attributeName="fill" to="#808080" begin="reset.mouseover" end="reset.mouseout"/>
                       </use>
               </g>
        </defs>

<script type="text/javascript">
var viewWidth = 1168;
var viewHeight = 173;
var sectionId = 'dynsection-1';
</script>
<script xlink:href="svgpan.js"/>
<svg id="graph" class="graph">
<g id="viewport">
<title>include/karazeh/release_manifest.hpp</title>
<polygon fill="white" stroke="none" points="-4,4 -4,-169 1163.5,-169 1163.5,4 -4,4"/>
<!-- Node1 -->
<g id="node1" class="node"><title>Node1</title>
<polygon fill="#bfbfbf" stroke="black" points="562.5,-134.5 562.5,-164.5 690.5,-164.5 690.5,-134.5 562.5,-134.5"/>
<text text-anchor="start" x="570.5" y="-152.5" font-family="Ubuntu Regular" font-size="10.00">include/karazeh/release</text>
<text text-anchor="middle" x="626.5" y="-141.5" font-family="Ubuntu Regular" font-size="10.00">_manifest.hpp</text>
</g>
<!-- Node2 -->
<g id="node2" class="node"><title>Node2</title>
<g id="a_node2"><a xlink:href="patcher_8hpp.html" target="_top" xlink:title="include/karazeh/patcher.hpp">
<polygon fill="white" stroke="black" points="108,-73 108,-92 257,-92 257,-73 108,-73"/>
<text text-anchor="middle" x="182.5" y="-80" font-family="Ubuntu Regular" font-size="10.00">include/karazeh/patcher.hpp</text>
</a>
</g>
</g>
<!-- Node1&#45;&gt;Node2 -->
<g id="edge1" class="edge"><title>Node1&#45;&gt;Node2</title>
<path fill="none" stroke="midnightblue" d="M552.356,-138.795C479.499,-129.094 365.209,-113.439 266.5,-98 254.803,-96.1705 242.214,-94.0684 230.432,-92.0428"/>
<polygon fill="midnightblue" stroke="midnightblue" points="551.981,-142.276 562.355,-140.123 552.903,-135.337 551.981,-142.276"/>
</g>
<!-- Node5 -->
<g id="node5" class="node"><title>Node5</title>
<g id="a_node5"><a xlink:href="version__manifest_8hpp.html" target="_top" xlink:title="include/karazeh/version\l_manifest.hpp">
<polygon fill="white" stroke="black" points="275.5,-67.5 275.5,-97.5 401.5,-97.5 401.5,-67.5 275.5,-67.5"/>
<text text-anchor="start" x="283.5" y="-85.5" font-family="Ubuntu Regular" font-size="10.00">include/karazeh/version</text>
<text text-anchor="middle" x="338.5" y="-74.5" font-family="Ubuntu Regular" font-size="10.00">_manifest.hpp</text>
</a>
</g>
</g>
<!-- Node1&#45;&gt;Node5 -->
<g id="edge4" class="edge"><title>Node1&#45;&gt;Node5</title>
<path fill="none" stroke="midnightblue" d="M554.511,-132.252C507.303,-121.598 446.192,-107.805 401.022,-97.6109"/>
<polygon fill="midnightblue" stroke="midnightblue" points="553.838,-135.688 564.363,-134.476 555.379,-128.86 553.838,-135.688"/>
</g>
<!-- Node8 -->
<g id="node8" class="node"><title>Node8</title>
<g id="a_node8"><a xlink:href="create_8test_8cpp.html" target="_top" xlink:title="src/operations/__tests\l__/create.test.cpp">
<polygon fill="white" stroke="black" points="419.5,-67.5 419.5,-97.5 539.5,-97.5 539.5,-67.5 419.5,-67.5"/>
<text text-anchor="start" x="427.5" y="-85.5" font-family="Ubuntu Regular" font-size="10.00">src/operations/__tests</text>
<text text-anchor="middle" x="479.5" y="-74.5" font-family="Ubuntu Regular" font-size="10.00">__/create.test.cpp</text>
</a>
</g>
</g>
<!-- Node1&#45;&gt;Node8 -->
<g id="edge8" class="edge"><title>Node1&#45;&gt;Node8</title>
<path fill="none" stroke="midnightblue" d="M585.269,-130.269C561.856,-119.916 532.992,-107.153 511.335,-97.5765"/>
<polygon fill="midnightblue" stroke="midnightblue" points="584.042,-133.553 594.603,-134.396 586.873,-127.151 584.042,-133.553"/>
</g>
<!-- Node9 -->
<g id="node9" class="node"><title>Node9</title>
<g id="a_node9"><a xlink:href="create_8cpp.html" target="_top" xlink:title="src/operations/create.cpp">
<polygon fill="white" stroke="black" points="558,-73 558,-92 695,-92 695,-73 558,-73"/>
<text text-anchor="middle" x="626.5" y="-80" font-family="Ubuntu Regular" font-size="10.00">src/operations/create.cpp</text>
</a>
</g>
</g>
<!-- Node1&#45;&gt;Node9 -->
<g id="edge9" class="edge"><title>Node1&#45;&gt;Node9</title>
<path fill="none" stroke="midnightblue" d="M626.5,-124.25C626.5,-113.017 626.5,-100.377 626.5,-92.1945"/>
<polygon fill="midnightblue" stroke="midnightblue" points="623,-124.396 626.5,-134.396 630,-124.396 623,-124.396"/>
</g>
<!-- Node10 -->
<g id="node10" class="node"><title>Node10</title>
<g id="a_node10"><a xlink:href="delete_8cpp.html" target="_top" xlink:title="src/operations/delete.cpp">
<polygon fill="white" stroke="black" points="713.5,-73 713.5,-92 851.5,-92 851.5,-73 713.5,-73"/>
<text text-anchor="middle" x="782.5" y="-80" font-family="Ubuntu Regular" font-size="10.00">src/operations/delete.cpp</text>
</a>
</g>
</g>
<!-- Node1&#45;&gt;Node10 -->
<g id="edge10" class="edge"><title>Node1&#45;&gt;Node10</title>
<path fill="none" stroke="midnightblue" d="M669.8,-130.458C699.94,-117.9 738.762,-101.724 762.083,-92.007"/>
<polygon fill="midnightblue" stroke="midnightblue" points="668.234,-127.319 660.35,-134.396 670.927,-133.781 668.234,-127.319"/>
</g>
<!-- Node11 -->
<g id="node11" class="node"><title>Node11</title>
<g id="a_node11"><a xlink:href="update_8cpp.html" target="_top" xlink:title="src/operations/update.cpp">
<polygon fill="white" stroke="black" points="869.5,-73 869.5,-92 1009.5,-92 1009.5,-73 869.5,-73"/>
<text text-anchor="middle" x="939.5" y="-80" font-family="Ubuntu Regular" font-size="10.00">src/operations/update.cpp</text>
</a>
</g>
</g>
<!-- Node1&#45;&gt;Node11 -->
<g id="edge11" class="edge"><title>Node1&#45;&gt;Node11</title>
<path fill="none" stroke="midnightblue" d="M700.685,-133.094C762.494,-120.258 848.248,-102.45 898.405,-92.0341"/>
<polygon fill="midnightblue" stroke="midnightblue" points="699.675,-129.729 690.596,-135.189 701.098,-136.583 699.675,-129.729"/>
</g>
<!-- Node12 -->
<g id="node12" class="node"><title>Node12</title>
<g id="a_node12"><a xlink:href="release__manifest_8cpp.html" target="_top" xlink:title="src/release_manifest.cpp">
<polygon fill="white" stroke="black" points="1027.5,-73 1027.5,-92 1159.5,-92 1159.5,-73 1027.5,-73"/>
<text text-anchor="middle" x="1093.5" y="-80" font-family="Ubuntu Regular" font-size="10.00">src/release_manifest.cpp</text>
</a>
</g>
</g>
<!-- Node1&#45;&gt;Node12 -->
<g id="edge12" class="edge"><title>Node1&#45;&gt;Node12</title>
<path fill="none" stroke="midnightblue" d="M700.836,-140.333C779.828,-131.326 908.28,-115.736 1018.5,-98 1029.37,-96.2512 1041.07,-94.1122 1051.93,-92.0198"/>
<polygon fill="midnightblue" stroke="midnightblue" points="700.043,-136.901 690.502,-141.506 700.833,-143.856 700.043,-136.901"/>
</g>
<!-- Node3 -->
<g id="node3" class="node"><title>Node3</title>
<g id="a_node3"><a xlink:href="patcher_8test_8cpp.html" target="_top" xlink:title="src/__tests__/patcher.test.cpp">
<polygon fill="white" stroke="black" points="107,-6 107,-25 264,-25 264,-6 107,-6"/>
<text text-anchor="middle" x="185.5" y="-13" font-family="Ubuntu Regular" font-size="10.00">src/__tests__/patcher.test.cpp</text>
</a>
</g>
</g>
<!-- Node2&#45;&gt;Node3 -->
<g id="edge2" class="edge"><title>Node2&#45;&gt;Node3</title>
<path fill="none" stroke="midnightblue" d="M183.375,-62.537C183.946,-50.1703 184.664,-34.6198 185.102,-25.1273"/>
<polygon fill="midnightblue" stroke="midnightblue" points="179.869,-62.583 182.905,-72.7338 186.862,-62.9058 179.869,-62.583"/>
</g>
<!-- Node4 -->
<g id="node4" class="node"><title>Node4</title>
<g id="a_node4"><a xlink:href="patcher_8cpp.html" target="_top" xlink:title="src/patcher.cpp">
<polygon fill="white" stroke="black" points="0,-6 0,-25 89,-25 89,-6 0,-6"/>
<text text-anchor="middle" x="44.5" y="-13" font-family="Ubuntu Regular" font-size="10.00">src/patcher.cpp</text>
</a>
</g>
</g>
<!-- Node2&#45;&gt;Node4 -->
<g id="edge3" class="edge"><title>Node2&#45;&gt;Node4</title>
<path fill="none" stroke="midnightblue" d="M154.78,-68.4436C127.447,-55.5691 86.4462,-36.2573 62.9011,-25.1672"/>
<polygon fill="midnightblue" stroke="midnightblue" points="153.637,-71.7737 164.175,-72.8685 156.619,-65.441 153.637,-71.7737"/>
</g>
<!-- Node5&#45;&gt;Node3 -->
<g id="edge5" class="edge"><title>Node5&#45;&gt;Node3</title>
<path fill="none" stroke="midnightblue" d="M296.033,-63.4585C266.473,-50.9001 228.397,-34.724 205.524,-25.007"/>
<polygon fill="midnightblue" stroke="midnightblue" points="294.729,-66.7071 305.301,-67.396 297.466,-60.2644 294.729,-66.7071"/>
</g>
<!-- Node6 -->
<g id="node6" class="node"><title>Node6</title>
<g id="a_node6"><a xlink:href="version__manifest_8test_8cpp.html" target="_top" xlink:title="src/__tests__/version\l_manifest.test.cpp">
<polygon fill="white" stroke="black" points="282,-0.5 282,-30.5 395,-30.5 395,-0.5 282,-0.5"/>
<text text-anchor="start" x="290" y="-18.5" font-family="Ubuntu Regular" font-size="10.00">src/__tests__/version</text>
<text text-anchor="middle" x="338.5" y="-7.5" font-family="Ubuntu Regular" font-size="10.00">_manifest.test.cpp</text>
</a>
</g>
</g>
<!-- Node5&#45;&gt;Node6 -->
<g id="edge6" class="edge"><title>Node5&#45;&gt;Node6</title>
<path fill="none" stroke="midnightblue" d="M338.5,-57.1081C338.5,-48.1539 338.5,-38.3227 338.5,-30.5765"/>
<polygon fill="midnightblue" stroke="midnightblue" points="335,-57.3959 338.5,-67.396 342,-57.396 335,-57.3959"/>
</g>
<!-- Node7 -->
<g id="node7" class="node"><title>Node7</title>
<g id="a_node7"><a xlink:href="version__manifest_8cpp.html" target="_top" xlink:title="src/version_manifest.cpp">
<polygon fill="white" stroke="black" points="413,-6 413,-25 544,-25 544,-6 413,-6"/>
<text text-anchor="middle" x="478.5" y="-13" font-family="Ubuntu Regular" font-size="10.00">src/version_manifest.cpp</text>
</a>
</g>
</g>
<!-- Node5&#45;&gt;Node7 -->
<g id="edge7" class="edge"><title>Node5&#45;&gt;Node7</title>
<path fill="none" stroke="midnightblue" d="M378.063,-63.1315C405.01,-50.6205 439.429,-34.6399 460.177,-25.007"/>
<polygon fill="midnightblue" stroke="midnightblue" points="376.474,-60.0103 368.878,-67.396 379.422,-66.3593 376.474,-60.0103"/>
</g>
</g>
</svg>
        <g id="navigator" transform="translate(0 0)" fill="#404254">
                <rect fill="#f2f5e9" fill-opacity="0.5" stroke="#606060" stroke-width=".5" x="0" y="0" width="60" height="60"/>
                <use id="zoomplus" xlink:href="#zoomPlus" x="17" y="9" onmousedown="handleZoom(evt,'in')"/>
                <use id="zoomminus" xlink:href="#zoomMin" x="42" y="9" onmousedown="handleZoom(evt,'out')"/>
                <use id="reset" xlink:href="#resetDef" x="30" y="36" onmousedown="handleReset()"/>
                <g id="arrowUp" xlink:href="#dirArrow" transform="translate(30 24)" onmousedown="handlePan(0,-1)">
                  <use xlink:href="#rim" fill="#404040">
                        <set attributeName="fill" to="#808080" begin="arrowUp.mouseover" end="arrowUp.mouseout"/>
                  </use>
                  <path fill="none" stroke="white" stroke-width="1.5" d="M0,-3.0v7 M-2.5,-0.5L0,-3.0L2.5,-0.5"/>
                </g>
                <g id="arrowRight" xlink:href="#dirArrow" transform="rotate(90) translate(36 -43)" onmousedown="handlePan(1,0)">
                  <use xlink:href="#rim" fill="#404040">
                        <set attributeName="fill" to="#808080" begin="arrowRight.mouseover" end="arrowRight.mouseout"/>
                  </use>
                  <path fill="none" stroke="white" stroke-width="1.5" d="M0,-3.0v7 M-2.5,-0.5L0,-3.0L2.5,-0.5"/>
                </g>
                <g id="arrowDown" xlink:href="#dirArrow" transform="rotate(180) translate(-30 -48)" onmousedown="handlePan(0,1)">
                  <use xlink:href="#rim" fill="#404040">
                        <set attributeName="fill" to="#808080" begin="arrowDown.mouseover" end="arrowDown.mouseout"/>
                  </use>
                  <path fill="none" stroke="white" stroke-width="1.5" d="M0,-3.0v7 M-2.5,-0.5L0,-3.0L2.5,-0.5"/>
                </g>
                <g id="arrowLeft" xlink:href="#dirArrow" transform="rotate(270) translate(-36 17)" onmousedown="handlePan(-1,0)">
                  <use xlink:href="#rim" fill="#404040">
                        <set attributeName="fill" to="#808080" begin="arrowLeft.mouseover" end="arrowLeft.mouseout"/>
                  </use>
                  <path fill="none" stroke="white" stroke-width="1.5" d="M0,-3.0v7 M-2.5,-0.5L0,-3.0L2.5,-0.5"/>
                </g>
        </g>
        <svg viewBox="0 0 15 15" width="100%" height="30px" preserveAspectRatio="xMaxYMin meet">
         <g id="arrow_out" transform="scale(0.3 0.3)">
          <a xlink:href="release__manifest_8hpp__dep__incl_org.svg" target="_base">
           <rect id="button" ry="5" rx="5" y="6" x="6" height="38" width="38"
                fill="#f2f5e9" fill-opacity="0.5" stroke="#606060" stroke-width="1.0"/>
           <path id="arrow"
             d="M 11.500037,31.436501 C 11.940474,20.09759 22.043105,11.32322 32.158766,21.979434 L 37.068811,17.246167 C 37.068811,17.246167 37.088388,32 37.088388,32 L 22.160133,31.978069 C 22.160133,31.978069 26.997745,27.140456 26.997745,27.140456 C 18.528582,18.264221 13.291696,25.230495 11.500037,31.436501 z"
             style="fill:#404040;"/>
          </a>
         </g>
        </svg>
</svg>
