<?xml version="1.0" encoding="UTF-8" standalone="no"?>
<!DOCTYPE svg PUBLIC "-//W3C//DTD SVG 1.1//EN"
 "http://www.w3.org/Graphics/SVG/1.1/DTD/svg11.dtd">
<!-- Generated by graphviz version 2.38.0 (20140413.2041)
 -->
<!-- Title: kzh::KARAZEH_EXPORT Pages: 1 -->
<svg width="300pt" height="152pt"
 viewBox="0.00 0.00 300.00 152.00" xmlns="http://www.w3.org/2000/svg" xmlns:xlink="http://www.w3.org/1999/xlink">
<g id="graph0" class="graph" transform="scale(1 1) rotate(0) translate(4 148)">
<title>kzh::KARAZEH_EXPORT</title>
<polygon fill="white" stroke="none" points="-4,4 -4,-148 296,-148 296,4 -4,4"/>
<!-- Node1 -->
<g id="node1" class="node"><title>Node1</title>
<polygon fill="#bfbfbf" stroke="black" points="100.5,-0.5 100.5,-19.5 219.5,-19.5 219.5,-0.5 100.5,-0.5"/>
<text text-anchor="middle" x="160" y="-7.5" font-family="Ubuntu Regular" font-size="10.00">kzh::KARAZEH_EXPORT</text>
</g>
<!-- Node2 -->
<g id="node2" class="node"><title>Node2</title>
<g id="a_node2"><a xlink:href="classkzh_1_1file__manager.html" target="_top" xlink:title="kzh::file_manager">
<polygon fill="white" stroke="black" points="0,-67.5 0,-86.5 96,-86.5 96,-67.5 0,-67.5"/>
<text text-anchor="middle" x="48" y="-74.5" font-family="Ubuntu Regular" font-size="10.00">kzh::file_manager</text>
</a>
</g>
</g>
<!-- Node2&#45;&gt;Node1 -->
<g id="edge1" class="edge"><title>Node2&#45;&gt;Node1</title>
<path fill="none" stroke="#9a32cd" stroke-dasharray="5,2" d="M64.4406,-60.3449C72.8297,-52.9146 83.4677,-44.3045 94,-38 106.534,-30.497 121.536,-24.1743 134.068,-19.538"/>
<polygon fill="#9a32cd" stroke="#9a32cd" points="61.9049,-57.921 56.8883,-67.253 66.6294,-63.0862 61.9049,-57.921"/>
<text text-anchor="middle" x="125" y="-41" font-family="Ubuntu Regular" font-size="10.00"> file_manager</text>
</g>
<!-- Node3 -->
<g id="node3" class="node"><title>Node3</title>
<g id="a_node3"><a xlink:href="classkzh_1_1logger.html" target="_top" xlink:title="kzh::logger">
<polygon fill="white" stroke="black" points="80,-124.5 80,-143.5 148,-143.5 148,-124.5 80,-124.5"/>
<text text-anchor="middle" x="114" y="-131.5" font-family="Ubuntu Regular" font-size="10.00">kzh::logger</text>
</a>
</g>
</g>
<!-- Node3&#45;&gt;Node2 -->
<g id="edge2" class="edge"><title>Node3&#45;&gt;Node2</title>
<path fill="none" stroke="midnightblue" d="M95.9979,-117.998C83.9542,-107.962 68.5253,-95.1044 58.4579,-86.7149"/>
<polygon fill="midnightblue" stroke="midnightblue" points="93.7646,-120.693 103.688,-124.406 98.2459,-115.316 93.7646,-120.693"/>
</g>
<!-- Node4 -->
<g id="node4" class="node"><title>Node4</title>
<g id="a_node4"><a xlink:href="classkzh_1_1downloader.html" target="_top" xlink:title="kzh::downloader">
<polygon fill="white" stroke="black" points="114.5,-67.5 114.5,-86.5 205.5,-86.5 205.5,-67.5 114.5,-67.5"/>
<text text-anchor="middle" x="160" y="-74.5" font-family="Ubuntu Regular" font-size="10.00">kzh::downloader</text>
</a>
</g>
</g>
<!-- Node3&#45;&gt;Node4 -->
<g id="edge4" class="edge"><title>Node3&#45;&gt;Node4</title>
<path fill="none" stroke="darkgreen" d="M127.773,-116.532C135.966,-106.736 146.032,-94.701 152.711,-86.7149"/>
<polygon fill="darkgreen" stroke="darkgreen" points="124.918,-114.49 121.188,-124.406 130.288,-118.981 124.918,-114.49"/>
</g>
<!-- Node4&#45;&gt;Node1 -->
<g id="edge3" class="edge"><title>Node4&#45;&gt;Node1</title>
<path fill="none" stroke="#9a32cd" stroke-dasharray="5,2" d="M160,-57.037C160,-44.6703 160,-29.1198 160,-19.6273"/>
<polygon fill="#9a32cd" stroke="#9a32cd" points="156.5,-57.2338 160,-67.2338 163.5,-57.2338 156.5,-57.2338"/>
<text text-anchor="middle" x="188.5" y="-41" font-family="Ubuntu Regular" font-size="10.00"> downloader</text>
</g>
<!-- Node5 -->
<g id="node5" class="node"><title>Node5</title>
<g id="a_node5"><a xlink:href="classkzh_1_1hasher.html" target="_top" xlink:title="kzh::hasher">
<polygon fill="white" stroke="black" points="224,-67.5 224,-86.5 292,-86.5 292,-67.5 224,-67.5"/>
<text text-anchor="middle" x="258" y="-74.5" font-family="Ubuntu Regular" font-size="10.00">kzh::hasher</text>
</a>
</g>
</g>
<!-- Node5&#45;&gt;Node1 -->
<g id="edge5" class="edge"><title>Node5&#45;&gt;Node1</title>
<path fill="none" stroke="#9a32cd" stroke-dasharray="5,2" d="M244.356,-59.3443C237.834,-52.122 229.585,-43.9708 221,-38 209.971,-30.3291 196.412,-24.0662 184.881,-19.5104"/>
<polygon fill="#9a32cd" stroke="#9a32cd" points="241.956,-61.9202 251.136,-67.2095 247.258,-57.3499 241.956,-61.9202"/>
<text text-anchor="middle" x="251" y="-41" font-family="Ubuntu Regular" font-size="10.00"> hasher</text>
</g>
</g>
</svg>
