<?xml version="1.0" encoding="UTF-8" standalone="no"?>
<!DOCTYPE svg PUBLIC "-//W3C//DTD SVG 1.1//EN"
 "http://www.w3.org/Graphics/SVG/1.1/DTD/svg11.dtd">
<!-- Generated by graphviz version 2.38.0 (20140413.2041)
 -->
<!-- Title: src/operations/update.cpp Pages: 1 -->
<svg width="1234pt" height="498pt"
 viewBox="0.00 0.00 1234.20 498.00" xmlns="http://www.w3.org/2000/svg" xmlns:xlink="http://www.w3.org/1999/xlink">
<g id="graph0" class="graph" transform="scale(1 1) rotate(0) translate(4 494)">
<title>src/operations/update.cpp</title>
<polygon fill="white" stroke="none" points="-4,4 -4,-494 1230.2,-494 1230.2,4 -4,4"/>
<!-- Node1 -->
<g id="node1" class="node"><title>Node1</title>
<polygon fill="#bfbfbf" stroke="black" points="397.701,-470.5 397.701,-489.5 537.701,-489.5 537.701,-470.5 397.701,-470.5"/>
<text text-anchor="middle" x="467.701" y="-477.5" font-family="Ubuntu Regular" font-size="10.00">src/operations/update.cpp</text>
</g>
<!-- Node2 -->
<g id="node2" class="node"><title>Node2</title>
<g id="a_node2"><a xlink:href="update_8hpp.html" target="_top" xlink:title="karazeh/operations\l/update.hpp">
<polygon fill="white" stroke="black" points="283.701,-403.5 283.701,-433.5 389.701,-433.5 389.701,-403.5 283.701,-403.5"/>
<text text-anchor="start" x="291.701" y="-421.5" font-family="Ubuntu Regular" font-size="10.00">karazeh/operations</text>
<text text-anchor="middle" x="336.701" y="-410.5" font-family="Ubuntu Regular" font-size="10.00">/update.hpp</text>
</a>
</g>
</g>
<!-- Node1&#45;&gt;Node2 -->
<g id="edge1" class="edge"><title>Node1&#45;&gt;Node2</title>
<path fill="none" stroke="midnightblue" d="M448.932,-470.475C430.195,-461.965 400.813,-448.619 376.811,-437.718"/>
<polygon fill="midnightblue" stroke="midnightblue" points="378.128,-434.472 367.575,-433.523 375.233,-440.845 378.128,-434.472"/>
</g>
<!-- Node25 -->
<g id="node25" class="node"><title>Node25</title>
<g id="a_node25"><a xlink:href="release__manifest_8hpp.html" target="_top" xlink:title="karazeh/release_manifest.hpp">
<polygon fill="white" stroke="black" points="521.201,-409 521.201,-428 676.201,-428 676.201,-409 521.201,-409"/>
<text text-anchor="middle" x="598.701" y="-416" font-family="Ubuntu Regular" font-size="10.00">karazeh/release_manifest.hpp</text>
</a>
</g>
</g>
<!-- Node1&#45;&gt;Node25 -->
<g id="edge50" class="edge"><title>Node1&#45;&gt;Node25</title>
<path fill="none" stroke="midnightblue" d="M486.47,-470.475C508.552,-460.445 545.42,-443.7 570.84,-432.155"/>
<polygon fill="midnightblue" stroke="midnightblue" points="572.31,-435.331 579.967,-428.009 569.415,-428.958 572.31,-435.331"/>
</g>
<!-- Node3 -->
<g id="node3" class="node"><title>Node3</title>
<polygon fill="white" stroke="#bfbfbf" points="536.201,-0.5 536.201,-19.5 633.201,-19.5 633.201,-0.5 536.201,-0.5"/>
<text text-anchor="middle" x="584.701" y="-7.5" font-family="Ubuntu Regular" font-size="10.00">karazeh_export.h</text>
</g>
<!-- Node2&#45;&gt;Node3 -->
<g id="edge2" class="edge"><title>Node2&#45;&gt;Node3</title>
<path fill="none" stroke="midnightblue" d="M333.891,-403.492C323.639,-347.839 294.456,-141.265 406.701,-56 440.923,-30.0044 488.47,-18.9088 525.814,-14.2292"/>
<polygon fill="midnightblue" stroke="midnightblue" points="526.513,-17.6726 536.057,-13.0723 525.728,-10.7168 526.513,-17.6726"/>
</g>
<!-- Node4 -->
<g id="node4" class="node"><title>Node4</title>
<g id="a_node4"><a xlink:href="operation_8hpp.html" target="_top" xlink:title="karazeh/operation.hpp">
<polygon fill="white" stroke="black" points="537.701,-347.5 537.701,-366.5 659.701,-366.5 659.701,-347.5 537.701,-347.5"/>
<text text-anchor="middle" x="598.701" y="-354.5" font-family="Ubuntu Regular" font-size="10.00">karazeh/operation.hpp</text>
</a>
</g>
</g>
<!-- Node2&#45;&gt;Node4 -->
<g id="edge3" class="edge"><title>Node2&#45;&gt;Node4</title>
<path fill="none" stroke="midnightblue" d="M389.721,-405.459C436.985,-394.726 505.542,-379.156 551.087,-368.813"/>
<polygon fill="midnightblue" stroke="midnightblue" points="552.03,-372.188 561.006,-366.561 550.479,-365.362 552.03,-372.188"/>
</g>
<!-- Node16 -->
<g id="node16" class="node"><title>Node16</title>
<g id="a_node16"><a xlink:href="logger_8hpp.html" target="_top" xlink:title="karazeh/logger.hpp">
<polygon fill="white" stroke="black" points="142.201,-168.5 142.201,-187.5 249.201,-187.5 249.201,-168.5 142.201,-168.5"/>
<text text-anchor="middle" x="195.701" y="-175.5" font-family="Ubuntu Regular" font-size="10.00">karazeh/logger.hpp</text>
</a>
</g>
</g>
<!-- Node2&#45;&gt;Node16 -->
<g id="edge42" class="edge"><title>Node2&#45;&gt;Node16</title>
<path fill="none" stroke="midnightblue" d="M283.413,-408.972C206.676,-393.512 67.5997,-352.869 6.70128,-255 -24.5331,-204.804 65.6165,-187.757 131.941,-181.97"/>
<polygon fill="midnightblue" stroke="midnightblue" points="132.26,-185.456 141.947,-181.165 131.699,-178.478 132.26,-185.456"/>
</g>
<!-- Node22 -->
<g id="node22" class="node"><title>Node22</title>
<g id="a_node22"><a xlink:href="delta__encoder_8hpp.html" target="_top" xlink:title="karazeh/delta_encoder.hpp">
<polygon fill="white" stroke="black" points="165.201,-291.5 165.201,-310.5 308.201,-310.5 308.201,-291.5 165.201,-291.5"/>
<text text-anchor="middle" x="236.701" y="-298.5" font-family="Ubuntu Regular" font-size="10.00">karazeh/delta_encoder.hpp</text>
</a>
</g>
</g>
<!-- Node2&#45;&gt;Node22 -->
<g id="edge43" class="edge"><title>Node2&#45;&gt;Node22</title>
<path fill="none" stroke="midnightblue" d="M324.439,-403.337C305.848,-381.865 270.616,-341.172 250.926,-318.429"/>
<polygon fill="midnightblue" stroke="midnightblue" points="253.399,-315.939 244.207,-310.669 248.107,-320.521 253.399,-315.939"/>
</g>
<!-- Node4&#45;&gt;Node3 -->
<g id="edge4" class="edge"><title>Node4&#45;&gt;Node3</title>
<path fill="none" stroke="midnightblue" d="M659.937,-355.018C796.23,-351.175 1112.7,-332.361 1112.7,-240.5 1112.7,-240.5 1112.7,-240.5 1112.7,-121 1112.7,-26.0923 781.615,-12.5173 643.796,-10.9778"/>
<polygon fill="midnightblue" stroke="midnightblue" points="643.46,-7.47463 633.428,-10.8808 643.395,-14.4743 643.46,-7.47463"/>
</g>
<!-- Node5 -->
<g id="node5" class="node"><title>Node5</title>
<g id="a_node5"><a xlink:href="karazeh_8hpp.html" target="_top" xlink:title="karazeh/karazeh.hpp">
<polygon fill="white" stroke="black" points="384.201,-112.5 384.201,-131.5 497.201,-131.5 497.201,-112.5 384.201,-112.5"/>
<text text-anchor="middle" x="440.701" y="-119.5" font-family="Ubuntu Regular" font-size="10.00">karazeh/karazeh.hpp</text>
</a>
</g>
</g>
<!-- Node4&#45;&gt;Node5 -->
<g id="edge5" class="edge"><title>Node4&#45;&gt;Node5</title>
<path fill="none" stroke="midnightblue" d="M580.902,-347.282C552.608,-332.453 497.715,-299.544 469.701,-255 447.295,-219.373 442.051,-168.866 440.918,-141.823"/>
<polygon fill="midnightblue" stroke="midnightblue" points="444.416,-141.683 440.647,-131.781 437.418,-141.872 444.416,-141.683"/>
</g>
<!-- Node12 -->
<g id="node12" class="node"><title>Node12</title>
<g id="a_node12"><a xlink:href="config_8hpp.html" target="_top" xlink:title="karazeh/config.hpp">
<polygon fill="white" stroke="black" points="479.201,-230 479.201,-249 584.201,-249 584.201,-230 479.201,-230"/>
<text text-anchor="middle" x="531.701" y="-237" font-family="Ubuntu Regular" font-size="10.00">karazeh/config.hpp</text>
</a>
</g>
</g>
<!-- Node4&#45;&gt;Node12 -->
<g id="edge14" class="edge"><title>Node4&#45;&gt;Node12</title>
<path fill="none" stroke="midnightblue" d="M593.665,-347.319C582.704,-328.422 556.499,-283.248 541.923,-258.121"/>
<polygon fill="midnightblue" stroke="midnightblue" points="544.841,-256.176 536.796,-249.282 538.786,-259.688 544.841,-256.176"/>
</g>
<!-- Node13 -->
<g id="node13" class="node"><title>Node13</title>
<g id="a_node13"><a xlink:href="downloader_8hpp.html" target="_top" xlink:title="karazeh/downloader.hpp">
<polygon fill="white" stroke="black" points="586.701,-291.5 586.701,-310.5 716.701,-310.5 716.701,-291.5 586.701,-291.5"/>
<text text-anchor="middle" x="651.701" y="-298.5" font-family="Ubuntu Regular" font-size="10.00">karazeh/downloader.hpp</text>
</a>
</g>
</g>
<!-- Node4&#45;&gt;Node13 -->
<g id="edge17" class="edge"><title>Node4&#45;&gt;Node13</title>
<path fill="none" stroke="midnightblue" d="M607.453,-347.083C615.171,-339.22 626.606,-327.569 635.918,-318.081"/>
<polygon fill="midnightblue" stroke="midnightblue" points="638.605,-320.34 643.112,-310.751 633.61,-315.436 638.605,-320.34"/>
</g>
<!-- Node21 -->
<g id="node21" class="node"><title>Node21</title>
<g id="a_node21"><a xlink:href="file__manager_8hpp.html" target="_top" xlink:title="karazeh/file_manager.hpp">
<polygon fill="white" stroke="black" points="679.201,-230 679.201,-249 814.201,-249 814.201,-230 679.201,-230"/>
<text text-anchor="middle" x="746.701" y="-237" font-family="Ubuntu Regular" font-size="10.00">karazeh/file_manager.hpp</text>
</a>
</g>
</g>
<!-- Node4&#45;&gt;Node21 -->
<g id="edge41" class="edge"><title>Node4&#45;&gt;Node21</title>
<path fill="none" stroke="midnightblue" d="M656.268,-347.5C680.615,-341.175 707.493,-330.161 725.701,-311 739.01,-296.995 743.923,-274.922 745.715,-259.208"/>
<polygon fill="midnightblue" stroke="midnightblue" points="749.215,-259.349 746.544,-249.096 742.239,-258.777 749.215,-259.349"/>
</g>
<!-- Node6 -->
<g id="node6" class="node"><title>Node6</title>
<polygon fill="white" stroke="#bfbfbf" points="53.2013,-0.5 53.2013,-19.5 96.2013,-19.5 96.2013,-0.5 53.2013,-0.5"/>
<text text-anchor="middle" x="74.7013" y="-7.5" font-family="Ubuntu Regular" font-size="10.00">string</text>
</g>
<!-- Node5&#45;&gt;Node6 -->
<g id="edge6" class="edge"><title>Node5&#45;&gt;Node6</title>
<path fill="none" stroke="midnightblue" d="M384.093,-117.264C290.37,-110.564 111.107,-95.3794 89.7013,-76 76.9759,-64.4793 73.9578,-44.51 73.672,-29.7371"/>
<polygon fill="midnightblue" stroke="midnightblue" points="77.1724,-29.7463 73.8706,-19.6792 70.1738,-29.6081 77.1724,-29.7463"/>
</g>
<!-- Node7 -->
<g id="node7" class="node"><title>Node7</title>
<polygon fill="white" stroke="#bfbfbf" points="415.701,-56.5 415.701,-75.5 465.701,-75.5 465.701,-56.5 415.701,-56.5"/>
<text text-anchor="middle" x="440.701" y="-63.5" font-family="Ubuntu Regular" font-size="10.00">cassert</text>
</g>
<!-- Node5&#45;&gt;Node7 -->
<g id="edge7" class="edge"><title>Node5&#45;&gt;Node7</title>
<path fill="none" stroke="midnightblue" d="M440.701,-112.083C440.701,-105.006 440.701,-94.8611 440.701,-85.9865"/>
<polygon fill="midnightblue" stroke="midnightblue" points="444.201,-85.751 440.701,-75.7511 437.201,-85.7511 444.201,-85.751"/>
</g>
<!-- Node8 -->
<g id="node8" class="node"><title>Node8</title>
<polygon fill="white" stroke="#bfbfbf" points="784.701,-56.5 784.701,-75.5 900.701,-75.5 900.701,-56.5 784.701,-56.5"/>
<text text-anchor="middle" x="842.701" y="-63.5" font-family="Ubuntu Regular" font-size="10.00">boost/filesystem.hpp</text>
</g>
<!-- Node5&#45;&gt;Node8 -->
<g id="edge8" class="edge"><title>Node5&#45;&gt;Node8</title>
<path fill="none" stroke="midnightblue" d="M497.445,-113.378C570.251,-103.598 696.427,-86.6488 774.413,-76.173"/>
<polygon fill="midnightblue" stroke="midnightblue" points="775.172,-79.6026 784.617,-74.8024 774.24,-72.6649 775.172,-79.6026"/>
</g>
<!-- Node9 -->
<g id="node9" class="node"><title>Node9</title>
<g id="a_node9"><a xlink:href="exception_8hpp.html" target="_top" xlink:title="karazeh/exception.hpp">
<polygon fill="white" stroke="black" points="99.2013,-56.5 99.2013,-75.5 222.201,-75.5 222.201,-56.5 99.2013,-56.5"/>
<text text-anchor="middle" x="160.701" y="-63.5" font-family="Ubuntu Regular" font-size="10.00">karazeh/exception.hpp</text>
</a>
</g>
</g>
<!-- Node5&#45;&gt;Node9 -->
<g id="edge9" class="edge"><title>Node5&#45;&gt;Node9</title>
<path fill="none" stroke="midnightblue" d="M396.334,-112.444C347.08,-102.944 267.573,-87.611 214.73,-77.4198"/>
<polygon fill="midnightblue" stroke="midnightblue" points="215.342,-73.9735 204.861,-75.5164 214.017,-80.8469 215.342,-73.9735"/>
</g>
<!-- Node9&#45;&gt;Node3 -->
<g id="edge13" class="edge"><title>Node9&#45;&gt;Node3</title>
<path fill="none" stroke="midnightblue" d="M222.355,-57.1479C303.684,-46.7899 445.834,-28.6859 525.776,-18.5046"/>
<polygon fill="midnightblue" stroke="midnightblue" points="526.679,-21.918 536.157,-17.1826 525.795,-14.9741 526.679,-21.918"/>
</g>
<!-- Node9&#45;&gt;Node6 -->
<g id="edge11" class="edge"><title>Node9&#45;&gt;Node6</title>
<path fill="none" stroke="midnightblue" d="M146.884,-56.324C133.468,-47.9002 112.877,-34.9709 97.1157,-25.0741"/>
<polygon fill="midnightblue" stroke="midnightblue" points="98.8145,-22.0081 88.4844,-19.6545 95.0921,-27.9364 98.8145,-22.0081"/>
</g>
<!-- Node10 -->
<g id="node10" class="node"><title>Node10</title>
<polygon fill="white" stroke="#bfbfbf" points="206.201,-0.5 206.201,-19.5 269.201,-19.5 269.201,-0.5 206.201,-0.5"/>
<text text-anchor="middle" x="237.701" y="-7.5" font-family="Ubuntu Regular" font-size="10.00">exception</text>
</g>
<!-- Node9&#45;&gt;Node10 -->
<g id="edge10" class="edge"><title>Node9&#45;&gt;Node10</title>
<path fill="none" stroke="midnightblue" d="M173.073,-56.324C184.86,-48.0577 202.834,-35.4527 216.837,-25.6322"/>
<polygon fill="midnightblue" stroke="midnightblue" points="219.183,-28.2619 225.361,-19.6545 215.164,-22.5307 219.183,-28.2619"/>
</g>
<!-- Node11 -->
<g id="node11" class="node"><title>Node11</title>
<polygon fill="white" stroke="#bfbfbf" points="123.201,-0.5 123.201,-19.5 188.201,-19.5 188.201,-0.5 123.201,-0.5"/>
<text text-anchor="middle" x="155.701" y="-7.5" font-family="Ubuntu Regular" font-size="10.00">stdexcept</text>
</g>
<!-- Node9&#45;&gt;Node11 -->
<g id="edge12" class="edge"><title>Node9&#45;&gt;Node11</title>
<path fill="none" stroke="midnightblue" d="M159.876,-56.083C159.22,-49.0059 158.281,-38.8611 157.459,-29.9865"/>
<polygon fill="midnightblue" stroke="midnightblue" points="160.919,-29.3858 156.512,-19.7511 153.949,-30.0312 160.919,-29.3858"/>
</g>
<!-- Node12&#45;&gt;Node3 -->
<g id="edge15" class="edge"><title>Node12&#45;&gt;Node3</title>
<path fill="none" stroke="midnightblue" d="M533.714,-229.86C541.47,-196.568 569.523,-76.1515 580.374,-29.5741"/>
<polygon fill="midnightblue" stroke="midnightblue" points="583.826,-30.1824 582.686,-19.6491 577.009,-28.5941 583.826,-30.1824"/>
</g>
<!-- Node12&#45;&gt;Node5 -->
<g id="edge16" class="edge"><title>Node12&#45;&gt;Node5</title>
<path fill="none" stroke="midnightblue" d="M524.861,-229.819C509.842,-210.755 473.75,-164.947 454.062,-139.958"/>
<polygon fill="midnightblue" stroke="midnightblue" points="456.558,-137.471 447.62,-131.782 451.06,-141.803 456.558,-137.471"/>
</g>
<!-- Node13&#45;&gt;Node3 -->
<g id="edge21" class="edge"><title>Node13&#45;&gt;Node3</title>
<path fill="none" stroke="midnightblue" d="M716.868,-294.929C835.523,-283.89 1074.7,-252.519 1074.7,-179 1074.7,-179 1074.7,-179 1074.7,-121 1074.7,-33.5656 773.927,-15.6149 643.673,-11.9405"/>
<polygon fill="midnightblue" stroke="midnightblue" points="643.564,-8.43654 633.476,-11.6723 643.38,-15.4341 643.564,-8.43654"/>
</g>
<!-- Node13&#45;&gt;Node5 -->
<g id="edge22" class="edge"><title>Node13&#45;&gt;Node5</title>
<path fill="none" stroke="midnightblue" d="M646.294,-291.286C636.743,-276.342 615.709,-245.373 592.701,-224 552.731,-186.87 497.764,-153.995 466.057,-136.449"/>
<polygon fill="midnightblue" stroke="midnightblue" points="467.461,-133.228 457.006,-131.508 464.107,-139.372 467.461,-133.228"/>
</g>
<!-- Node13&#45;&gt;Node8 -->
<g id="edge19" class="edge"><title>Node13&#45;&gt;Node8</title>
<path fill="none" stroke="midnightblue" d="M716.855,-292.701C764.988,-286.087 831.611,-274.347 887.701,-255 949.149,-233.805 983.868,-243.5 1017.7,-188 1052.01,-131.718 953.451,-95.1056 890.591,-78.0889"/>
<polygon fill="midnightblue" stroke="midnightblue" points="891.396,-74.6816 880.835,-75.5261 889.618,-81.452 891.396,-74.6816"/>
</g>
<!-- Node13&#45;&gt;Node12 -->
<g id="edge40" class="edge"><title>Node13&#45;&gt;Node12</title>
<path fill="none" stroke="midnightblue" d="M634.508,-291.475C614.459,-281.534 581.102,-264.995 557.841,-253.461"/>
<polygon fill="midnightblue" stroke="midnightblue" points="559.376,-250.316 548.862,-249.009 556.267,-256.587 559.376,-250.316"/>
</g>
<!-- Node14 -->
<g id="node14" class="node"><title>Node14</title>
<polygon fill="white" stroke="#bfbfbf" points="823.201,-168.5 823.201,-187.5 886.201,-187.5 886.201,-168.5 823.201,-168.5"/>
<text text-anchor="middle" x="854.701" y="-175.5" font-family="Ubuntu Regular" font-size="10.00">curl/curl.h</text>
</g>
<!-- Node13&#45;&gt;Node14 -->
<g id="edge18" class="edge"><title>Node13&#45;&gt;Node14</title>
<path fill="none" stroke="midnightblue" d="M717.023,-296.527C751.941,-291.561 793.605,-280.253 822.701,-255 839.642,-240.297 847.833,-215.124 851.638,-197.803"/>
<polygon fill="midnightblue" stroke="midnightblue" points="855.121,-198.223 853.554,-187.744 848.245,-196.913 855.121,-198.223"/>
</g>
<!-- Node15 -->
<g id="node15" class="node"><title>Node15</title>
<polygon fill="white" stroke="#bfbfbf" points="904.701,-168.5 904.701,-187.5 1008.7,-187.5 1008.7,-168.5 904.701,-168.5"/>
<text text-anchor="middle" x="956.701" y="-175.5" font-family="Ubuntu Regular" font-size="10.00">binreloc/binreloc.h</text>
</g>
<!-- Node13&#45;&gt;Node15 -->
<g id="edge20" class="edge"><title>Node13&#45;&gt;Node15</title>
<path fill="none" stroke="midnightblue" d="M716.8,-291.472C755.93,-284.798 806.049,-273.465 847.701,-255 883.132,-239.293 919.003,-211.471 939.477,-194.199"/>
<polygon fill="midnightblue" stroke="midnightblue" points="941.959,-196.681 947.262,-187.509 937.397,-191.372 941.959,-196.681"/>
</g>
<!-- Node13&#45;&gt;Node16 -->
<g id="edge23" class="edge"><title>Node13&#45;&gt;Node16</title>
<path fill="none" stroke="midnightblue" d="M615.711,-291.418C578.942,-282.576 520.233,-268.252 469.701,-255 386.038,-233.059 288.549,-205.552 235.348,-190.375"/>
<polygon fill="midnightblue" stroke="midnightblue" points="236.206,-186.98 225.63,-187.599 234.284,-193.711 236.206,-186.98"/>
</g>
<!-- Node20 -->
<g id="node20" class="node"><title>Node20</title>
<g id="a_node20"><a xlink:href="hasher_8hpp.html" target="_top" xlink:title="karazeh/hasher.hpp">
<polygon fill="white" stroke="black" points="583.201,-168.5 583.201,-187.5 690.201,-187.5 690.201,-168.5 583.201,-168.5"/>
<text text-anchor="middle" x="636.701" y="-175.5" font-family="Ubuntu Regular" font-size="10.00">karazeh/hasher.hpp</text>
</a>
</g>
</g>
<!-- Node13&#45;&gt;Node20 -->
<g id="edge29" class="edge"><title>Node13&#45;&gt;Node20</title>
<path fill="none" stroke="midnightblue" d="M650.623,-291.298C648.212,-271.85 642.341,-224.49 639.045,-197.904"/>
<polygon fill="midnightblue" stroke="midnightblue" points="642.474,-197.117 637.77,-187.623 635.527,-197.978 642.474,-197.117"/>
</g>
<!-- Node13&#45;&gt;Node21 -->
<g id="edge32" class="edge"><title>Node13&#45;&gt;Node21</title>
<path fill="none" stroke="midnightblue" d="M665.312,-291.475C680.762,-281.799 706.191,-265.872 724.517,-254.394"/>
<polygon fill="midnightblue" stroke="midnightblue" points="726.498,-257.283 733.115,-249.009 722.783,-251.351 726.498,-257.283"/>
</g>
<!-- Node16&#45;&gt;Node3 -->
<g id="edge27" class="edge"><title>Node16&#45;&gt;Node3</title>
<path fill="none" stroke="midnightblue" d="M203.042,-168.302C210.393,-159.428 221.852,-145.133 230.701,-132 252.511,-99.6317 242.38,-77.8793 274.701,-56 314.569,-29.0122 447.57,-17.8299 525.811,-13.4995"/>
<polygon fill="midnightblue" stroke="midnightblue" points="526.206,-16.9836 536.006,-12.9569 525.834,-9.99348 526.206,-16.9836"/>
</g>
<!-- Node16&#45;&gt;Node5 -->
<g id="edge28" class="edge"><title>Node16&#45;&gt;Node5</title>
<path fill="none" stroke="midnightblue" d="M234.522,-168.444C277.262,-159.023 346.033,-143.866 392.268,-133.675"/>
<polygon fill="midnightblue" stroke="midnightblue" points="393.05,-137.087 402.062,-131.516 391.543,-130.251 393.05,-137.087"/>
</g>
<!-- Node17 -->
<g id="node17" class="node"><title>Node17</title>
<polygon fill="white" stroke="#bfbfbf" points="98.2013,-112.5 98.2013,-131.5 151.201,-131.5 151.201,-112.5 98.2013,-112.5"/>
<text text-anchor="middle" x="124.701" y="-119.5" font-family="Ubuntu Regular" font-size="10.00">sstream</text>
</g>
<!-- Node16&#45;&gt;Node17 -->
<g id="edge24" class="edge"><title>Node16&#45;&gt;Node17</title>
<path fill="none" stroke="midnightblue" d="M184.294,-168.324C173.592,-160.185 157.361,-147.839 144.538,-138.087"/>
<polygon fill="midnightblue" stroke="midnightblue" points="146.394,-135.102 136.316,-131.834 142.157,-140.673 146.394,-135.102"/>
</g>
<!-- Node18 -->
<g id="node18" class="node"><title>Node18</title>
<polygon fill="white" stroke="#bfbfbf" points="169.201,-112.5 169.201,-131.5 222.201,-131.5 222.201,-112.5 169.201,-112.5"/>
<text text-anchor="middle" x="195.701" y="-119.5" font-family="Ubuntu Regular" font-size="10.00">fstream</text>
</g>
<!-- Node16&#45;&gt;Node18 -->
<g id="edge25" class="edge"><title>Node16&#45;&gt;Node18</title>
<path fill="none" stroke="midnightblue" d="M195.701,-168.083C195.701,-161.006 195.701,-150.861 195.701,-141.986"/>
<polygon fill="midnightblue" stroke="midnightblue" points="199.201,-141.751 195.701,-131.751 192.201,-141.751 199.201,-141.751"/>
</g>
<!-- Node19 -->
<g id="node19" class="node"><title>Node19</title>
<polygon fill="white" stroke="#bfbfbf" points="23.2013,-112.5 23.2013,-131.5 80.2013,-131.5 80.2013,-112.5 23.2013,-112.5"/>
<text text-anchor="middle" x="51.7013" y="-119.5" font-family="Ubuntu Regular" font-size="10.00">iostream</text>
</g>
<!-- Node16&#45;&gt;Node19 -->
<g id="edge26" class="edge"><title>Node16&#45;&gt;Node19</title>
<path fill="none" stroke="midnightblue" d="M172.884,-168.444C148.87,-159.438 110.872,-145.189 83.832,-135.049"/>
<polygon fill="midnightblue" stroke="midnightblue" points="85.004,-131.751 74.4118,-131.516 82.5461,-138.305 85.004,-131.751"/>
</g>
<!-- Node20&#45;&gt;Node3 -->
<g id="edge30" class="edge"><title>Node20&#45;&gt;Node3</title>
<path fill="none" stroke="midnightblue" d="M633.906,-168.075C625.685,-141.832 601.474,-64.5453 590.376,-29.1165"/>
<polygon fill="midnightblue" stroke="midnightblue" points="593.715,-28.0646 587.385,-19.5681 587.035,-30.1571 593.715,-28.0646"/>
</g>
<!-- Node20&#45;&gt;Node5 -->
<g id="edge31" class="edge"><title>Node20&#45;&gt;Node5</title>
<path fill="none" stroke="midnightblue" d="M605.644,-168.444C572.098,-159.201 518.504,-144.436 481.561,-134.257"/>
<polygon fill="midnightblue" stroke="midnightblue" points="482.183,-130.798 471.613,-131.516 480.324,-137.547 482.183,-130.798"/>
</g>
<!-- Node21&#45;&gt;Node3 -->
<g id="edge36" class="edge"><title>Node21&#45;&gt;Node3</title>
<path fill="none" stroke="midnightblue" d="M745.06,-229.785C742.204,-215.984 735.472,-188.558 723.701,-168 690.115,-109.342 632.129,-53.1838 602.804,-26.7555"/>
<polygon fill="midnightblue" stroke="midnightblue" points="604.808,-23.8535 595.009,-19.8244 600.157,-29.0847 604.808,-23.8535"/>
</g>
<!-- Node21&#45;&gt;Node5 -->
<g id="edge37" class="edge"><title>Node21&#45;&gt;Node5</title>
<path fill="none" stroke="midnightblue" d="M743.489,-229.899C737.332,-214.697 722.343,-183.249 698.701,-168 667.827,-148.086 573.12,-135.382 507.475,-128.72"/>
<polygon fill="midnightblue" stroke="midnightblue" points="507.499,-125.206 497.203,-127.703 506.809,-132.172 507.499,-125.206"/>
</g>
<!-- Node21&#45;&gt;Node8 -->
<g id="edge34" class="edge"><title>Node21&#45;&gt;Node8</title>
<path fill="none" stroke="midnightblue" d="M751.594,-229.76C766.682,-202.806 812.689,-120.616 832.948,-84.4237"/>
<polygon fill="midnightblue" stroke="midnightblue" points="836.102,-85.9549 837.932,-75.5194 829.994,-82.5357 836.102,-85.9549"/>
</g>
<!-- Node21&#45;&gt;Node14 -->
<g id="edge33" class="edge"><title>Node21&#45;&gt;Node14</title>
<path fill="none" stroke="midnightblue" d="M762.175,-229.975C779.979,-220.166 809.442,-203.935 830.333,-192.425"/>
<polygon fill="midnightblue" stroke="midnightblue" points="832.186,-195.4 839.256,-187.509 828.809,-189.269 832.186,-195.4"/>
</g>
<!-- Node21&#45;&gt;Node15 -->
<g id="edge35" class="edge"><title>Node21&#45;&gt;Node15</title>
<path fill="none" stroke="midnightblue" d="M776.789,-229.975C813.591,-219.548 876.013,-201.862 916.796,-190.307"/>
<polygon fill="midnightblue" stroke="midnightblue" points="918.002,-193.603 926.669,-187.509 916.094,-186.868 918.002,-193.603"/>
</g>
<!-- Node21&#45;&gt;Node16 -->
<g id="edge38" class="edge"><title>Node21&#45;&gt;Node16</title>
<path fill="none" stroke="midnightblue" d="M679.138,-231.204C571.927,-219.627 364.276,-197.204 259.483,-185.887"/>
<polygon fill="midnightblue" stroke="midnightblue" points="259.682,-182.389 249.364,-184.795 258.93,-189.348 259.682,-182.389"/>
</g>
<!-- Node21&#45;&gt;Node20 -->
<g id="edge39" class="edge"><title>Node21&#45;&gt;Node20</title>
<path fill="none" stroke="midnightblue" d="M730.941,-229.975C712.726,-220.122 682.528,-203.788 661.234,-192.27"/>
<polygon fill="midnightblue" stroke="midnightblue" points="662.893,-189.188 652.432,-187.509 659.563,-195.345 662.893,-189.188"/>
</g>
<!-- Node22&#45;&gt;Node3 -->
<g id="edge44" class="edge"><title>Node22&#45;&gt;Node3</title>
<path fill="none" stroke="midnightblue" d="M238.164,-291.312C245.01,-251.696 275.141,-88.7047 312.701,-56 343.753,-28.9631 455.91,-17.9423 526.139,-13.6216"/>
<polygon fill="midnightblue" stroke="midnightblue" points="526.405,-17.1121 536.182,-13.0316 525.994,-10.1242 526.405,-17.1121"/>
</g>
<!-- Node22&#45;&gt;Node5 -->
<g id="edge45" class="edge"><title>Node22&#45;&gt;Node5</title>
<path fill="none" stroke="midnightblue" d="M246.655,-291.345C270.926,-270.245 335.092,-214.474 388.701,-168 400.118,-158.102 412.956,-146.993 423.02,-138.288"/>
<polygon fill="midnightblue" stroke="midnightblue" points="425.454,-140.81 430.728,-131.622 420.875,-135.516 425.454,-140.81"/>
</g>
<!-- Node22&#45;&gt;Node16 -->
<g id="edge46" class="edge"><title>Node22&#45;&gt;Node16</title>
<path fill="none" stroke="midnightblue" d="M164.942,-294.801C108.705,-289.058 37.0075,-277.471 18.7013,-255 -16.2851,-212.054 68.1025,-192.866 132.035,-184.67"/>
<polygon fill="midnightblue" stroke="midnightblue" points="132.594,-188.128 142.098,-183.447 131.749,-181.179 132.594,-188.128"/>
</g>
<!-- Node22&#45;&gt;Node21 -->
<g id="edge47" class="edge"><title>Node22&#45;&gt;Node21</title>
<path fill="none" stroke="midnightblue" d="M308.421,-291.633C403.548,-280.535 570.833,-261.018 668.918,-249.575"/>
<polygon fill="midnightblue" stroke="midnightblue" points="669.538,-253.026 679.065,-248.391 668.727,-246.073 669.538,-253.026"/>
</g>
<!-- Node23 -->
<g id="node23" class="node"><title>Node23</title>
<polygon fill="white" stroke="#bfbfbf" points="28.2013,-224.5 28.2013,-254.5 121.201,-254.5 121.201,-224.5 28.2013,-224.5"/>
<text text-anchor="start" x="36.2013" y="-242.5" font-family="Ubuntu Regular" font-size="10.00">librsync&#45;2.0.0/src</text>
<text text-anchor="middle" x="74.7013" y="-231.5" font-family="Ubuntu Regular" font-size="10.00">/librsync.h</text>
</g>
<!-- Node22&#45;&gt;Node23 -->
<g id="edge48" class="edge"><title>Node22&#45;&gt;Node23</title>
<path fill="none" stroke="midnightblue" d="M213.491,-291.475C189.807,-282.776 152.37,-269.026 122.343,-257.998"/>
<polygon fill="midnightblue" stroke="midnightblue" points="123.475,-254.685 112.881,-254.523 121.062,-261.256 123.475,-254.685"/>
</g>
<!-- Node24 -->
<g id="node24" class="node"><title>Node24</title>
<polygon fill="white" stroke="#bfbfbf" points="139.201,-224.5 139.201,-254.5 232.201,-254.5 232.201,-224.5 139.201,-224.5"/>
<text text-anchor="start" x="147.201" y="-242.5" font-family="Ubuntu Regular" font-size="10.00">librsync&#45;2.0.0/src</text>
<text text-anchor="middle" x="185.701" y="-231.5" font-family="Ubuntu Regular" font-size="10.00">/fileutil.h</text>
</g>
<!-- Node22&#45;&gt;Node24 -->
<g id="edge49" class="edge"><title>Node22&#45;&gt;Node24</title>
<path fill="none" stroke="midnightblue" d="M229.394,-291.475C222.874,-283.869 213.043,-272.399 204.357,-262.265"/>
<polygon fill="midnightblue" stroke="midnightblue" points="206.886,-259.838 197.721,-254.523 201.572,-264.393 206.886,-259.838"/>
</g>
<!-- Node25&#45;&gt;Node3 -->
<g id="edge52" class="edge"><title>Node25&#45;&gt;Node3</title>
<path fill="none" stroke="midnightblue" d="M676.327,-417.237C828.366,-414.616 1150.7,-397.767 1150.7,-302 1150.7,-302 1150.7,-302 1150.7,-121 1150.7,-18.4781 788.341,-9.5951 643.493,-10.1397"/>
<polygon fill="midnightblue" stroke="midnightblue" points="643.429,-6.63988 633.448,-10.194 643.467,-13.6398 643.429,-6.63988"/>
</g>
<!-- Node25&#45;&gt;Node4 -->
<g id="edge54" class="edge"><title>Node25&#45;&gt;Node4</title>
<path fill="none" stroke="midnightblue" d="M598.701,-408.975C598.701,-400.58 598.701,-387.481 598.701,-376.663"/>
<polygon fill="midnightblue" stroke="midnightblue" points="602.201,-376.509 598.701,-366.509 595.201,-376.509 602.201,-376.509"/>
</g>
<!-- Node25&#45;&gt;Node5 -->
<g id="edge53" class="edge"><title>Node25&#45;&gt;Node5</title>
<path fill="none" stroke="midnightblue" d="M583.882,-408.947C568.866,-399.816 545.514,-384.303 528.701,-367 486.781,-323.856 475.79,-310.549 452.701,-255 437.006,-217.24 437.319,-168.299 438.978,-141.893"/>
<polygon fill="midnightblue" stroke="midnightblue" points="442.48,-141.999 439.755,-131.761 435.5,-141.464 442.48,-141.999"/>
</g>
<!-- Node26 -->
<g id="node26" class="node"><title>Node26</title>
<polygon fill="white" stroke="#bfbfbf" points="1179.2,-347.5 1179.2,-366.5 1226.2,-366.5 1226.2,-347.5 1179.2,-347.5"/>
<text text-anchor="middle" x="1202.7" y="-354.5" font-family="Ubuntu Regular" font-size="10.00">vector</text>
</g>
<!-- Node25&#45;&gt;Node26 -->
<g id="edge51" class="edge"><title>Node25&#45;&gt;Node26</title>
<path fill="none" stroke="midnightblue" d="M676.501,-414.098C786.013,-408.507 991.605,-395.071 1164.7,-367 1166.17,-366.763 1167.66,-366.5 1169.16,-366.218"/>
<polygon fill="midnightblue" stroke="midnightblue" points="1170.02,-369.615 1179.09,-364.146 1168.59,-362.763 1170.02,-369.615"/>
</g>
</g>
</svg>
