<?xml version="1.0" encoding="UTF-8" standalone="no"?>
<!DOCTYPE svg PUBLIC "-//W3C//DTD SVG 1.1//EN"
 "http://www.w3.org/Graphics/SVG/1.1/DTD/svg11.dtd">
<!-- Generated by graphviz version 2.38.0 (20140413.2041)
 -->
<!-- Title: include/karazeh/operations/update.hpp Pages: 1 -->
<svg width="1059pt" height="442pt"
 viewBox="0.00 0.00 1059.44 442.00" xmlns="http://www.w3.org/2000/svg" xmlns:xlink="http://www.w3.org/1999/xlink">
<g id="graph0" class="graph" transform="scale(1 1) rotate(0) translate(4 438)">
<title>include/karazeh/operations/update.hpp</title>
<polygon fill="white" stroke="none" points="-4,4 -4,-438 1055.44,-438 1055.44,4 -4,4"/>
<!-- Node1 -->
<g id="node1" class="node"><title>Node1</title>
<polygon fill="#bfbfbf" stroke="black" points="480.5,-403.5 480.5,-433.5 623.5,-433.5 623.5,-403.5 480.5,-403.5"/>
<text text-anchor="start" x="488.5" y="-421.5" font-family="Ubuntu Regular" font-size="10.00">include/karazeh/operations</text>
<text text-anchor="middle" x="552" y="-410.5" font-family="Ubuntu Regular" font-size="10.00">/update.hpp</text>
</g>
<!-- Node2 -->
<g id="node2" class="node"><title>Node2</title>
<polygon fill="white" stroke="#bfbfbf" points="223.5,-0.5 223.5,-19.5 320.5,-19.5 320.5,-0.5 223.5,-0.5"/>
<text text-anchor="middle" x="272" y="-7.5" font-family="Ubuntu Regular" font-size="10.00">karazeh_export.h</text>
</g>
<!-- Node1&#45;&gt;Node2 -->
<g id="edge1" class="edge"><title>Node1&#45;&gt;Node2</title>
<path fill="none" stroke="midnightblue" d="M480.402,-417.335C331.044,-415.054 0,-399.052 0,-302 0,-302 0,-302 0,-121 0,-84.2802 19.7568,-75.2928 51,-56 100.195,-25.6218 166.168,-15.3166 213.195,-12.0349"/>
<polygon fill="midnightblue" stroke="midnightblue" points="213.459,-15.5254 223.226,-11.4208 213.031,-8.53843 213.459,-15.5254"/>
</g>
<!-- Node3 -->
<g id="node3" class="node"><title>Node3</title>
<g id="a_node3"><a xlink:href="operation_8hpp.html" target="_top" xlink:title="karazeh/operation.hpp">
<polygon fill="white" stroke="black" points="392,-347.5 392,-366.5 514,-366.5 514,-347.5 392,-347.5"/>
<text text-anchor="middle" x="453" y="-354.5" font-family="Ubuntu Regular" font-size="10.00">karazeh/operation.hpp</text>
</a>
</g>
</g>
<!-- Node1&#45;&gt;Node3 -->
<g id="edge2" class="edge"><title>Node1&#45;&gt;Node3</title>
<path fill="none" stroke="midnightblue" d="M528.538,-403.399C512.669,-393.862 491.809,-381.325 476.032,-371.842"/>
<polygon fill="midnightblue" stroke="midnightblue" points="477.779,-368.809 467.405,-366.658 474.174,-374.809 477.779,-368.809"/>
</g>
<!-- Node15 -->
<g id="node15" class="node"><title>Node15</title>
<g id="a_node15"><a xlink:href="logger_8hpp.html" target="_top" xlink:title="karazeh/logger.hpp">
<polygon fill="white" stroke="black" points="813.5,-168.5 813.5,-187.5 920.5,-187.5 920.5,-168.5 813.5,-168.5"/>
<text text-anchor="middle" x="867" y="-175.5" font-family="Ubuntu Regular" font-size="10.00">karazeh/logger.hpp</text>
</a>
</g>
</g>
<!-- Node1&#45;&gt;Node15 -->
<g id="edge41" class="edge"><title>Node1&#45;&gt;Node15</title>
<path fill="none" stroke="midnightblue" d="M623.944,-404.518C748.319,-380.431 994.965,-324.852 1044,-255 1075.58,-210.015 993.659,-191.466 930.956,-183.951"/>
<polygon fill="midnightblue" stroke="midnightblue" points="931.014,-180.435 920.686,-182.796 930.232,-187.392 931.014,-180.435"/>
</g>
<!-- Node21 -->
<g id="node21" class="node"><title>Node21</title>
<g id="a_node21"><a xlink:href="delta__encoder_8hpp.html" target="_top" xlink:title="karazeh/delta_encoder.hpp">
<polygon fill="white" stroke="black" points="737.5,-291.5 737.5,-310.5 880.5,-310.5 880.5,-291.5 737.5,-291.5"/>
<text text-anchor="middle" x="809" y="-298.5" font-family="Ubuntu Regular" font-size="10.00">karazeh/delta_encoder.hpp</text>
</a>
</g>
</g>
<!-- Node1&#45;&gt;Node21 -->
<g id="edge42" class="edge"><title>Node1&#45;&gt;Node21</title>
<path fill="none" stroke="midnightblue" d="M583.256,-403.453C633.692,-380.786 732.258,-336.489 780.722,-314.709"/>
<polygon fill="midnightblue" stroke="midnightblue" points="782.306,-317.834 789.993,-310.542 779.437,-311.449 782.306,-317.834"/>
</g>
<!-- Node3&#45;&gt;Node2 -->
<g id="edge3" class="edge"><title>Node3&#45;&gt;Node2</title>
<path fill="none" stroke="midnightblue" d="M391.765,-351.723C276.326,-341.967 38,-313.043 38,-240.5 38,-240.5 38,-240.5 38,-121 38,-43.8235 143.538,-20.6952 212.86,-13.8279"/>
<polygon fill="midnightblue" stroke="midnightblue" points="213.585,-17.2769 223.231,-12.8937 212.957,-10.3051 213.585,-17.2769"/>
</g>
<!-- Node4 -->
<g id="node4" class="node"><title>Node4</title>
<g id="a_node4"><a xlink:href="karazeh_8hpp.html" target="_top" xlink:title="karazeh/karazeh.hpp">
<polygon fill="white" stroke="black" points="623.5,-112.5 623.5,-131.5 736.5,-131.5 736.5,-112.5 623.5,-112.5"/>
<text text-anchor="middle" x="680" y="-119.5" font-family="Ubuntu Regular" font-size="10.00">karazeh/karazeh.hpp</text>
</a>
</g>
</g>
<!-- Node3&#45;&gt;Node4 -->
<g id="edge4" class="edge"><title>Node3&#45;&gt;Node4</title>
<path fill="none" stroke="midnightblue" d="M476.7,-347.444C513.976,-333.055 586.995,-301.006 635,-255 660.205,-230.845 665.506,-221.296 676,-188 680.731,-172.988 681.5,-155.08 681.216,-141.866"/>
<polygon fill="midnightblue" stroke="midnightblue" points="684.703,-141.49 680.769,-131.653 677.71,-141.796 684.703,-141.49"/>
</g>
<!-- Node11 -->
<g id="node11" class="node"><title>Node11</title>
<g id="a_node11"><a xlink:href="config_8hpp.html" target="_top" xlink:title="karazeh/config.hpp">
<polygon fill="white" stroke="black" points="104.5,-230 104.5,-249 209.5,-249 209.5,-230 104.5,-230"/>
<text text-anchor="middle" x="157" y="-237" font-family="Ubuntu Regular" font-size="10.00">karazeh/config.hpp</text>
</a>
</g>
</g>
<!-- Node3&#45;&gt;Node11 -->
<g id="edge13" class="edge"><title>Node3&#45;&gt;Node11</title>
<path fill="none" stroke="midnightblue" d="M424.105,-347.43C396.175,-338.931 352.799,-325.161 316,-311 268.956,-292.896 215.656,-268.425 184.263,-253.589"/>
<polygon fill="midnightblue" stroke="midnightblue" points="185.411,-250.259 174.876,-249.131 182.408,-256.582 185.411,-250.259"/>
</g>
<!-- Node12 -->
<g id="node12" class="node"><title>Node12</title>
<g id="a_node12"><a xlink:href="downloader_8hpp.html" target="_top" xlink:title="karazeh/downloader.hpp">
<polygon fill="white" stroke="black" points="325,-291.5 325,-310.5 455,-310.5 455,-291.5 325,-291.5"/>
<text text-anchor="middle" x="390" y="-298.5" font-family="Ubuntu Regular" font-size="10.00">karazeh/downloader.hpp</text>
</a>
</g>
</g>
<!-- Node3&#45;&gt;Node12 -->
<g id="edge16" class="edge"><title>Node3&#45;&gt;Node12</title>
<path fill="none" stroke="midnightblue" d="M442.878,-347.324C433.474,-339.263 419.256,-327.077 407.931,-317.369"/>
<polygon fill="midnightblue" stroke="midnightblue" points="410.177,-314.684 400.306,-310.834 405.621,-319.999 410.177,-314.684"/>
</g>
<!-- Node20 -->
<g id="node20" class="node"><title>Node20</title>
<g id="a_node20"><a xlink:href="file__manager_8hpp.html" target="_top" xlink:title="karazeh/file_manager.hpp">
<polygon fill="white" stroke="black" points="462.5,-230 462.5,-249 597.5,-249 597.5,-230 462.5,-230"/>
<text text-anchor="middle" x="530" y="-237" font-family="Ubuntu Regular" font-size="10.00">karazeh/file_manager.hpp</text>
</a>
</g>
</g>
<!-- Node3&#45;&gt;Node20 -->
<g id="edge40" class="edge"><title>Node3&#45;&gt;Node20</title>
<path fill="none" stroke="midnightblue" d="M458.788,-347.319C471.441,-328.339 501.768,-282.848 518.475,-257.788"/>
<polygon fill="midnightblue" stroke="midnightblue" points="521.51,-259.544 524.145,-249.282 515.686,-255.661 521.51,-259.544"/>
</g>
<!-- Node5 -->
<g id="node5" class="node"><title>Node5</title>
<polygon fill="white" stroke="#bfbfbf" points="956.5,-0.5 956.5,-19.5 999.5,-19.5 999.5,-0.5 956.5,-0.5"/>
<text text-anchor="middle" x="978" y="-7.5" font-family="Ubuntu Regular" font-size="10.00">string</text>
</g>
<!-- Node4&#45;&gt;Node5 -->
<g id="edge5" class="edge"><title>Node4&#45;&gt;Node5</title>
<path fill="none" stroke="midnightblue" d="M736.663,-115.392C814.479,-107.182 946.701,-91.2101 963,-76 975.55,-64.2886 978.596,-44.3494 978.936,-29.6357"/>
<polygon fill="midnightblue" stroke="midnightblue" points="982.436,-29.5702 978.781,-19.6255 975.436,-29.6784 982.436,-29.5702"/>
</g>
<!-- Node6 -->
<g id="node6" class="node"><title>Node6</title>
<polygon fill="white" stroke="#bfbfbf" points="655,-56.5 655,-75.5 705,-75.5 705,-56.5 655,-56.5"/>
<text text-anchor="middle" x="680" y="-63.5" font-family="Ubuntu Regular" font-size="10.00">cassert</text>
</g>
<!-- Node4&#45;&gt;Node6 -->
<g id="edge6" class="edge"><title>Node4&#45;&gt;Node6</title>
<path fill="none" stroke="midnightblue" d="M680,-112.083C680,-105.006 680,-94.8611 680,-85.9865"/>
<polygon fill="midnightblue" stroke="midnightblue" points="683.5,-85.751 680,-75.7511 676.5,-85.7511 683.5,-85.751"/>
</g>
<!-- Node7 -->
<g id="node7" class="node"><title>Node7</title>
<polygon fill="white" stroke="#bfbfbf" points="451,-56.5 451,-75.5 567,-75.5 567,-56.5 451,-56.5"/>
<text text-anchor="middle" x="509" y="-63.5" font-family="Ubuntu Regular" font-size="10.00">boost/filesystem.hpp</text>
</g>
<!-- Node4&#45;&gt;Node7 -->
<g id="edge7" class="edge"><title>Node4&#45;&gt;Node7</title>
<path fill="none" stroke="midnightblue" d="M652.905,-112.444C624.012,-103.32 578.075,-88.8133 545.895,-78.6509"/>
<polygon fill="midnightblue" stroke="midnightblue" points="546.559,-75.1903 535.969,-75.5164 544.451,-81.8654 546.559,-75.1903"/>
</g>
<!-- Node8 -->
<g id="node8" class="node"><title>Node8</title>
<g id="a_node8"><a xlink:href="exception_8hpp.html" target="_top" xlink:title="karazeh/exception.hpp">
<polygon fill="white" stroke="black" points="831.5,-56.5 831.5,-75.5 954.5,-75.5 954.5,-56.5 831.5,-56.5"/>
<text text-anchor="middle" x="893" y="-63.5" font-family="Ubuntu Regular" font-size="10.00">karazeh/exception.hpp</text>
</a>
</g>
</g>
<!-- Node4&#45;&gt;Node8 -->
<g id="edge8" class="edge"><title>Node4&#45;&gt;Node8</title>
<path fill="none" stroke="midnightblue" d="M713.75,-112.444C750.518,-103.122 809.446,-88.1828 849.622,-77.9972"/>
<polygon fill="midnightblue" stroke="midnightblue" points="850.574,-81.3666 859.407,-75.5164 848.854,-74.5813 850.574,-81.3666"/>
</g>
<!-- Node8&#45;&gt;Node2 -->
<g id="edge12" class="edge"><title>Node8&#45;&gt;Node2</title>
<path fill="none" stroke="midnightblue" d="M831.218,-57.498C826.409,-56.9708 821.627,-56.4648 817,-56 640.231,-38.2412 430.686,-22.4005 330.731,-15.1625"/>
<polygon fill="midnightblue" stroke="midnightblue" points="330.763,-11.6558 320.537,-14.4267 330.259,-18.6377 330.763,-11.6558"/>
</g>
<!-- Node8&#45;&gt;Node5 -->
<g id="edge10" class="edge"><title>Node8&#45;&gt;Node5</title>
<path fill="none" stroke="midnightblue" d="M906.657,-56.324C919.916,-47.9002 940.268,-34.9709 955.846,-25.0741"/>
<polygon fill="midnightblue" stroke="midnightblue" points="957.813,-27.9711 964.377,-19.6545 954.06,-22.0626 957.813,-27.9711"/>
</g>
<!-- Node9 -->
<g id="node9" class="node"><title>Node9</title>
<polygon fill="white" stroke="#bfbfbf" points="783.5,-0.5 783.5,-19.5 846.5,-19.5 846.5,-0.5 783.5,-0.5"/>
<text text-anchor="middle" x="815" y="-7.5" font-family="Ubuntu Regular" font-size="10.00">exception</text>
</g>
<!-- Node8&#45;&gt;Node9 -->
<g id="edge9" class="edge"><title>Node8&#45;&gt;Node9</title>
<path fill="none" stroke="midnightblue" d="M880.468,-56.324C868.414,-47.979 849.973,-35.2122 835.731,-25.3524"/>
<polygon fill="midnightblue" stroke="midnightblue" points="837.715,-22.469 827.501,-19.6545 833.731,-28.2243 837.715,-22.469"/>
</g>
<!-- Node10 -->
<g id="node10" class="node"><title>Node10</title>
<polygon fill="white" stroke="#bfbfbf" points="864.5,-0.5 864.5,-19.5 929.5,-19.5 929.5,-0.5 864.5,-0.5"/>
<text text-anchor="middle" x="897" y="-7.5" font-family="Ubuntu Regular" font-size="10.00">stdexcept</text>
</g>
<!-- Node8&#45;&gt;Node10 -->
<g id="edge11" class="edge"><title>Node8&#45;&gt;Node10</title>
<path fill="none" stroke="midnightblue" d="M893.661,-56.083C894.185,-49.0059 894.936,-38.8611 895.594,-29.9865"/>
<polygon fill="midnightblue" stroke="midnightblue" points="899.103,-29.9823 896.352,-19.7511 892.123,-29.4652 899.103,-29.9823"/>
</g>
<!-- Node11&#45;&gt;Node2 -->
<g id="edge14" class="edge"><title>Node11&#45;&gt;Node2</title>
<path fill="none" stroke="midnightblue" d="M156.561,-229.687C155.857,-208.315 156.206,-152.505 176,-112 193.722,-75.7343 229.124,-43.8375 251.63,-26.0202"/>
<polygon fill="midnightblue" stroke="midnightblue" points="254.057,-28.569 259.84,-19.6918 249.783,-23.0249 254.057,-28.569"/>
</g>
<!-- Node11&#45;&gt;Node4 -->
<g id="edge15" class="edge"><title>Node11&#45;&gt;Node4</title>
<path fill="none" stroke="midnightblue" d="M160.573,-229.698C167.391,-214.177 183.855,-182.239 209,-168 276.321,-129.876 499.583,-123.493 612.848,-122.78"/>
<polygon fill="midnightblue" stroke="midnightblue" points="613.143,-126.279 623.126,-122.729 613.109,-119.279 613.143,-126.279"/>
</g>
<!-- Node12&#45;&gt;Node2 -->
<g id="edge20" class="edge"><title>Node12&#45;&gt;Node2</title>
<path fill="none" stroke="midnightblue" d="M324.863,-298.275C248.374,-294.882 127.753,-284.822 95,-255 69.2556,-231.559 76,-213.817 76,-179 76,-179 76,-179 76,-121 76,-57.4102 155.427,-30.2046 213.157,-18.8291"/>
<polygon fill="midnightblue" stroke="midnightblue" points="214.105,-22.2129 223.299,-16.9468 212.828,-15.3304 214.105,-22.2129"/>
</g>
<!-- Node12&#45;&gt;Node4 -->
<g id="edge21" class="edge"><title>Node12&#45;&gt;Node4</title>
<path fill="none" stroke="midnightblue" d="M455.017,-292.458C509.592,-285.057 582.329,-272.354 606,-255 645.079,-226.35 666.259,-170.466 675.046,-141.461"/>
<polygon fill="midnightblue" stroke="midnightblue" points="678.432,-142.351 677.819,-131.774 671.702,-140.425 678.432,-142.351"/>
</g>
<!-- Node12&#45;&gt;Node7 -->
<g id="edge18" class="edge"><title>Node12&#45;&gt;Node7</title>
<path fill="none" stroke="midnightblue" d="M374.836,-291.397C359.223,-282.478 334.244,-268.042 313,-255 261.643,-223.471 173.837,-216.94 209,-168 261.492,-94.9401 369.521,-74.018 440.597,-68.4286"/>
<polygon fill="midnightblue" stroke="midnightblue" points="441.075,-71.9037 450.804,-67.7108 440.583,-64.921 441.075,-71.9037"/>
</g>
<!-- Node12&#45;&gt;Node11 -->
<g id="edge39" class="edge"><title>Node12&#45;&gt;Node11</title>
<path fill="none" stroke="midnightblue" d="M356.617,-291.475C315.438,-280.959 245.35,-263.062 200.131,-251.514"/>
<polygon fill="midnightblue" stroke="midnightblue" points="200.876,-248.092 190.321,-249.009 199.144,-254.875 200.876,-248.092"/>
</g>
<!-- Node13 -->
<g id="node13" class="node"><title>Node13</title>
<polygon fill="white" stroke="#bfbfbf" points="343.5,-168.5 343.5,-187.5 406.5,-187.5 406.5,-168.5 343.5,-168.5"/>
<text text-anchor="middle" x="375" y="-175.5" font-family="Ubuntu Regular" font-size="10.00">curl/curl.h</text>
</g>
<!-- Node12&#45;&gt;Node13 -->
<g id="edge17" class="edge"><title>Node12&#45;&gt;Node13</title>
<path fill="none" stroke="midnightblue" d="M388.921,-291.298C386.51,-271.85 380.639,-224.49 377.343,-197.904"/>
<polygon fill="midnightblue" stroke="midnightblue" points="380.773,-197.117 376.069,-187.623 373.826,-197.978 380.773,-197.117"/>
</g>
<!-- Node14 -->
<g id="node14" class="node"><title>Node14</title>
<polygon fill="white" stroke="#bfbfbf" points="425,-168.5 425,-187.5 529,-187.5 529,-168.5 425,-168.5"/>
<text text-anchor="middle" x="477" y="-175.5" font-family="Ubuntu Regular" font-size="10.00">binreloc/binreloc.h</text>
</g>
<!-- Node12&#45;&gt;Node14 -->
<g id="edge19" class="edge"><title>Node12&#45;&gt;Node14</title>
<path fill="none" stroke="midnightblue" d="M396.257,-291.298C410.616,-271.327 446.139,-221.921 464.918,-195.804"/>
<polygon fill="midnightblue" stroke="midnightblue" points="467.804,-197.786 470.8,-187.623 462.12,-193.699 467.804,-197.786"/>
</g>
<!-- Node12&#45;&gt;Node15 -->
<g id="edge22" class="edge"><title>Node12&#45;&gt;Node15</title>
<path fill="none" stroke="midnightblue" d="M455.037,-291.537C507.362,-284.03 582.533,-271.666 647,-255 715.998,-237.163 794.341,-207.833 836.406,-191.31"/>
<polygon fill="midnightblue" stroke="midnightblue" points="837.788,-194.528 845.801,-187.596 835.214,-188.018 837.788,-194.528"/>
</g>
<!-- Node19 -->
<g id="node19" class="node"><title>Node19</title>
<g id="a_node19"><a xlink:href="hasher_8hpp.html" target="_top" xlink:title="karazeh/hasher.hpp">
<polygon fill="white" stroke="black" points="218.5,-168.5 218.5,-187.5 325.5,-187.5 325.5,-168.5 218.5,-168.5"/>
<text text-anchor="middle" x="272" y="-175.5" font-family="Ubuntu Regular" font-size="10.00">karazeh/hasher.hpp</text>
</a>
</g>
</g>
<!-- Node12&#45;&gt;Node19 -->
<g id="edge28" class="edge"><title>Node12&#45;&gt;Node19</title>
<path fill="none" stroke="midnightblue" d="M381.514,-291.298C361.783,-271.066 312.59,-220.622 287.398,-194.789"/>
<polygon fill="midnightblue" stroke="midnightblue" points="289.897,-192.339 280.409,-187.623 284.885,-197.226 289.897,-192.339"/>
</g>
<!-- Node12&#45;&gt;Node20 -->
<g id="edge31" class="edge"><title>Node12&#45;&gt;Node20</title>
<path fill="none" stroke="midnightblue" d="M410.059,-291.475C433.762,-281.401 473.406,-264.553 500.583,-253.002"/>
<polygon fill="midnightblue" stroke="midnightblue" points="502.144,-256.142 509.979,-249.009 499.406,-249.699 502.144,-256.142"/>
</g>
<!-- Node15&#45;&gt;Node2 -->
<g id="edge26" class="edge"><title>Node15&#45;&gt;Node2</title>
<path fill="none" stroke="midnightblue" d="M856.911,-168.374C847.231,-159.78 832.567,-145.896 822,-132 798.509,-101.108 811.627,-77.0153 779,-56 742.058,-32.2053 456.444,-18.2201 330.889,-13.1657"/>
<polygon fill="midnightblue" stroke="midnightblue" points="330.819,-9.6603 320.688,-12.7606 330.542,-16.6548 330.819,-9.6603"/>
</g>
<!-- Node15&#45;&gt;Node4 -->
<g id="edge27" class="edge"><title>Node15&#45;&gt;Node4</title>
<path fill="none" stroke="midnightblue" d="M837.369,-168.444C805.5,-159.241 754.667,-144.562 719.436,-134.388"/>
<polygon fill="midnightblue" stroke="midnightblue" points="720.071,-130.928 709.492,-131.516 718.128,-137.653 720.071,-130.928"/>
</g>
<!-- Node16 -->
<g id="node16" class="node"><title>Node16</title>
<polygon fill="white" stroke="#bfbfbf" points="977.5,-112.5 977.5,-131.5 1030.5,-131.5 1030.5,-112.5 977.5,-112.5"/>
<text text-anchor="middle" x="1004" y="-119.5" font-family="Ubuntu Regular" font-size="10.00">sstream</text>
</g>
<!-- Node15&#45;&gt;Node16 -->
<g id="edge23" class="edge"><title>Node15&#45;&gt;Node16</title>
<path fill="none" stroke="midnightblue" d="M888.708,-168.444C911.355,-159.517 947.072,-145.439 972.752,-135.317"/>
<polygon fill="midnightblue" stroke="midnightblue" points="974.374,-138.44 982.394,-131.516 971.807,-131.927 974.374,-138.44"/>
</g>
<!-- Node17 -->
<g id="node17" class="node"><title>Node17</title>
<polygon fill="white" stroke="#bfbfbf" points="831.5,-112.5 831.5,-131.5 884.5,-131.5 884.5,-112.5 831.5,-112.5"/>
<text text-anchor="middle" x="858" y="-119.5" font-family="Ubuntu Regular" font-size="10.00">fstream</text>
</g>
<!-- Node15&#45;&gt;Node17 -->
<g id="edge24" class="edge"><title>Node15&#45;&gt;Node17</title>
<path fill="none" stroke="midnightblue" d="M865.514,-168.083C864.321,-160.927 862.606,-150.635 861.115,-141.691"/>
<polygon fill="midnightblue" stroke="midnightblue" points="864.555,-141.04 859.459,-131.751 857.65,-142.19 864.555,-141.04"/>
</g>
<!-- Node18 -->
<g id="node18" class="node"><title>Node18</title>
<polygon fill="white" stroke="#bfbfbf" points="902.5,-112.5 902.5,-131.5 959.5,-131.5 959.5,-112.5 902.5,-112.5"/>
<text text-anchor="middle" x="931" y="-119.5" font-family="Ubuntu Regular" font-size="10.00">iostream</text>
</g>
<!-- Node15&#45;&gt;Node18 -->
<g id="edge25" class="edge"><title>Node15&#45;&gt;Node18</title>
<path fill="none" stroke="midnightblue" d="M877.283,-168.324C886.836,-160.263 901.28,-148.077 912.784,-138.369"/>
<polygon fill="midnightblue" stroke="midnightblue" points="915.144,-140.958 920.53,-131.834 910.63,-135.608 915.144,-140.958"/>
</g>
<!-- Node19&#45;&gt;Node2 -->
<g id="edge29" class="edge"><title>Node19&#45;&gt;Node2</title>
<path fill="none" stroke="midnightblue" d="M272,-168.075C272,-141.945 272,-65.2106 272,-29.577"/>
<polygon fill="midnightblue" stroke="midnightblue" points="275.5,-29.5681 272,-19.5681 268.5,-29.5681 275.5,-29.5681"/>
</g>
<!-- Node19&#45;&gt;Node4 -->
<g id="edge30" class="edge"><title>Node19&#45;&gt;Node4</title>
<path fill="none" stroke="midnightblue" d="M325.762,-169.146C328.547,-168.755 331.306,-168.371 334,-168 431.092,-154.64 543.661,-140.193 613.363,-131.369"/>
<polygon fill="midnightblue" stroke="midnightblue" points="613.847,-134.836 623.329,-130.109 612.969,-127.891 613.847,-134.836"/>
</g>
<!-- Node20&#45;&gt;Node2 -->
<g id="edge35" class="edge"><title>Node20&#45;&gt;Node2</title>
<path fill="none" stroke="midnightblue" d="M536.997,-229.65C558.845,-200.901 621.681,-108.941 576,-56 545.02,-20.0961 410.476,-12.357 331.138,-10.9799"/>
<polygon fill="midnightblue" stroke="midnightblue" points="330.849,-7.4755 320.8,-10.8309 330.748,-14.4748 330.849,-7.4755"/>
</g>
<!-- Node20&#45;&gt;Node4 -->
<g id="edge36" class="edge"><title>Node20&#45;&gt;Node4</title>
<path fill="none" stroke="midnightblue" d="M545.073,-229.923C561.362,-220.414 587.829,-204.263 609,-188 629.163,-172.511 650.437,-152.475 664.38,-138.767"/>
<polygon fill="midnightblue" stroke="midnightblue" points="667.055,-141.042 671.678,-131.509 662.119,-136.078 667.055,-141.042"/>
</g>
<!-- Node20&#45;&gt;Node7 -->
<g id="edge33" class="edge"><title>Node20&#45;&gt;Node7</title>
<path fill="none" stroke="midnightblue" d="M531.771,-229.971C533.75,-219.969 536.83,-202.867 538,-188 540.94,-150.65 526.586,-108.37 517.021,-84.984"/>
<polygon fill="midnightblue" stroke="midnightblue" points="520.185,-83.4799 513.043,-75.654 513.745,-86.2255 520.185,-83.4799"/>
</g>
<!-- Node20&#45;&gt;Node13 -->
<g id="edge32" class="edge"><title>Node20&#45;&gt;Node13</title>
<path fill="none" stroke="midnightblue" d="M507.792,-229.975C481.319,-219.813 436.886,-202.756 406.78,-191.2"/>
<polygon fill="midnightblue" stroke="midnightblue" points="407.757,-187.825 397.167,-187.509 405.248,-194.36 407.757,-187.825"/>
</g>
<!-- Node20&#45;&gt;Node14 -->
<g id="edge34" class="edge"><title>Node20&#45;&gt;Node14</title>
<path fill="none" stroke="midnightblue" d="M522.406,-229.975C514.299,-220.873 501.265,-206.241 491.237,-194.983"/>
<polygon fill="midnightblue" stroke="midnightblue" points="493.844,-192.648 484.58,-187.509 488.617,-197.304 493.844,-192.648"/>
</g>
<!-- Node20&#45;&gt;Node15 -->
<g id="edge37" class="edge"><title>Node20&#45;&gt;Node15</title>
<path fill="none" stroke="midnightblue" d="M578.284,-229.975C639.094,-219.239 743.492,-200.806 808.691,-189.295"/>
<polygon fill="midnightblue" stroke="midnightblue" points="809.567,-192.695 818.806,-187.509 808.349,-185.801 809.567,-192.695"/>
</g>
<!-- Node20&#45;&gt;Node19 -->
<g id="edge38" class="edge"><title>Node20&#45;&gt;Node19</title>
<path fill="none" stroke="midnightblue" d="M493.035,-229.975C447.15,-219.393 368.85,-201.336 318.815,-189.797"/>
<polygon fill="midnightblue" stroke="midnightblue" points="319.427,-186.346 308.897,-187.509 317.854,-193.167 319.427,-186.346"/>
</g>
<!-- Node21&#45;&gt;Node2 -->
<g id="edge43" class="edge"><title>Node21&#45;&gt;Node2</title>
<path fill="none" stroke="midnightblue" d="M807.036,-291.372C797.723,-251.306 756.684,-84.1691 714,-56 652.476,-15.3974 436.432,-10.3394 330.9,-10.3829"/>
<polygon fill="midnightblue" stroke="midnightblue" points="330.728,-6.88315 320.735,-10.4031 330.742,-13.8831 330.728,-6.88315"/>
</g>
<!-- Node21&#45;&gt;Node4 -->
<g id="edge44" class="edge"><title>Node21&#45;&gt;Node4</title>
<path fill="none" stroke="midnightblue" d="M800.889,-291.448C792.8,-282.687 780.274,-268.478 771,-255 745.966,-218.62 749.139,-203.594 723,-168 715.342,-157.572 705.441,-147.054 697.07,-138.812"/>
<polygon fill="midnightblue" stroke="midnightblue" points="699.277,-136.08 689.637,-131.685 694.433,-141.132 699.277,-136.08"/>
</g>
<!-- Node21&#45;&gt;Node15 -->
<g id="edge45" class="edge"><title>Node21&#45;&gt;Node15</title>
<path fill="none" stroke="midnightblue" d="M880.714,-294.726C936.652,-288.945 1007.81,-277.343 1026,-255 1056.84,-217.113 987.36,-196.922 930.703,-187.092"/>
<polygon fill="midnightblue" stroke="midnightblue" points="931.098,-183.609 920.661,-185.431 929.956,-190.516 931.098,-183.609"/>
</g>
<!-- Node21&#45;&gt;Node20 -->
<g id="edge46" class="edge"><title>Node21&#45;&gt;Node20</title>
<path fill="none" stroke="midnightblue" d="M769.026,-291.475C719.2,-280.849 634.026,-262.685 579.95,-251.152"/>
<polygon fill="midnightblue" stroke="midnightblue" points="580.41,-247.672 569.9,-249.009 578.95,-254.518 580.41,-247.672"/>
</g>
<!-- Node22 -->
<g id="node22" class="node"><title>Node22</title>
<polygon fill="white" stroke="#bfbfbf" points="813.5,-224.5 813.5,-254.5 906.5,-254.5 906.5,-224.5 813.5,-224.5"/>
<text text-anchor="start" x="821.5" y="-242.5" font-family="Ubuntu Regular" font-size="10.00">librsync&#45;2.0.0/src</text>
<text text-anchor="middle" x="860" y="-231.5" font-family="Ubuntu Regular" font-size="10.00">/librsync.h</text>
</g>
<!-- Node21&#45;&gt;Node22 -->
<g id="edge47" class="edge"><title>Node21&#45;&gt;Node22</title>
<path fill="none" stroke="midnightblue" d="M816.307,-291.475C822.827,-283.869 832.658,-272.399 841.344,-262.265"/>
<polygon fill="midnightblue" stroke="midnightblue" points="844.13,-264.393 847.98,-254.523 838.815,-259.838 844.13,-264.393"/>
</g>
<!-- Node23 -->
<g id="node23" class="node"><title>Node23</title>
<polygon fill="white" stroke="#bfbfbf" points="924.5,-224.5 924.5,-254.5 1017.5,-254.5 1017.5,-224.5 924.5,-224.5"/>
<text text-anchor="start" x="932.5" y="-242.5" font-family="Ubuntu Regular" font-size="10.00">librsync&#45;2.0.0/src</text>
<text text-anchor="middle" x="971" y="-231.5" font-family="Ubuntu Regular" font-size="10.00">/fileutil.h</text>
</g>
<!-- Node21&#45;&gt;Node23 -->
<g id="edge48" class="edge"><title>Node21&#45;&gt;Node23</title>
<path fill="none" stroke="midnightblue" d="M832.211,-291.475C855.894,-282.776 893.331,-269.026 923.358,-257.998"/>
<polygon fill="midnightblue" stroke="midnightblue" points="924.64,-261.256 932.82,-254.523 922.226,-254.685 924.64,-261.256"/>
</g>
</g>
</svg>
