<?xml version="1.0" encoding="UTF-8" standalone="no"?>
<!DOCTYPE svg PUBLIC "-//W3C//DTD SVG 1.1//EN"
 "http://www.w3.org/Graphics/SVG/1.1/DTD/svg11.dtd">
<!-- Generated by graphviz version 2.38.0 (20140413.2041)
 -->
<!-- Title: include/karazeh/version_manifest.hpp Pages: 1 -->
<svg width="1668pt" height="509pt"
 viewBox="0.00 0.00 1667.50 509.00" xmlns="http://www.w3.org/2000/svg" xmlns:xlink="http://www.w3.org/1999/xlink">
<g id="graph0" class="graph" transform="scale(1 1) rotate(0) translate(4 505)">
<title>include/karazeh/version_manifest.hpp</title>
<polygon fill="white" stroke="none" points="-4,4 -4,-505 1663.5,-505 1663.5,4 -4,4"/>
<!-- Node1 -->
<g id="node1" class="node"><title>Node1</title>
<polygon fill="#bfbfbf" stroke="black" points="644.5,-470.5 644.5,-500.5 770.5,-500.5 770.5,-470.5 644.5,-470.5"/>
<text text-anchor="start" x="652.5" y="-488.5" font-family="Ubuntu Regular" font-size="10.00">include/karazeh/version</text>
<text text-anchor="middle" x="707.5" y="-477.5" font-family="Ubuntu Regular" font-size="10.00">_manifest.hpp</text>
</g>
<!-- Node2 -->
<g id="node2" class="node"><title>Node2</title>
<polygon fill="white" stroke="#bfbfbf" points="211.5,-409 211.5,-428 247.5,-428 247.5,-409 211.5,-409"/>
<text text-anchor="middle" x="229.5" y="-416" font-family="Ubuntu Regular" font-size="10.00">map</text>
</g>
<!-- Node1&#45;&gt;Node2 -->
<g id="edge1" class="edge"><title>Node1&#45;&gt;Node2</title>
<path fill="none" stroke="midnightblue" d="M644.282,-483.517C556.771,-480.773 394.464,-470.67 261.5,-434 259.35,-433.407 257.162,-432.688 254.99,-431.89"/>
<polygon fill="midnightblue" stroke="midnightblue" points="256.318,-428.652 245.741,-428.043 253.629,-435.115 256.318,-428.652"/>
</g>
<!-- Node3 -->
<g id="node3" class="node"><title>Node3</title>
<polygon fill="white" stroke="#bfbfbf" points="390,-347.5 390,-366.5 437,-366.5 437,-347.5 390,-347.5"/>
<text text-anchor="middle" x="413.5" y="-354.5" font-family="Ubuntu Regular" font-size="10.00">vector</text>
</g>
<!-- Node1&#45;&gt;Node3 -->
<g id="edge2" class="edge"><title>Node1&#45;&gt;Node3</title>
<path fill="none" stroke="midnightblue" d="M644.478,-479.814C598.254,-474.145 535.307,-461.628 486.5,-434 460.469,-419.265 437.911,-392.351 425.009,-374.825"/>
<polygon fill="midnightblue" stroke="midnightblue" points="427.826,-372.747 419.175,-366.631 422.123,-376.807 427.826,-372.747"/>
</g>
<!-- Node4 -->
<g id="node4" class="node"><title>Node4</title>
<polygon fill="white" stroke="#bfbfbf" points="303.5,-409 303.5,-428 401.5,-428 401.5,-409 303.5,-409"/>
<text text-anchor="middle" x="352.5" y="-416" font-family="Ubuntu Regular" font-size="10.00">json11/json11.hpp</text>
</g>
<!-- Node1&#45;&gt;Node4 -->
<g id="edge3" class="edge"><title>Node1&#45;&gt;Node4</title>
<path fill="none" stroke="midnightblue" d="M644.373,-474.611C585.105,-465.083 494.052,-449.82 415.5,-434 409.791,-432.85 403.807,-431.571 397.896,-430.261"/>
<polygon fill="midnightblue" stroke="midnightblue" points="398.601,-426.833 388.076,-428.048 397.061,-433.661 398.601,-426.833"/>
</g>
<!-- Node5 -->
<g id="node5" class="node"><title>Node5</title>
<polygon fill="white" stroke="#bfbfbf" points="975,-0.5 975,-19.5 1072,-19.5 1072,-0.5 975,-0.5"/>
<text text-anchor="middle" x="1023.5" y="-7.5" font-family="Ubuntu Regular" font-size="10.00">karazeh_export.h</text>
</g>
<!-- Node1&#45;&gt;Node5 -->
<g id="edge4" class="edge"><title>Node1&#45;&gt;Node5</title>
<path fill="none" stroke="midnightblue" d="M770.701,-482.771C983.326,-476.128 1659.5,-447.93 1659.5,-358 1659.5,-358 1659.5,-358 1659.5,-121 1659.5,-43.0079 1572.31,-74.3229 1496.5,-56 1350.39,-20.6855 1172.62,-12.8452 1082.3,-11.2592"/>
<polygon fill="midnightblue" stroke="midnightblue" points="1082.31,-7.75894 1072.25,-11.1024 1082.2,-14.7581 1082.31,-7.75894"/>
</g>
<!-- Node6 -->
<g id="node6" class="node"><title>Node6</title>
<g id="a_node6"><a xlink:href="karazeh_8hpp.html" target="_top" xlink:title="karazeh/karazeh.hpp">
<polygon fill="white" stroke="black" points="362,-112.5 362,-131.5 475,-131.5 475,-112.5 362,-112.5"/>
<text text-anchor="middle" x="418.5" y="-119.5" font-family="Ubuntu Regular" font-size="10.00">karazeh/karazeh.hpp</text>
</a>
</g>
</g>
<!-- Node1&#45;&gt;Node6 -->
<g id="edge5" class="edge"><title>Node1&#45;&gt;Node6</title>
<path fill="none" stroke="midnightblue" d="M644.282,-485.218C541.626,-485.038 345.042,-478.665 294.5,-434 268.41,-410.944 275.5,-392.817 275.5,-358 275.5,-358 275.5,-358 275.5,-300 275.5,-234.409 296.657,-215.868 341.5,-168 354.299,-154.338 372.183,-143.543 387.495,-135.955"/>
<polygon fill="midnightblue" stroke="midnightblue" points="389.077,-139.079 396.628,-131.647 386.09,-132.748 389.077,-139.079"/>
</g>
<!-- Node13 -->
<g id="node13" class="node"><title>Node13</title>
<g id="a_node13"><a xlink:href="config_8hpp.html" target="_top" xlink:title="karazeh/config.hpp">
<polygon fill="white" stroke="black" points="342,-230 342,-249 447,-249 447,-230 342,-230"/>
<text text-anchor="middle" x="394.5" y="-237" font-family="Ubuntu Regular" font-size="10.00">karazeh/config.hpp</text>
</a>
</g>
</g>
<!-- Node1&#45;&gt;Node13 -->
<g id="edge14" class="edge"><title>Node1&#45;&gt;Node13</title>
<path fill="none" stroke="midnightblue" d="M644.399,-482.9C588.992,-479.117 507.749,-467.643 445.5,-434 436.375,-429.069 384.397,-376.612 380.5,-367 365.756,-330.627 378.212,-283.828 387.221,-258.583"/>
<polygon fill="midnightblue" stroke="midnightblue" points="390.515,-259.767 390.781,-249.176 383.968,-257.289 390.515,-259.767"/>
</g>
<!-- Node14 -->
<g id="node14" class="node"><title>Node14</title>
<g id="a_node14"><a xlink:href="hasher_8hpp.html" target="_top" xlink:title="karazeh/hasher.hpp">
<polygon fill="white" stroke="black" points="850,-168.5 850,-187.5 957,-187.5 957,-168.5 850,-168.5"/>
<text text-anchor="middle" x="903.5" y="-175.5" font-family="Ubuntu Regular" font-size="10.00">karazeh/hasher.hpp</text>
</a>
</g>
</g>
<!-- Node1&#45;&gt;Node14 -->
<g id="edge17" class="edge"><title>Node1&#45;&gt;Node14</title>
<path fill="none" stroke="midnightblue" d="M770.554,-474.812C833.995,-461.062 922.5,-429.133 922.5,-358 922.5,-358 922.5,-358 922.5,-300 922.5,-263.286 913.858,-221.056 908.23,-197.45"/>
<polygon fill="midnightblue" stroke="midnightblue" points="911.626,-196.601 905.83,-187.732 904.83,-198.279 911.626,-196.601"/>
</g>
<!-- Node15 -->
<g id="node15" class="node"><title>Node15</title>
<g id="a_node15"><a xlink:href="release__manifest_8hpp.html" target="_top" xlink:title="karazeh/release_manifest.hpp">
<polygon fill="white" stroke="black" points="496,-409 496,-428 651,-428 651,-409 496,-409"/>
<text text-anchor="middle" x="573.5" y="-416" font-family="Ubuntu Regular" font-size="10.00">karazeh/release_manifest.hpp</text>
</a>
</g>
</g>
<!-- Node1&#45;&gt;Node15 -->
<g id="edge20" class="edge"><title>Node1&#45;&gt;Node15</title>
<path fill="none" stroke="midnightblue" d="M678.424,-470.396C655.12,-459.092 622.69,-443.361 600.074,-432.39"/>
<polygon fill="midnightblue" stroke="midnightblue" points="601.562,-429.222 591.038,-428.007 598.507,-435.521 601.562,-429.222"/>
</g>
<!-- Node16 -->
<g id="node16" class="node"><title>Node16</title>
<g id="a_node16"><a xlink:href="operation_8hpp.html" target="_top" xlink:title="karazeh/operation.hpp">
<polygon fill="white" stroke="black" points="758.5,-347.5 758.5,-366.5 880.5,-366.5 880.5,-347.5 758.5,-347.5"/>
<text text-anchor="middle" x="819.5" y="-354.5" font-family="Ubuntu Regular" font-size="10.00">karazeh/operation.hpp</text>
</a>
</g>
</g>
<!-- Node1&#45;&gt;Node16 -->
<g id="edge53" class="edge"><title>Node1&#45;&gt;Node16</title>
<path fill="none" stroke="midnightblue" d="M719.914,-470.479C740.791,-446.899 782.82,-399.429 805.012,-374.363"/>
<polygon fill="midnightblue" stroke="midnightblue" points="807.71,-376.596 811.719,-366.789 802.469,-371.956 807.71,-376.596"/>
</g>
<!-- Node17 -->
<g id="node17" class="node"><title>Node17</title>
<g id="a_node17"><a xlink:href="downloader_8hpp.html" target="_top" xlink:title="karazeh/downloader.hpp">
<polygon fill="white" stroke="black" points="572.5,-291.5 572.5,-310.5 702.5,-310.5 702.5,-291.5 572.5,-291.5"/>
<text text-anchor="middle" x="637.5" y="-298.5" font-family="Ubuntu Regular" font-size="10.00">karazeh/downloader.hpp</text>
</a>
</g>
</g>
<!-- Node1&#45;&gt;Node17 -->
<g id="edge52" class="edge"><title>Node1&#45;&gt;Node17</title>
<path fill="none" stroke="midnightblue" d="M702.123,-470.483C689.594,-437.817 658.46,-356.647 644.485,-320.211"/>
<polygon fill="midnightblue" stroke="midnightblue" points="647.732,-318.902 640.883,-310.819 641.196,-321.409 647.732,-318.902"/>
</g>
<!-- Node24 -->
<g id="node24" class="node"><title>Node24</title>
<g id="a_node24"><a xlink:href="file__manager_8hpp.html" target="_top" xlink:title="karazeh/file_manager.hpp">
<polygon fill="white" stroke="black" points="752,-230 752,-249 887,-249 887,-230 752,-230"/>
<text text-anchor="middle" x="819.5" y="-237" font-family="Ubuntu Regular" font-size="10.00">karazeh/file_manager.hpp</text>
</a>
</g>
</g>
<!-- Node1&#45;&gt;Node24 -->
<g id="edge51" class="edge"><title>Node1&#45;&gt;Node24</title>
<path fill="none" stroke="midnightblue" d="M710.416,-470.355C715.972,-444.876 729.344,-389.928 749.5,-347 765.402,-313.132 790.839,-277.538 806.275,-257.276"/>
<polygon fill="midnightblue" stroke="midnightblue" points="809.245,-259.158 812.594,-249.106 803.707,-254.875 809.245,-259.158"/>
</g>
<!-- Node25 -->
<g id="node25" class="node"><title>Node25</title>
<g id="a_node25"><a xlink:href="create_8hpp.html" target="_top" xlink:title="karazeh/operations\l/create.hpp">
<polygon fill="white" stroke="black" points="950.5,-403.5 950.5,-433.5 1056.5,-433.5 1056.5,-403.5 950.5,-403.5"/>
<text text-anchor="start" x="958.5" y="-421.5" font-family="Ubuntu Regular" font-size="10.00">karazeh/operations</text>
<text text-anchor="middle" x="1003.5" y="-410.5" font-family="Ubuntu Regular" font-size="10.00">/create.hpp</text>
</a>
</g>
</g>
<!-- Node1&#45;&gt;Node25 -->
<g id="edge54" class="edge"><title>Node1&#45;&gt;Node25</title>
<path fill="none" stroke="midnightblue" d="M770.636,-470.636C820.673,-459.648 890.255,-444.368 940.306,-433.377"/>
<polygon fill="midnightblue" stroke="midnightblue" points="941.344,-436.733 950.36,-431.169 939.842,-429.896 941.344,-436.733"/>
</g>
<!-- Node26 -->
<g id="node26" class="node"><title>Node26</title>
<g id="a_node26"><a xlink:href="delete_8hpp.html" target="_top" xlink:title="karazeh/operations\l/delete.hpp">
<polygon fill="white" stroke="black" points="1074.5,-403.5 1074.5,-433.5 1180.5,-433.5 1180.5,-403.5 1074.5,-403.5"/>
<text text-anchor="start" x="1082.5" y="-421.5" font-family="Ubuntu Regular" font-size="10.00">karazeh/operations</text>
<text text-anchor="middle" x="1127.5" y="-410.5" font-family="Ubuntu Regular" font-size="10.00">/delete.hpp</text>
</a>
</g>
</g>
<!-- Node1&#45;&gt;Node26 -->
<g id="edge58" class="edge"><title>Node1&#45;&gt;Node26</title>
<path fill="none" stroke="midnightblue" d="M770.508,-477.345C840.133,-469.05 955.752,-454.125 1064.63,-434.063"/>
<polygon fill="midnightblue" stroke="midnightblue" points="1065.28,-437.503 1074.47,-432.233 1063.99,-430.621 1065.28,-437.503"/>
</g>
<!-- Node27 -->
<g id="node27" class="node"><title>Node27</title>
<g id="a_node27"><a xlink:href="update_8hpp.html" target="_top" xlink:title="karazeh/operations\l/update.hpp">
<polygon fill="white" stroke="black" points="1198.5,-403.5 1198.5,-433.5 1304.5,-433.5 1304.5,-403.5 1198.5,-403.5"/>
<text text-anchor="start" x="1206.5" y="-421.5" font-family="Ubuntu Regular" font-size="10.00">karazeh/operations</text>
<text text-anchor="middle" x="1251.5" y="-410.5" font-family="Ubuntu Regular" font-size="10.00">/update.hpp</text>
</a>
</g>
</g>
<!-- Node1&#45;&gt;Node27 -->
<g id="edge62" class="edge"><title>Node1&#45;&gt;Node27</title>
<path fill="none" stroke="midnightblue" d="M770.619,-480.422C861.043,-474.019 1032.79,-459.779 1188.27,-434.069"/>
<polygon fill="midnightblue" stroke="midnightblue" points="1189.2,-437.462 1198.49,-432.359 1188.05,-430.558 1189.2,-437.462"/>
</g>
<!-- Node7 -->
<g id="node7" class="node"><title>Node7</title>
<polygon fill="white" stroke="#bfbfbf" points="169,-0.5 169,-19.5 212,-19.5 212,-0.5 169,-0.5"/>
<text text-anchor="middle" x="190.5" y="-7.5" font-family="Ubuntu Regular" font-size="10.00">string</text>
</g>
<!-- Node6&#45;&gt;Node7 -->
<g id="edge6" class="edge"><title>Node6&#45;&gt;Node7</title>
<path fill="none" stroke="midnightblue" d="M400.609,-112.368C360.818,-93.1711 264.79,-46.8418 217.599,-24.074"/>
<polygon fill="midnightblue" stroke="midnightblue" points="218.835,-20.7844 208.308,-19.5914 215.793,-27.0891 218.835,-20.7844"/>
</g>
<!-- Node8 -->
<g id="node8" class="node"><title>Node8</title>
<polygon fill="white" stroke="#bfbfbf" points="393.5,-56.5 393.5,-75.5 443.5,-75.5 443.5,-56.5 393.5,-56.5"/>
<text text-anchor="middle" x="418.5" y="-63.5" font-family="Ubuntu Regular" font-size="10.00">cassert</text>
</g>
<!-- Node6&#45;&gt;Node8 -->
<g id="edge7" class="edge"><title>Node6&#45;&gt;Node8</title>
<path fill="none" stroke="midnightblue" d="M418.5,-112.083C418.5,-105.006 418.5,-94.8611 418.5,-85.9865"/>
<polygon fill="midnightblue" stroke="midnightblue" points="422,-85.751 418.5,-75.7511 415,-85.7511 422,-85.751"/>
</g>
<!-- Node9 -->
<g id="node9" class="node"><title>Node9</title>
<polygon fill="white" stroke="#bfbfbf" points="531.5,-56.5 531.5,-75.5 647.5,-75.5 647.5,-56.5 531.5,-56.5"/>
<text text-anchor="middle" x="589.5" y="-63.5" font-family="Ubuntu Regular" font-size="10.00">boost/filesystem.hpp</text>
</g>
<!-- Node6&#45;&gt;Node9 -->
<g id="edge8" class="edge"><title>Node6&#45;&gt;Node9</title>
<path fill="none" stroke="midnightblue" d="M445.595,-112.444C474.488,-103.32 520.425,-88.8133 552.605,-78.6509"/>
<polygon fill="midnightblue" stroke="midnightblue" points="554.049,-81.8654 562.531,-75.5164 551.941,-75.1903 554.049,-81.8654"/>
</g>
<!-- Node10 -->
<g id="node10" class="node"><title>Node10</title>
<g id="a_node10"><a xlink:href="exception_8hpp.html" target="_top" xlink:title="karazeh/exception.hpp">
<polygon fill="white" stroke="black" points="48,-56.5 48,-75.5 171,-75.5 171,-56.5 48,-56.5"/>
<text text-anchor="middle" x="109.5" y="-63.5" font-family="Ubuntu Regular" font-size="10.00">karazeh/exception.hpp</text>
</a>
</g>
</g>
<!-- Node6&#45;&gt;Node10 -->
<g id="edge9" class="edge"><title>Node6&#45;&gt;Node10</title>
<path fill="none" stroke="midnightblue" d="M369.538,-112.444C314.956,-102.905 226.71,-87.4834 168.399,-77.293"/>
<polygon fill="midnightblue" stroke="midnightblue" points="168.686,-73.7902 158.233,-75.5164 167.481,-80.6857 168.686,-73.7902"/>
</g>
<!-- Node10&#45;&gt;Node5 -->
<g id="edge13" class="edge"><title>Node10&#45;&gt;Node5</title>
<path fill="none" stroke="midnightblue" d="M171.012,-59.8879C188.01,-58.5449 206.465,-57.1514 223.5,-56 500.521,-37.2761 831.878,-20.3944 964.448,-13.8642"/>
<polygon fill="midnightblue" stroke="midnightblue" points="964.96,-17.3433 974.776,-13.3566 964.616,-10.3518 964.96,-17.3433"/>
</g>
<!-- Node10&#45;&gt;Node7 -->
<g id="edge11" class="edge"><title>Node10&#45;&gt;Node7</title>
<path fill="none" stroke="midnightblue" d="M122.514,-56.324C135.032,-47.979 154.182,-35.2122 168.971,-25.3524"/>
<polygon fill="midnightblue" stroke="midnightblue" points="171.139,-28.1137 177.518,-19.6545 167.256,-22.2894 171.139,-28.1137"/>
</g>
<!-- Node11 -->
<g id="node11" class="node"><title>Node11</title>
<polygon fill="white" stroke="#bfbfbf" points="83,-0.5 83,-19.5 146,-19.5 146,-0.5 83,-0.5"/>
<text text-anchor="middle" x="114.5" y="-7.5" font-family="Ubuntu Regular" font-size="10.00">exception</text>
</g>
<!-- Node10&#45;&gt;Node11 -->
<g id="edge10" class="edge"><title>Node10&#45;&gt;Node11</title>
<path fill="none" stroke="midnightblue" d="M110.326,-56.083C110.981,-49.0059 111.92,-38.8611 112.742,-29.9865"/>
<polygon fill="midnightblue" stroke="midnightblue" points="116.253,-30.0312 113.69,-19.7511 109.283,-29.3858 116.253,-30.0312"/>
</g>
<!-- Node12 -->
<g id="node12" class="node"><title>Node12</title>
<polygon fill="white" stroke="#bfbfbf" points="0,-0.5 0,-19.5 65,-19.5 65,-0.5 0,-0.5"/>
<text text-anchor="middle" x="32.5" y="-7.5" font-family="Ubuntu Regular" font-size="10.00">stdexcept</text>
</g>
<!-- Node10&#45;&gt;Node12 -->
<g id="edge12" class="edge"><title>Node10&#45;&gt;Node12</title>
<path fill="none" stroke="midnightblue" d="M97.1286,-56.324C85.3415,-48.0577 67.3677,-35.4527 53.3645,-25.6322"/>
<polygon fill="midnightblue" stroke="midnightblue" points="55.0376,-22.5307 44.8407,-19.6545 51.0184,-28.2619 55.0376,-22.5307"/>
</g>
<!-- Node13&#45;&gt;Node5 -->
<g id="edge15" class="edge"><title>Node13&#45;&gt;Node5</title>
<path fill="none" stroke="midnightblue" d="M389.859,-229.998C380.529,-212.368 359.774,-170.271 352.5,-132 345.657,-95.9947 353.467,-75.4983 384.5,-56 432.894,-25.5934 815.594,-15.0034 964.505,-12.011"/>
<polygon fill="midnightblue" stroke="midnightblue" points="964.885,-15.5043 974.815,-11.8085 964.748,-8.50567 964.885,-15.5043"/>
</g>
<!-- Node13&#45;&gt;Node6 -->
<g id="edge16" class="edge"><title>Node13&#45;&gt;Node6</title>
<path fill="none" stroke="midnightblue" d="M396.304,-229.819C400.178,-211.173 409.369,-166.943 414.628,-141.632"/>
<polygon fill="midnightblue" stroke="midnightblue" points="418.067,-142.285 416.675,-131.782 411.214,-140.861 418.067,-142.285"/>
</g>
<!-- Node14&#45;&gt;Node5 -->
<g id="edge18" class="edge"><title>Node14&#45;&gt;Node5</title>
<path fill="none" stroke="midnightblue" d="M907.059,-168.461C915.932,-147.774 940.562,-93.8908 971.5,-56 980.703,-44.7292 992.928,-33.9908 1003.21,-25.8324"/>
<polygon fill="midnightblue" stroke="midnightblue" points="1005.49,-28.4981 1011.29,-19.631 1001.22,-22.9467 1005.49,-28.4981"/>
</g>
<!-- Node14&#45;&gt;Node6 -->
<g id="edge19" class="edge"><title>Node14&#45;&gt;Node6</title>
<path fill="none" stroke="midnightblue" d="M849.743,-171.015C760.537,-161.082 582.151,-141.221 485.106,-130.416"/>
<polygon fill="midnightblue" stroke="midnightblue" points="485.442,-126.932 475.116,-129.304 484.668,-133.889 485.442,-126.932"/>
</g>
<!-- Node15&#45;&gt;Node3 -->
<g id="edge21" class="edge"><title>Node15&#45;&gt;Node3</title>
<path fill="none" stroke="midnightblue" d="M550.576,-408.975C523.13,-398.769 476.984,-381.608 445.901,-370.049"/>
<polygon fill="midnightblue" stroke="midnightblue" points="446.974,-366.714 436.382,-366.509 444.535,-373.275 446.974,-366.714"/>
</g>
<!-- Node15&#45;&gt;Node5 -->
<g id="edge22" class="edge"><title>Node15&#45;&gt;Node5</title>
<path fill="none" stroke="midnightblue" d="M557.093,-408.932C538.251,-399.036 506.465,-382.167 479.5,-367 464.22,-358.405 461.193,-354.815 445.5,-347 352.532,-300.704 237.5,-344.358 237.5,-240.5 237.5,-240.5 237.5,-240.5 237.5,-121 237.5,-60.3451 299.24,-72.8756 357.5,-56 470.575,-23.2467 823.638,-14.1383 964.555,-11.7737"/>
<polygon fill="midnightblue" stroke="midnightblue" points="964.787,-15.2705 974.729,-11.6086 964.673,-8.27147 964.787,-15.2705"/>
</g>
<!-- Node15&#45;&gt;Node6 -->
<g id="edge23" class="edge"><title>Node15&#45;&gt;Node6</title>
<path fill="none" stroke="midnightblue" d="M562.72,-408.946C545.47,-395.365 510.45,-368.236 479.5,-347 415.947,-303.395 369.842,-322.423 332.5,-255 308.032,-210.822 363.597,-161.704 396.475,-137.753"/>
<polygon fill="midnightblue" stroke="midnightblue" points="398.911,-140.318 405.062,-131.691 394.874,-134.599 398.911,-140.318"/>
</g>
<!-- Node15&#45;&gt;Node16 -->
<g id="edge24" class="edge"><title>Node15&#45;&gt;Node16</title>
<path fill="none" stroke="midnightblue" d="M608.746,-408.975C652.405,-398.415 726.843,-380.411 774.563,-368.869"/>
<polygon fill="midnightblue" stroke="midnightblue" points="775.423,-372.262 784.32,-366.509 773.777,-365.458 775.423,-372.262"/>
</g>
<!-- Node16&#45;&gt;Node5 -->
<g id="edge25" class="edge"><title>Node16&#45;&gt;Node5</title>
<path fill="none" stroke="midnightblue" d="M830.8,-347.468C860.157,-324.742 939.596,-259.573 983.5,-188 1014.74,-137.073 1021.65,-64.4673 1023.13,-30.248"/>
<polygon fill="midnightblue" stroke="midnightblue" points="1026.64,-29.9491 1023.46,-19.8435 1019.64,-29.7279 1026.64,-29.9491"/>
</g>
<!-- Node16&#45;&gt;Node6 -->
<g id="edge26" class="edge"><title>Node16&#45;&gt;Node6</title>
<path fill="none" stroke="midnightblue" d="M758.24,-354.45C704.536,-350.993 625.573,-340.711 563.5,-311 489.256,-275.463 442.611,-180.975 425.684,-141.128"/>
<polygon fill="midnightblue" stroke="midnightblue" points="428.819,-139.55 421.779,-131.633 422.345,-142.213 428.819,-139.55"/>
</g>
<!-- Node16&#45;&gt;Node13 -->
<g id="edge27" class="edge"><title>Node16&#45;&gt;Node13</title>
<path fill="none" stroke="midnightblue" d="M758.35,-353.26C670.108,-348.478 512.096,-336.571 461.5,-311 437.341,-298.79 417.165,-274.226 405.458,-257.568"/>
<polygon fill="midnightblue" stroke="midnightblue" points="408.347,-255.591 399.854,-249.256 402.543,-259.504 408.347,-255.591"/>
</g>
<!-- Node16&#45;&gt;Node17 -->
<g id="edge28" class="edge"><title>Node16&#45;&gt;Node17</title>
<path fill="none" stroke="midnightblue" d="M790.662,-347.444C759.644,-338.241 710.171,-323.562 675.882,-313.388"/>
<polygon fill="midnightblue" stroke="midnightblue" points="676.786,-310.006 666.204,-310.516 674.795,-316.716 676.786,-310.006"/>
</g>
<!-- Node16&#45;&gt;Node24 -->
<g id="edge50" class="edge"><title>Node16&#45;&gt;Node24</title>
<path fill="none" stroke="midnightblue" d="M819.5,-347.319C819.5,-328.757 819.5,-284.839 819.5,-259.473"/>
<polygon fill="midnightblue" stroke="midnightblue" points="823,-259.282 819.5,-249.282 816,-259.282 823,-259.282"/>
</g>
<!-- Node17&#45;&gt;Node5 -->
<g id="edge32" class="edge"><title>Node17&#45;&gt;Node5</title>
<path fill="none" stroke="midnightblue" d="M619.211,-291.441C604.801,-283.805 585.246,-271.314 573.5,-255 520.151,-180.905 460.895,-123.387 522.5,-56 551.837,-23.9097 838.726,-14.5145 964.695,-11.9243"/>
<polygon fill="midnightblue" stroke="midnightblue" points="965,-15.419 974.929,-11.7216 964.861,-8.42041 965,-15.419"/>
</g>
<!-- Node17&#45;&gt;Node6 -->
<g id="edge33" class="edge"><title>Node17&#45;&gt;Node6</title>
<path fill="none" stroke="midnightblue" d="M610.85,-291.44C589.729,-283.878 560.113,-271.488 537.5,-255 491.335,-221.341 449.695,-167.314 430.187,-139.994"/>
<polygon fill="midnightblue" stroke="midnightblue" points="432.849,-137.694 424.238,-131.521 427.12,-141.717 432.849,-137.694"/>
</g>
<!-- Node17&#45;&gt;Node9 -->
<g id="edge30" class="edge"><title>Node17&#45;&gt;Node9</title>
<path fill="none" stroke="midnightblue" d="M628.793,-291.438C611.681,-273.925 574.148,-231.942 560.5,-188 549.231,-151.717 567.133,-108.178 579.444,-84.4773"/>
<polygon fill="midnightblue" stroke="midnightblue" points="582.562,-86.0689 584.276,-75.6135 576.416,-82.7183 582.562,-86.0689"/>
</g>
<!-- Node17&#45;&gt;Node13 -->
<g id="edge49" class="edge"><title>Node17&#45;&gt;Node13</title>
<path fill="none" stroke="midnightblue" d="M602.684,-291.475C559.648,-280.937 486.335,-262.986 439.185,-251.441"/>
<polygon fill="midnightblue" stroke="midnightblue" points="439.797,-247.988 429.251,-249.009 438.132,-254.787 439.797,-247.988"/>
</g>
<!-- Node17&#45;&gt;Node14 -->
<g id="edge40" class="edge"><title>Node17&#45;&gt;Node14</title>
<path fill="none" stroke="midnightblue" d="M646.883,-291.402C664.393,-275.79 703.789,-242.677 742.5,-224 775.403,-208.125 814.875,-196.981 846.5,-189.755"/>
<polygon fill="midnightblue" stroke="midnightblue" points="847.468,-193.126 856.474,-187.545 845.954,-186.291 847.468,-193.126"/>
</g>
<!-- Node18 -->
<g id="node18" class="node"><title>Node18</title>
<polygon fill="white" stroke="#bfbfbf" points="570,-168.5 570,-187.5 633,-187.5 633,-168.5 570,-168.5"/>
<text text-anchor="middle" x="601.5" y="-175.5" font-family="Ubuntu Regular" font-size="10.00">curl/curl.h</text>
</g>
<!-- Node17&#45;&gt;Node18 -->
<g id="edge29" class="edge"><title>Node17&#45;&gt;Node18</title>
<path fill="none" stroke="midnightblue" d="M634.911,-291.298C629.099,-271.763 614.908,-224.065 607.018,-197.547"/>
<polygon fill="midnightblue" stroke="midnightblue" points="610.272,-196.21 604.066,-187.623 603.563,-198.206 610.272,-196.21"/>
</g>
<!-- Node19 -->
<g id="node19" class="node"><title>Node19</title>
<polygon fill="white" stroke="#bfbfbf" points="651.5,-168.5 651.5,-187.5 755.5,-187.5 755.5,-168.5 651.5,-168.5"/>
<text text-anchor="middle" x="703.5" y="-175.5" font-family="Ubuntu Regular" font-size="10.00">binreloc/binreloc.h</text>
</g>
<!-- Node17&#45;&gt;Node19 -->
<g id="edge31" class="edge"><title>Node17&#45;&gt;Node19</title>
<path fill="none" stroke="midnightblue" d="M642.247,-291.298C653.045,-271.502 679.619,-222.782 693.958,-196.493"/>
<polygon fill="midnightblue" stroke="midnightblue" points="697.081,-198.078 698.796,-187.623 690.935,-194.726 697.081,-198.078"/>
</g>
<!-- Node20 -->
<g id="node20" class="node"><title>Node20</title>
<g id="a_node20"><a xlink:href="logger_8hpp.html" target="_top" xlink:title="karazeh/logger.hpp">
<polygon fill="white" stroke="black" points="1139,-168.5 1139,-187.5 1246,-187.5 1246,-168.5 1139,-168.5"/>
<text text-anchor="middle" x="1192.5" y="-175.5" font-family="Ubuntu Regular" font-size="10.00">karazeh/logger.hpp</text>
</a>
</g>
</g>
<!-- Node17&#45;&gt;Node20 -->
<g id="edge34" class="edge"><title>Node17&#45;&gt;Node20</title>
<path fill="none" stroke="midnightblue" d="M693.86,-291.465C746.292,-283.219 826.486,-269.825 895.5,-255 988.279,-235.07 1095.89,-206.036 1152.66,-190.247"/>
<polygon fill="midnightblue" stroke="midnightblue" points="1153.64,-193.61 1162.33,-187.551 1151.76,-186.867 1153.64,-193.61"/>
</g>
<!-- Node17&#45;&gt;Node24 -->
<g id="edge41" class="edge"><title>Node17&#45;&gt;Node24</title>
<path fill="none" stroke="midnightblue" d="M663.576,-291.475C695.066,-281.18 748.198,-263.81 783.558,-252.25"/>
<polygon fill="midnightblue" stroke="midnightblue" points="785.055,-255.443 793.472,-249.009 782.88,-248.79 785.055,-255.443"/>
</g>
<!-- Node20&#45;&gt;Node5 -->
<g id="edge38" class="edge"><title>Node20&#45;&gt;Node5</title>
<path fill="none" stroke="midnightblue" d="M1184.89,-168.355C1177.29,-159.522 1165.47,-145.259 1156.5,-132 1134.75,-99.8559 1141.64,-82.7305 1113.5,-56 1098.22,-41.4824 1077.35,-30.6534 1059.55,-23.2608"/>
<polygon fill="midnightblue" stroke="midnightblue" points="1060.63,-19.9212 1050.04,-19.5058 1058.06,-26.4324 1060.63,-19.9212"/>
</g>
<!-- Node20&#45;&gt;Node6 -->
<g id="edge39" class="edge"><title>Node20&#45;&gt;Node6</title>
<path fill="none" stroke="midnightblue" d="M1138.99,-173.267C1001.52,-163.676 636.145,-138.185 485.192,-127.653"/>
<polygon fill="midnightblue" stroke="midnightblue" points="485.351,-124.156 475.132,-126.951 484.864,-131.139 485.351,-124.156"/>
</g>
<!-- Node21 -->
<g id="node21" class="node"><title>Node21</title>
<polygon fill="white" stroke="#bfbfbf" points="1312,-112.5 1312,-131.5 1365,-131.5 1365,-112.5 1312,-112.5"/>
<text text-anchor="middle" x="1338.5" y="-119.5" font-family="Ubuntu Regular" font-size="10.00">sstream</text>
</g>
<!-- Node20&#45;&gt;Node21 -->
<g id="edge35" class="edge"><title>Node20&#45;&gt;Node21</title>
<path fill="none" stroke="midnightblue" d="M1215.63,-168.444C1239.98,-159.438 1278.51,-145.189 1305.92,-135.049"/>
<polygon fill="midnightblue" stroke="midnightblue" points="1307.31,-138.268 1315.47,-131.516 1304.88,-131.703 1307.31,-138.268"/>
</g>
<!-- Node22 -->
<g id="node22" class="node"><title>Node22</title>
<polygon fill="white" stroke="#bfbfbf" points="1166,-112.5 1166,-131.5 1219,-131.5 1219,-112.5 1166,-112.5"/>
<text text-anchor="middle" x="1192.5" y="-119.5" font-family="Ubuntu Regular" font-size="10.00">fstream</text>
</g>
<!-- Node20&#45;&gt;Node22 -->
<g id="edge36" class="edge"><title>Node20&#45;&gt;Node22</title>
<path fill="none" stroke="midnightblue" d="M1192.5,-168.083C1192.5,-161.006 1192.5,-150.861 1192.5,-141.986"/>
<polygon fill="midnightblue" stroke="midnightblue" points="1196,-141.751 1192.5,-131.751 1189,-141.751 1196,-141.751"/>
</g>
<!-- Node23 -->
<g id="node23" class="node"><title>Node23</title>
<polygon fill="white" stroke="#bfbfbf" points="1237,-112.5 1237,-131.5 1294,-131.5 1294,-112.5 1237,-112.5"/>
<text text-anchor="middle" x="1265.5" y="-119.5" font-family="Ubuntu Regular" font-size="10.00">iostream</text>
</g>
<!-- Node20&#45;&gt;Node23 -->
<g id="edge37" class="edge"><title>Node20&#45;&gt;Node23</title>
<path fill="none" stroke="midnightblue" d="M1204.23,-168.324C1215.34,-160.107 1232.24,-147.602 1245.48,-137.807"/>
<polygon fill="midnightblue" stroke="midnightblue" points="1247.6,-140.595 1253.56,-131.834 1243.44,-134.967 1247.6,-140.595"/>
</g>
<!-- Node24&#45;&gt;Node5 -->
<g id="edge45" class="edge"><title>Node24&#45;&gt;Node5</title>
<path fill="none" stroke="midnightblue" d="M881.688,-229.965C910.551,-223.053 943.305,-210.561 965.5,-188 968.394,-185.059 1003.56,-74.2291 1017.69,-29.469"/>
<polygon fill="midnightblue" stroke="midnightblue" points="1021.05,-30.4319 1020.72,-19.8422 1014.38,-28.3275 1021.05,-30.4319"/>
</g>
<!-- Node24&#45;&gt;Node6 -->
<g id="edge46" class="edge"><title>Node24&#45;&gt;Node6</title>
<path fill="none" stroke="midnightblue" d="M815.525,-229.775C808.003,-214.375 790.114,-182.625 764.5,-168 718.2,-141.564 571.978,-130.207 485.142,-125.691"/>
<polygon fill="midnightblue" stroke="midnightblue" points="485.28,-122.194 475.117,-125.186 484.928,-129.185 485.28,-122.194"/>
</g>
<!-- Node24&#45;&gt;Node9 -->
<g id="edge43" class="edge"><title>Node24&#45;&gt;Node9</title>
<path fill="none" stroke="midnightblue" d="M817.935,-229.618C814.963,-215.088 807.238,-186.05 790.5,-168 746.926,-121.011 676.631,-92.7638 631.772,-78.5377"/>
<polygon fill="midnightblue" stroke="midnightblue" points="632.64,-75.143 622.053,-75.5485 630.583,-81.8337 632.64,-75.143"/>
</g>
<!-- Node24&#45;&gt;Node14 -->
<g id="edge48" class="edge"><title>Node24&#45;&gt;Node14</title>
<path fill="none" stroke="midnightblue" d="M831.535,-229.975C845.008,-220.431 867.066,-204.807 883.215,-193.368"/>
<polygon fill="midnightblue" stroke="midnightblue" points="885.35,-196.145 891.487,-187.509 881.304,-190.433 885.35,-196.145"/>
</g>
<!-- Node24&#45;&gt;Node18 -->
<g id="edge42" class="edge"><title>Node24&#45;&gt;Node18</title>
<path fill="none" stroke="midnightblue" d="M788.266,-229.975C749.9,-219.504 684.713,-201.712 642.389,-190.16"/>
<polygon fill="midnightblue" stroke="midnightblue" points="643.245,-186.766 632.676,-187.509 641.402,-193.519 643.245,-186.766"/>
</g>
<!-- Node24&#45;&gt;Node19 -->
<g id="edge44" class="edge"><title>Node24&#45;&gt;Node19</title>
<path fill="none" stroke="midnightblue" d="M802.88,-229.975C783.585,-220.078 751.541,-203.642 729.069,-192.115"/>
<polygon fill="midnightblue" stroke="midnightblue" points="730.584,-188.959 720.089,-187.509 727.39,-195.187 730.584,-188.959"/>
</g>
<!-- Node24&#45;&gt;Node20 -->
<g id="edge47" class="edge"><title>Node24&#45;&gt;Node20</title>
<path fill="none" stroke="midnightblue" d="M872.942,-229.975C940.525,-219.194 1056.75,-200.654 1128.85,-189.153"/>
<polygon fill="midnightblue" stroke="midnightblue" points="1129.83,-192.541 1139.16,-187.509 1128.73,-185.628 1129.83,-192.541"/>
</g>
<!-- Node25&#45;&gt;Node5 -->
<g id="edge55" class="edge"><title>Node25&#45;&gt;Node5</title>
<path fill="none" stroke="midnightblue" d="M1005.26,-403.217C1010.95,-356.397 1028.74,-203.268 1034.5,-76 1034.9,-67.1202 1035.56,-64.8251 1034.5,-56 1033.43,-47.1069 1031.21,-37.4344 1029.04,-29.344"/>
<polygon fill="midnightblue" stroke="midnightblue" points="1032.34,-28.1668 1026.23,-19.5139 1025.61,-30.0908 1032.34,-28.1668"/>
</g>
<!-- Node25&#45;&gt;Node16 -->
<g id="edge56" class="edge"><title>Node25&#45;&gt;Node16</title>
<path fill="none" stroke="midnightblue" d="M959.895,-403.399C928.1,-393.118 885.526,-379.351 855.625,-369.682"/>
<polygon fill="midnightblue" stroke="midnightblue" points="856.597,-366.318 846.005,-366.571 854.443,-372.978 856.597,-366.318"/>
</g>
<!-- Node25&#45;&gt;Node20 -->
<g id="edge57" class="edge"><title>Node25&#45;&gt;Node20</title>
<path fill="none" stroke="midnightblue" d="M1026.2,-403.333C1039.99,-394.052 1057.39,-381.065 1070.5,-367 1122.17,-311.563 1165.84,-231.656 1183.77,-196.604"/>
<polygon fill="midnightblue" stroke="midnightblue" points="1186.93,-198.107 1188.31,-187.602 1180.68,-194.954 1186.93,-198.107"/>
</g>
<!-- Node26&#45;&gt;Node5 -->
<g id="edge59" class="edge"><title>Node26&#45;&gt;Node5</title>
<path fill="none" stroke="midnightblue" d="M1126.04,-403.258C1120.63,-353.79 1099.42,-185.387 1049.5,-56 1045.77,-46.3193 1040.14,-36.2552 1035.07,-28.1058"/>
<polygon fill="midnightblue" stroke="midnightblue" points="1037.91,-26.0448 1029.53,-19.5561 1032.04,-29.8516 1037.91,-26.0448"/>
</g>
<!-- Node26&#45;&gt;Node16 -->
<g id="edge60" class="edge"><title>Node26&#45;&gt;Node16</title>
<path fill="none" stroke="midnightblue" d="M1074.44,-404.911C1071.42,-404.25 1068.42,-403.609 1065.5,-403 1002.47,-389.873 929.924,-376.855 880.031,-368.224"/>
<polygon fill="midnightblue" stroke="midnightblue" points="880.501,-364.754 870.052,-366.504 879.312,-371.652 880.501,-364.754"/>
</g>
<!-- Node26&#45;&gt;Node20 -->
<g id="edge61" class="edge"><title>Node26&#45;&gt;Node20</title>
<path fill="none" stroke="midnightblue" d="M1135.26,-403.494C1145.97,-383.559 1165.13,-345.578 1175.5,-311 1182.74,-286.854 1181.18,-279.989 1184.5,-255 1187.06,-235.716 1189.31,-213.591 1190.77,-198.204"/>
<polygon fill="midnightblue" stroke="midnightblue" points="1194.29,-198.19 1191.72,-187.911 1187.32,-197.547 1194.29,-198.19"/>
</g>
<!-- Node27&#45;&gt;Node5 -->
<g id="edge63" class="edge"><title>Node27&#45;&gt;Node5</title>
<path fill="none" stroke="midnightblue" d="M1304.51,-412.127C1406.82,-400.283 1621.5,-367.611 1621.5,-302 1621.5,-302 1621.5,-302 1621.5,-121 1621.5,-66.5349 1232.84,-28.395 1082.18,-15.6567"/>
<polygon fill="midnightblue" stroke="midnightblue" points="1082.44,-12.1661 1072.18,-14.819 1081.86,-19.1417 1082.44,-12.1661"/>
</g>
<!-- Node27&#45;&gt;Node16 -->
<g id="edge64" class="edge"><title>Node27&#45;&gt;Node16</title>
<path fill="none" stroke="midnightblue" d="M1198.48,-404.7C1195.45,-404.093 1192.44,-403.521 1189.5,-403 1086.35,-384.722 965.7,-371.566 890.93,-364.363"/>
<polygon fill="midnightblue" stroke="midnightblue" points="890.978,-360.852 880.691,-363.386 890.313,-367.82 890.978,-360.852"/>
</g>
<!-- Node27&#45;&gt;Node20 -->
<g id="edge65" class="edge"><title>Node27&#45;&gt;Node20</title>
<path fill="none" stroke="midnightblue" d="M1251.46,-403.363C1250.94,-370.657 1247.09,-287.697 1222.5,-224 1218.62,-213.944 1212.19,-203.858 1206.27,-195.791"/>
<polygon fill="midnightblue" stroke="midnightblue" points="1208.86,-193.42 1199.97,-187.65 1203.32,-197.702 1208.86,-193.42"/>
</g>
<!-- Node28 -->
<g id="node28" class="node"><title>Node28</title>
<g id="a_node28"><a xlink:href="delta__encoder_8hpp.html" target="_top" xlink:title="karazeh/delta_encoder.hpp">
<polygon fill="white" stroke="black" points="1275,-291.5 1275,-310.5 1418,-310.5 1418,-291.5 1275,-291.5"/>
<text text-anchor="middle" x="1346.5" y="-298.5" font-family="Ubuntu Regular" font-size="10.00">karazeh/delta_encoder.hpp</text>
</a>
</g>
</g>
<!-- Node27&#45;&gt;Node28 -->
<g id="edge66" class="edge"><title>Node27&#45;&gt;Node28</title>
<path fill="none" stroke="midnightblue" d="M1263.15,-403.337C1280.81,-381.865 1314.28,-341.172 1332.99,-318.429"/>
<polygon fill="midnightblue" stroke="midnightblue" points="1335.72,-320.616 1339.37,-310.669 1330.31,-316.169 1335.72,-320.616"/>
</g>
<!-- Node28&#45;&gt;Node5 -->
<g id="edge67" class="edge"><title>Node28&#45;&gt;Node5</title>
<path fill="none" stroke="midnightblue" d="M1349.39,-291.162C1360.01,-257.924 1395.2,-140.854 1373.5,-112 1338.45,-65.4034 1172.31,-33.5325 1082.1,-19.3488"/>
<polygon fill="midnightblue" stroke="midnightblue" points="1082.44,-15.8596 1072.03,-17.7878 1081.37,-22.7772 1082.44,-15.8596"/>
</g>
<!-- Node28&#45;&gt;Node6 -->
<g id="edge68" class="edge"><title>Node28&#45;&gt;Node6</title>
<path fill="none" stroke="midnightblue" d="M1343.49,-291.157C1334.55,-266.407 1305.51,-196.395 1254.5,-168 1188.09,-131.032 672.084,-124.433 485.522,-123.255"/>
<polygon fill="midnightblue" stroke="midnightblue" points="485.321,-119.754 475.3,-123.194 485.279,-126.754 485.321,-119.754"/>
</g>
<!-- Node28&#45;&gt;Node20 -->
<g id="edge69" class="edge"><title>Node28&#45;&gt;Node20</title>
<path fill="none" stroke="midnightblue" d="M1337.32,-291.119C1321.98,-276.453 1289.91,-246.552 1260.5,-224 1245.99,-212.871 1228.8,-201.515 1215.34,-192.995"/>
<polygon fill="midnightblue" stroke="midnightblue" points="1217.03,-189.922 1206.7,-187.587 1213.32,-195.857 1217.03,-189.922"/>
</g>
<!-- Node28&#45;&gt;Node24 -->
<g id="edge70" class="edge"><title>Node28&#45;&gt;Node24</title>
<path fill="none" stroke="midnightblue" d="M1274.88,-291.914C1176.25,-280.778 999.279,-260.798 897.43,-249.299"/>
<polygon fill="midnightblue" stroke="midnightblue" points="897.538,-245.789 887.208,-248.145 896.753,-252.744 897.538,-245.789"/>
</g>
<!-- Node29 -->
<g id="node29" class="node"><title>Node29</title>
<polygon fill="white" stroke="#bfbfbf" points="1389,-224.5 1389,-254.5 1482,-254.5 1482,-224.5 1389,-224.5"/>
<text text-anchor="start" x="1397" y="-242.5" font-family="Ubuntu Regular" font-size="10.00">librsync&#45;2.0.0/src</text>
<text text-anchor="middle" x="1435.5" y="-231.5" font-family="Ubuntu Regular" font-size="10.00">/librsync.h</text>
</g>
<!-- Node28&#45;&gt;Node29 -->
<g id="edge71" class="edge"><title>Node28&#45;&gt;Node29</title>
<path fill="none" stroke="midnightblue" d="M1359.25,-291.475C1371.42,-283.341 1390.19,-270.791 1406.06,-260.179"/>
<polygon fill="midnightblue" stroke="midnightblue" points="1408.16,-262.99 1414.52,-254.523 1404.27,-257.171 1408.16,-262.99"/>
</g>
<!-- Node30 -->
<g id="node30" class="node"><title>Node30</title>
<polygon fill="white" stroke="#bfbfbf" points="1500,-224.5 1500,-254.5 1593,-254.5 1593,-224.5 1500,-224.5"/>
<text text-anchor="start" x="1508" y="-242.5" font-family="Ubuntu Regular" font-size="10.00">librsync&#45;2.0.0/src</text>
<text text-anchor="middle" x="1546.5" y="-231.5" font-family="Ubuntu Regular" font-size="10.00">/fileutil.h</text>
</g>
<!-- Node28&#45;&gt;Node30 -->
<g id="edge72" class="edge"><title>Node28&#45;&gt;Node30</title>
<path fill="none" stroke="midnightblue" d="M1375.16,-291.475C1405,-282.596 1452.53,-268.455 1489.97,-257.317"/>
<polygon fill="midnightblue" stroke="midnightblue" points="1491.16,-260.615 1499.75,-254.408 1489.17,-253.905 1491.16,-260.615"/>
</g>
</g>
</svg>
